<?xml version="1.0" encoding="utf-8"?>
<!-- Generator: Adobe Illustrator 19.2.0, SVG Export Plug-In . SVG Version: 6.00 Build 0)  -->
<svg version="1.1" xmlns="http://www.w3.org/2000/svg" xmlns:xlink="http://www.w3.org/1999/xlink" x="0px" y="0px"
	 viewBox="0 0 100.7 97" style="enable-background:new 0 0 100.7 97;" xml:space="preserve">
<style type="text/css">
	.st0{display:none;}
	.st1{display:inline;}
	.st2{fill:#660000;}
	.st3{fill:#330066;}
	.st4{fill:#339999;}
	.st5{fill:#333333;}
	.st6{fill:#006600;}
</style>
<g id="cas" class="st0">
	<g id="Layer_2">
		
			<image style="display:inline;overflow:visible;enable-background:new    ;" width="1000" height="407" xlink:href="background.png"  transform="matrix(0.8906 0 0 1.0255 -336.6677 -155.22)">
		</image>
	</g>
	<g id="Layer_3" class="st1">
	</g>
	<g id="logo" class="st1">
		<g>
			<path class="st2" d="M57.7,35.8c0.2,0.1,1.7,4.5,3.2,9.9s2.7,9.7,2.4,9.7c-0.2-0.1-1.7-4.5-3.2-9.9
				C58.6,40.1,57.5,35.8,57.7,35.8z"/>
			<path class="st2" d="M53.7,56.3c-1.8,1-3.4,1.8-3.7,1.7c-0.3-0.1,0.9-1,2.7-2c1.8-1,3.4-1.8,3.7-1.7
				C56.7,54.4,55.5,55.3,53.7,56.3z"/>
			<path class="st2" d="M43.8,54.6c-0.1,0.3-1-0.9-2-2.7c-1-1.8-1.8-3.4-1.7-3.7c0.1-0.3,1,0.9,2,2.7C43.2,52.7,43.9,54.3,43.8,54.6
				z"/>
			<path class="st2" d="M47,40.7c1.8-1,3.4-1.8,3.7-1.7c0.3,0.1-0.9,1-2.7,2c-1.8,1-3.4,1.8-3.7,1.7C44,42.6,45.2,41.7,47,40.7z"/>
			<path class="st2" d="M54,47.1c0.4,0.7,0.7,1.4,0.7,1.5c0,0.1-0.4-0.4-0.8-1.1s-0.7-1.4-0.7-1.5C53.2,45.9,53.6,46.4,54,47.1z"/>
			<path class="st2" d="M53.5,43.2c0.1,0,0.7,1.9,1.4,4.1c0.6,2.3,1.1,4.1,1,4c-0.1,0-0.7-1.9-1.4-4.1C53.9,45,53.4,43.2,53.5,43.2z
				"/>
			<path class="st2" d="M51.8,47.9c0.2,0.3,0.3,0.5,0.3,0.6c0,0-0.2-0.1-0.3-0.4c-0.2-0.3-0.3-0.5-0.3-0.6
				C51.5,47.5,51.7,47.7,51.8,47.9z"/>
			<path class="st2" d="M51.6,46.5c0,0,0.3,0.7,0.5,1.6c0.2,0.9,0.4,1.5,0.4,1.5c0,0-0.3-0.7-0.5-1.6C51.8,47.1,51.6,46.5,51.6,46.5
				z"/>
			<path class="st2" d="M50,47c-0.9,0.2-1.5,0.4-1.5,0.4c0,0,0.7-0.3,1.6-0.5c0.9-0.2,1.5-0.4,1.5-0.4C51.6,46.6,50.8,46.8,50,47z"
				/>
			<path class="st2" d="M50.8,49.7c0.3-0.2,0.5-0.3,0.6-0.3c0,0-0.1,0.2-0.4,0.3S50.5,50,50.4,50C50.4,50,50.6,49.8,50.8,49.7z"/>
			<path class="st2" d="M50.1,47.3c-0.3,0.2-0.5,0.3-0.6,0.3c0,0,0.1-0.2,0.4-0.3c0.3-0.2,0.5-0.3,0.6-0.3
				C50.6,47,50.4,47.1,50.1,47.3z"/>
			<path class="st2" d="M49.4,45.4c-0.7,0.4-1.4,0.7-1.5,0.7c-0.1,0,0.4-0.4,1.1-0.8s1.4-0.7,1.5-0.7C50.7,44.6,50.1,45,49.4,45.4z"
				/>
			<path class="st2" d="M48.8,48.9c-0.2-0.9-0.4-1.5-0.4-1.5c0,0,0.3,0.7,0.5,1.6c0.2,0.9,0.4,1.5,0.4,1.5
				C49.3,50.5,49,49.8,48.8,48.9z"/>
			<path class="st2" d="M49.1,49c-0.2-0.3-0.3-0.5-0.3-0.6c0,0,0.2,0.1,0.3,0.4c0.2,0.3,0.3,0.5,0.3,0.6
				C49.4,49.5,49.3,49.3,49.1,49z"/>
			<path class="st2" d="M50.9,49.9c0.9-0.2,1.5-0.4,1.5-0.4s-0.7,0.3-1.6,0.5c-0.9,0.2-1.5,0.4-1.5,0.4
				C49.4,50.4,50.1,50.2,50.9,49.9z"/>
			<path class="st2" d="M51.4,51.6c0.7-0.4,1.4-0.7,1.5-0.7c0.1,0-0.4,0.4-1.1,0.8s-1.4,0.7-1.5,0.7C50.2,52.5,50.7,52.1,51.4,51.6z
				"/>
			<path class="st2" d="M49.2,44.7c-2.3,0.6-4.1,1.1-4,1c0-0.1,1.9-0.7,4.1-1.4c2.3-0.7,4.1-1.1,4-1C53.3,43.5,51.4,44.1,49.2,44.7z
				"/>
			<path class="st2" d="M46,49.7c-0.6-2.3-1.1-4.1-1-4c0.1,0,0.7,1.9,1.4,4.1c0.6,2.3,1.1,4.1,1,4C47.2,53.8,46.6,51.9,46,49.7z"/>
			<path class="st2" d="M46.8,49.9c-0.4-0.7-0.7-1.4-0.7-1.5c0-0.1,0.4,0.4,0.8,1.1s0.7,1.4,0.7,1.5C47.6,51.2,47.3,50.7,46.8,49.9z
				"/>
			<path class="st2" d="M51.7,52.3c2.3-0.6,4.1-1.1,4-1c0,0.1-1.9,0.7-4.1,1.4c-2.3,0.6-4.1,1.1-4,1C47.6,53.6,49.4,53,51.7,52.3z"
				/>
			<path class="st2" d="M58.5,46.1c-1-1.8-1.8-3.4-1.7-3.7c0.1-0.3,1,0.9,2,2.7c1,1.8,1.8,3.4,1.7,3.7
				C60.4,49.1,59.6,47.8,58.5,46.1z"/>
			<path class="st2" d="M57.2,36.2c-0.1,0.2-4.5,1.7-9.9,3.2s-9.7,2.7-9.7,2.4c0.1-0.2,4.5-1.7,9.9-3.2S57.3,35.9,57.2,36.2z"/>
			<path class="st2" d="M42.9,61.1c-0.2-0.1-1.7-4.5-3.2-9.9s-2.7-9.7-2.4-9.7c0.2,0.1,1.7,4.5,3.2,9.9S43.2,61.2,42.9,61.1z"/>
			<path class="st2" d="M43.4,60.8c0.1-0.2,4.5-1.7,9.9-3.2c5.4-1.6,9.7-2.7,9.7-2.4c-0.1,0.2-4.5,1.7-9.9,3.2
				C47.7,59.9,43.4,61,43.4,60.8z"/>
			<g>
				<path class="st2" d="M49.9,46.5L49.9,46.5C49.9,46.5,49.9,46.5,49.9,46.5C49.9,46.5,49.9,46.5,49.9,46.5z"/>
				<path class="st2" d="M49.7,46.6L49.7,46.6L49.7,46.6z"/>
				<path class="st2" d="M51.4,45.5c-0.1-0.1-0.3-0.1-0.6-0.1c-0.3,0-0.7,0.1-1.2,0.3c-0.5,0.2-0.9,0.4-1.1,0.6
					c-0.2,0.2-0.3,0.4-0.3,0.5c0,0.1,0.2,0.2,0.5,0.2c0.1,0,0.1,0,0.2,0c0,0,0.1,0,0.2,0c0.2,0,0.5-0.1,0.9-0.2l0,0c0,0,0,0,0,0.1
					c0,0,0.1,0,0.2,0c0.1,0,0.2,0,0.2-0.1c0,0,0,0-0.1,0c0,0,0,0,0-0.1c0,0,0.1-0.1,0.2-0.1l0,0c0.4-0.2,0.7-0.4,0.9-0.6
					C51.4,45.8,51.5,45.7,51.4,45.5z M49.9,46.6c-0.7,0.3-1.3,0.3-1.4,0.1c-0.1-0.2,0.4-0.6,1-0.9c0.7-0.3,1.3-0.3,1.4-0.1
					C51.1,46,50.6,46.4,49.9,46.6z"/>
			</g>
			<g>
				<path class="st2" d="M52.8,40.8c-0.2-0.3-0.7-0.4-1.5-0.3c-0.9,0.1-2,0.4-3.3,0.9c-1.3,0.5-2.3,1.1-3,1.6
					c-0.6,0.5-0.9,1-0.9,1.3c0.1,0.4,0.5,0.5,1.2,0.5c0.2,0,0.4,0,0.6,0c0.1,0,0.3,0,0.4-0.1c0.6-0.1,1.4-0.3,2.3-0.6l-0.1,0.1
					c-0.1,0.1-0.1,0.1-0.1,0.2c0,0,0.2,0,0.5,0c0.3-0.1,0.5-0.1,0.6-0.2c0.1-0.1,0-0.1-0.2-0.1c-0.1,0-0.1-0.1,0-0.2
					c0.1-0.1,0.2-0.2,0.5-0.3l0.1,0c1.1-0.5,1.9-1,2.4-1.5C52.9,41.4,53,41,52.8,40.8z M49,43.7c-1.8,0.7-3.4,0.8-3.6,0.2
					s1-1.6,2.8-2.4c1.8-0.7,3.4-0.8,3.6-0.2S50.7,43,49,43.7z"/>
				<path class="st2" d="M48.9,43.4L48.9,43.4C48.9,43.4,48.9,43.4,48.9,43.4C48.9,43.4,48.9,43.4,48.9,43.4z"/>
				<path class="st2" d="M48.5,43.7L48.5,43.7L48.5,43.7L48.5,43.7z"/>
			</g>
			<g>
				<path class="st2" d="M46.8,36.2L46.8,36.2c0,0-0.1,0-0.2,0.1C46.6,36.3,46.7,36.2,46.8,36.2z"/>
				<path class="st2" d="M45.7,36.9C45.7,36.9,45.7,36.9,45.7,36.9L45.7,36.9C45.7,36.9,45.7,36.9,45.7,36.9z"/>
				<path class="st2" d="M56,29.9c-0.5-0.7-1.8-0.9-3.7-0.8c-2.1,0.2-4.7,0.9-7.8,2.1c-3.1,1.2-5.4,2.5-7.1,3.9
					c-1.5,1.3-2.2,2.3-2.1,3.2c0.2,0.9,1.2,1.3,2.9,1.3c0.4,0,0.9,0,1.4-0.1c0.3,0,0.7-0.1,1-0.1c1.6-0.3,3.4-0.8,5.5-1.5L46,38
					c-0.2,0.2-0.2,0.3-0.2,0.4c0.1,0.1,0.5,0.1,1.2,0c0.8-0.2,1.3-0.3,1.5-0.5c0.2-0.2,0.1-0.2-0.4-0.2c-0.2-0.1-0.2-0.3,0.1-0.5
					c0.2-0.2,0.6-0.4,1.1-0.7l0.3-0.1c2.6-1.2,4.5-2.5,5.7-3.7C56.3,31.5,56.6,30.6,56,29.9z M46.9,37c-4.2,1.7-8.1,2-8.6,0.6
					s2.4-3.9,6.6-5.6s8.1-2,8.6-0.6C54.1,32.7,51.1,35.3,46.9,37z"/>
			</g>
			<path class="st2" d="M39.4,63.5c-0.8,0.1-1.9-0.6-3.2-2.1c-1.4-1.7-2.7-4.1-3.9-7.1c-1.2-3.1-1.9-5.7-2.1-7.8
				c-0.1-1.9,0.1-3.1,0.8-3.7c0.7-0.5,1.6-0.3,2.7,0.8c1.2,1.1,2.4,3,3.7,5.7l0.1,0.3c0.3,0.5,0.5,0.9,0.7,1.1
				c0.2,0.2,0.4,0.3,0.5,0.1c0-0.5,0.1-0.7,0.2-0.4c0.1,0.2,0.3,0.8,0.5,1.5c0.1,0.7,0.1,1.1,0,1.2c-0.1,0.1-0.2,0-0.4-0.2l-0.2-0.1
				c0.7,2.1,1.3,3.9,1.5,5.5c0.1,0.3,0.1,0.7,0.1,1c0.1,0.5,0.1,1,0.1,1.4C40.7,62.3,40.3,63.3,39.4,63.5z M32.5,45.3
				c-1.4,0.6-1.1,4.4,0.6,8.6c1.7,4.2,4.2,7.1,5.6,6.6c1.4-0.6,1.1-4.4-0.6-8.6C36.4,47.7,33.8,44.8,32.5,45.3z"/>
			<path class="st2" d="M48.9,50.2c0,0,0-0.1,0-0.2c0-0.2-0.1-0.5-0.2-0.9l0,0c0,0,0,0,0.1,0c0,0,0-0.1,0-0.2c0-0.1,0-0.2-0.1-0.2
				c0,0,0,0,0,0.1c0,0,0,0-0.1,0c0,0-0.1-0.1-0.1-0.2l0,0c-0.2-0.4-0.4-0.7-0.6-0.9c-0.2-0.2-0.3-0.2-0.4-0.1
				c-0.1,0.1-0.1,0.3-0.1,0.6c0,0.3,0.1,0.7,0.3,1.2c0.2,0.5,0.4,0.9,0.6,1.1c0.2,0.2,0.4,0.3,0.5,0.3c0.1,0,0.2-0.2,0.2-0.5
				C48.9,50.3,48.9,50.2,48.9,50.2z M48.6,50.4c-0.2,0.1-0.6-0.4-0.9-1c-0.3-0.7-0.3-1.3-0.1-1.4c0.2-0.1,0.6,0.4,0.9,1
				C48.8,49.7,48.8,50.3,48.6,50.4z"/>
			<path class="st2" d="M53.6,48.8c0-0.3-0.1-0.7-0.3-1.2c-0.2-0.5-0.4-0.9-0.6-1.1c-0.2-0.2-0.4-0.3-0.5-0.3
				c-0.1,0-0.2,0.2-0.2,0.5c0,0.1,0,0.1,0,0.2c0,0,0,0.1,0,0.2c0,0.2,0.1,0.5,0.2,0.9l0,0c0,0,0,0-0.1,0c0,0,0,0.1,0,0.2
				c0,0.1,0,0.2,0.1,0.2c0,0,0,0,0-0.1c0,0,0,0,0.1,0c0,0,0.1,0.1,0.1,0.2l0,0c0.2,0.4,0.4,0.7,0.6,0.9c0.2,0.2,0.3,0.2,0.4,0.1
				C53.6,49.3,53.7,49.1,53.6,48.8z M53.3,49c-0.2,0.1-0.6-0.4-0.9-1c-0.3-0.7-0.3-1.3-0.1-1.4c0.2-0.1,0.6,0.4,0.9,1
				C53.5,48.3,53.5,48.9,53.3,49z"/>
			<path class="st2" d="M52.9,50.1c0-0.1-0.2-0.2-0.5-0.2c-0.1,0-0.1,0-0.2,0c0,0-0.1,0-0.2,0c-0.2,0-0.5,0.1-0.9,0.2l0,0
				c0,0,0,0,0-0.1c0,0-0.1,0-0.2,0c-0.1,0-0.2,0-0.2,0.1c0,0,0,0,0.1,0c0,0,0,0,0,0.1c0,0-0.1,0.1-0.2,0.1l0,0
				c-0.4,0.2-0.7,0.4-0.9,0.6c-0.2,0.2-0.2,0.3-0.1,0.4c0.1,0.1,0.3,0.1,0.6,0.1c0.3,0,0.7-0.1,1.2-0.3c0.5-0.2,0.9-0.4,1.1-0.6
				C52.8,50.4,52.9,50.2,52.9,50.1z M51.3,51.1c-0.7,0.3-1.3,0.3-1.4,0.1c-0.1-0.2,0.4-0.6,1-0.9c0.7-0.3,1.3-0.3,1.4-0.1
				C52.5,50.4,52,50.8,51.3,51.1z"/>
			<path class="st2" d="M46.3,53c0-0.1,0-0.3-0.1-0.4c-0.1-0.6-0.3-1.4-0.6-2.3l0.1,0.1c0.1,0.1,0.1,0.1,0.2,0.1c0,0,0-0.2,0-0.5
				c-0.1-0.3-0.1-0.5-0.2-0.6c-0.1-0.1-0.1,0-0.1,0.2c0,0.1-0.1,0.1-0.2,0c-0.1-0.1-0.2-0.2-0.3-0.5l0-0.1c-0.5-1.1-1-1.9-1.5-2.4
				c-0.5-0.4-0.8-0.5-1.1-0.3c-0.3,0.2-0.4,0.7-0.3,1.5c0.1,0.9,0.4,2,0.9,3.3c0.5,1.3,1.1,2.3,1.6,3c0.5,0.6,1,0.9,1.3,0.9
				c0.4-0.1,0.5-0.5,0.5-1.2C46.4,53.4,46.4,53.2,46.3,53z M45.5,53.6c-0.6,0.2-1.6-1-2.4-2.8c-0.7-1.8-0.8-3.4-0.2-3.6
				c0.6-0.2,1.6,1,2.4,2.8C46,51.7,46.1,53.3,45.5,53.6z"/>
			<path class="st2" d="M69.6,54.2c-0.7,0.5-1.6,0.3-2.7-0.8c-1.2-1.1-2.4-3-3.7-5.7l-0.1-0.3c-0.3-0.5-0.5-0.9-0.7-1.1
				c-0.2-0.2-0.4-0.3-0.5-0.1c0,0.5-0.1,0.7-0.2,0.4c-0.1-0.2-0.3-0.8-0.5-1.5c-0.1-0.7-0.1-1.1,0-1.2c0.1-0.1,0.2,0,0.4,0.2
				l0.2,0.1c-0.7-2.1-1.3-3.9-1.5-5.5c-0.1-0.3-0.1-0.7-0.1-1c-0.1-0.5-0.1-1-0.1-1.4c0-1.8,0.4-2.8,1.3-2.9
				c0.8-0.1,1.9,0.6,3.2,2.1c1.4,1.7,2.7,4.1,3.9,7.1c1.2,3.1,1.9,5.7,2.1,7.8C70.6,52.4,70.3,53.6,69.6,54.2z M62,36.4
				c-1.4,0.6-1.1,4.4,0.6,8.6c1.7,4.2,4.2,7.1,5.6,6.6c1.4-0.6,1.1-4.4-0.6-8.6C66,38.8,63.4,35.8,62,36.4z"/>
			<path class="st2" d="M56.7,52.8c-0.1-0.4-0.5-0.5-1.2-0.5c-0.2,0-0.4,0-0.6,0c-0.1,0-0.3,0-0.4,0.1c-0.6,0.1-1.4,0.3-2.3,0.6
				l0.1-0.1c0.1-0.1,0.1-0.1,0.1-0.2c0,0-0.2,0-0.5,0c-0.3,0.1-0.5,0.1-0.6,0.2s0,0.1,0.2,0.1c0.1,0,0.1,0.1,0,0.2
				c-0.1,0.1-0.2,0.2-0.5,0.3l-0.1,0c-1.1,0.5-1.9,1-2.4,1.5c-0.4,0.5-0.5,0.8-0.3,1.1c0.2,0.3,0.7,0.4,1.5,0.3
				c0.9-0.1,2-0.4,3.3-0.9c1.3-0.5,2.3-1.1,3-1.6C56.5,53.6,56.8,53.1,56.7,52.8z M52.7,55.5c-1.8,0.7-3.4,0.8-3.6,0.2
				s1-1.6,2.8-2.4c1.8-0.7,3.4-0.8,3.6-0.2S54.5,54.7,52.7,55.5z"/>
			<path class="st2" d="M63.3,61.8c-1.7,1.4-4.1,2.7-7.1,3.9c-3.1,1.2-5.7,1.9-7.8,2.1c-1.9,0.1-3.1-0.1-3.7-0.8
				c-0.5-0.7-0.3-1.6,0.8-2.7c1.1-1.2,3-2.4,5.7-3.7l0.3-0.1c0.5-0.3,0.9-0.5,1.1-0.7c0.2-0.2,0.3-0.4,0.1-0.5
				c-0.5,0-0.7-0.1-0.4-0.2c0.2-0.1,0.8-0.3,1.5-0.5c0.7-0.1,1.1-0.1,1.2,0c0.1,0.1,0,0.2-0.2,0.4l-0.1,0.2c2.1-0.7,3.9-1.3,5.5-1.5
				c0.3-0.1,0.7-0.1,1-0.1c0.5-0.1,1-0.1,1.4-0.1c1.8,0,2.8,0.4,2.9,1.3C65.5,59.5,64.8,60.6,63.3,61.8z M53.8,60
				c-4.2,1.7-7.1,4.2-6.6,5.6c0.6,1.4,4.4,1.1,8.6-0.6s7.1-4.2,6.6-5.6C61.8,58,58,58.3,53.8,60z"/>
			<path class="st2" d="M58.8,49.4c-0.1-0.9-0.4-2-0.9-3.3c-0.5-1.3-1.1-2.3-1.6-3c-0.5-0.6-1-0.9-1.3-0.9c-0.4,0.1-0.5,0.5-0.5,1.2
				c0,0.2,0,0.4,0,0.6c0,0.1,0,0.3,0.1,0.4c0.1,0.6,0.3,1.4,0.6,2.3l-0.1-0.1c-0.1-0.1-0.1-0.1-0.2-0.1c0,0,0,0.2,0,0.5
				c0.1,0.3,0.1,0.5,0.2,0.6s0.1,0,0.1-0.2c0-0.1,0.1-0.1,0.2,0c0.1,0.1,0.2,0.2,0.3,0.5l0,0.1c0.5,1.1,1,1.9,1.5,2.4
				c0.5,0.4,0.8,0.5,1.1,0.3C58.8,50.7,58.9,50.2,58.8,49.4z M57.9,49.8c-0.6,0.2-1.6-1-2.4-2.8c-0.7-1.8-0.8-3.4-0.2-3.6
				c0.6-0.2,1.6,1,2.4,2.8C58.4,48,58.5,49.6,57.9,49.8z"/>
		</g>
		<g>
			<path class="st2" d="M68.8,16.8c0.6,0.1,4.2,11.2,8.1,24.7c3.9,13.5,6.6,24.3,6.1,24.2c-0.6-0.1-4.2-11.2-8.1-24.7
				C70.9,27.5,68.2,16.7,68.8,16.8z"/>
			<path class="st2" d="M58.7,68c-4.4,2.6-8.5,4.4-9.2,4.2c-0.7-0.2,2.4-2.5,6.8-5.1c4.4-2.6,8.5-4.4,9.2-4.2
				C66.2,63.2,63.1,65.5,58.7,68z"/>
			<path class="st2" d="M34,63.7c-0.2,0.7-2.5-2.4-5.1-6.8c-2.6-4.4-4.4-8.5-4.2-9.2c0.2-0.7,2.5,2.4,5.1,6.8S34.3,63,34,63.7z"/>
			<path class="st2" d="M42,28.9c4.4-2.6,8.5-4.4,9.2-4.2c0.7,0.2-2.4,2.5-6.8,5.1c-4.4,2.6-8.5,4.4-9.2,4.2
				C34.5,33.8,37.5,31.5,42,28.9z"/>
			<path class="st2" d="M70.8,42.5c-2.6-4.4-4.4-8.5-4.2-9.2c0.2-0.7,2.5,2.4,5.1,6.8c2.6,4.4,4.4,8.5,4.2,9.2
				C75.6,49.9,73.4,46.9,70.8,42.5z"/>
			<path class="st2" d="M67.6,17.7c-0.1,0.6-11.2,4.2-24.7,8.1c-13.5,3.9-24.3,6.6-24.2,6.1c0.1-0.6,11.2-4.2,24.7-8.1
				C56.9,19.9,67.7,17.1,67.6,17.7z"/>
			<path class="st2" d="M31.9,80.1c-0.6-0.1-4.2-11.2-8.1-24.7c-3.9-13.5-6.6-24.3-6.1-24.2c0.6,0.1,4.2,11.2,8.1,24.7
				C29.7,69.5,32.4,80.3,31.9,80.1z"/>
			<path class="st2" d="M33.1,79.3c0.1-0.6,11.2-4.2,24.7-8.1s24.3-6.6,24.2-6.1c-0.1,0.6-11.2,4.2-24.7,8.1
				C43.8,77.1,32.9,79.8,33.1,79.3z"/>
			<g>
				<path class="st2" d="M41.4,17.8L41.4,17.8c-0.1,0-0.3,0.1-0.4,0.2C41.1,17.9,41.3,17.9,41.4,17.8z"/>
				<path class="st2" d="M38.8,19.4C38.8,19.4,38.8,19.4,38.8,19.4L38.8,19.4C38.8,19.4,38.8,19.4,38.8,19.4z"/>
				<path class="st2" d="M64.5,2.1c-1.4-1.7-4.4-2.4-9.2-2C50,0.6,43.5,2.3,35.9,5.4c-7.7,3.1-13.6,6.3-17.8,9.7
					c-3.9,3.1-5.6,5.8-5.3,7.9c0.5,2.1,2.9,3.2,7.3,3.2c1.1,0,2.3-0.1,3.5-0.2c0.8-0.1,1.7-0.2,2.5-0.4c3.9-0.7,8.5-2,13.6-3.8
					l-0.4,0.5c-0.5,0.5-0.6,0.8-0.5,1c0.2,0.3,1.2,0.3,3.1,0c2-0.4,3.3-0.8,3.9-1.2c0.6-0.4,0.2-0.6-1.1-0.6
					c-0.5-0.3-0.4-0.7,0.2-1.3c0.6-0.5,1.5-1.1,2.8-1.8l0.7-0.3c6.6-3.1,11.3-6.1,14.1-9.2C65.3,6,65.9,3.8,64.5,2.1z M41.8,19.7
					c-10.5,4.3-20.2,4.9-21.6,1.4c-1.4-3.5,6-9.8,16.5-14.1s20.2-4.9,21.6-1.4C59.7,9.1,52.3,15.4,41.8,19.7z"/>
			</g>
			<path class="st2" d="M23,86.1c-2.1,0.4-4.7-1.4-7.9-5.3C11.7,76.6,8.5,70.6,5.4,63c-3.1-7.7-4.8-14.2-5.3-19.5
				c-0.4-4.8,0.3-7.8,2-9.2c1.7-1.3,3.9-0.7,6.8,1.9c3,2.8,6.1,7.6,9.2,14.1l0.3,0.7c0.7,1.3,1.3,2.2,1.8,2.8c0.6,0.6,1,0.7,1.3,0.2
				c0-1.3,0.2-1.7,0.6-1.1c0.4,0.6,0.8,1.9,1.2,3.9c0.3,1.8,0.3,2.9,0,3.1c-0.1,0.1-0.5,0-1-0.5l-0.5-0.4c1.9,5.2,3.2,9.7,3.8,13.6
				c0.1,0.9,0.3,1.7,0.4,2.5c0.1,1.2,0.2,2.4,0.2,3.5C26.2,83.1,25.2,85.6,23,86.1z M5.6,40.6C2.1,42,2.7,51.7,7,62.2
				c4.3,10.5,10.6,17.9,14.1,16.5s2.9-11.1-1.4-21.6C15.4,46.5,9.1,39.1,5.6,40.6z"/>
			<path class="st2" d="M98.6,62.7c-1.7,1.3-3.9,0.7-6.8-1.9c-3-2.8-6.1-7.6-9.2-14.1l-0.3-0.7c-0.7-1.3-1.3-2.2-1.8-2.8
				c-0.6-0.6-1-0.7-1.3-0.2c0,1.3-0.2,1.7-0.6,1.1c-0.4-0.6-0.8-1.9-1.2-3.9c-0.3-1.8-0.3-2.9,0-3.1c0.1-0.1,0.5,0,1,0.5l0.5,0.4
				c-1.9-5.2-3.2-9.7-3.8-13.6c-0.1-0.9-0.3-1.7-0.4-2.5c-0.1-1.2-0.2-2.4-0.2-3.5c0-4.4,1-6.9,3.2-7.3c2.1-0.4,4.7,1.4,7.9,5.3
				c3.4,4.2,6.7,10.2,9.7,17.8s4.8,14.2,5.3,19.5C101,58.3,100.3,61.3,98.6,62.7z M79.6,18.3c-3.5,1.4-2.9,11.1,1.4,21.6
				c4.3,10.5,10.6,17.9,14.1,16.5c3.5-1.4,2.9-11.1-1.4-21.6C89.4,24.3,83.1,16.9,79.6,18.3z"/>
			<path class="st2" d="M82.7,81.8c-4.2,3.4-10.2,6.7-17.8,9.7s-14.2,4.8-19.5,5.3c-4.8,0.4-7.8-0.3-9.2-2c-1.3-1.7-0.7-3.9,1.9-6.8
				c2.8-3,7.6-6.1,14.1-9.2l0.7-0.3c1.3-0.7,2.2-1.3,2.8-1.8c0.6-0.6,0.7-1,0.2-1.3c-1.3,0-1.7-0.2-1.1-0.6c0.6-0.4,1.9-0.8,3.9-1.2
				c1.8-0.3,2.9-0.3,3.1,0c0.1,0.1,0,0.5-0.5,1l-0.4,0.5c5.2-1.9,9.7-3.2,13.6-3.8c0.9-0.1,1.7-0.3,2.5-0.4c1.2-0.1,2.4-0.2,3.5-0.2
				c4.4,0,6.9,1,7.3,3.2C88.3,76.1,86.5,78.7,82.7,81.8z M58.9,77.3C48.4,81.6,41,87.9,42.4,91.4c1.4,3.5,11.1,2.9,21.6-1.4
				C74.6,85.7,82,79.4,80.5,75.9C79.1,72.4,69.4,73,58.9,77.3z"/>
		</g>
	</g>
</g>
<g id="main" class="st0">
	<g id="logo_2_" class="st1">
		<g>
			<path class="st3" d="M57.7,35.8c0.2,0.1,1.7,4.5,3.2,9.9s2.7,9.7,2.4,9.7c-0.2-0.1-1.7-4.5-3.2-9.9
				C58.6,40.1,57.5,35.8,57.7,35.8z"/>
			<path class="st3" d="M53.7,56.3c-1.8,1-3.4,1.8-3.7,1.7c-0.3-0.1,0.9-1,2.7-2c1.8-1,3.4-1.8,3.7-1.7
				C56.7,54.4,55.5,55.3,53.7,56.3z"/>
			<path class="st3" d="M43.8,54.6c-0.1,0.3-1-0.9-2-2.7c-1-1.8-1.8-3.4-1.7-3.7c0.1-0.3,1,0.9,2,2.7C43.2,52.7,43.9,54.3,43.8,54.6
				z"/>
			<path class="st3" d="M47,40.7c1.8-1,3.4-1.8,3.7-1.7c0.3,0.1-0.9,1-2.7,2c-1.8,1-3.4,1.8-3.7,1.7C44,42.6,45.2,41.7,47,40.7z"/>
			<path class="st3" d="M54,47.1c0.4,0.7,0.7,1.4,0.7,1.5c0,0.1-0.4-0.4-0.8-1.1s-0.7-1.4-0.7-1.5C53.2,45.9,53.6,46.4,54,47.1z"/>
			<path class="st3" d="M53.5,43.2c0.1,0,0.7,1.9,1.4,4.1c0.6,2.3,1.1,4.1,1,4c-0.1,0-0.7-1.9-1.4-4.1C53.9,45,53.4,43.2,53.5,43.2z
				"/>
			<path class="st3" d="M51.8,47.9c0.2,0.3,0.3,0.5,0.3,0.6c0,0-0.2-0.1-0.3-0.4c-0.2-0.3-0.3-0.5-0.3-0.6
				C51.5,47.5,51.7,47.7,51.8,47.9z"/>
			<path class="st3" d="M51.6,46.5c0,0,0.3,0.7,0.5,1.6c0.2,0.9,0.4,1.5,0.4,1.5c0,0-0.3-0.7-0.5-1.6C51.8,47.1,51.6,46.5,51.6,46.5
				z"/>
			<path class="st3" d="M50,47c-0.9,0.2-1.5,0.4-1.5,0.4c0,0,0.7-0.3,1.6-0.5c0.9-0.2,1.5-0.4,1.5-0.4C51.6,46.6,50.8,46.8,50,47z"
				/>
			<path class="st3" d="M50.8,49.7c0.3-0.2,0.5-0.3,0.6-0.3c0,0-0.1,0.2-0.4,0.3S50.5,50,50.4,50C50.4,50,50.6,49.8,50.8,49.7z"/>
			<path class="st3" d="M50.1,47.3c-0.3,0.2-0.5,0.3-0.6,0.3c0,0,0.1-0.2,0.4-0.3c0.3-0.2,0.5-0.3,0.6-0.3
				C50.6,47,50.4,47.1,50.1,47.3z"/>
			<path class="st3" d="M49.4,45.4c-0.7,0.4-1.4,0.7-1.5,0.7c-0.1,0,0.4-0.4,1.1-0.8s1.4-0.7,1.5-0.7C50.7,44.6,50.1,45,49.4,45.4z"
				/>
			<path class="st3" d="M48.8,48.9c-0.2-0.9-0.4-1.5-0.4-1.5c0,0,0.3,0.7,0.5,1.6c0.2,0.9,0.4,1.5,0.4,1.5
				C49.3,50.5,49,49.8,48.8,48.9z"/>
			<path class="st3" d="M49.1,49c-0.2-0.3-0.3-0.5-0.3-0.6c0,0,0.2,0.1,0.3,0.4c0.2,0.3,0.3,0.5,0.3,0.6
				C49.4,49.5,49.3,49.3,49.1,49z"/>
			<path class="st3" d="M50.9,49.9c0.9-0.2,1.5-0.4,1.5-0.4s-0.7,0.3-1.6,0.5c-0.9,0.2-1.5,0.4-1.5,0.4
				C49.4,50.4,50.1,50.2,50.9,49.9z"/>
			<path class="st3" d="M51.4,51.6c0.7-0.4,1.4-0.7,1.5-0.7c0.1,0-0.4,0.4-1.1,0.8s-1.4,0.7-1.5,0.7C50.2,52.5,50.7,52.1,51.4,51.6z
				"/>
			<path class="st3" d="M49.2,44.7c-2.3,0.6-4.1,1.1-4,1c0-0.1,1.9-0.7,4.1-1.4c2.3-0.7,4.1-1.1,4-1C53.3,43.5,51.4,44.1,49.2,44.7z
				"/>
			<path class="st3" d="M46,49.7c-0.6-2.3-1.1-4.1-1-4c0.1,0,0.7,1.9,1.4,4.1c0.6,2.3,1.1,4.1,1,4C47.2,53.8,46.6,51.9,46,49.7z"/>
			<path class="st3" d="M46.8,49.9c-0.4-0.7-0.7-1.4-0.7-1.5c0-0.1,0.4,0.4,0.8,1.1s0.7,1.4,0.7,1.5C47.6,51.2,47.3,50.7,46.8,49.9z
				"/>
			<path class="st3" d="M51.7,52.3c2.3-0.6,4.1-1.1,4-1c0,0.1-1.9,0.7-4.1,1.4c-2.3,0.6-4.1,1.1-4,1C47.6,53.6,49.4,53,51.7,52.3z"
				/>
			<path class="st3" d="M58.5,46.1c-1-1.8-1.8-3.4-1.7-3.7c0.1-0.3,1,0.9,2,2.7c1,1.8,1.8,3.4,1.7,3.7
				C60.4,49.1,59.6,47.8,58.5,46.1z"/>
			<path class="st3" d="M57.2,36.2c-0.1,0.2-4.5,1.7-9.9,3.2s-9.7,2.7-9.7,2.4c0.1-0.2,4.5-1.7,9.9-3.2S57.3,35.9,57.2,36.2z"/>
			<path class="st3" d="M42.9,61.1c-0.2-0.1-1.7-4.5-3.2-9.9s-2.7-9.7-2.4-9.7c0.2,0.1,1.7,4.5,3.2,9.9S43.2,61.2,42.9,61.1z"/>
			<path class="st3" d="M43.4,60.8c0.1-0.2,4.5-1.7,9.9-3.2c5.4-1.6,9.7-2.7,9.7-2.4c-0.1,0.2-4.5,1.7-9.9,3.2
				C47.7,59.9,43.4,61,43.4,60.8z"/>
			<g>
				<path class="st3" d="M49.9,46.5L49.9,46.5C49.9,46.5,49.9,46.5,49.9,46.5C49.9,46.5,49.9,46.5,49.9,46.5z"/>
				<path class="st3" d="M49.7,46.6L49.7,46.6L49.7,46.6z"/>
				<path class="st3" d="M51.4,45.5c-0.1-0.1-0.3-0.1-0.6-0.1c-0.3,0-0.7,0.1-1.2,0.3c-0.5,0.2-0.9,0.4-1.1,0.6
					c-0.2,0.2-0.3,0.4-0.3,0.5c0,0.1,0.2,0.2,0.5,0.2c0.1,0,0.1,0,0.2,0c0,0,0.1,0,0.2,0c0.2,0,0.5-0.1,0.9-0.2l0,0c0,0,0,0,0,0.1
					c0,0,0.1,0,0.2,0c0.1,0,0.2,0,0.2-0.1c0,0,0,0-0.1,0c0,0,0,0,0-0.1c0,0,0.1-0.1,0.2-0.1l0,0c0.4-0.2,0.7-0.4,0.9-0.6
					C51.4,45.8,51.5,45.7,51.4,45.5z M49.9,46.6c-0.7,0.3-1.3,0.3-1.4,0.1c-0.1-0.2,0.4-0.6,1-0.9c0.7-0.3,1.3-0.3,1.4-0.1
					C51.1,46,50.6,46.4,49.9,46.6z"/>
			</g>
			<g>
				<path class="st3" d="M52.8,40.8c-0.2-0.3-0.7-0.4-1.5-0.3c-0.9,0.1-2,0.4-3.3,0.9c-1.3,0.5-2.3,1.1-3,1.6
					c-0.6,0.5-0.9,1-0.9,1.3c0.1,0.4,0.5,0.5,1.2,0.5c0.2,0,0.4,0,0.6,0c0.1,0,0.3,0,0.4-0.1c0.6-0.1,1.4-0.3,2.3-0.6l-0.1,0.1
					c-0.1,0.1-0.1,0.1-0.1,0.2c0,0,0.2,0,0.5,0c0.3-0.1,0.5-0.1,0.6-0.2c0.1-0.1,0-0.1-0.2-0.1c-0.1,0-0.1-0.1,0-0.2
					c0.1-0.1,0.2-0.2,0.5-0.3l0.1,0c1.1-0.5,1.9-1,2.4-1.5C52.9,41.4,53,41,52.8,40.8z M49,43.7c-1.8,0.7-3.4,0.8-3.6,0.2
					s1-1.6,2.8-2.4c1.8-0.7,3.4-0.8,3.6-0.2S50.7,43,49,43.7z"/>
				<path class="st3" d="M48.9,43.4L48.9,43.4C48.9,43.4,48.9,43.4,48.9,43.4C48.9,43.4,48.9,43.4,48.9,43.4z"/>
				<path class="st3" d="M48.5,43.7L48.5,43.7L48.5,43.7L48.5,43.7z"/>
			</g>
			<g>
				<path class="st3" d="M46.8,36.2L46.8,36.2c0,0-0.1,0-0.2,0.1C46.6,36.3,46.7,36.2,46.8,36.2z"/>
				<path class="st3" d="M45.7,36.9C45.7,36.9,45.7,36.9,45.7,36.9L45.7,36.9C45.7,36.9,45.7,36.9,45.7,36.9z"/>
				<path class="st3" d="M56,29.9c-0.5-0.7-1.8-0.9-3.7-0.8c-2.1,0.2-4.7,0.9-7.8,2.1c-3.1,1.2-5.4,2.5-7.1,3.9
					c-1.5,1.3-2.2,2.3-2.1,3.2c0.2,0.9,1.2,1.3,2.9,1.3c0.4,0,0.9,0,1.4-0.1c0.3,0,0.7-0.1,1-0.1c1.6-0.3,3.4-0.8,5.5-1.5L46,38
					c-0.2,0.2-0.2,0.3-0.2,0.4c0.1,0.1,0.5,0.1,1.2,0c0.8-0.2,1.3-0.3,1.5-0.5c0.2-0.2,0.1-0.2-0.4-0.2c-0.2-0.1-0.2-0.3,0.1-0.5
					c0.2-0.2,0.6-0.4,1.1-0.7l0.3-0.1c2.6-1.2,4.5-2.5,5.7-3.7C56.3,31.5,56.6,30.6,56,29.9z M46.9,37c-4.2,1.7-8.1,2-8.6,0.6
					s2.4-3.9,6.6-5.6s8.1-2,8.6-0.6C54.1,32.7,51.1,35.3,46.9,37z"/>
			</g>
			<path class="st3" d="M39.4,63.5c-0.8,0.1-1.9-0.6-3.2-2.1c-1.4-1.7-2.7-4.1-3.9-7.1c-1.2-3.1-1.9-5.7-2.1-7.8
				c-0.1-1.9,0.1-3.1,0.8-3.7c0.7-0.5,1.6-0.3,2.7,0.8c1.2,1.1,2.4,3,3.7,5.7l0.1,0.3c0.3,0.5,0.5,0.9,0.7,1.1
				c0.2,0.2,0.4,0.3,0.5,0.1c0-0.5,0.1-0.7,0.2-0.4c0.1,0.2,0.3,0.8,0.5,1.5c0.1,0.7,0.1,1.1,0,1.2c-0.1,0.1-0.2,0-0.4-0.2l-0.2-0.1
				c0.7,2.1,1.3,3.9,1.5,5.5c0.1,0.3,0.1,0.7,0.1,1c0.1,0.5,0.1,1,0.1,1.4C40.7,62.3,40.3,63.3,39.4,63.5z M32.5,45.3
				c-1.4,0.6-1.1,4.4,0.6,8.6c1.7,4.2,4.2,7.1,5.6,6.6c1.4-0.6,1.1-4.4-0.6-8.6C36.4,47.7,33.8,44.8,32.5,45.3z"/>
			<path class="st3" d="M48.9,50.2c0,0,0-0.1,0-0.2c0-0.2-0.1-0.5-0.2-0.9l0,0c0,0,0,0,0.1,0c0,0,0-0.1,0-0.2c0-0.1,0-0.2-0.1-0.2
				c0,0,0,0,0,0.1c0,0,0,0-0.1,0c0,0-0.1-0.1-0.1-0.2l0,0c-0.2-0.4-0.4-0.7-0.6-0.9c-0.2-0.2-0.3-0.2-0.4-0.1
				c-0.1,0.1-0.1,0.3-0.1,0.6c0,0.3,0.1,0.7,0.3,1.2c0.2,0.5,0.4,0.9,0.6,1.1c0.2,0.2,0.4,0.3,0.5,0.3c0.1,0,0.2-0.2,0.2-0.5
				C48.9,50.3,48.9,50.2,48.9,50.2z M48.6,50.4c-0.2,0.1-0.6-0.4-0.9-1c-0.3-0.7-0.3-1.3-0.1-1.4c0.2-0.1,0.6,0.4,0.9,1
				C48.8,49.7,48.8,50.3,48.6,50.4z"/>
			<path class="st3" d="M53.6,48.8c0-0.3-0.1-0.7-0.3-1.2c-0.2-0.5-0.4-0.9-0.6-1.1c-0.2-0.2-0.4-0.3-0.5-0.3
				c-0.1,0-0.2,0.2-0.2,0.5c0,0.1,0,0.1,0,0.2c0,0,0,0.1,0,0.2c0,0.2,0.1,0.5,0.2,0.9l0,0c0,0,0,0-0.1,0c0,0,0,0.1,0,0.2
				c0,0.1,0,0.2,0.1,0.2c0,0,0,0,0-0.1c0,0,0,0,0.1,0c0,0,0.1,0.1,0.1,0.2l0,0c0.2,0.4,0.4,0.7,0.6,0.9c0.2,0.2,0.3,0.2,0.4,0.1
				C53.6,49.3,53.7,49.1,53.6,48.8z M53.3,49c-0.2,0.1-0.6-0.4-0.9-1c-0.3-0.7-0.3-1.3-0.1-1.4c0.2-0.1,0.6,0.4,0.9,1
				C53.5,48.3,53.5,48.9,53.3,49z"/>
			<path class="st3" d="M52.9,50.1c0-0.1-0.2-0.2-0.5-0.2c-0.1,0-0.1,0-0.2,0c0,0-0.1,0-0.2,0c-0.2,0-0.5,0.1-0.9,0.2l0,0
				c0,0,0,0,0-0.1c0,0-0.1,0-0.2,0c-0.1,0-0.2,0-0.2,0.1c0,0,0,0,0.1,0c0,0,0,0,0,0.1c0,0-0.1,0.1-0.2,0.1l0,0
				c-0.4,0.2-0.7,0.4-0.9,0.6c-0.2,0.2-0.2,0.3-0.1,0.4c0.1,0.1,0.3,0.1,0.6,0.1c0.3,0,0.7-0.1,1.2-0.3c0.5-0.2,0.9-0.4,1.1-0.6
				C52.8,50.4,52.9,50.2,52.9,50.1z M51.3,51.1c-0.7,0.3-1.3,0.3-1.4,0.1c-0.1-0.2,0.4-0.6,1-0.9c0.7-0.3,1.3-0.3,1.4-0.1
				C52.5,50.4,52,50.8,51.3,51.1z"/>
			<path class="st3" d="M46.3,53c0-0.1,0-0.3-0.1-0.4c-0.1-0.6-0.3-1.4-0.6-2.3l0.1,0.1c0.1,0.1,0.1,0.1,0.2,0.1c0,0,0-0.2,0-0.5
				c-0.1-0.3-0.1-0.5-0.2-0.6c-0.1-0.1-0.1,0-0.1,0.2c0,0.1-0.1,0.1-0.2,0c-0.1-0.1-0.2-0.2-0.3-0.5l0-0.1c-0.5-1.1-1-1.9-1.5-2.4
				c-0.5-0.4-0.8-0.5-1.1-0.3c-0.3,0.2-0.4,0.7-0.3,1.5c0.1,0.9,0.4,2,0.9,3.3c0.5,1.3,1.1,2.3,1.6,3c0.5,0.6,1,0.9,1.3,0.9
				c0.4-0.1,0.5-0.5,0.5-1.2C46.4,53.4,46.4,53.2,46.3,53z M45.5,53.6c-0.6,0.2-1.6-1-2.4-2.8c-0.7-1.8-0.8-3.4-0.2-3.6
				c0.6-0.2,1.6,1,2.4,2.8C46,51.7,46.1,53.3,45.5,53.6z"/>
			<path class="st3" d="M69.6,54.2c-0.7,0.5-1.6,0.3-2.7-0.8c-1.2-1.1-2.4-3-3.7-5.7l-0.1-0.3c-0.3-0.5-0.5-0.9-0.7-1.1
				c-0.2-0.2-0.4-0.3-0.5-0.1c0,0.5-0.1,0.7-0.2,0.4c-0.1-0.2-0.3-0.8-0.5-1.5c-0.1-0.7-0.1-1.1,0-1.2c0.1-0.1,0.2,0,0.4,0.2
				l0.2,0.1c-0.7-2.1-1.3-3.9-1.5-5.5c-0.1-0.3-0.1-0.7-0.1-1c-0.1-0.5-0.1-1-0.1-1.4c0-1.8,0.4-2.8,1.3-2.9
				c0.8-0.1,1.9,0.6,3.2,2.1c1.4,1.7,2.7,4.1,3.9,7.1c1.2,3.1,1.9,5.7,2.1,7.8C70.6,52.4,70.3,53.6,69.6,54.2z M62,36.4
				c-1.4,0.6-1.1,4.4,0.6,8.6c1.7,4.2,4.2,7.1,5.6,6.6c1.4-0.6,1.1-4.4-0.6-8.6C66,38.8,63.4,35.8,62,36.4z"/>
			<path class="st3" d="M56.7,52.8c-0.1-0.4-0.5-0.5-1.2-0.5c-0.2,0-0.4,0-0.6,0c-0.1,0-0.3,0-0.4,0.1c-0.6,0.1-1.4,0.3-2.3,0.6
				l0.1-0.1c0.1-0.1,0.1-0.1,0.1-0.2c0,0-0.2,0-0.5,0c-0.3,0.1-0.5,0.1-0.6,0.2s0,0.1,0.2,0.1c0.1,0,0.1,0.1,0,0.2
				c-0.1,0.1-0.2,0.2-0.5,0.3l-0.1,0c-1.1,0.5-1.9,1-2.4,1.5c-0.4,0.5-0.5,0.8-0.3,1.1c0.2,0.3,0.7,0.4,1.5,0.3
				c0.9-0.1,2-0.4,3.3-0.9c1.3-0.5,2.3-1.1,3-1.6C56.5,53.6,56.8,53.1,56.7,52.8z M52.7,55.5c-1.8,0.7-3.4,0.8-3.6,0.2
				s1-1.6,2.8-2.4c1.8-0.7,3.4-0.8,3.6-0.2S54.5,54.7,52.7,55.5z"/>
			<path class="st3" d="M63.3,61.8c-1.7,1.4-4.1,2.7-7.1,3.9c-3.1,1.2-5.7,1.9-7.8,2.1c-1.9,0.1-3.1-0.1-3.7-0.8
				c-0.5-0.7-0.3-1.6,0.8-2.7c1.1-1.2,3-2.4,5.7-3.7l0.3-0.1c0.5-0.3,0.9-0.5,1.1-0.7c0.2-0.2,0.3-0.4,0.1-0.5
				c-0.5,0-0.7-0.1-0.4-0.2c0.2-0.1,0.8-0.3,1.5-0.5c0.7-0.1,1.1-0.1,1.2,0c0.1,0.1,0,0.2-0.2,0.4l-0.1,0.2c2.1-0.7,3.9-1.3,5.5-1.5
				c0.3-0.1,0.7-0.1,1-0.1c0.5-0.1,1-0.1,1.4-0.1c1.8,0,2.8,0.4,2.9,1.3C65.5,59.5,64.8,60.6,63.3,61.8z M53.8,60
				c-4.2,1.7-7.1,4.2-6.6,5.6c0.6,1.4,4.4,1.1,8.6-0.6s7.1-4.2,6.6-5.6C61.8,58,58,58.3,53.8,60z"/>
			<path class="st3" d="M58.8,49.4c-0.1-0.9-0.4-2-0.9-3.3c-0.5-1.3-1.1-2.3-1.6-3c-0.5-0.6-1-0.9-1.3-0.9c-0.4,0.1-0.5,0.5-0.5,1.2
				c0,0.2,0,0.4,0,0.6c0,0.1,0,0.3,0.1,0.4c0.1,0.6,0.3,1.4,0.6,2.3l-0.1-0.1c-0.1-0.1-0.1-0.1-0.2-0.1c0,0,0,0.2,0,0.5
				c0.1,0.3,0.1,0.5,0.2,0.6s0.1,0,0.1-0.2c0-0.1,0.1-0.1,0.2,0c0.1,0.1,0.2,0.2,0.3,0.5l0,0.1c0.5,1.1,1,1.9,1.5,2.4
				c0.5,0.4,0.8,0.5,1.1,0.3C58.8,50.7,58.9,50.2,58.8,49.4z M57.9,49.8c-0.6,0.2-1.6-1-2.4-2.8c-0.7-1.8-0.8-3.4-0.2-3.6
				c0.6-0.2,1.6,1,2.4,2.8C58.4,48,58.5,49.6,57.9,49.8z"/>
		</g>
		<g>
			<path class="st3" d="M68.8,16.8c0.6,0.1,4.2,11.2,8.1,24.7c3.9,13.5,6.6,24.3,6.1,24.2c-0.6-0.1-4.2-11.2-8.1-24.7
				C70.9,27.5,68.2,16.7,68.8,16.8z"/>
			<path class="st3" d="M58.7,68c-4.4,2.6-8.5,4.4-9.2,4.2c-0.7-0.2,2.4-2.5,6.8-5.1c4.4-2.6,8.5-4.4,9.2-4.2
				C66.2,63.2,63.1,65.5,58.7,68z"/>
			<path class="st3" d="M34,63.7c-0.2,0.7-2.5-2.4-5.1-6.8c-2.6-4.4-4.4-8.5-4.2-9.2c0.2-0.7,2.5,2.4,5.1,6.8S34.3,63,34,63.7z"/>
			<path class="st3" d="M42,28.9c4.4-2.6,8.5-4.4,9.2-4.2c0.7,0.2-2.4,2.5-6.8,5.1c-4.4,2.6-8.5,4.4-9.2,4.2
				C34.5,33.8,37.5,31.5,42,28.9z"/>
			<path class="st3" d="M70.8,42.5c-2.6-4.4-4.4-8.5-4.2-9.2c0.2-0.7,2.5,2.4,5.1,6.8c2.6,4.4,4.4,8.5,4.2,9.2
				C75.6,49.9,73.4,46.9,70.8,42.5z"/>
			<path class="st3" d="M67.6,17.7c-0.1,0.6-11.2,4.2-24.7,8.1c-13.5,3.9-24.3,6.6-24.2,6.1c0.1-0.6,11.2-4.2,24.7-8.1
				C56.9,19.9,67.7,17.1,67.6,17.7z"/>
			<path class="st3" d="M31.9,80.1c-0.6-0.1-4.2-11.2-8.1-24.7c-3.9-13.5-6.6-24.3-6.1-24.2c0.6,0.1,4.2,11.2,8.1,24.7
				C29.7,69.5,32.4,80.3,31.9,80.1z"/>
			<path class="st3" d="M33.1,79.3c0.1-0.6,11.2-4.2,24.7-8.1s24.3-6.6,24.2-6.1c-0.1,0.6-11.2,4.2-24.7,8.1
				C43.8,77.1,32.9,79.8,33.1,79.3z"/>
			<g>
				<path class="st3" d="M41.4,17.8L41.4,17.8c-0.1,0-0.3,0.1-0.4,0.2C41.1,17.9,41.3,17.9,41.4,17.8z"/>
				<path class="st3" d="M38.8,19.4C38.8,19.4,38.8,19.4,38.8,19.4L38.8,19.4C38.8,19.4,38.8,19.4,38.8,19.4z"/>
				<path class="st3" d="M64.5,2.1c-1.4-1.7-4.4-2.4-9.2-2C50,0.6,43.5,2.3,35.9,5.4c-7.7,3.1-13.6,6.3-17.8,9.7
					c-3.9,3.1-5.6,5.8-5.3,7.9c0.5,2.1,2.9,3.2,7.3,3.2c1.1,0,2.3-0.1,3.5-0.2c0.8-0.1,1.7-0.2,2.5-0.4c3.9-0.7,8.5-2,13.6-3.8
					l-0.4,0.5c-0.5,0.5-0.6,0.8-0.5,1c0.2,0.3,1.2,0.3,3.1,0c2-0.4,3.3-0.8,3.9-1.2c0.6-0.4,0.2-0.6-1.1-0.6
					c-0.5-0.3-0.4-0.7,0.2-1.3c0.6-0.5,1.5-1.1,2.8-1.8l0.7-0.3c6.6-3.1,11.3-6.1,14.1-9.2C65.3,6,65.9,3.8,64.5,2.1z M41.8,19.7
					c-10.5,4.3-20.2,4.9-21.6,1.4c-1.4-3.5,6-9.8,16.5-14.1s20.2-4.9,21.6-1.4C59.7,9.1,52.3,15.4,41.8,19.7z"/>
			</g>
			<path class="st3" d="M23,86.1c-2.1,0.4-4.7-1.4-7.9-5.3C11.7,76.6,8.5,70.6,5.4,63c-3.1-7.7-4.8-14.2-5.3-19.5
				c-0.4-4.8,0.3-7.8,2-9.2c1.7-1.3,3.9-0.7,6.8,1.9c3,2.8,6.1,7.6,9.2,14.1l0.3,0.7c0.7,1.3,1.3,2.2,1.8,2.8c0.6,0.6,1,0.7,1.3,0.2
				c0-1.3,0.2-1.7,0.6-1.1c0.4,0.6,0.8,1.9,1.2,3.9c0.3,1.8,0.3,2.9,0,3.1c-0.1,0.1-0.5,0-1-0.5l-0.5-0.4c1.9,5.2,3.2,9.7,3.8,13.6
				c0.1,0.9,0.3,1.7,0.4,2.5c0.1,1.2,0.2,2.4,0.2,3.5C26.2,83.1,25.2,85.6,23,86.1z M5.6,40.6C2.1,42,2.7,51.7,7,62.2
				c4.3,10.5,10.6,17.9,14.1,16.5s2.9-11.1-1.4-21.6C15.4,46.5,9.1,39.1,5.6,40.6z"/>
			<path class="st3" d="M98.6,62.7c-1.7,1.3-3.9,0.7-6.8-1.9c-3-2.8-6.1-7.6-9.2-14.1l-0.3-0.7c-0.7-1.3-1.3-2.2-1.8-2.8
				c-0.6-0.6-1-0.7-1.3-0.2c0,1.3-0.2,1.7-0.6,1.1c-0.4-0.6-0.8-1.9-1.2-3.9c-0.3-1.8-0.3-2.9,0-3.1c0.1-0.1,0.5,0,1,0.5l0.5,0.4
				c-1.9-5.2-3.2-9.7-3.8-13.6c-0.1-0.9-0.3-1.7-0.4-2.5c-0.1-1.2-0.2-2.4-0.2-3.5c0-4.4,1-6.9,3.2-7.3c2.1-0.4,4.7,1.4,7.9,5.3
				c3.4,4.2,6.7,10.2,9.7,17.8s4.8,14.2,5.3,19.5C101,58.3,100.3,61.3,98.6,62.7z M79.6,18.3c-3.5,1.4-2.9,11.1,1.4,21.6
				c4.3,10.5,10.6,17.9,14.1,16.5c3.5-1.4,2.9-11.1-1.4-21.6C89.4,24.3,83.1,16.9,79.6,18.3z"/>
			<path class="st3" d="M82.7,81.8c-4.2,3.4-10.2,6.7-17.8,9.7s-14.2,4.8-19.5,5.3c-4.8,0.4-7.8-0.3-9.2-2c-1.3-1.7-0.7-3.9,1.9-6.8
				c2.8-3,7.6-6.1,14.1-9.2l0.7-0.3c1.3-0.7,2.2-1.3,2.8-1.8c0.6-0.6,0.7-1,0.2-1.3c-1.3,0-1.7-0.2-1.1-0.6c0.6-0.4,1.9-0.8,3.9-1.2
				c1.8-0.3,2.9-0.3,3.1,0c0.1,0.1,0,0.5-0.5,1l-0.4,0.5c5.2-1.9,9.7-3.2,13.6-3.8c0.9-0.1,1.7-0.3,2.5-0.4c1.2-0.1,2.4-0.2,3.5-0.2
				c4.4,0,6.9,1,7.3,3.2C88.3,76.1,86.5,78.7,82.7,81.8z M58.9,77.3C48.4,81.6,41,87.9,42.4,91.4c1.4,3.5,11.1,2.9,21.6-1.4
				C74.6,85.7,82,79.4,80.5,75.9C79.1,72.4,69.4,73,58.9,77.3z"/>
		</g>
	</g>
</g>
<g id="knight" class="st0">
	<g id="logo_3_" class="st1">
		<g>
			<path d="M57.7,35.8c0.2,0.1,1.7,4.5,3.2,9.9s2.7,9.7,2.4,9.7c-0.2-0.1-1.7-4.5-3.2-9.9C58.6,40.1,57.5,35.8,57.7,35.8z"/>
			<path d="M53.7,56.3c-1.8,1-3.4,1.8-3.7,1.7c-0.3-0.1,0.9-1,2.7-2c1.8-1,3.4-1.8,3.7-1.7C56.7,54.4,55.5,55.3,53.7,56.3z"/>
			<path d="M43.8,54.6c-0.1,0.3-1-0.9-2-2.7c-1-1.8-1.8-3.4-1.7-3.7c0.1-0.3,1,0.9,2,2.7C43.2,52.7,43.9,54.3,43.8,54.6z"/>
			<path d="M47,40.7c1.8-1,3.4-1.8,3.7-1.7c0.3,0.1-0.9,1-2.7,2c-1.8,1-3.4,1.8-3.7,1.7C44,42.6,45.2,41.7,47,40.7z"/>
			<path d="M54,47.1c0.4,0.7,0.7,1.4,0.7,1.5c0,0.1-0.4-0.4-0.8-1.1s-0.7-1.4-0.7-1.5C53.2,45.9,53.6,46.4,54,47.1z"/>
			<path d="M53.5,43.2c0.1,0,0.7,1.9,1.4,4.1c0.6,2.3,1.1,4.1,1,4c-0.1,0-0.7-1.9-1.4-4.1C53.9,45,53.4,43.2,53.5,43.2z"/>
			<path d="M51.8,47.9c0.2,0.3,0.3,0.5,0.3,0.6c0,0-0.2-0.1-0.3-0.4c-0.2-0.3-0.3-0.5-0.3-0.6C51.5,47.5,51.7,47.7,51.8,47.9z"/>
			<path d="M51.6,46.5c0,0,0.3,0.7,0.5,1.6c0.2,0.9,0.4,1.5,0.4,1.5c0,0-0.3-0.7-0.5-1.6C51.8,47.1,51.6,46.5,51.6,46.5z"/>
			<path d="M50,47c-0.9,0.2-1.5,0.4-1.5,0.4c0,0,0.7-0.3,1.6-0.5c0.9-0.2,1.5-0.4,1.5-0.4C51.6,46.6,50.8,46.8,50,47z"/>
			<path d="M50.8,49.7c0.3-0.2,0.5-0.3,0.6-0.3c0,0-0.1,0.2-0.4,0.3S50.5,50,50.4,50C50.4,50,50.6,49.8,50.8,49.7z"/>
			<path d="M50.1,47.3c-0.3,0.2-0.5,0.3-0.6,0.3c0,0,0.1-0.2,0.4-0.3c0.3-0.2,0.5-0.3,0.6-0.3C50.6,47,50.4,47.1,50.1,47.3z"/>
			<path d="M49.4,45.4c-0.7,0.4-1.4,0.7-1.5,0.7c-0.1,0,0.4-0.4,1.1-0.8s1.4-0.7,1.5-0.7C50.7,44.6,50.1,45,49.4,45.4z"/>
			<path d="M48.8,48.9c-0.2-0.9-0.4-1.5-0.4-1.5c0,0,0.3,0.7,0.5,1.6c0.2,0.9,0.4,1.5,0.4,1.5C49.3,50.5,49,49.8,48.8,48.9z"/>
			<path d="M49.1,49c-0.2-0.3-0.3-0.5-0.3-0.6c0,0,0.2,0.1,0.3,0.4c0.2,0.3,0.3,0.5,0.3,0.6C49.4,49.5,49.3,49.3,49.1,49z"/>
			<path d="M50.9,49.9c0.9-0.2,1.5-0.4,1.5-0.4s-0.7,0.3-1.6,0.5c-0.9,0.2-1.5,0.4-1.5,0.4C49.4,50.4,50.1,50.2,50.9,49.9z"/>
			<path d="M51.4,51.6c0.7-0.4,1.4-0.7,1.5-0.7c0.1,0-0.4,0.4-1.1,0.8s-1.4,0.7-1.5,0.7C50.2,52.5,50.7,52.1,51.4,51.6z"/>
			<path d="M49.2,44.7c-2.3,0.6-4.1,1.1-4,1c0-0.1,1.9-0.7,4.1-1.4c2.3-0.7,4.1-1.1,4-1C53.3,43.5,51.4,44.1,49.2,44.7z"/>
			<path d="M46,49.7c-0.6-2.3-1.1-4.1-1-4c0.1,0,0.7,1.9,1.4,4.1c0.6,2.3,1.1,4.1,1,4C47.2,53.8,46.6,51.9,46,49.7z"/>
			<path d="M46.8,49.9c-0.4-0.7-0.7-1.4-0.7-1.5c0-0.1,0.4,0.4,0.8,1.1s0.7,1.4,0.7,1.5C47.6,51.2,47.3,50.7,46.8,49.9z"/>
			<path d="M51.7,52.3c2.3-0.6,4.1-1.1,4-1c0,0.1-1.9,0.7-4.1,1.4c-2.3,0.6-4.1,1.1-4,1C47.6,53.6,49.4,53,51.7,52.3z"/>
			<path d="M58.5,46.1c-1-1.8-1.8-3.4-1.7-3.7c0.1-0.3,1,0.9,2,2.7c1,1.8,1.8,3.4,1.7,3.7C60.4,49.1,59.6,47.8,58.5,46.1z"/>
			<path d="M57.2,36.2c-0.1,0.2-4.5,1.7-9.9,3.2s-9.7,2.7-9.7,2.4c0.1-0.2,4.5-1.7,9.9-3.2S57.3,35.9,57.2,36.2z"/>
			<path d="M42.9,61.1c-0.2-0.1-1.7-4.5-3.2-9.9s-2.7-9.7-2.4-9.7c0.2,0.1,1.7,4.5,3.2,9.9S43.2,61.2,42.9,61.1z"/>
			<path d="M43.4,60.8c0.1-0.2,4.5-1.7,9.9-3.2c5.4-1.6,9.7-2.7,9.7-2.4c-0.1,0.2-4.5,1.7-9.9,3.2C47.7,59.9,43.4,61,43.4,60.8z"/>
			<g>
				<path d="M49.9,46.5L49.9,46.5C49.9,46.5,49.9,46.5,49.9,46.5C49.9,46.5,49.9,46.5,49.9,46.5z"/>
				<path d="M49.7,46.6L49.7,46.6L49.7,46.6z"/>
				<path d="M51.4,45.5c-0.1-0.1-0.3-0.1-0.6-0.1c-0.3,0-0.7,0.1-1.2,0.3c-0.5,0.2-0.9,0.4-1.1,0.6c-0.2,0.2-0.3,0.4-0.3,0.5
					c0,0.1,0.2,0.2,0.5,0.2c0.1,0,0.1,0,0.2,0c0,0,0.1,0,0.2,0c0.2,0,0.5-0.1,0.9-0.2l0,0c0,0,0,0,0,0.1c0,0,0.1,0,0.2,0
					c0.1,0,0.2,0,0.2-0.1c0,0,0,0-0.1,0c0,0,0,0,0-0.1c0,0,0.1-0.1,0.2-0.1l0,0c0.4-0.2,0.7-0.4,0.9-0.6
					C51.4,45.8,51.5,45.7,51.4,45.5z M49.9,46.6c-0.7,0.3-1.3,0.3-1.4,0.1c-0.1-0.2,0.4-0.6,1-0.9c0.7-0.3,1.3-0.3,1.4-0.1
					C51.1,46,50.6,46.4,49.9,46.6z"/>
			</g>
			<g>
				<path d="M52.8,40.8c-0.2-0.3-0.7-0.4-1.5-0.3c-0.9,0.1-2,0.4-3.3,0.9c-1.3,0.5-2.3,1.1-3,1.6c-0.6,0.5-0.9,1-0.9,1.3
					c0.1,0.4,0.5,0.5,1.2,0.5c0.2,0,0.4,0,0.6,0c0.1,0,0.3,0,0.4-0.1c0.6-0.1,1.4-0.3,2.3-0.6l-0.1,0.1c-0.1,0.1-0.1,0.1-0.1,0.2
					c0,0,0.2,0,0.5,0c0.3-0.1,0.5-0.1,0.6-0.2c0.1-0.1,0-0.1-0.2-0.1c-0.1,0-0.1-0.1,0-0.2c0.1-0.1,0.2-0.2,0.5-0.3l0.1,0
					c1.1-0.5,1.9-1,2.4-1.5C52.9,41.4,53,41,52.8,40.8z M49,43.7c-1.8,0.7-3.4,0.8-3.6,0.2s1-1.6,2.8-2.4c1.8-0.7,3.4-0.8,3.6-0.2
					S50.7,43,49,43.7z"/>
				<path d="M48.9,43.4L48.9,43.4C48.9,43.4,48.9,43.4,48.9,43.4C48.9,43.4,48.9,43.4,48.9,43.4z"/>
				<path d="M48.5,43.7L48.5,43.7L48.5,43.7L48.5,43.7z"/>
			</g>
			<g>
				<path d="M46.8,36.2L46.8,36.2c0,0-0.1,0-0.2,0.1C46.6,36.3,46.7,36.2,46.8,36.2z"/>
				<path d="M45.7,36.9C45.7,36.9,45.7,36.9,45.7,36.9L45.7,36.9C45.7,36.9,45.7,36.9,45.7,36.9z"/>
				<path d="M56,29.9c-0.5-0.7-1.8-0.9-3.7-0.8c-2.1,0.2-4.7,0.9-7.8,2.1c-3.1,1.2-5.4,2.5-7.1,3.9c-1.5,1.3-2.2,2.3-2.1,3.2
					c0.2,0.9,1.2,1.3,2.9,1.3c0.4,0,0.9,0,1.4-0.1c0.3,0,0.7-0.1,1-0.1c1.6-0.3,3.4-0.8,5.5-1.5L46,38c-0.2,0.2-0.2,0.3-0.2,0.4
					c0.1,0.1,0.5,0.1,1.2,0c0.8-0.2,1.3-0.3,1.5-0.5c0.2-0.2,0.1-0.2-0.4-0.2c-0.2-0.1-0.2-0.3,0.1-0.5c0.2-0.2,0.6-0.4,1.1-0.7
					l0.3-0.1c2.6-1.2,4.5-2.5,5.7-3.7C56.3,31.5,56.6,30.6,56,29.9z M46.9,37c-4.2,1.7-8.1,2-8.6,0.6s2.4-3.9,6.6-5.6s8.1-2,8.6-0.6
					C54.1,32.7,51.1,35.3,46.9,37z"/>
			</g>
			<path d="M39.4,63.5c-0.8,0.1-1.9-0.6-3.2-2.1c-1.4-1.7-2.7-4.1-3.9-7.1c-1.2-3.1-1.9-5.7-2.1-7.8c-0.1-1.9,0.1-3.1,0.8-3.7
				c0.7-0.5,1.6-0.3,2.7,0.8c1.2,1.1,2.4,3,3.7,5.7l0.1,0.3c0.3,0.5,0.5,0.9,0.7,1.1c0.2,0.2,0.4,0.3,0.5,0.1c0-0.5,0.1-0.7,0.2-0.4
				c0.1,0.2,0.3,0.8,0.5,1.5c0.1,0.7,0.1,1.1,0,1.2c-0.1,0.1-0.2,0-0.4-0.2l-0.2-0.1c0.7,2.1,1.3,3.9,1.5,5.5c0.1,0.3,0.1,0.7,0.1,1
				c0.1,0.5,0.1,1,0.1,1.4C40.7,62.3,40.3,63.3,39.4,63.5z M32.5,45.3c-1.4,0.6-1.1,4.4,0.6,8.6c1.7,4.2,4.2,7.1,5.6,6.6
				c1.4-0.6,1.1-4.4-0.6-8.6C36.4,47.7,33.8,44.8,32.5,45.3z"/>
			<path d="M48.9,50.2c0,0,0-0.1,0-0.2c0-0.2-0.1-0.5-0.2-0.9l0,0c0,0,0,0,0.1,0c0,0,0-0.1,0-0.2c0-0.1,0-0.2-0.1-0.2c0,0,0,0,0,0.1
				c0,0,0,0-0.1,0c0,0-0.1-0.1-0.1-0.2l0,0c-0.2-0.4-0.4-0.7-0.6-0.9c-0.2-0.2-0.3-0.2-0.4-0.1c-0.1,0.1-0.1,0.3-0.1,0.6
				c0,0.3,0.1,0.7,0.3,1.2c0.2,0.5,0.4,0.9,0.6,1.1c0.2,0.2,0.4,0.3,0.5,0.3c0.1,0,0.2-0.2,0.2-0.5C48.9,50.3,48.9,50.2,48.9,50.2z
				 M48.6,50.4c-0.2,0.1-0.6-0.4-0.9-1c-0.3-0.7-0.3-1.3-0.1-1.4c0.2-0.1,0.6,0.4,0.9,1C48.8,49.7,48.8,50.3,48.6,50.4z"/>
			<path d="M53.6,48.8c0-0.3-0.1-0.7-0.3-1.2c-0.2-0.5-0.4-0.9-0.6-1.1c-0.2-0.2-0.4-0.3-0.5-0.3c-0.1,0-0.2,0.2-0.2,0.5
				c0,0.1,0,0.1,0,0.2c0,0,0,0.1,0,0.2c0,0.2,0.1,0.5,0.2,0.9l0,0c0,0,0,0-0.1,0c0,0,0,0.1,0,0.2c0,0.1,0,0.2,0.1,0.2c0,0,0,0,0-0.1
				c0,0,0,0,0.1,0c0,0,0.1,0.1,0.1,0.2l0,0c0.2,0.4,0.4,0.7,0.6,0.9c0.2,0.2,0.3,0.2,0.4,0.1C53.6,49.3,53.7,49.1,53.6,48.8z
				 M53.3,49c-0.2,0.1-0.6-0.4-0.9-1c-0.3-0.7-0.3-1.3-0.1-1.4c0.2-0.1,0.6,0.4,0.9,1C53.5,48.3,53.5,48.9,53.3,49z"/>
			<path d="M52.9,50.1c0-0.1-0.2-0.2-0.5-0.2c-0.1,0-0.1,0-0.2,0c0,0-0.1,0-0.2,0c-0.2,0-0.5,0.1-0.9,0.2l0,0c0,0,0,0,0-0.1
				c0,0-0.1,0-0.2,0c-0.1,0-0.2,0-0.2,0.1c0,0,0,0,0.1,0c0,0,0,0,0,0.1c0,0-0.1,0.1-0.2,0.1l0,0c-0.4,0.2-0.7,0.4-0.9,0.6
				c-0.2,0.2-0.2,0.3-0.1,0.4c0.1,0.1,0.3,0.1,0.6,0.1c0.3,0,0.7-0.1,1.2-0.3c0.5-0.2,0.9-0.4,1.1-0.6
				C52.8,50.4,52.9,50.2,52.9,50.1z M51.3,51.1c-0.7,0.3-1.3,0.3-1.4,0.1c-0.1-0.2,0.4-0.6,1-0.9c0.7-0.3,1.3-0.3,1.4-0.1
				C52.5,50.4,52,50.8,51.3,51.1z"/>
			<path d="M46.3,53c0-0.1,0-0.3-0.1-0.4c-0.1-0.6-0.3-1.4-0.6-2.3l0.1,0.1c0.1,0.1,0.1,0.1,0.2,0.1c0,0,0-0.2,0-0.5
				c-0.1-0.3-0.1-0.5-0.2-0.6c-0.1-0.1-0.1,0-0.1,0.2c0,0.1-0.1,0.1-0.2,0c-0.1-0.1-0.2-0.2-0.3-0.5l0-0.1c-0.5-1.1-1-1.9-1.5-2.4
				c-0.5-0.4-0.8-0.5-1.1-0.3c-0.3,0.2-0.4,0.7-0.3,1.5c0.1,0.9,0.4,2,0.9,3.3c0.5,1.3,1.1,2.3,1.6,3c0.5,0.6,1,0.9,1.3,0.9
				c0.4-0.1,0.5-0.5,0.5-1.2C46.4,53.4,46.4,53.2,46.3,53z M45.5,53.6c-0.6,0.2-1.6-1-2.4-2.8c-0.7-1.8-0.8-3.4-0.2-3.6
				c0.6-0.2,1.6,1,2.4,2.8C46,51.7,46.1,53.3,45.5,53.6z"/>
			<path d="M69.6,54.2c-0.7,0.5-1.6,0.3-2.7-0.8c-1.2-1.1-2.4-3-3.7-5.7l-0.1-0.3c-0.3-0.5-0.5-0.9-0.7-1.1
				c-0.2-0.2-0.4-0.3-0.5-0.1c0,0.5-0.1,0.7-0.2,0.4c-0.1-0.2-0.3-0.8-0.5-1.5c-0.1-0.7-0.1-1.1,0-1.2c0.1-0.1,0.2,0,0.4,0.2
				l0.2,0.1c-0.7-2.1-1.3-3.9-1.5-5.5c-0.1-0.3-0.1-0.7-0.1-1c-0.1-0.5-0.1-1-0.1-1.4c0-1.8,0.4-2.8,1.3-2.9
				c0.8-0.1,1.9,0.6,3.2,2.1c1.4,1.7,2.7,4.1,3.9,7.1c1.2,3.1,1.9,5.7,2.1,7.8C70.6,52.4,70.3,53.6,69.6,54.2z M62,36.4
				c-1.4,0.6-1.1,4.4,0.6,8.6c1.7,4.2,4.2,7.1,5.6,6.6c1.4-0.6,1.1-4.4-0.6-8.6C66,38.8,63.4,35.8,62,36.4z"/>
			<path d="M56.7,52.8c-0.1-0.4-0.5-0.5-1.2-0.5c-0.2,0-0.4,0-0.6,0c-0.1,0-0.3,0-0.4,0.1c-0.6,0.1-1.4,0.3-2.3,0.6l0.1-0.1
				c0.1-0.1,0.1-0.1,0.1-0.2c0,0-0.2,0-0.5,0c-0.3,0.1-0.5,0.1-0.6,0.2s0,0.1,0.2,0.1c0.1,0,0.1,0.1,0,0.2c-0.1,0.1-0.2,0.2-0.5,0.3
				l-0.1,0c-1.1,0.5-1.9,1-2.4,1.5c-0.4,0.5-0.5,0.8-0.3,1.1c0.2,0.3,0.7,0.4,1.5,0.3c0.9-0.1,2-0.4,3.3-0.9c1.3-0.5,2.3-1.1,3-1.6
				C56.5,53.6,56.8,53.1,56.7,52.8z M52.7,55.5c-1.8,0.7-3.4,0.8-3.6,0.2s1-1.6,2.8-2.4c1.8-0.7,3.4-0.8,3.6-0.2
				S54.5,54.7,52.7,55.5z"/>
			<path d="M63.3,61.8c-1.7,1.4-4.1,2.7-7.1,3.9c-3.1,1.2-5.7,1.9-7.8,2.1c-1.9,0.1-3.1-0.1-3.7-0.8c-0.5-0.7-0.3-1.6,0.8-2.7
				c1.1-1.2,3-2.4,5.7-3.7l0.3-0.1c0.5-0.3,0.9-0.5,1.1-0.7c0.2-0.2,0.3-0.4,0.1-0.5c-0.5,0-0.7-0.1-0.4-0.2
				c0.2-0.1,0.8-0.3,1.5-0.5c0.7-0.1,1.1-0.1,1.2,0c0.1,0.1,0,0.2-0.2,0.4l-0.1,0.2c2.1-0.7,3.9-1.3,5.5-1.5c0.3-0.1,0.7-0.1,1-0.1
				c0.5-0.1,1-0.1,1.4-0.1c1.8,0,2.8,0.4,2.9,1.3C65.5,59.5,64.8,60.6,63.3,61.8z M53.8,60c-4.2,1.7-7.1,4.2-6.6,5.6
				c0.6,1.4,4.4,1.1,8.6-0.6s7.1-4.2,6.6-5.6C61.8,58,58,58.3,53.8,60z"/>
			<path d="M58.8,49.4c-0.1-0.9-0.4-2-0.9-3.3c-0.5-1.3-1.1-2.3-1.6-3c-0.5-0.6-1-0.9-1.3-0.9c-0.4,0.1-0.5,0.5-0.5,1.2
				c0,0.2,0,0.4,0,0.6c0,0.1,0,0.3,0.1,0.4c0.1,0.6,0.3,1.4,0.6,2.3l-0.1-0.1c-0.1-0.1-0.1-0.1-0.2-0.1c0,0,0,0.2,0,0.5
				c0.1,0.3,0.1,0.5,0.2,0.6s0.1,0,0.1-0.2c0-0.1,0.1-0.1,0.2,0c0.1,0.1,0.2,0.2,0.3,0.5l0,0.1c0.5,1.1,1,1.9,1.5,2.4
				c0.5,0.4,0.8,0.5,1.1,0.3C58.8,50.7,58.9,50.2,58.8,49.4z M57.9,49.8c-0.6,0.2-1.6-1-2.4-2.8c-0.7-1.8-0.8-3.4-0.2-3.6
				c0.6-0.2,1.6,1,2.4,2.8C58.4,48,58.5,49.6,57.9,49.8z"/>
		</g>
		<g>
			<path d="M68.8,16.8c0.6,0.1,4.2,11.2,8.1,24.7c3.9,13.5,6.6,24.3,6.1,24.2c-0.6-0.1-4.2-11.2-8.1-24.7
				C70.9,27.5,68.2,16.7,68.8,16.8z"/>
			<path d="M58.7,68c-4.4,2.6-8.5,4.4-9.2,4.2c-0.7-0.2,2.4-2.5,6.8-5.1c4.4-2.6,8.5-4.4,9.2-4.2C66.2,63.2,63.1,65.5,58.7,68z"/>
			<path d="M34,63.7c-0.2,0.7-2.5-2.4-5.1-6.8c-2.6-4.4-4.4-8.5-4.2-9.2c0.2-0.7,2.5,2.4,5.1,6.8S34.3,63,34,63.7z"/>
			<path d="M42,28.9c4.4-2.6,8.5-4.4,9.2-4.2c0.7,0.2-2.4,2.5-6.8,5.1c-4.4,2.6-8.5,4.4-9.2,4.2C34.5,33.8,37.5,31.5,42,28.9z"/>
			<path d="M70.8,42.5c-2.6-4.4-4.4-8.5-4.2-9.2c0.2-0.7,2.5,2.4,5.1,6.8c2.6,4.4,4.4,8.5,4.2,9.2C75.6,49.9,73.4,46.9,70.8,42.5z"
				/>
			<path d="M67.6,17.7c-0.1,0.6-11.2,4.2-24.7,8.1c-13.5,3.9-24.3,6.6-24.2,6.1c0.1-0.6,11.2-4.2,24.7-8.1
				C56.9,19.9,67.7,17.1,67.6,17.7z"/>
			<path d="M31.9,80.1c-0.6-0.1-4.2-11.2-8.1-24.7c-3.9-13.5-6.6-24.3-6.1-24.2c0.6,0.1,4.2,11.2,8.1,24.7
				C29.7,69.5,32.4,80.3,31.9,80.1z"/>
			<path d="M33.1,79.3c0.1-0.6,11.2-4.2,24.7-8.1s24.3-6.6,24.2-6.1c-0.1,0.6-11.2,4.2-24.7,8.1C43.8,77.1,32.9,79.8,33.1,79.3z"/>
			<g>
				<path d="M41.4,17.8L41.4,17.8c-0.1,0-0.3,0.1-0.4,0.2C41.1,17.9,41.3,17.9,41.4,17.8z"/>
				<path d="M38.8,19.4C38.8,19.4,38.8,19.4,38.8,19.4L38.8,19.4C38.8,19.4,38.8,19.4,38.8,19.4z"/>
				<path d="M64.5,2.1c-1.4-1.7-4.4-2.4-9.2-2C50,0.6,43.5,2.3,35.9,5.4c-7.7,3.1-13.6,6.3-17.8,9.7c-3.9,3.1-5.6,5.8-5.3,7.9
					c0.5,2.1,2.9,3.2,7.3,3.2c1.1,0,2.3-0.1,3.5-0.2c0.8-0.1,1.7-0.2,2.5-0.4c3.9-0.7,8.5-2,13.6-3.8l-0.4,0.5
					c-0.5,0.5-0.6,0.8-0.5,1c0.2,0.3,1.2,0.3,3.1,0c2-0.4,3.3-0.8,3.9-1.2c0.6-0.4,0.2-0.6-1.1-0.6c-0.5-0.3-0.4-0.7,0.2-1.3
					c0.6-0.5,1.5-1.1,2.8-1.8l0.7-0.3c6.6-3.1,11.3-6.1,14.1-9.2C65.3,6,65.9,3.8,64.5,2.1z M41.8,19.7c-10.5,4.3-20.2,4.9-21.6,1.4
					c-1.4-3.5,6-9.8,16.5-14.1s20.2-4.9,21.6-1.4C59.7,9.1,52.3,15.4,41.8,19.7z"/>
			</g>
			<path d="M23,86.1c-2.1,0.4-4.7-1.4-7.9-5.3C11.7,76.6,8.5,70.6,5.4,63c-3.1-7.7-4.8-14.2-5.3-19.5c-0.4-4.8,0.3-7.8,2-9.2
				c1.7-1.3,3.9-0.7,6.8,1.9c3,2.8,6.1,7.6,9.2,14.1l0.3,0.7c0.7,1.3,1.3,2.2,1.8,2.8c0.6,0.6,1,0.7,1.3,0.2c0-1.3,0.2-1.7,0.6-1.1
				c0.4,0.6,0.8,1.9,1.2,3.9c0.3,1.8,0.3,2.9,0,3.1c-0.1,0.1-0.5,0-1-0.5l-0.5-0.4c1.9,5.2,3.2,9.7,3.8,13.6
				c0.1,0.9,0.3,1.7,0.4,2.5c0.1,1.2,0.2,2.4,0.2,3.5C26.2,83.1,25.2,85.6,23,86.1z M5.6,40.6C2.1,42,2.7,51.7,7,62.2
				c4.3,10.5,10.6,17.9,14.1,16.5s2.9-11.1-1.4-21.6C15.4,46.5,9.1,39.1,5.6,40.6z"/>
			<path d="M98.6,62.7c-1.7,1.3-3.9,0.7-6.8-1.9c-3-2.8-6.1-7.6-9.2-14.1l-0.3-0.7c-0.7-1.3-1.3-2.2-1.8-2.8c-0.6-0.6-1-0.7-1.3-0.2
				c0,1.3-0.2,1.7-0.6,1.1c-0.4-0.6-0.8-1.9-1.2-3.9c-0.3-1.8-0.3-2.9,0-3.1c0.1-0.1,0.5,0,1,0.5l0.5,0.4c-1.9-5.2-3.2-9.7-3.8-13.6
				c-0.1-0.9-0.3-1.7-0.4-2.5c-0.1-1.2-0.2-2.4-0.2-3.5c0-4.4,1-6.9,3.2-7.3c2.1-0.4,4.7,1.4,7.9,5.3c3.4,4.2,6.7,10.2,9.7,17.8
				s4.8,14.2,5.3,19.5C101,58.3,100.3,61.3,98.6,62.7z M79.6,18.3c-3.5,1.4-2.9,11.1,1.4,21.6c4.3,10.5,10.6,17.9,14.1,16.5
				c3.5-1.4,2.9-11.1-1.4-21.6C89.4,24.3,83.1,16.9,79.6,18.3z"/>
			<path d="M82.7,81.8c-4.2,3.4-10.2,6.7-17.8,9.7s-14.2,4.8-19.5,5.3c-4.8,0.4-7.8-0.3-9.2-2c-1.3-1.7-0.7-3.9,1.9-6.8
				c2.8-3,7.6-6.1,14.1-9.2l0.7-0.3c1.3-0.7,2.2-1.3,2.8-1.8c0.6-0.6,0.7-1,0.2-1.3c-1.3,0-1.7-0.2-1.1-0.6c0.6-0.4,1.9-0.8,3.9-1.2
				c1.8-0.3,2.9-0.3,3.1,0c0.1,0.1,0,0.5-0.5,1l-0.4,0.5c5.2-1.9,9.7-3.2,13.6-3.8c0.9-0.1,1.7-0.3,2.5-0.4c1.2-0.1,2.4-0.2,3.5-0.2
				c4.4,0,6.9,1,7.3,3.2C88.3,76.1,86.5,78.7,82.7,81.8z M58.9,77.3C48.4,81.6,41,87.9,42.4,91.4c1.4,3.5,11.1,2.9,21.6-1.4
				C74.6,85.7,82,79.4,80.5,75.9C79.1,72.4,69.4,73,58.9,77.3z"/>
		</g>
	</g>
</g>
<g id="prom" class="st0">
	<g id="logo_4_" class="st1">
		<g>
			<path class="st4" d="M57.7,35.8c0.2,0.1,1.7,4.5,3.2,9.9s2.7,9.7,2.4,9.7c-0.2-0.1-1.7-4.5-3.2-9.9
				C58.6,40.1,57.5,35.8,57.7,35.8z"/>
			<path class="st4" d="M53.7,56.3c-1.8,1-3.4,1.8-3.7,1.7c-0.3-0.1,0.9-1,2.7-2c1.8-1,3.4-1.8,3.7-1.7
				C56.7,54.4,55.5,55.3,53.7,56.3z"/>
			<path class="st4" d="M43.8,54.6c-0.1,0.3-1-0.9-2-2.7c-1-1.8-1.8-3.4-1.7-3.7c0.1-0.3,1,0.9,2,2.7C43.2,52.7,43.9,54.3,43.8,54.6
				z"/>
			<path class="st4" d="M47,40.7c1.8-1,3.4-1.8,3.7-1.7c0.3,0.1-0.9,1-2.7,2c-1.8,1-3.4,1.8-3.7,1.7C44,42.6,45.2,41.7,47,40.7z"/>
			<path class="st4" d="M54,47.1c0.4,0.7,0.7,1.4,0.7,1.5c0,0.1-0.4-0.4-0.8-1.1s-0.7-1.4-0.7-1.5C53.2,45.9,53.6,46.4,54,47.1z"/>
			<path class="st4" d="M53.5,43.2c0.1,0,0.7,1.9,1.4,4.1c0.6,2.3,1.1,4.1,1,4c-0.1,0-0.7-1.9-1.4-4.1C53.9,45,53.4,43.2,53.5,43.2z
				"/>
			<path class="st4" d="M51.8,47.9c0.2,0.3,0.3,0.5,0.3,0.6c0,0-0.2-0.1-0.3-0.4c-0.2-0.3-0.3-0.5-0.3-0.6
				C51.5,47.5,51.7,47.7,51.8,47.9z"/>
			<path class="st4" d="M51.6,46.5c0,0,0.3,0.7,0.5,1.6c0.2,0.9,0.4,1.5,0.4,1.5c0,0-0.3-0.7-0.5-1.6C51.8,47.1,51.6,46.5,51.6,46.5
				z"/>
			<path class="st4" d="M50,47c-0.9,0.2-1.5,0.4-1.5,0.4c0,0,0.7-0.3,1.6-0.5c0.9-0.2,1.5-0.4,1.5-0.4C51.6,46.6,50.8,46.8,50,47z"
				/>
			<path class="st4" d="M50.8,49.7c0.3-0.2,0.5-0.3,0.6-0.3c0,0-0.1,0.2-0.4,0.3S50.5,50,50.4,50C50.4,50,50.6,49.8,50.8,49.7z"/>
			<path class="st4" d="M50.1,47.3c-0.3,0.2-0.5,0.3-0.6,0.3c0,0,0.1-0.2,0.4-0.3c0.3-0.2,0.5-0.3,0.6-0.3
				C50.6,47,50.4,47.1,50.1,47.3z"/>
			<path class="st4" d="M49.4,45.4c-0.7,0.4-1.4,0.7-1.5,0.7c-0.1,0,0.4-0.4,1.1-0.8s1.4-0.7,1.5-0.7C50.7,44.6,50.1,45,49.4,45.4z"
				/>
			<path class="st4" d="M48.8,48.9c-0.2-0.9-0.4-1.5-0.4-1.5c0,0,0.3,0.7,0.5,1.6c0.2,0.9,0.4,1.5,0.4,1.5
				C49.3,50.5,49,49.8,48.8,48.9z"/>
			<path class="st4" d="M49.1,49c-0.2-0.3-0.3-0.5-0.3-0.6c0,0,0.2,0.1,0.3,0.4c0.2,0.3,0.3,0.5,0.3,0.6
				C49.4,49.5,49.3,49.3,49.1,49z"/>
			<path class="st4" d="M50.9,49.9c0.9-0.2,1.5-0.4,1.5-0.4s-0.7,0.3-1.6,0.5c-0.9,0.2-1.5,0.4-1.5,0.4
				C49.4,50.4,50.1,50.2,50.9,49.9z"/>
			<path class="st4" d="M51.4,51.6c0.7-0.4,1.4-0.7,1.5-0.7c0.1,0-0.4,0.4-1.1,0.8s-1.4,0.7-1.5,0.7C50.2,52.5,50.7,52.1,51.4,51.6z
				"/>
			<path class="st4" d="M49.2,44.7c-2.3,0.6-4.1,1.1-4,1c0-0.1,1.9-0.7,4.1-1.4c2.3-0.7,4.1-1.1,4-1C53.3,43.5,51.4,44.1,49.2,44.7z
				"/>
			<path class="st4" d="M46,49.7c-0.6-2.3-1.1-4.1-1-4c0.1,0,0.7,1.9,1.4,4.1c0.6,2.3,1.1,4.1,1,4C47.2,53.8,46.6,51.9,46,49.7z"/>
			<path class="st4" d="M46.8,49.9c-0.4-0.7-0.7-1.4-0.7-1.5c0-0.1,0.4,0.4,0.8,1.1s0.7,1.4,0.7,1.5C47.6,51.2,47.3,50.7,46.8,49.9z
				"/>
			<path class="st4" d="M51.7,52.3c2.3-0.6,4.1-1.1,4-1c0,0.1-1.9,0.7-4.1,1.4c-2.3,0.6-4.1,1.1-4,1C47.6,53.6,49.4,53,51.7,52.3z"
				/>
			<path class="st4" d="M58.5,46.1c-1-1.8-1.8-3.4-1.7-3.7c0.1-0.3,1,0.9,2,2.7c1,1.8,1.8,3.4,1.7,3.7
				C60.4,49.1,59.6,47.8,58.5,46.1z"/>
			<path class="st4" d="M57.2,36.2c-0.1,0.2-4.5,1.7-9.9,3.2s-9.7,2.7-9.7,2.4c0.1-0.2,4.5-1.7,9.9-3.2S57.3,35.9,57.2,36.2z"/>
			<path class="st4" d="M42.9,61.1c-0.2-0.1-1.7-4.5-3.2-9.9s-2.7-9.7-2.4-9.7c0.2,0.1,1.7,4.5,3.2,9.9S43.2,61.2,42.9,61.1z"/>
			<path class="st4" d="M43.4,60.8c0.1-0.2,4.5-1.7,9.9-3.2c5.4-1.6,9.7-2.7,9.7-2.4c-0.1,0.2-4.5,1.7-9.9,3.2
				C47.7,59.9,43.4,61,43.4,60.8z"/>
			<g>
				<path class="st4" d="M49.9,46.5L49.9,46.5C49.9,46.5,49.9,46.5,49.9,46.5C49.9,46.5,49.9,46.5,49.9,46.5z"/>
				<path class="st4" d="M49.7,46.6L49.7,46.6L49.7,46.6z"/>
				<path class="st4" d="M51.4,45.5c-0.1-0.1-0.3-0.1-0.6-0.1c-0.3,0-0.7,0.1-1.2,0.3c-0.5,0.2-0.9,0.4-1.1,0.6
					c-0.2,0.2-0.3,0.4-0.3,0.5c0,0.1,0.2,0.2,0.5,0.2c0.1,0,0.1,0,0.2,0c0,0,0.1,0,0.2,0c0.2,0,0.5-0.1,0.9-0.2l0,0c0,0,0,0,0,0.1
					c0,0,0.1,0,0.2,0c0.1,0,0.2,0,0.2-0.1c0,0,0,0-0.1,0c0,0,0,0,0-0.1c0,0,0.1-0.1,0.2-0.1l0,0c0.4-0.2,0.7-0.4,0.9-0.6
					C51.4,45.8,51.5,45.7,51.4,45.5z M49.9,46.6c-0.7,0.3-1.3,0.3-1.4,0.1c-0.1-0.2,0.4-0.6,1-0.9c0.7-0.3,1.3-0.3,1.4-0.1
					C51.1,46,50.6,46.4,49.9,46.6z"/>
			</g>
			<g>
				<path class="st4" d="M52.8,40.8c-0.2-0.3-0.7-0.4-1.5-0.3c-0.9,0.1-2,0.4-3.3,0.9c-1.3,0.5-2.3,1.1-3,1.6
					c-0.6,0.5-0.9,1-0.9,1.3c0.1,0.4,0.5,0.5,1.2,0.5c0.2,0,0.4,0,0.6,0c0.1,0,0.3,0,0.4-0.1c0.6-0.1,1.4-0.3,2.3-0.6l-0.1,0.1
					c-0.1,0.1-0.1,0.1-0.1,0.2c0,0,0.2,0,0.5,0c0.3-0.1,0.5-0.1,0.6-0.2c0.1-0.1,0-0.1-0.2-0.1c-0.1,0-0.1-0.1,0-0.2
					c0.1-0.1,0.2-0.2,0.5-0.3l0.1,0c1.1-0.5,1.9-1,2.4-1.5C52.9,41.4,53,41,52.8,40.8z M49,43.7c-1.8,0.7-3.4,0.8-3.6,0.2
					s1-1.6,2.8-2.4c1.8-0.7,3.4-0.8,3.6-0.2S50.7,43,49,43.7z"/>
				<path class="st4" d="M48.9,43.4L48.9,43.4C48.9,43.4,48.9,43.4,48.9,43.4C48.9,43.4,48.9,43.4,48.9,43.4z"/>
				<path class="st4" d="M48.5,43.7L48.5,43.7L48.5,43.7L48.5,43.7z"/>
			</g>
			<g>
				<path class="st4" d="M46.8,36.2L46.8,36.2c0,0-0.1,0-0.2,0.1C46.6,36.3,46.7,36.2,46.8,36.2z"/>
				<path class="st4" d="M45.7,36.9C45.7,36.9,45.7,36.9,45.7,36.9L45.7,36.9C45.7,36.9,45.7,36.9,45.7,36.9z"/>
				<path class="st4" d="M56,29.9c-0.5-0.7-1.8-0.9-3.7-0.8c-2.1,0.2-4.7,0.9-7.8,2.1c-3.1,1.2-5.4,2.5-7.1,3.9
					c-1.5,1.3-2.2,2.3-2.1,3.2c0.2,0.9,1.2,1.3,2.9,1.3c0.4,0,0.9,0,1.4-0.1c0.3,0,0.7-0.1,1-0.1c1.6-0.3,3.4-0.8,5.5-1.5L46,38
					c-0.2,0.2-0.2,0.3-0.2,0.4c0.1,0.1,0.5,0.1,1.2,0c0.8-0.2,1.3-0.3,1.5-0.5c0.2-0.2,0.1-0.2-0.4-0.2c-0.2-0.1-0.2-0.3,0.1-0.5
					c0.2-0.2,0.6-0.4,1.1-0.7l0.3-0.1c2.6-1.2,4.5-2.5,5.7-3.7C56.3,31.5,56.6,30.6,56,29.9z M46.9,37c-4.2,1.7-8.1,2-8.6,0.6
					s2.4-3.9,6.6-5.6s8.1-2,8.6-0.6C54.1,32.7,51.1,35.3,46.9,37z"/>
			</g>
			<path class="st4" d="M39.4,63.5c-0.8,0.1-1.9-0.6-3.2-2.1c-1.4-1.7-2.7-4.1-3.9-7.1c-1.2-3.1-1.9-5.7-2.1-7.8
				c-0.1-1.9,0.1-3.1,0.8-3.7c0.7-0.5,1.6-0.3,2.7,0.8c1.2,1.1,2.4,3,3.7,5.7l0.1,0.3c0.3,0.5,0.5,0.9,0.7,1.1
				c0.2,0.2,0.4,0.3,0.5,0.1c0-0.5,0.1-0.7,0.2-0.4c0.1,0.2,0.3,0.8,0.5,1.5c0.1,0.7,0.1,1.1,0,1.2c-0.1,0.1-0.2,0-0.4-0.2l-0.2-0.1
				c0.7,2.1,1.3,3.9,1.5,5.5c0.1,0.3,0.1,0.7,0.1,1c0.1,0.5,0.1,1,0.1,1.4C40.7,62.3,40.3,63.3,39.4,63.5z M32.5,45.3
				c-1.4,0.6-1.1,4.4,0.6,8.6c1.7,4.2,4.2,7.1,5.6,6.6c1.4-0.6,1.1-4.4-0.6-8.6C36.4,47.7,33.8,44.8,32.5,45.3z"/>
			<path class="st4" d="M48.9,50.2c0,0,0-0.1,0-0.2c0-0.2-0.1-0.5-0.2-0.9l0,0c0,0,0,0,0.1,0c0,0,0-0.1,0-0.2c0-0.1,0-0.2-0.1-0.2
				c0,0,0,0,0,0.1c0,0,0,0-0.1,0c0,0-0.1-0.1-0.1-0.2l0,0c-0.2-0.4-0.4-0.7-0.6-0.9c-0.2-0.2-0.3-0.2-0.4-0.1
				c-0.1,0.1-0.1,0.3-0.1,0.6c0,0.3,0.1,0.7,0.3,1.2c0.2,0.5,0.4,0.9,0.6,1.1c0.2,0.2,0.4,0.3,0.5,0.3c0.1,0,0.2-0.2,0.2-0.5
				C48.9,50.3,48.9,50.2,48.9,50.2z M48.6,50.4c-0.2,0.1-0.6-0.4-0.9-1c-0.3-0.7-0.3-1.3-0.1-1.4c0.2-0.1,0.6,0.4,0.9,1
				C48.8,49.7,48.8,50.3,48.6,50.4z"/>
			<path class="st4" d="M53.6,48.8c0-0.3-0.1-0.7-0.3-1.2c-0.2-0.5-0.4-0.9-0.6-1.1c-0.2-0.2-0.4-0.3-0.5-0.3
				c-0.1,0-0.2,0.2-0.2,0.5c0,0.1,0,0.1,0,0.2c0,0,0,0.1,0,0.2c0,0.2,0.1,0.5,0.2,0.9l0,0c0,0,0,0-0.1,0c0,0,0,0.1,0,0.2
				c0,0.1,0,0.2,0.1,0.2c0,0,0,0,0-0.1c0,0,0,0,0.1,0c0,0,0.1,0.1,0.1,0.2l0,0c0.2,0.4,0.4,0.7,0.6,0.9c0.2,0.2,0.3,0.2,0.4,0.1
				C53.6,49.3,53.7,49.1,53.6,48.8z M53.3,49c-0.2,0.1-0.6-0.4-0.9-1c-0.3-0.7-0.3-1.3-0.1-1.4c0.2-0.1,0.6,0.4,0.9,1
				C53.5,48.3,53.5,48.9,53.3,49z"/>
			<path class="st4" d="M52.9,50.1c0-0.1-0.2-0.2-0.5-0.2c-0.1,0-0.1,0-0.2,0c0,0-0.1,0-0.2,0c-0.2,0-0.5,0.1-0.9,0.2l0,0
				c0,0,0,0,0-0.1c0,0-0.1,0-0.2,0c-0.1,0-0.2,0-0.2,0.1c0,0,0,0,0.1,0c0,0,0,0,0,0.1c0,0-0.1,0.1-0.2,0.1l0,0
				c-0.4,0.2-0.7,0.4-0.9,0.6c-0.2,0.2-0.2,0.3-0.1,0.4c0.1,0.1,0.3,0.1,0.6,0.1c0.3,0,0.7-0.1,1.2-0.3c0.5-0.2,0.9-0.4,1.1-0.6
				C52.8,50.4,52.9,50.2,52.9,50.1z M51.3,51.1c-0.7,0.3-1.3,0.3-1.4,0.1c-0.1-0.2,0.4-0.6,1-0.9c0.7-0.3,1.3-0.3,1.4-0.1
				C52.5,50.4,52,50.8,51.3,51.1z"/>
			<path class="st4" d="M46.3,53c0-0.1,0-0.3-0.1-0.4c-0.1-0.6-0.3-1.4-0.6-2.3l0.1,0.1c0.1,0.1,0.1,0.1,0.2,0.1c0,0,0-0.2,0-0.5
				c-0.1-0.3-0.1-0.5-0.2-0.6c-0.1-0.1-0.1,0-0.1,0.2c0,0.1-0.1,0.1-0.2,0c-0.1-0.1-0.2-0.2-0.3-0.5l0-0.1c-0.5-1.1-1-1.9-1.5-2.4
				c-0.5-0.4-0.8-0.5-1.1-0.3c-0.3,0.2-0.4,0.7-0.3,1.5c0.1,0.9,0.4,2,0.9,3.3c0.5,1.3,1.1,2.3,1.6,3c0.5,0.6,1,0.9,1.3,0.9
				c0.4-0.1,0.5-0.5,0.5-1.2C46.4,53.4,46.4,53.2,46.3,53z M45.5,53.6c-0.6,0.2-1.6-1-2.4-2.8c-0.7-1.8-0.8-3.4-0.2-3.6
				c0.6-0.2,1.6,1,2.4,2.8C46,51.7,46.1,53.3,45.5,53.6z"/>
			<path class="st4" d="M69.6,54.2c-0.7,0.5-1.6,0.3-2.7-0.8c-1.2-1.1-2.4-3-3.7-5.7l-0.1-0.3c-0.3-0.5-0.5-0.9-0.7-1.1
				c-0.2-0.2-0.4-0.3-0.5-0.1c0,0.5-0.1,0.7-0.2,0.4c-0.1-0.2-0.3-0.8-0.5-1.5c-0.1-0.7-0.1-1.1,0-1.2c0.1-0.1,0.2,0,0.4,0.2
				l0.2,0.1c-0.7-2.1-1.3-3.9-1.5-5.5c-0.1-0.3-0.1-0.7-0.1-1c-0.1-0.5-0.1-1-0.1-1.4c0-1.8,0.4-2.8,1.3-2.9
				c0.8-0.1,1.9,0.6,3.2,2.1c1.4,1.7,2.7,4.1,3.9,7.1c1.2,3.1,1.9,5.7,2.1,7.8C70.6,52.4,70.3,53.6,69.6,54.2z M62,36.4
				c-1.4,0.6-1.1,4.4,0.6,8.6c1.7,4.2,4.2,7.1,5.6,6.6c1.4-0.6,1.1-4.4-0.6-8.6C66,38.8,63.4,35.8,62,36.4z"/>
			<path class="st4" d="M56.7,52.8c-0.1-0.4-0.5-0.5-1.2-0.5c-0.2,0-0.4,0-0.6,0c-0.1,0-0.3,0-0.4,0.1c-0.6,0.1-1.4,0.3-2.3,0.6
				l0.1-0.1c0.1-0.1,0.1-0.1,0.1-0.2c0,0-0.2,0-0.5,0c-0.3,0.1-0.5,0.1-0.6,0.2s0,0.1,0.2,0.1c0.1,0,0.1,0.1,0,0.2
				c-0.1,0.1-0.2,0.2-0.5,0.3l-0.1,0c-1.1,0.5-1.9,1-2.4,1.5c-0.4,0.5-0.5,0.8-0.3,1.1c0.2,0.3,0.7,0.4,1.5,0.3
				c0.9-0.1,2-0.4,3.3-0.9c1.3-0.5,2.3-1.1,3-1.6C56.5,53.6,56.8,53.1,56.7,52.8z M52.7,55.5c-1.8,0.7-3.4,0.8-3.6,0.2
				s1-1.6,2.8-2.4c1.8-0.7,3.4-0.8,3.6-0.2S54.5,54.7,52.7,55.5z"/>
			<path class="st4" d="M63.3,61.8c-1.7,1.4-4.1,2.7-7.1,3.9c-3.1,1.2-5.7,1.9-7.8,2.1c-1.9,0.1-3.1-0.1-3.7-0.8
				c-0.5-0.7-0.3-1.6,0.8-2.7c1.1-1.2,3-2.4,5.7-3.7l0.3-0.1c0.5-0.3,0.9-0.5,1.1-0.7c0.2-0.2,0.3-0.4,0.1-0.5
				c-0.5,0-0.7-0.1-0.4-0.2c0.2-0.1,0.8-0.3,1.5-0.5c0.7-0.1,1.1-0.1,1.2,0c0.1,0.1,0,0.2-0.2,0.4l-0.1,0.2c2.1-0.7,3.9-1.3,5.5-1.5
				c0.3-0.1,0.7-0.1,1-0.1c0.5-0.1,1-0.1,1.4-0.1c1.8,0,2.8,0.4,2.9,1.3C65.5,59.5,64.8,60.6,63.3,61.8z M53.8,60
				c-4.2,1.7-7.1,4.2-6.6,5.6c0.6,1.4,4.4,1.1,8.6-0.6s7.1-4.2,6.6-5.6C61.8,58,58,58.3,53.8,60z"/>
			<path class="st4" d="M58.8,49.4c-0.1-0.9-0.4-2-0.9-3.3c-0.5-1.3-1.1-2.3-1.6-3c-0.5-0.6-1-0.9-1.3-0.9c-0.4,0.1-0.5,0.5-0.5,1.2
				c0,0.2,0,0.4,0,0.6c0,0.1,0,0.3,0.1,0.4c0.1,0.6,0.3,1.4,0.6,2.3l-0.1-0.1c-0.1-0.1-0.1-0.1-0.2-0.1c0,0,0,0.2,0,0.5
				c0.1,0.3,0.1,0.5,0.2,0.6s0.1,0,0.1-0.2c0-0.1,0.1-0.1,0.2,0c0.1,0.1,0.2,0.2,0.3,0.5l0,0.1c0.5,1.1,1,1.9,1.5,2.4
				c0.5,0.4,0.8,0.5,1.1,0.3C58.8,50.7,58.9,50.2,58.8,49.4z M57.9,49.8c-0.6,0.2-1.6-1-2.4-2.8c-0.7-1.8-0.8-3.4-0.2-3.6
				c0.6-0.2,1.6,1,2.4,2.8C58.4,48,58.5,49.6,57.9,49.8z"/>
		</g>
		<g>
			<path class="st4" d="M68.8,16.8c0.6,0.1,4.2,11.2,8.1,24.7c3.9,13.5,6.6,24.3,6.1,24.2c-0.6-0.1-4.2-11.2-8.1-24.7
				C70.9,27.5,68.2,16.7,68.8,16.8z"/>
			<path class="st4" d="M58.7,68c-4.4,2.6-8.5,4.4-9.2,4.2c-0.7-0.2,2.4-2.5,6.8-5.1c4.4-2.6,8.5-4.4,9.2-4.2
				C66.2,63.2,63.1,65.5,58.7,68z"/>
			<path class="st4" d="M34,63.7c-0.2,0.7-2.5-2.4-5.1-6.8c-2.6-4.4-4.4-8.5-4.2-9.2c0.2-0.7,2.5,2.4,5.1,6.8S34.3,63,34,63.7z"/>
			<path class="st4" d="M42,28.9c4.4-2.6,8.5-4.4,9.2-4.2c0.7,0.2-2.4,2.5-6.8,5.1c-4.4,2.6-8.5,4.4-9.2,4.2
				C34.5,33.8,37.5,31.5,42,28.9z"/>
			<path class="st4" d="M70.8,42.5c-2.6-4.4-4.4-8.5-4.2-9.2c0.2-0.7,2.5,2.4,5.1,6.8c2.6,4.4,4.4,8.5,4.2,9.2
				C75.6,49.9,73.4,46.9,70.8,42.5z"/>
			<path class="st4" d="M67.6,17.7c-0.1,0.6-11.2,4.2-24.7,8.1c-13.5,3.9-24.3,6.6-24.2,6.1c0.1-0.6,11.2-4.2,24.7-8.1
				C56.9,19.9,67.7,17.1,67.6,17.7z"/>
			<path class="st4" d="M31.9,80.1c-0.6-0.1-4.2-11.2-8.1-24.7c-3.9-13.5-6.6-24.3-6.1-24.2c0.6,0.1,4.2,11.2,8.1,24.7
				C29.7,69.5,32.4,80.3,31.9,80.1z"/>
			<path class="st4" d="M33.1,79.3c0.1-0.6,11.2-4.2,24.7-8.1s24.3-6.6,24.2-6.1c-0.1,0.6-11.2,4.2-24.7,8.1
				C43.8,77.1,32.9,79.8,33.1,79.3z"/>
			<g>
				<path class="st4" d="M41.4,17.8L41.4,17.8c-0.1,0-0.3,0.1-0.4,0.2C41.1,17.9,41.3,17.9,41.4,17.8z"/>
				<path class="st4" d="M38.8,19.4C38.8,19.4,38.8,19.4,38.8,19.4L38.8,19.4C38.8,19.4,38.8,19.4,38.8,19.4z"/>
				<path class="st4" d="M64.5,2.1c-1.4-1.7-4.4-2.4-9.2-2C50,0.6,43.5,2.3,35.9,5.4c-7.7,3.1-13.6,6.3-17.8,9.7
					c-3.9,3.1-5.6,5.8-5.3,7.9c0.5,2.1,2.9,3.2,7.3,3.2c1.1,0,2.3-0.1,3.5-0.2c0.8-0.1,1.7-0.2,2.5-0.4c3.9-0.7,8.5-2,13.6-3.8
					l-0.4,0.5c-0.5,0.5-0.6,0.8-0.5,1c0.2,0.3,1.2,0.3,3.1,0c2-0.4,3.3-0.8,3.9-1.2c0.6-0.4,0.2-0.6-1.1-0.6
					c-0.5-0.3-0.4-0.7,0.2-1.3c0.6-0.5,1.5-1.1,2.8-1.8l0.7-0.3c6.6-3.1,11.3-6.1,14.1-9.2C65.3,6,65.9,3.8,64.5,2.1z M41.8,19.7
					c-10.5,4.3-20.2,4.9-21.6,1.4c-1.4-3.5,6-9.8,16.5-14.1s20.2-4.9,21.6-1.4C59.7,9.1,52.3,15.4,41.8,19.7z"/>
			</g>
			<path class="st4" d="M23,86.1c-2.1,0.4-4.7-1.4-7.9-5.3C11.7,76.6,8.5,70.6,5.4,63c-3.1-7.7-4.8-14.2-5.3-19.5
				c-0.4-4.8,0.3-7.8,2-9.2c1.7-1.3,3.9-0.7,6.8,1.9c3,2.8,6.1,7.6,9.2,14.1l0.3,0.7c0.7,1.3,1.3,2.2,1.8,2.8c0.6,0.6,1,0.7,1.3,0.2
				c0-1.3,0.2-1.7,0.6-1.1c0.4,0.6,0.8,1.9,1.2,3.9c0.3,1.8,0.3,2.9,0,3.1c-0.1,0.1-0.5,0-1-0.5l-0.5-0.4c1.9,5.2,3.2,9.7,3.8,13.6
				c0.1,0.9,0.3,1.7,0.4,2.5c0.1,1.2,0.2,2.4,0.2,3.5C26.2,83.1,25.2,85.6,23,86.1z M5.6,40.6C2.1,42,2.7,51.7,7,62.2
				c4.3,10.5,10.6,17.9,14.1,16.5s2.9-11.1-1.4-21.6C15.4,46.5,9.1,39.1,5.6,40.6z"/>
			<path class="st4" d="M98.6,62.7c-1.7,1.3-3.9,0.7-6.8-1.9c-3-2.8-6.1-7.6-9.2-14.1l-0.3-0.7c-0.7-1.3-1.3-2.2-1.8-2.8
				c-0.6-0.6-1-0.7-1.3-0.2c0,1.3-0.2,1.7-0.6,1.1c-0.4-0.6-0.8-1.9-1.2-3.9c-0.3-1.8-0.3-2.9,0-3.1c0.1-0.1,0.5,0,1,0.5l0.5,0.4
				c-1.9-5.2-3.2-9.7-3.8-13.6c-0.1-0.9-0.3-1.7-0.4-2.5c-0.1-1.2-0.2-2.4-0.2-3.5c0-4.4,1-6.9,3.2-7.3c2.1-0.4,4.7,1.4,7.9,5.3
				c3.4,4.2,6.7,10.2,9.7,17.8s4.8,14.2,5.3,19.5C101,58.3,100.3,61.3,98.6,62.7z M79.6,18.3c-3.5,1.4-2.9,11.1,1.4,21.6
				c4.3,10.5,10.6,17.9,14.1,16.5c3.5-1.4,2.9-11.1-1.4-21.6C89.4,24.3,83.1,16.9,79.6,18.3z"/>
			<path class="st4" d="M82.7,81.8c-4.2,3.4-10.2,6.7-17.8,9.7s-14.2,4.8-19.5,5.3c-4.8,0.4-7.8-0.3-9.2-2c-1.3-1.7-0.7-3.9,1.9-6.8
				c2.8-3,7.6-6.1,14.1-9.2l0.7-0.3c1.3-0.7,2.2-1.3,2.8-1.8c0.6-0.6,0.7-1,0.2-1.3c-1.3,0-1.7-0.2-1.1-0.6c0.6-0.4,1.9-0.8,3.9-1.2
				c1.8-0.3,2.9-0.3,3.1,0c0.1,0.1,0,0.5-0.5,1l-0.4,0.5c5.2-1.9,9.7-3.2,13.6-3.8c0.9-0.1,1.7-0.3,2.5-0.4c1.2-0.1,2.4-0.2,3.5-0.2
				c4.4,0,6.9,1,7.3,3.2C88.3,76.1,86.5,78.7,82.7,81.8z M58.9,77.3C48.4,81.6,41,87.9,42.4,91.4c1.4,3.5,11.1,2.9,21.6-1.4
				C74.6,85.7,82,79.4,80.5,75.9C79.1,72.4,69.4,73,58.9,77.3z"/>
		</g>
	</g>
</g>
<g id="fin" class="st0">
	<g id="logo_5_" class="st1">
		<g>
			<path class="st5" d="M57.7,35.8c0.2,0.1,1.7,4.5,3.2,9.9s2.7,9.7,2.4,9.7c-0.2-0.1-1.7-4.5-3.2-9.9
				C58.6,40.1,57.5,35.8,57.7,35.8z"/>
			<path class="st5" d="M53.7,56.3c-1.8,1-3.4,1.8-3.7,1.7c-0.3-0.1,0.9-1,2.7-2c1.8-1,3.4-1.8,3.7-1.7
				C56.7,54.4,55.5,55.3,53.7,56.3z"/>
			<path class="st5" d="M43.8,54.6c-0.1,0.3-1-0.9-2-2.7c-1-1.8-1.8-3.4-1.7-3.7c0.1-0.3,1,0.9,2,2.7C43.2,52.7,43.9,54.3,43.8,54.6
				z"/>
			<path class="st5" d="M47,40.7c1.8-1,3.4-1.8,3.7-1.7c0.3,0.1-0.9,1-2.7,2c-1.8,1-3.4,1.8-3.7,1.7C44,42.6,45.2,41.7,47,40.7z"/>
			<path class="st5" d="M54,47.1c0.4,0.7,0.7,1.4,0.7,1.5c0,0.1-0.4-0.4-0.8-1.1s-0.7-1.4-0.7-1.5C53.2,45.9,53.6,46.4,54,47.1z"/>
			<path class="st5" d="M53.5,43.2c0.1,0,0.7,1.9,1.4,4.1c0.6,2.3,1.1,4.1,1,4c-0.1,0-0.7-1.9-1.4-4.1C53.9,45,53.4,43.2,53.5,43.2z
				"/>
			<path class="st5" d="M51.8,47.9c0.2,0.3,0.3,0.5,0.3,0.6c0,0-0.2-0.1-0.3-0.4c-0.2-0.3-0.3-0.5-0.3-0.6
				C51.5,47.5,51.7,47.7,51.8,47.9z"/>
			<path class="st5" d="M51.6,46.5c0,0,0.3,0.7,0.5,1.6c0.2,0.9,0.4,1.5,0.4,1.5c0,0-0.3-0.7-0.5-1.6C51.8,47.1,51.6,46.5,51.6,46.5
				z"/>
			<path class="st5" d="M50,47c-0.9,0.2-1.5,0.4-1.5,0.4c0,0,0.7-0.3,1.6-0.5c0.9-0.2,1.5-0.4,1.5-0.4C51.6,46.6,50.8,46.8,50,47z"
				/>
			<path class="st5" d="M50.8,49.7c0.3-0.2,0.5-0.3,0.6-0.3c0,0-0.1,0.2-0.4,0.3S50.5,50,50.4,50C50.4,50,50.6,49.8,50.8,49.7z"/>
			<path class="st5" d="M50.1,47.3c-0.3,0.2-0.5,0.3-0.6,0.3c0,0,0.1-0.2,0.4-0.3c0.3-0.2,0.5-0.3,0.6-0.3
				C50.6,47,50.4,47.1,50.1,47.3z"/>
			<path class="st5" d="M49.4,45.4c-0.7,0.4-1.4,0.7-1.5,0.7c-0.1,0,0.4-0.4,1.1-0.8s1.4-0.7,1.5-0.7C50.7,44.6,50.1,45,49.4,45.4z"
				/>
			<path class="st5" d="M48.8,48.9c-0.2-0.9-0.4-1.5-0.4-1.5c0,0,0.3,0.7,0.5,1.6c0.2,0.9,0.4,1.5,0.4,1.5
				C49.3,50.5,49,49.8,48.8,48.9z"/>
			<path class="st5" d="M49.1,49c-0.2-0.3-0.3-0.5-0.3-0.6c0,0,0.2,0.1,0.3,0.4c0.2,0.3,0.3,0.5,0.3,0.6
				C49.4,49.5,49.3,49.3,49.1,49z"/>
			<path class="st5" d="M50.9,49.9c0.9-0.2,1.5-0.4,1.5-0.4s-0.7,0.3-1.6,0.5c-0.9,0.2-1.5,0.4-1.5,0.4
				C49.4,50.4,50.1,50.2,50.9,49.9z"/>
			<path class="st5" d="M51.4,51.6c0.7-0.4,1.4-0.7,1.5-0.7c0.1,0-0.4,0.4-1.1,0.8s-1.4,0.7-1.5,0.7C50.2,52.5,50.7,52.1,51.4,51.6z
				"/>
			<path class="st5" d="M49.2,44.7c-2.3,0.6-4.1,1.1-4,1c0-0.1,1.9-0.7,4.1-1.4c2.3-0.7,4.1-1.1,4-1C53.3,43.5,51.4,44.1,49.2,44.7z
				"/>
			<path class="st5" d="M46,49.7c-0.6-2.3-1.1-4.1-1-4c0.1,0,0.7,1.9,1.4,4.1c0.6,2.3,1.1,4.1,1,4C47.2,53.8,46.6,51.9,46,49.7z"/>
			<path class="st5" d="M46.8,49.9c-0.4-0.7-0.7-1.4-0.7-1.5c0-0.1,0.4,0.4,0.8,1.1s0.7,1.4,0.7,1.5C47.6,51.2,47.3,50.7,46.8,49.9z
				"/>
			<path class="st5" d="M51.7,52.3c2.3-0.6,4.1-1.1,4-1c0,0.1-1.9,0.7-4.1,1.4c-2.3,0.6-4.1,1.1-4,1C47.6,53.6,49.4,53,51.7,52.3z"
				/>
			<path class="st5" d="M58.5,46.1c-1-1.8-1.8-3.4-1.7-3.7c0.1-0.3,1,0.9,2,2.7c1,1.8,1.8,3.4,1.7,3.7
				C60.4,49.1,59.6,47.8,58.5,46.1z"/>
			<path class="st5" d="M57.2,36.2c-0.1,0.2-4.5,1.7-9.9,3.2s-9.7,2.7-9.7,2.4c0.1-0.2,4.5-1.7,9.9-3.2S57.3,35.9,57.2,36.2z"/>
			<path class="st5" d="M42.9,61.1c-0.2-0.1-1.7-4.5-3.2-9.9s-2.7-9.7-2.4-9.7c0.2,0.1,1.7,4.5,3.2,9.9S43.2,61.2,42.9,61.1z"/>
			<path class="st5" d="M43.4,60.8c0.1-0.2,4.5-1.7,9.9-3.2c5.4-1.6,9.7-2.7,9.7-2.4c-0.1,0.2-4.5,1.7-9.9,3.2
				C47.7,59.9,43.4,61,43.4,60.8z"/>
			<g>
				<path class="st5" d="M49.9,46.5L49.9,46.5C49.9,46.5,49.9,46.5,49.9,46.5C49.9,46.5,49.9,46.5,49.9,46.5z"/>
				<path class="st5" d="M49.7,46.6L49.7,46.6L49.7,46.6z"/>
				<path class="st5" d="M51.4,45.5c-0.1-0.1-0.3-0.1-0.6-0.1c-0.3,0-0.7,0.1-1.2,0.3c-0.5,0.2-0.9,0.4-1.1,0.6
					c-0.2,0.2-0.3,0.4-0.3,0.5c0,0.1,0.2,0.2,0.5,0.2c0.1,0,0.1,0,0.2,0c0,0,0.1,0,0.2,0c0.2,0,0.5-0.1,0.9-0.2l0,0c0,0,0,0,0,0.1
					c0,0,0.1,0,0.2,0c0.1,0,0.2,0,0.2-0.1c0,0,0,0-0.1,0c0,0,0,0,0-0.1c0,0,0.1-0.1,0.2-0.1l0,0c0.4-0.2,0.7-0.4,0.9-0.6
					C51.4,45.8,51.5,45.7,51.4,45.5z M49.9,46.6c-0.7,0.3-1.3,0.3-1.4,0.1c-0.1-0.2,0.4-0.6,1-0.9c0.7-0.3,1.3-0.3,1.4-0.1
					C51.1,46,50.6,46.4,49.9,46.6z"/>
			</g>
			<g>
				<path class="st5" d="M52.8,40.8c-0.2-0.3-0.7-0.4-1.5-0.3c-0.9,0.1-2,0.4-3.3,0.9c-1.3,0.5-2.3,1.1-3,1.6
					c-0.6,0.5-0.9,1-0.9,1.3c0.1,0.4,0.5,0.5,1.2,0.5c0.2,0,0.4,0,0.6,0c0.1,0,0.3,0,0.4-0.1c0.6-0.1,1.4-0.3,2.3-0.6l-0.1,0.1
					c-0.1,0.1-0.1,0.1-0.1,0.2c0,0,0.2,0,0.5,0c0.3-0.1,0.5-0.1,0.6-0.2c0.1-0.1,0-0.1-0.2-0.1c-0.1,0-0.1-0.1,0-0.2
					c0.1-0.1,0.2-0.2,0.5-0.3l0.1,0c1.1-0.5,1.9-1,2.4-1.5C52.9,41.4,53,41,52.8,40.8z M49,43.7c-1.8,0.7-3.4,0.8-3.6,0.2
					s1-1.6,2.8-2.4c1.8-0.7,3.4-0.8,3.6-0.2S50.7,43,49,43.7z"/>
				<path class="st5" d="M48.9,43.4L48.9,43.4C48.9,43.4,48.9,43.4,48.9,43.4C48.9,43.4,48.9,43.4,48.9,43.4z"/>
				<path class="st5" d="M48.5,43.7L48.5,43.7L48.5,43.7L48.5,43.7z"/>
			</g>
			<g>
				<path class="st5" d="M46.8,36.2L46.8,36.2c0,0-0.1,0-0.2,0.1C46.6,36.3,46.7,36.2,46.8,36.2z"/>
				<path class="st5" d="M45.7,36.9C45.7,36.9,45.7,36.9,45.7,36.9L45.7,36.9C45.7,36.9,45.7,36.9,45.7,36.9z"/>
				<path class="st5" d="M56,29.9c-0.5-0.7-1.8-0.9-3.7-0.8c-2.1,0.2-4.7,0.9-7.8,2.1c-3.1,1.2-5.4,2.5-7.1,3.9
					c-1.5,1.3-2.2,2.3-2.1,3.2c0.2,0.9,1.2,1.3,2.9,1.3c0.4,0,0.9,0,1.4-0.1c0.3,0,0.7-0.1,1-0.1c1.6-0.3,3.4-0.8,5.5-1.5L46,38
					c-0.2,0.2-0.2,0.3-0.2,0.4c0.1,0.1,0.5,0.1,1.2,0c0.8-0.2,1.3-0.3,1.5-0.5c0.2-0.2,0.1-0.2-0.4-0.2c-0.2-0.1-0.2-0.3,0.1-0.5
					c0.2-0.2,0.6-0.4,1.1-0.7l0.3-0.1c2.6-1.2,4.5-2.5,5.7-3.7C56.3,31.5,56.6,30.6,56,29.9z M46.9,37c-4.2,1.7-8.1,2-8.6,0.6
					s2.4-3.9,6.6-5.6s8.1-2,8.6-0.6C54.1,32.7,51.1,35.3,46.9,37z"/>
			</g>
			<path class="st5" d="M39.4,63.5c-0.8,0.1-1.9-0.6-3.2-2.1c-1.4-1.7-2.7-4.1-3.9-7.1c-1.2-3.1-1.9-5.7-2.1-7.8
				c-0.1-1.9,0.1-3.1,0.8-3.7c0.7-0.5,1.6-0.3,2.7,0.8c1.2,1.1,2.4,3,3.7,5.7l0.1,0.3c0.3,0.5,0.5,0.9,0.7,1.1
				c0.2,0.2,0.4,0.3,0.5,0.1c0-0.5,0.1-0.7,0.2-0.4c0.1,0.2,0.3,0.8,0.5,1.5c0.1,0.7,0.1,1.1,0,1.2c-0.1,0.1-0.2,0-0.4-0.2l-0.2-0.1
				c0.7,2.1,1.3,3.9,1.5,5.5c0.1,0.3,0.1,0.7,0.1,1c0.1,0.5,0.1,1,0.1,1.4C40.7,62.3,40.3,63.3,39.4,63.5z M32.5,45.3
				c-1.4,0.6-1.1,4.4,0.6,8.6c1.7,4.2,4.2,7.1,5.6,6.6c1.4-0.6,1.1-4.4-0.6-8.6C36.4,47.7,33.8,44.8,32.5,45.3z"/>
			<path class="st5" d="M48.9,50.2c0,0,0-0.1,0-0.2c0-0.2-0.1-0.5-0.2-0.9l0,0c0,0,0,0,0.1,0c0,0,0-0.1,0-0.2c0-0.1,0-0.2-0.1-0.2
				c0,0,0,0,0,0.1c0,0,0,0-0.1,0c0,0-0.1-0.1-0.1-0.2l0,0c-0.2-0.4-0.4-0.7-0.6-0.9c-0.2-0.2-0.3-0.2-0.4-0.1
				c-0.1,0.1-0.1,0.3-0.1,0.6c0,0.3,0.1,0.7,0.3,1.2c0.2,0.5,0.4,0.9,0.6,1.1c0.2,0.2,0.4,0.3,0.5,0.3c0.1,0,0.2-0.2,0.2-0.5
				C48.9,50.3,48.9,50.2,48.9,50.2z M48.6,50.4c-0.2,0.1-0.6-0.4-0.9-1c-0.3-0.7-0.3-1.3-0.1-1.4c0.2-0.1,0.6,0.4,0.9,1
				C48.8,49.7,48.8,50.3,48.6,50.4z"/>
			<path class="st5" d="M53.6,48.8c0-0.3-0.1-0.7-0.3-1.2c-0.2-0.5-0.4-0.9-0.6-1.1c-0.2-0.2-0.4-0.3-0.5-0.3
				c-0.1,0-0.2,0.2-0.2,0.5c0,0.1,0,0.1,0,0.2c0,0,0,0.1,0,0.2c0,0.2,0.1,0.5,0.2,0.9l0,0c0,0,0,0-0.1,0c0,0,0,0.1,0,0.2
				c0,0.1,0,0.2,0.1,0.2c0,0,0,0,0-0.1c0,0,0,0,0.1,0c0,0,0.1,0.1,0.1,0.2l0,0c0.2,0.4,0.4,0.7,0.6,0.9c0.2,0.2,0.3,0.2,0.4,0.1
				C53.6,49.3,53.7,49.1,53.6,48.8z M53.3,49c-0.2,0.1-0.6-0.4-0.9-1c-0.3-0.7-0.3-1.3-0.1-1.4c0.2-0.1,0.6,0.4,0.9,1
				C53.5,48.3,53.5,48.9,53.3,49z"/>
			<path class="st5" d="M52.9,50.1c0-0.1-0.2-0.2-0.5-0.2c-0.1,0-0.1,0-0.2,0c0,0-0.1,0-0.2,0c-0.2,0-0.5,0.1-0.9,0.2l0,0
				c0,0,0,0,0-0.1c0,0-0.1,0-0.2,0c-0.1,0-0.2,0-0.2,0.1c0,0,0,0,0.1,0c0,0,0,0,0,0.1c0,0-0.1,0.1-0.2,0.1l0,0
				c-0.4,0.2-0.7,0.4-0.9,0.6c-0.2,0.2-0.2,0.3-0.1,0.4c0.1,0.1,0.3,0.1,0.6,0.1c0.3,0,0.7-0.1,1.2-0.3c0.5-0.2,0.9-0.4,1.1-0.6
				C52.8,50.4,52.9,50.2,52.9,50.1z M51.3,51.1c-0.7,0.3-1.3,0.3-1.4,0.1c-0.1-0.2,0.4-0.6,1-0.9c0.7-0.3,1.3-0.3,1.4-0.1
				C52.5,50.4,52,50.8,51.3,51.1z"/>
			<path class="st5" d="M46.3,53c0-0.1,0-0.3-0.1-0.4c-0.1-0.6-0.3-1.4-0.6-2.3l0.1,0.1c0.1,0.1,0.1,0.1,0.2,0.1c0,0,0-0.2,0-0.5
				c-0.1-0.3-0.1-0.5-0.2-0.6c-0.1-0.1-0.1,0-0.1,0.2c0,0.1-0.1,0.1-0.2,0c-0.1-0.1-0.2-0.2-0.3-0.5l0-0.1c-0.5-1.1-1-1.9-1.5-2.4
				c-0.5-0.4-0.8-0.5-1.1-0.3c-0.3,0.2-0.4,0.7-0.3,1.5c0.1,0.9,0.4,2,0.9,3.3c0.5,1.3,1.1,2.3,1.6,3c0.5,0.6,1,0.9,1.3,0.9
				c0.4-0.1,0.5-0.5,0.5-1.2C46.4,53.4,46.4,53.2,46.3,53z M45.5,53.6c-0.6,0.2-1.6-1-2.4-2.8c-0.7-1.8-0.8-3.4-0.2-3.6
				c0.6-0.2,1.6,1,2.4,2.8C46,51.7,46.1,53.3,45.5,53.6z"/>
			<path class="st5" d="M69.6,54.2c-0.7,0.5-1.6,0.3-2.7-0.8c-1.2-1.1-2.4-3-3.7-5.7l-0.1-0.3c-0.3-0.5-0.5-0.9-0.7-1.1
				c-0.2-0.2-0.4-0.3-0.5-0.1c0,0.5-0.1,0.7-0.2,0.4c-0.1-0.2-0.3-0.8-0.5-1.5c-0.1-0.7-0.1-1.1,0-1.2c0.1-0.1,0.2,0,0.4,0.2
				l0.2,0.1c-0.7-2.1-1.3-3.9-1.5-5.5c-0.1-0.3-0.1-0.7-0.1-1c-0.1-0.5-0.1-1-0.1-1.4c0-1.8,0.4-2.8,1.3-2.9
				c0.8-0.1,1.9,0.6,3.2,2.1c1.4,1.7,2.7,4.1,3.9,7.1c1.2,3.1,1.9,5.7,2.1,7.8C70.6,52.4,70.3,53.6,69.6,54.2z M62,36.4
				c-1.4,0.6-1.1,4.4,0.6,8.6c1.7,4.2,4.2,7.1,5.6,6.6c1.4-0.6,1.1-4.4-0.6-8.6C66,38.8,63.4,35.8,62,36.4z"/>
			<path class="st5" d="M56.7,52.8c-0.1-0.4-0.5-0.5-1.2-0.5c-0.2,0-0.4,0-0.6,0c-0.1,0-0.3,0-0.4,0.1c-0.6,0.1-1.4,0.3-2.3,0.6
				l0.1-0.1c0.1-0.1,0.1-0.1,0.1-0.2c0,0-0.2,0-0.5,0c-0.3,0.1-0.5,0.1-0.6,0.2s0,0.1,0.2,0.1c0.1,0,0.1,0.1,0,0.2
				c-0.1,0.1-0.2,0.2-0.5,0.3l-0.1,0c-1.1,0.5-1.9,1-2.4,1.5c-0.4,0.5-0.5,0.8-0.3,1.1c0.2,0.3,0.7,0.4,1.5,0.3
				c0.9-0.1,2-0.4,3.3-0.9c1.3-0.5,2.3-1.1,3-1.6C56.5,53.6,56.8,53.1,56.7,52.8z M52.7,55.5c-1.8,0.7-3.4,0.8-3.6,0.2
				s1-1.6,2.8-2.4c1.8-0.7,3.4-0.8,3.6-0.2S54.5,54.7,52.7,55.5z"/>
			<path class="st5" d="M63.3,61.8c-1.7,1.4-4.1,2.7-7.1,3.9c-3.1,1.2-5.7,1.9-7.8,2.1c-1.9,0.1-3.1-0.1-3.7-0.8
				c-0.5-0.7-0.3-1.6,0.8-2.7c1.1-1.2,3-2.4,5.7-3.7l0.3-0.1c0.5-0.3,0.9-0.5,1.1-0.7c0.2-0.2,0.3-0.4,0.1-0.5
				c-0.5,0-0.7-0.1-0.4-0.2c0.2-0.1,0.8-0.3,1.5-0.5c0.7-0.1,1.1-0.1,1.2,0c0.1,0.1,0,0.2-0.2,0.4l-0.1,0.2c2.1-0.7,3.9-1.3,5.5-1.5
				c0.3-0.1,0.7-0.1,1-0.1c0.5-0.1,1-0.1,1.4-0.1c1.8,0,2.8,0.4,2.9,1.3C65.5,59.5,64.8,60.6,63.3,61.8z M53.8,60
				c-4.2,1.7-7.1,4.2-6.6,5.6c0.6,1.4,4.4,1.1,8.6-0.6s7.1-4.2,6.6-5.6C61.8,58,58,58.3,53.8,60z"/>
			<path class="st5" d="M58.8,49.4c-0.1-0.9-0.4-2-0.9-3.3c-0.5-1.3-1.1-2.3-1.6-3c-0.5-0.6-1-0.9-1.3-0.9c-0.4,0.1-0.5,0.5-0.5,1.2
				c0,0.2,0,0.4,0,0.6c0,0.1,0,0.3,0.1,0.4c0.1,0.6,0.3,1.4,0.6,2.3l-0.1-0.1c-0.1-0.1-0.1-0.1-0.2-0.1c0,0,0,0.2,0,0.5
				c0.1,0.3,0.1,0.5,0.2,0.6s0.1,0,0.1-0.2c0-0.1,0.1-0.1,0.2,0c0.1,0.1,0.2,0.2,0.3,0.5l0,0.1c0.5,1.1,1,1.9,1.5,2.4
				c0.5,0.4,0.8,0.5,1.1,0.3C58.8,50.7,58.9,50.2,58.8,49.4z M57.9,49.8c-0.6,0.2-1.6-1-2.4-2.8c-0.7-1.8-0.8-3.4-0.2-3.6
				c0.6-0.2,1.6,1,2.4,2.8C58.4,48,58.5,49.6,57.9,49.8z"/>
		</g>
		<g>
			<path class="st5" d="M68.8,16.8c0.6,0.1,4.2,11.2,8.1,24.7c3.9,13.5,6.6,24.3,6.1,24.2c-0.6-0.1-4.2-11.2-8.1-24.7
				C70.9,27.5,68.2,16.7,68.8,16.8z"/>
			<path class="st5" d="M58.7,68c-4.4,2.6-8.5,4.4-9.2,4.2c-0.7-0.2,2.4-2.5,6.8-5.1c4.4-2.6,8.5-4.4,9.2-4.2
				C66.2,63.2,63.1,65.5,58.7,68z"/>
			<path class="st5" d="M34,63.7c-0.2,0.7-2.5-2.4-5.1-6.8c-2.6-4.4-4.4-8.5-4.2-9.2c0.2-0.7,2.5,2.4,5.1,6.8S34.3,63,34,63.7z"/>
			<path class="st5" d="M42,28.9c4.4-2.6,8.5-4.4,9.2-4.2c0.7,0.2-2.4,2.5-6.8,5.1c-4.4,2.6-8.5,4.4-9.2,4.2
				C34.5,33.8,37.5,31.5,42,28.9z"/>
			<path class="st5" d="M70.8,42.5c-2.6-4.4-4.4-8.5-4.2-9.2c0.2-0.7,2.5,2.4,5.1,6.8c2.6,4.4,4.4,8.5,4.2,9.2
				C75.6,49.9,73.4,46.9,70.8,42.5z"/>
			<path class="st5" d="M67.6,17.7c-0.1,0.6-11.2,4.2-24.7,8.1c-13.5,3.9-24.3,6.6-24.2,6.1c0.1-0.6,11.2-4.2,24.7-8.1
				C56.9,19.9,67.7,17.1,67.6,17.7z"/>
			<path class="st5" d="M31.9,80.1c-0.6-0.1-4.2-11.2-8.1-24.7c-3.9-13.5-6.6-24.3-6.1-24.2c0.6,0.1,4.2,11.2,8.1,24.7
				C29.7,69.5,32.4,80.3,31.9,80.1z"/>
			<path class="st5" d="M33.1,79.3c0.1-0.6,11.2-4.2,24.7-8.1s24.3-6.6,24.2-6.1c-0.1,0.6-11.2,4.2-24.7,8.1
				C43.8,77.1,32.9,79.8,33.1,79.3z"/>
			<g>
				<path class="st5" d="M41.4,17.8L41.4,17.8c-0.1,0-0.3,0.1-0.4,0.2C41.1,17.9,41.3,17.9,41.4,17.8z"/>
				<path class="st5" d="M38.8,19.4C38.8,19.4,38.8,19.4,38.8,19.4L38.8,19.4C38.8,19.4,38.8,19.4,38.8,19.4z"/>
				<path class="st5" d="M64.5,2.1c-1.4-1.7-4.4-2.4-9.2-2C50,0.6,43.5,2.3,35.9,5.4c-7.7,3.1-13.6,6.3-17.8,9.7
					c-3.9,3.1-5.6,5.8-5.3,7.9c0.5,2.1,2.9,3.2,7.3,3.2c1.1,0,2.3-0.1,3.5-0.2c0.8-0.1,1.7-0.2,2.5-0.4c3.9-0.7,8.5-2,13.6-3.8
					l-0.4,0.5c-0.5,0.5-0.6,0.8-0.5,1c0.2,0.3,1.2,0.3,3.1,0c2-0.4,3.3-0.8,3.9-1.2c0.6-0.4,0.2-0.6-1.1-0.6
					c-0.5-0.3-0.4-0.7,0.2-1.3c0.6-0.5,1.5-1.1,2.8-1.8l0.7-0.3c6.6-3.1,11.3-6.1,14.1-9.2C65.3,6,65.9,3.8,64.5,2.1z M41.8,19.7
					c-10.5,4.3-20.2,4.9-21.6,1.4c-1.4-3.5,6-9.8,16.5-14.1s20.2-4.9,21.6-1.4C59.7,9.1,52.3,15.4,41.8,19.7z"/>
			</g>
			<path class="st5" d="M23,86.1c-2.1,0.4-4.7-1.4-7.9-5.3C11.7,76.6,8.5,70.6,5.4,63c-3.1-7.7-4.8-14.2-5.3-19.5
				c-0.4-4.8,0.3-7.8,2-9.2c1.7-1.3,3.9-0.7,6.8,1.9c3,2.8,6.1,7.6,9.2,14.1l0.3,0.7c0.7,1.3,1.3,2.2,1.8,2.8c0.6,0.6,1,0.7,1.3,0.2
				c0-1.3,0.2-1.7,0.6-1.1c0.4,0.6,0.8,1.9,1.2,3.9c0.3,1.8,0.3,2.9,0,3.1c-0.1,0.1-0.5,0-1-0.5l-0.5-0.4c1.9,5.2,3.2,9.7,3.8,13.6
				c0.1,0.9,0.3,1.7,0.4,2.5c0.1,1.2,0.2,2.4,0.2,3.5C26.2,83.1,25.2,85.6,23,86.1z M5.6,40.6C2.1,42,2.7,51.7,7,62.2
				c4.3,10.5,10.6,17.9,14.1,16.5s2.9-11.1-1.4-21.6C15.4,46.5,9.1,39.1,5.6,40.6z"/>
			<path class="st5" d="M98.6,62.7c-1.7,1.3-3.9,0.7-6.8-1.9c-3-2.8-6.1-7.6-9.2-14.1l-0.3-0.7c-0.7-1.3-1.3-2.2-1.8-2.8
				c-0.6-0.6-1-0.7-1.3-0.2c0,1.3-0.2,1.7-0.6,1.1c-0.4-0.6-0.8-1.9-1.2-3.9c-0.3-1.8-0.3-2.9,0-3.1c0.1-0.1,0.5,0,1,0.5l0.5,0.4
				c-1.9-5.2-3.2-9.7-3.8-13.6c-0.1-0.9-0.3-1.7-0.4-2.5c-0.1-1.2-0.2-2.4-0.2-3.5c0-4.4,1-6.9,3.2-7.3c2.1-0.4,4.7,1.4,7.9,5.3
				c3.4,4.2,6.7,10.2,9.7,17.8s4.8,14.2,5.3,19.5C101,58.3,100.3,61.3,98.6,62.7z M79.6,18.3c-3.5,1.4-2.9,11.1,1.4,21.6
				c4.3,10.5,10.6,17.9,14.1,16.5c3.5-1.4,2.9-11.1-1.4-21.6C89.4,24.3,83.1,16.9,79.6,18.3z"/>
			<path class="st5" d="M82.7,81.8c-4.2,3.4-10.2,6.7-17.8,9.7s-14.2,4.8-19.5,5.3c-4.8,0.4-7.8-0.3-9.2-2c-1.3-1.7-0.7-3.9,1.9-6.8
				c2.8-3,7.6-6.1,14.1-9.2l0.7-0.3c1.3-0.7,2.2-1.3,2.8-1.8c0.6-0.6,0.7-1,0.2-1.3c-1.3,0-1.7-0.2-1.1-0.6c0.6-0.4,1.9-0.8,3.9-1.2
				c1.8-0.3,2.9-0.3,3.1,0c0.1,0.1,0,0.5-0.5,1l-0.4,0.5c5.2-1.9,9.7-3.2,13.6-3.8c0.9-0.1,1.7-0.3,2.5-0.4c1.2-0.1,2.4-0.2,3.5-0.2
				c4.4,0,6.9,1,7.3,3.2C88.3,76.1,86.5,78.7,82.7,81.8z M58.9,77.3C48.4,81.6,41,87.9,42.4,91.4c1.4,3.5,11.1,2.9,21.6-1.4
				C74.6,85.7,82,79.4,80.5,75.9C79.1,72.4,69.4,73,58.9,77.3z"/>
		</g>
	</g>
</g>
<g id="lib">
	<g id="logo_1_">
		<g>
			<path class="st6" d="M57.7,35.8c0.2,0.1,1.7,4.5,3.2,9.9s2.7,9.7,2.4,9.7c-0.2-0.1-1.7-4.5-3.2-9.9
				C58.6,40.1,57.5,35.8,57.7,35.8z"/>
			<path class="st6" d="M53.7,56.3c-1.8,1-3.4,1.8-3.7,1.7c-0.3-0.1,0.9-1,2.7-2c1.8-1,3.4-1.8,3.7-1.7
				C56.7,54.4,55.5,55.3,53.7,56.3z"/>
			<path class="st6" d="M43.8,54.6c-0.1,0.3-1-0.9-2-2.7c-1-1.8-1.8-3.4-1.7-3.7c0.1-0.3,1,0.9,2,2.7C43.2,52.7,43.9,54.3,43.8,54.6
				z"/>
			<path class="st6" d="M47,40.7c1.8-1,3.4-1.8,3.7-1.7c0.3,0.1-0.9,1-2.7,2c-1.8,1-3.4,1.8-3.7,1.7C44,42.6,45.2,41.7,47,40.7z"/>
			<path class="st6" d="M54,47.1c0.4,0.7,0.7,1.4,0.7,1.5c0,0.1-0.4-0.4-0.8-1.1s-0.7-1.4-0.7-1.5C53.2,45.9,53.6,46.4,54,47.1z"/>
			<path class="st6" d="M53.5,43.2c0.1,0,0.7,1.9,1.4,4.1c0.6,2.3,1.1,4.1,1,4c-0.1,0-0.7-1.9-1.4-4.1C53.9,45,53.4,43.2,53.5,43.2z
				"/>
			<path class="st6" d="M51.8,47.9c0.2,0.3,0.3,0.5,0.3,0.6c0,0-0.2-0.1-0.3-0.4c-0.2-0.3-0.3-0.5-0.3-0.6
				C51.5,47.5,51.7,47.7,51.8,47.9z"/>
			<path class="st6" d="M51.6,46.5c0,0,0.3,0.7,0.5,1.6c0.2,0.9,0.4,1.5,0.4,1.5c0,0-0.3-0.7-0.5-1.6C51.8,47.1,51.6,46.5,51.6,46.5
				z"/>
			<path class="st6" d="M50,47c-0.9,0.2-1.5,0.4-1.5,0.4c0,0,0.7-0.3,1.6-0.5c0.9-0.2,1.5-0.4,1.5-0.4C51.6,46.6,50.8,46.8,50,47z"
				/>
			<path class="st6" d="M50.8,49.7c0.3-0.2,0.5-0.3,0.6-0.3c0,0-0.1,0.2-0.4,0.3S50.5,50,50.4,50C50.4,50,50.6,49.8,50.8,49.7z"/>
			<path class="st6" d="M50.1,47.3c-0.3,0.2-0.5,0.3-0.6,0.3c0,0,0.1-0.2,0.4-0.3c0.3-0.2,0.5-0.3,0.6-0.3
				C50.6,47,50.4,47.1,50.1,47.3z"/>
			<path class="st6" d="M49.4,45.4c-0.7,0.4-1.4,0.7-1.5,0.7c-0.1,0,0.4-0.4,1.1-0.8s1.4-0.7,1.5-0.7C50.7,44.6,50.1,45,49.4,45.4z"
				/>
			<path class="st6" d="M48.8,48.9c-0.2-0.9-0.4-1.5-0.4-1.5c0,0,0.3,0.7,0.5,1.6c0.2,0.9,0.4,1.5,0.4,1.5
				C49.3,50.5,49,49.8,48.8,48.9z"/>
			<path class="st6" d="M49.1,49c-0.2-0.3-0.3-0.5-0.3-0.6c0,0,0.2,0.1,0.3,0.4c0.2,0.3,0.3,0.5,0.3,0.6
				C49.4,49.5,49.3,49.3,49.1,49z"/>
			<path class="st6" d="M50.9,49.9c0.9-0.2,1.5-0.4,1.5-0.4s-0.7,0.3-1.6,0.5c-0.9,0.2-1.5,0.4-1.5,0.4
				C49.4,50.4,50.1,50.2,50.9,49.9z"/>
			<path class="st6" d="M51.4,51.6c0.7-0.4,1.4-0.7,1.5-0.7c0.1,0-0.4,0.4-1.1,0.8s-1.4,0.7-1.5,0.7C50.2,52.5,50.7,52.1,51.4,51.6z
				"/>
			<path class="st6" d="M49.2,44.7c-2.3,0.6-4.1,1.1-4,1c0-0.1,1.9-0.7,4.1-1.4c2.3-0.7,4.1-1.1,4-1C53.3,43.5,51.4,44.1,49.2,44.7z
				"/>
			<path class="st6" d="M46,49.7c-0.6-2.3-1.1-4.1-1-4c0.1,0,0.7,1.9,1.4,4.1c0.6,2.3,1.1,4.1,1,4C47.2,53.8,46.6,51.9,46,49.7z"/>
			<path class="st6" d="M46.8,49.9c-0.4-0.7-0.7-1.4-0.7-1.5c0-0.1,0.4,0.4,0.8,1.1s0.7,1.4,0.7,1.5C47.6,51.2,47.3,50.7,46.8,49.9z
				"/>
			<path class="st6" d="M51.7,52.3c2.3-0.6,4.1-1.1,4-1c0,0.1-1.9,0.7-4.1,1.4c-2.3,0.6-4.1,1.1-4,1C47.6,53.6,49.4,53,51.7,52.3z"
				/>
			<path class="st6" d="M58.5,46.1c-1-1.8-1.8-3.4-1.7-3.7c0.1-0.3,1,0.9,2,2.7c1,1.8,1.8,3.4,1.7,3.7
				C60.4,49.1,59.6,47.8,58.5,46.1z"/>
			<path class="st6" d="M57.2,36.2c-0.1,0.2-4.5,1.7-9.9,3.2s-9.7,2.7-9.7,2.4c0.1-0.2,4.5-1.7,9.9-3.2S57.3,35.9,57.2,36.2z"/>
			<path class="st6" d="M42.9,61.1c-0.2-0.1-1.7-4.5-3.2-9.9s-2.7-9.7-2.4-9.7c0.2,0.1,1.7,4.5,3.2,9.9S43.2,61.2,42.9,61.1z"/>
			<path class="st6" d="M43.4,60.8c0.1-0.2,4.5-1.7,9.9-3.2c5.4-1.6,9.7-2.7,9.7-2.4c-0.1,0.2-4.5,1.7-9.9,3.2
				C47.7,59.9,43.4,61,43.4,60.8z"/>
			<g>
				<path class="st6" d="M49.9,46.5L49.9,46.5C49.9,46.5,49.9,46.5,49.9,46.5C49.9,46.5,49.9,46.5,49.9,46.5z"/>
				<path class="st6" d="M49.7,46.6L49.7,46.6L49.7,46.6z"/>
				<path class="st6" d="M51.4,45.5c-0.1-0.1-0.3-0.1-0.6-0.1c-0.3,0-0.7,0.1-1.2,0.3c-0.5,0.2-0.9,0.4-1.1,0.6
					c-0.2,0.2-0.3,0.4-0.3,0.5c0,0.1,0.2,0.2,0.5,0.2c0.1,0,0.1,0,0.2,0c0,0,0.1,0,0.2,0c0.2,0,0.5-0.1,0.9-0.2l0,0c0,0,0,0,0,0.1
					c0,0,0.1,0,0.2,0c0.1,0,0.2,0,0.2-0.1c0,0,0,0-0.1,0c0,0,0,0,0-0.1c0,0,0.1-0.1,0.2-0.1l0,0c0.4-0.2,0.7-0.4,0.9-0.6
					C51.4,45.8,51.5,45.7,51.4,45.5z M49.9,46.6c-0.7,0.3-1.3,0.3-1.4,0.1c-0.1-0.2,0.4-0.6,1-0.9c0.7-0.3,1.3-0.3,1.4-0.1
					C51.1,46,50.6,46.4,49.9,46.6z"/>
			</g>
			<g>
				<path class="st6" d="M52.8,40.8c-0.2-0.3-0.7-0.4-1.5-0.3c-0.9,0.1-2,0.4-3.3,0.9c-1.3,0.5-2.3,1.1-3,1.6
					c-0.6,0.5-0.9,1-0.9,1.3c0.1,0.4,0.5,0.5,1.2,0.5c0.2,0,0.4,0,0.6,0c0.1,0,0.3,0,0.4-0.1c0.6-0.1,1.4-0.3,2.3-0.6l-0.1,0.1
					c-0.1,0.1-0.1,0.1-0.1,0.2c0,0,0.2,0,0.5,0c0.3-0.1,0.5-0.1,0.6-0.2c0.1-0.1,0-0.1-0.2-0.1c-0.1,0-0.1-0.1,0-0.2
					c0.1-0.1,0.2-0.2,0.5-0.3l0.1,0c1.1-0.5,1.9-1,2.4-1.5C52.9,41.4,53,41,52.8,40.8z M49,43.7c-1.8,0.7-3.4,0.8-3.6,0.2
					s1-1.6,2.8-2.4c1.8-0.7,3.4-0.8,3.6-0.2S50.7,43,49,43.7z"/>
				<path class="st6" d="M48.9,43.4L48.9,43.4C48.9,43.4,48.9,43.4,48.9,43.4C48.9,43.4,48.9,43.4,48.9,43.4z"/>
				<path class="st6" d="M48.5,43.7L48.5,43.7L48.5,43.7L48.5,43.7z"/>
			</g>
			<g>
				<path class="st6" d="M46.8,36.2L46.8,36.2c0,0-0.1,0-0.2,0.1C46.6,36.3,46.7,36.2,46.8,36.2z"/>
				<path class="st6" d="M45.7,36.9C45.7,36.9,45.7,36.9,45.7,36.9L45.7,36.9C45.7,36.9,45.7,36.9,45.7,36.9z"/>
				<path class="st6" d="M56,29.9c-0.5-0.7-1.8-0.9-3.7-0.8c-2.1,0.2-4.7,0.9-7.8,2.1c-3.1,1.2-5.4,2.5-7.1,3.9
					c-1.5,1.3-2.2,2.3-2.1,3.2c0.2,0.9,1.2,1.3,2.9,1.3c0.4,0,0.9,0,1.4-0.1c0.3,0,0.7-0.1,1-0.1c1.6-0.3,3.4-0.8,5.5-1.5L46,38
					c-0.2,0.2-0.2,0.3-0.2,0.4c0.1,0.1,0.5,0.1,1.2,0c0.8-0.2,1.3-0.3,1.5-0.5c0.2-0.2,0.1-0.2-0.4-0.2c-0.2-0.1-0.2-0.3,0.1-0.5
					c0.2-0.2,0.6-0.4,1.1-0.7l0.3-0.1c2.6-1.2,4.5-2.5,5.7-3.7C56.3,31.5,56.6,30.6,56,29.9z M46.9,37c-4.2,1.7-8.1,2-8.6,0.6
					s2.4-3.9,6.6-5.6s8.1-2,8.6-0.6C54.1,32.7,51.1,35.3,46.9,37z"/>
			</g>
			<path class="st6" d="M39.4,63.5c-0.8,0.1-1.9-0.6-3.2-2.1c-1.4-1.7-2.7-4.1-3.9-7.1c-1.2-3.1-1.9-5.7-2.1-7.8
				c-0.1-1.9,0.1-3.1,0.8-3.7c0.7-0.5,1.6-0.3,2.7,0.8c1.2,1.1,2.4,3,3.7,5.7l0.1,0.3c0.3,0.5,0.5,0.9,0.7,1.1
				c0.2,0.2,0.4,0.3,0.5,0.1c0-0.5,0.1-0.7,0.2-0.4c0.1,0.2,0.3,0.8,0.5,1.5c0.1,0.7,0.1,1.1,0,1.2c-0.1,0.1-0.2,0-0.4-0.2l-0.2-0.1
				c0.7,2.1,1.3,3.9,1.5,5.5c0.1,0.3,0.1,0.7,0.1,1c0.1,0.5,0.1,1,0.1,1.4C40.7,62.3,40.3,63.3,39.4,63.5z M32.5,45.3
				c-1.4,0.6-1.1,4.4,0.6,8.6c1.7,4.2,4.2,7.1,5.6,6.6c1.4-0.6,1.1-4.4-0.6-8.6C36.4,47.7,33.8,44.8,32.5,45.3z"/>
			<path class="st6" d="M48.9,50.2c0,0,0-0.1,0-0.2c0-0.2-0.1-0.5-0.2-0.9l0,0c0,0,0,0,0.1,0c0,0,0-0.1,0-0.2c0-0.1,0-0.2-0.1-0.2
				c0,0,0,0,0,0.1c0,0,0,0-0.1,0c0,0-0.1-0.1-0.1-0.2l0,0c-0.2-0.4-0.4-0.7-0.6-0.9c-0.2-0.2-0.3-0.2-0.4-0.1
				c-0.1,0.1-0.1,0.3-0.1,0.6c0,0.3,0.1,0.7,0.3,1.2c0.2,0.5,0.4,0.9,0.6,1.1c0.2,0.2,0.4,0.3,0.5,0.3c0.1,0,0.2-0.2,0.2-0.5
				C48.9,50.3,48.9,50.2,48.9,50.2z M48.6,50.4c-0.2,0.1-0.6-0.4-0.9-1c-0.3-0.7-0.3-1.3-0.1-1.4c0.2-0.1,0.6,0.4,0.9,1
				C48.8,49.7,48.8,50.3,48.6,50.4z"/>
			<path class="st6" d="M53.6,48.8c0-0.3-0.1-0.7-0.3-1.2c-0.2-0.5-0.4-0.9-0.6-1.1c-0.2-0.2-0.4-0.3-0.5-0.3
				c-0.1,0-0.2,0.2-0.2,0.5c0,0.1,0,0.1,0,0.2c0,0,0,0.1,0,0.2c0,0.2,0.1,0.5,0.2,0.9l0,0c0,0,0,0-0.1,0c0,0,0,0.1,0,0.2
				c0,0.1,0,0.2,0.1,0.2c0,0,0,0,0-0.1c0,0,0,0,0.1,0c0,0,0.1,0.1,0.1,0.2l0,0c0.2,0.4,0.4,0.7,0.6,0.9c0.2,0.2,0.3,0.2,0.4,0.1
				C53.6,49.3,53.7,49.1,53.6,48.8z M53.3,49c-0.2,0.1-0.6-0.4-0.9-1c-0.3-0.7-0.3-1.3-0.1-1.4c0.2-0.1,0.6,0.4,0.9,1
				C53.5,48.3,53.5,48.9,53.3,49z"/>
			<path class="st6" d="M52.9,50.1c0-0.1-0.2-0.2-0.5-0.2c-0.1,0-0.1,0-0.2,0c0,0-0.1,0-0.2,0c-0.2,0-0.5,0.1-0.9,0.2l0,0
				c0,0,0,0,0-0.1c0,0-0.1,0-0.2,0c-0.1,0-0.2,0-0.2,0.1c0,0,0,0,0.1,0c0,0,0,0,0,0.1c0,0-0.1,0.1-0.2,0.1l0,0
				c-0.4,0.2-0.7,0.4-0.9,0.6c-0.2,0.2-0.2,0.3-0.1,0.4c0.1,0.1,0.3,0.1,0.6,0.1c0.3,0,0.7-0.1,1.2-0.3c0.5-0.2,0.9-0.4,1.1-0.6
				C52.8,50.4,52.9,50.2,52.9,50.1z M51.3,51.1c-0.7,0.3-1.3,0.3-1.4,0.1c-0.1-0.2,0.4-0.6,1-0.9c0.7-0.3,1.3-0.3,1.4-0.1
				C52.5,50.4,52,50.8,51.3,51.1z"/>
			<path class="st6" d="M46.3,53c0-0.1,0-0.3-0.1-0.4c-0.1-0.6-0.3-1.4-0.6-2.3l0.1,0.1c0.1,0.1,0.1,0.1,0.2,0.1c0,0,0-0.2,0-0.5
				c-0.1-0.3-0.1-0.5-0.2-0.6c-0.1-0.1-0.1,0-0.1,0.2c0,0.1-0.1,0.1-0.2,0c-0.1-0.1-0.2-0.2-0.3-0.5l0-0.1c-0.5-1.1-1-1.9-1.5-2.4
				c-0.5-0.4-0.8-0.5-1.1-0.3c-0.3,0.2-0.4,0.7-0.3,1.5c0.1,0.9,0.4,2,0.9,3.3c0.5,1.3,1.1,2.3,1.6,3c0.5,0.6,1,0.9,1.3,0.9
				c0.4-0.1,0.5-0.5,0.5-1.2C46.4,53.4,46.4,53.2,46.3,53z M45.5,53.6c-0.6,0.2-1.6-1-2.4-2.8c-0.7-1.8-0.8-3.4-0.2-3.6
				c0.6-0.2,1.6,1,2.4,2.8C46,51.7,46.1,53.3,45.5,53.6z"/>
			<path class="st6" d="M69.6,54.2c-0.7,0.5-1.6,0.3-2.7-0.8c-1.2-1.1-2.4-3-3.7-5.7l-0.1-0.3c-0.3-0.5-0.5-0.9-0.7-1.1
				c-0.2-0.2-0.4-0.3-0.5-0.1c0,0.5-0.1,0.7-0.2,0.4c-0.1-0.2-0.3-0.8-0.5-1.5c-0.1-0.7-0.1-1.1,0-1.2c0.1-0.1,0.2,0,0.4,0.2
				l0.2,0.1c-0.7-2.1-1.3-3.9-1.5-5.5c-0.1-0.3-0.1-0.7-0.1-1c-0.1-0.5-0.1-1-0.1-1.4c0-1.8,0.4-2.8,1.3-2.9
				c0.8-0.1,1.9,0.6,3.2,2.1c1.4,1.7,2.7,4.1,3.9,7.1c1.2,3.1,1.9,5.7,2.1,7.8C70.6,52.4,70.3,53.6,69.6,54.2z M62,36.4
				c-1.4,0.6-1.1,4.4,0.6,8.6c1.7,4.2,4.2,7.1,5.6,6.6c1.4-0.6,1.1-4.4-0.6-8.6C66,38.8,63.4,35.8,62,36.4z"/>
			<path class="st6" d="M56.7,52.8c-0.1-0.4-0.5-0.5-1.2-0.5c-0.2,0-0.4,0-0.6,0c-0.1,0-0.3,0-0.4,0.1c-0.6,0.1-1.4,0.3-2.3,0.6
				l0.1-0.1c0.1-0.1,0.1-0.1,0.1-0.2c0,0-0.2,0-0.5,0c-0.3,0.1-0.5,0.1-0.6,0.2s0,0.1,0.2,0.1c0.1,0,0.1,0.1,0,0.2
				c-0.1,0.1-0.2,0.2-0.5,0.3l-0.1,0c-1.1,0.5-1.9,1-2.4,1.5c-0.4,0.5-0.5,0.8-0.3,1.1c0.2,0.3,0.7,0.4,1.5,0.3
				c0.9-0.1,2-0.4,3.3-0.9c1.3-0.5,2.3-1.1,3-1.6C56.5,53.6,56.8,53.1,56.7,52.8z M52.7,55.5c-1.8,0.7-3.4,0.8-3.6,0.2
				s1-1.6,2.8-2.4c1.8-0.7,3.4-0.8,3.6-0.2S54.5,54.7,52.7,55.5z"/>
			<path class="st6" d="M63.3,61.8c-1.7,1.4-4.1,2.7-7.1,3.9c-3.1,1.2-5.7,1.9-7.8,2.1c-1.9,0.1-3.1-0.1-3.7-0.8
				c-0.5-0.7-0.3-1.6,0.8-2.7c1.1-1.2,3-2.4,5.7-3.7l0.3-0.1c0.5-0.3,0.9-0.5,1.1-0.7c0.2-0.2,0.3-0.4,0.1-0.5
				c-0.5,0-0.7-0.1-0.4-0.2c0.2-0.1,0.8-0.3,1.5-0.5c0.7-0.1,1.1-0.1,1.2,0c0.1,0.1,0,0.2-0.2,0.4l-0.1,0.2c2.1-0.7,3.9-1.3,5.5-1.5
				c0.3-0.1,0.7-0.1,1-0.1c0.5-0.1,1-0.1,1.4-0.1c1.8,0,2.8,0.4,2.9,1.3C65.5,59.5,64.8,60.6,63.3,61.8z M53.8,60
				c-4.2,1.7-7.1,4.2-6.6,5.6c0.6,1.4,4.4,1.1,8.6-0.6s7.1-4.2,6.6-5.6C61.8,58,58,58.3,53.8,60z"/>
			<path class="st6" d="M58.8,49.4c-0.1-0.9-0.4-2-0.9-3.3c-0.5-1.3-1.1-2.3-1.6-3c-0.5-0.6-1-0.9-1.3-0.9c-0.4,0.1-0.5,0.5-0.5,1.2
				c0,0.2,0,0.4,0,0.6c0,0.1,0,0.3,0.1,0.4c0.1,0.6,0.3,1.4,0.6,2.3l-0.1-0.1c-0.1-0.1-0.1-0.1-0.2-0.1c0,0,0,0.2,0,0.5
				c0.1,0.3,0.1,0.5,0.2,0.6s0.1,0,0.1-0.2c0-0.1,0.1-0.1,0.2,0c0.1,0.1,0.2,0.2,0.3,0.5l0,0.1c0.5,1.1,1,1.9,1.5,2.4
				c0.5,0.4,0.8,0.5,1.1,0.3C58.8,50.7,58.9,50.2,58.8,49.4z M57.9,49.8c-0.6,0.2-1.6-1-2.4-2.8c-0.7-1.8-0.8-3.4-0.2-3.6
				c0.6-0.2,1.6,1,2.4,2.8C58.4,48,58.5,49.6,57.9,49.8z"/>
		</g>
		<g>
			<path class="st6" d="M68.8,16.8c0.6,0.1,4.2,11.2,8.1,24.7c3.9,13.5,6.6,24.3,6.1,24.2c-0.6-0.1-4.2-11.2-8.1-24.7
				C70.9,27.5,68.2,16.7,68.8,16.8z"/>
			<path class="st6" d="M58.7,68c-4.4,2.6-8.5,4.4-9.2,4.2c-0.7-0.2,2.4-2.5,6.8-5.1c4.4-2.6,8.5-4.4,9.2-4.2
				C66.2,63.2,63.1,65.5,58.7,68z"/>
			<path class="st6" d="M34,63.7c-0.2,0.7-2.5-2.4-5.1-6.8c-2.6-4.4-4.4-8.5-4.2-9.2c0.2-0.7,2.5,2.4,5.1,6.8S34.3,63,34,63.7z"/>
			<path class="st6" d="M42,28.9c4.4-2.6,8.5-4.4,9.2-4.2c0.7,0.2-2.4,2.5-6.8,5.1c-4.4,2.6-8.5,4.4-9.2,4.2
				C34.5,33.8,37.5,31.5,42,28.9z"/>
			<path class="st6" d="M70.8,42.5c-2.6-4.4-4.4-8.5-4.2-9.2c0.2-0.7,2.5,2.4,5.1,6.8c2.6,4.4,4.4,8.5,4.2,9.2
				C75.6,49.9,73.4,46.9,70.8,42.5z"/>
			<path class="st6" d="M67.6,17.7c-0.1,0.6-11.2,4.2-24.7,8.1c-13.5,3.9-24.3,6.6-24.2,6.1c0.1-0.6,11.2-4.2,24.7-8.1
				C56.9,19.9,67.7,17.1,67.6,17.7z"/>
			<path class="st6" d="M31.9,80.1c-0.6-0.1-4.2-11.2-8.1-24.7c-3.9-13.5-6.6-24.3-6.1-24.2c0.6,0.1,4.2,11.2,8.1,24.7
				C29.7,69.5,32.4,80.3,31.9,80.1z"/>
			<path class="st6" d="M33.1,79.3c0.1-0.6,11.2-4.2,24.7-8.1s24.3-6.6,24.2-6.1c-0.1,0.6-11.2,4.2-24.7,8.1
				C43.8,77.1,32.9,79.8,33.1,79.3z"/>
			<g>
				<path class="st6" d="M41.4,17.8L41.4,17.8c-0.1,0-0.3,0.1-0.4,0.2C41.1,17.9,41.3,17.9,41.4,17.8z"/>
				<path class="st6" d="M38.8,19.4C38.8,19.4,38.8,19.4,38.8,19.4L38.8,19.4C38.8,19.4,38.8,19.4,38.8,19.4z"/>
				<path class="st6" d="M64.5,2.1c-1.4-1.7-4.4-2.4-9.2-2C50,0.6,43.5,2.3,35.9,5.4c-7.7,3.1-13.6,6.3-17.8,9.7
					c-3.9,3.1-5.6,5.8-5.3,7.9c0.5,2.1,2.9,3.2,7.3,3.2c1.1,0,2.3-0.1,3.5-0.2c0.8-0.1,1.7-0.2,2.5-0.4c3.9-0.7,8.5-2,13.6-3.8
					l-0.4,0.5c-0.5,0.5-0.6,0.8-0.5,1c0.2,0.3,1.2,0.3,3.1,0c2-0.4,3.3-0.8,3.9-1.2c0.6-0.4,0.2-0.6-1.1-0.6
					c-0.5-0.3-0.4-0.7,0.2-1.3c0.6-0.5,1.5-1.1,2.8-1.8l0.7-0.3c6.6-3.1,11.3-6.1,14.1-9.2C65.3,6,65.9,3.8,64.5,2.1z M41.8,19.7
					c-10.5,4.3-20.2,4.9-21.6,1.4c-1.4-3.5,6-9.8,16.5-14.1s20.2-4.9,21.6-1.4C59.7,9.1,52.3,15.4,41.8,19.7z"/>
			</g>
			<path class="st6" d="M23,86.1c-2.1,0.4-4.7-1.4-7.9-5.3C11.7,76.6,8.5,70.6,5.4,63c-3.1-7.7-4.8-14.2-5.3-19.5
				c-0.4-4.8,0.3-7.8,2-9.2c1.7-1.3,3.9-0.7,6.8,1.9c3,2.8,6.1,7.6,9.2,14.1l0.3,0.7c0.7,1.3,1.3,2.2,1.8,2.8c0.6,0.6,1,0.7,1.3,0.2
				c0-1.3,0.2-1.7,0.6-1.1c0.4,0.6,0.8,1.9,1.2,3.9c0.3,1.8,0.3,2.9,0,3.1c-0.1,0.1-0.5,0-1-0.5l-0.5-0.4c1.9,5.2,3.2,9.7,3.8,13.6
				c0.1,0.9,0.3,1.7,0.4,2.5c0.1,1.2,0.2,2.4,0.2,3.5C26.2,83.1,25.2,85.6,23,86.1z M5.6,40.6C2.1,42,2.7,51.7,7,62.2
				c4.3,10.5,10.6,17.9,14.1,16.5s2.9-11.1-1.4-21.6C15.4,46.5,9.1,39.1,5.6,40.6z"/>
			<path class="st6" d="M98.6,62.7c-1.7,1.3-3.9,0.7-6.8-1.9c-3-2.8-6.1-7.6-9.2-14.1l-0.3-0.7c-0.7-1.3-1.3-2.2-1.8-2.8
				c-0.6-0.6-1-0.7-1.3-0.2c0,1.3-0.2,1.7-0.6,1.1c-0.4-0.6-0.8-1.9-1.2-3.9c-0.3-1.8-0.3-2.9,0-3.1c0.1-0.1,0.5,0,1,0.5l0.5,0.4
				c-1.9-5.2-3.2-9.7-3.8-13.6c-0.1-0.9-0.3-1.7-0.4-2.5c-0.1-1.2-0.2-2.4-0.2-3.5c0-4.4,1-6.9,3.2-7.3c2.1-0.4,4.7,1.4,7.9,5.3
				c3.4,4.2,6.7,10.2,9.7,17.8s4.8,14.2,5.3,19.5C101,58.3,100.3,61.3,98.6,62.7z M79.6,18.3c-3.5,1.4-2.9,11.1,1.4,21.6
				c4.3,10.5,10.6,17.9,14.1,16.5c3.5-1.4,2.9-11.1-1.4-21.6C89.4,24.3,83.1,16.9,79.6,18.3z"/>
			<path class="st6" d="M82.7,81.8c-4.2,3.4-10.2,6.7-17.8,9.7s-14.2,4.8-19.5,5.3c-4.8,0.4-7.8-0.3-9.2-2c-1.3-1.7-0.7-3.9,1.9-6.8
				c2.8-3,7.6-6.1,14.1-9.2l0.7-0.3c1.3-0.7,2.2-1.3,2.8-1.8c0.6-0.6,0.7-1,0.2-1.3c-1.3,0-1.7-0.2-1.1-0.6c0.6-0.4,1.9-0.8,3.9-1.2
				c1.8-0.3,2.9-0.3,3.1,0c0.1,0.1,0,0.5-0.5,1l-0.4,0.5c5.2-1.9,9.7-3.2,13.6-3.8c0.9-0.1,1.7-0.3,2.5-0.4c1.2-0.1,2.4-0.2,3.5-0.2
				c4.4,0,6.9,1,7.3,3.2C88.3,76.1,86.5,78.7,82.7,81.8z M58.9,77.3C48.4,81.6,41,87.9,42.4,91.4c1.4,3.5,11.1,2.9,21.6-1.4
				C74.6,85.7,82,79.4,80.5,75.9C79.1,72.4,69.4,73,58.9,77.3z"/>
		</g>
	</g>
</g>
</svg>
