<?xml version="1.0" encoding="utf-8"?>
<!-- Generator: Adobe Illustrator 19.2.0, SVG Export Plug-In . SVG Version: 6.00 Build 0)  -->
<svg version="1.1" id="Layer_1" xmlns="http://www.w3.org/2000/svg" xmlns:xlink="http://www.w3.org/1999/xlink" x="0px" y="0px"
	 viewBox="0 0 640 480" style="enable-background:new 0 0 640 480;" xml:space="preserve">
<style type="text/css">
	.st0{fill:url(#SVGID_1_);stroke:#000000;stroke-miterlimit:10;}
	.st1{fill:none;stroke:#000000;stroke-miterlimit:10;}
	.st2{fill:url(#SVGID_2_);}
	.st3{fill:url(#SVGID_3_);stroke:#000000;stroke-miterlimit:10;}
	.st4{fill:url(#SVGID_4_);stroke:#000000;stroke-miterlimit:10;}
	.st5{fill:#C1272D;stroke:#000000;stroke-miterlimit:10;}
	.st6{fill:url(#SVGID_5_);stroke:#000000;stroke-miterlimit:10;}
	.st7{fill:url(#SVGID_6_);stroke:#000000;stroke-miterlimit:10;}
	.st8{fill:url(#SVGID_7_);stroke:#000000;stroke-miterlimit:10;}
	.st9{fill:#FFFFFF;stroke:#000000;stroke-miterlimit:10;}
	.st10{fill:url(#SVGID_8_);stroke:#000000;stroke-miterlimit:10;}
	.st11{stroke:#F7931E;stroke-miterlimit:10;}
	.st12{fill:#0071BC;stroke:#000000;stroke-miterlimit:10;}
	.st13{fill:url(#SVGID_9_);stroke:#000000;stroke-miterlimit:10;}
	.st14{fill:url(#SVGID_10_);stroke:#000000;stroke-miterlimit:10;}
	.st15{fill:url(#SVGID_11_);stroke:#000000;stroke-miterlimit:10;}
	.st16{fill:url(#SVGID_12_);}
	.st17{fill:url(#SVGID_13_);}
	.st18{fill:url(#SVGID_14_);}
	.st19{fill:#808080;}
	.st20{fill:#FF7BAC;}
	.st21{fill:#0000FF;}
	.st22{fill:#FFFFFF;}
	.st23{fill:url(#SVGID_15_);}
	.st24{fill:#999999;}
	.st25{fill:url(#SVGID_16_);}
	.st26{fill:url(#SVGID_17_);}
	.st27{fill:url(#SVGID_18_);}
	.st28{fill:url(#SVGID_19_);}
	.st29{fill:url(#SVGID_20_);}
	.st30{fill:none;stroke:#000000;stroke-width:0.25;stroke-miterlimit:10;}
	.st31{fill:none;stroke:#333333;stroke-width:0.75;stroke-linecap:round;stroke-miterlimit:10;}
	.st32{fill:url(#SVGID_21_);stroke:#000000;stroke-miterlimit:10;}
	.st33{fill:url(#SVGID_22_);stroke:#000000;stroke-linecap:round;stroke-linejoin:round;}
	.st34{fill:url(#SVGID_23_);}
	.st35{fill:url(#SVGID_24_);}
</style>
<linearGradient id="SVGID_1_" gradientUnits="userSpaceOnUse" x1="0" y1="240" x2="1004.0573" y2="240" gradientTransform="matrix(1 0 0 -1 0 480)">
	<stop  offset="0" style="stop-color:#FFFFFF"/>
	<stop  offset="5.288738e-002" style="stop-color:#F6FBFD"/>
	<stop  offset="0.1409" style="stop-color:#DCF0F9"/>
	<stop  offset="0.2532" style="stop-color:#B3DDF1"/>
	<stop  offset="0.3853" style="stop-color:#79C4E7"/>
	<stop  offset="0.5326" style="stop-color:#30A4DA"/>
	<stop  offset="0.5674" style="stop-color:#1E9CD7"/>
	<stop  offset="0.8652" style="stop-color:#0075BE"/>
	<stop  offset="0.9944" style="stop-color:#005B97"/>
</linearGradient>
<rect y="-40" class="st0" width="640" height="560"/>
<path class="st1" d="M291.8,299.9"/>
<linearGradient id="SVGID_2_" gradientUnits="userSpaceOnUse" x1="546.9808" y1="319.2301" x2="135.7042" y2="415.1831" gradientTransform="matrix(0.9924 -0.1231 -0.1231 -0.9924 10.7218 576.2941)">
	<stop  offset="4.926108e-003" style="stop-color:#666666"/>
	<stop  offset="0.6302" style="stop-color:#9A9A9A"/>
	<stop  offset="0.9951" style="stop-color:#B3B3B3"/>
</linearGradient>
<path class="st2" d="M357.7,140.2c-0.3-0.5-0.5-1-0.6-1.5c-1.5-3-1.6-7.2-0.3-11l-2.8-0.9c0.2-0.6,0.5-1.2,0.7-1.7
	c3.1-6,7.4-7,12.5-4.2c0.3,0.2,0.7,0.4,1.1,0.7c2.9,1.9,6.7,10.8,5.7,16.7c-0.1,0.3-0.1,0.4-0.3,0.3l-3-2.7
	c-0.1-0.1-0.2-0.2-0.3-0.3c-0.2,0.5-0.4,1-0.6,1.5c-2.2,4.8-6.3,6.7-9.6,4.8H360c-0.9-0.3-1.6-0.9-2.2-1.7
	C357.7,140.2,357.7,140.2,357.7,140.2z M318.3,140.4c-0.1-0.6-0.1-1.2-0.1-1.8l-2.2,1c0.1-0.7,0.1-1.4,0.3-2.1
	c1.3-8.4,5.4-12.5,11.2-13.2c3.1-0.3,8.6,5,9.1,11.2c0,0.3-0.1,0.5-0.2,0.5l-3.1-0.3c0,0.1,0,0.1,0,0.1c0.6,6-2.3,11.8-6.4,13.1
	c-0.7,0.2-1.4,0.3-2,0.2h-0.1c-1.1,0.1-2.2-0.2-3.2-1l-0.1-0.1c0,0,0,0-0.1,0c-0.1-0.1-0.1-0.1-0.2-0.2c-0.1-0.1-0.1-0.1-0.2-0.2
	c-0.5-0.5-0.8-1.2-1-1.8c0,0,0,0,0-0.1C319.1,144.5,318.5,142.6,318.3,140.4z M269.2,193.3l19.6,19.9l9.5,7l8.5,4.4l5,1.8
	c-4.8-2.2-9.4-4.8-13.8-7.6c-6.5-4.2-11.6-7.8-14.9-13.9c-0.3-2.1-0.5-4.2-0.7-6.4c-0.3-2.5-0.5-5,0.6-7c0.4-0.7,1-1.4,1.6-2
	c3.1-3.2,6.5-6.1,10.4-8.6l0.6,0.3c24.4,23.1,54.2,42.3,86.5,55.7l0.1,0.7c-12.5,2-25.8,1.6-38.9-0.9l-0.1,0.4
	c14.7,27.4,29.9,61.8,47.9,86.7c13.3,18.4,32.5,34.2,56.5,35.5c19.9,2.1,47.6-25.7,50.6-34.8c11.7-35.7-3.4-68.7-18.9-99.8
	c-3.3-7-6.4-15.4-3.1-21.8c3.1-3.7,8.8-7.1,10.7-12.3c0.1-1.3,0.3-2.7-0.1-3.6c-0.9,1.4-2.3-2.5-3.8-3.1c-1.5-0.6-8-6.7-9.6-6.3
	c-1.6,0.4-4.2,1.3-5.5,0.3c-0.8-0.6-2.8,8.6-3,7.6c-0.5-2.2-6-3.3-8.9,4.9c-4,11.5-1.2,19.8-0.5,30.1c1.2,17.5,7.6,36.6,11.2,46.3
	c0.7,2,4.5,8.5,5.4,13.9c2.5,15.2,0.5,20.4-5.4,30.1c-7.4,12.1-22.1,7.6-31.5-0.7c-13.8-12.2-16.1-19.8-25.3-34.2
	c-4.6-7.2-7.5-22.3-10.8-29.3c-4.6-10.7-4.2-21.8-3.9-33.1c0.1-2,0.1-4.1,0.1-6.2c-0.3-9.4-2-19-5.1-27.4c-0.3-0.6-0.5-1.2-0.8-1.8
	l0.7-0.3l2.7,1.6l10.3,8l0.5-0.9c3.2-6.8,6.5-14.3,4-20.8c-0.8-2.2-2.3-4.1-3-6.3c-2.5-7.4,3.4-15.7,2.7-23.4
	c-0.3-2.9-1.5-5.6-1.7-8.5c-0.3-3.9,1.4-8,1.3-12c-0.1-5.5-3.2-10.2-7.1-14.4l0.3-0.3c-0.6-0.6-1.1-1.4-1.3-2.3
	c-0.1,0.1-0.3,0.1-0.1-0.1c0,0.1,0,0.1,0.1,0.1c0.1-0.1,0.2-0.1,0.3-0.2c-1.2-15.3-3.5-30.6-7.1-45.5c-0.1-0.6-0.3-1.3-0.4-2
	c-0.5-2.7-0.8-5.4,0.5-7.8c1-1.9,2.9-3.1,4-4.9c1.3-1.8,1.8-4.2,3.3-5.9c3.1-3.5,8.6-2.7,12.7-4.8c4.2-2,6.4-6.7,9.9-9.8
	c5.4-4.6,13.8-4.9,19.4-0.6l0.9-0.2c-0.1-0.5-0.3-1-0.4-1.6c-0.1-0.5-0.3-0.9-0.5-1.3c-1.2-1.5-3.5-4.4-7.6-4.8
	c-10.8,0.2-19.9-2.1-30.6-1.9c-5.4,0.7-11.2,4.2-16.9,7.6c-6.3,4-12.2,13.3-7.9,19.2l-0.1,0.1c-13.1-5.8-27-10.6-41.9-12.7
	c-15-2-32.7-0.3-47.7,4.6v0.1c-4.4-1-10.1,0.5-14.9,2.2c-9.4,3.3-18.7,6.9-27.7,10.9c-8,3.5-16,7.4-21.2,13.5
	c-3.7,4.4-5.7,9.5-10,13.5c-0.9-0.7-2-1.4-3-2c-6.3-3.6-13-7.4-21-7.8c-9.3-0.5-18.9,3.7-25.9,9.5c-0.3,0.3-0.7,0.5-1,0.8
	c-3.3,2.8-6.1,5.9-8.6,9.2l0.5,0.4c5,0.7,9.3-3.9,14.2-5.2c3.7-1,7.6-0.1,11.3,0c5.2,0.2,10.6-1,15.8-0.7s11,2.6,13,7.4
	c1.2,2.9-1.5,5.7-3.1,8.4c-3.2,5.2-2.1,12-4.2,17.8c-0.8,2.3-2.1,4.4-2.9,6.7c-1.1,3.3-1,6.9-1,10.3c0.1,6.7,0.4,13.8,3.8,19.5
	c2.5,4.2,6.5,7.4,9.3,11.4c4.8,6.7,6.2,15.5,5.2,23.6c-1,8.2-4.1,16-7.6,23.4c-3.5,0.5-7.1-0.1-10.1-1.8c-1.8-1-3.4-2.4-5.3-3.1
	c-4.4-1.6-9.5,0.5-13.8-1.2c-3.2-1.2-5.4-4.4-8.6-5.8c-2.8-1.3-6.1-1.2-9.1-1.6c-6-0.7-11.6-3.2-17.1-5.7
	c-5.1-2.3-10.2-4.6-15.3-6.9c-5.9-2.7-25.3-10.3-28.9-10.8c-0.2,0-0.4,0.1-0.6,0.1c-2.4,0.3-4.8,0.7-7,1.5c-0.4,0.1-0.9,0.3-1.2,0.7
	c-1,1,0.3,2.2,1.6,2.8c12.4,5.5,28.1,6.2,38.9,13.6c2.9,2,5.4,4.5,8.6,6.2c5.2,2.9,12,3.4,18.2,4.8c7.1,1.6,13.7,4.4,19.3,8.1
	c1,0.7,2,1.4,3.3,1.6c1.1,0.3,2.3,0.1,3.5,0.1c4.5-0.2,8.9,0.5,12.7,2.2c4,1.7,8.2,4.4,12.7,3.1c2.2-0.7,4-2.2,5.7-3.6
	c3.5-3.1,7.2-6.5,7.8-10.5c1-6.1-3.8-14,0.8-19.1l0.3-0.1c1,1.8,2.1,3.4,3.2,5.1c7.1,11,14.4,22.2,24.9,31.3
	c7.5,6.5,11.5,9.7,21.6,13.5l0,0c12.2,10.7,27.4,19.3,42.4,24.2c0.6,0.2,1.4,0.3,1.7-0.2c0.2-0.3-0.1-0.8,0.1-1.2
	c1.6-4-1.3-12.9-3.3-16.7l0.3-0.7c-0.7-0.3-1.5-0.6-2.2-1l0.8,12c-5.6-1.5-12.9-6.5-18-9.3C271.5,216.6,269.2,193.3,269.2,193.3z"/>
<g>
	
		<radialGradient id="SVGID_3_" cx="107.8992" cy="21.9281" r="23.9761" gradientTransform="matrix(0.1664 0.9861 1.0726 -0.1809 249.011 354.9767)" gradientUnits="userSpaceOnUse">
		<stop  offset="0" style="stop-color:#FFFFFF"/>
		<stop  offset="8.510865e-002" style="stop-color:#FFEDD8"/>
		<stop  offset="0.2082" style="stop-color:#FFD5A7"/>
		<stop  offset="0.3345" style="stop-color:#FFC17D"/>
		<stop  offset="0.462" style="stop-color:#FFB05B"/>
		<stop  offset="0.591" style="stop-color:#FFA340"/>
		<stop  offset="0.7222" style="stop-color:#FF9A2D"/>
		<stop  offset="0.8568" style="stop-color:#FF9522"/>
		<stop  offset="1" style="stop-color:#FF931E"/>
	</radialGradient>
	<path class="st3" d="M311.2,456.3l2.2,12.9c0.3,1.6-0.8,3.1-2.4,3.3l-37.9,6.4c-1.6,0.3-3.1-0.8-3.3-2.4l-2.2-12.9
		c-0.3-1.6,0.8-3.1,2.4-3.3l23.4-3.9l3.1-24l13.5,1.7l-2.5,19.9l0.5-0.1C309.3,453.7,310.9,454.8,311.2,456.3z"/>
	
		<radialGradient id="SVGID_4_" cx="682.8015" cy="-72.0145" r="23.9761" gradientTransform="matrix(0.3123 0.95 -1.0333 0.3398 75.8355 -185.0143)" gradientUnits="userSpaceOnUse">
		<stop  offset="0" style="stop-color:#FFFFFF"/>
		<stop  offset="8.510865e-002" style="stop-color:#FFEDD8"/>
		<stop  offset="0.2082" style="stop-color:#FFD5A7"/>
		<stop  offset="0.3345" style="stop-color:#FFC17D"/>
		<stop  offset="0.462" style="stop-color:#FFB05B"/>
		<stop  offset="0.591" style="stop-color:#FFA340"/>
		<stop  offset="0.7222" style="stop-color:#FF9A2D"/>
		<stop  offset="0.8568" style="stop-color:#FF9522"/>
		<stop  offset="1" style="stop-color:#FF931E"/>
	</radialGradient>
	<path class="st4" d="M344.7,447.8l4.1,12.4c0.5,1.5,2.2,2.4,3.7,1.8l36.6-12c1.5-0.5,2.3-2.2,1.8-3.7l-4.1-12.4
		c-0.5-1.5-2.2-2.4-3.7-1.8l-22.5,7.4l-13.9-19.9l-11.2,7.8l11.6,16.5l-0.5,0.2C345.1,444.7,344.2,446.3,344.7,447.8z"/>
	<polygon class="st5" points="354.5,417.3 335.9,432.2 311.1,401.5 312.6,444.7 288.8,445.5 286.8,390 301.4,389.4 301,388.9 
		319.7,374 	"/>
	
		<radialGradient id="SVGID_5_" cx="424.7546" cy="482.0737" r="15.8846" gradientTransform="matrix(0.8213 -0.5705 -0.3782 -0.5445 121.4645 753.6047)" gradientUnits="userSpaceOnUse">
		<stop  offset="0" style="stop-color:#FFFFFF"/>
		<stop  offset="8.510865e-002" style="stop-color:#FFEDD8"/>
		<stop  offset="0.2082" style="stop-color:#FFD5A7"/>
		<stop  offset="0.3345" style="stop-color:#FFC17D"/>
		<stop  offset="0.462" style="stop-color:#FFB05B"/>
		<stop  offset="0.591" style="stop-color:#FFA340"/>
		<stop  offset="0.7222" style="stop-color:#FF9A2D"/>
		<stop  offset="0.8568" style="stop-color:#FF9522"/>
		<stop  offset="1" style="stop-color:#FF931E"/>
	</radialGradient>
	<path class="st6" d="M302.5,255.1l-13.7,9.5c-0.5,0.3-1.2,0.2-1.5-0.3L273.2,244c-0.3-0.5-0.2-1.2,0.3-1.5l13.7-9.5
		c0.5-0.3,1.2-0.2,1.5,0.3l14.2,20.4C303.1,254.1,303,254.7,302.5,255.1z"/>
	
		<radialGradient id="SVGID_6_" cx="454.9597" cy="339.0122" r="10.1766" gradientTransform="matrix(1.1596 -0.8935 -0.6772 -0.8789 -22.6788 944.8124)" gradientUnits="userSpaceOnUse">
		<stop  offset="0" style="stop-color:#FFFFFF"/>
		<stop  offset="8.510865e-002" style="stop-color:#FFEDD8"/>
		<stop  offset="0.2082" style="stop-color:#FFD5A7"/>
		<stop  offset="0.3345" style="stop-color:#FFC17D"/>
		<stop  offset="0.462" style="stop-color:#FFB05B"/>
		<stop  offset="0.591" style="stop-color:#FFA340"/>
		<stop  offset="0.7222" style="stop-color:#FF9A2D"/>
		<stop  offset="0.8568" style="stop-color:#FF9522"/>
		<stop  offset="1" style="stop-color:#FF931E"/>
	</radialGradient>
	<path class="st7" d="M281.6,235.5c5,6.5,6.2,13.9,2.7,16.6c-3.5,2.7-10.3-0.3-15.4-6.8c-5-6.5-6.2-13.9-2.7-16.6
		C269.8,226,276.7,229,281.6,235.5z"/>
	
		<radialGradient id="SVGID_7_" cx="267.6435" cy="268.3072" r="44.8672" gradientTransform="matrix(0.9924 -0.1231 -0.1231 -0.9924 10.7218 576.2941)" gradientUnits="userSpaceOnUse">
		<stop  offset="0" style="stop-color:#FFFFFF"/>
		<stop  offset="8.510865e-002" style="stop-color:#FFEDD8"/>
		<stop  offset="0.2082" style="stop-color:#FFD5A7"/>
		<stop  offset="0.3345" style="stop-color:#FFC17D"/>
		<stop  offset="0.462" style="stop-color:#FFB05B"/>
		<stop  offset="0.591" style="stop-color:#FFA340"/>
		<stop  offset="0.7222" style="stop-color:#FF9A2D"/>
		<stop  offset="0.8568" style="stop-color:#FF9522"/>
		<stop  offset="1" style="stop-color:#FF931E"/>
	</radialGradient>
	<circle class="st8" cx="243.3" cy="277.1" r="44.9"/>
	
		<ellipse transform="matrix(0.9462 -0.3237 0.3237 0.9462 -68.8077 95.6389)" class="st9" cx="253.1" cy="254.7" rx="15.8" ry="15.8"/>
	<ellipse transform="matrix(0.9924 -0.1231 0.1231 0.9924 -29.2624 33.5718)" cx="257.1" cy="253.6" rx="11.1" ry="9.7"/>
	
		<radialGradient id="SVGID_8_" cx="388.2105" cy="324.5432" r="10.1734" gradientTransform="matrix(1.0052 -0.9863 -0.7895 -0.8046 69.2368 948.908)" gradientUnits="userSpaceOnUse">
		<stop  offset="0" style="stop-color:#FFFFFF"/>
		<stop  offset="8.510865e-002" style="stop-color:#FFEDD8"/>
		<stop  offset="0.2082" style="stop-color:#FFD5A7"/>
		<stop  offset="0.3345" style="stop-color:#FFC17D"/>
		<stop  offset="0.462" style="stop-color:#FFB05B"/>
		<stop  offset="0.591" style="stop-color:#FFA340"/>
		<stop  offset="0.7222" style="stop-color:#FF9A2D"/>
		<stop  offset="0.8568" style="stop-color:#FF9522"/>
		<stop  offset="1" style="stop-color:#FF931E"/>
	</radialGradient>
	<path class="st10" d="M208.7,299.5c5.8,5.9,8,13.1,5,16.1c-3.1,3-10.2,0.6-16-5.3c-5.8-5.9-8-13.1-5-16.1
		C195.7,291.2,202.9,293.6,208.7,299.5z"/>
	
		<ellipse transform="matrix(0.9462 -0.3237 0.3237 0.9462 -76.1822 89.7103)" class="st9" cx="231.6" cy="273.9" rx="15.8" ry="15.8"/>
	<ellipse transform="matrix(0.9924 -0.1231 0.1231 0.9924 -31.7895 31.0696)" cx="235.5" cy="272.8" rx="11.1" ry="9.7"/>
	<path class="st1" d="M207.9,260.3c0.8-2.8,1.8-5.5,3.1-8.2c0.6-1.3,1.2-2.7,2.3-3.6c2.2-2,6.3-1.4,7.8,1.2"/>
	<path class="st1" d="M232.1,241.4c-0.3-2.7-0.2-5.3,0.3-7.9c0.1-0.7,0.3-1.4,0.7-2c0.5-0.7,1.4-1,2.3-1.1c3.2-0.5,6.6,0.5,8.9,2.8"
		/>
	<ellipse transform="matrix(0.9924 -0.1231 0.1231 0.9924 -31.5345 31.6512)" class="st9" cx="240.4" cy="271" rx="3.9" ry="4.2"/>
	<ellipse transform="matrix(0.9924 -0.1231 0.1231 0.9924 -29.009 34.1451)" class="st9" cx="261.8" cy="251.8" rx="3.9" ry="4.2"/>
	
		<ellipse transform="matrix(0.939 -0.3439 0.3439 0.939 -83.8669 107.4332)" class="st11" cx="260.9" cy="290.1" rx="8.9" ry="13.1"/>
	<polygon class="st12" points="299.1,323.8 326.6,380.3 279.5,403.3 252.1,347.1 235,366.2 223.2,355.7 244.3,332.2 291.2,309 
		307.9,290.2 319.8,300.8 	"/>
	
		<linearGradient id="SVGID_9_" gradientUnits="userSpaceOnUse" x1="323.9047" y1="252.2514" x2="338.4753" y2="266.822" gradientTransform="matrix(0.9924 -0.1231 -0.1231 -0.9924 10.7218 576.2941)">
		<stop  offset="0" style="stop-color:#FFFFFF"/>
		<stop  offset="8.510865e-002" style="stop-color:#FFEDD8"/>
		<stop  offset="0.2082" style="stop-color:#FFD5A7"/>
		<stop  offset="0.3345" style="stop-color:#FFC17D"/>
		<stop  offset="0.462" style="stop-color:#FFB05B"/>
		<stop  offset="0.591" style="stop-color:#FFA340"/>
		<stop  offset="0.7222" style="stop-color:#FF9A2D"/>
		<stop  offset="0.8568" style="stop-color:#FF9522"/>
		<stop  offset="1" style="stop-color:#FF931E"/>
	</linearGradient>
	<polygon class="st13" points="309.6,291.7 313.4,286.3 292.5,262 298.9,258.2 325.7,282.1 318.1,299.3 	"/>
	<g>
		<path d="M217,238c-0.2-0.5-0.4-1-0.6-1.5c-0.2-0.5-0.5-1-0.8-1.4c-0.6-0.9-1.4-1.7-2.2-2.3c-0.2-0.1-0.5-0.3-0.7-0.4
			c-0.2-0.1-0.5-0.3-0.7-0.3c-0.5-0.2-1-0.4-1.6-0.5c-0.5-0.1-1.1-0.1-1.6-0.1c-0.3,0-0.5,0.1-0.8,0.1c-0.3,0.1-0.5,0.1-0.8,0.2l0,0
			h0.5h-0.5H207h0.1c0.3-0.1,0.5-0.2,0.8-0.3s0.5-0.1,0.8-0.1c0.5-0.1,1.1-0.1,1.6,0s1.1,0.2,1.6,0.4c0.3,0.1,0.5,0.2,0.7,0.3
			c0.3,0.1,0.5,0.3,0.7,0.4c1,0.6,1.8,1.4,2.5,2.3c0.3,0.5,0.6,1,0.9,1.4c0.3,0.5,0.5,1,0.7,1.5L217,238z"/>
	</g>
	<g>
		<path d="M208.7,222.5L208.7,222.5L208.7,222.5c-0.1,0.1-0.1,0.1-0.1,0.2c0.1,0.1,0.1,0.2,0.2,0.3c0.1,0.1,0.3,0.2,0.4,0.3l0.5,0.3
			c0.3,0.2,0.6,0.4,1,0.7c0.3,0.3,0.6,0.5,0.9,0.7c1.2,1,2.2,2.1,3.3,3.3c1,1.2,1.9,2.4,2.9,3.6l1.4,1.8c0.4,0.6,0.9,1.3,1.2,2
			l-0.3,0.1c-0.2-0.6-0.4-1.2-0.5-1.8c-0.1-0.6-0.2-1.3-0.3-1.9c-0.1-0.6-0.1-1.3-0.1-1.9c0-0.6,0-1.3,0.1-1.9
			c0.1-0.6,0.1-1.3,0.2-1.9c0.1-0.6,0.2-1.2,0.4-1.9c0.1-0.6,0.3-1.2,0.5-1.8c0.1-0.3,0.3-0.6,0.3-0.9l0.4-0.9l-0.4,0.9
			c-0.1,0.3-0.3,0.6-0.3,0.9c-0.2,0.6-0.4,1.2-0.5,1.8c-0.1,0.6-0.3,1.2-0.3,1.8c-0.1,0.6-0.1,1.3-0.2,1.9c0,0.6,0,1.3,0,1.9
			s0.1,1.3,0.1,1.9c0.1,0.6,0.2,1.2,0.3,1.8s0.3,1.2,0.5,1.8l-0.3,0.1c-0.3-0.7-0.7-1.3-1.2-1.9l-1.4-1.8c-1-1.2-1.9-2.4-2.9-3.5
			c-1-1.1-2.1-2.2-3.3-3.1c-0.3-0.3-0.6-0.5-0.9-0.7c-0.3-0.2-0.6-0.4-1-0.6l-0.5-0.3c-0.2-0.1-0.3-0.3-0.5-0.4
			c-0.1-0.1-0.3-0.3-0.4-0.6c-0.1-0.1-0.1-0.3-0.1-0.5c0-0.1,0.1-0.1,0.1-0.3c0.1-0.1,0.1-0.1,0.1-0.1L208.7,222.5z"/>
	</g>
	<g>
		<path d="M221.9,233.5c0,0,0-0.1,0.1-0.3c0-0.1,0.1-0.3,0.1-0.4c0.1-0.2,0.1-0.3,0.2-0.5c0.2-0.3,0.5-0.7,0.8-1.1
			c0.3-0.3,0.7-0.7,1.1-1c0.7-0.7,1.6-1.4,2-2c0.1-0.1,0.2-0.3,0.3-0.4c0.1-0.1,0.1-0.3,0.2-0.3c0.1-0.2,0.1-0.3,0.1-0.3
			s-0.1,0.1-0.1,0.3c0,0.1-0.1,0.2-0.1,0.3c-0.1,0.1-0.1,0.3-0.3,0.5c-0.4,0.7-1.1,1.4-1.8,2.1c-0.3,0.3-0.7,0.7-1,1.1
			c-0.3,0.3-0.5,0.7-0.7,1c-0.1,0.1-0.1,0.3-0.1,0.4c-0.1,0.1-0.1,0.2-0.1,0.3c0,0.2-0.1,0.3-0.1,0.3L221.9,233.5z"/>
	</g>
	
		<radialGradient id="SVGID_10_" cx="411.496" cy="513.9671" r="15.8529" gradientTransform="matrix(-0.3736 0.9276 -0.6149 -0.2476 649.9045 88.1051)" gradientUnits="userSpaceOnUse">
		<stop  offset="0" style="stop-color:#FFFFFF"/>
		<stop  offset="8.510865e-002" style="stop-color:#FFEDD8"/>
		<stop  offset="0.2082" style="stop-color:#FFD5A7"/>
		<stop  offset="0.3345" style="stop-color:#FFC17D"/>
		<stop  offset="0.462" style="stop-color:#FFB05B"/>
		<stop  offset="0.591" style="stop-color:#FFA340"/>
		<stop  offset="0.7222" style="stop-color:#FF9A2D"/>
		<stop  offset="0.8568" style="stop-color:#FF9522"/>
		<stop  offset="1" style="stop-color:#FF931E"/>
	</radialGradient>
	<path class="st14" d="M189.5,355.3l6.2-15.5c0.2-0.5-0.1-1.2-0.6-1.4l-23-9.3c-0.5-0.2-1.2,0.1-1.4,0.6l-6.2,15.5
		c-0.2,0.5,0.1,1.2,0.6,1.4l23.1,9.3C188.7,356.1,189.3,355.8,189.5,355.3z"/>
	
		<linearGradient id="SVGID_11_" gradientUnits="userSpaceOnUse" x1="318.8963" y1="273.0948" x2="333.48" y2="287.6784" gradientTransform="matrix(4.646637e-002 0.9989 -0.9989 4.646637e-002 476.416 18.4551)">
		<stop  offset="0" style="stop-color:#FFFFFF"/>
		<stop  offset="8.510865e-002" style="stop-color:#FFEDD8"/>
		<stop  offset="0.2082" style="stop-color:#FFD5A7"/>
		<stop  offset="0.3345" style="stop-color:#FFC17D"/>
		<stop  offset="0.462" style="stop-color:#FFB05B"/>
		<stop  offset="0.591" style="stop-color:#FFA340"/>
		<stop  offset="0.7222" style="stop-color:#FF9A2D"/>
		<stop  offset="0.8568" style="stop-color:#FF9522"/>
		<stop  offset="1" style="stop-color:#FF931E"/>
	</linearGradient>
	<polygon class="st15" points="225.4,357.1 220.7,361.8 193.3,345.3 190.6,352.2 218.7,374.5 234.4,364.2 	"/>
</g>
<linearGradient id="SVGID_12_" gradientUnits="userSpaceOnUse" x1="263.4767" y1="410.2085" x2="149.7619" y2="436.7388" gradientTransform="matrix(0.9924 -0.1231 -0.1231 -0.9924 10.7218 576.2941)">
	<stop  offset="4.926108e-003" style="stop-color:#FF7BAC"/>
	<stop  offset="0.5018" style="stop-color:#FF99AC"/>
	<stop  offset="0.9951" style="stop-color:#FFB2AC"/>
</linearGradient>
<path class="st16" d="M101.6,162c3.7,0.5,23,8.2,28.9,10.8c5.1,2.3,10.2,4.6,15.3,6.9c5.5,2.5,11.1,5,17.1,5.7
	c3.1,0.3,6.3,0.2,9.1,1.6c3.1,1.5,5.3,4.6,8.6,5.8c4.4,1.7,9.5-0.4,13.8,1.2c1.9,0.7,3.5,2.1,5.3,3.1c3.1,1.7,6.7,2.4,10.1,1.8
	c3.5-7.4,6.7-15.2,7.6-23.4c1-8.2-0.4-17-5.2-23.6c-2.9-4-6.8-7.1-9.3-11.4c-3.4-5.8-3.6-12.8-3.8-19.5c-0.1-3.5-0.1-7.1,1-10.3
	c0.7-2.3,2.1-4.4,2.9-6.7c2-5.8,1-12.6,4.2-17.8c1.6-2.7,4.4-5.4,3.1-8.4c-2-4.8-7.8-7.1-13-7.4s-10.6,1-15.8,0.7
	c-3.8-0.1-7.7-1-11.3,0c-4.9,1.4-9.1,5.9-14.2,5.2l-0.5-0.4c-2.6,3.3-4.8,6.7-7.1,10.1c-1.9,3-4.4,6.4-8.4,6.9
	c-3.8,0.6-8.2-1.7-11.2,0.6c-2.2,5.6,3.7,10.1,6.1,15.2c2.7,5.9,0.9,12.7-1,19.2c-1.5,5.1-3,10.1-4.5,15.2c-1.6,5.5-3.7,11.6-9.3,15
	C114.8,161.6,108.1,161.3,101.6,162z"/>
<linearGradient id="SVGID_13_" gradientUnits="userSpaceOnUse" x1="203.2426" y1="436.2578" x2="145.2379" y2="449.7906" gradientTransform="matrix(0.9924 -0.1231 -0.1231 -0.9924 10.7218 576.2941)">
	<stop  offset="0.3005" style="stop-color:#666666"/>
	<stop  offset="0.7391" style="stop-color:#9A9A9A"/>
	<stop  offset="0.9951" style="stop-color:#B3B3B3"/>
</linearGradient>
<path class="st17" d="M101,162.1c0-0.1,0.2-0.1,0.6-0.1c6.5-0.7,13.2-0.5,18.6-3.7c5.7-3.5,7.8-9.5,9.3-15c1.5-5.1,3-10.1,4.5-15.2
	c1.9-6.5,3.7-13.3,1-19.2c-2.4-5.1-8.2-9.7-6.1-15.2c2.9-2.3,7.3,0,11.2-0.6c3.9-0.6,6.5-4,8.4-6.9c2.2-3.4,4.5-6.9,7.1-10.1
	c2.5-3.3,5.4-6.3,8.6-9.2l0,0c-7.1,5.2-4.6,3.5-12.7,7.6c-4.6,2.3-9.5,4.2-14.2,6.7c-13.3,7.1-23.4,18.5-26.8,30.6
	c-2.5,9-1.6,18-2.6,27s-4.7,18.9-13.9,25C96.2,162.8,98.6,162.4,101,162.1z"/>
<linearGradient id="SVGID_14_" gradientUnits="userSpaceOnUse" x1="415.2094" y1="311.664" x2="313.8553" y2="335.3105" gradientTransform="matrix(0.9924 -0.1231 -0.1231 -0.9924 10.7218 576.2941)">
	<stop  offset="4.926108e-003" style="stop-color:#FFFFA8"/>
	<stop  offset="0.668" style="stop-color:#FFFFE6"/>
	<stop  offset="0.9951" style="stop-color:#FFFFFF"/>
</linearGradient>
<path class="st18" d="M283.1,204.9c3.3,6.1,8.4,9.7,14.9,13.9c4.4,2.9,9,5.4,13.8,7.6l3,1.1v0.3c0.7,0.3,1.4,0.6,2.2,1
	c8.4,3.5,17.3,6.3,26.2,7.9c13.1,2.5,26.5,2.9,38.9,0.9l-0.1-0.7c-32.3-13.4-62-32.6-86.5-55.7l-0.6-0.3c-3.8,2.5-7.3,5.4-10.4,8.6
	c-0.6,0.6-1.2,1.3-1.6,2c-1.2,2-0.9,4.6-0.6,7C282.7,200.7,282.9,202.8,283.1,204.9z"/>
<path class="st19" d="M324.7,127.3c-3.7,1.1-6.4,6-6.5,11.3l0.5-0.3c4.7-2.2,9.5-3.1,14.3-2.6h0.2
	C332.6,129.9,328.7,126.1,324.7,127.3z"/>
<path class="st20" d="M314.8,227.6l-3-1.1c1,0.5,2,1,3,1.4V227.6z"/>
<path class="st20" d="M315.6,239.8l-0.8-12c-1-0.5-2-0.9-3-1.4l-5-1.8l-8.5-4.4l-9.5-7l-19.5-19.9c0,0,2.3,23.3,28.5,37.3
	C302.7,233.3,310,238.3,315.6,239.8z"/>
<path d="M320.6,146.6c0.1,0.3,0.2,0.7,0.4,1c0.1,0.1,0.1,0.1,0.2,0.2c0.1,0.1,0.1,0.1,0.2,0.2c0,0,0,0,0.1,0c0.5,0.3,1,0.5,1.5,0.5
	C322.1,148.3,321.3,147.6,320.6,146.6z"/>
<path class="st21" d="M320.1,146c0.1,0.6,0.5,1.2,1,1.8c-0.2-0.3-0.3-0.7-0.4-1l0,0C320.4,146.4,320.2,146.2,320.1,146z"/>
<path class="st21" d="M321.3,147.9c-0.1-0.1-0.1-0.1-0.2-0.2C321.1,147.8,321.2,147.9,321.3,147.9z"/>
<path d="M321,145c-0.4,0.5-0.5,1.1-0.5,1.6l0,0c0.7,0.9,1.5,1.6,2.5,2c0.6,0,1.2-0.3,1.6-0.7c0.7-1,0.6-2.4-0.4-3.1
	C323.2,143.9,321.8,144.1,321,145z"/>
<path class="st22" d="M323.8,141c-0.5,0.9-0.2,2,0.7,2.8c1,0.8,2.4,0.7,3.2-0.3c0.1-0.1,0.1-0.1,0.1-0.1c-0.3-0.5-0.6-1-1.2-1.4
	C325.7,141.3,324.8,141,323.8,141z"/>
<path class="st21" d="M321.5,148.3c1,0.7,2.1,1.1,3.2,1c-0.6-0.1-1.2-0.2-1.7-0.5C322.5,148.8,321.9,148.6,321.5,148.3
	C321.5,148.2,321.5,148.2,321.5,148.3z"/>
<path class="st22" d="M324,140.6c-0.1,0.1-0.2,0.3-0.3,0.4c1,0,2,0.3,2.8,1c0.5,0.4,0.9,0.9,1.2,1.4c0.6-1,0.4-2.2-0.5-3
	C326.2,139.6,324.8,139.7,324,140.6z"/>
<path class="st21" d="M320.8,142.4c-0.8,1-1,2.2-0.7,3.5c0,0,0,0,0,0.1c0.1,0.3,0.3,0.5,0.5,0.7c-0.1-0.6,0.1-1.2,0.5-1.6
	c0.7-1,2.2-1,3.2-0.3c1,0.8,1.2,2.2,0.4,3.1c-0.4,0.5-1,0.7-1.6,0.7c0.5,0.3,1.1,0.4,1.7,0.5h0.1c1-0.1,1.9-0.6,2.6-1.4
	c1-1.3,1.1-3,0.3-4.4c0,0.1-0.1,0.1-0.1,0.1c-0.7,1-2.2,1-3.2,0.3c-0.8-0.7-1.1-1.8-0.7-2.8C322.7,141,321.5,141.5,320.8,142.4z"/>
<path class="st19" d="M318.2,138.6c0.1-5.3,2.8-10.2,6.5-11.3c4.1-1.2,7.8,2.6,8.5,8.4l3.1,0.3c0.2,0,0.3-0.2,0.2-0.5
	c-0.5-6.3-6.1-11.6-9.1-11.2c-5.8,0.7-9.9,4.8-11.2,13.2c-0.1,0.7-0.2,1.4-0.3,2.1L318.2,138.6z"/>
<path class="st21" d="M357.1,138.7c0.1,0.5,0.3,1,0.6,1.5c-0.2-0.3-0.3-0.7-0.4-1.1C357.2,139,357.1,138.8,357.1,138.7z"/>
<path class="st21" d="M358.8,141c-0.4-0.1-0.8-0.5-1.1-0.9c0,0.1,0.1,0.1,0.1,0.1c0.5,0.8,1.4,1.4,2.2,1.7c-0.3-0.2-0.7-0.5-1-0.7
	C358.9,141.1,358.8,141.1,358.8,141z"/>
<path d="M357.7,140.2c0.3,0.4,0.7,0.7,1.1,0.9c-0.6-0.5-1.1-1.2-1.5-2C357.3,139.4,357.5,139.8,357.7,140.2z"/>
<path d="M361.3,137.7c-0.7-1-2.1-1.4-3.1-0.7c-0.7,0.5-1,1.2-0.9,2c0.4,0.7,0.9,1.4,1.5,2c0.7,0.3,1.4,0.2,2-0.2
	C361.8,140.1,362,138.7,361.3,137.7z"/>
<path class="st22" d="M362,134c-0.7,0.7-0.7,1.9-0.1,2.8c0.7,1.1,2.1,1.4,3.1,0.7c0.1-0.1,0.1-0.1,0.1-0.1c-0.1-0.5-0.3-1.1-0.7-1.6
	C363.8,134.8,362.9,134.2,362,134z"/>
<path class="st19" d="M354.7,125.1c-0.3,0.5-0.5,1.2-0.7,1.7l2.8,0.9c0.2-0.5,0.3-1,0.5-1.4c2.2-4.7,6.3-6.7,9.5-4.9l0.3-0.5
	C362.2,118.1,357.7,119.1,354.7,125.1z"/>
<path class="st22" d="M362,134c1,0.3,1.8,0.9,2.5,1.8c0.3,0.5,0.5,1.1,0.7,1.6c0.9-0.7,1-2,0.3-3.1c-0.7-1-2.1-1.4-3.1-0.7
	C362.2,133.7,362.1,133.8,362,134z"/>
<path class="st19" d="M357.3,126.3c-0.2,0.5-0.4,1-0.5,1.4l0,0c4.7,1.4,9.3,4.2,13.5,8c1.7-5,0.8-10.8-2.2-13.5
	c-0.3-0.3-0.7-0.5-1.1-0.8C363.7,119.6,359.6,121.5,357.3,126.3z"/>
<path class="st21" d="M358.7,134.5c-1.4,1-1.9,2.6-1.6,4.2c0.1,0.1,0.1,0.3,0.2,0.4c-0.1-0.8,0.2-1.6,0.9-2c1-0.7,2.4-0.4,3.1,0.7
	c0.7,1,0.5,2.5-0.5,3.1c-0.6,0.4-1.4,0.5-2,0.2c0.1,0.1,0.1,0.1,0.2,0.2c0.3,0.3,0.6,0.5,1,0.7h0.1c1.2,0.3,2.4,0.2,3.5-0.5
	c1.4-0.9,1.9-2.6,1.6-4.2c-0.1,0.1-0.1,0.1-0.1,0.1c-1,0.7-2.4,0.4-3.1-0.7c-0.6-0.9-0.5-2.1,0.1-2.8
	C360.9,133.6,359.6,133.8,358.7,134.5z"/>
<path class="st19" d="M368,122.2c3.1,2.7,3.9,8.4,2.2,13.5c0.1,0.1,0.2,0.2,0.3,0.3l3,2.7c0.1,0.1,0.3,0,0.3-0.3
	c1.1-5.9-2.7-14.8-5.7-16.7c-0.4-0.3-0.7-0.5-1.1-0.7l-0.3,0.5C367.3,121.6,367.7,121.9,368,122.2z"/>
<linearGradient id="SVGID_15_" gradientUnits="userSpaceOnUse" x1="483.2104" y1="315.981" x2="420.6003" y2="330.5883" gradientTransform="matrix(0.9924 -0.1231 -0.1231 -0.9924 10.7218 576.2941)">
	<stop  offset="4.926108e-003" style="stop-color:#FFFFA8"/>
	<stop  offset="0.668" style="stop-color:#FFFFE6"/>
	<stop  offset="0.9951" style="stop-color:#FFFFFF"/>
</linearGradient>
<path class="st23" d="M450.1,214.9l-0.1-0.9c-16.6-6.9-32.4-15.9-47-26.4c-3.5-2.5-6.9-5.2-10.3-8L390,178l-0.7,0.3
	c0.3,0.6,0.5,1.2,0.8,1.8c3.1,8.4,4.8,17.9,5.1,27.4c0,2-0.1,4.1-0.1,6.2h0.3l2.9,1.5C415.3,219.5,433.3,219.6,450.1,214.9z"/>
<path class="st24" d="M502.1,69.6c-1.4,1.1-2.9,2-4.4,2.8c0.2,4.4-4.8,4.2-8.9,5.4c-6.9,2.1-13.1,6.9-17,13.1
	c-1.6,2.5-2.8,5.2-4.8,7.2c-1.6,1.5-3.5,2.5-5.2,3.7c-3.3,2.3-5.8,5.5-7.3,9.3c-0.5,1.4-1,2.8-1.8,3.9c-1.7,2.4-4.6,3.3-7.3,4.4
	c-8.8,3.6-16.1,10.8-20,19.7c-0.5,1.1-0.9,2.2-1.8,2.9c-1.7,1.4-4.3,0.6-5.7-1c-1.4-1.6-1.8-3.8-2.2-6c-0.6-4.2-0.8-8.5-0.6-12.8
	c0.3-5.3,0.9-11.4-3-15c-3.3-3-9.2-3.3-11.9-6.3l-0.3,0.3c3.9,4.3,7.1,9,7.1,14.4c0.1,3.9-1.6,8-1.3,12c0.2,2.9,1.4,5.7,1.7,8.5
	l1.9,6.5c0.4,2,0.8,3.9,1.2,5.9c0.5,2.5,1.1,5.2,2.9,7.2c1.8,2,5,3.4,8.1,2.5c4.6-1.3,6-6,8.3-9.6c1.7-2.6,4.2-4.9,5.4-7.6
	s1.2-5.7,3.3-8.1c4.5-5,14.9-3.4,19.5-8.4c2.7-2.9,2-6.9,3.9-10.2c3.5-5.9,14-7.7,16.7-13.8c1-2.1,0.8-4.4,1.7-6.5
	c1.8-4.2,7.4-6.5,12.2-8.4c4.9-2,10.3-4.6,11.6-8.9C505,74.2,503.9,71.8,502.1,69.6z"/>
<linearGradient id="SVGID_16_" gradientUnits="userSpaceOnUse" x1="554.6472" y1="462.0894" x2="490.6786" y2="477.0136" gradientTransform="matrix(0.9924 -0.1231 -0.1231 -0.9924 10.7218 576.2941)">
	<stop  offset="0.3005" style="stop-color:#666666"/>
	<stop  offset="0.7391" style="stop-color:#9A9A9A"/>
	<stop  offset="0.9951" style="stop-color:#B3B3B3"/>
</linearGradient>
<path class="st25" d="M497.7,72.4c1.5-0.7,3-1.7,4.4-2.8c-1.2-1.4-2.5-2.7-3.9-3.9C484.8,54.1,471.4,42.6,458,31
	c-2.5-2.1-4.8-4.2-6.9-6.5c-2.9-3.2-5.2-6.9-9.3-9.1c0.2,0.5,0.3,1,0.4,1.6c1.5,6.2-0.7,12.8,2,18.9c2.4,2.9,6.2,4.7,8.6,7.6
	c4.8,5.9,3.9,13.8,9.9,19.8C472.6,72.7,485.9,78.2,497.7,72.4z"/>
<linearGradient id="SVGID_17_" gradientUnits="userSpaceOnUse" x1="542.37" y1="426.9819" x2="436.4782" y2="451.687" gradientTransform="matrix(0.9924 -0.1231 -0.1231 -0.9924 10.7218 576.2941)">
	<stop  offset="4.926108e-003" style="stop-color:#FF7BAC"/>
	<stop  offset="0.5018" style="stop-color:#FF99AC"/>
	<stop  offset="0.9951" style="stop-color:#FFB2AC"/>
</linearGradient>
<path class="st26" d="M488.9,77.8c4.1-1.2,9.1-1.2,8.9-5.4c-11.8,5.9-25.1,0.3-34.9-9c-6.1-6-5.2-14-9.9-19.8
	c-2.4-2.9-6.2-4.7-8.6-7.6c-2.9-6.1-0.6-12.7-2-18.9l-0.9,0.2c-5.6-4.3-14-4-19.4,0.6c-3.5,3.1-5.8,7.8-9.9,9.8
	c-4.1,2-9.6,1.3-12.7,4.8c-1.5,1.7-2,4-3.3,5.9c-1.2,1.8-3,3-4,4.9c-1.2,2.3-1,5.1-0.5,7.8c0.1,0.7,0.3,1.3,0.4,2
	c3.5,14.9,5.9,30.2,7.1,45.5c0.1-0.1,0.2-0.1,0,0.2c0-0.1,0-0.1,0-0.2c-0.1,0.1-0.2,0.1-0.3,0.2c0.2,1,0.7,1.7,1.3,2.3
	c2.8,2.9,8.6,3.2,11.9,6.3c3.8,3.5,3.3,9.7,3,15c-0.2,4.3,0,8.6,0.6,12.8c0.3,2.1,0.7,4.4,2.2,6c1.4,1.6,4,2.3,5.7,1
	c0.9-0.7,1.4-1.8,1.8-2.9c3.9-8.9,11.2-16.1,20-19.7c2.7-1.1,5.6-2,7.3-4.4c0.8-1.2,1.2-2.6,1.8-3.9c1.5-3.7,4.1-7,7.3-9.3
	c1.8-1.2,3.7-2.2,5.2-3.7c2.1-2,3.3-4.7,4.8-7.2C475.7,84.7,481.8,79.9,488.9,77.8z"/>
<radialGradient id="SVGID_18_" cx="537.1783" cy="385.8781" r="9.9914" gradientTransform="matrix(0.9924 -0.1231 -0.1231 -0.9924 10.7218 576.2941)" gradientUnits="userSpaceOnUse">
	<stop  offset="0" style="stop-color:#FF7BAC;stop-opacity:0"/>
	<stop  offset="1" style="stop-color:#FF7BAC"/>
</radialGradient>
<circle class="st27" cx="496.3" cy="127.2" r="10"/>
<linearGradient id="SVGID_19_" gradientUnits="userSpaceOnUse" x1="555.8902" y1="463.6626" x2="548.1109" y2="465.4775" gradientTransform="matrix(0.9924 -0.1231 -0.1231 -0.9924 10.7218 576.2941)">
	<stop  offset="0" style="stop-color:#FF7BAC"/>
	<stop  offset="1" style="stop-color:#FF7BAC;stop-opacity:0"/>
</linearGradient>
<path class="st28" d="M499.3,43.8c-0.7,0.4-1.2,1-1.6,1.8c-1,2-0.1,4.4,2,5.3c2,1,4.4,0.1,5.3-2c0-0.1,0.1-0.1,0.1-0.1
	c0.8-2-0.1-4.2-2-5.1C501.8,43.1,500.4,43.2,499.3,43.8z"/>
<radialGradient id="SVGID_20_" cx="559.8273" cy="471.6568" r="9.9925" gradientTransform="matrix(0.9924 -0.1231 -0.1231 -0.9924 10.7218 576.2941)" gradientUnits="userSpaceOnUse">
	<stop  offset="0" style="stop-color:#FF7BAC;stop-opacity:0"/>
	<stop  offset="1" style="stop-color:#FF7BAC"/>
</radialGradient>
<path class="st29" d="M509.3,29.3c-5.5-0.6-10.4,3.4-11,8.9c-0.2,2,0.2,3.9,1,5.6c1.1-0.6,2.5-0.7,3.7-0.2c2,0.9,2.9,3.2,2,5.1h0.1
	c0.7,0.2,1.4,0.3,2,0.4c5.5,0.6,10.4-3.4,11-8.9S514.7,30,509.3,29.3z"/>
<path class="st1" d="M380.8,36.6c-1-0.7-1.8-1.4-2.3-2.2c-4.3-5.9,1.6-15.2,7.9-19.2c5.7-3.4,11.4-6.8,16.9-7.6
	c10.8-0.2,19.9,2.1,30.6,1.9c3.9,0.4,6.3,3.3,7.6,4.8c0.2,0.4,0.4,0.9,0.5,1.3c0.2,0.5,0.3,1,0.4,1.6c1.5,6.2-0.7,12.8,2,18.9
	c2.4,2.9,6.2,4.7,8.6,7.6c4.8,5.9,3.9,13.8,9.9,19.8c9.7,9.3,23,14.8,34.9,9c1.5-0.7,3-1.7,4.4-2.8"/>
<path class="st1" d="M409,141.7c0.1,0.3,0.1,0.7,0.2,1.1c0.4,2,0.8,3.9,1.2,5.9c0.5,2.5,1.1,5.2,2.9,7.2c1.8,2,5,3.4,8.1,2.5
	c4.6-1.3,6-6,8.3-9.6c1.7-2.6,4.2-4.9,5.4-7.6c1.2-2.7,1.2-5.7,3.3-8.1c4.5-5,14.9-3.4,19.5-8.4c2.7-2.9,2-6.9,3.9-10.2
	c3.5-5.9,14-7.7,16.7-13.8c1-2.1,0.8-4.4,1.7-6.5c1.8-4.2,7.4-6.5,12.2-8.4c4.9-2,10.3-4.6,11.6-8.9c0.8-2.7-0.3-5.2-2-7.4
	c-1.2-1.4-2.5-2.7-3.9-3.9c-13.4-11.6-26.8-23.1-40.2-34.7c-2.5-2.1-4.8-4.2-6.9-6.5c-2.9-3.2-5.2-6.9-9.3-9.1
	c-0.3-0.1-0.5-0.3-0.9-0.5"/>
<path class="st1" d="M217.3,72.2c1-2.2-0.3-4.3-2.2-5.9c-0.9-0.7-2-1.4-3-2c-6.3-3.6-13-7.4-21-7.8c-9.3-0.5-18.9,3.7-25.9,9.5
	c-0.3,0.3-0.7,0.5-1,0.8c-3.3,2.8-6.1,5.9-8.6,9.2s-4.8,6.7-7.1,10.1c-1.9,3-4.4,6.4-8.4,6.9c-3.8,0.6-8.2-1.7-11.2,0.6
	c-2.2,5.6,3.7,10.1,6.1,15.2c2.7,5.9,0.9,12.7-1,19.2c-1.5,5.1-3,10.1-4.5,15.2c-1.6,5.5-3.7,11.6-9.3,15
	c-5.4,3.3-12.1,3.1-18.6,3.7c-0.2,0-0.4,0.1-0.6,0.1c-2.4,0.3-4.8,0.7-7,1.5c-0.4,0.1-0.9,0.3-1.2,0.7c-1,1,0.3,2.2,1.6,2.8
	c12.4,5.5,28.1,6.2,38.9,13.6c2.9,2,5.4,4.5,8.6,6.2c5.2,2.9,12,3.4,18.2,4.8c7.1,1.6,13.7,4.4,19.3,8.1c1,0.7,2,1.4,3.3,1.6
	c1.1,0.3,2.3,0.1,3.5,0.1c4.5-0.2,8.9,0.5,12.7,2.2c4,1.7,8.2,4.4,12.7,3.1c2.2-0.7,4-2.2,5.7-3.6c3.5-3.1,7.2-6.5,7.8-10.5
	c1-6.1-3.8-14,0.8-19.1"/>
<path class="st1" d="M164.1,66.7c-7.1,5.2-4.6,3.5-12.7,7.6c-4.6,2.3-9.5,4.2-14.2,6.7c-13.3,7.1-23.4,18.5-26.8,30.6
	c-2.5,9-1.6,18-2.6,27s-4.7,18.9-13.9,25"/>
<path class="st1" d="M395.3,96.9c1.5,1.4,3,2.9,4.4,4.5c3.9,4.3,7.1,9,7.1,14.4c0.1,3.9-1.6,8-1.3,12c0.2,2.9,1.4,5.7,1.7,8.5
	c0.7,7.8-5.2,16.1-2.7,23.4c0.7,2.2,2.2,4.2,3,6.3c2.5,6.5-0.7,14-4,20.8l-0.5,0.9l-10.3-8c3.4,2.7,6.8,5.4,10.3,8
	c14.6,10.6,30.4,19.5,47,26.4l0.1,0.9c-16.8,4.6-34.8,4.6-51.7,0.3l-2.9-1.5"/>
<path class="st1" d="M389.1,38.4c-15.1-8.2-31.3-14.8-48.7-17.7c-17.5-2.8-38.2-0.4-55.6,6.3"/>
<path class="st1" d="M292.7,28.1c-1.1-1-2.4-1.6-3.8-1.8c-4.4-1-10.1,0.5-14.9,2.2c-9.4,3.3-18.7,6.9-27.7,10.9
	c-7.9,3.4-15.9,7.4-21.2,13.4c-3.7,4.4-5.7,9.5-10,13.5c0,0.1-0.1,0.1-0.1,0.1"/>
<path class="st1" d="M211.9,108.7c-3.1,9.9-6.3,20.6-1.6,29.3c2.4,4.6,6.7,8.2,9.1,12.7c2.7,5.2,2.4,11.4,4.2,16.9
	c0.7,2,1.6,3.9,2.7,5.7c1,1.8,2.1,3.4,3.2,5.1c7.1,11,14.4,22.2,24.9,31.3c7.5,6.5,11.5,9.7,21.6,13.5"/>
<path class="st1" d="M314.8,227.9c0.7,0.3,1.4,0.6,2.2,1c8.4,3.5,17.3,6.3,26.2,7.9c13.1,2.5,26.5,2.9,38.9,0.9l-0.1-0.7
	c-32.3-13.4-62-32.6-86.5-55.7l-0.6-0.3c-3.8,2.5-7.3,5.4-10.4,8.6c-0.6,0.6-1.2,1.3-1.6,2c-1.2,2-0.9,4.6-0.6,7
	c0.3,2.1,0.5,4.2,0.7,6.4"/>
<path class="st1" d="M283.1,204.9c3.3,6.1,8.4,9.7,14.9,13.9c4.4,2.9,9,5.4,13.8,7.6"/>
<path class="st1" d="M316.7,229.5c2.1,3.7,4.9,12.7,3.3,16.7c-0.1,0.4,0.2,0.8-0.1,1.2c-0.3,0.5-1.1,0.4-1.7,0.2
	c-15-4.9-30.2-13.5-42.4-24.2l0,0c-1.9-1.6-3.7-3.3-5.4-5"/>
<path class="st1" d="M311.8,226.5l-5-1.8l-8.5-4.4l-9.5-7l-19.5-19.9c0,0,2.3,23.3,28.5,37.3c5,2.7,12.4,7.8,18,9.3l-0.8-12v-0.3
	L311.8,226.5z"/>
<path class="st1" d="M505.1,48.8c0.7,0.2,1.4,0.3,2,0.4c5.5,0.6,10.4-3.4,11-8.9s-3.4-10.4-8.9-11c-5.4-0.5-10.4,3.4-11,8.9
	c-0.2,2,0.2,3.9,1,5.6c0.1,0.1,0.1,0.2,0.1,0.3"/>
<path class="st1" d="M562.6,25.2c-3.6,1.2-6.5,4-7.8,7.7"/>
<path class="st1" d="M499.3,43.8c-0.7,0.4-1.2,1-1.6,1.8c-1,2-0.1,4.4,2,5.3c2,1,4.4,0.1,5.3-2c0-0.1,0.1-0.1,0.1-0.1
	c0.8-2-0.1-4.2-2-5.1C501.8,43.1,500.4,43.2,499.3,43.8z"/>
<path class="st1" d="M499.3,46.2c-0.2,1.2,0.1,2.4,1,3.3"/>
<ellipse transform="matrix(0.1056 -0.9944 0.9944 0.1056 317.4599 607.3395)" class="st1" cx="496.4" cy="127.2" rx="10" ry="10"/>
<path class="st1" d="M496.7,120.8c-2.8,1-5,3.1-6.1,6"/>
<line class="st1" x1="392.8" y1="179.7" x2="390.1" y2="178.1"/>
<line class="st1" x1="409.2" y1="142.8" x2="407.3" y2="136.2"/>
<path class="st30" d="M360.1,141.9c3.3,1.8,7.4-0.1,9.6-4.8c0.3-0.5,0.4-1,0.6-1.5"/>
<path class="st30" d="M356.8,127.6c-1.3,3.7-1.2,8,0.3,11"/>
<path class="st31" d="M377.7,119.6c-1.2-2.5-3.7-6.9-6.3-7.8c-2.7-0.9-5.7,1.6-8.5,1.4c-0.1,0-0.1,0-0.1,0.1"/>
<path class="st30" d="M324.8,149.2c0.7,0.1,1.3,0,2-0.2c4.2-1.2,7-7.1,6.4-13.1c0-0.1,0-0.1,0-0.1"/>
<path class="st30" d="M318.2,138.6c0,0.6,0,1.2,0.1,1.8c0.2,2.2,0.9,4.1,1.8,5.5"/>
<path class="st30" d="M320,145.9C320.1,145.9,320.1,146,320,145.9"/>
<path class="st31" d="M325,121.6c-2.6-1-7.4-2.6-10-1.4c-2.6,1.2-3.1,5-5.2,6.9c-0.1,0.1-0.1,0.1-0.1,0.1"/>
<path class="st1" d="M398.8,98.7c0.2,1,0.7,1.7,1.3,2.3c2.8,2.9,8.6,3.2,11.9,6.3c3.8,3.5,3.3,9.7,3,15c-0.2,4.3,0,8.6,0.6,12.8
	c0.3,2.1,0.7,4.4,2.2,6c1.4,1.6,4,2.3,5.7,1c0.9-0.7,1.4-1.8,1.8-2.9c3.9-8.9,11.2-16.1,20-19.7c2.7-1.1,5.6-2,7.3-4.4
	c0.8-1.2,1.2-2.6,1.8-3.9c1.5-3.7,4.1-7,7.3-9.3c1.8-1.2,3.7-2.2,5.2-3.7c2.1-2,3.3-4.7,4.8-7.2c3.9-6.3,10.1-11,17-13.1
	c4.1-1.2,9.1-1.2,8.9-5.4"/>
<path class="st1" d="M398.8,98.7c-0.1,0.1-0.3,0.1-0.1-0.1C398.8,98.6,398.8,98.6,398.8,98.7z"/>
<path class="st1" d="M399.1,98.5c-0.1,0.1-0.2,0.1-0.3,0.2"/>
<path class="st1" d="M399.1,98.5c0,0.1,0,0.1,0,0.2C399.3,98.4,399.2,98.4,399.1,98.5z"/>
<path class="st1" d="M441.5,17.3c-5.6-4.3-14-4-19.4,0.6c-3.5,3.1-5.8,7.8-9.9,9.8c-4.1,2-9.6,1.3-12.7,4.8c-1.5,1.7-2,4-3.3,5.9
	c-1.2,1.8-3,3-4,4.9c-1.2,2.3-1,5.1-0.5,7.8c0.1,0.7,0.3,1.3,0.4,2c3.5,14.9,5.9,30.2,7.1,45.5"/>
<path class="st1" d="M392.5,52.8c-0.3-0.6-0.6-1.2-1-1.8c-2.8-4.8-7.4-8.6-12.7-10.4c-2.2-0.7-4.4-1.2-6.3-2.5"/>
<path class="st1" d="M156.1,76.3c5,0.7,9.3-3.9,14.2-5.2c3.7-1,7.6-0.1,11.3,0c5.2,0.2,10.6-1,15.8-0.7c5.2,0.3,11,2.6,13,7.4
	c1.2,2.9-1.5,5.7-3.1,8.4c-3.2,5.2-2.1,12-4.2,17.8c-0.8,2.3-2.1,4.4-2.9,6.7c-1.1,3.3-1,6.9-1,10.3c0.1,6.7,0.4,13.8,3.8,19.5
	c2.5,4.2,6.5,7.4,9.3,11.4c4.8,6.7,6.2,15.5,5.2,23.6c-1,8.2-4.1,16-7.6,23.4c-3.5,0.5-7.1-0.1-10.1-1.8c-1.8-1-3.4-2.4-5.3-3.1
	c-4.4-1.6-9.5,0.5-13.8-1.2c-3.2-1.2-5.4-4.4-8.6-5.8c-2.8-1.3-6.1-1.2-9.1-1.6c-6-0.7-11.6-3.2-17.1-5.7
	c-5.1-2.3-10.2-4.6-15.3-6.9c-5.9-2.7-25.3-10.3-28.9-10.8c-0.4-0.1-0.6-0.1-0.6,0.1"/>
<path class="st30" d="M370.5,171.2c-9.5-2.7-20.5,0.7-26.8,8.4"/>
<path class="st30" d="M363.9,181.5c-3.5-0.5-7.4,1.3-9.2,4.4"/>
<radialGradient id="SVGID_21_" cx="379.0349" cy="425.1144" r="5.6581" gradientTransform="matrix(-0.9944 -0.1056 0.1056 -0.9944 842.3197 569.8647)" gradientUnits="userSpaceOnUse">
	<stop  offset="0" style="stop-color:#CCE0F4"/>
	<stop  offset="6.405089e-002" style="stop-color:#C3DCF2"/>
	<stop  offset="0.1706" style="stop-color:#A9D2EE"/>
	<stop  offset="0.3066" style="stop-color:#80C2E7"/>
	<stop  offset="0.4649" style="stop-color:#47ACDE"/>
	<stop  offset="0.5674" style="stop-color:#1E9CD7"/>
	<stop  offset="0.8652" style="stop-color:#0075BE"/>
	<stop  offset="0.9944" style="stop-color:#005B97"/>
</radialGradient>
<circle class="st32" cx="510.3" cy="107.1" r="5.7"/>
<radialGradient id="SVGID_22_" cx="376.9611" cy="425.7835" r="1.7123" gradientTransform="matrix(-0.9944 -0.1056 0.1056 -0.9944 842.3197 569.8647)" gradientUnits="userSpaceOnUse">
	<stop  offset="0" style="stop-color:#CCE0F4"/>
	<stop  offset="6.405089e-002" style="stop-color:#C3DCF2"/>
	<stop  offset="0.1706" style="stop-color:#A9D2EE"/>
	<stop  offset="0.3066" style="stop-color:#80C2E7"/>
	<stop  offset="0.4649" style="stop-color:#47ACDE"/>
	<stop  offset="0.5674" style="stop-color:#1E9CD7"/>
	<stop  offset="0.8652" style="stop-color:#0075BE"/>
	<stop  offset="0.9944" style="stop-color:#005B97"/>
</radialGradient>
<path class="st33" d="M513.4,108.9c0-1.7-0.7-3.3-2-4.4"/>
<path class="st1" d="M343.2,237.1c14.7,27.4,29.9,61.8,47.9,86.7c13.3,18.4,32.5,34.2,56.5,35.5c19.9,2.1,47.6-25.7,50.6-34.8
	c11.7-35.7-3.4-68.7-18.9-99.8c-3.3-7-6.4-15.4-3.1-21.8c3.1-3.7,8.8-7.1,10.7-12.3c0.1-1.3-0.1-3.3-0.1-3.6c0,0-13.4-9.2-13.4-9.3
	c0-0.1-1.2-0.1-2.7-0.3c-2.9-0.3-5.2,2.2-4.8,5l0,0c0.1,1.2-0.2,2.4-0.9,3.3l-2.7,3.5"/>
<linearGradient id="SVGID_23_" gradientUnits="userSpaceOnUse" x1="493.0255" y1="342.1503" x2="493.0255" y2="342.1503" gradientTransform="matrix(0.9924 -0.1231 -0.1231 -0.9924 10.7218 576.2941)">
	<stop  offset="4.926108e-003" style="stop-color:#666666"/>
	<stop  offset="0.6302" style="stop-color:#9A9A9A"/>
	<stop  offset="0.9951" style="stop-color:#B3B3B3"/>
</linearGradient>
<path class="st34" d="M457.9,176.1"/>
<path class="st1" d="M465,185.7l-2.7-2.1c-0.5,1.6-3.3-1.2-6.2,7c-4,11.5-1.2,19.8-0.5,30.1c1.2,17.5,7.6,36.6,11.2,46.3
	c0.7,2,4.5,8.5,5.4,13.9c2.5,15.2,0.5,20.4-5.4,30.1c-7.4,12.1-22.1,7.6-31.5-0.7c-13.8-12.2-16.1-19.8-25.3-34.2
	c-4.6-7.2-7.5-22.3-10.8-29.3c-4.6-10.7-4.2-21.8-3.9-33.1c0.1-2,0.1-4.1,0.1-6.2c-0.3-9.4-2-19-5.1-27.4c-0.3-0.6-0.5-1.2-0.8-1.8
	c-2.8-6.4-4.6-12.7-6.9-19.1"/>
<linearGradient id="SVGID_24_" gradientUnits="userSpaceOnUse" x1="317" y1="520" x2="317" y2="355.9802">
	<stop  offset="0" style="stop-color:#97A4B7"/>
	<stop  offset="0.882" style="stop-color:#FFFFFF;stop-opacity:0"/>
</linearGradient>
<rect x="-78" y="356" class="st35" width="790" height="164"/>
</svg>
