<?xml version="1.0" encoding="utf-8"?>
<!-- Generator: Adobe Illustrator 19.2.0, SVG Export Plug-In . SVG Version: 6.00 Build 0)  -->
<svg version="1.1" id="Layer_1" xmlns="http://www.w3.org/2000/svg" xmlns:xlink="http://www.w3.org/1999/xlink" x="0px" y="0px"
	 viewBox="0 0 640 480" style="enable-background:new 0 0 640 480;" xml:space="preserve">
<style type="text/css">
	.st0{fill:none;}
	.st1{fill:none;stroke:#007534;stroke-linecap:round;}
	.st2{fill:#DEE19F;}
	.st3{fill:#42210B;}
	.st4{fill:url(#SVGID_1_);}
	.st5{fill:#F7931E;stroke:#000000;stroke-width:0.25;stroke-miterlimit:10;}
	.st6{fill:#006837;stroke:#000000;stroke-miterlimit:10;}
	.st7{fill:#534741;stroke:#000000;stroke-miterlimit:10;}
	.st8{fill:#39B54A;stroke:#000000;stroke-miterlimit:10;}
	.st9{fill:#8CC63F;stroke:#000000;stroke-miterlimit:10;}
	.st10{fill:url(#SVGID_2_);stroke:#603813;stroke-width:6;stroke-miterlimit:10;}
	.st11{fill:url(#SVGID_4_);stroke:#000000;stroke-miterlimit:10;}
	.st12{fill:url(#SVGID_5_);stroke:#000000;stroke-miterlimit:10;}
	.st13{fill:#603813;stroke:#000000;stroke-miterlimit:10;}
	.st14{fill:url(#SVGID_6_);stroke:#000000;stroke-miterlimit:10;}
	.st15{fill:url(#SVGID_7_);stroke:#000000;stroke-miterlimit:10;}
	.st16{fill:#FFFFFF;stroke:#000000;stroke-miterlimit:10;}
	.st17{fill:url(#SVGID_8_);stroke:#000000;stroke-miterlimit:10;}
	.st18{fill:none;stroke:#000000;stroke-miterlimit:10;}
	.st19{stroke:#F7931E;stroke-miterlimit:10;}
	.st20{fill:url(#SVGID_9_);stroke:#000000;stroke-miterlimit:10;}
	.st21{fill:url(#SVGID_10_);stroke:#000000;stroke-miterlimit:10;}
	.st22{fill:#ED1C24;stroke:#000000;stroke-miterlimit:10;}
	.st23{fill:none;stroke:#603813;stroke-width:6;stroke-miterlimit:10;}
</style>
<pattern  y="480" width="55.4" height="96" patternUnits="userSpaceOnUse" id="SVGID_3_" viewBox="55.9 -128.5 55.4 96" style="overflow:visible;">
	<g>
		<rect x="55.9" y="-128.5" class="st0" width="55.4" height="96"/>
		<g>
			<rect x="55.9" y="-128.5" class="st0" width="55.4" height="96"/>
			<g>
				<polyline class="st1" points="111.4,-157.8 136.8,-143.2 136.8,-126.1 				"/>
				<polyline class="st1" points="111.4,-155.2 134.4,-141.8 134.4,-126.1 				"/>
				<polyline class="st1" points="111.4,-152.5 132.1,-140.5 132.1,-126.1 				"/>
				<polyline class="st1" points="111.4,-160.5 139.1,-144.5 139.1,-126.1 				"/>
				<polyline class="st1" points="111.4,-124.5 111.4,-128.5 108.8,-130 				"/>
				<line class="st1" x1="111.4" y1="-128.5" x2="132.1" y2="-140.5"/>
			</g>
			<g>
				<line class="st1" x1="72.1" y1="-129.8" x2="76.7" y2="-127.1"/>
				<line class="st1" x1="69.8" y1="-128.5" x2="76.7" y2="-124.5"/>
				<line class="st1" x1="95.2" y1="-129.8" x2="90.6" y2="-127.1"/>
				<line class="st1" x1="97.5" y1="-128.5" x2="90.6" y2="-124.5"/>
				<polyline class="st1" points="55.9,-157.8 81.3,-143.2 81.3,-126.1 				"/>
				<polyline class="st1" points="55.9,-155.2 79,-141.8 79,-126.1 				"/>
				<polyline class="st1" points="55.9,-152.5 76.7,-140.5 76.7,-126.1 				"/>
				<polyline class="st1" points="85.9,-126.1 85.9,-143.2 111.4,-157.8 				"/>
				<polyline class="st1" points="88.3,-126.1 88.3,-141.8 111.4,-155.2 				"/>
				<polyline class="st1" points="90.6,-126.1 90.6,-140.5 111.4,-152.5 				"/>
				<polyline class="st1" points="83.6,-126.1 83.6,-144.5 111.4,-160.5 				"/>
				<polyline class="st1" points="55.9,-160.5 83.6,-144.5 83.6,-126.1 				"/>
				<line class="st1" x1="58.2" y1="-127.2" x2="76.7" y2="-137.8"/>
				<line class="st1" x1="60.5" y1="-125.8" x2="76.7" y2="-135.2"/>
				<line class="st1" x1="62.9" y1="-124.5" x2="76.7" y2="-132.5"/>
				<polyline class="st1" points="111.4,-124.5 111.4,-128.5 114,-130 				"/>
				<line class="st1" x1="111.4" y1="-128.5" x2="90.6" y2="-140.5"/>
				<line class="st1" x1="109" y1="-127.2" x2="90.6" y2="-137.8"/>
				<line class="st1" x1="106.7" y1="-125.8" x2="90.5" y2="-135.2"/>
				<line class="st1" x1="104.4" y1="-124.5" x2="90.5" y2="-132.5"/>
				<polyline class="st1" points="55.9,-124.5 55.9,-128.5 53.3,-130 				"/>
				<line class="st1" x1="55.9" y1="-128.5" x2="76.7" y2="-140.5"/>
			</g>
			<g>
				<polyline class="st1" points="30.5,-126.1 30.5,-143.2 55.9,-157.8 				"/>
				<polyline class="st1" points="32.8,-126.1 32.8,-141.8 55.9,-155.2 				"/>
				<polyline class="st1" points="35.1,-126.1 35.1,-140.5 55.9,-152.5 				"/>
				<polyline class="st1" points="28.2,-126.1 28.2,-144.5 55.9,-160.5 				"/>
				<polyline class="st1" points="55.9,-124.5 55.9,-128.5 58.5,-130 				"/>
				<line class="st1" x1="55.9" y1="-128.5" x2="35.1" y2="-140.5"/>
			</g>
			<g>
				<line class="st1" x1="111.4" y1="-40.5" x2="111.4" y2="-56.5"/>
				<polyline class="st1" points="111.4,-99.2 136.8,-113.8 136.8,-130.9 				"/>
				<polyline class="st1" points="111.4,-101.8 134.4,-115.2 134.4,-130.9 				"/>
				<polyline class="st1" points="111.4,-104.5 132.1,-116.5 132.1,-130.9 				"/>
				<polyline class="st1" points="111.4,-61.8 136.8,-47.2 136.8,-30.1 				"/>
				<polyline class="st1" points="111.4,-59.2 134.4,-45.8 134.4,-30.1 				"/>
				<polyline class="st1" points="111.4,-56.5 132.1,-44.5 132.1,-30.1 				"/>
				<polygon class="st1" points="166.8,-64.5 166.8,-96.5 139.1,-112.5 111.4,-96.5 111.4,-64.5 139.1,-48.5 				"/>
				<polyline class="st1" points="111.4,-96.5 139.1,-112.5 139.1,-130.9 				"/>
				<polyline class="st1" points="111.4,-64.5 139.1,-48.5 139.1,-30.1 				"/>
				<polyline class="st1" points="111.4,-104.5 111.4,-128.5 114.8,-130.5 				"/>
				<line class="st1" x1="111.4" y1="-128.5" x2="107.9" y2="-130.5"/>
				<polyline class="st1" points="111.4,-28.5 111.4,-32.5 108.8,-34 				"/>
				<line class="st1" x1="111.4" y1="-32.5" x2="132.1" y2="-44.5"/>
				<polyline class="st1" points="109.3,-36.3 111.4,-35.2 129.8,-45.9 				"/>
				<polyline class="st1" points="109.9,-38.7 111.4,-37.8 127.6,-47.2 				"/>
				<polyline class="st1" points="110.5,-41 111.4,-40.5 125.2,-48.5 				"/>
			</g>
			<g>
				<rect x="55.9" y="-128.5" class="st2" width="55.4" height="96"/>
				<line class="st1" x1="90.6" y1="-63.2" x2="92.9" y2="-61.9"/>
				<line class="st1" x1="90.6" y1="-65.9" x2="95.2" y2="-63.2"/>
				<line class="st1" x1="90.6" y1="-68.5" x2="97.5" y2="-64.5"/>
				<line class="st1" x1="90.6" y1="-71.2" x2="99.8" y2="-65.8"/>
				<line class="st1" x1="90.6" y1="-73.8" x2="102.1" y2="-67.2"/>
				<line class="st1" x1="90.6" y1="-76.5" x2="104.4" y2="-68.5"/>
				<line class="st1" x1="102.1" y1="-83.1" x2="104.4" y2="-81.8"/>
				<line class="st1" x1="99.8" y1="-81.8" x2="104.4" y2="-79.1"/>
				<line class="st1" x1="97.5" y1="-80.5" x2="104.4" y2="-76.5"/>
				<line class="st1" x1="95.2" y1="-79.2" x2="104.4" y2="-73.8"/>
				<line class="st1" x1="92.9" y1="-77.8" x2="104.4" y2="-71.2"/>
				<line class="st1" x1="65.2" y1="-83.1" x2="62.9" y2="-81.8"/>
				<line class="st1" x1="67.5" y1="-81.8" x2="62.9" y2="-79.1"/>
				<line class="st1" x1="69.8" y1="-80.5" x2="62.9" y2="-76.5"/>
				<line class="st1" x1="72.1" y1="-79.2" x2="62.9" y2="-73.8"/>
				<line class="st1" x1="74.4" y1="-77.8" x2="62.9" y2="-71.2"/>
				<line class="st1" x1="76.7" y1="-76.5" x2="62.9" y2="-68.5"/>
				<line class="st1" x1="76.7" y1="-63.2" x2="74.4" y2="-61.9"/>
				<line class="st1" x1="76.7" y1="-65.9" x2="72.1" y2="-63.2"/>
				<line class="st1" x1="76.7" y1="-68.5" x2="69.8" y2="-64.5"/>
				<line class="st1" x1="76.7" y1="-71.2" x2="67.5" y2="-65.8"/>
				<line class="st1" x1="76.7" y1="-73.8" x2="65.2" y2="-67.2"/>
				<line class="st1" x1="95.1" y1="-95.2" x2="95.1" y2="-97.8"/>
				<line class="st1" x1="92.8" y1="-93.8" x2="92.8" y2="-99.2"/>
				<line class="st1" x1="90.5" y1="-92.5" x2="90.5" y2="-100.5"/>
				<line class="st1" x1="88.2" y1="-91.2" x2="88.2" y2="-101.8"/>
				<line class="st1" x1="85.9" y1="-89.8" x2="85.9" y2="-103.2"/>
				<line class="st1" x1="83.6" y1="-88.5" x2="83.6" y2="-104.5"/>
				<line class="st1" x1="72.1" y1="-95.2" x2="72.1" y2="-97.8"/>
				<line class="st1" x1="74.4" y1="-93.8" x2="74.4" y2="-99.2"/>
				<line class="st1" x1="76.7" y1="-92.5" x2="76.7" y2="-100.5"/>
				<line class="st1" x1="79" y1="-91.2" x2="79" y2="-101.8"/>
				<line class="st1" x1="81.3" y1="-89.8" x2="81.3" y2="-103.2"/>
				<line class="st1" x1="74.4" y1="-35.1" x2="76.7" y2="-33.8"/>
				<line class="st1" x1="72.1" y1="-33.8" x2="76.7" y2="-31.1"/>
				<line class="st1" x1="69.8" y1="-32.5" x2="76.7" y2="-28.5"/>
				<line class="st1" x1="67.4" y1="-47.2" x2="67.4" y2="-49.8"/>
				<line class="st1" x1="65.1" y1="-45.8" x2="65.1" y2="-51.2"/>
				<line class="st1" x1="62.8" y1="-44.5" x2="62.8" y2="-52.5"/>
				<line class="st1" x1="60.5" y1="-43.2" x2="60.5" y2="-53.8"/>
				<line class="st1" x1="58.2" y1="-41.8" x2="58.2" y2="-55.2"/>
				<line class="st1" x1="55.9" y1="-40.5" x2="55.9" y2="-56.5"/>
				<line class="st1" x1="92.9" y1="-35.1" x2="90.6" y2="-33.8"/>
				<line class="st1" x1="95.2" y1="-33.8" x2="90.6" y2="-31.1"/>
				<line class="st1" x1="97.5" y1="-32.5" x2="90.6" y2="-28.5"/>
				<line class="st1" x1="111.4" y1="-40.5" x2="111.4" y2="-56.5"/>
				<line class="st1" x1="99.8" y1="-47.2" x2="99.8" y2="-49.8"/>
				<line class="st1" x1="102.1" y1="-45.8" x2="102.1" y2="-51.2"/>
				<line class="st1" x1="104.5" y1="-44.5" x2="104.5" y2="-52.5"/>
				<line class="st1" x1="106.8" y1="-43.2" x2="106.8" y2="-53.8"/>
				<line class="st1" x1="109.1" y1="-41.8" x2="109.1" y2="-55.2"/>
				<line class="st1" x1="62.9" y1="-111.2" x2="65.2" y2="-109.9"/>
				<line class="st1" x1="62.9" y1="-113.9" x2="67.5" y2="-111.2"/>
				<line class="st1" x1="62.9" y1="-116.5" x2="69.8" y2="-112.5"/>
				<line class="st1" x1="62.9" y1="-119.2" x2="72.1" y2="-113.8"/>
				<line class="st1" x1="62.9" y1="-121.8" x2="74.4" y2="-115.2"/>
				<line class="st1" x1="62.9" y1="-124.5" x2="76.7" y2="-116.5"/>
				<line class="st1" x1="72.1" y1="-129.8" x2="76.7" y2="-127.1"/>
				<line class="st1" x1="69.8" y1="-128.5" x2="76.7" y2="-124.5"/>
				<line class="st1" x1="67.5" y1="-127.2" x2="76.7" y2="-121.8"/>
				<line class="st1" x1="65.2" y1="-125.8" x2="76.7" y2="-119.2"/>
				<line class="st1" x1="95.2" y1="-129.8" x2="90.6" y2="-127.1"/>
				<line class="st1" x1="97.5" y1="-128.5" x2="90.6" y2="-124.5"/>
				<line class="st1" x1="99.8" y1="-127.2" x2="90.6" y2="-121.8"/>
				<line class="st1" x1="102.1" y1="-125.8" x2="90.6" y2="-119.2"/>
				<line class="st1" x1="104.4" y1="-124.5" x2="90.6" y2="-116.5"/>
				<line class="st1" x1="104.4" y1="-111.2" x2="102.1" y2="-109.9"/>
				<line class="st1" x1="104.4" y1="-113.9" x2="99.8" y2="-111.2"/>
				<line class="st1" x1="104.4" y1="-116.5" x2="97.5" y2="-112.5"/>
				<line class="st1" x1="104.4" y1="-119.2" x2="95.2" y2="-113.8"/>
				<line class="st1" x1="104.4" y1="-121.8" x2="92.9" y2="-115.2"/>
				<polygon class="st1" points="104.4,-68.5 104.4,-92.5 83.6,-104.5 62.9,-92.5 62.9,-68.5 83.6,-56.5 				"/>
				<polygon class="st1" points="83.6,-51.2 109,-65.8 109,-95.2 83.6,-109.8 58.2,-95.2 58.2,-65.8 				"/>
				<polygon class="st1" points="83.6,-53.8 106.7,-67.2 106.7,-93.8 83.6,-107.2 60.5,-93.8 60.5,-67.2 				"/>
				<polyline class="st1" points="55.9,-99.2 81.3,-113.8 81.3,-130.9 				"/>
				<polyline class="st1" points="55.9,-101.8 79,-115.2 79,-130.9 				"/>
				<polyline class="st1" points="55.9,-104.5 76.7,-116.5 76.7,-130.9 				"/>
				<polyline class="st1" points="85.9,-130.9 85.9,-113.8 111.4,-99.2 				"/>
				<polyline class="st1" points="88.3,-130.9 88.3,-115.2 111.4,-101.8 				"/>
				<polyline class="st1" points="90.6,-130.9 90.6,-116.5 111.4,-104.5 				"/>
				<polyline class="st1" points="55.9,-61.8 81.3,-47.2 81.3,-30.1 				"/>
				<polyline class="st1" points="55.9,-59.2 79,-45.8 79,-30.1 				"/>
				<polyline class="st1" points="55.9,-56.5 76.7,-44.5 76.7,-30.1 				"/>
				<polyline class="st1" points="85.9,-30.1 85.9,-47.2 111.4,-61.8 				"/>
				<polyline class="st1" points="88.3,-30.1 88.3,-45.8 111.4,-59.2 				"/>
				<polyline class="st1" points="90.6,-30.1 90.6,-44.5 111.4,-56.5 				"/>
				<polygon class="st1" points="111.4,-64.5 111.4,-96.5 83.6,-112.5 55.9,-96.5 55.9,-64.5 83.6,-48.5 				"/>
				<polyline class="st1" points="83.6,-30.1 83.6,-48.5 111.4,-64.5 				"/>
				<polyline class="st1" points="55.9,-96.5 83.6,-112.5 83.6,-130.9 				"/>
				<polyline class="st1" points="83.6,-130.9 83.6,-112.5 111.4,-96.5 				"/>
				<polyline class="st1" points="55.9,-64.5 83.6,-48.5 83.6,-30.1 				"/>
				<polyline class="st1" points="83.6,-56.5 83.6,-80.5 104.4,-92.5 				"/>
				<polyline class="st1" points="85.9,-57.8 85.9,-79.2 104.4,-89.8 				"/>
				<polyline class="st1" points="88.3,-59.1 88.3,-77.8 104.5,-87.2 				"/>
				<polyline class="st1" points="90.6,-60.5 90.6,-76.5 104.5,-84.5 				"/>
				<line class="st1" x1="83.6" y1="-80.5" x2="62.9" y2="-92.5"/>
				<polyline class="st1" points="102.1,-93.8 83.6,-83.2 65.2,-93.8 				"/>
				<polyline class="st1" points="99.8,-95.2 83.6,-85.8 67.4,-95.2 				"/>
				<polyline class="st1" points="97.5,-96.5 83.6,-88.5 69.8,-96.5 				"/>
				<polyline class="st1" points="81.3,-57.8 81.3,-79.2 62.8,-89.8 				"/>
				<polyline class="st1" points="79,-59.1 79,-77.8 62.8,-87.2 				"/>
				<polyline class="st1" points="76.7,-60.5 76.7,-76.5 62.8,-84.5 				"/>
				<line class="st1" x1="58.2" y1="-31.2" x2="76.7" y2="-41.8"/>
				<line class="st1" x1="60.5" y1="-29.8" x2="76.7" y2="-39.2"/>
				<line class="st1" x1="62.9" y1="-28.5" x2="76.7" y2="-36.5"/>
				<polyline class="st1" points="111.4,-28.5 111.4,-32.5 114,-34 				"/>
				<line class="st1" x1="111.4" y1="-32.5" x2="90.6" y2="-44.5"/>
				<polyline class="st1" points="113.4,-36.3 111.4,-35.2 92.9,-45.9 				"/>
				<polyline class="st1" points="112.8,-38.7 111.4,-37.8 95.1,-47.2 				"/>
				<polyline class="st1" points="112.3,-41 111.4,-40.5 97.5,-48.5 				"/>
				<line class="st1" x1="109" y1="-31.2" x2="90.6" y2="-41.8"/>
				<line class="st1" x1="106.7" y1="-29.8" x2="90.5" y2="-39.2"/>
				<line class="st1" x1="104.4" y1="-28.5" x2="90.5" y2="-36.5"/>
				<polyline class="st1" points="55.9,-104.5 55.9,-128.5 59.4,-130.5 				"/>
				<polyline class="st1" points="58.2,-105.8 58.2,-127.2 63.7,-130.3 				"/>
				<polyline class="st1" points="60.5,-107.1 60.5,-125.8 68.1,-130.2 				"/>
				<polyline class="st1" points="62.9,-108.5 62.9,-124.5 72.4,-130 				"/>
				<line class="st1" x1="55.9" y1="-128.5" x2="52.5" y2="-130.5"/>
				<polyline class="st1" points="109,-105.8 109,-127.2 103.5,-130.3 				"/>
				<polyline class="st1" points="106.7,-107.1 106.7,-125.8 99.2,-130.2 				"/>
				<polyline class="st1" points="104.4,-108.5 104.4,-124.5 94.9,-130 				"/>
				<polyline class="st1" points="55.9,-28.5 55.9,-32.5 53.3,-34 				"/>
				<line class="st1" x1="55.9" y1="-32.5" x2="76.7" y2="-44.5"/>
				<polyline class="st1" points="53.9,-36.3 55.9,-35.2 74.4,-45.9 				"/>
				<polyline class="st1" points="54.5,-38.7 55.9,-37.8 72.1,-47.2 				"/>
				<polyline class="st1" points="55,-41 55.9,-40.5 69.8,-48.5 				"/>
				<polyline class="st1" points="111.4,-104.5 111.4,-128.5 114.8,-130.5 				"/>
				<line class="st1" x1="111.4" y1="-128.5" x2="107.9" y2="-130.5"/>
			</g>
			<g>
				<line class="st1" x1="55.9" y1="-40.5" x2="55.9" y2="-56.5"/>
				<polyline class="st1" points="30.5,-130.9 30.5,-113.8 55.9,-99.2 				"/>
				<polyline class="st1" points="32.8,-130.9 32.8,-115.2 55.9,-101.8 				"/>
				<polyline class="st1" points="35.1,-130.9 35.1,-116.5 55.9,-104.5 				"/>
				<polyline class="st1" points="30.5,-30.1 30.5,-47.2 55.9,-61.8 				"/>
				<polyline class="st1" points="32.8,-30.1 32.8,-45.8 55.9,-59.2 				"/>
				<polyline class="st1" points="35.1,-30.1 35.1,-44.5 55.9,-56.5 				"/>
				<polygon class="st1" points="55.9,-64.5 55.9,-96.5 28.2,-112.5 0.5,-96.5 0.5,-64.5 28.2,-48.5 				"/>
				<polyline class="st1" points="28.2,-30.1 28.2,-48.5 55.9,-64.5 				"/>
				<polyline class="st1" points="28.2,-130.9 28.2,-112.5 55.9,-96.5 				"/>
				<polyline class="st1" points="55.9,-28.5 55.9,-32.5 58.5,-34 				"/>
				<line class="st1" x1="55.9" y1="-32.5" x2="35.1" y2="-44.5"/>
				<polyline class="st1" points="58,-36.3 55.9,-35.2 37.5,-45.9 				"/>
				<polyline class="st1" points="57.4,-38.7 55.9,-37.8 39.7,-47.2 				"/>
				<polyline class="st1" points="56.8,-41 55.9,-40.5 42.1,-48.5 				"/>
				<polyline class="st1" points="55.9,-104.5 55.9,-128.5 59.4,-130.5 				"/>
				<line class="st1" x1="55.9" y1="-128.5" x2="52.5" y2="-130.5"/>
			</g>
			<g>
				<polyline class="st1" points="111.4,-3.2 136.8,-17.8 136.8,-34.9 				"/>
				<polyline class="st1" points="111.4,-5.8 134.4,-19.2 134.4,-34.9 				"/>
				<polyline class="st1" points="111.4,-8.5 132.1,-20.5 132.1,-34.9 				"/>
				<polyline class="st1" points="111.4,-0.5 139.1,-16.5 139.1,-34.9 				"/>
				<polyline class="st1" points="111.4,-8.5 111.4,-32.5 114.8,-34.5 				"/>
				<line class="st1" x1="111.4" y1="-32.5" x2="107.9" y2="-34.5"/>
			</g>
			<g>
				<line class="st1" x1="72.1" y1="-33.8" x2="76.7" y2="-31.1"/>
				<line class="st1" x1="69.8" y1="-32.5" x2="76.7" y2="-28.5"/>
				<line class="st1" x1="95.2" y1="-33.8" x2="90.6" y2="-31.1"/>
				<line class="st1" x1="97.5" y1="-32.5" x2="90.6" y2="-28.5"/>
				<polyline class="st1" points="55.9,-3.2 81.3,-17.8 81.3,-34.9 				"/>
				<polyline class="st1" points="55.9,-5.8 79,-19.2 79,-34.9 				"/>
				<polyline class="st1" points="55.9,-8.5 76.7,-20.5 76.7,-34.9 				"/>
				<polyline class="st1" points="85.9,-34.9 85.9,-17.8 111.4,-3.2 				"/>
				<polyline class="st1" points="88.3,-34.9 88.3,-19.2 111.4,-5.8 				"/>
				<polyline class="st1" points="90.6,-34.9 90.6,-20.5 111.4,-8.5 				"/>
				<polyline class="st1" points="55.9,-0.5 83.6,-16.5 83.6,-34.9 				"/>
				<polyline class="st1" points="83.6,-34.9 83.6,-16.5 111.4,-0.5 				"/>
				<polyline class="st1" points="55.9,-8.5 55.9,-32.5 59.4,-34.5 				"/>
				<polyline class="st1" points="58.2,-9.8 58.2,-31.2 63.7,-34.3 				"/>
				<polyline class="st1" points="60.5,-11.1 60.5,-29.8 68.1,-34.2 				"/>
				<polyline class="st1" points="62.9,-12.5 62.9,-28.5 72.4,-34 				"/>
				<line class="st1" x1="55.9" y1="-32.5" x2="52.5" y2="-34.5"/>
				<polyline class="st1" points="109,-9.8 109,-31.2 103.5,-34.3 				"/>
				<polyline class="st1" points="106.7,-11.1 106.7,-29.8 99.2,-34.2 				"/>
				<polyline class="st1" points="104.4,-12.5 104.4,-28.5 94.9,-34 				"/>
				<polyline class="st1" points="111.4,-8.5 111.4,-32.5 114.8,-34.5 				"/>
				<line class="st1" x1="111.4" y1="-32.5" x2="107.9" y2="-34.5"/>
			</g>
			<g>
				<polyline class="st1" points="30.5,-34.9 30.5,-17.8 55.9,-3.2 				"/>
				<polyline class="st1" points="32.8,-34.9 32.8,-19.2 55.9,-5.8 				"/>
				<polyline class="st1" points="35.1,-34.9 35.1,-20.5 55.9,-8.5 				"/>
				<polyline class="st1" points="28.2,-34.9 28.2,-16.5 55.9,-0.5 				"/>
				<polyline class="st1" points="55.9,-8.5 55.9,-32.5 59.4,-34.5 				"/>
				<line class="st1" x1="55.9" y1="-32.5" x2="52.5" y2="-34.5"/>
			</g>
		</g>
	</g>
</pattern>
<g>
	<g>
		<polygon class="st3" points="574.8,547.4 656.6,567.8 572.8,558.2 		"/>
	</g>
	
		<linearGradient id="SVGID_1_" gradientUnits="userSpaceOnUse" x1="781.6668" y1="100.1709" x2="781.6668" y2="484.0503" gradientTransform="matrix(-1 0 0 -1 1093.558 480)">
		<stop  offset="0" style="stop-color:#CCE0F4"/>
		<stop  offset="6.405089e-002" style="stop-color:#C3DCF2"/>
		<stop  offset="0.1706" style="stop-color:#A9D2EE"/>
		<stop  offset="0.3066" style="stop-color:#80C2E7"/>
		<stop  offset="0.4649" style="stop-color:#47ACDE"/>
		<stop  offset="0.5674" style="stop-color:#1E9CD7"/>
		<stop  offset="0.8652" style="stop-color:#0075BE"/>
		<stop  offset="0.9944" style="stop-color:#005B97"/>
	</linearGradient>
	<polygon class="st4" points="151.8,379.8 471.9,379.8 471.9,-4.1 151.8,-4.1 	"/>
	<g>
		<path class="st5" d="M335.4,273.7c6.3-8.8,10.3-18.4,9.2-28.6c-2.4-20.6-26-40-51.6-55.8c-8.8-5.5-18.1-10.9-25.4-17.1
			c-7.4-6.3-12.7-13.6-12-20.6c0.9-10.3,14.6-17.9,29.9-21.6c7-1.7,15.1-3.1,18.6-7.2c4.8-5.5-1.5-13.1-9.2-18.4
			S277.5,94,273.5,87.5c-0.9-1.3-1.5-2.8-2.6-4.1c-2.8-2.9-8.8-4.8-13.8-4.1c-5,0.6-8.3,3.5-7.6,6.8c0.6,2.8,3.7,5.2,6.6,7.4
			c5.9,4.6,11.8,9.2,17.7,13.8c2.9,2.4,6.3,5.2,5.3,7.7c-0.9,3.1-7,4.2-12.2,5c-10.7,1.8-20.6,5-27.5,10c-12,9-12.3,22.7-5.2,35
			c7.2,12.3,20.8,23.2,35,33.4c6.8,5,14,9.8,19.2,15.3c4.8,5.2,7.7,10.9,10,16.6c2.4,6.3,3.9,12.5,2.6,18.4
			c-2.4,12.9-16.8,24.1-11.2,37.4c12.3-4.6,25.2-8.7,38.9-12.2c2-0.6,5.2-0.7,6.3,0.6c2.4-5.2,5-10.3,7.4-15.5"/>
		<g>
			<path d="M337.6,268.9c-2.9,0-5.7,0-8.7,0.2s-5.7,0.6-8.7,0.9c-5.7,0.9-11.4,2.2-17,4.2l-0.2-0.6l5.2-2.9l-4.8,3.5l-0.2-0.6
				c5.3-2.6,10.9-4.4,16.6-5.7c2.9-0.7,5.7-1.3,8.7-1.7c2.9-0.6,5.9-0.7,8.8-1.1L337.6,268.9z"/>
		</g>
		<g>
			<path d="M342.8,258.4c0,0-2.4-0.2-5.7-0.2c-3.5,0-8.1,0-12.7,0.4c-4.6,0.4-9.2,1.1-12.5,2c-3.5,0.7-5.7,1.5-5.7,1.5
				s2.2-0.9,5.5-2c3.3-1.1,7.9-2.4,12.5-3.3c4.6-0.9,9.4-1.5,12.9-1.7c1.8-0.2,3.3-0.2,4.2-0.2c1.1,0,1.7,0,1.7,0L342.8,258.4z"/>
		</g>
		<g>
			<path d="M344.2,247.5c-2.9-0.2-5.9-0.2-8.8,0c-2.9,0-5.9,0.4-8.7,0.6c-5.9,0.6-11.6,1.7-17.3,3.1l-0.2-0.4l5-2l-4.8,2.4l-0.2-0.4
				c5.5-2,11.2-3.7,17.1-4.8c2.9-0.6,5.9-1.1,8.8-1.5c2.9-0.4,6.1-0.6,8.8-0.7L344.2,247.5z"/>
		</g>
		<g>
			<path d="M342.4,236.8c0,0-1.8,0-4.4,0c-2.8,0-6.3,0.2-10,0.6c-3.7,0.4-7.2,0.9-10,1.5s-4.4,1.1-4.4,1.1s1.7-0.7,4.2-1.7
				c2.6-0.9,6.1-1.8,9.8-2.8c3.5-0.9,7.2-1.5,10-1.8s4.6-0.6,4.6-0.6L342.4,236.8z"/>
		</g>
		<g>
			<path d="M336.3,228.3c-1.8,0-3.7,0.2-5.5,0.4c-1.8,0.2-3.7,0.4-5.5,0.6c-3.7,0.6-7.4,1.3-10.9,2.4l-0.9,0.2l0.7-0.6l2-1.8
				l-1.8,2.2l-0.2-0.4c3.3-1.7,7-2.9,10.5-4.1c1.8-0.6,3.7-1.1,5.5-1.5c1.8-0.4,3.7-0.7,5.5-1.1L336.3,228.3z"/>
		</g>
		<g>
			<path d="M326.4,216c-1.7,0.2-3.3,0.6-5,0.9c-1.7,0.4-3.3,0.9-4.8,1.3c-3.1,1.1-6.3,2.6-9.2,4.4l-0.4-0.4l2.8-1.8l-2.4,2.2
				l-0.4-0.4c2.6-2.4,5.5-4.2,8.7-5.9c1.7-0.7,3.1-1.5,4.8-2.2c1.7-0.7,3.3-1.3,5-1.8L326.4,216z"/>
		</g>
		<g>
			<path d="M316.6,206.8c0,0-0.2,0-0.6,0.2c-0.4,0-0.7,0.2-1.3,0.4c-1.1,0.4-2.6,0.9-3.9,1.7c-1.3,0.7-2.4,2-3.1,2.9
				s-0.9,1.8-0.9,1.8s0-0.2,0-0.6s0.2-0.9,0.4-1.5c0.4-1.3,1.3-2.8,2.4-4.1c1.1-1.3,2.6-2.4,3.7-3.1c0.6-0.4,1.1-0.7,1.5-0.9
				c0.4-0.2,0.6-0.4,0.6-0.4L316.6,206.8z"/>
		</g>
		<g>
			<path d="M305.3,198.1c0,0-0.2,0-0.6,0.2c-0.4,0.2-0.7,0.4-1.3,0.7c-1.1,0.6-2.6,1.5-3.9,2.6c-1.3,1.1-2.4,2.6-2.9,3.7
				c-0.7,1.1-0.9,2-0.9,2s0-0.9,0.4-2.2s1.1-3.1,2.2-4.6c1.1-1.7,2.4-2.9,3.5-3.9c0.6-0.6,1.1-0.9,1.3-1.1c0.4-0.2,0.6-0.4,0.6-0.4
				L305.3,198.1z"/>
		</g>
		<g>
			<path d="M293.9,190.9c-0.6,0.2-1.3,0.6-1.7,0.7c-0.6,0.2-1.1,0.6-1.7,0.9c-1.1,0.6-2,1.3-2.9,2.2c-1.8,1.7-3.3,3.9-3.9,6.3
				l-0.6-0.4c0.9-0.6,1.8-1.5,2.6-2.4c-0.4,1.1-1.1,2.2-2.2,2.9l-0.6,0.6v-0.9c0.2-2.8,1.3-5.3,2.9-7.6c0.7-1.1,1.8-2.2,2.8-3.1
				c0.6-0.6,1.1-0.9,1.7-1.3s1.1-0.7,1.7-1.1L293.9,190.9z"/>
		</g>
		<g>
			<path d="M274.8,178.8c0,0-0.2,0-0.6,0.2c-0.4,0.2-0.7,0.2-1.3,0.4c-1.1,0.4-2.4,1.1-3.5,2c-1.1,0.9-2,2.2-2.4,3.3
				c-0.2,0.6-0.4,1.1-0.4,1.3c0,0.4,0,0.6,0,0.6s0-0.2,0-0.6s0-0.9,0-1.5c0.2-1.3,0.7-2.9,1.7-4.4c0.9-1.5,2.2-2.8,3.3-3.5
				c0.6-0.4,1.1-0.7,1.3-0.9c0.4-0.2,0.6-0.4,0.6-0.4L274.8,178.8z"/>
		</g>
		<g>
			<path d="M263.3,169.4c0,0-0.2,0-0.6,0c-0.4,0-0.9,0.2-1.5,0.2c-1.1,0.2-2.8,0.6-4.2,1.3c-1.5,0.6-2.9,1.5-3.7,2.4
				c-0.4,0.4-0.7,0.9-0.9,1.1c-0.2,0.4-0.4,0.6-0.4,0.6s0-0.2,0.2-0.6c0.2-0.4,0.4-0.9,0.7-1.5c0.6-1.1,1.8-2.6,3.3-3.7
				s2.9-2,4.2-2.6c0.6-0.4,1.1-0.6,1.5-0.7c0.4-0.2,0.6-0.2,0.6-0.2L263.3,169.4z"/>
		</g>
		<g>
			<path d="M257.6,161.1c0,0-1.1,0-2.6,0.2c-1.5,0.2-3.7,0.4-5.7,0.9c-2,0.6-4.1,1.1-5.5,1.8c-1.5,0.6-2.4,1.3-2.4,1.3
				s0.7-0.7,2-1.7c1.3-0.9,3.1-2,5.2-2.9c2-0.9,4.1-1.7,5.5-2.2c1.7-0.6,2.6-0.7,2.6-0.7L257.6,161.1z"/>
		</g>
		<g>
			<path d="M255.6,151.3c-1.7-0.6-3.3-1.1-5-1.5c-1.7-0.6-3.3-0.9-5.2-1.5c-3.5-0.9-6.8-1.7-10.3-2.4v-0.4l2.4,0.9l-2.6-0.6v-0.4
				c3.5,0.2,7.2,0.4,10.7,0.7c1.8,0.2,3.5,0.4,5.3,0.6c1.8,0.2,3.5,0.6,5.3,0.7L255.6,151.3z"/>
		</g>
		<g>
			<path d="M257.4,145.8c0,0-0.7-0.4-2-1.3c-1.1-0.7-2.8-1.8-4.1-3.1c-1.5-1.3-2.6-2.6-3.5-3.7c-0.7-1.1-1.3-1.8-1.3-1.8
				s0.6,0.7,1.7,1.5c1.1,0.9,2.6,1.8,4.1,2.6s3.1,1.5,4.4,1.8c1.1,0.4,2,0.7,2,0.7L257.4,145.8z"/>
		</g>
		<g>
			<path d="M285.3,185.2c0,0-0.2,0-0.4,0.2c-0.4,0.2-0.6,0.2-1.1,0.4c-0.9,0.4-2,0.9-2.9,1.7c-0.9,0.7-1.7,1.8-2,2.9
				c-0.4,0.9-0.4,1.7-0.4,1.7s0-0.2-0.2-0.6c0-0.4-0.2-0.7-0.2-1.3c0-1.1,0.4-2.6,1.1-3.9c0.7-1.3,1.8-2.4,2.8-3.3
				c0.4-0.4,0.9-0.7,1.1-0.9c0.2-0.2,0.4-0.4,0.4-0.4L285.3,185.2z"/>
		</g>
		<g>
			<path d="M266.5,138.6c0,0-0.2-0.2-0.6-0.4c-0.4-0.2-0.7-0.7-1.5-1.1c-1.1-1.1-2.6-2.4-3.9-4.1c-1.3-1.5-2.4-3.3-2.9-4.8
				c-0.2-0.7-0.4-1.3-0.4-1.8c0-0.4,0-0.7,0-0.7s0,0.2,0,0.7c0.2,0.4,0.4,0.9,0.7,1.7c0.7,1.3,2,2.6,3.7,3.7c1.5,1.1,3.1,2,4.4,2.8
				c0.6,0.4,1.1,0.6,1.5,0.7c0.4,0.2,0.6,0.4,0.6,0.4L266.5,138.6z"/>
		</g>
		<g>
			<path d="M277.5,133.1c0,0-0.2-0.2-0.4-0.6s-0.6-0.7-1.1-1.3c-0.9-1.1-2-2.6-2.8-4.4c-0.9-1.7-1.5-3.5-1.3-5
				c0-0.7,0.2-1.3,0.4-1.7c0.2-0.4,0.4-0.6,0.4-0.6s0,0.2-0.2,0.6c0,0.4,0,0.9,0.2,1.5c0.2,1.3,1.1,2.8,2.2,4.1
				c1.1,1.3,2.4,2.4,3.5,3.1c0.6,0.4,0.9,0.7,1.3,0.9c0.4,0.2,0.6,0.4,0.6,0.4L277.5,133.1z"/>
		</g>
		<g>
			<path d="M292.1,129.6c0,0-0.2-0.2-0.4-0.6s-0.6-0.9-1.1-1.7c-0.9-1.3-2-3.3-2.8-5.2c-0.9-2-1.3-4.2-1.3-5.7c0-0.4,0-0.7,0.2-1.1
				c0-0.4,0.2-0.6,0.4-0.7c0.2-0.4,0.4-0.6,0.4-0.6s-0.2,0.2-0.2,0.7c0,0.2-0.2,0.6,0,0.7c0,0.4,0,0.7,0,1.1c0.2,1.5,1.1,3.3,2.2,5
				c1.1,1.7,2.6,3.1,3.7,4.2c0.6,0.6,0.9,0.9,1.3,1.3c0.4,0.4,0.6,0.6,0.6,0.6L292.1,129.6z"/>
		</g>
		<g>
			<path d="M305.2,120.3c0,0-0.6-0.2-1.7-0.6c-0.9-0.4-2.2-0.7-3.3-1.5c-2.4-1.1-4.6-2.6-4.6-2.6s2.4,1.1,5,1.7
				c1.3,0.4,2.6,0.6,3.5,0.7c0.9,0.2,1.7,0.2,1.7,0.2L305.2,120.3z"/>
		</g>
		<g>
			<path d="M298.9,108.4c-1.1,0-2,0-3.1,0.2s-2,0.4-3.1,0.6c-2,0.6-4.1,1.5-5.7,2.6v-0.2l0.9-0.6l-0.7,0.6v-0.2
				c1.7-1.3,3.5-2.6,5.5-3.5c0.9-0.4,2-0.7,3.1-1.1c1.1-0.4,2.2-0.6,3.3-0.6L298.9,108.4z"/>
		</g>
		<g>
			<path d="M288.2,101.2c-1.1,0.2-2,0.6-3.1,0.9c-1.1,0.4-2,0.9-2.9,1.5c-1.8,1.1-3.7,2.6-5.2,4.2h-0.2l0.7-0.7l-0.6,0.7h-0.2
				c1.3-1.8,2.8-3.5,4.8-5c0.9-0.7,1.8-1.3,2.9-1.8c0.9-0.6,2.2-1.1,3.1-1.5L288.2,101.2z"/>
		</g>
		<g>
			<path d="M276.8,92.3c-0.9,0.2-1.8,0.4-2.6,0.7c-0.9,0.4-1.7,0.7-2.4,1.3c-1.5,0.9-2.9,2.4-4.1,3.9h-0.2l0.6-0.7l-0.4,0.7h-0.2
				c0.9-1.7,2-3.3,3.5-4.6c0.7-0.7,1.5-1.3,2.4-1.7c0.9-0.6,1.8-0.9,2.8-1.3L276.8,92.3z"/>
		</g>
		<g>
			<path d="M271.6,84.2c-0.9,0.2-1.8,0.4-2.6,0.7c-0.9,0.4-1.7,0.7-2.4,1.3c-1.5,0.9-2.9,2.4-4.1,3.9h-0.2l0.6-0.7l-0.4,0.7h-0.2
				c0.9-1.7,2-3.3,3.5-4.6c0.7-0.7,1.5-1.3,2.4-1.7c0.9-0.6,1.8-0.9,2.8-1.3L271.6,84.2z"/>
		</g>
	</g>
	<path class="st6" d="M242.9,377.8c-1.1-17.1-0.6-37.2,0.4-54.9c3.5-63.9,10.9-117.9,20.5-146c-7.6-14.4-15.8,12.5-21,51.6
		c-5.3,40.5-8.3,96.4-6.6,149.1c2-0.6,4.1-1.1,5.9-1.5c0-8.3,0.2-16.4,0.2-24.7"/>
	<path class="st7" d="M238.1,377.8c-0.9-26-0.4-56.2,0.4-82.9c2.8-96.6,8.7-178,16-220.4c-5.9-21.7-12.3,19-16.4,78
		c-4.2,61.2-6.5,145.8-5.2,225.2c1.5-0.7,3.1-1.7,4.6-2.4c0-12.5,0.2-24.9,0.2-37.4"/>
	<path class="st7" d="M229.8,385.9c-0.9-12.7-0.4-27.5,0.4-40.5c2.6-47.2,8.1-87,15.1-107.6c-5.5-10.5-11.6,9.2-15.5,38.1
		c-3.9,29.9-6.1,71.1-5,109.8c1.5-0.4,2.9-0.7,4.4-1.1c0-6.1,0.2-12.2,0.2-18.2"/>
	<path class="st6" d="M227.9,372.1c-0.9-13.1-0.4-28.4,0.4-41.8c2.6-48.7,8.3-89.9,15.5-111.1c-5.7-10.9-12,9.6-16,39.4
		c-4.1,31-6.3,73.5-5.2,113.5c1.5-0.4,2.9-0.7,4.6-1.1c0-6.3,0.2-12.5,0.2-18.8"/>
	<path class="st7" d="M239.9,376.7c5.3-8.8,2.6-19.4-1.8-28.6c-15.8-33.2-50.7-61.2-94.4-75.7c35-7.4,73.2,6.5,97.1,26.7
		c24.9,21,38.3,50.1,31,77.4c-9.2-0.2-18.4-0.6-27.5-0.7c-0.4-4.2-0.7-8.5-1.1-12.9"/>
	<path class="st8" d="M262.4,376.7c4.2-13.5,2-29.1-1.5-43.1c-12.5-50.1-39.8-92.3-74.1-114.3c27.6-11.2,57.5,9.8,76.3,40.5
		c19.5,31.7,30.2,75.6,24.3,116.8c-7.2-0.4-14.4-0.7-21.6-1.3c-0.4-6.5-0.6-12.9-0.9-19.4"/>
	<path class="st6" d="M343.5,374.9c-8.8-6.6-4.1-14.2,3.1-21c25.8-24.5,82.6-45.2,153.5-55.8c-57.1-5.5-119.1,4.8-157.8,19.7
		c-40.4,15.5-62.5,36.9-50.3,57.1c14.9-0.2,29.9-0.4,44.8-0.6c0.6-3.1,1.3-6.3,1.8-9.4"/>
	<path class="st7" d="M322.3,376.7c-5.3-8.8-2.6-19.4,1.8-28.6c15.8-33.2,50.7-61.2,94.4-75.7c-35-7.4-73.2,6.5-97.1,26.7
		c-24.9,21-38.3,50.1-31,77.4c9.2-0.2,18.4-0.6,27.5-0.7c0.4-4.2,0.7-8.5,1.1-12.9"/>
	<path class="st9" d="M337.8,374.9c2.4-7.4,1.1-15.8-0.7-23.4c-6.8-27.3-21.6-50.1-40.2-62.1c14.9-6.1,31.1,5.3,41.5,21.9
		c10.5,17.3,16.4,41.1,13.3,63.4c-3.9-0.2-7.7-0.4-11.8-0.7c-0.2-3.5-0.4-7-0.6-10.5"/>
	<path class="st7" d="M373.7,378.5c6.5-10.7,2.9-23-2.2-34.1c-19-39.6-60.8-73.2-113-90.7c42-8.8,87.5,7.7,116.1,32.1
		c29.7,25.2,45.9,59.9,37,92.5c-11.1-0.4-21.9-0.7-33-0.9c-0.4-5.2-0.9-10.1-1.3-15.3"/>
	<path class="st8" d="M400.8,378.5c5.2-16,2.4-34.8-1.8-51.6C384,267,351.2,216.4,310.3,190c33-13.5,68.7,11.8,91.2,48.5
		c23.2,38,36.1,90.5,29.1,139.9c-8.7-0.6-17.3-0.9-25.8-1.5c-0.4-7.7-0.7-15.5-1.1-23.2"/>
	<path class="st6" d="M315.9,380.9c4.1-6.6,1.8-14.2-1.5-21c-11.6-24.5-37.4-45.2-69.7-55.8c25.8-5.5,54,4.8,71.5,19.7
		c18.2,15.5,28.4,36.9,22.9,56.9c-6.8-0.2-13.5-0.4-20.3-0.6c-0.2-3.1-0.6-6.3-0.7-9.4"/>
	<path class="st7" d="M332.4,380.9c3.1-10,1.5-21.6-1.1-31.7c-9.2-36.9-29.3-68.2-54.7-84.2c20.3-8.3,42.4,7.2,56.2,29.9
		c14.4,23.4,22.3,55.7,17.9,86.1c-5.3-0.4-10.7-0.6-15.8-0.9c-0.2-4.8-0.4-9.6-0.7-14.2"/>
	<path class="st7" d="M293.9,373.7c4.1-6.8,1.8-14.7-1.5-21.7c-12-25.2-38.7-46.6-71.9-57.7c26.7-5.7,55.8,5,73.9,20.5
		c19,16,29.3,38.1,23.6,59c-7-0.2-14-0.4-21-0.6c-0.4-3.3-0.6-6.5-0.9-9.8"/>
	<path class="st8" d="M311.1,373.7c3.3-10.3,1.5-22.3-1.1-32.8c-9.4-38.1-30.4-70.4-56.6-87.2c21-8.7,43.9,7.6,58.1,30.8
		c14.9,24.1,23,57.7,18.6,89c-5.5-0.4-11.1-0.6-16.4-0.9c-0.2-5-0.4-9.8-0.7-14.7"/>
	<path class="st7" d="M356.8,373.7c-4.1-6.8-1.8-14.7,1.5-21.7c12-25.2,38.7-46.6,71.9-57.7c-26.7-5.7-55.8,5-73.9,20.5
		c-19,16-29.3,38.1-23.6,59c7-0.2,14-0.4,21-0.6c0.4-3.3,0.6-6.5,0.9-9.8"/>
	<path class="st9" d="M368.6,372.3c1.8-5.5,0.7-12-0.6-17.9c-5.2-20.8-16.6-38.3-30.6-47.4c11.4-4.6,23.8,4.1,31.5,16.8
		c8.1,13.1,12.5,31.3,10.1,48.3c-2.9-0.2-5.9-0.4-9-0.6c-0.2-2.6-0.2-5.3-0.4-7.9"/>
	<path class="st7" d="M396,375.2c5-8.1,2.2-17.7-1.7-26c-14.4-30.2-46.3-55.8-86.1-69.1c32.1-6.8,66.7,5.9,88.5,24.5
		c22.7,19.2,35,45.7,28.2,70.6c-8.3-0.2-16.8-0.6-25.1-0.7c-0.4-3.9-0.7-7.7-1.1-11.6"/>
	<path class="st8" d="M416.7,375.2c3.9-12.3,1.8-26.5-1.3-39.3c-11.4-45.7-36.3-84.2-67.6-104.3c25.1-10.3,52.3,9,69.5,36.9
		c17.7,28.9,27.5,68.9,22.1,106.5c-6.6-0.4-13.1-0.7-19.7-1.1c-0.2-5.9-0.6-11.8-0.7-17.7"/>
	<path class="st7" d="M364.5,377.1c2.4-7.6,1.1-16.4-0.9-24.1c-7-28.2-22.5-52-41.6-64.3c15.5-6.3,32.3,5.5,42.8,22.7
		c10.9,17.9,17,42.6,13.6,65.6c-4.1-0.2-8.1-0.4-12.2-0.7c-0.2-3.7-0.4-7.2-0.6-10.9"/>
	<path class="st7" d="M387.5,373.6c-4.2-13.5-2-29.1,1.5-43.1c12.5-50.1,39.8-92.3,74.1-114.3c-27.6-11.2-57.5,9.8-76.3,40.5
		c-19.5,31.7-30.2,75.6-24.3,116.8c7.2-0.4,14.4-0.7,21.6-1.3c0.4-6.5,0.6-12.9,0.9-19.4"/>
	<path class="st7" d="M306.5,371.7c8.8-6.6,4.1-14.2-3.1-21c-25.8-24.5-82.6-45.2-153.5-55.8c57.1-5.5,119.1,4.8,157.8,19.7
		c40.4,15.5,62.5,36.9,50.3,57.1c-14.9-0.2-29.9-0.4-44.8-0.6c-0.6-3.1-1.3-6.3-1.8-9.4"/>
	<path class="st6" d="M327.6,373.6c5.3-8.8,2.6-19.4-1.8-28.6c-15.8-33.2-50.7-61.2-94.4-75.7c35-7.4,73.2,6.5,97.1,26.7
		c24.9,21,38.3,50.1,31,77.4c-9.2-0.2-18.4-0.6-27.5-0.7c-0.4-4.2-0.7-8.5-1.1-12.9"/>
	<path class="st9" d="M312.2,371.7c-2.4-7.4-1.1-15.8,0.7-23.4c6.8-27.3,21.6-50.1,40.2-62.1c-14.9-6.1-31.1,5.3-41.5,21.9
		c-10.5,17.3-16.4,41.1-13.3,63.4c3.9-0.2,7.7-0.4,11.8-0.7c0.2-3.5,0.4-7,0.6-10.5"/>
	<path class="st7" d="M226.7,373.6c-3.9-6.5-1.8-14,1.3-20.6c11.4-24.1,36.9-44.4,68.6-54.9c-25.4-5.3-53.1,4.8-70.4,19.5
		c-18.1,15.3-27.8,36.3-22.5,56.2c6.6-0.2,13.3-0.4,19.9-0.6c0.2-3.1,0.6-6.3,0.7-9.2"/>
	<path class="st6" d="M148,373.2c-10.5-7.9-5-17.1,3.7-25.2c30.8-29.3,98.8-54,183.7-66.9c-68.2-6.6-142.5,5.7-188.9,23.6
		c-48.3,18.6-74.6,44.2-60.3,68.4c17.9-0.2,35.8-0.6,53.6-0.7c0.7-3.7,1.5-7.6,2.2-11.2"/>
	<path class="st8" d="M180.2,373.2c-3.5-5.7-1.7-12.5,1.3-18.6c10.3-21.6,33-39.8,61.4-49.2c-22.9-4.8-47.5,4.2-63,17.3
		c-16,13.6-24.9,32.4-20.1,50.3c5.9-0.2,12-0.4,17.9-0.6c0.2-2.8,0.6-5.5,0.7-8.3"/>
	<path class="st7" d="M349.4,377.8c-4.1-6.6-1.8-14.2,1.5-21c11.6-24.5,37.4-45.2,69.7-55.8c-25.8-5.5-54,4.8-71.5,19.7
		c-18.2,15.5-28.4,36.9-22.9,56.9c6.8-0.2,13.5-0.4,20.3-0.6c0.2-3.1,0.6-6.3,0.7-9.4"/>
	<path class="st8" d="M332.8,377.8c-3.1-10-1.5-21.6,1.1-31.7c9.2-36.9,29.3-68.2,54.7-84.2c-20.3-8.3-42.4,7.2-56.2,29.9
		c-14.4,23.4-22.3,55.7-17.9,86.1c5.3-0.4,10.7-0.6,15.8-0.9c0.2-4.8,0.4-9.6,0.7-14.2"/>
	<path class="st7" d="M288.6,377.8c4.1-6.6,1.8-14.2-1.5-21c-11.6-24.5-37.4-45.2-69.7-55.8c25.8-5.5,54,4.8,71.5,19.7
		c18.2,15.5,28.4,36.9,22.9,56.9c-6.8-0.2-13.5-0.4-20.3-0.6c-0.2-3.1-0.6-6.3-0.7-9.4"/>
	<path class="st7" d="M250.6,379.1c-4.8-7.9-2.2-17,1.7-25.1c14-29.3,44.8-54,83.3-66.7c-31-6.6-64.5,5.7-85.7,23.6
		c-21.9,18.6-33.9,44.2-27.3,68.2c8.1-0.2,16.2-0.6,24.3-0.7c0.4-3.7,0.7-7.6,0.9-11.2"/>
	<path class="st8" d="M230.7,379.1c-3.7-11.8-1.7-25.8,1.3-38c11.1-44.2,35.2-81.5,65.4-100.8c-24.3-10-50.7,8.7-67.3,35.8
		c-17.1,28-26.5,66.7-21.4,103c6.5-0.4,12.7-0.7,19.2-1.1c0.2-5.7,0.6-11.4,0.7-17.1"/>
	<path class="st6" d="M340.5,370.6c-4.1-6.8-1.8-14.7,1.5-21.7c12-25.2,38.7-46.6,71.9-57.7c-26.7-5.7-55.8,5-73.9,20.5
		c-19,16-29.3,38.1-23.6,59c7-0.2,14-0.4,21-0.6c0.4-3.3,0.6-6.5,0.9-9.8"/>
	<path class="st7" d="M323.2,370.6c-3.3-10.3-1.5-22.3,1.1-32.8c9.4-38.1,30.4-70.4,56.6-87.2c-21-8.7-43.9,7.6-58.1,30.8
		c-14.9,24.1-23,57.7-18.6,89c5.5-0.4,11.1-0.6,16.4-0.9c0.2-5,0.4-9.8,0.7-14.7"/>
	<path class="st6" d="M277.7,370.6c4.1-6.8,1.8-14.7-1.5-21.7c-12-25.2-38.7-46.6-71.9-57.7c26.7-5.7,55.8,5,73.9,20.5
		c19,16,29.3,38.1,23.6,59c-7-0.2-14-0.4-21-0.6c-0.4-3.3-0.6-6.5-0.9-9.8"/>
	<path class="st9" d="M265.7,369.1c-1.8-5.5-0.7-12,0.6-17.9c5.2-20.8,16.6-38.3,30.6-47.4c-11.4-4.6-23.8,4.1-31.5,16.8
		c-8.1,13.1-12.5,31.3-10.1,48.3c2.9-0.2,5.9-0.4,9-0.6c0.2-2.6,0.2-5.3,0.4-7.9"/>
	<path class="st6" d="M140.8,370.4c-8.1-6.1-3.7-13.1,2.8-19.2c23.4-22.3,75.4-41.1,140.1-50.9c-52-5-108.5,4.4-143.9,18.1
		c-36.9,14.2-56.9,33.7-45.9,52c13.6-0.2,27.3-0.4,40.9-0.6c0.6-2.9,1.1-5.7,1.7-8.7"/>
	<path class="st8" d="M281.6,373.9c-2.4-7.6-1.1-16.4,0.9-24.1c7-28.2,22.5-52,41.6-64.3c-15.5-6.3-32.3,5.5-42.8,22.7
		c-10.9,17.9-17,42.6-13.6,65.6c4.1-0.2,8.1-0.4,12.2-0.7c0.2-3.7,0.4-7.2,0.6-10.9"/>
	<path class="st7" d="M218.9,374.9c-3.7-6.1-1.7-12.9,1.3-19.2c10.7-22.3,34.1-41.1,63.4-50.9c-23.6-5-49.2,4.4-65.2,18.1
		c-16.6,14.2-25.8,33.7-20.8,52c6.1-0.2,12.3-0.4,18.4-0.6c0.2-2.9,0.6-5.7,0.7-8.7"/>
	<path class="st8" d="M203.8,374.9c-2.8-9-1.3-19.5,0.9-28.9c8.3-33.7,26.7-62.1,49.8-76.8c-18.6-7.6-38.7,6.6-51.2,27.3
		c-13.1,21.4-20.3,50.9-16.4,78.5c4.8-0.2,9.8-0.6,14.6-0.7c0.2-4.4,0.4-8.7,0.6-13.1"/>
	<path class="st7" d="M183.7,379.8c-5.3-8.8-2.6-19.4,1.8-28.6c15.8-33.2,50.7-61.2,94.4-75.7c-35-7.4-73.2,6.5-97.1,26.7
		c-24.9,21-38.3,50.1-31,77.4c9.2-0.2,18.4-0.6,27.5-0.7c0.4-4.2,0.7-8.5,1.1-12.9"/>
	<path class="st7" d="M425.5,377.2c2.4-13.1,1.1-28.2-0.7-41.6C418,287.1,403,246,384.2,224.8c15.1-10.9,31.3,9.6,41.6,39.3
		c10.7,30.8,16.4,73.2,13.3,113.2c-3.9-0.4-7.9-0.7-11.8-1.1c-0.2-6.3-0.4-12.5-0.6-18.8"/>
	<path class="st8" d="M256.3,385c4.2-8.8,2-19-1.5-28.2c-12.5-32.8-39.8-60.4-74.1-74.6c27.6-7.4,57.5,6.5,76.3,26.4
		c19.5,20.8,30.2,49.4,24.3,76.3c-7.2-0.2-14.4-0.6-21.6-0.7c-0.4-4.2-0.6-8.5-0.9-12.7"/>
	<path class="st7" d="M367.6,386.1c6.5-7,2.9-15.1-2.2-22.3c-19-26-60.8-47.9-113-59.2c42-5.9,87.5,5.2,116.1,21
		c29.7,16.4,45.9,39.1,37,60.4c-11.1-0.2-21.9-0.4-33-0.6c-0.4-3.3-0.9-6.6-1.3-10"/>
	<path class="st8" d="M394.7,386.1c5.2-10.5,2.4-22.9-1.8-33.7c-14.9-39.3-47.7-72.2-88.6-89.4c33-8.8,68.7,7.7,91.2,31.7
		c23.2,24.9,36.1,59.2,29.1,91.4c-8.7-0.4-17.3-0.6-25.8-0.9c-0.4-5-0.7-10.1-1.1-15.1"/>
	<path class="st8" d="M305.2,383c3.3-6.6,1.5-14.6-1.1-21.4c-9.4-24.9-30.4-46.1-56.6-56.9c21-5.5,43.9,5,58.1,20.1
		c14.9,15.8,23,37.6,18.6,58.2c-5.5-0.2-11.1-0.4-16.4-0.6c-0.2-3.1-0.4-6.5-0.7-9.6"/>
	<path class="st8" d="M410.6,384.1c3.9-8.1,1.8-17.3-1.3-25.6c-11.4-29.9-36.3-55.1-67.6-68.2c25.1-6.6,52.3,5.9,69.5,24.1
		c17.7,19,27.5,45,22.1,69.7c-6.6-0.2-13.1-0.6-19.7-0.7c-0.2-3.9-0.6-7.7-0.7-11.6"/>
	<path class="st6" d="M256.5,386.1c-2-6.6-0.9-14.2,0.7-21c6.3-24.3,19.7-45,36.9-55.7c-13.6-5.5-28.6,4.8-37.8,19.7
		c-9.6,15.5-14.9,36.9-12.2,56.9c3.5-0.2,7.2-0.4,10.7-0.6c0.2-3.1,0.4-6.3,0.4-9.4"/>
	<path class="st7" d="M247.7,386.1c-1.7-10-0.7-21.4,0.6-31.7c4.8-36.9,15.5-68,28.9-84c-10.7-8.3-22.5,7.2-29.7,29.7
		c-7.6,23.4-11.8,55.7-9.4,85.9c2.8-0.4,5.7-0.6,8.5-0.9c0.2-4.8,0.2-9.6,0.4-14.2"/>
	<path class="st8" d="M226.3,389.2c-1.3-7.4-0.6-15.8,0.4-23.4c3.5-27.1,11.4-50.1,21.4-61.9c-7.9-6.1-16.6,5.3-21.9,21.9
		c-5.5,17.3-8.7,40.9-7,63.4c2-0.2,4.1-0.4,6.3-0.7c0-3.5,0.2-7,0.2-10.5"/>
	<path class="st7" d="M222.6,383.9c-1.3-7.6-0.6-16.4,0.4-24.1c3.7-28,11.8-51.8,22.1-64.1c-8.1-6.3-17.1,5.5-22.7,22.7
		c-5.7,17.9-9,42.4-7.2,65.4c2.2-0.2,4.2-0.4,6.5-0.7c0-3.7,0.2-7.2,0.2-10.9"/>
	<pattern  id="SVGID_2_" xlink:href="#SVGID_3_" patternTransform="matrix(2.3997 0 0 -2.3997 14740.4541 -32682.0918)">
	</pattern>
	<path class="st10" d="M192.2,29.1H436v287.5H192.2V29.1z M66.1,550.5H570v-586H66.1V550.5z"/>
	<g>
		
			<radialGradient id="SVGID_4_" cx="463.6765" cy="-56.3387" r="33.5753" gradientTransform="matrix(9.161798e-002 0.9958 -1.0832 9.965591e-002 451.7362 82.8547)" gradientUnits="userSpaceOnUse">
			<stop  offset="0" style="stop-color:#FFFFFF"/>
			<stop  offset="8.510865e-002" style="stop-color:#FFEDD8"/>
			<stop  offset="0.2082" style="stop-color:#FFD5A7"/>
			<stop  offset="0.3345" style="stop-color:#FFC17D"/>
			<stop  offset="0.462" style="stop-color:#FFB05B"/>
			<stop  offset="0.591" style="stop-color:#FFA340"/>
			<stop  offset="0.7222" style="stop-color:#FF9A2D"/>
			<stop  offset="0.8568" style="stop-color:#FF9522"/>
			<stop  offset="1" style="stop-color:#FF931E"/>
		</radialGradient>
		<path class="st11" d="M526.9,544l1.7,18.6c0.2,2.2,2.2,4.2,4.4,3.9l53.6-4.8c2.2-0.2,3.9-2.2,3.7-4.4l-1.7-18.1
			c-0.2-2.2-2.2-3.9-4.4-3.7l-33,3.1l-12.7-31.5l-17.7,6.1l10.5,25.1h-0.7C528.2,538.7,526.7,541.8,526.9,544z"/>
		
			<radialGradient id="SVGID_5_" cx="945.4822" cy="256.7833" r="33.5796" gradientTransform="matrix(-5.875301e-002 0.9983 1.0859 6.390760e-002 226.5749 -419.6414)" gradientUnits="userSpaceOnUse">
			<stop  offset="0" style="stop-color:#FFFFFF"/>
			<stop  offset="8.510865e-002" style="stop-color:#FFEDD8"/>
			<stop  offset="0.2082" style="stop-color:#FFD5A7"/>
			<stop  offset="0.3345" style="stop-color:#FFC17D"/>
			<stop  offset="0.462" style="stop-color:#FFB05B"/>
			<stop  offset="0.591" style="stop-color:#FFA340"/>
			<stop  offset="0.7222" style="stop-color:#FF9A2D"/>
			<stop  offset="0.8568" style="stop-color:#FF9522"/>
			<stop  offset="1" style="stop-color:#FF931E"/>
		</radialGradient>
		<path class="st12" d="M478.4,545.5l-1.1,18.2c-0.2,2.2-2,4.1-4.2,3.9l-53.8-3.1c-2.2-0.2-3.9-2-3.9-4.2l1.1-18.2
			c0.2-2.2,2-4.1,4.2-3.9l33.2,2l11.6-31.9l17.9,6.6l-9.8,26.5h0.7C476.9,541.5,478.6,543.3,478.4,545.5z"/>
		<polygon class="st13" points="454.3,507.7 484.8,521.4 507.3,470.7 520.8,529.8 553.4,522.3 536.1,446.5 516.2,451 516.5,450.2 
			486,436.6 		"/>
		
			<radialGradient id="SVGID_6_" cx="345.5137" cy="376.2583" r="14.2183" gradientTransform="matrix(-1.3937 -0.4477 0.3393 -1.0564 821.1048 794.6279)" gradientUnits="userSpaceOnUse">
			<stop  offset="0" style="stop-color:#FFFFFF"/>
			<stop  offset="8.510865e-002" style="stop-color:#FFEDD8"/>
			<stop  offset="0.2082" style="stop-color:#FFD5A7"/>
			<stop  offset="0.3345" style="stop-color:#FFC17D"/>
			<stop  offset="0.462" style="stop-color:#FFB05B"/>
			<stop  offset="0.591" style="stop-color:#FFA340"/>
			<stop  offset="0.7222" style="stop-color:#FF9A2D"/>
			<stop  offset="0.8568" style="stop-color:#FF9522"/>
			<stop  offset="1" style="stop-color:#FF931E"/>
		</radialGradient>
		<path class="st14" d="M456.5,239c-3.5,10.9-1.5,21.2,4.4,23c5.9,1.8,13.5-5.3,17-16.2s1.5-21.2-4.4-23
			C467.5,221,460,228.2,456.5,239z"/>
		
			<radialGradient id="SVGID_7_" cx="94.0821" cy="209.4166" r="62.8563" gradientTransform="matrix(-0.9754 0.2205 -0.2205 -0.9754 664.8114 459.2242)" gradientUnits="userSpaceOnUse">
			<stop  offset="0" style="stop-color:#FFFFFF"/>
			<stop  offset="8.510865e-002" style="stop-color:#FFEDD8"/>
			<stop  offset="0.2082" style="stop-color:#FFD5A7"/>
			<stop  offset="0.3345" style="stop-color:#FFC17D"/>
			<stop  offset="0.462" style="stop-color:#FFB05B"/>
			<stop  offset="0.591" style="stop-color:#FFA340"/>
			<stop  offset="0.7222" style="stop-color:#FF9A2D"/>
			<stop  offset="0.8568" style="stop-color:#FF9522"/>
			<stop  offset="1" style="stop-color:#FF931E"/>
		</radialGradient>
		<circle class="st15" cx="526.9" cy="275.7" r="62.8"/>
		
			<ellipse transform="matrix(0.9999 -1.612497e-002 1.612497e-002 0.9999 -3.9794 8.1482)" class="st16" cx="503.3" cy="250.8" rx="22.1" ry="22.1"/>
		<ellipse transform="matrix(0.2233 -0.9748 0.9748 0.2233 138.5531 686.0718)" cx="499.8" cy="256.1" rx="15.5" ry="13.6"/>
		
			<radialGradient id="SVGID_8_" cx="251.2761" cy="379.3992" r="14.2485" gradientTransform="matrix(-1.28 -0.5873 0.4701 -1.0246 736.0316 829.6521)" gradientUnits="userSpaceOnUse">
			<stop  offset="0" style="stop-color:#FFFFFF"/>
			<stop  offset="8.510865e-002" style="stop-color:#FFEDD8"/>
			<stop  offset="0.2082" style="stop-color:#FFD5A7"/>
			<stop  offset="0.3345" style="stop-color:#FFC17D"/>
			<stop  offset="0.462" style="stop-color:#FFB05B"/>
			<stop  offset="0.591" style="stop-color:#FFA340"/>
			<stop  offset="0.7222" style="stop-color:#FF9A2D"/>
			<stop  offset="0.8568" style="stop-color:#FF9522"/>
			<stop  offset="1" style="stop-color:#FF931E"/>
		</radialGradient>
		<path class="st17" d="M583.1,288.8c-4.8,10.5-4.4,21.2,1.1,23.6c5.3,2.4,13.6-4.1,18.6-14.6c4.8-10.5,4.4-21.2-1.1-23.6
			C596.2,271.8,587.9,278.3,583.1,288.8z"/>
		
			<ellipse transform="matrix(0.9999 -1.612497e-002 1.612497e-002 0.9999 -4.2182 8.7535)" class="st16" cx="540.7" cy="266" rx="22.1" ry="22.1"/>
		
			<ellipse transform="matrix(2.975227e-002 -0.9996 0.9996 2.975227e-002 251.6902 798.3302)" cx="537.1" cy="269.5" rx="15.5" ry="13.6"/>
		<path class="st18" d="M571.1,226.5c-0.4-2.2-1.1-4.4-2-6.6c-0.4-1.1-0.9-2.4-2-3.7c-2.2-2.8-7-5.7-9.2-5.5"/>
		<path class="st18" d="M514,204c-1.8-3.1-4.2-6.1-7.2-8.5c-0.7-0.7-1.5-1.3-2.6-1.5c-1.1-0.2-2.4,0.2-3.5,0.7
			c-4.1,2-7,6.3-7.6,10.7"/>
		
			<ellipse transform="matrix(2.975227e-002 -0.9996 0.9996 2.975227e-002 242.8565 803.0956)" class="st16" cx="535.1" cy="276.5" rx="5.5" ry="5.9"/>
		
			<ellipse transform="matrix(0.2233 -0.9748 0.9748 0.2233 129.8442 687.9946)" class="st16" cx="496.6" cy="262.5" rx="5.5" ry="5.9"/>
		
			<ellipse transform="matrix(0.1458 -0.9893 0.9893 0.1458 137.2755 761.6367)" class="st19" cx="509.7" cy="301.3" rx="12.5" ry="18.2"/>
		<g>
			<path d="M541.6,211.6c0-0.7,0.2-1.7,0.4-2.4c0.2-0.7,0.4-1.7,0.6-2.4c0.6-1.5,1.3-2.9,2.2-4.2c2-2.6,5.2-4.2,8.3-4.1h0.2H553
				l-0.7,0.2l0.7-0.4l0,0c-1.5,0-2.9,0.6-4.2,1.3s-2.4,1.8-3.1,3.1c-0.7,1.3-1.3,2.6-1.7,4.1c-0.2,0.7-0.2,1.5-0.4,2.2
				c0,0.7,0,1.5,0,2.2L541.6,211.6z"/>
		</g>
		<g>
			<path d="M547.3,186.1c0,0,0,0,0.2,0.2c0.2,0.2,0.2,0.4,0.4,0.4c0.2,0.4,0.2,0.6,0.2,0.9c0,0.6-0.2,0.7-0.4,1.1
				c-0.2,0.4-0.4,0.6-0.6,0.9l-0.6,0.6c-0.4,0.4-0.6,0.7-0.9,1.3c-0.4,0.4-0.6,0.9-0.9,1.3c-1.1,1.8-2,3.7-2.8,5.5
				c-0.7,2-1.5,3.9-2.2,5.9c-0.6,2-1.5,4.1-1.7,6.1h-0.9c0-3.5-0.7-7-2-10.3c-1.3-3.3-3.1-6.5-5.7-8.8c2.8,2.4,4.6,5.3,6.3,8.7
				c1.5,3.3,2.4,6.8,2.6,10.5h-0.9c0-1.1,0.2-2.2,0.6-3.3l0.9-3.1c0.6-2,1.3-4.1,2-6.1c0.7-2,1.7-4.1,2.8-5.9
				c0.2-0.6,0.6-0.9,0.9-1.5c0.4-0.4,0.6-0.9,0.9-1.3l0.6-0.6c0.2-0.2,0.2-0.4,0.4-0.6c0-0.2,0.2-0.4,0.2-0.4l0,0c0,0,0,0,0.2,0.2
				c0.2,0,0,0,0,0L547.3,186.1z"/>
		</g>
		<g>
			<path d="M532.9,208.8c0,0,0-0.2-0.2-0.4c0-0.2-0.2-0.2-0.2-0.4c0-0.2-0.2-0.4-0.4-0.6c-0.6-0.7-1.8-1.5-2.9-2
				c-1.3-0.7-2.6-1.3-3.3-2c-0.4-0.4-0.7-0.7-0.9-0.9c-0.2-0.2-0.4-0.4-0.4-0.4s0.2,0.2,0.4,0.4c0.2,0.2,0.6,0.6,0.9,0.7
				c0.9,0.6,2.2,1.1,3.5,1.5c1.3,0.6,2.8,1.1,3.7,1.8c0.2,0.2,0.4,0.4,0.6,0.6c0.2,0.2,0.4,0.4,0.4,0.6c0.2,0.2,0.2,0.4,0.2,0.4
				L532.9,208.8z"/>
		</g>
		
			<linearGradient id="SVGID_9_" gradientUnits="userSpaceOnUse" x1="620.3452" y1="160.9285" x2="621.477" y2="198.1777" gradientTransform="matrix(-0.9951 9.876258e-002 -9.876258e-002 -0.9951 1101.1313 434.8958)">
			<stop  offset="0" style="stop-color:#FFFFFF"/>
			<stop  offset="8.510865e-002" style="stop-color:#FFEDD8"/>
			<stop  offset="0.2082" style="stop-color:#FFD5A7"/>
			<stop  offset="0.3345" style="stop-color:#FFC17D"/>
			<stop  offset="0.462" style="stop-color:#FFB05B"/>
			<stop  offset="0.591" style="stop-color:#FFA340"/>
			<stop  offset="0.7222" style="stop-color:#FF9A2D"/>
			<stop  offset="0.8568" style="stop-color:#FF9522"/>
			<stop  offset="1" style="stop-color:#FF931E"/>
		</linearGradient>
		<path class="st20" d="M419.6,310.7l19,29.1l7.7-13.6l-7.6-5.2l33.4-6.6l0.9,7.4c0.2,1.5,1.5,2.6,2.9,2.4l32.1-4.2
			c1.5-0.2,2.6-1.5,2.4-3.1l-2.8-20.8c-0.2-1.5-1.5-2.6-3.1-2.4l-32.1,4.2c-1.5,0.2-2.6,0.9-2.4,2.4l0.7,5.3L419.6,310.7z"/>
		
			<linearGradient id="SVGID_10_" gradientUnits="userSpaceOnUse" x1="533.5389" y1="139.3255" x2="509.8947" y2="180.2783" gradientTransform="matrix(-0.9951 9.876258e-002 -9.876258e-002 -0.9951 1101.1313 434.8958)">
			<stop  offset="0" style="stop-color:#FFFFFF"/>
			<stop  offset="8.510865e-002" style="stop-color:#FFEDD8"/>
			<stop  offset="0.2082" style="stop-color:#FFD5A7"/>
			<stop  offset="0.3345" style="stop-color:#FFC17D"/>
			<stop  offset="0.462" style="stop-color:#FFB05B"/>
			<stop  offset="0.591" style="stop-color:#FFA340"/>
			<stop  offset="0.7222" style="stop-color:#FF9A2D"/>
			<stop  offset="0.8568" style="stop-color:#FF9522"/>
			<stop  offset="1" style="stop-color:#FF931E"/>
		</linearGradient>
		<path class="st21" d="M506.4,317.2l25.1,20.5c1.1,0.9,2.9,0.7,3.9-0.4l5.2-6.3l60.6,4.1l-7.9,5l1.7,14.9l36.5-24l-84.4-8.3
			l1.5-1.8c0.9-1.1,0.7-2.9-0.4-3.9L523,296.5c-1.1-0.9-2.9-0.7-3.9,0.4l-13.3,16.2C505.1,314.6,505.3,316.2,506.4,317.2z"/>
		<polygon class="st22" points="599.5,358.5 557.6,369.9 547,457 507.7,452.3 507.5,453.4 462.2,448.4 471.8,361 433.6,340.4 
			444.1,320.9 475.1,337.6 513.2,342 513.4,340.9 559.7,346.3 593.6,337.1 		"/>
	</g>
	<g>
		<path d="M349.2,128.8c-0.9,0.4-2.8,0.9-5,0.9c-2.4,0-4.4-0.6-6.1-2.2c-1.5-1.3-2.2-3.5-2.2-6.1c0-4.8,3.3-8.3,8.8-8.3
			c1.8,0,3.3,0.4,4.1,0.7l-0.6,1.7c-0.9-0.4-2-0.7-3.5-0.7c-3.9,0-6.5,2.4-6.5,6.5c0,4.1,2.4,6.5,6.3,6.5c1.3,0,2.2-0.2,2.8-0.4
			v-4.8h-3.3v-1.7h5.3v7.9H349.2z"/>
		<path d="M352.3,113.5c1.1-0.2,2.6-0.4,4.1-0.4c2.2,0,3.7,0.4,4.6,1.3c0.7,0.7,1.3,1.8,1.3,3.1c0,2.2-1.3,3.5-3.1,4.1l0,0
			c1.3,0.4,2,1.7,2.4,3.3c0.6,2.2,0.9,3.9,1.3,4.4h-2.2c-0.2-0.4-0.6-1.8-1.1-3.9c-0.6-2.2-1.3-3.1-3.3-3.1h-2v7h-2v-15.8H352.3z
			 M354.6,120.9h2.2c2.2,0,3.7-1.3,3.7-3.1c0-2-1.5-2.9-3.7-2.9c-0.9,0-1.7,0.2-2,0.2v5.9H354.6z"/>
		<path d="M365.2,113.5c1.1-0.2,2.6-0.4,4.1-0.4c2.2,0,3.7,0.4,4.6,1.3c0.7,0.7,1.3,1.8,1.3,3.1c0,2.2-1.3,3.5-3.1,4.1l0,0
			c1.3,0.4,2,1.7,2.4,3.3c0.6,2.2,0.9,3.9,1.3,4.4h-2.2c-0.2-0.4-0.6-1.8-1.1-3.9c-0.6-2.2-1.3-3.1-3.3-3.1h-2v7h-2v-15.8H365.2z
			 M367.5,120.9h2.2c2.2,0,3.7-1.3,3.7-3.1c0-2-1.5-2.9-3.7-2.9c-0.9,0-1.7,0.2-2,0.2v5.9H367.5z"/>
		<path d="M378.1,113.5c1.1-0.2,2.6-0.4,4.1-0.4c2.2,0,3.7,0.4,4.6,1.3c0.7,0.7,1.3,1.8,1.3,3.1c0,2.2-1.3,3.5-3.1,4.1l0,0
			c1.3,0.4,2,1.7,2.4,3.3c0.6,2.2,0.9,3.9,1.3,4.4h-2.2c-0.2-0.4-0.6-1.8-1.1-3.9c-0.6-2.2-1.3-3.1-3.3-3.1h-2v7h-2v-15.8H378.1z
			 M380.4,120.9h2.2c2.2,0,3.7-1.3,3.7-3.1c0-2-1.5-2.9-3.7-2.9c-0.9,0-1.7,0.2-2,0.2v5.9H380.4z"/>
		<path d="M391.2,113.5c1.1-0.2,2.6-0.4,4.1-0.4c2.2,0,3.7,0.4,4.6,1.3c0.7,0.7,1.3,1.8,1.3,3.1c0,2.2-1.3,3.5-3.1,4.1l0,0
			c1.3,0.4,2,1.7,2.4,3.3c0.6,2.2,0.9,3.9,1.3,4.4h-2.2c-0.2-0.4-0.6-1.8-1.1-3.9c-0.6-2.2-1.3-3.1-3.3-3.1h-2v7h-2v-15.8H391.2z
			 M393.3,120.9h2.2c2.2,0,3.7-1.3,3.7-3.1c0-2-1.5-2.9-3.7-2.9c-0.9,0-1.7,0.2-2,0.2v5.9H393.3z"/>
		<path d="M404.1,113.5c1.1-0.2,2.6-0.4,4.1-0.4c2.2,0,3.7,0.4,4.6,1.3c0.7,0.7,1.3,1.8,1.3,3.1c0,2.2-1.3,3.5-3.1,4.1l0,0
			c1.3,0.4,2,1.7,2.4,3.3c0.6,2.2,0.9,3.9,1.3,4.4h-2.2c-0.2-0.4-0.6-1.8-1.1-3.9c-0.6-2.2-1.3-3.1-3.3-3.1h-2v7h-2v-15.8H404.1z
			 M406.2,120.9h2.2c2.2,0,3.7-1.3,3.7-3.1c0-2-1.5-2.9-3.7-2.9c-0.9,0-1.7,0.2-2,0.2v5.9H406.2z"/>
		<path d="M416.5,128.3c0-0.9,0.6-1.5,1.5-1.5c0.9,0,1.5,0.6,1.5,1.5c0,0.9-0.6,1.5-1.5,1.5C417,129.7,416.5,129.2,416.5,128.3z"/>
		<path d="M421.5,128.3c0-0.9,0.6-1.5,1.5-1.5c0.9,0,1.5,0.6,1.5,1.5c0,0.9-0.6,1.5-1.5,1.5C422,129.7,421.5,129.2,421.5,128.3z"/>
		<path d="M426.4,128.3c0-0.9,0.6-1.5,1.5-1.5c0.9,0,1.5,0.6,1.5,1.5c0,0.9-0.6,1.5-1.5,1.5C427,129.7,426.4,129.2,426.4,128.3z"/>
		<path d="M431.2,128.3c0-0.9,0.6-1.5,1.5-1.5c0.9,0,1.5,0.6,1.5,1.5c0,0.9-0.6,1.5-1.5,1.5C432,129.7,431.2,129.2,431.2,128.3z"/>
		<path d="M436.2,128.3c0-0.9,0.6-1.5,1.5-1.5s1.5,0.6,1.5,1.5c0,0.9-0.6,1.5-1.5,1.5C436.9,129.7,436.2,129.2,436.2,128.3z"/>
	</g>
	<line class="st18" x1="369.3" y1="134.9" x2="355.5" y2="151.9"/>
	<line class="st23" x1="313.1" y1="29.1" x2="312.2" y2="315"/>
	<line class="st23" x1="192.2" y1="170.3" x2="435.5" y2="174.3"/>
	<g>
		<polygon class="st3" points="67.2,555.8 -16.6,565.4 65.2,545 		"/>
	</g>
	<path class="st18" d="M541.3,355.5"/>
</g>
</svg>
