<?xml version="1.0" encoding="utf-8"?>
<!-- Generator: Adobe Illustrator 19.2.0, SVG Export Plug-In . SVG Version: 6.00 Build 0)  -->
<svg version="1.1" id="Layer_1" xmlns="http://www.w3.org/2000/svg" xmlns:xlink="http://www.w3.org/1999/xlink" x="0px" y="0px"
	 viewBox="0 0 640 480" style="enable-background:new 0 0 640 480;" xml:space="preserve">
<style type="text/css">
	.st0{fill:none;}
	.st1{fill:none;stroke:#007534;stroke-linecap:round;}
	.st2{fill:#DEE19F;}
	.st3{fill:#FFFFFF;stroke:#000000;stroke-miterlimit:10;}
	.st4{fill:#42210B;}
	.st5{fill:url(#SVGID_1_);}
	.st6{fill:#F7931E;stroke:#000000;stroke-width:0.25;stroke-miterlimit:10;}
	.st7{fill:#006837;stroke:#000000;stroke-miterlimit:10;}
	.st8{fill:#534741;stroke:#000000;stroke-miterlimit:10;}
	.st9{fill:#39B54A;stroke:#000000;stroke-miterlimit:10;}
	.st10{fill:#8CC63F;stroke:#000000;stroke-miterlimit:10;}
	.st11{fill:url(#SVGID_2_);stroke:#603813;stroke-width:6;stroke-miterlimit:10;}
	.st12{fill:url(#SVGID_4_);stroke:#000000;stroke-miterlimit:10;}
	.st13{fill:url(#SVGID_5_);stroke:#000000;stroke-miterlimit:10;}
	.st14{fill:#603813;stroke:#000000;stroke-miterlimit:10;}
	.st15{fill:url(#SVGID_6_);stroke:#000000;stroke-miterlimit:10;}
	.st16{fill:url(#SVGID_7_);stroke:#000000;stroke-miterlimit:10;}
	.st17{fill:url(#SVGID_8_);stroke:#000000;stroke-miterlimit:10;}
	.st18{fill:none;stroke:#000000;stroke-miterlimit:10;}
	.st19{stroke:#F7931E;stroke-miterlimit:10;}
	.st20{fill:url(#SVGID_9_);stroke:#000000;stroke-miterlimit:10;}
	.st21{fill:url(#SVGID_10_);stroke:#000000;stroke-miterlimit:10;}
	.st22{fill:#ED1C24;stroke:#000000;stroke-miterlimit:10;}
	.st23{fill:none;stroke:#603813;stroke-width:6;stroke-miterlimit:10;}
	.st24{fill:#FFFFFF;}
	.st25{fill:url(#SVGID_11_);}
	.st26{fill:url(#SVGID_12_);}
	.st27{fill:url(#SVGID_13_);}
	.st28{fill:#FF7BAC;}
	.st29{fill:#0000FF;}
	.st30{fill:#808080;}
	.st31{fill:url(#SVGID_14_);}
	.st32{fill:url(#SVGID_15_);}
	.st33{fill:#999999;}
	.st34{fill:url(#SVGID_16_);}
	.st35{fill:url(#SVGID_17_);}
	.st36{fill:url(#SVGID_18_);}
	.st37{fill:url(#SVGID_19_);}
	.st38{fill:url(#SVGID_20_);}
	.st39{fill:url(#SVGID_21_);}
	.st40{fill:url(#SVGID_22_);}
	.st41{fill:url(#SVGID_23_);}
	.st42{fill:url(#SVGID_24_);}
	.st43{fill:url(#SVGID_25_);}
	.st44{fill:none;stroke:#000000;stroke-width:0.25;stroke-miterlimit:10;}
	.st45{fill:none;stroke:#333333;stroke-width:0.75;stroke-linecap:round;stroke-miterlimit:10;}
	.st46{fill:url(#SVGID_26_);stroke:#000000;stroke-miterlimit:10;}
	.st47{fill:none;stroke:#000000;stroke-linecap:round;stroke-linejoin:round;}
	.st48{fill:url(#SVGID_27_);stroke:#000000;stroke-miterlimit:10;}
	.st49{fill:url(#SVGID_28_);stroke:#000000;stroke-linecap:round;stroke-linejoin:round;}
	.st50{fill:#808080;stroke:#000000;stroke-width:0.25;stroke-miterlimit:10;}
	.st51{fill:#808080;stroke:#000000;stroke-miterlimit:10;}
</style>
<pattern  y="480" width="55.4" height="96" patternUnits="userSpaceOnUse" id="SVGID_3_" viewBox="55.9 -128.5 55.4 96" style="overflow:visible;">
	<g>
		<rect x="55.9" y="-128.5" class="st0" width="55.4" height="96"/>
		<g>
			<rect x="55.9" y="-128.5" class="st0" width="55.4" height="96"/>
			<g>
				<polyline class="st1" points="111.4,-157.8 136.8,-143.2 136.8,-126.1 				"/>
				<polyline class="st1" points="111.4,-155.2 134.4,-141.8 134.4,-126.1 				"/>
				<polyline class="st1" points="111.4,-152.5 132.1,-140.5 132.1,-126.1 				"/>
				<polyline class="st1" points="111.4,-160.5 139.1,-144.5 139.1,-126.1 				"/>
				<polyline class="st1" points="111.4,-124.5 111.4,-128.5 108.8,-130 				"/>
				<line class="st1" x1="111.4" y1="-128.5" x2="132.1" y2="-140.5"/>
			</g>
			<g>
				<line class="st1" x1="72.1" y1="-129.8" x2="76.7" y2="-127.1"/>
				<line class="st1" x1="69.8" y1="-128.5" x2="76.7" y2="-124.5"/>
				<line class="st1" x1="95.2" y1="-129.8" x2="90.6" y2="-127.1"/>
				<line class="st1" x1="97.5" y1="-128.5" x2="90.6" y2="-124.5"/>
				<polyline class="st1" points="55.9,-157.8 81.3,-143.2 81.3,-126.1 				"/>
				<polyline class="st1" points="55.9,-155.2 79,-141.8 79,-126.1 				"/>
				<polyline class="st1" points="55.9,-152.5 76.7,-140.5 76.7,-126.1 				"/>
				<polyline class="st1" points="85.9,-126.1 85.9,-143.2 111.4,-157.8 				"/>
				<polyline class="st1" points="88.3,-126.1 88.3,-141.8 111.4,-155.2 				"/>
				<polyline class="st1" points="90.6,-126.1 90.6,-140.5 111.4,-152.5 				"/>
				<polyline class="st1" points="83.6,-126.1 83.6,-144.5 111.4,-160.5 				"/>
				<polyline class="st1" points="55.9,-160.5 83.6,-144.5 83.6,-126.1 				"/>
				<line class="st1" x1="58.2" y1="-127.2" x2="76.7" y2="-137.8"/>
				<line class="st1" x1="60.5" y1="-125.8" x2="76.7" y2="-135.2"/>
				<line class="st1" x1="62.9" y1="-124.5" x2="76.7" y2="-132.5"/>
				<polyline class="st1" points="111.4,-124.5 111.4,-128.5 114,-130 				"/>
				<line class="st1" x1="111.4" y1="-128.5" x2="90.6" y2="-140.5"/>
				<line class="st1" x1="109" y1="-127.2" x2="90.6" y2="-137.8"/>
				<line class="st1" x1="106.7" y1="-125.8" x2="90.5" y2="-135.2"/>
				<line class="st1" x1="104.4" y1="-124.5" x2="90.5" y2="-132.5"/>
				<polyline class="st1" points="55.9,-124.5 55.9,-128.5 53.3,-130 				"/>
				<line class="st1" x1="55.9" y1="-128.5" x2="76.7" y2="-140.5"/>
			</g>
			<g>
				<polyline class="st1" points="30.5,-126.1 30.5,-143.2 55.9,-157.8 				"/>
				<polyline class="st1" points="32.8,-126.1 32.8,-141.8 55.9,-155.2 				"/>
				<polyline class="st1" points="35.1,-126.1 35.1,-140.5 55.9,-152.5 				"/>
				<polyline class="st1" points="28.2,-126.1 28.2,-144.5 55.9,-160.5 				"/>
				<polyline class="st1" points="55.9,-124.5 55.9,-128.5 58.5,-130 				"/>
				<line class="st1" x1="55.9" y1="-128.5" x2="35.1" y2="-140.5"/>
			</g>
			<g>
				<line class="st1" x1="111.4" y1="-40.5" x2="111.4" y2="-56.5"/>
				<polyline class="st1" points="111.4,-99.2 136.8,-113.8 136.8,-130.9 				"/>
				<polyline class="st1" points="111.4,-101.8 134.4,-115.2 134.4,-130.9 				"/>
				<polyline class="st1" points="111.4,-104.5 132.1,-116.5 132.1,-130.9 				"/>
				<polyline class="st1" points="111.4,-61.8 136.8,-47.2 136.8,-30.1 				"/>
				<polyline class="st1" points="111.4,-59.2 134.4,-45.8 134.4,-30.1 				"/>
				<polyline class="st1" points="111.4,-56.5 132.1,-44.5 132.1,-30.1 				"/>
				<polygon class="st1" points="166.8,-64.5 166.8,-96.5 139.1,-112.5 111.4,-96.5 111.4,-64.5 139.1,-48.5 				"/>
				<polyline class="st1" points="111.4,-96.5 139.1,-112.5 139.1,-130.9 				"/>
				<polyline class="st1" points="111.4,-64.5 139.1,-48.5 139.1,-30.1 				"/>
				<polyline class="st1" points="111.4,-104.5 111.4,-128.5 114.8,-130.5 				"/>
				<line class="st1" x1="111.4" y1="-128.5" x2="107.9" y2="-130.5"/>
				<polyline class="st1" points="111.4,-28.5 111.4,-32.5 108.8,-34 				"/>
				<line class="st1" x1="111.4" y1="-32.5" x2="132.1" y2="-44.5"/>
				<polyline class="st1" points="109.3,-36.3 111.4,-35.2 129.8,-45.9 				"/>
				<polyline class="st1" points="109.9,-38.7 111.4,-37.8 127.6,-47.2 				"/>
				<polyline class="st1" points="110.5,-41 111.4,-40.5 125.2,-48.5 				"/>
			</g>
			<g>
				<rect x="55.9" y="-128.5" class="st2" width="55.4" height="96"/>
				<line class="st1" x1="90.6" y1="-63.2" x2="92.9" y2="-61.9"/>
				<line class="st1" x1="90.6" y1="-65.9" x2="95.2" y2="-63.2"/>
				<line class="st1" x1="90.6" y1="-68.5" x2="97.5" y2="-64.5"/>
				<line class="st1" x1="90.6" y1="-71.2" x2="99.8" y2="-65.8"/>
				<line class="st1" x1="90.6" y1="-73.8" x2="102.1" y2="-67.2"/>
				<line class="st1" x1="90.6" y1="-76.5" x2="104.4" y2="-68.5"/>
				<line class="st1" x1="102.1" y1="-83.1" x2="104.4" y2="-81.8"/>
				<line class="st1" x1="99.8" y1="-81.8" x2="104.4" y2="-79.1"/>
				<line class="st1" x1="97.5" y1="-80.5" x2="104.4" y2="-76.5"/>
				<line class="st1" x1="95.2" y1="-79.2" x2="104.4" y2="-73.8"/>
				<line class="st1" x1="92.9" y1="-77.8" x2="104.4" y2="-71.2"/>
				<line class="st1" x1="65.2" y1="-83.1" x2="62.9" y2="-81.8"/>
				<line class="st1" x1="67.5" y1="-81.8" x2="62.9" y2="-79.1"/>
				<line class="st1" x1="69.8" y1="-80.5" x2="62.9" y2="-76.5"/>
				<line class="st1" x1="72.1" y1="-79.2" x2="62.9" y2="-73.8"/>
				<line class="st1" x1="74.4" y1="-77.8" x2="62.9" y2="-71.2"/>
				<line class="st1" x1="76.7" y1="-76.5" x2="62.9" y2="-68.5"/>
				<line class="st1" x1="76.7" y1="-63.2" x2="74.4" y2="-61.9"/>
				<line class="st1" x1="76.7" y1="-65.9" x2="72.1" y2="-63.2"/>
				<line class="st1" x1="76.7" y1="-68.5" x2="69.8" y2="-64.5"/>
				<line class="st1" x1="76.7" y1="-71.2" x2="67.5" y2="-65.8"/>
				<line class="st1" x1="76.7" y1="-73.8" x2="65.2" y2="-67.2"/>
				<line class="st1" x1="95.1" y1="-95.2" x2="95.1" y2="-97.8"/>
				<line class="st1" x1="92.8" y1="-93.8" x2="92.8" y2="-99.2"/>
				<line class="st1" x1="90.5" y1="-92.5" x2="90.5" y2="-100.5"/>
				<line class="st1" x1="88.2" y1="-91.2" x2="88.2" y2="-101.8"/>
				<line class="st1" x1="85.9" y1="-89.8" x2="85.9" y2="-103.2"/>
				<line class="st1" x1="83.6" y1="-88.5" x2="83.6" y2="-104.5"/>
				<line class="st1" x1="72.1" y1="-95.2" x2="72.1" y2="-97.8"/>
				<line class="st1" x1="74.4" y1="-93.8" x2="74.4" y2="-99.2"/>
				<line class="st1" x1="76.7" y1="-92.5" x2="76.7" y2="-100.5"/>
				<line class="st1" x1="79" y1="-91.2" x2="79" y2="-101.8"/>
				<line class="st1" x1="81.3" y1="-89.8" x2="81.3" y2="-103.2"/>
				<line class="st1" x1="74.4" y1="-35.1" x2="76.7" y2="-33.8"/>
				<line class="st1" x1="72.1" y1="-33.8" x2="76.7" y2="-31.1"/>
				<line class="st1" x1="69.8" y1="-32.5" x2="76.7" y2="-28.5"/>
				<line class="st1" x1="67.4" y1="-47.2" x2="67.4" y2="-49.8"/>
				<line class="st1" x1="65.1" y1="-45.8" x2="65.1" y2="-51.2"/>
				<line class="st1" x1="62.8" y1="-44.5" x2="62.8" y2="-52.5"/>
				<line class="st1" x1="60.5" y1="-43.2" x2="60.5" y2="-53.8"/>
				<line class="st1" x1="58.2" y1="-41.8" x2="58.2" y2="-55.2"/>
				<line class="st1" x1="55.9" y1="-40.5" x2="55.9" y2="-56.5"/>
				<line class="st1" x1="92.9" y1="-35.1" x2="90.6" y2="-33.8"/>
				<line class="st1" x1="95.2" y1="-33.8" x2="90.6" y2="-31.1"/>
				<line class="st1" x1="97.5" y1="-32.5" x2="90.6" y2="-28.5"/>
				<line class="st1" x1="111.4" y1="-40.5" x2="111.4" y2="-56.5"/>
				<line class="st1" x1="99.8" y1="-47.2" x2="99.8" y2="-49.8"/>
				<line class="st1" x1="102.1" y1="-45.8" x2="102.1" y2="-51.2"/>
				<line class="st1" x1="104.5" y1="-44.5" x2="104.5" y2="-52.5"/>
				<line class="st1" x1="106.8" y1="-43.2" x2="106.8" y2="-53.8"/>
				<line class="st1" x1="109.1" y1="-41.8" x2="109.1" y2="-55.2"/>
				<line class="st1" x1="62.9" y1="-111.2" x2="65.2" y2="-109.9"/>
				<line class="st1" x1="62.9" y1="-113.9" x2="67.5" y2="-111.2"/>
				<line class="st1" x1="62.9" y1="-116.5" x2="69.8" y2="-112.5"/>
				<line class="st1" x1="62.9" y1="-119.2" x2="72.1" y2="-113.8"/>
				<line class="st1" x1="62.9" y1="-121.8" x2="74.4" y2="-115.2"/>
				<line class="st1" x1="62.9" y1="-124.5" x2="76.7" y2="-116.5"/>
				<line class="st1" x1="72.1" y1="-129.8" x2="76.7" y2="-127.1"/>
				<line class="st1" x1="69.8" y1="-128.5" x2="76.7" y2="-124.5"/>
				<line class="st1" x1="67.5" y1="-127.2" x2="76.7" y2="-121.8"/>
				<line class="st1" x1="65.2" y1="-125.8" x2="76.7" y2="-119.2"/>
				<line class="st1" x1="95.2" y1="-129.8" x2="90.6" y2="-127.1"/>
				<line class="st1" x1="97.5" y1="-128.5" x2="90.6" y2="-124.5"/>
				<line class="st1" x1="99.8" y1="-127.2" x2="90.6" y2="-121.8"/>
				<line class="st1" x1="102.1" y1="-125.8" x2="90.6" y2="-119.2"/>
				<line class="st1" x1="104.4" y1="-124.5" x2="90.6" y2="-116.5"/>
				<line class="st1" x1="104.4" y1="-111.2" x2="102.1" y2="-109.9"/>
				<line class="st1" x1="104.4" y1="-113.9" x2="99.8" y2="-111.2"/>
				<line class="st1" x1="104.4" y1="-116.5" x2="97.5" y2="-112.5"/>
				<line class="st1" x1="104.4" y1="-119.2" x2="95.2" y2="-113.8"/>
				<line class="st1" x1="104.4" y1="-121.8" x2="92.9" y2="-115.2"/>
				<polygon class="st1" points="104.4,-68.5 104.4,-92.5 83.6,-104.5 62.9,-92.5 62.9,-68.5 83.6,-56.5 				"/>
				<polygon class="st1" points="83.6,-51.2 109,-65.8 109,-95.2 83.6,-109.8 58.2,-95.2 58.2,-65.8 				"/>
				<polygon class="st1" points="83.6,-53.8 106.7,-67.2 106.7,-93.8 83.6,-107.2 60.5,-93.8 60.5,-67.2 				"/>
				<polyline class="st1" points="55.9,-99.2 81.3,-113.8 81.3,-130.9 				"/>
				<polyline class="st1" points="55.9,-101.8 79,-115.2 79,-130.9 				"/>
				<polyline class="st1" points="55.9,-104.5 76.7,-116.5 76.7,-130.9 				"/>
				<polyline class="st1" points="85.9,-130.9 85.9,-113.8 111.4,-99.2 				"/>
				<polyline class="st1" points="88.3,-130.9 88.3,-115.2 111.4,-101.8 				"/>
				<polyline class="st1" points="90.6,-130.9 90.6,-116.5 111.4,-104.5 				"/>
				<polyline class="st1" points="55.9,-61.8 81.3,-47.2 81.3,-30.1 				"/>
				<polyline class="st1" points="55.9,-59.2 79,-45.8 79,-30.1 				"/>
				<polyline class="st1" points="55.9,-56.5 76.7,-44.5 76.7,-30.1 				"/>
				<polyline class="st1" points="85.9,-30.1 85.9,-47.2 111.4,-61.8 				"/>
				<polyline class="st1" points="88.3,-30.1 88.3,-45.8 111.4,-59.2 				"/>
				<polyline class="st1" points="90.6,-30.1 90.6,-44.5 111.4,-56.5 				"/>
				<polygon class="st1" points="111.4,-64.5 111.4,-96.5 83.6,-112.5 55.9,-96.5 55.9,-64.5 83.6,-48.5 				"/>
				<polyline class="st1" points="83.6,-30.1 83.6,-48.5 111.4,-64.5 				"/>
				<polyline class="st1" points="55.9,-96.5 83.6,-112.5 83.6,-130.9 				"/>
				<polyline class="st1" points="83.6,-130.9 83.6,-112.5 111.4,-96.5 				"/>
				<polyline class="st1" points="55.9,-64.5 83.6,-48.5 83.6,-30.1 				"/>
				<polyline class="st1" points="83.6,-56.5 83.6,-80.5 104.4,-92.5 				"/>
				<polyline class="st1" points="85.9,-57.8 85.9,-79.2 104.4,-89.8 				"/>
				<polyline class="st1" points="88.3,-59.1 88.3,-77.8 104.5,-87.2 				"/>
				<polyline class="st1" points="90.6,-60.5 90.6,-76.5 104.5,-84.5 				"/>
				<line class="st1" x1="83.6" y1="-80.5" x2="62.9" y2="-92.5"/>
				<polyline class="st1" points="102.1,-93.8 83.6,-83.2 65.2,-93.8 				"/>
				<polyline class="st1" points="99.8,-95.2 83.6,-85.8 67.4,-95.2 				"/>
				<polyline class="st1" points="97.5,-96.5 83.6,-88.5 69.8,-96.5 				"/>
				<polyline class="st1" points="81.3,-57.8 81.3,-79.2 62.8,-89.8 				"/>
				<polyline class="st1" points="79,-59.1 79,-77.8 62.8,-87.2 				"/>
				<polyline class="st1" points="76.7,-60.5 76.7,-76.5 62.8,-84.5 				"/>
				<line class="st1" x1="58.2" y1="-31.2" x2="76.7" y2="-41.8"/>
				<line class="st1" x1="60.5" y1="-29.8" x2="76.7" y2="-39.2"/>
				<line class="st1" x1="62.9" y1="-28.5" x2="76.7" y2="-36.5"/>
				<polyline class="st1" points="111.4,-28.5 111.4,-32.5 114,-34 				"/>
				<line class="st1" x1="111.4" y1="-32.5" x2="90.6" y2="-44.5"/>
				<polyline class="st1" points="113.4,-36.3 111.4,-35.2 92.9,-45.9 				"/>
				<polyline class="st1" points="112.8,-38.7 111.4,-37.8 95.1,-47.2 				"/>
				<polyline class="st1" points="112.3,-41 111.4,-40.5 97.5,-48.5 				"/>
				<line class="st1" x1="109" y1="-31.2" x2="90.6" y2="-41.8"/>
				<line class="st1" x1="106.7" y1="-29.8" x2="90.5" y2="-39.2"/>
				<line class="st1" x1="104.4" y1="-28.5" x2="90.5" y2="-36.5"/>
				<polyline class="st1" points="55.9,-104.5 55.9,-128.5 59.4,-130.5 				"/>
				<polyline class="st1" points="58.2,-105.8 58.2,-127.2 63.7,-130.3 				"/>
				<polyline class="st1" points="60.5,-107.1 60.5,-125.8 68.1,-130.2 				"/>
				<polyline class="st1" points="62.9,-108.5 62.9,-124.5 72.4,-130 				"/>
				<line class="st1" x1="55.9" y1="-128.5" x2="52.5" y2="-130.5"/>
				<polyline class="st1" points="109,-105.8 109,-127.2 103.5,-130.3 				"/>
				<polyline class="st1" points="106.7,-107.1 106.7,-125.8 99.2,-130.2 				"/>
				<polyline class="st1" points="104.4,-108.5 104.4,-124.5 94.9,-130 				"/>
				<polyline class="st1" points="55.9,-28.5 55.9,-32.5 53.3,-34 				"/>
				<line class="st1" x1="55.9" y1="-32.5" x2="76.7" y2="-44.5"/>
				<polyline class="st1" points="53.9,-36.3 55.9,-35.2 74.4,-45.9 				"/>
				<polyline class="st1" points="54.5,-38.7 55.9,-37.8 72.1,-47.2 				"/>
				<polyline class="st1" points="55,-41 55.9,-40.5 69.8,-48.5 				"/>
				<polyline class="st1" points="111.4,-104.5 111.4,-128.5 114.8,-130.5 				"/>
				<line class="st1" x1="111.4" y1="-128.5" x2="107.9" y2="-130.5"/>
			</g>
			<g>
				<line class="st1" x1="55.9" y1="-40.5" x2="55.9" y2="-56.5"/>
				<polyline class="st1" points="30.5,-130.9 30.5,-113.8 55.9,-99.2 				"/>
				<polyline class="st1" points="32.8,-130.9 32.8,-115.2 55.9,-101.8 				"/>
				<polyline class="st1" points="35.1,-130.9 35.1,-116.5 55.9,-104.5 				"/>
				<polyline class="st1" points="30.5,-30.1 30.5,-47.2 55.9,-61.8 				"/>
				<polyline class="st1" points="32.8,-30.1 32.8,-45.8 55.9,-59.2 				"/>
				<polyline class="st1" points="35.1,-30.1 35.1,-44.5 55.9,-56.5 				"/>
				<polygon class="st1" points="55.9,-64.5 55.9,-96.5 28.2,-112.5 0.5,-96.5 0.5,-64.5 28.2,-48.5 				"/>
				<polyline class="st1" points="28.2,-30.1 28.2,-48.5 55.9,-64.5 				"/>
				<polyline class="st1" points="28.2,-130.9 28.2,-112.5 55.9,-96.5 				"/>
				<polyline class="st1" points="55.9,-28.5 55.9,-32.5 58.5,-34 				"/>
				<line class="st1" x1="55.9" y1="-32.5" x2="35.1" y2="-44.5"/>
				<polyline class="st1" points="58,-36.3 55.9,-35.2 37.5,-45.9 				"/>
				<polyline class="st1" points="57.4,-38.7 55.9,-37.8 39.7,-47.2 				"/>
				<polyline class="st1" points="56.8,-41 55.9,-40.5 42.1,-48.5 				"/>
				<polyline class="st1" points="55.9,-104.5 55.9,-128.5 59.4,-130.5 				"/>
				<line class="st1" x1="55.9" y1="-128.5" x2="52.5" y2="-130.5"/>
			</g>
			<g>
				<polyline class="st1" points="111.4,-3.2 136.8,-17.8 136.8,-34.9 				"/>
				<polyline class="st1" points="111.4,-5.8 134.4,-19.2 134.4,-34.9 				"/>
				<polyline class="st1" points="111.4,-8.5 132.1,-20.5 132.1,-34.9 				"/>
				<polyline class="st1" points="111.4,-0.5 139.1,-16.5 139.1,-34.9 				"/>
				<polyline class="st1" points="111.4,-8.5 111.4,-32.5 114.8,-34.5 				"/>
				<line class="st1" x1="111.4" y1="-32.5" x2="107.9" y2="-34.5"/>
			</g>
			<g>
				<line class="st1" x1="72.1" y1="-33.8" x2="76.7" y2="-31.1"/>
				<line class="st1" x1="69.8" y1="-32.5" x2="76.7" y2="-28.5"/>
				<line class="st1" x1="95.2" y1="-33.8" x2="90.6" y2="-31.1"/>
				<line class="st1" x1="97.5" y1="-32.5" x2="90.6" y2="-28.5"/>
				<polyline class="st1" points="55.9,-3.2 81.3,-17.8 81.3,-34.9 				"/>
				<polyline class="st1" points="55.9,-5.8 79,-19.2 79,-34.9 				"/>
				<polyline class="st1" points="55.9,-8.5 76.7,-20.5 76.7,-34.9 				"/>
				<polyline class="st1" points="85.9,-34.9 85.9,-17.8 111.4,-3.2 				"/>
				<polyline class="st1" points="88.3,-34.9 88.3,-19.2 111.4,-5.8 				"/>
				<polyline class="st1" points="90.6,-34.9 90.6,-20.5 111.4,-8.5 				"/>
				<polyline class="st1" points="55.9,-0.5 83.6,-16.5 83.6,-34.9 				"/>
				<polyline class="st1" points="83.6,-34.9 83.6,-16.5 111.4,-0.5 				"/>
				<polyline class="st1" points="55.9,-8.5 55.9,-32.5 59.4,-34.5 				"/>
				<polyline class="st1" points="58.2,-9.8 58.2,-31.2 63.7,-34.3 				"/>
				<polyline class="st1" points="60.5,-11.1 60.5,-29.8 68.1,-34.2 				"/>
				<polyline class="st1" points="62.9,-12.5 62.9,-28.5 72.4,-34 				"/>
				<line class="st1" x1="55.9" y1="-32.5" x2="52.5" y2="-34.5"/>
				<polyline class="st1" points="109,-9.8 109,-31.2 103.5,-34.3 				"/>
				<polyline class="st1" points="106.7,-11.1 106.7,-29.8 99.2,-34.2 				"/>
				<polyline class="st1" points="104.4,-12.5 104.4,-28.5 94.9,-34 				"/>
				<polyline class="st1" points="111.4,-8.5 111.4,-32.5 114.8,-34.5 				"/>
				<line class="st1" x1="111.4" y1="-32.5" x2="107.9" y2="-34.5"/>
			</g>
			<g>
				<polyline class="st1" points="30.5,-34.9 30.5,-17.8 55.9,-3.2 				"/>
				<polyline class="st1" points="32.8,-34.9 32.8,-19.2 55.9,-5.8 				"/>
				<polyline class="st1" points="35.1,-34.9 35.1,-20.5 55.9,-8.5 				"/>
				<polyline class="st1" points="28.2,-34.9 28.2,-16.5 55.9,-0.5 				"/>
				<polyline class="st1" points="55.9,-8.5 55.9,-32.5 59.4,-34.5 				"/>
				<line class="st1" x1="55.9" y1="-32.5" x2="52.5" y2="-34.5"/>
			</g>
		</g>
	</g>
</pattern>
<g>
	<ellipse class="st3" cx="486.8" cy="146.4" rx="119.1" ry="87"/>
	<g>
		<polygon class="st4" points="346.9,432.2 391.3,443.3 345.8,438.1 		"/>
	</g>
	
		<linearGradient id="SVGID_1_" gradientUnits="userSpaceOnUse" x1="889.308" y1="138.7" x2="889.308" y2="347" gradientTransform="matrix(-1 0 0 -1 1093.558 480)">
		<stop  offset="0" style="stop-color:#CCE0F4"/>
		<stop  offset="6.405089e-002" style="stop-color:#C3DCF2"/>
		<stop  offset="0.1706" style="stop-color:#A9D2EE"/>
		<stop  offset="0.3066" style="stop-color:#80C2E7"/>
		<stop  offset="0.4649" style="stop-color:#47ACDE"/>
		<stop  offset="0.5674" style="stop-color:#1E9CD7"/>
		<stop  offset="0.8652" style="stop-color:#0075BE"/>
		<stop  offset="0.9944" style="stop-color:#005B97"/>
	</linearGradient>
	<polygon class="st5" points="117.4,341.3 291.1,341.3 291.1,133 117.4,133 	"/>
	<g>
		<path class="st6" d="M217,283.7c3.4-4.8,5.6-10,5-15.5c-1.3-11.2-14.1-21.7-28-30.3c-4.8-3-9.8-5.9-13.8-9.3
			c-4-3.4-6.9-7.4-6.5-11.2c0.5-5.6,7.9-9.7,16.2-11.7c3.8-0.9,8.2-1.7,10.1-3.9c2.6-3-0.8-7.1-5-10s-9.4-5.6-11.6-9.1
			c-0.5-0.7-0.8-1.5-1.4-2.2c-1.5-1.6-4.8-2.6-7.5-2.2c-2.7,0.3-4.5,1.9-4.1,3.7c0.3,1.5,2,2.8,3.6,4c3.2,2.5,6.4,5,9.6,7.5
			c1.6,1.3,3.4,2.8,2.9,4.2c-0.5,1.7-3.8,2.3-6.6,2.7c-5.8,1-11.2,2.7-14.9,5.4c-6.5,4.9-6.7,12.3-2.8,19s11.3,12.6,19,18.1
			c3.7,2.7,7.6,5.3,10.4,8.3c2.6,2.8,4.2,5.9,5.4,9c1.3,3.4,2.1,6.8,1.4,10c-1.3,7-9.1,13.1-6.1,20.3c6.7-2.5,13.7-4.7,21.1-6.6
			c1.1-0.3,2.8-0.4,3.4,0.3c1.3-2.8,2.7-5.6,4-8.4"/>
		<g>
			<path d="M218.2,281.1c-1.6,0-3.1,0-4.7,0.1c-1.6,0.1-3.1,0.3-4.7,0.5c-3.1,0.5-6.2,1.2-9.2,2.3l-0.1-0.3l2.8-1.6l-2.6,1.9
				l-0.1-0.3c2.9-1.4,5.9-2.4,9-3.1c1.6-0.4,3.1-0.7,4.7-0.9c1.6-0.3,3.2-0.4,4.8-0.6L218.2,281.1z"/>
		</g>
		<g>
			<path d="M221,275.4c0,0-1.3-0.1-3.1-0.1c-1.9,0-4.4,0-6.9,0.2s-5,0.6-6.8,1.1c-1.9,0.4-3.1,0.8-3.1,0.8s1.2-0.5,3-1.1
				s4.3-1.3,6.8-1.8s5.1-0.8,7-0.9c1-0.1,1.8-0.1,2.3-0.1c0.6,0,0.9,0,0.9,0L221,275.4z"/>
		</g>
		<g>
			<path d="M221.8,269.5c-1.6-0.1-3.2-0.1-4.8,0c-1.6,0-3.2,0.2-4.7,0.3c-3.2,0.3-6.3,0.9-9.4,1.7l-0.1-0.2l2.7-1.1l-2.6,1.3
				l-0.1-0.2c3-1.1,6.1-2,9.3-2.6c1.6-0.3,3.2-0.6,4.8-0.8c1.6-0.2,3.3-0.3,4.8-0.4L221.8,269.5z"/>
		</g>
		<g>
			<path d="M220.8,263.7c0,0-1,0-2.4,0c-1.5,0-3.4,0.1-5.4,0.3c-2,0.2-3.9,0.5-5.4,0.8s-2.4,0.6-2.4,0.6s0.9-0.4,2.3-0.9
				c1.4-0.5,3.3-1,5.3-1.5c1.9-0.5,3.9-0.8,5.4-1s2.5-0.3,2.5-0.3L220.8,263.7z"/>
		</g>
		<g>
			<path d="M217.5,259.1c-1,0-2,0.1-3,0.2s-2,0.2-3,0.3c-2,0.3-4,0.7-5.9,1.3l-0.5,0.1l0.4-0.3l1.1-1l-1,1.2l-0.1-0.2
				c1.8-0.9,3.8-1.6,5.7-2.2c1-0.3,2-0.6,3-0.8c1-0.2,2-0.4,3-0.6L217.5,259.1z"/>
		</g>
		<g>
			<path d="M212.1,252.4c-0.9,0.1-1.8,0.3-2.7,0.5s-1.8,0.5-2.6,0.7c-1.7,0.6-3.4,1.4-5,2.4l-0.2-0.2l1.5-1l-1.3,1.2l-0.2-0.2
				c1.4-1.3,3-2.3,4.7-3.2c0.9-0.4,1.7-0.8,2.6-1.2c0.9-0.4,1.8-0.7,2.7-1L212.1,252.4z"/>
		</g>
		<g>
			<path d="M206.8,247.4c0,0-0.1,0-0.3,0.1c-0.2,0-0.4,0.1-0.7,0.2c-0.6,0.2-1.4,0.5-2.1,0.9c-0.7,0.4-1.3,1.1-1.7,1.6s-0.5,1-0.5,1
				s0-0.1,0-0.3s0.1-0.5,0.2-0.8c0.2-0.7,0.7-1.5,1.3-2.2s1.4-1.3,2-1.7c0.3-0.2,0.6-0.4,0.8-0.5s0.3-0.2,0.3-0.2L206.8,247.4z"/>
		</g>
		<g>
			<path d="M200.7,242.7c0,0-0.1,0-0.3,0.1s-0.4,0.2-0.7,0.4c-0.6,0.3-1.4,0.8-2.1,1.4c-0.7,0.6-1.3,1.4-1.6,2
				c-0.4,0.6-0.5,1.1-0.5,1.1s0-0.5,0.2-1.2s0.6-1.7,1.2-2.5c0.6-0.9,1.3-1.6,1.9-2.1c0.3-0.3,0.6-0.5,0.7-0.6
				c0.2-0.1,0.3-0.2,0.3-0.2L200.7,242.7z"/>
		</g>
		<g>
			<path d="M194.5,238.8c-0.3,0.1-0.7,0.3-0.9,0.4c-0.3,0.1-0.6,0.3-0.9,0.5c-0.6,0.3-1.1,0.7-1.6,1.2c-1,0.9-1.8,2.1-2.1,3.4
				l-0.3-0.2c0.5-0.3,1-0.8,1.4-1.3c-0.2,0.6-0.6,1.2-1.2,1.6l-0.3,0.3v-0.5c0.1-1.5,0.7-2.9,1.6-4.1c0.4-0.6,1-1.2,1.5-1.7
				c0.3-0.3,0.6-0.5,0.9-0.7c0.3-0.2,0.6-0.4,0.9-0.6L194.5,238.8z"/>
		</g>
		<g>
			<path d="M184.1,232.2c0,0-0.1,0-0.3,0.1s-0.4,0.1-0.7,0.2c-0.6,0.2-1.3,0.6-1.9,1.1c-0.6,0.5-1.1,1.2-1.3,1.8
				c-0.1,0.3-0.2,0.6-0.2,0.7c0,0.2,0,0.3,0,0.3s0-0.1,0-0.3s0-0.5,0-0.8c0.1-0.7,0.4-1.6,0.9-2.4c0.5-0.8,1.2-1.5,1.8-1.9
				c0.3-0.2,0.6-0.4,0.7-0.5c0.2-0.1,0.3-0.2,0.3-0.2L184.1,232.2z"/>
		</g>
		<g>
			<path d="M177.9,227.1c0,0-0.1,0-0.3,0s-0.5,0.1-0.8,0.1c-0.6,0.1-1.5,0.3-2.3,0.7c-0.8,0.3-1.6,0.8-2,1.3
				c-0.2,0.2-0.4,0.5-0.5,0.6c-0.1,0.2-0.2,0.3-0.2,0.3s0-0.1,0.1-0.3s0.2-0.5,0.4-0.8c0.3-0.6,1-1.4,1.8-2s1.6-1.1,2.3-1.4
				c0.3-0.2,0.6-0.3,0.8-0.4c0.2-0.1,0.3-0.1,0.3-0.1L177.9,227.1z"/>
		</g>
		<g>
			<path d="M174.8,222.6c0,0-0.6,0-1.4,0.1c-0.8,0.1-2,0.2-3.1,0.5s-2.2,0.6-3,1c-0.8,0.3-1.3,0.7-1.3,0.7s0.4-0.4,1.1-0.9
				c0.7-0.5,1.7-1.1,2.8-1.6s2.2-0.9,3-1.2c0.9-0.3,1.4-0.4,1.4-0.4L174.8,222.6z"/>
		</g>
		<g>
			<path d="M173.7,217.3c-0.9-0.3-1.8-0.6-2.7-0.8c-0.9-0.3-1.8-0.5-2.8-0.8c-1.9-0.5-3.7-0.9-5.6-1.3v-0.2l1.3,0.5l-1.4-0.3v-0.2
				c1.9,0.1,3.9,0.2,5.8,0.4c1,0.1,1.9,0.2,2.9,0.3s1.9,0.3,2.9,0.4L173.7,217.3z"/>
		</g>
		<g>
			<path d="M174.7,214.3c0,0-0.4-0.2-1.1-0.7c-0.6-0.4-1.5-1-2.2-1.7c-0.8-0.7-1.4-1.4-1.9-2c-0.4-0.6-0.7-1-0.7-1s0.3,0.4,0.9,0.8
				c0.6,0.5,1.4,1,2.2,1.4s1.7,0.8,2.4,1c0.6,0.2,1.1,0.4,1.1,0.4L174.7,214.3z"/>
		</g>
		<g>
			<path d="M189.8,235.7c0,0-0.1,0-0.2,0.1c-0.2,0.1-0.3,0.1-0.6,0.2c-0.5,0.2-1.1,0.5-1.6,0.9s-0.9,1-1.1,1.6
				c-0.2,0.5-0.2,0.9-0.2,0.9s0-0.1-0.1-0.3c0-0.2-0.1-0.4-0.1-0.7c0-0.6,0.2-1.4,0.6-2.1c0.4-0.7,1-1.3,1.5-1.8
				c0.2-0.2,0.5-0.4,0.6-0.5s0.2-0.2,0.2-0.2L189.8,235.7z"/>
		</g>
		<g>
			<path d="M179.6,210.4c0,0-0.1-0.1-0.3-0.2c-0.2-0.1-0.4-0.4-0.8-0.6c-0.6-0.6-1.4-1.3-2.1-2.2c-0.7-0.8-1.3-1.8-1.6-2.6
				c-0.1-0.4-0.2-0.7-0.2-1c0-0.2,0-0.4,0-0.4s0,0.1,0,0.4c0.1,0.2,0.2,0.5,0.4,0.9c0.4,0.7,1.1,1.4,2,2c0.8,0.6,1.7,1.1,2.4,1.5
				c0.3,0.2,0.6,0.3,0.8,0.4c0.2,0.1,0.3,0.2,0.3,0.2L179.6,210.4z"/>
		</g>
		<g>
			<path d="M185.6,207.4c0,0-0.1-0.1-0.2-0.3c-0.1-0.2-0.3-0.4-0.6-0.7c-0.5-0.6-1.1-1.4-1.5-2.4c-0.5-0.9-0.8-1.9-0.7-2.7
				c0-0.4,0.1-0.7,0.2-0.9c0.1-0.2,0.2-0.3,0.2-0.3s0,0.1-0.1,0.3c0,0.2,0,0.5,0.1,0.8c0.1,0.7,0.6,1.5,1.2,2.2
				c0.6,0.7,1.3,1.3,1.9,1.7c0.3,0.2,0.5,0.4,0.7,0.5s0.3,0.2,0.3,0.2L185.6,207.4z"/>
		</g>
		<g>
			<path d="M193.5,205.5c0,0-0.1-0.1-0.2-0.3c-0.1-0.2-0.3-0.5-0.6-0.9c-0.5-0.7-1.1-1.8-1.5-2.8c-0.5-1.1-0.7-2.3-0.7-3.1
				c0-0.2,0-0.4,0.1-0.6c0-0.2,0.1-0.3,0.2-0.4c0.1-0.2,0.2-0.3,0.2-0.3s-0.1,0.1-0.1,0.4c0,0.1-0.1,0.3,0,0.4c0,0.2,0,0.4,0,0.6
				c0.1,0.8,0.6,1.8,1.2,2.7c0.6,0.9,1.4,1.7,2,2.3c0.3,0.3,0.5,0.5,0.7,0.7s0.3,0.3,0.3,0.3L193.5,205.5z"/>
		</g>
		<g>
			<path d="M200.6,200.5c0,0-0.3-0.1-0.9-0.3c-0.5-0.2-1.2-0.4-1.8-0.8c-1.3-0.6-2.5-1.4-2.5-1.4s1.3,0.6,2.7,0.9
				c0.7,0.2,1.4,0.3,1.9,0.4c0.5,0.1,0.9,0.1,0.9,0.1L200.6,200.5z"/>
		</g>
		<g>
			<path d="M197.2,194c-0.6,0-1.1,0-1.7,0.1c-0.6,0.1-1.1,0.2-1.7,0.3c-1.1,0.3-2.2,0.8-3.1,1.4v-0.1l0.5-0.3l-0.4,0.3v-0.1
				c0.9-0.7,1.9-1.4,3-1.9c0.5-0.2,1.1-0.4,1.7-0.6c0.6-0.2,1.2-0.3,1.8-0.3L197.2,194z"/>
		</g>
		<g>
			<path d="M191.4,190.1c-0.6,0.1-1.1,0.3-1.7,0.5c-0.6,0.2-1.1,0.5-1.6,0.8c-1,0.6-2,1.4-2.8,2.3h-0.1l0.4-0.4l-0.3,0.4h-0.1
				c0.7-1,1.5-1.9,2.6-2.7c0.5-0.4,1-0.7,1.6-1c0.5-0.3,1.2-0.6,1.7-0.8L191.4,190.1z"/>
		</g>
		<g>
			<path d="M185.2,185.3c-0.5,0.1-1,0.2-1.4,0.4c-0.5,0.2-0.9,0.4-1.3,0.7c-0.8,0.5-1.6,1.3-2.2,2.1h-0.1l0.3-0.4l-0.2,0.4h-0.1
				c0.5-0.9,1.1-1.8,1.9-2.5c0.4-0.4,0.8-0.7,1.3-0.9c0.5-0.3,1-0.5,1.5-0.7L185.2,185.3z"/>
		</g>
		<g>
			<path d="M182.4,180.9c-0.5,0.1-1,0.2-1.4,0.4c-0.5,0.2-0.9,0.4-1.3,0.7c-0.8,0.5-1.6,1.3-2.2,2.1h-0.1l0.3-0.4l-0.2,0.4h-0.1
				c0.5-0.9,1.1-1.8,1.9-2.5c0.4-0.4,0.8-0.7,1.3-0.9c0.5-0.3,1-0.5,1.5-0.7L182.4,180.9z"/>
		</g>
	</g>
	<path class="st7" d="M166.8,340.2c-0.6-9.3-0.3-20.2,0.2-29.8c1.9-34.7,5.9-64,11.1-79.2c-4.1-7.8-8.6,6.8-11.4,28
		c-2.9,22-4.5,52.3-3.6,80.9c1.1-0.3,2.2-0.6,3.2-0.8c0-4.5,0.1-8.9,0.1-13.4"/>
	<path class="st8" d="M164.2,340.2c-0.5-14.1-0.2-30.5,0.2-45c1.5-52.4,4.7-96.6,8.7-119.6c-3.2-11.8-6.7,10.3-8.9,42.3
		c-2.3,33.2-3.5,79.1-2.8,122.2c0.8-0.4,1.7-0.9,2.5-1.3c0-6.8,0.1-13.5,0.1-20.3"/>
	<path class="st8" d="M159.7,344.6c-0.5-6.9-0.2-14.9,0.2-22c1.4-25.6,4.4-47.2,8.2-58.4c-3-5.7-6.3,5-8.4,20.7
		c-2.1,16.2-3.3,38.6-2.7,59.6c0.8-0.2,1.6-0.4,2.4-0.6c0-3.3,0.1-6.6,0.1-9.9"/>
	<path class="st7" d="M158.7,337.1c-0.5-7.1-0.2-15.4,0.2-22.7c1.4-26.4,4.5-48.8,8.4-60.3c-3.1-5.9-6.5,5.2-8.7,21.4
		c-2.2,16.8-3.4,39.9-2.8,61.6c0.8-0.2,1.6-0.4,2.5-0.6c0-3.4,0.1-6.8,0.1-10.2"/>
	<path class="st8" d="M165.2,339.6c2.9-4.8,1.4-10.5-1-15.5c-8.6-18-27.5-33.2-51.2-41.1c19-4,39.7,3.5,52.7,14.5
		c13.5,11.4,20.8,27.2,16.8,42c-5-0.1-10-0.3-14.9-0.4c-0.2-2.3-0.4-4.6-0.6-7"/>
	<path class="st9" d="M177.4,339.6c2.3-7.3,1.1-15.8-0.8-23.4c-6.8-27.2-21.6-50.1-40.2-62c15-6.1,31.2,5.3,41.4,22
		c10.6,17.2,16.4,41,13.2,63.4c-3.9-0.2-7.8-0.4-11.7-0.7c-0.2-3.5-0.3-7-0.5-10.5"/>
	<path class="st7" d="M221.4,338.6c-4.8-3.6-2.2-7.7,1.7-11.4c14-13.3,44.8-24.5,83.3-30.3c-31-3-64.6,2.6-85.6,10.7
		c-21.9,8.4-33.9,20-27.3,31c8.1-0.1,16.2-0.2,24.3-0.3c0.3-1.7,0.7-3.4,1-5.1"/>
	<path class="st8" d="M209.9,339.6c-2.9-4.8-1.4-10.5,1-15.5c8.6-18,27.5-33.2,51.2-41.1c-19-4-39.7,3.5-52.7,14.5
		c-13.5,11.4-20.8,27.2-16.8,42c5-0.1,10-0.3,14.9-0.4c0.2-2.3,0.4-4.6,0.6-7"/>
	<path class="st10" d="M218.3,338.6c1.3-4,0.6-8.6-0.4-12.7c-3.7-14.8-11.7-27.2-21.8-33.7c8.1-3.3,16.9,2.9,22.5,11.9
		c5.7,9.4,8.9,22.3,7.2,34.4c-2.1-0.1-4.2-0.2-6.4-0.4c-0.1-1.9-0.2-3.8-0.3-5.7"/>
	<path class="st8" d="M237.8,340.6c3.5-5.8,1.6-12.5-1.2-18.5c-10.3-21.5-33-39.7-61.3-49.2c22.8-4.8,47.5,4.2,63,17.4
		c16.1,13.7,24.9,32.5,20.1,50.2c-6-0.2-11.9-0.4-17.9-0.5c-0.2-2.8-0.5-5.5-0.7-8.3"/>
	<path class="st9" d="M252.5,340.6c2.8-8.7,1.3-18.9-1-28c-8.1-32.5-25.9-60-48.1-74.3c17.9-7.3,37.3,6.4,49.5,26.3
		c12.6,20.6,19.6,49.1,15.8,75.9c-4.7-0.3-9.4-0.5-14-0.8c-0.2-4.2-0.4-8.4-0.6-12.6"/>
	<path class="st7" d="M206.4,341.9c2.2-3.6,1-7.7-0.8-11.4c-6.3-13.3-20.3-24.5-37.8-30.3c14-3,29.3,2.6,38.8,10.7
		c9.9,8.4,15.4,20,12.4,30.9c-3.7-0.1-7.3-0.2-11-0.3c-0.1-1.7-0.3-3.4-0.4-5.1"/>
	<path class="st8" d="M215.4,341.9c1.7-5.4,0.8-11.7-0.6-17.2c-5-20-15.9-37-29.7-45.7c11-4.5,23,3.9,30.5,16.2
		c7.8,12.7,12.1,30.2,9.7,46.7c-2.9-0.2-5.8-0.3-8.6-0.5c-0.1-2.6-0.2-5.2-0.4-7.7"/>
	<path class="st8" d="M194.5,338c2.2-3.7,1-8-0.8-11.8c-6.5-13.7-21-25.3-39-31.3c14.5-3.1,30.3,2.7,40.1,11.1
		c10.3,8.7,15.9,20.7,12.8,32c-3.8-0.1-7.6-0.2-11.4-0.3c-0.2-1.8-0.3-3.5-0.5-5.3"/>
	<path class="st9" d="M203.8,338c1.8-5.6,0.8-12.1-0.6-17.8c-5.1-20.7-16.5-38.2-30.7-47.3c11.4-4.7,23.8,4.1,31.5,16.7
		c8.1,13.1,12.5,31.3,10.1,48.3c-3-0.2-6-0.3-8.9-0.5c-0.1-2.7-0.2-5.3-0.4-8"/>
	<path class="st8" d="M228.6,338c-2.2-3.7-1-8,0.8-11.8c6.5-13.7,21-25.3,39-31.3c-14.5-3.1-30.3,2.7-40.1,11.1
		c-10.3,8.7-15.9,20.7-12.8,32c3.8-0.1,7.6-0.2,11.4-0.3c0.2-1.8,0.3-3.5,0.5-5.3"/>
	<path class="st10" d="M235,337.2c1-3,0.4-6.5-0.3-9.7c-2.8-11.3-9-20.8-16.6-25.7c6.2-2.5,12.9,2.2,17.1,9.1
		c4.4,7.1,6.8,17,5.5,26.2c-1.6-0.1-3.2-0.2-4.9-0.3c-0.1-1.4-0.1-2.9-0.2-4.3"/>
	<path class="st8" d="M249.9,338.8c2.7-4.4,1.2-9.6-0.9-14.1c-7.8-16.4-25.1-30.3-46.7-37.5c17.4-3.7,36.2,3.2,48,13.3
		c12.3,10.4,19,24.8,15.3,38.3c-4.5-0.1-9.1-0.3-13.6-0.4c-0.2-2.1-0.4-4.2-0.6-6.3"/>
	<path class="st9" d="M261.1,338.8c2.1-6.7,1-14.4-0.7-21.3c-6.2-24.8-19.7-45.7-36.7-56.6c13.6-5.6,28.4,4.9,37.7,20
		c9.6,15.7,14.9,37.4,12,57.8c-3.6-0.2-7.1-0.4-10.7-0.6c-0.1-3.2-0.3-6.4-0.4-9.6"/>
	<path class="st8" d="M232.8,339.8c1.3-4.1,0.6-8.9-0.5-13.1c-3.8-15.3-12.2-28.2-22.6-34.9c8.4-3.4,17.5,3,23.2,12.3
		c5.9,9.7,9.2,23.1,7.4,35.6c-2.2-0.1-4.4-0.2-6.6-0.4c-0.1-2-0.2-3.9-0.3-5.9"/>
	<path class="st8" d="M245.3,337.9c-2.3-7.3-1.1-15.8,0.8-23.4c6.8-27.2,21.6-50.1,40.2-62c-15-6.1-31.2,5.3-41.4,22
		c-10.6,17.2-16.4,41-13.2,63.4c3.9-0.2,7.8-0.4,11.7-0.7c0.2-3.5,0.3-7,0.5-10.5"/>
	<path class="st8" d="M201.3,336.9c4.8-3.6,2.2-7.7-1.7-11.4c-14-13.3-44.8-24.5-83.3-30.3c31-3,64.6,2.6,85.6,10.7
		c21.9,8.4,33.9,20,27.3,31c-8.1-0.1-16.2-0.2-24.3-0.3c-0.3-1.7-0.7-3.4-1-5.1"/>
	<path class="st7" d="M212.8,337.9c2.9-4.8,1.4-10.5-1-15.5c-8.6-18-27.5-33.2-51.2-41.1c19-4,39.7,3.5,52.7,14.5
		c13.5,11.4,20.8,27.2,16.8,42c-5-0.1-10-0.3-14.9-0.4c-0.2-2.3-0.4-4.6-0.6-7"/>
	<path class="st10" d="M204.4,336.9c-1.3-4-0.6-8.6,0.4-12.7c3.7-14.8,11.7-27.2,21.8-33.7c-8.1-3.3-16.9,2.9-22.5,11.9
		c-5.7,9.4-8.9,22.3-7.2,34.4c2.1-0.1,4.2-0.2,6.4-0.4c0.1-1.9,0.2-3.8,0.3-5.7"/>
	<path class="st8" d="M158,337.9c-2.1-3.5-1-7.6,0.7-11.2c6.2-13.1,20-24.1,37.2-29.8c-13.8-2.9-28.8,2.6-38.2,10.6
		c-9.8,8.3-15.1,19.7-12.2,30.5c3.6-0.1,7.2-0.2,10.8-0.3c0.1-1.7,0.3-3.4,0.4-5"/>
	<path class="st7" d="M115.3,337.7c-5.7-4.3-2.7-9.3,2-13.7c16.7-15.9,53.6-29.3,99.7-36.3c-37-3.6-77.3,3.1-102.5,12.8
		c-26.2,10.1-40.5,24-32.7,37.1c9.7-0.1,19.4-0.3,29.1-0.4c0.4-2,0.8-4.1,1.2-6.1"/>
	<path class="st9" d="M132.8,337.7c-1.9-3.1-0.9-6.8,0.7-10.1c5.6-11.7,17.9-21.6,33.3-26.7c-12.4-2.6-25.8,2.3-34.2,9.4
		c-8.7,7.4-13.5,17.6-10.9,27.3c3.2-0.1,6.5-0.2,9.7-0.3c0.1-1.5,0.3-3,0.4-4.5"/>
	<path class="st8" d="M224.6,340.2c-2.2-3.6-1-7.7,0.8-11.4c6.3-13.3,20.3-24.5,37.8-30.3c-14-3-29.3,2.6-38.8,10.7
		c-9.9,8.4-15.4,20-12.4,30.9c3.7-0.1,7.3-0.2,11-0.3c0.1-1.7,0.3-3.4,0.4-5.1"/>
	<path class="st9" d="M215.6,340.2c-1.7-5.4-0.8-11.7,0.6-17.2c5-20,15.9-37,29.7-45.7c-11-4.5-23,3.9-30.5,16.2
		c-7.8,12.7-12.1,30.2-9.7,46.7c2.9-0.2,5.8-0.3,8.6-0.5c0.1-2.6,0.2-5.2,0.4-7.7"/>
	<path class="st8" d="M191.6,340.2c2.2-3.6,1-7.7-0.8-11.4c-6.3-13.3-20.3-24.5-37.8-30.3c14-3,29.3,2.6,38.8,10.7
		c9.9,8.4,15.4,20,12.4,30.9c-3.7-0.1-7.3-0.2-11-0.3c-0.1-1.7-0.3-3.4-0.4-5.1"/>
	<path class="st8" d="M171,340.9c-2.6-4.3-1.2-9.2,0.9-13.6c7.6-15.9,24.3-29.3,45.2-36.2c-16.8-3.6-35,3.1-46.5,12.8
		c-11.9,10.1-18.4,24-14.8,37c4.4-0.1,8.8-0.3,13.2-0.4c0.2-2,0.4-4.1,0.5-6.1"/>
	<path class="st9" d="M160.2,340.9c-2-6.4-0.9-14,0.7-20.6c6-24,19.1-44.2,35.5-54.7c-13.2-5.4-27.5,4.7-36.5,19.4
		c-9.3,15.2-14.4,36.2-11.6,55.9c3.5-0.2,6.9-0.4,10.4-0.6c0.1-3.1,0.3-6.2,0.4-9.3"/>
	<path class="st7" d="M219.8,336.3c-2.2-3.7-1-8,0.8-11.8c6.5-13.7,21-25.3,39-31.3c-14.5-3.1-30.3,2.7-40.1,11.1
		c-10.3,8.7-15.9,20.7-12.8,32c3.8-0.1,7.6-0.2,11.4-0.3c0.2-1.8,0.3-3.5,0.5-5.3"/>
	<path class="st8" d="M210.4,336.3c-1.8-5.6-0.8-12.1,0.6-17.8c5.1-20.7,16.5-38.2,30.7-47.3c-11.4-4.7-23.8,4.1-31.5,16.7
		c-8.1,13.1-12.5,31.3-10.1,48.3c3-0.2,6-0.3,8.9-0.5c0.1-2.7,0.2-5.3,0.4-8"/>
	<path class="st7" d="M185.7,336.3c2.2-3.7,1-8-0.8-11.8c-6.5-13.7-21-25.3-39-31.3c14.5-3.1,30.3,2.7,40.1,11.1
		c10.3,8.7,15.9,20.7,12.8,32c-3.8-0.1-7.6-0.2-11.4-0.3c-0.2-1.8-0.3-3.5-0.5-5.3"/>
	<path class="st10" d="M179.2,335.5c-1-3-0.4-6.5,0.3-9.7c2.8-11.3,9-20.8,16.6-25.7c-6.2-2.5-12.9,2.2-17.1,9.1
		c-4.4,7.1-6.8,17-5.5,26.2c1.6-0.1,3.2-0.2,4.9-0.3c0.1-1.4,0.1-2.9,0.2-4.3"/>
	<path class="st7" d="M111.4,336.2c-4.4-3.3-2-7.1,1.5-10.4c12.7-12.1,40.9-22.3,76-27.6c-28.2-2.7-58.9,2.4-78.1,9.8
		c-20,7.7-30.9,18.3-24.9,28.2c7.4-0.1,14.8-0.2,22.2-0.3c0.3-1.6,0.6-3.1,0.9-4.7"/>
	<path class="st9" d="M187.8,338.1c-1.3-4.1-0.6-8.9,0.5-13.1c3.8-15.3,12.2-28.2,22.6-34.9c-8.4-3.4-17.5,3-23.2,12.3
		c-5.9,9.7-9.2,23.1-7.4,35.6c2.2-0.1,4.4-0.2,6.6-0.4c0.1-2,0.2-3.9,0.3-5.9"/>
	<path class="st8" d="M153.8,338.6c-2-3.3-0.9-7,0.7-10.4c5.8-12.1,18.5-22.3,34.4-27.6c-12.8-2.7-26.7,2.4-35.4,9.8
		c-9,7.7-14,18.3-11.3,28.2c3.3-0.1,6.7-0.2,10-0.3c0.1-1.6,0.3-3.1,0.4-4.7"/>
	<path class="st9" d="M145.6,338.6c-1.5-4.9-0.7-10.6,0.5-15.7c4.5-18.3,14.5-33.7,27-41.7c-10.1-4.1-21,3.6-27.8,14.8
		c-7.1,11.6-11,27.6-8.9,42.6c2.6-0.1,5.3-0.3,7.9-0.4c0.1-2.4,0.2-4.7,0.3-7.1"/>
	<path class="st8" d="M134.7,341.3c-2.9-4.8-1.4-10.5,1-15.5c8.6-18,27.5-33.2,51.2-41.1c-19-4-39.7,3.5-52.7,14.5
		c-13.5,11.4-20.8,27.2-16.8,42c5-0.1,10-0.3,14.9-0.4c0.2-2.3,0.4-4.6,0.6-7"/>
	<path class="st8" d="M265.9,339.9c1.3-7.1,0.6-15.3-0.4-22.6c-3.7-26.3-11.8-48.6-22-60.1c8.2-5.9,17,5.2,22.6,21.3
		c5.8,16.7,8.9,39.7,7.2,61.4c-2.1-0.2-4.3-0.4-6.4-0.6c-0.1-3.4-0.2-6.8-0.3-10.2"/>
	<path class="st9" d="M174.1,344.1c2.3-4.8,1.1-10.3-0.8-15.3c-6.8-17.8-21.6-32.8-40.2-40.5c15-4,31.2,3.5,41.4,14.3
		c10.6,11.3,16.4,26.8,13.2,41.4c-3.9-0.1-7.8-0.3-11.7-0.4c-0.2-2.3-0.3-4.6-0.5-6.9"/>
	<path class="st8" d="M234.5,344.7c3.5-3.8,1.6-8.2-1.2-12.1c-10.3-14.1-33-26-61.3-32.1c22.8-3.2,47.5,2.8,63,11.4
		c16.1,8.9,24.9,21.2,20.1,32.8c-6-0.1-11.9-0.2-17.9-0.3c-0.2-1.8-0.5-3.6-0.7-5.4"/>
	<path class="st9" d="M249.2,344.7c2.8-5.7,1.3-12.4-1-18.3c-8.1-21.3-25.9-39.2-48.1-48.5c17.9-4.8,37.3,4.2,49.5,17.2
		c12.6,13.5,19.6,32.1,15.8,49.6c-4.7-0.2-9.4-0.3-14-0.5c-0.2-2.7-0.4-5.5-0.6-8.2"/>
	<path class="st9" d="M200.6,343c1.8-3.6,0.8-7.9-0.6-11.6c-5.1-13.5-16.5-25-30.7-30.9c11.4-3,23.8,2.7,31.5,10.9
		c8.1,8.6,12.5,20.4,10.1,31.6c-3-0.1-6-0.2-8.9-0.3c-0.1-1.7-0.2-3.5-0.4-5.2"/>
	<path class="st9" d="M257.8,343.6c2.1-4.4,1-9.4-0.7-13.9c-6.2-16.2-19.7-29.9-36.7-37c13.6-3.6,28.4,3.2,37.7,13.1
		c9.6,10.3,14.9,24.4,12,37.8c-3.6-0.1-7.1-0.3-10.7-0.4c-0.1-2.1-0.3-4.2-0.4-6.3"/>
	<path class="st7" d="M174.2,344.7c-1.1-3.6-0.5-7.7,0.4-11.4c3.4-13.2,10.7-24.4,20-30.2c-7.4-3-15.5,2.6-20.5,10.7
		c-5.2,8.4-8.1,20-6.6,30.9c1.9-0.1,3.9-0.2,5.8-0.3c0.1-1.7,0.2-3.4,0.2-5.1"/>
	<path class="st8" d="M169.4,344.7c-0.9-5.4-0.4-11.6,0.3-17.2c2.6-20,8.4-36.9,15.7-45.6c-5.8-4.5-12.2,3.9-16.1,16.1
		c-4.1,12.7-6.4,30.2-5.1,46.6c1.5-0.2,3.1-0.3,4.6-0.5c0.1-2.6,0.1-5.2,0.2-7.7"/>
	<path class="st9" d="M157.8,346.4c-0.7-4-0.3-8.6,0.2-12.7c1.9-14.7,6.2-27.2,11.6-33.6c-4.3-3.3-9,2.9-11.9,11.9
		c-3,9.4-4.7,22.2-3.8,34.4c1.1-0.1,2.2-0.2,3.4-0.4c0-1.9,0.1-3.8,0.1-5.7"/>
	<path class="st8" d="M155.8,343.5c-0.7-4.1-0.3-8.9,0.2-13.1c2-15.2,6.4-28.1,12-34.8c-4.4-3.4-9.3,3-12.3,12.3
		c-3.1,9.7-4.9,23-3.9,35.5c1.2-0.1,2.3-0.2,3.5-0.4c0-2,0.1-3.9,0.1-5.9"/>
	<pattern  id="SVGID_2_" xlink:href="#SVGID_3_" patternTransform="matrix(1.3021 0 0 -1.3021 4524.3403 -21502.0684)">
	</pattern>
	<path class="st11" d="M139.3,151h132.3v156H139.3V151z M70.9,433.9h273.4v-318H70.9V433.9z"/>
	<g>
		
			<radialGradient id="SVGID_4_" cx="332.7699" cy="134.718" r="18.2186" gradientTransform="matrix(9.161798e-002 0.9958 -1.0832 9.965591e-002 451.7362 82.8547)" gradientUnits="userSpaceOnUse">
			<stop  offset="0" style="stop-color:#FFFFFF"/>
			<stop  offset="8.510865e-002" style="stop-color:#FFEDD8"/>
			<stop  offset="0.2082" style="stop-color:#FFD5A7"/>
			<stop  offset="0.3345" style="stop-color:#FFC17D"/>
			<stop  offset="0.462" style="stop-color:#FFB05B"/>
			<stop  offset="0.591" style="stop-color:#FFA340"/>
			<stop  offset="0.7222" style="stop-color:#FF9A2D"/>
			<stop  offset="0.8568" style="stop-color:#FF9522"/>
			<stop  offset="1" style="stop-color:#FF931E"/>
		</radialGradient>
		<path class="st12" d="M320.9,430.4l0.9,10.1c0.1,1.2,1.2,2.3,2.4,2.1l29.1-2.6c1.2-0.1,2.1-1.2,2-2.4l-0.9-9.8
			c-0.1-1.2-1.2-2.1-2.4-2l-17.9,1.7l-6.9-17.1l-9.6,3.3l5.7,13.6h-0.4C321.6,427.5,320.8,429.2,320.9,430.4z"/>
		
			<radialGradient id="SVGID_5_" cx="843.6273" cy="94.0311" r="18.2209" gradientTransform="matrix(-5.875301e-002 0.9983 1.0859 6.390760e-002 226.5749 -419.6414)" gradientUnits="userSpaceOnUse">
			<stop  offset="0" style="stop-color:#FFFFFF"/>
			<stop  offset="8.510865e-002" style="stop-color:#FFEDD8"/>
			<stop  offset="0.2082" style="stop-color:#FFD5A7"/>
			<stop  offset="0.3345" style="stop-color:#FFC17D"/>
			<stop  offset="0.462" style="stop-color:#FFB05B"/>
			<stop  offset="0.591" style="stop-color:#FFA340"/>
			<stop  offset="0.7222" style="stop-color:#FF9A2D"/>
			<stop  offset="0.8568" style="stop-color:#FF9522"/>
			<stop  offset="1" style="stop-color:#FF931E"/>
		</radialGradient>
		<path class="st13" d="M294.6,431.2l-0.6,9.9c-0.1,1.2-1.1,2.2-2.3,2.1l-29.2-1.7c-1.2-0.1-2.1-1.1-2.1-2.3l0.6-9.9
			c0.1-1.2,1.1-2.2,2.3-2.1l18,1.1l6.3-17.3l9.7,3.6L292,429h0.4C293.8,429,294.7,430,294.6,431.2z"/>
		<polygon class="st14" points="281.5,410.7 298.1,418.1 310.3,390.6 317.6,422.7 335.3,418.6 325.9,377.5 315.1,379.9 315.3,379.5 
			298.7,372.1 		"/>
		
			<radialGradient id="SVGID_6_" cx="456.6582" cy="306.1528" r="7.7151" gradientTransform="matrix(-1.3937 -0.4477 0.3393 -1.0564 821.1048 794.6279)" gradientUnits="userSpaceOnUse">
			<stop  offset="0" style="stop-color:#FFFFFF"/>
			<stop  offset="8.510865e-002" style="stop-color:#FFEDD8"/>
			<stop  offset="0.2082" style="stop-color:#FFD5A7"/>
			<stop  offset="0.3345" style="stop-color:#FFC17D"/>
			<stop  offset="0.462" style="stop-color:#FFB05B"/>
			<stop  offset="0.591" style="stop-color:#FFA340"/>
			<stop  offset="0.7222" style="stop-color:#FF9A2D"/>
			<stop  offset="0.8568" style="stop-color:#FF9522"/>
			<stop  offset="1" style="stop-color:#FF931E"/>
		</radialGradient>
		<path class="st15" d="M282.7,264.9c-1.9,5.9-0.8,11.5,2.4,12.5c3.2,1,7.3-2.9,9.2-8.8s0.8-11.5-2.4-12.5
			C288.7,255.1,284.6,259,282.7,264.9z"/>
		
			<radialGradient id="SVGID_7_" cx="296.9831" cy="245.9596" r="34.107" gradientTransform="matrix(-0.9754 0.2205 -0.2205 -0.9754 664.8114 459.2242)" gradientUnits="userSpaceOnUse">
			<stop  offset="0" style="stop-color:#FFFFFF"/>
			<stop  offset="8.510865e-002" style="stop-color:#FFEDD8"/>
			<stop  offset="0.2082" style="stop-color:#FFD5A7"/>
			<stop  offset="0.3345" style="stop-color:#FFC17D"/>
			<stop  offset="0.462" style="stop-color:#FFB05B"/>
			<stop  offset="0.591" style="stop-color:#FFA340"/>
			<stop  offset="0.7222" style="stop-color:#FF9A2D"/>
			<stop  offset="0.8568" style="stop-color:#FF9522"/>
			<stop  offset="1" style="stop-color:#FF931E"/>
		</radialGradient>
		<circle class="st16" cx="320.9" cy="284.8" r="34.1"/>
		
			<ellipse transform="matrix(0.9999 -1.612497e-002 1.612497e-002 0.9999 -4.3348 5.0035)" class="st3" cx="308.1" cy="271.3" rx="12" ry="12"/>
		<ellipse transform="matrix(0.2233 -0.9748 0.9748 0.2233 -29.4086 511.4129)" cx="306.2" cy="274.2" rx="8.4" ry="7.4"/>
		
			<radialGradient id="SVGID_8_" cx="403.3492" cy="291.2286" r="7.7315" gradientTransform="matrix(-1.28 -0.5873 0.4701 -1.0246 736.0316 829.6521)" gradientUnits="userSpaceOnUse">
			<stop  offset="0" style="stop-color:#FFFFFF"/>
			<stop  offset="8.510865e-002" style="stop-color:#FFEDD8"/>
			<stop  offset="0.2082" style="stop-color:#FFD5A7"/>
			<stop  offset="0.3345" style="stop-color:#FFC17D"/>
			<stop  offset="0.462" style="stop-color:#FFB05B"/>
			<stop  offset="0.591" style="stop-color:#FFA340"/>
			<stop  offset="0.7222" style="stop-color:#FF9A2D"/>
			<stop  offset="0.8568" style="stop-color:#FF9522"/>
			<stop  offset="1" style="stop-color:#FF931E"/>
		</radialGradient>
		<path class="st17" d="M351.4,291.9c-2.6,5.7-2.4,11.5,0.6,12.8c2.9,1.3,7.4-2.2,10.1-7.9c2.6-5.7,2.4-11.5-0.6-12.8
			S354,286.2,351.4,291.9z"/>
		
			<ellipse transform="matrix(0.9999 -1.612497e-002 1.612497e-002 0.9999 -4.4644 5.3319)" class="st3" cx="328.4" cy="279.5" rx="12" ry="12"/>
		
			<ellipse transform="matrix(2.975227e-002 -0.9996 0.9996 2.975227e-002 35.4042 599.3606)" cx="326.4" cy="281.4" rx="8.4" ry="7.4"/>
		<path class="st18" d="M344.9,258.1c-0.2-1.2-0.6-2.4-1.1-3.6c-0.2-0.6-0.5-1.3-1.1-2c-1.2-1.5-3.8-3.1-5-3"/>
		<path class="st18" d="M313.9,245.9c-1-1.7-2.3-3.3-3.9-4.6c-0.4-0.4-0.8-0.7-1.4-0.8s-1.3,0.1-1.9,0.4c-2.2,1.1-3.8,3.4-4.1,5.8"
			/>
		
			<ellipse transform="matrix(2.975227e-002 -0.9996 0.9996 2.975227e-002 30.6109 601.9464)" class="st3" cx="325.4" cy="285.2" rx="3" ry="3.2"/>
		
			<ellipse transform="matrix(0.2233 -0.9748 0.9748 0.2233 -34.1342 512.4562)" class="st3" cx="304.5" cy="277.6" rx="3" ry="3.2"/>
		
			<ellipse transform="matrix(0.1458 -0.9893 0.9893 0.1458 -29.3575 563.4017)" class="st19" cx="311.6" cy="298.7" rx="6.8" ry="9.9"/>
		<g>
			<path d="M328.9,250c0-0.4,0.1-0.9,0.2-1.3c0.1-0.4,0.2-0.9,0.3-1.3c0.3-0.8,0.7-1.6,1.2-2.3c1.1-1.4,2.8-2.3,4.5-2.2h0.1h-0.1
				l-0.4,0.1l0.4-0.2l0,0c-0.8,0-1.6,0.3-2.3,0.7c-0.7,0.4-1.3,1-1.7,1.7c-0.4,0.7-0.7,1.4-0.9,2.2c-0.1,0.4-0.1,0.8-0.2,1.2
				c0,0.4,0,0.8,0,1.2L328.9,250z"/>
		</g>
		<g>
			<path d="M332,236.2c0,0,0,0,0.1,0.1s0.1,0.2,0.2,0.2c0.1,0.2,0.1,0.3,0.1,0.5c0,0.3-0.1,0.4-0.2,0.6c-0.1,0.2-0.2,0.3-0.3,0.5
				l-0.3,0.3c-0.2,0.2-0.3,0.4-0.5,0.7c-0.2,0.2-0.3,0.5-0.5,0.7c-0.6,1-1.1,2-1.5,3c-0.4,1.1-0.8,2.1-1.2,3.2
				c-0.3,1.1-0.8,2.2-0.9,3.3h-0.5c0-1.9-0.4-3.8-1.1-5.6s-1.7-3.5-3.1-4.8c1.5,1.3,2.5,2.9,3.4,4.7c0.8,1.8,1.3,3.7,1.4,5.7h-0.5
				c0-0.6,0.1-1.2,0.3-1.8l0.5-1.7c0.3-1.1,0.7-2.2,1.1-3.3s0.9-2.2,1.5-3.2c0.1-0.3,0.3-0.5,0.5-0.8c0.2-0.2,0.3-0.5,0.5-0.7
				l0.3-0.3c0.1-0.1,0.1-0.2,0.2-0.3c0-0.1,0.1-0.2,0.1-0.2l0,0c0,0,0,0,0.1,0.1c0.1,0,0,0,0,0L332,236.2z"/>
		</g>
		<g>
			<path d="M324.2,248.5c0,0,0-0.1-0.1-0.2c0-0.1-0.1-0.1-0.1-0.2c0-0.1-0.1-0.2-0.2-0.3c-0.3-0.4-1-0.8-1.6-1.1
				c-0.7-0.4-1.4-0.7-1.8-1.1c-0.2-0.2-0.4-0.4-0.5-0.5s-0.2-0.2-0.2-0.2s0.1,0.1,0.2,0.2c0.1,0.1,0.3,0.3,0.5,0.4
				c0.5,0.3,1.2,0.6,1.9,0.8c0.7,0.3,1.5,0.6,2,1c0.1,0.1,0.2,0.2,0.3,0.3c0.1,0.1,0.2,0.2,0.2,0.3c0.1,0.1,0.1,0.2,0.1,0.2
				L324.2,248.5z"/>
		</g>
		
			<linearGradient id="SVGID_9_" gradientUnits="userSpaceOnUse" x1="796.6569" y1="197.0112" x2="797.2711" y2="217.2233" gradientTransform="matrix(-0.9951 9.876258e-002 -9.876258e-002 -0.9951 1101.1313 434.8958)">
			<stop  offset="0" style="stop-color:#FFFFFF"/>
			<stop  offset="8.510865e-002" style="stop-color:#FFEDD8"/>
			<stop  offset="0.2082" style="stop-color:#FFD5A7"/>
			<stop  offset="0.3345" style="stop-color:#FFC17D"/>
			<stop  offset="0.462" style="stop-color:#FFB05B"/>
			<stop  offset="0.591" style="stop-color:#FFA340"/>
			<stop  offset="0.7222" style="stop-color:#FF9A2D"/>
			<stop  offset="0.8568" style="stop-color:#FF9522"/>
			<stop  offset="1" style="stop-color:#FF931E"/>
		</linearGradient>
		<path class="st20" d="M262.7,303.8l10.3,15.8l4.2-7.4l-4.1-2.8l18.1-3.6l0.5,4c0.1,0.8,0.8,1.4,1.6,1.3l17.4-2.3
			c0.8-0.1,1.4-0.8,1.3-1.7l-1.5-11.3c-0.1-0.8-0.8-1.4-1.7-1.3l-17.4,2.3c-0.8,0.1-1.4,0.5-1.3,1.3l0.4,2.9L262.7,303.8z"/>
		
			<linearGradient id="SVGID_10_" gradientUnits="userSpaceOnUse" x1="749.5543" y1="185.289" x2="736.7245" y2="207.5108" gradientTransform="matrix(-0.9951 9.876258e-002 -9.876258e-002 -0.9951 1101.1313 434.8958)">
			<stop  offset="0" style="stop-color:#FFFFFF"/>
			<stop  offset="8.510865e-002" style="stop-color:#FFEDD8"/>
			<stop  offset="0.2082" style="stop-color:#FFD5A7"/>
			<stop  offset="0.3345" style="stop-color:#FFC17D"/>
			<stop  offset="0.462" style="stop-color:#FFB05B"/>
			<stop  offset="0.591" style="stop-color:#FFA340"/>
			<stop  offset="0.7222" style="stop-color:#FF9A2D"/>
			<stop  offset="0.8568" style="stop-color:#FF9522"/>
			<stop  offset="1" style="stop-color:#FF931E"/>
		</linearGradient>
		<path class="st21" d="M309.8,307.3l13.6,11.1c0.6,0.5,1.6,0.4,2.1-0.2l2.8-3.4l32.9,2.2l-4.3,2.7l0.9,8.1l19.8-13l-45.8-4.5l0.8-1
			c0.5-0.6,0.4-1.6-0.2-2.1l-13.6-11.1c-0.6-0.5-1.6-0.4-2.1,0.2l-7.2,8.8C309.1,305.9,309.2,306.8,309.8,307.3z"/>
		<polygon class="st22" points="360.3,329.7 337.6,335.9 331.8,383.2 310.5,380.6 310.4,381.2 285.8,378.5 291,331.1 270.3,319.9 
			276,309.3 292.8,318.4 313.5,320.8 313.6,320.2 338.7,323.1 357.1,318.1 		"/>
	</g>
	<g>
		<path d="M224.5,205.1c-0.5,0.2-1.5,0.5-2.7,0.5c-1.3,0-2.4-0.3-3.3-1.2c-0.8-0.7-1.2-1.9-1.2-3.3c0-2.6,1.8-4.5,4.8-4.5
			c1,0,1.8,0.2,2.2,0.4l-0.3,0.9c-0.5-0.2-1.1-0.4-1.9-0.4c-2.1,0-3.5,1.3-3.5,3.5s1.3,3.5,3.4,3.5c0.7,0,1.2-0.1,1.5-0.2v-2.6h-1.8
			v-0.9h2.9L224.5,205.1L224.5,205.1z"/>
		<path d="M226.2,196.8c0.6-0.1,1.4-0.2,2.2-0.2c1.2,0,2,0.2,2.5,0.7c0.4,0.4,0.7,1,0.7,1.7c0,1.2-0.7,1.9-1.7,2.2l0,0
			c0.7,0.2,1.1,0.9,1.3,1.8c0.3,1.2,0.5,2.1,0.7,2.4h-1.2c-0.1-0.2-0.3-1-0.6-2.1c-0.3-1.2-0.7-1.7-1.8-1.7h-1.1v3.8h-1.1v-8.6
			H226.2z M227.4,200.8h1.2c1.2,0,2-0.7,2-1.7c0-1.1-0.8-1.6-2-1.6c-0.5,0-0.9,0.1-1.1,0.1L227.4,200.8L227.4,200.8z"/>
		<path d="M233.2,196.8c0.6-0.1,1.4-0.2,2.2-0.2c1.2,0,2,0.2,2.5,0.7c0.4,0.4,0.7,1,0.7,1.7c0,1.2-0.7,1.9-1.7,2.2l0,0
			c0.7,0.2,1.1,0.9,1.3,1.8c0.3,1.2,0.5,2.1,0.7,2.4h-1.2c-0.1-0.2-0.3-1-0.6-2.1c-0.3-1.2-0.7-1.7-1.8-1.7h-1.1v3.8h-1.1v-8.6
			H233.2z M234.4,200.8h1.2c1.2,0,2-0.7,2-1.7c0-1.1-0.8-1.6-2-1.6c-0.5,0-0.9,0.1-1.1,0.1L234.4,200.8L234.4,200.8z"/>
		<path d="M240.2,196.8c0.6-0.1,1.4-0.2,2.2-0.2c1.2,0,2,0.2,2.5,0.7c0.4,0.4,0.7,1,0.7,1.7c0,1.2-0.7,1.9-1.7,2.2l0,0
			c0.7,0.2,1.1,0.9,1.3,1.8c0.3,1.2,0.5,2.1,0.7,2.4h-1.2c-0.1-0.2-0.3-1-0.6-2.1c-0.3-1.2-0.7-1.7-1.8-1.7h-1.1v3.8h-1.1v-8.6
			H240.2z M241.4,200.8h1.2c1.2,0,2-0.7,2-1.7c0-1.1-0.8-1.6-2-1.6c-0.5,0-0.9,0.1-1.1,0.1L241.4,200.8L241.4,200.8z"/>
		<path d="M247.3,196.8c0.6-0.1,1.4-0.2,2.2-0.2c1.2,0,2,0.2,2.5,0.7c0.4,0.4,0.7,1,0.7,1.7c0,1.2-0.7,1.9-1.7,2.2l0,0
			c0.7,0.2,1.1,0.9,1.3,1.8c0.3,1.2,0.5,2.1,0.7,2.4h-1.2c-0.1-0.2-0.3-1-0.6-2.1c-0.3-1.2-0.7-1.7-1.8-1.7h-1.1v3.8h-1.1v-8.6
			H247.3z M248.4,200.8h1.2c1.2,0,2-0.7,2-1.7c0-1.1-0.8-1.6-2-1.6c-0.5,0-0.9,0.1-1.1,0.1L248.4,200.8L248.4,200.8z"/>
		<path d="M254.3,196.8c0.6-0.1,1.4-0.2,2.2-0.2c1.2,0,2,0.2,2.5,0.7c0.4,0.4,0.7,1,0.7,1.7c0,1.2-0.7,1.9-1.7,2.2l0,0
			c0.7,0.2,1.1,0.9,1.3,1.8c0.3,1.2,0.5,2.1,0.7,2.4h-1.2c-0.1-0.2-0.3-1-0.6-2.1c-0.3-1.2-0.7-1.7-1.8-1.7h-1.1v3.8h-1.1v-8.6
			H254.3z M255.4,200.8h1.2c1.2,0,2-0.7,2-1.7c0-1.1-0.8-1.6-2-1.6c-0.5,0-0.9,0.1-1.1,0.1v3.2H255.4z"/>
		<path d="M261,204.8c0-0.5,0.3-0.8,0.8-0.8s0.8,0.3,0.8,0.8s-0.3,0.8-0.8,0.8S261,205.3,261,204.8z"/>
		<path d="M263.7,204.8c0-0.5,0.3-0.8,0.8-0.8s0.8,0.3,0.8,0.8s-0.3,0.8-0.8,0.8S263.7,205.3,263.7,204.8z"/>
		<path d="M266.4,204.8c0-0.5,0.3-0.8,0.8-0.8s0.8,0.3,0.8,0.8s-0.3,0.8-0.8,0.8C266.7,205.6,266.4,205.3,266.4,204.8z"/>
		<path d="M269,204.8c0-0.5,0.3-0.8,0.8-0.8s0.8,0.3,0.8,0.8s-0.3,0.8-0.8,0.8C269.4,205.6,269,205.3,269,204.8z"/>
		<path d="M271.7,204.8c0-0.5,0.3-0.8,0.8-0.8s0.8,0.3,0.8,0.8s-0.3,0.8-0.8,0.8C272.1,205.6,271.7,205.3,271.7,204.8z"/>
	</g>
	<line class="st18" x1="235.4" y1="208.4" x2="227.9" y2="217.6"/>
	<line class="st23" x1="204.9" y1="151" x2="204.4" y2="306.1"/>
	<line class="st23" x1="139.3" y1="227.6" x2="271.3" y2="229.8"/>
	<g>
		<polygon class="st4" points="71.5,436.8 26,442 70.4,430.9 		"/>
	</g>
	<ellipse class="st3" cx="366.8" cy="266.6" rx="6.8" ry="4.1"/>
	<ellipse class="st24" cx="495.3" cy="127" rx="30.3" ry="15.1"/>
	
		<linearGradient id="SVGID_11_" gradientUnits="userSpaceOnUse" x1="550.7" y1="336.3648" x2="612.3" y2="336.3648" gradientTransform="matrix(1 0 0 -1 0 480)">
		<stop  offset="4.926108e-003" style="stop-color:#FF7BAC"/>
		<stop  offset="0.5018" style="stop-color:#FF99AC"/>
		<stop  offset="0.9951" style="stop-color:#FFB2AC"/>
	</linearGradient>
	<path class="st25" d="M612.3,163.5c-1.9,0.1-12.5,3-15.8,4.1c-2.8,0.9-5.6,1.8-8.4,2.8c-3,1-6.1,2-9.3,2c-1.6,0-3.3-0.2-4.9,0.3
		c-1.7,0.6-3,2.1-4.8,2.6c-2.4,0.6-4.9-0.8-7.3-0.1c-1.1,0.3-2,0.9-3,1.3c-1.7,0.7-3.6,0.9-5.4,0.4c-1.5-4.1-2.7-8.4-2.7-12.7
		c0-4.4,1.2-8.8,4.1-12.1c1.7-1.9,4-3.4,5.5-5.4c2.1-2.8,2.6-6.5,3.1-10c0.2-1.8,0.5-3.7,0.1-5.5c-0.3-1.3-0.8-2.4-1.1-3.7
		c-0.8-3.1,0.2-6.7-1.2-9.6c-0.7-1.5-2-3.1-1.2-4.6c1.3-2.4,4.5-3.3,7.2-3.2c2.8,0.1,5.5,1.1,8.2,1.3c2,0.1,4.1-0.1,5.9,0.6
		c2.5,1,4.4,3.6,7.1,3.5l0.3-0.2c1.2,1.9,2.2,3.8,3.1,5.7c0.8,1.7,2,3.6,4,4.1s4.4-0.4,5.8,0.9c0.8,3-2.5,5.1-4,7.7
		c-1.8,2.9-1.2,6.6-0.5,10.1c0.5,2.8,1,5.5,1.5,8.3c0.5,3,1.3,6.3,4.1,8.4C605.4,162.5,608.9,162.7,612.3,163.5z"/>
	
		<linearGradient id="SVGID_12_" gradientUnits="userSpaceOnUse" x1="584.7345" y1="342.65" x2="616.1346" y2="342.65" gradientTransform="matrix(1 0 0 -1 0 480)">
		<stop  offset="0.3005" style="stop-color:#666666"/>
		<stop  offset="0.7391" style="stop-color:#9A9A9A"/>
		<stop  offset="0.9951" style="stop-color:#B3B3B3"/>
	</linearGradient>
	<path class="st26" d="M584.7,110c3.4,3.1,2.2,2.1,6.2,4.7c2.3,1.5,4.8,2.8,7,4.3c6.6,4.5,11.2,11,12.4,17.5
		c0.8,4.9-0.2,9.5-0.1,14.3c0,4.8,1.4,10.1,5.9,13.9c-1.1-0.5-2.3-0.9-3.6-1.2c0-0.1-0.1-0.1-0.3-0.1c-3.4-0.7-6.9-1-9.6-3
		c-2.8-2.1-3.5-5.4-4.1-8.4c-0.5-2.8-1-5.5-1.5-8.3c-0.6-3.5-1.2-7.2,0.5-10.1c1.5-2.5,4.8-4.6,4-7.7c-1.4-1.4-3.8-0.4-5.8-0.9
		s-3.2-2.5-4-4.1c-1-1.9-2-3.8-3.1-5.7C587.6,113.4,586.3,111.7,584.7,110L584.7,110z"/>
	
		<linearGradient id="SVGID_13_" gradientUnits="userSpaceOnUse" x1="460.9" y1="303.9867" x2="515.7674" y2="303.9867" gradientTransform="matrix(1 0 0 -1 0 480)">
		<stop  offset="4.926108e-003" style="stop-color:#FFFFA8"/>
		<stop  offset="0.668" style="stop-color:#FFFFE6"/>
		<stop  offset="0.9951" style="stop-color:#FFFFFF"/>
	</linearGradient>
	<path class="st27" d="M495.6,186.5c-4.6,1.4-9.4,2.3-14.2,2.7c-7,0.6-14.1,0-20.5-1.7l0.1-0.4c17.6-5.2,34.3-13.6,48.4-24.4
		l0.3-0.1c1.9,1.5,3.5,3.3,5,5.1c0.3,0.4,0.6,0.8,0.8,1.2c0.5,1.1,0.2,2.5-0.1,3.7c-0.3,1.1-0.5,2.2-0.7,3.3c-2.1,3-5,4.6-8.6,6.5
		c-2.5,1.2-5,2.3-7.6,3.2l-1.6,0.4v0.2C496.4,186.2,496,186.4,495.6,186.5z"/>
	<path class="st28" d="M498.4,185.5c-0.5,0.2-1.1,0.4-1.7,0.6v-0.2L498.4,185.5z"/>
	<path class="st29" d="M498,143.8c0.1-0.2,0.2-0.3,0.3-0.5l0,0c0.1-0.1,0.2-0.2,0.3-0.4C498.5,143.2,498.3,143.5,498,143.8z"/>
	<path class="st29" d="M497.9,143.9l0.1-0.1C498,143.8,497.9,143.8,497.9,143.9z"/>
	<path class="st28" d="M495.7,192.3l1.1-6.2c0.6-0.2,1.1-0.4,1.7-0.6l2.7-0.7l4.7-1.8l5.4-3.1l11.4-9.4c0,0-2.5,12.1-17,18
		C502.9,189.6,498.7,191.9,495.7,192.3z"/>
	<path class="st24" d="M496.9,140.1c-0.5-0.1-1.1,0.1-1.5,0.4c-0.3,0.2-0.5,0.4-0.7,0.7c-0.3-0.5-0.1-1.2,0.4-1.5
		c0.6-0.4,1.3-0.2,1.7,0.3C496.8,139.9,496.9,140,496.9,140.1z"/>
	<path class="st24" d="M495.4,140.4c0.5-0.3,1-0.4,1.5-0.4c0.2,0.5,0,1.1-0.5,1.4c-0.6,0.4-1.3,0.2-1.7-0.3V141
		C494.9,140.8,495.1,140.6,495.4,140.4z"/>
	<path class="st29" d="M479.5,137.2c0-0.1,0.1-0.1,0.1-0.2c-0.1,0.3-0.2,0.5-0.4,0.8C479.3,137.6,479.4,137.4,479.5,137.2z"/>
	<path d="M478.6,138.1c0.3-0.3,0.6-0.6,0.9-0.9c0,0.2-0.1,0.4-0.3,0.5C479,137.9,478.8,138.1,478.6,138.1z"/>
	<path class="st29" d="M478.6,138.1c0.2-0.1,0.4-0.2,0.6-0.4c0,0,0,0,0,0.1c-0.3,0.4-0.8,0.7-1.3,0.8c0.2-0.1,0.4-0.2,0.6-0.3
		C478.5,138.2,478.5,138.2,478.6,138.1z"/>
	<path class="st30" d="M480.1,130.5c0.1,0.3,0.2,0.5,0.2,0.8l0,0c-2.6,0.5-5.1,1.7-7.5,3.4c-0.6-2.7,0.2-5.7,1.9-6.9
		c0.2-0.1,0.4-0.3,0.6-0.4C477.2,126.6,479.2,127.9,480.1,130.5z"/>
	<path class="st24" d="M477.2,135.7c-0.4,0.5-1.2,0.6-1.7,0.2c0,0,0,0-0.1-0.1c0.1-0.3,0.2-0.6,0.4-0.8c0.4-0.4,0.9-0.7,1.4-0.8
		C477.6,134.7,477.6,135.3,477.2,135.7z"/>
	<path class="st24" d="M475.9,135c-0.2,0.2-0.4,0.5-0.4,0.8c-0.4-0.4-0.4-1.1,0-1.6s1.2-0.6,1.7-0.2c0.1,0.1,0.1,0.1,0.2,0.2
		C476.8,134.3,476.3,134.6,475.9,135z"/>
	<path class="st29" d="M475.1,134c-0.8,0.7-1.1,1.8-0.8,2.8c0.1,0.1,0.1,0.2,0.2,0.3c-0.1-0.5,0-1.1,0.4-1.4
		c0.6-0.5,1.5-0.4,2.1,0.2c0.5,0.6,0.5,1.6-0.1,2.1c-0.4,0.3-0.9,0.4-1.3,0.3l0.1,0.1c0.2,0.2,0.5,0.3,0.7,0.4l0,0
		c0.8,0.2,1.6,0,2.3-0.6c0.8-0.7,1.1-1.8,0.8-2.8l-0.1,0.1c-0.6,0.5-1.5,0.4-2.1-0.2c-0.5-0.6-0.5-1.3-0.1-1.9
		C476.4,133.3,475.7,133.4,475.1,134z"/>
	<path class="st30" d="M475.3,127.1c2.8-1.2,5-0.5,6.3,2.9c0.1,0.3,0.2,0.6,0.3,0.9l-1.5,0.3c-0.1-0.3-0.1-0.5-0.2-0.8
		c-0.9-2.6-2.9-3.8-4.7-3.1L475.3,127.1z"/>
	<path class="st30" d="M474.8,127.7c-1.8,1.3-2.5,4.2-1.9,6.9c-0.1,0-0.1,0.1-0.2,0.1L471,136c-0.1,0.1-0.1,0-0.2-0.2
		c-0.2-3.2,2.2-7.6,3.9-8.5c0.2-0.1,0.4-0.2,0.6-0.3l0.1,0.2C475.2,127.5,475,127.6,474.8,127.7z"/>
	
		<linearGradient id="SVGID_14_" gradientUnits="userSpaceOnUse" x1="394.4361" y1="323.3768" x2="617.1563" y2="323.3768" gradientTransform="matrix(1 0 0 -1 0 480)">
		<stop  offset="4.926108e-003" style="stop-color:#666666"/>
		<stop  offset="0.6302" style="stop-color:#9A9A9A"/>
		<stop  offset="0.9951" style="stop-color:#B3B3B3"/>
	</linearGradient>
	<path class="st31" d="M479.9,137.4c0.9-1.5,1.3-3.7,0.8-5.7l1.5-0.3c-0.1-0.3-0.2-0.6-0.3-0.9c-1.3-3.3-3.5-4.1-6.3-2.9
		c-0.2,0.1-0.4,0.2-0.6,0.3c-1.6,0.8-4.1,5.3-3.9,8.5c0,0.1,0.1,0.2,0.2,0.2l1.7-1.3c0.1,0,0.1-0.1,0.2-0.1c0.1,0.3,0.1,0.6,0.2,0.8
		c0.9,2.6,3,3.9,4.8,3.1l0,0c0.5-0.1,0.9-0.4,1.3-0.8c0,0,0,0,0-0.1C479.7,137.9,479.8,137.6,479.9,137.4z M500.3,139.5l1.1,0.7
		c0-0.4,0-0.7,0-1.1c-0.2-4.5-2.1-6.9-5.1-7.5c-1.6-0.4-4.8,2.1-5.4,5.4c0,0.1,0,0.3,0.1,0.3h1.7c0,0,0,0,0,0.1
		c-0.6,3.1,0.5,6.3,2.6,7.2c0.4,0.1,0.7,0.2,1,0.2l0,0c0.6,0.1,1.2,0,1.7-0.3l0,0l0,0l0.1-0.1l0.1-0.1c0.3-0.2,0.5-0.6,0.6-0.9l0,0
		c0.6-0.7,1-1.7,1.2-2.8C500.2,140.1,500.2,139.8,500.3,139.5z M496,192.7c3-0.5,7.1-2.7,9.9-3.8c14.5-5.9,17-18,17-18l-11.4,9.4
		l-5.4,3.1l-4.7,1.8l-2.7,0.7c2.6-0.9,5.2-2,7.6-3.2c3.6-1.8,6.5-3.4,8.6-6.5c0.2-1.1,0.5-2.2,0.7-3.3c0.3-1.3,0.6-2.6,0.1-3.7
		c-0.2-0.4-0.5-0.8-0.8-1.2c-1.4-1.8-3.1-3.5-5-5.1l-0.3,0.1c-14.1,10.8-30.8,19.2-48.4,24.4l-0.1,0.4c6.4,1.7,13.4,2.3,20.5,1.7
		v0.2c-9.2,13.5-19.1,30.7-30,42.7c-8,8.9-19,16.2-31.6,15.5c-10.5,0-23.5-16.2-24.6-21.1c-4.1-19.3,5.6-35.8,15.5-51.3
		c2.1-3.5,4.2-7.7,2.8-11.2c-1.4-2.1-4.2-4.2-4.9-7c0-0.7,0-1.4,0.2-1.9c0.4,0.8,3.9,0.6,4.7,0.3s1.7-0.6,2.5-0.3s1.5,1.2,2.2,0.8
		c0.5-0.3,0.4-1,0.6-1.5c0.4-1.1,1.7-1.6,2.8-1.8s2.4-0.6,3-1.6c0.2,0.9-0.9,3.2,0.1,7.7c1.5,6.3-0.5,10.5-1.4,15.8
		c-1.6,9.1-6,18.7-8.4,23.7c-0.5,1-2.8,4.2-3.6,7c-2.2,7.8-1.4,10.6,1.1,16.1c3.2,6.8,11.1,5.2,16.5,1.4c7.9-5.6,9.6-9.5,15.2-16.5
		c2.8-3.5,5.2-11.2,7.3-14.7c3-5.4,3.4-11.2,3.9-17.1c0.1-1.1,0.2-2.2,0.3-3.2c0.7-4.9,2.1-9.8,4.2-14c0.2-0.3,0.4-0.6,0.5-0.9
		l-0.4-0.2l-1.5,0.7l-5.8,3.5h-0.1l-0.2-0.5c-1.3-3.8-2.6-7.9-0.9-11.1c0.6-1.1,1.4-2,1.9-3.1c1.7-3.7-0.9-8.4-0.1-12.4
		c0.3-1.5,1.1-2.9,1.3-4.4c0.4-2.1-0.3-4.3,0-6.3c0.3-2.9,2.3-5.2,4.5-7.2l-0.2-0.2c0.4-0.3,0.6-0.7,0.8-1.2c0.1,0.1,0.1,0.1,0-0.1
		v0.1l-0.1-0.1c1.5-8,3.6-15.8,6.2-23.5c0.1-0.3,0.2-0.7,0.3-1c0.4-1.4,0.7-2.8,0.2-4.1c-0.4-1-1.3-1.8-1.8-2.8
		c-0.6-1-0.7-2.3-1.4-3.3c-1.4-2-4.3-1.9-6.4-3.2c-2.1-1.3-3-3.9-4.7-5.7c-2.5-2.7-7-3.3-10.1-1.4l-0.4-0.2c0.1-0.3,0.2-0.5,0.3-0.8
		c0.1-0.2,0.2-0.4,0.4-0.7c0.7-0.7,2.1-2.1,4.2-2.1c5.6,0.7,10.5,0,16.2,0.7c2.8,0.7,5.6,2.8,8.4,4.9c3.1,2.5,5.6,7.6,3.1,10.5h0.1
		c7.1-2.4,14.6-4.1,22.6-4.4c8-0.2,17.2,1.7,24.7,5l0,0c2.4-0.3,5.3,0.8,7.7,2c4.7,2.3,9.4,4.7,13.9,7.3c3.9,2.2,8,4.7,10.4,8.2
		c1.7,2.5,2.5,5.3,4.5,7.6c0.5-0.4,1.1-0.6,1.7-0.9c3.5-1.6,7.2-3.1,11.5-2.9c4.9,0.3,9.7,3,13.1,6.4c0.2,0.2,0.3,0.3,0.5,0.5
		c1.6,1.7,2.9,3.4,4,5.3l-0.3,0.2c-2.7,0.1-4.6-2.6-7.1-3.5c-1.9-0.7-3.9-0.5-5.9-0.6c-2.8-0.2-5.5-1.1-8.2-1.3
		c-2.8-0.1-5.9,0.7-7.2,3.2c-0.8,1.5,0.5,3,1.2,4.6c1.4,2.9,0.4,6.4,1.2,9.6c0.3,1.3,0.9,2.4,1.1,3.7c0.4,1.8,0.2,3.7-0.1,5.5
		c-0.4,3.5-1,7.2-3.1,10c-1.5,2.1-3.8,3.5-5.5,5.4c-2.9,3.3-4.1,7.7-4.1,12.1c0,4.4,1.3,8.6,2.7,12.7c1.8,0.5,3.7,0.3,5.4-0.4
		c1-0.4,1.9-1.1,3-1.3c2.4-0.6,4.9,0.8,7.3,0.1c1.8-0.5,3.1-2,4.8-2.6c1.6-0.5,3.2-0.3,4.9-0.3c3.2,0,6.3-1,9.3-2
		c2.8-0.9,5.6-1.8,8.4-2.8c3.3-1.1,13.9-4,15.8-4.1c0.1,0,0.2,0,0.3,0.1c1.2,0.3,2.5,0.6,3.6,1.2c0.2,0.1,0.4,0.2,0.6,0.4
		c0.5,0.6-0.3,1.2-1,1.4c-6.8,2.2-15.1,1.7-21.1,5c-1.7,0.9-3.1,2.1-4.9,2.8c-2.9,1.2-6.5,1.1-9.8,1.5c-3.8,0.4-7.4,1.5-10.6,3.2
		c-0.6,0.3-1.1,0.6-1.8,0.7c-0.6,0.1-1.2-0.1-1.8-0.2c-2.3-0.4-4.7-0.2-6.8,0.4c-2.2,0.7-4.5,1.9-6.8,0.9c-1.1-0.5-2-1.4-2.8-2.2
		c-1.7-1.8-3.4-3.8-3.5-5.9c-0.2-3.3,2.8-7.1,0.7-10.1l-0.1-0.1c-0.6,0.9-1.3,1.7-2,2.5c-4.4,5.4-8.8,10.8-14.8,15
		c-4.3,3-6.6,4.4-12.1,5.9l0,0c-7,4.9-15.5,8.6-23.6,10.3c-0.3,0.1-0.7,0.1-0.9-0.2c-0.1-0.2,0.1-0.4,0-0.6
		c-0.6-2.2,1.4-6.7,2.7-8.5l-0.1-0.4c0.4-0.1,0.8-0.2,1.2-0.4L496,192.7z"/>
	
		<linearGradient id="SVGID_15_" gradientUnits="userSpaceOnUse" x1="426.5624" y1="314.4745" x2="460.4624" y2="314.4745" gradientTransform="matrix(1 0 0 -1 0 480)">
		<stop  offset="4.926108e-003" style="stop-color:#FFFFA8"/>
		<stop  offset="0.668" style="stop-color:#FFFFE6"/>
		<stop  offset="0.9951" style="stop-color:#FFFFFF"/>
	</linearGradient>
	<path class="st32" d="M458.6,156.5l1.5-0.7l0.4,0.2c-0.2,0.3-0.4,0.6-0.5,0.9c-2.1,4.2-3.5,9.1-4.2,14c-0.1,1.1-0.2,2.2-0.3,3.2
		h-0.2l-1.6,0.6c-9.1,1.3-18.5,0.3-27.1-3l0.1-0.4c9.1-2.7,17.9-6.5,26.1-11.2h0.1C454.8,159,456.7,157.8,458.6,156.5z"/>
	<path class="st33" d="M453.4,132.9l-1.4,3.3c-0.3,1-0.7,2-1,3c-0.4,1.3-0.9,2.6-1.9,3.6s-2.8,1.5-4.4,0.8c-2.3-0.9-2.8-3.5-3.8-5.5
		c-0.7-1.5-1.9-2.8-2.4-4.3s-0.3-3.1-1.3-4.4c-2.1-2.9-7.6-2.6-9.7-5.5c-1.2-1.7-0.7-3.7-1.5-5.6c-1.5-3.3-6.9-4.8-8-8.2
		c-0.4-1.2-0.2-2.3-0.5-3.5c-0.7-2.3-3.5-3.8-5.9-5.1c-2.4-1.3-5.1-3-5.6-5.3c-0.3-1.5,0.4-2.7,1.5-3.7c0.7,0.7,1.4,1.2,2.2,1.7
		c-0.4,2.3,2.3,2.5,4.4,3.4c3.5,1.5,6.5,4.3,8.2,7.8c0.7,1.4,1.2,2.9,2.1,4c0.7,0.9,1.7,1.5,2.5,2.2c1.6,1.4,2.7,3.2,3.3,5.3
		c0.2,0.7,0.3,1.5,0.7,2.2c0.7,1.3,2.2,2,3.6,2.7c4.4,2.4,7.9,6.6,9.4,11.4c0.2,0.6,0.4,1.2,0.8,1.6c0.8,0.8,2.2,0.6,3-0.2
		s1.2-1.9,1.5-3c0.6-2.2,0.9-4.4,1-6.7c0.2-2.8,0.2-6,2.4-7.7c1.9-1.4,5-1.2,6.6-2.6l0.2,0.2c-2.3,2-4.2,4.3-4.5,7.2
		c-0.2,2.1,0.4,4.3,0,6.3C454.5,130.1,453.7,131.4,453.4,132.9z"/>
	
		<linearGradient id="SVGID_16_" gradientUnits="userSpaceOnUse" x1="409.5762" y1="378.3484" x2="466.9259" y2="378.3484" gradientTransform="matrix(1 0 0 -1 0 480)">
		<stop  offset="4.926108e-003" style="stop-color:#FF7BAC"/>
		<stop  offset="0.5018" style="stop-color:#FF99AC"/>
		<stop  offset="0.9951" style="stop-color:#FFB2AC"/>
	</linearGradient>
	<path class="st34" d="M447.6,134.9c-0.8,0.8-2.2,1-3,0.2c-0.4-0.4-0.6-1-0.8-1.6c-1.5-4.9-5-9.1-9.4-11.4c-1.3-0.7-2.8-1.4-3.6-2.7
		c-0.4-0.7-0.5-1.4-0.7-2.2c-0.6-2-1.7-3.9-3.3-5.3c-0.8-0.7-1.8-1.4-2.5-2.2c-1-1.2-1.5-2.7-2.1-4c-1.7-3.5-4.7-6.3-8.2-7.8
		c-2.1-0.9-4.7-1.1-4.4-3.4c5.9,3.7,13.1,1.6,18.8-2.8c3.5-2.8,3.5-7,6.3-9.8c1.4-1.4,3.5-2.1,4.9-3.5c1.8-3,1-6.6,2.1-9.8l0.4,0.2
		c3.2-1.9,7.6-1.3,10.1,1.4c1.7,1.8,2.6,4.4,4.7,5.7c2,1.3,5,1.2,6.4,3.2c0.7,1,0.8,2.2,1.4,3.3c0.5,1,1.4,1.7,1.8,2.8
		c0.5,1.3,0.2,2.7-0.2,4.1c-0.1,0.3-0.2,0.7-0.3,1c-2.7,7.6-4.8,15.5-6.2,23.5c-0.1,0-0.1-0.1,0,0.1v-0.1l0.1,0.1
		c-0.2,0.5-0.5,0.8-0.8,1.2c-1.6,1.4-4.7,1.2-6.6,2.6c-2.2,1.6-2.2,4.9-2.4,7.7c-0.1,2.3-0.5,4.5-1,6.7
		C448.8,132.9,448.4,134.1,447.6,134.9z"/>
	
		<linearGradient id="SVGID_17_" gradientUnits="userSpaceOnUse" x1="407.4" y1="397.9978" x2="442" y2="397.9978" gradientTransform="matrix(1 0 0 -1 0 480)">
		<stop  offset="0.3005" style="stop-color:#666666"/>
		<stop  offset="0.7391" style="stop-color:#9A9A9A"/>
		<stop  offset="0.9951" style="stop-color:#B3B3B3"/>
	</linearGradient>
	<path class="st35" d="M442,67.7c-0.1,0.3-0.2,0.5-0.3,0.8c-1.1,3.2-0.3,6.7-2.1,9.8c-1.4,1.4-3.5,2.1-4.9,3.5
		c-2.8,2.8-2.8,7-6.3,9.8c-5.6,4.4-12.9,6.5-18.8,2.8c-0.7-0.5-1.5-1-2.2-1.7c0.7-0.7,1.5-1.3,2.3-1.8c7.7-5.3,15.3-10.6,23-15.9
		c1.4-1,2.8-1.9,4-3C438.3,70.5,439.8,68.7,442,67.7z"/>
	
		<linearGradient id="SVGID_18_" gradientUnits="userSpaceOnUse" x1="408.7514" y1="327.6947" x2="425.0103" y2="327.6947" gradientTransform="matrix(1 0 0 -1 0 480)">
		<stop  offset="0" style="stop-color:#FF7BAC"/>
		<stop  offset="0.379" style="stop-color:#C0728F"/>
		<stop  offset="0.8007" style="stop-color:#7F6972"/>
		<stop  offset="1" style="stop-color:#666666"/>
	</linearGradient>
	<path class="st36" d="M421.6,148.9c1.2-0.4,2.8-0.2,3.4,0.9l-0.3,1.1c-0.5,1-1.8,1.4-3,1.6s-2.4,0.7-2.8,1.8
		c-0.2,0.5-0.2,1.2-0.6,1.5c-0.7,0.4-1.5-0.5-2.2-0.8c-0.8-0.3-1.7,0.1-2.5,0.3s-4.3,0.4-4.7-0.3l-0.1-0.7c0-1.9,2-3.1,3.9-3.3
		s3.8,0.2,5.6-0.4C419.4,150.2,420.4,149.3,421.6,148.9z M421.1,151.3c0.6-0.3,1.1-0.8,1.8-1c-0.6,0-1,0.5-1.6,0.8
		c-0.7,0.3-1.5,0.1-2.2,0.2c-0.5,0.1-0.9,0.4-1.4,0.6c-0.6,0.2-1.2,0.2-1.8,0.2c-1.8,0-3.6,0.5-5.3,1.3c-0.1,0-0.1,0.2-0.1,0.2l0,0
		c0.8,0.3,1.7-0.1,2.5-0.3c1.2-0.3,2.4-0.4,3.6-0.2c0.2,0,0.4,0.1,0.5,0c0.2-0.1,0.3-0.2,0.4-0.3c0.6-0.6,1.3-1,2.2-1.2
		C420.3,151.4,420.7,151.4,421.1,151.3z"/>
	
		<radialGradient id="SVGID_19_" cx="407.2421" cy="356.7566" r="5.2673" gradientTransform="matrix(1 0 0 -1 0 480)" gradientUnits="userSpaceOnUse">
		<stop  offset="0" style="stop-color:#FF7BAC;stop-opacity:0"/>
		<stop  offset="1" style="stop-color:#FF7BAC"/>
	</radialGradient>
	<circle class="st37" cx="407.2" cy="123.2" r="5.3"/>
	
		<linearGradient id="SVGID_20_" gradientUnits="userSpaceOnUse" x1="397.0605" y1="372.5883" x2="401.2717" y2="372.5883" gradientTransform="matrix(1 0 0 -1 0 480)">
		<stop  offset="0" style="stop-color:#FF7BAC"/>
		<stop  offset="1" style="stop-color:#FF7BAC;stop-opacity:0"/>
	</linearGradient>
	<path class="st38" d="M397.1,108c-0.3-1.1,0.3-2.2,1.3-2.6c0.7-0.2,1.4-0.1,1.9,0.3c0.3,0.2,0.6,0.6,0.7,1c0.4,1.1-0.2,2.3-1.3,2.7
		C398.7,109.8,397.5,109.2,397.1,108C397.2,108.1,397.2,108.1,397.1,108z"/>
	
		<radialGradient id="SVGID_21_" cx="396.0053" cy="377.1233" r="5.2673" gradientTransform="matrix(1 0 0 -1 0 480)" gradientUnits="userSpaceOnUse">
		<stop  offset="0" style="stop-color:#FF7BAC;stop-opacity:0"/>
		<stop  offset="1" style="stop-color:#FF7BAC"/>
	</radialGradient>
	<path class="st39" d="M396,97.6c2.9,0,5.3,2.4,5.3,5.3c0,1.1-0.3,2-0.9,2.9c-0.5-0.4-1.2-0.5-1.9-0.3c-1.1,0.4-1.7,1.5-1.3,2.6l0,0
		c-0.4,0.1-0.7,0.1-1.1,0.1c-2.9,0-5.3-2.4-5.3-5.3S393.1,97.6,396,97.6z"/>
	
		<radialGradient id="SVGID_22_" cx="387.9289" cy="343.764" r="10.5345" gradientTransform="matrix(1 0 0 -1 0 480)" gradientUnits="userSpaceOnUse">
		<stop  offset="0" style="stop-color:#CCE0F4"/>
		<stop  offset="6.405089e-002" style="stop-color:#C3DCF2"/>
		<stop  offset="0.1706" style="stop-color:#A9D2EE"/>
		<stop  offset="0.3066" style="stop-color:#80C2E7"/>
		<stop  offset="0.4649" style="stop-color:#47ACDE"/>
		<stop  offset="0.5674" style="stop-color:#1E9CD7"/>
		<stop  offset="0.8652" style="stop-color:#0075BE"/>
		<stop  offset="0.9944" style="stop-color:#005B97"/>
	</radialGradient>
	<path class="st40" d="M382,137.6c-1.5,0-2.8,0.6-3.7,1.5l-0.5-0.2c-0.2-0.9-0.4-1.8-0.4-2.7c0-5.8,4.7-10.5,10.5-10.5
		s10.5,4.7,10.5,10.5s-4.7,10.5-10.5,10.5c-0.7,0-1.5-0.1-2.2-0.2l0,0c0.9-0.9,1.5-2.2,1.5-3.6C387.2,140,384.9,137.6,382,137.6z"/>
	
		<radialGradient id="SVGID_23_" cx="381.95" cy="337.0921" r="5.272" gradientTransform="matrix(1 0 0 -1 0 480)" gradientUnits="userSpaceOnUse">
		<stop  offset="0" style="stop-color:#FF7BAC;stop-opacity:0"/>
		<stop  offset="1" style="stop-color:#FF7BAC"/>
	</radialGradient>
	<path class="st41" d="M379.5,145.5c-0.7-0.2-1.4-0.1-1.9,0.3c-0.5-0.8-0.9-1.8-0.9-2.9c0-1.5,0.6-2.8,1.5-3.7c1-1,2.3-1.5,3.7-1.5
		c2.9,0,5.3,2.4,5.3,5.3c0,1.4-0.6,2.7-1.5,3.6c-0.9,1-2.3,1.6-3.8,1.6c-0.4,0-0.7,0-1.1-0.1l0,0C381.1,147,380.5,145.8,379.5,145.5
		z"/>
	
		<radialGradient id="SVGID_24_" cx="377.0432" cy="365.1842" r="5.2673" gradientTransform="matrix(1 0 0 -1 0 480)" gradientUnits="userSpaceOnUse">
		<stop  offset="0" style="stop-color:#CCE0F4"/>
		<stop  offset="6.405089e-002" style="stop-color:#C3DCF2"/>
		<stop  offset="0.1706" style="stop-color:#A9D2EE"/>
		<stop  offset="0.3066" style="stop-color:#80C2E7"/>
		<stop  offset="0.4649" style="stop-color:#47ACDE"/>
		<stop  offset="0.5674" style="stop-color:#1E9CD7"/>
		<stop  offset="0.8652" style="stop-color:#0075BE"/>
		<stop  offset="0.9944" style="stop-color:#005B97"/>
	</radialGradient>
	<circle class="st42" cx="377" cy="114.8" r="5.3"/>
	
		<linearGradient id="SVGID_25_" gradientUnits="userSpaceOnUse" x1="376.6929" y1="332.4878" x2="380.9041" y2="332.4878" gradientTransform="matrix(1 0 0 -1 0 480)">
		<stop  offset="0" style="stop-color:#CCE0F4"/>
		<stop  offset="6.405089e-002" style="stop-color:#C3DCF2"/>
		<stop  offset="0.1706" style="stop-color:#A9D2EE"/>
		<stop  offset="0.3066" style="stop-color:#80C2E7"/>
		<stop  offset="0.4649" style="stop-color:#47ACDE"/>
		<stop  offset="0.5674" style="stop-color:#1E9CD7"/>
		<stop  offset="0.8652" style="stop-color:#0075BE"/>
		<stop  offset="0.9944" style="stop-color:#005B97"/>
	</linearGradient>
	<path class="st43" d="M377.5,145.8c0.5-0.4,1.2-0.5,1.9-0.3c1.1,0.4,1.7,1.5,1.3,2.6v0.1c-0.4,1.1-1.6,1.7-2.7,1.3
		s-1.7-1.6-1.3-2.7C376.9,146.4,377.2,146,377.5,145.8z"/>
	<path class="st18" d="M472.9,82.1c0.6-0.3,1-0.6,1.4-1c2.6-2.9,0-8-3.1-10.5c-2.8-2.1-5.6-4.2-8.4-4.9c-5.6-0.7-10.5,0-16.2-0.7
		c-2.1,0-3.5,1.4-4.2,2.1c-0.1,0.2-0.2,0.4-0.4,0.7c-0.1,0.3-0.2,0.5-0.3,0.8c-1.1,3.2-0.3,6.7-2.1,9.8c-1.4,1.4-3.5,2.1-4.9,3.5
		c-2.8,2.8-2.8,7-6.3,9.8c-5.6,4.4-12.9,6.5-18.8,2.8c-0.7-0.5-1.5-1-2.2-1.7"/>
	<path class="st18" d="M452.2,135.7c-0.1,0.2-0.1,0.4-0.2,0.5c-0.3,1-0.7,2-1,3c-0.4,1.3-0.9,2.6-1.9,3.6s-2.8,1.5-4.4,0.8
		c-2.3-0.9-2.8-3.5-3.8-5.5c-0.7-1.5-1.9-2.8-2.4-4.3s-0.3-3.1-1.3-4.4c-2.1-2.9-7.6-2.6-9.7-5.5c-1.2-1.7-0.7-3.7-1.5-5.6
		c-1.5-3.3-6.9-4.8-8-8.2c-0.4-1.2-0.2-2.3-0.5-3.5c-0.7-2.3-3.5-3.8-5.9-5.1c-2.4-1.3-5.1-3-5.6-5.3c-0.3-1.5,0.4-2.7,1.5-3.7
		c0.7-0.7,1.5-1.3,2.3-1.8c7.7-5.3,15.3-10.6,23-15.9c1.4-1,2.8-1.9,4-3c1.7-1.5,3.1-3.3,5.3-4.2c0.2-0.1,0.3-0.1,0.5-0.2"/>
	<path class="st18" d="M556.6,109.9c-0.4-1.2,0.4-2.2,1.5-3c0.5-0.4,1.1-0.6,1.7-0.9c3.5-1.6,7.2-3.1,11.5-2.9
		c4.9,0.3,9.7,3,13.1,6.4c0.2,0.2,0.3,0.3,0.5,0.5c1.6,1.7,2.9,3.4,4,5.3c1.2,1.9,2.2,3.8,3.1,5.7c0.8,1.7,2,3.6,4,4.1
		s4.4-0.4,5.8,0.9c0.8,3-2.5,5.1-4,7.7c-1.8,2.9-1.2,6.6-0.5,10.1c0.5,2.8,1,5.5,1.5,8.3c0.5,3,1.3,6.3,4.1,8.4c2.6,2,6.2,2.3,9.6,3
		c0.1,0,0.2,0,0.3,0.1c1.2,0.3,2.5,0.6,3.6,1.2c0.2,0.1,0.4,0.2,0.6,0.4c0.5,0.6-0.3,1.2-1,1.4c-6.8,2.2-15.1,1.7-21.1,5
		c-1.7,0.9-3.1,2.1-4.9,2.8c-2.9,1.2-6.5,1.1-9.8,1.5c-3.8,0.4-7.4,1.5-10.6,3.2c-0.6,0.3-1.1,0.6-1.8,0.7c-0.6,0.1-1.2-0.1-1.8-0.2
		c-2.3-0.4-4.7-0.2-6.8,0.4c-2.2,0.7-4.5,1.9-6.8,0.9c-1.1-0.5-2-1.4-2.8-2.2c-1.7-1.8-3.4-3.8-3.5-5.9c-0.2-3.3,2.8-7.1,0.7-10.1"
		/>
	<path class="st18" d="M584.7,110c3.4,3.1,2.2,2.1,6.2,4.7c2.3,1.5,4.8,2.8,7,4.3c6.6,4.5,11.2,11,12.4,17.5
		c0.8,4.9-0.2,9.5-0.1,14.3c0,4.8,1.4,10.1,5.9,13.9"/>
	<path class="st18" d="M452.7,160.1c-8.2,4.7-17,8.5-26.1,11.2l-0.1,0.4c8.6,3.3,18,4.3,27.1,3l1.6-0.6"/>
	<path class="st18" d="M452.8,160.1l5.8-3.5C456.7,157.8,454.8,159,452.8,160.1"/>
	<line class="st18" x1="452.8" y1="160.1" x2="452.7" y2="160.1"/>
	<path class="st18" d="M461.9,112.9c-0.9,0.7-1.7,1.4-2.6,2.1c-2.3,2-4.2,4.3-4.5,7.2c-0.2,2.1,0.4,4.3,0,6.3
		c-0.3,1.5-1,2.9-1.3,4.4c-0.8,4,1.8,8.7,0.1,12.4c-0.5,1.1-1.4,2.1-1.9,3.1c-1.7,3.3-0.4,7.4,0.9,11.1l0.2,0.5"/>
	<path class="st18" d="M519.5,82.6c0.6-0.4,1.3-0.7,2.1-0.8c2.4-0.3,5.3,0.8,7.7,2c4.7,2.3,9.4,4.7,13.9,7.3c3.9,2.2,8,4.7,10.4,8.2
		c1.7,2.5,2.5,5.3,4.5,7.6c0,0,0,0,0,0.1"/>
	<path class="st18" d="M557.4,129.4c1.1,5.4,2.1,11.2-0.8,15.5c-1.5,2.2-4,3.9-5.5,6.2c-1.7,2.6-1.9,5.8-3.1,8.6
		c-0.5,1-1,1.9-1.7,2.8c-0.6,0.9-1.3,1.7-2,2.5c-4.4,5.4-8.8,10.8-14.8,15c-4.3,3-6.6,4.4-12.1,5.9"/>
	<path class="st18" d="M481.4,189.4c-9.2,13.5-19.1,30.7-30,42.7c-8,8.9-19,16.2-31.6,15.5c-10.5,0-23.5-16.2-24.6-21.1
		c-4.1-19.3,5.6-35.8,15.5-51.3c2.1-3.5,4.2-7.7,2.8-11.2c-1.4-2.1-4.2-4.2-4.9-7c0-0.7,0-1.4,0.2-1.9l-0.1-0.7c0-1.9,2-3.1,3.9-3.3
		s3.8,0.2,5.6-0.4c1.2-0.4,2.2-1.3,3.4-1.7c1.2-0.4,2.8-0.2,3.4,0.9l-0.3,1.1c-0.5,1-1.8,1.4-3,1.6s-2.4,0.7-2.8,1.8
		c-0.2,0.5-0.2,1.2-0.6,1.5c-0.7,0.4-1.5-0.5-2.2-0.8c-0.8-0.3-1.7,0.1-2.5,0.3s-4.3,0.4-4.7-0.3"/>
	<path class="st18" d="M424.7,151c0.2,0.9-0.9,3.2,0.1,7.7c1.5,6.3-0.5,10.5-1.4,15.8c-1.6,9.1-6,18.7-8.4,23.7
		c-0.5,1-2.8,4.2-3.6,7c-2.2,7.8-1.4,10.6,1.1,16.1c3.2,6.8,11.1,5.2,16.5,1.4c7.9-5.6,9.6-9.5,15.2-16.5c2.8-3.5,5.2-11.2,7.3-14.7
		c3-5.4,3.4-11.2,3.9-17.1c0.1-1.1,0.2-2.2,0.3-3.2c0.7-4.9,2.1-9.8,4.2-14c0.2-0.3,0.4-0.6,0.5-0.9c1.8-3.2,3.1-6.4,4.7-9.6"/>
	<path class="st18" d="M496.8,186.1c-0.4,0.1-0.8,0.3-1.2,0.4c-4.6,1.4-9.4,2.3-14.2,2.7c-7,0.6-14.1,0-20.5-1.7l0.1-0.4
		c17.6-5.2,34.3-13.6,48.4-24.4l0.3-0.1c1.9,1.5,3.5,3.3,5,5.1c0.3,0.4,0.6,0.8,0.8,1.2c0.5,1.1,0.2,2.5-0.1,3.7
		c-0.3,1.1-0.5,2.2-0.7,3.3"/>
	<path class="st18" d="M514.7,175.9c-2.1,3-5,4.6-8.6,6.5c-2.5,1.2-5,2.3-7.6,3.2"/>
	<path class="st18" d="M495.7,186.9c-1.3,1.9-3.3,6.4-2.7,8.5c0.1,0.2-0.1,0.4,0,0.6c0.1,0.3,0.5,0.3,0.9,0.2
		c8.1-1.7,16.6-5.4,23.6-10.3l0,0c1.1-0.8,2.1-1.5,3.1-2.3"/>
	<path class="st18" d="M498.4,185.5l2.7-0.7l4.7-1.8l5.4-3.1l11.4-9.4c0,0-2.5,12.1-17,18c-2.8,1.1-6.9,3.4-9.9,3.8l1.1-6.2v-0.2
		L498.4,185.5z"/>
	<path class="st18" d="M377.8,139c-0.2-0.9-0.4-1.8-0.4-2.7c0-5.8,4.7-10.5,10.5-10.5s10.5,4.7,10.5,10.5s-4.7,10.5-10.5,10.5
		c-0.7,0-1.5-0.1-2.2-0.2"/>
	<circle class="st18" cx="377" cy="114.8" r="5.3"/>
	<path class="st18" d="M381.7,134.6c0.3-1.9,1.1-3.5,2.2-4.9"/>
	<path class="st18" d="M380.7,107.9c1.4,0.7,2.5,1.9,2.8,3.5"/>
	<path class="st18" d="M397.1,108c-0.4,0.1-0.7,0.1-1.1,0.1c-2.9,0-5.3-2.4-5.3-5.3s2.4-5.3,5.3-5.3s5.3,2.4,5.3,5.3
		c0,1.1-0.3,2-0.9,2.9l-0.1,0.1"/>
	<path class="st18" d="M396.2,99.5c1.4,0.7,2.5,1.9,2.8,3.5"/>
	<path class="st18" d="M400.4,105.7c0.3,0.2,0.6,0.6,0.7,1c0.4,1.1-0.2,2.3-1.3,2.7c-1.1,0.4-2.3-0.2-2.7-1.3V108
		c-0.3-1.1,0.3-2.2,1.3-2.6C399.2,105.2,399.9,105.4,400.4,105.7z"/>
	<path class="st18" d="M400.3,107c0,0.6-0.2,1.2-0.7,1.7"/>
	<path class="st18" d="M380.9,148.1c0.4,0.1,0.7,0.1,1.1,0.1c1.5,0,2.9-0.6,3.8-1.6c0.9-0.9,1.5-2.2,1.5-3.6c0-2.9-2.4-5.3-5.3-5.3
		c-1.5,0-2.8,0.6-3.7,1.5c-1,0.9-1.5,2.3-1.5,3.7c0,1.1,0.3,2,0.9,2.9l0.1,0.1"/>
	<path class="st18" d="M381.8,139.6c-1.4,0.7-2.5,1.9-2.8,3.5"/>
	<path class="st18" d="M377.5,145.8c-0.3,0.2-0.6,0.6-0.7,1c-0.4,1.1,0.2,2.3,1.3,2.7c1.1,0.4,2.3-0.2,2.7-1.3v-0.1
		c0.3-1.1-0.3-2.2-1.3-2.6C378.8,145.2,378.1,145.4,377.5,145.8z"/>
	<path class="st18" d="M377.6,147c0,0.6,0.2,1.2,0.7,1.7"/>
	<circle class="st18" cx="407.2" cy="123.2" r="5.3"/>
	<path class="st18" d="M407.4,119.9c1.4,0.7,2.5,1.9,2.8,3.5"/>
	<line class="st18" x1="458.6" y1="156.5" x2="460.1" y2="155.8"/>
	<line class="st18" x1="452" y1="136.2" x2="453.4" y2="132.9"/>
	<path class="st44" d="M477.9,138.6c-1.8,0.8-3.9-0.4-4.8-3.1c-0.1-0.3-0.2-0.5-0.2-0.8"/>
	<path class="st44" d="M480.4,131.3c0.5,2,0.2,4.2-0.8,5.7"/>
	<path class="st45" d="M469.8,125.9c0.8-1.2,2.3-3.4,3.8-3.8c1.4-0.3,2.9,1.2,4.4,1.2h0.1"/>
	<path class="st44" d="M495.9,144.3c-0.3,0-0.7-0.1-1-0.2c-2.1-0.9-3.3-4.1-2.6-7.2v-0.1"/>
	<path class="st44" d="M500,139.1c0,0.3-0.1,0.6-0.1,0.9c-0.2,1.1-0.7,2.1-1.2,2.8"/>
	<line class="st44" x1="498.6" y1="142.9" x2="498.6" y2="142.9"/>
	<path class="st45" d="M497.4,129.8c1.4-0.4,4-0.9,5.3-0.2c1.3,0.8,1.3,2.8,2.4,3.9v0.1"/>
	<path class="st18" d="M410.4,153.5c0,0,0.1,0,0.1,0.1l0,0c0.8,0.3,1.7-0.1,2.5-0.3c1.2-0.3,2.4-0.4,3.6-0.2c0.2,0,0.4,0.1,0.5,0
		c0.2-0.1,0.3-0.2,0.4-0.3c0.6-0.6,1.3-1,2.2-1.2c0.4-0.1,0.8-0.1,1.2-0.3c0.6-0.3,1.1-0.8,1.8-1c-0.6,0-1,0.5-1.6,0.8
		c-0.7,0.3-1.5,0.1-2.2,0.2c-0.5,0.1-0.9,0.4-1.4,0.6c-0.6,0.2-1.2,0.2-1.8,0.2C413.9,152.1,412.1,152.6,410.4,153.5
		c-0.1-0.1-0.1,0.1-0.1,0.1l0,0l0,0"/>
	<path class="st18" d="M459.9,113.7c-0.2,0.5-0.5,0.8-0.8,1.2c-1.6,1.4-4.7,1.2-6.6,2.6c-2.2,1.6-2.2,4.9-2.4,7.7
		c-0.1,2.3-0.5,4.5-1,6.7c-0.3,1.1-0.7,2.2-1.5,3s-2.2,1-3,0.2c-0.4-0.4-0.6-1-0.8-1.6c-1.5-4.9-5-9.1-9.4-11.4
		c-1.3-0.7-2.8-1.4-3.6-2.7c-0.4-0.7-0.5-1.4-0.7-2.2c-0.6-2-1.7-3.9-3.3-5.3c-0.8-0.7-1.8-1.4-2.5-2.2c-1-1.2-1.5-2.7-2.1-4
		c-1.7-3.5-4.7-6.3-8.2-7.8c-2.1-0.9-4.7-1.1-4.4-3.4"/>
	<path class="st18" d="M459.9,113.7C460,113.8,460.1,113.8,459.9,113.7C460,113.7,460,113.7,459.9,113.7z"/>
	<path class="st18" d="M459.8,113.6l0.1,0.1"/>
	<path class="st18" d="M459.8,113.6L459.8,113.6C459.7,113.5,459.7,113.6,459.8,113.6z"/>
	<path class="st18" d="M442.1,68.7c3.2-1.9,7.6-1.3,10.1,1.4c1.7,1.8,2.6,4.4,4.7,5.7c2,1.3,5,1.2,6.4,3.2c0.7,1,0.8,2.2,1.4,3.3
		c0.5,1,1.4,1.7,1.8,2.8c0.5,1.3,0.2,2.7-0.2,4.1c-0.1,0.3-0.2,0.7-0.3,1c-2.7,7.6-4.8,15.5-6.2,23.5"/>
	<path class="st18" d="M465.8,90c0.2-0.3,0.4-0.6,0.6-0.9c1.7-2.4,4.3-4.1,7.2-4.7c1.2-0.3,2.4-0.4,3.4-0.9"/>
	<path class="st18" d="M588.4,115.5c-2.7,0.1-4.6-2.6-7.1-3.5c-1.9-0.7-3.9-0.5-5.9-0.6c-2.8-0.2-5.5-1.1-8.2-1.3
		c-2.8-0.1-5.9,0.7-7.2,3.2c-0.8,1.5,0.5,3,1.2,4.6c1.4,2.9,0.4,6.4,1.2,9.6c0.3,1.3,0.9,2.4,1.1,3.7c0.4,1.8,0.2,3.7-0.1,5.5
		c-0.4,3.5-1,7.2-3.1,10c-1.5,2.1-3.8,3.5-5.5,5.4c-2.9,3.3-4.1,7.7-4.1,12.1c0,4.4,1.3,8.6,2.7,12.7c1.8,0.5,3.7,0.3,5.4-0.4
		c1-0.4,1.9-1.1,3-1.3c2.4-0.6,4.9,0.8,7.3,0.1c1.8-0.5,3.1-2,4.8-2.6c1.6-0.5,3.2-0.3,4.9-0.3c3.2,0,6.3-1,9.3-2
		c2.8-0.9,5.6-1.8,8.4-2.8c3.3-1.1,13.9-4,15.8-4.1c0.2,0,0.3,0,0.3,0.1"/>
	<path class="st44" d="M470.8,153.3c5.1-0.9,10.7,1.5,13.6,5.9"/>
	<path class="st44" d="M473.6,159.1c1.9-0.1,3.8,1.1,4.6,2.8"/>
	
		<radialGradient id="SVGID_26_" cx="416.3159" cy="345.8" r="5.7781" gradientTransform="matrix(1 0 0 -1 0 480)" gradientUnits="userSpaceOnUse">
		<stop  offset="0" style="stop-color:#FF7BAC;stop-opacity:0"/>
		<stop  offset="0.931" style="stop-color:#FF7BAC"/>
	</radialGradient>
	<circle class="st46" cx="416.3" cy="134.2" r="5.8"/>
	<path class="st47" d="M413,135.6c0.2-1.7,1.1-3.3,2.5-4.3"/>
	
		<radialGradient id="SVGID_27_" cx="426.2" cy="354.48" r="3.2913" gradientTransform="matrix(1 0 0 -1 0 480)" gradientUnits="userSpaceOnUse">
		<stop  offset="0" style="stop-color:#CCE0F4"/>
		<stop  offset="6.405089e-002" style="stop-color:#C3DCF2"/>
		<stop  offset="0.1706" style="stop-color:#A9D2EE"/>
		<stop  offset="0.3066" style="stop-color:#80C2E7"/>
		<stop  offset="0.4649" style="stop-color:#47ACDE"/>
		<stop  offset="0.5674" style="stop-color:#1E9CD7"/>
		<stop  offset="0.8652" style="stop-color:#0075BE"/>
		<stop  offset="0.9944" style="stop-color:#005B97"/>
	</radialGradient>
	<circle class="st48" cx="426.2" cy="125.5" r="3.3"/>
	
		<radialGradient id="SVGID_28_" cx="425.0071" cy="354.8686" r="0.9945" gradientTransform="matrix(1 0 0 -1 0 480)" gradientUnits="userSpaceOnUse">
		<stop  offset="0" style="stop-color:#CCE0F4"/>
		<stop  offset="6.405089e-002" style="stop-color:#C3DCF2"/>
		<stop  offset="0.1706" style="stop-color:#A9D2EE"/>
		<stop  offset="0.3066" style="stop-color:#80C2E7"/>
		<stop  offset="0.4649" style="stop-color:#47ACDE"/>
		<stop  offset="0.5674" style="stop-color:#1E9CD7"/>
		<stop  offset="0.8652" style="stop-color:#0075BE"/>
		<stop  offset="0.9944" style="stop-color:#005B97"/>
	</radialGradient>
	<path class="st49" d="M424.3,126.3c0.1-1,0.6-1.9,1.4-2.4"/>
	<path class="st30" d="M490.6,137.8c0.5-3.9,2.9-6.9,5.7-6.9c3.2,0,5.8,3.7,5.8,8.3c0,1.7-0.4,3.3-1,4.6"/>
	<path class="st50" d="M500.8,142.2c-1.1,1.5-2.7,2.5-4.5,2.5c-3.2,0-5.8-3.1-5.8-6.8c0-0.3,0-0.6,0-0.8"/>
	<path d="M477.9,137.2c-0.4,0.5-0.8,1-1.3,1.4c-0.5,0.1-1.1,0-1.5-0.3c-0.7-0.6-0.8-1.7-0.1-2.5c0.6-0.7,1.7-0.9,2.5-0.2
		C477.9,136,478.1,136.6,477.9,137.2z"/>
	<g>
		<path d="M471.1,135.5c0.5-0.9,1.3-1.6,2.1-2.2c0.8-0.6,1.7-1.1,2.6-1.5c1.8-0.8,3.8-1.4,5.8-1.5l0,0l-0.5,0.1l0.5-0.1l0,0
			c-2,0.3-3.9,0.8-5.7,1.7c-0.9,0.4-1.8,0.9-2.6,1.4C472.4,134.1,471.6,134.7,471.1,135.5z"/>
	</g>
	<g>
		<path d="M490.7,139.7c-0.1,0-0.3,0-0.4-0.1c-0.1,0-0.3-0.1-0.4-0.1c-0.3-0.1-0.5-0.2-0.8-0.4c-0.5-0.3-0.8-0.8-1-1.3l0,0l-0.1,0.1
			c0-0.1,0-0.2,0-0.2l0,0l0,0c0.3,0.4,0.8,0.7,1.2,0.8c0.2,0.1,0.5,0.1,0.7,0.1c0.1,0,0.2,0,0.3,0l0.3-0.1L490.7,139.7z"/>
	</g>
	<g>
		<path d="M492.1,142.7L492.1,142.7c-0.1,0-0.2,0-0.2,0c-0.1,0-0.3,0-0.5,0s-0.4-0.1-0.5-0.2c-0.2-0.1-0.4-0.2-0.6-0.2
			c-0.4-0.1-0.8-0.2-1.1-0.4c-0.3-0.2-0.4-0.4-0.4-0.4s0.1,0.2,0.4,0.2c0.3,0.1,0.7,0.1,1.1,0.1c0.2,0,0.4,0,0.6,0.1
			c0.2,0,0.4,0.1,0.5,0c0.1,0,0.2,0,0.2-0.1l0,0l0,0L492.1,142.7z"/>
	</g>
	<g>
		<path d="M493.5,143.9c0,0-0.1,0.1-0.3,0.3c-0.2,0.2-0.5,0.5-0.8,0.7s-0.7,0.3-1,0.3s-0.5-0.1-0.5-0.1s0.2,0,0.4-0.1
			c0.2-0.1,0.5-0.3,0.7-0.5c0.2-0.3,0.3-0.6,0.5-0.8c0.1-0.2,0.2-0.4,0.2-0.4L493.5,143.9z"/>
	</g>
	<g>
		<path d="M496.2,144.5c0,0,0,0.2,0.1,0.5c0,0.3,0.1,0.6,0.3,1c0.3,0.7,0.8,1.3,0.8,1.3s-0.7-0.4-1.3-1.1c-0.3-0.3-0.5-0.7-0.7-1
			s-0.2-0.5-0.2-0.5L496.2,144.5z"/>
	</g>
	<g>
		<path d="M499.6,143.8c0,0,0,0,0,0.1c0,0,0,0.1,0.1,0.2c0.1,0.2,0.4,0.4,0.7,0.6c0.2,0.1,0.3,0.2,0.5,0.2c0.2,0.1,0.3,0.1,0.5,0.1
			c0.3,0.1,0.5,0.1,0.5,0.1s-0.2,0-0.5,0c-0.1,0-0.3,0-0.5,0s-0.4,0-0.6-0.1c-0.4-0.1-0.9-0.3-1.1-0.5c-0.1-0.1-0.2-0.2-0.3-0.3
			c-0.1-0.1-0.1-0.1-0.1-0.1L499.6,143.8z"/>
	</g>
	<path class="st18" d="M514.4,355.7"/>
	<g>
		<g>
			<path class="st30" d="M547.1,183.7c0.9-2.2-0.1-4.7-1.6-6.6c-1.5-1.9-3.4-3.3-4.6-5.3c-1.1-1.8-1.7-3.8-2-5.9
				c-0.8-4.9-0.4-9.9,1.2-14.6c0.2-0.7,0.5-1.4,0.5-2.1c0.1-2-1.8-3.7-3.7-4c-2-0.3-4,0.5-5.6,1.7c-2.7,1.9-4.7,4.9-5.5,8.1
				c-0.2,0.8-0.3,1.7-0.2,2.6c0.1,1,0.6,1.9,1,2.8c0.8,1.9,1.5,3.9,1.3,6c-0.1,2.1-1.2,4.2-3,5.2c-1.4,0.8-3.1,0.9-4.7,0.9
				c-3.7,0.1-7.4,0.3-11.1,0.4c-0.7,0-1.5,0.1-2.1,0.3c-0.8,0.3-1.5,0.9-2,1.6c-2.6,3.1-2.8,8-0.4,11.3c1.4,2,3.6,3.4,5.9,4.4
				c0.2,0.1,0.5,0.2,0.6,0.5s-0.3,0.5-0.5,0.3"/>
			<path d="M547.1,183.7c0,0,0-0.1,0.1-0.3s0.1-0.5,0.2-1c0.1-0.9-0.2-2.1-1-3.5s-2.2-2.8-3.8-4.3c-0.8-0.8-1.7-1.7-2.4-2.8
				c-0.7-1.2-1.2-2.5-1.5-3.9c-0.6-2.8-0.9-5.9-0.7-9.1c0.1-1.6,0.4-3.3,0.8-4.9c0.2-0.8,0.4-1.7,0.7-2.5s0.6-1.6,0.5-2.4
				c-0.1-1.4-1.5-2.8-3-3.1c-1.6-0.4-3.3,0.2-4.8,1.1c-3,1.8-5.3,5-6.1,8.5c-0.2,0.9-0.3,1.7-0.1,2.5s0.6,1.6,1,2.5
				c0.7,1.7,1.3,3.6,1.3,5.6c0,1.9-0.7,3.9-2.2,5.3c-0.7,0.7-1.6,1.1-2.5,1.4c-0.9,0.2-1.8,0.3-2.7,0.4c-3.5,0.1-6.9,0.2-10.1,0.4
				c-1.6,0.1-3.2-0.1-4.3,0.6c-0.6,0.4-1,0.9-1.4,1.4c-0.4,0.6-0.7,1.1-1,1.7c-0.5,1.2-0.7,2.5-0.7,3.7s0.2,2.4,0.5,3.4
				c0.7,2.1,2.2,3.5,3.5,4.4c1.3,1,2.5,1.5,3.3,1.9c0.2,0.1,0.4,0.2,0.4,0.4c0.1,0.2-0.1,0.3-0.2,0.4c-0.2,0.1-0.3,0-0.3,0
				s0.1,0.2,0.3,0c0.1-0.1,0.2-0.2,0.1-0.3c-0.1-0.2-0.2-0.3-0.4-0.3c-0.8-0.3-2-0.8-3.4-1.7s-3-2.3-4-4.5c-1-2.1-1.2-5,0-7.8
				c0.1-0.3,0.3-0.7,0.5-1s0.4-0.7,0.6-0.9c0.5-0.6,1-1.2,1.7-1.7s1.6-0.6,2.4-0.7c0.8,0,1.6-0.1,2.4-0.1c3.2-0.1,6.6-0.2,10.1-0.4
				c1.7-0.1,3.4-0.3,4.6-1.5c1.2-1.1,1.8-2.8,1.9-4.6c0-1.7-0.5-3.5-1.2-5.1c-0.4-0.8-0.8-1.7-1-2.7s-0.1-2,0.1-3
				c0.9-3.8,3.3-7.1,6.5-9.1c1.6-1,3.6-1.6,5.6-1.2c1.9,0.5,3.6,2,3.8,4.1c0.1,1-0.3,1.9-0.6,2.7s-0.5,1.6-0.7,2.4
				c-0.4,1.6-0.6,3.2-0.7,4.8c-0.2,3.1,0,6.2,0.7,8.8c0.6,2.7,1.9,4.8,3.5,6.4c1.5,1.7,2.9,3.2,3.6,4.7c0.7,1.5,0.8,2.9,0.7,3.7
				c-0.1,0.4-0.2,0.8-0.2,1C547.1,183.6,547.1,183.7,547.1,183.7z"/>
		</g>
		<g>
			<path class="st30" d="M504.3,186c-1.2,0.9-2.7,3.8-2.7,5.3c0.1,1.5-0.1,2.8,0,4.4c0.1,3.1,1.5,4.4,3.6,6.7
				c2.5,2.8,6.7,2.9,10.4,2.9c-0.8-0.3-1.6-0.6-2.4-0.9"/>
			<path d="M504.7,186.4c-0.3,0.2-0.4,0.4-0.6,0.6c-0.2,0.2-0.4,0.4-0.5,0.7c-0.3,0.5-0.6,1-0.9,1.5c-0.2,0.5-0.5,1.1-0.5,1.6
				c-0.1,0.5,0,1.2,0,1.8l-0.1,1.8c0,0.6,0,1.2,0,1.8c0.1,1.2,0.5,2.3,1.2,3.3c0.3,0.5,0.7,1,1.1,1.4c0.4,0.5,0.8,0.9,1.2,1.4
				c0.4,0.5,0.9,0.8,1.4,1.2c0.5,0.3,1,0.6,1.6,0.8c2.3,0.9,4.8,0.9,7.2,1v0.1l-2.3-0.9l2.4,0.8l0.2,0.1h-0.2c-2.4,0-4.9,0-7.3-0.8
				c-0.6-0.2-1.2-0.5-1.7-0.8s-1.1-0.7-1.5-1.2s-0.9-0.9-1.3-1.3c-0.4-0.5-0.8-0.9-1.2-1.4c-0.8-1-1.2-2.3-1.4-3.5
				c-0.1-0.6-0.1-1.3-0.1-1.9v-1.8c0-0.6-0.1-1.1,0-1.9c0.1-0.7,0.3-1.3,0.6-1.9c0.3-0.6,0.6-1.1,0.9-1.7c0.2-0.3,0.4-0.5,0.6-0.8
				c0.2-0.2,0.5-0.5,0.7-0.7L504.7,186.4z"/>
		</g>
		<g>
			<path class="st30" d="M504.2,201.2c-0.8,1.4,0.3,3.1,1.6,3.9c1.3,0.8,2.8,1.1,3.9,2.1c1.3,1.2,1.8,3.1,3.1,4.3
				c1.6,1.5,4,1.5,6.1,1.1c4.1-0.6,8-2.1,11.9-3.6c4-1.5,8.4-3.4,10.1-7.6c-0.3,0.1-0.6,0.1-0.9,0.2"/>
			<path d="M504.7,201.4c-0.4,0.7-0.2,1.5,0.3,2.3c0.2,0.4,0.5,0.7,0.9,0.9c0.3,0.2,0.8,0.5,1.2,0.7c0.8,0.4,1.8,0.8,2.6,1.4
				c0.8,0.6,1.4,1.6,1.9,2.4c0.5,0.8,1,1.7,1.6,2.3c0.7,0.6,1.5,1,2.4,1.1c0.9,0.2,1.9,0.1,2.8,0c0.9-0.1,1.9-0.3,2.8-0.5
				c1.9-0.4,3.7-1,5.5-1.6s3.6-1.3,5.4-2c1.8-0.7,3.6-1.5,5.1-2.6c1.6-1.1,2.9-2.6,3.6-4.4l0,0l-0.9,0.2l0.9-0.2l0,0l0,0
				c-0.7,1.8-2,3.3-3.6,4.5s-3.3,2-5.1,2.7s-3.6,1.4-5.4,2.1c-1.8,0.7-3.7,1.3-5.6,1.7c-1,0.2-1.9,0.4-2.9,0.6c-1,0.1-2,0.2-3,0
				c-1-0.1-2-0.5-2.8-1.2s-1.3-1.6-1.8-2.4c-0.5-0.8-1-1.6-1.7-2.1s-1.6-0.8-2.5-1.2c-0.5-0.2-0.9-0.4-1.4-0.7
				c-0.4-0.3-0.8-0.7-1.1-1.1c-0.3-0.4-0.5-0.9-0.6-1.5c0-0.3-0.1-0.6,0-0.9c0-0.1,0.1-0.3,0.1-0.5c0.1-0.2,0.1-0.2,0.2-0.4
				L504.7,201.4z"/>
		</g>
		<path class="st51" d="M534.7,207.9c1.5,4.4,4.4,8.3,7.3,12c0.8,1.1,1.7,2.2,2.8,3.1c1.6,1.3,3.6,2,5.6,2.5c11.1,3,23,2.7,34-0.7
			c3.1-1,6.1-2.2,8.6-4.3s4.3-5.1,4.3-8.3c0-1.8-0.5-3.5-1.1-5.3c-1.7-5.3-3.4-10.8-6.6-15.4c-1.2-1.8-2.7-3.4-4.3-4.9
			c-5-4.6-11.4-7.6-18.1-8.5c-5.8-0.8-11.8,0.1-17.6,0.9c-1,0.1-2.2,0.3-2.8,1.2"/>
	</g>
	
		<ellipse transform="matrix(0.9729 -0.2311 0.2311 0.9729 -30.3762 127.4652)" class="st30" cx="528.9" cy="193.4" rx="22.4" ry="12.5"/>
	<ellipse class="st3" cx="387.8" cy="251.6" rx="12.1" ry="7.4"/>
	<ellipse class="st3" cx="405.7" cy="220.6" rx="23.1" ry="17.5"/>
</g>
</svg>
