<?xml version="1.0" encoding="utf-8"?>
<!-- Generator: Adobe Illustrator 19.2.0, SVG Export Plug-In . SVG Version: 6.00 Build 0)  -->
<svg version="1.1" id="Layer_1" xmlns="http://www.w3.org/2000/svg" xmlns:xlink="http://www.w3.org/1999/xlink" x="0px" y="0px"
	 viewBox="0 0 640 480" style="enable-background:new 0 0 640 480;" xml:space="preserve">
<style type="text/css">
	.st0{fill:#5A3D2A;}
	.st1{fill:url(#SVGID_1_);stroke:#000000;stroke-miterlimit:10;}
	.st2{fill:url(#SVGID_2_);stroke:#000000;stroke-miterlimit:10;}
	.st3{fill:url(#SVGID_3_);stroke:#000000;stroke-miterlimit:10;}
	.st4{fill:url(#SVGID_4_);stroke:#000000;stroke-miterlimit:10;}
	.st5{fill:#29ABE2;stroke:#000000;stroke-miterlimit:10;}
	.st6{fill:url(#SVGID_5_);stroke:#000000;stroke-miterlimit:10;}
	.st7{fill:url(#SVGID_6_);stroke:#000000;stroke-miterlimit:10;}
	.st8{fill:url(#SVGID_7_);stroke:#000000;stroke-miterlimit:10;}
	.st9{fill:#FFFFFF;stroke:#000000;stroke-miterlimit:10;}
	.st10{fill:url(#SVGID_8_);stroke:#000000;stroke-miterlimit:10;}
	.st11{fill:none;stroke:#000000;stroke-miterlimit:10;}
	.st12{stroke:#F7931E;stroke-miterlimit:10;}
	.st13{fill:url(#SVGID_9_);stroke:#000000;stroke-miterlimit:10;}
	.st14{fill:url(#SVGID_10_);stroke:#000000;stroke-miterlimit:10;}
	.st15{fill:#00FF00;stroke:#000000;stroke-miterlimit:10;}
	.st16{fill:url(#SVGID_11_);stroke:#000000;stroke-miterlimit:10;}
	.st17{fill:url(#SVGID_12_);stroke:#000000;stroke-miterlimit:10;}
	.st18{fill:#0071BC;stroke:#000000;stroke-miterlimit:10;}
	.st19{fill:url(#SVGID_13_);stroke:#000000;stroke-miterlimit:10;}
	.st20{fill:url(#SVGID_14_);stroke:#000000;stroke-miterlimit:10;}
	.st21{fill:url(#SVGID_15_);stroke:#000000;stroke-miterlimit:10;}
	.st22{fill:url(#SVGID_16_);stroke:#000000;stroke-miterlimit:10;}
	.st23{fill:url(#SVGID_17_);stroke:#000000;stroke-miterlimit:10;}
	.st24{fill:url(#SVGID_18_);stroke:#000000;stroke-miterlimit:10;}
	.st25{fill:url(#SVGID_19_);stroke:#000000;stroke-miterlimit:10;}
	.st26{fill:#FCEE21;stroke:#000000;stroke-miterlimit:10;}
	.st27{fill:url(#SVGID_20_);stroke:#000000;stroke-miterlimit:10;}
	.st28{fill:url(#SVGID_21_);stroke:#000000;stroke-miterlimit:10;}
	.st29{fill:#C1272D;stroke:#000000;stroke-miterlimit:10;}
	.st30{fill:url(#SVGID_22_);stroke:#000000;stroke-miterlimit:10;}
	.st31{fill:url(#SVGID_23_);stroke:#000000;stroke-miterlimit:10;}
	.st32{fill:url(#SVGID_24_);stroke:#000000;stroke-miterlimit:10;}
	.st33{fill:url(#SVGID_25_);stroke:#000000;stroke-miterlimit:10;}
	.st34{fill:url(#SVGID_26_);stroke:#000000;stroke-miterlimit:10;}
	.st35{fill:url(#SVGID_27_);stroke:#000000;stroke-miterlimit:10;}
	.st36{fill:url(#SVGID_28_);stroke:#000000;stroke-miterlimit:10;}
	.st37{fill:url(#SVGID_29_);stroke:#000000;stroke-miterlimit:10;}
	.st38{fill:url(#SVGID_30_);stroke:#000000;stroke-miterlimit:10;}
	.st39{fill:#603813;stroke:#000000;stroke-miterlimit:10;}
	.st40{fill:url(#SVGID_31_);stroke:#000000;stroke-miterlimit:10;}
	.st41{fill:url(#SVGID_32_);stroke:#000000;stroke-miterlimit:10;}
	.st42{fill:url(#SVGID_33_);stroke:#000000;stroke-miterlimit:10;}
	.st43{fill:url(#SVGID_34_);stroke:#000000;stroke-miterlimit:10;}
	.st44{fill:url(#SVGID_35_);stroke:#000000;stroke-miterlimit:10;}
	.st45{fill:url(#SVGID_36_);stroke:#000000;stroke-miterlimit:10;}
	.st46{fill:url(#SVGID_37_);stroke:#000000;stroke-miterlimit:10;}
	.st47{fill:#ED1C24;stroke:#000000;stroke-miterlimit:10;}
	.st48{fill:#F7931E;stroke:#000000;stroke-width:0.25;stroke-miterlimit:10;}
	.st49{fill:url(#SVGID_38_);stroke:#000000;stroke-miterlimit:10;}
	.st50{fill:#42210B;stroke:#000000;stroke-miterlimit:10;}
	.st51{fill:#1B1464;stroke:#000000;stroke-miterlimit:10;}
	.st52{fill:#FFFFFF;stroke:#603813;stroke-width:0.5;stroke-miterlimit:10;}
	.st53{fill:url(#SVGID_39_);stroke:#000000;stroke-width:0.5;stroke-miterlimit:10;}
	.st54{fill:url(#SVGID_40_);stroke:#000000;stroke-width:0.5;stroke-miterlimit:10;}
	.st55{fill:url(#SVGID_41_);stroke:#000000;stroke-width:0.5;stroke-miterlimit:10;}
	.st56{fill:#FFFFFF;stroke:#000000;stroke-width:0.5;stroke-miterlimit:10;}
	.st57{fill:url(#SVGID_42_);stroke:#000000;stroke-width:0.5;stroke-miterlimit:10;}
	.st58{fill:none;stroke:#000000;stroke-width:0.5;stroke-miterlimit:10;}
	.st59{stroke:#F7931E;stroke-width:0.5;stroke-miterlimit:10;}
	.st60{fill:url(#SVGID_43_);stroke:#000000;stroke-width:0.5;stroke-miterlimit:10;}
	.st61{fill:url(#SVGID_44_);stroke:#000000;stroke-width:0.5;stroke-miterlimit:10;}
	.st62{fill:url(#SVGID_45_);stroke:#000000;stroke-width:0.5;stroke-miterlimit:10;}
	.st63{fill:#ED1C24;stroke:#000000;stroke-width:0.5;stroke-miterlimit:10;}
	.st64{fill:none;stroke:#603813;stroke-width:0.5;stroke-miterlimit:10;}
	.st65{fill:none;stroke:#009245;stroke-miterlimit:10;}
	.st66{fill:#FF0000;}
</style>
<g>
	<g>
		<g>
			<g>
				<g>
					<path class="st0" d="M566.3,382.2c0.3-0.1,0.1-0.3-0.6-0.2l-0.5,0.3L566.3,382.2z"/>
					<path class="st0" d="M561.4,381.7c-0.9,0.2-1.8,0.5-1.3,0.7c0.8-0.3,1.1-0.2,2-0.6c0.7-0.1,1.3,0.1,1.2,0.2
						c0.3-0.1,1.1,0,1.5-0.2c-1-0.2-2.2-0.2-3.4,0C561,381.9,561.3,381.8,561.4,381.7z"/>
					<path class="st0" d="M490,383.1h0.5C490.3,383.1,490.2,383.1,490,383.1z"/>
					<path class="st0" d="M445.8,384.1c0.3,0,0.5-0.1,0.5-0.1C446,384.1,445.7,384.1,445.8,384.1z"/>
					<path class="st0" d="M438.3,384c0.2,0,0.3,0,0.4,0C438.5,383.9,438.4,383.9,438.3,384z"/>
					<path class="st0" d="M490,383.1l-1.2-0.1C488.8,383.2,489.4,383.1,490,383.1z"/>
					<path class="st0" d="M551.5,382.7c0.2,0,0.5-0.1,0.6-0.1C552,382.6,551.8,382.6,551.5,382.7
						C551.6,382.7,551.6,382.7,551.5,382.7z"/>
					<path class="st0" d="M509.5,382.4h0.4c0.1,0,0.2-0.1,0.3-0.1L509.5,382.4z"/>
					<path class="st0" d="M524.4,381.9c-0.3,0-0.4,0.3-0.6,0.4c0.2-0.1,0.4-0.2,0.7-0.2C524.6,382.1,524.6,382,524.4,381.9z"/>
					<path class="st0" d="M548.2,381.8l0.4-0.1C548.5,381.7,548.3,381.7,548.2,381.8z"/>
					<path class="st0" d="M498.8,382.6l-0.1-0.1C498.6,382.6,498.7,382.6,498.8,382.6z"/>
					<path class="st0" d="M80.6,395.6L80.6,395.6C80.5,395.6,80.5,395.6,80.6,395.6z"/>
					<path class="st0" d="M63.3,394.7h0.2c0-0.1,0-0.1,0-0.2L63.3,394.7z"/>
					<path class="st0" d="M424.4,384C424.5,384,424.5,384,424.4,384C424.9,384,424.7,384,424.4,384z"/>
					<path class="st0" d="M297.7,387.6c1.4,0.2-2.3,0.4-0.2,0.6C297.3,388,299.5,387.7,297.7,387.6z"/>
					<path class="st0" d="M551.2,382.7c-0.2,0-0.4,0-0.6,0C550.8,382.7,551,382.7,551.2,382.7z"/>
					<path class="st0" d="M297.5,388.1L297.5,388.1h0.2C297.6,388.1,297.6,388.1,297.5,388.1z"/>
					<path class="st0" d="M392.6,385.1c0.1,0,0.2,0.1,0.3,0.1C392.9,385.1,392.9,385.1,392.6,385.1z"/>
					<path class="st0" d="M416.3,384.8h-0.6C416,384.8,416.2,384.8,416.3,384.8z"/>
					<path class="st0" d="M380.3,385.7c-0.3,0-0.4,0-0.9,0h0.1C379.7,385.7,380,385.7,380.3,385.7z"/>
					<path class="st0" d="M367.5,386.1c0.1,0,0.2,0,0.2,0c0.1,0,0.3,0,0.4,0H367.5z"/>
					<path class="st0" d="M119.6,394.4c-0.3-0.1-0.5-0.2-0.6-0.2C119.2,394.4,117.3,394.5,119.6,394.4z"/>
					<path class="st0" d="M551.5,382.6c-0.1,0.1-0.2,0.1-0.4,0.1C551.2,382.6,551.4,382.6,551.5,382.6S551.6,382.6,551.5,382.6z"/>
					<path class="st0" d="M379.9,387.8h-2C378.4,387.8,379.1,387.8,379.9,387.8z"/>
					<path class="st0" d="M211.5,391.9H211C211.2,392,211.3,392,211.5,391.9z"/>
					<path class="st0" d="M371.8,388c-0.4-0.1-0.8-0.1-1.2-0.2c-0.1,0-0.2,0-0.2,0.1L371.8,388z"/>
					<path class="st0" d="M119,394.3L119,394.3L119,394.3z"/>
					<path class="st0" d="M105.6,395.2c1.9,0,0.9-0.4,1.3-0.6c2.3-0.2,1.1,0.2,1.9,0.4c1.4-0.1,2.5-0.5,3.6-0.5
						c0.1,0.1,0.3,0.1,0,0.2c1.5-0.3,4.5-0.1,6.3-0.6c0.1,0,0.2,0.1,0.2,0.1c-0.3-0.2-0.3-0.4-0.3-0.5c0.9,0,1.6-0.3,1.9,0
						c-0.5,0-0.6,0.1-0.8,0.2l0.9-0.1c0.8,0.3-1.2,0.2-1.2,0.4c1.8-0.2,3.8-0.5,5.2-0.4c0.3,0.3-3.2,0.2-1.4,0.5l-2.1-0.1
						c1.6,0.5-1.3,0,0.2,0.5c2.8,0,3.1-0.3,5.9-0.2c0.6-0.2-0.2-0.3,0.4-0.5c3.9-0.5,3.1,0.7,6,0.2c0.7-0.2,1-0.7,3.1-0.5l-0.6,0.2
						c2.7,0,1.5-0.6,4.3-0.4c-0.5,0.2-2.1,0.2-1.7,0.2c1.8,0.3,1.3-0.3,2.7-0.3l0.3,0.3c2.9-0.1,6-0.5,9.2-0.6
						c-0.2,0.1-0.7,0.2,0,0.3c4-0.3,8.5-0.2,12.4-0.1l1.5-0.3c0.3,0,0.6,0.1,0.3,0.2c1.5,0.1,0.1-0.2,0.8-0.3c0.9,0,1.1,0.1,0.6,0.2
						c2.6-0.3,7.5-0.7,10.3-0.5l-0.5,0.1c2.2,0.1,2.4-0.7,4.5-0.5l-0.4,0.1c4.7,0,9.9-0.4,13.5-0.1c0.7-0.4,4.7,0.1,5-0.5
						c2.7,0.2,1.9,0.3,5.7,0.4c1,0,1.5-0.4,2.7-0.5v0.3l1.7-0.4l0.9,0.3l1.2-0.1c-0.5,0-1-0.1-0.9-0.2c1.8-0.2,4.5,0.1,4.5,0.2
						l4.3-0.4c-0.1,0.1-0.8,0.2-1.4,0.3c2.3-0.4,0.4,0.3,2.5,0c-0.3-0.1,0.1-0.2,0.2-0.3c1.1,0.2,3.5,0.1,5.3,0l-0.3,0.2
						c3.2,0,6.8-0.3,10.4-0.4c-1.3-0.1-1-0.4,0-0.5l0.4,0.3c0.7-0.2-1.1-0.1,0.3-0.4c1.4,0,0.9,0.3,0.1,0.5l1.6-0.2
						c0.1,0.1-0.3,0.2-0.4,0.3c0.7-0.2,2.8,0.2,3.8-0.1l0.1,0.1c3.6-0.1,5.2-0.3,8.2-0.4c0-0.3,1.2-0.3,2.1-0.5
						c2.2,0,4.6,0.2,7.2,0.1c1.8-0.2,0.5-0.3,1.3-0.4c0.1,0.3,2.7,0.2,1.4,0.4c3.1-0.1,4-0.2,7.9-0.5c-0.4-0.1-0.9-0.1-0.7-0.2
						c0.7-0.1,1.6,0.1,1.5,0.2h-0.2c4.4-0.5,10.3,0.5,13.8-0.2h-0.2l3.7-0.4c1.7,0-1,0.2,0.2,0.3c3.9-0.5,6.2-0.1,9.5-0.5
						c2.5,0.7,8.9-0.3,12.4,0.1l-0.2-0.2c0.9-0.2,1.1,0.1,1.7,0.1c-0.1-0.1-1-0.1-0.4-0.2c7.4-0.4,15.4-0.2,23-0.2
						c2.8,0,1.6-0.9,5.1-0.6l-1,0.4c5.6-0.6,11.5-0.3,17-0.7c-0.3,0.1-0.3,0.2-0.9,0.2c1.2,0.2,4.3-0.1,4.3-0.3
						c0.9,0,0.2,0.2,0.7,0.3c1.2,0.1,2.9-0.4,3.6-0.2c0.1,0-0.3,0.1-0.5,0.1c0.8-0.1,3.5-0.1,2.8-0.3c2.1,0.1,4-0.2,5.6-0.1
						c1.1-0.3,3.5,0,3.9-0.4c-0.1,0.5,3.6,0.3,4.9,0c-0.4,0.1,1.1,0.1,0.6,0.3c1.5,0,2.9-0.2,2.6-0.4c2.8,0.5,5.5-0.6,7.1,0.1
						c4.4-0.4,8.5-0.6,12.5-0.8c-0.1,0.5-4.4,0.2-4.2,0.6c3.8-0.3,6-0.7,9.7-0.7c1,0-0.5,0.2-0.9,0.3c3.8-0.3,7.3-0.2,10.7-0.5
						c0,0-0.4,0.1-0.7,0.1c0.7,0,1.5,0,1.5-0.2l-0.6,0.1c-1.1-0.3,2.6-0.7,2.7-0.8c-1.1,0.6,3.3,0.1,1.6,0.7c0.4-0.1,1-0.2,0.9-0.3
						c0.6,0,0.9,0.1,0.2,0.3c2.4-0.2,1.5-0.4,3.7-0.4c0,0.1-0.4,0.2-0.7,0.3c1.1-0.2,2.2-0.4,4-0.4c-0.1,0.1,0.1,0.1-0.4,0.1
						c3.1-0.1,5.3-0.7,8.7-0.6c-1,0.5,1.2,0.1,1.4,0.5l1.8-0.2l-0.7-0.2c1.6,0,3-0.4,4.4-0.3l-1.2,0.2l3-0.2l-1.7-0.1
						c1.6-0.2-0.2-0.5,2-0.4c-0.4,0.1,1.6,0,2.5,0.2l0,0c0.8-0.1,1.6-0.3,2.8-0.2c0.3,0.1-0.2,0.4,0,0.5c0.8-0.3,3.8-0.2,4.8-0.6
						c-0.3,0.1-0.3,0.3-0.2,0.3l0.7-0.3c0.8,0.1,0.9,0.1,0.7,0.3c2.3,0-0.7-0.5,1.9-0.3c-0.2,0-0.1,0.1-0.5,0.1
						c2.7,0,5.2-0.3,7.6-0.3c0.7,0.4-2.2,0.2-1.3,0.4c3.6-0.2,7.3-0.7,10.8-0.7h-0.6c0.5-0.5,2.6,0.2,4.3-0.1
						c-0.4,0.1-0.5,0.3-0.4,0.2c2.4,0,4.8-0.3,8.4-0.5l-0.4,0.1c1.4,0.1,3.7,0,5.2,0c0.4-0.1,1.3-0.2,0.8-0.3
						c4.6,0.6,8.8-0.7,12.9-0.1c-0.5,0-1.2,0.2-0.8,0.1l3.5-0.2c-0.3-0.2-0.5-0.1-1.2-0.3c0.4-0.1,1.4-0.3,2.3-0.3
						c-1.6,0.2,0,0.4,0.7,0.5c-0.1-0.1,0.1-0.2,0.1-0.2c1.8,0.4,0.3-0.5,2.8-0.3l-0.1,0.1c0.9-0.1,1.8-0.3,2.8-0.3
						c0.4,0.3-1,0.2-1,0.4c1.4-0.1,2.8-0.6,4.1-0.4c-0.6,0.1-1.5,0.1-2.1,0.2c1.4,0.3,1.6,0.2,2.6,0.2h-0.1l2.4,0.1l-0.6-0.1
						c1.7-0.7,3.6-0.2,6-0.7c-2.3,0.5-0.4,0.3-0.5,0.6c0.6,0.1,1.5,0.1,1.3,0.2c1.1-0.3,1.9,0.1,3.5-0.3c0.1,0.1,1.2,0,1,0.2
						c1.5-0.1-0.4-0.2-0.2-0.3c2.2-0.4,5.3,0.3,8.5-0.3c2.8-0.3,3.3-0.6,5.9-0.7c0.9,0.1-0.7,0.4-0.7,0.4c1.4,0.1,2.5,0,3.8-0.1
						c-0.3,0.1,0,0.2,0.4,0.3c1.1-0.1,0.7-0.4,2.1-0.3c-0.2,0.1-0.5,0.3-1.1,0.4c1.3-0.1,2.5-0.3,3.8-0.5c0.4,0.2-0.8,0.3-1.2,0.4
						c1.5-0.1,3.8-0.3,4.2-0.5l-0.9-0.1c0.5,0,0.3,0.2-0.1,0.3c-1.2,0.2-1.8,0-1.9-0.1l0.9-0.1c-1-0.5-3.7,0.2-5.6,0.2l0.8-0.4
						l-1.9,0.4c-0.4-0.1-0.7-0.3,0.2-0.4c-1.3-0.2-1.2,0.2-2.3,0c-0.1,0-0.1-0.1,0-0.1l-1.3,0.2c0.3-0.1-0.2-0.3,0.6-0.3
						c-2.4-0.2-3.8,0.4-4.7,0.1h0.2c-3.3,0.2-0.3,0.3-2.7,0.7l-1.7-0.7l-0.3,0.3c-0.3,0-1,0-0.9-0.1c-1.2,0.2,0.2,0.1-0.5,0.3
						c-1.6-0.2-4.5,0.3-4.8-0.2c-0.6,0.2,1.6,0.1-0.2,0.3c-0.5-0.5-2,0.1-3.5-0.1c0.4-0.3,1.9-0.2,0.4-0.4c-0.9,0.5-2.9,0-4.1,0.1
						c0,0.4-2.7,0.2-4.8,0.4c0.1-0.1-3.9-0.1-5.9-0.2l0.1-0.1c-0.4,0.4-2.4,0.4-3.8,0.5c0.1-0.2,0.3-0.3,1.1-0.4h-1.4
						c-0.3,0.1-0.7,0.2-1.6,0.3l0.3-0.3c-1.8,0.1-3.7,0.4-6,0.3c-0.1,0.3,1.9,0.7-0.6,0.8c-0.1-0.1-0.2-0.4,0.5-0.4
						c-0.2,0-0.8,0.1-1.2,0.1l1-0.3c-1.1-0.1-0.6,0.2-1.4,0.2c0-0.2-0.6-0.1-0.5-0.3c0.2,0,0.8,0.1,1.1,0c-1,0-2.1-0.1-2.5-0.2
						c0.1,0.1,0,0.3-0.7,0.3c-1.8,0.1-0.6-0.2-1.7-0.3c-0.4,0.1-1.6,0-1.6,0.3c-0.5,0-0.6-0.1-0.8-0.2c-0.9,0.2-4.4,0.2-3.3,0.4h0.2
						c0,0-0.1,0-0.2,0l0,0l0,0c-3.1,0.4-6.5,0-9.5,0.2V382c-1.8,0.2-4.1,0.2-5.4,0.4c-0.5,0-1.3-0.1-1.1-0.3
						c-1.4,0.1-1.6,0.2-3.6,0.1c1.4-0.2-0.5-0.1,1.4-0.2c-1.8,0-2.2-0.2-4.2,0.1c0.7-0.3-1.4-0.3-2.3-0.2l1.3,0.1
						c-1,0.1-1.8,0.1-2.7,0.1l0.5-0.3c-3.7-0.3-6.7,0.8-9.6,0.3c-1,0.3,2,0.1,1.2,0.4c-1.7,0-3.5-0.4-4.1-0.4
						c-2.4-0.1-2.2,0.5-4.7,0.5c0.3,0.1,0.6,0.4-1.2,0.6c-1.7,0-2.1-0.4-1-0.6c0.4,0,0.6,0,0.6,0.1c0.6-0.1,1.3-0.1,0.6-0.2
						l-0.2,0.1c-0.9-0.1-3.2,0-2.7-0.2c-1.3,0.1-0.6,0.2,0.4,0.2c-2.2-0.1-3.4,0.1-5.7,0c0.4,0.1,0.7,0.2,0.3,0.2
						c-3.3-0.1-1.5,0.3-3.7,0.4c-1.3-0.1,0.4-0.4-1.8-0.2c-1.4-0.1-0.3-0.3,0.2-0.4c-2.1,0.3-3.9,0-5.1,0l1.1-0.1
						c-0.7,0.1-1.2,0.1-1.7,0.1l0.6,0.2c-0.6,0-1.2,0-1.2-0.1c-0.7,0.2,0.5,0.4-0.8,0.6c-0.9-0.1-2.6,0.2-2.9-0.1
						c2.7,0-0.3-0.3,2-0.4c-0.4,0.1-1,0.1-1.6,0c-0.1,0,0.1-0.1,0.3-0.1c-2.6-0.2-1.2,0.4-3.8,0.5c0.3-0.2-0.6-0.3-1.1-0.3
						c1.1,0,0.5,0.3-0.5,0.4c-1.7-0.1-1.9,0.2-2.7,0.2h1c-0.3,0.2-1.2,0.2-2.4,0.3c-0.1-0.1,1.1-0.1,0.7-0.2c-1.3,0.3-3-0.2-4.8,0
						c-0.9-0.1-0.1-0.3-0.8-0.4c-2.1,0.3-2.2-0.2-4.4,0.1c0.6,0.2,0.7,0.2-0.8,0.4l3.6-0.3l-2.3,0.4c1.1,0,2.3-0.2,2.9-0.2
						c-1.1,0.2-1,0.2-0.5,0.3c-1.5-0.3-2.9,0.3-4.6,0.1v-0.6c-2.6-0.2-4.5,0.4-7.9,0.4l1.1,0.1c-0.4,0.2-2.1,0.1-3.1,0.2
						c0.1-0.2-0.6-0.3-1-0.4c0.1,0.1-2.4,0.1-2.7,0.5l-1.5-0.2c-2.7,0-3,0.6-5.6,0.7c0.8-0.2-0.4-0.3,1.3-0.5c-0.9,0-1.6,0-1.6,0.1
						c-0.5-0.1-2.4,0.3-3.2,0.2c-0.4,0.1-0.5,0.3-1.4,0.3c-0.1,0,0-0.1,0-0.1c0,0.1-1.5,0.2-0.7,0.4c-2.7-0.5-7.4,0.3-9.7-0.2
						c-1.9,0.1-4.1,0.2-5.8,0.3c0.1-0.1,0-0.1,0.3-0.1c-2.4-0.1-1.4,0.6-4.1,0.5c-1.4-0.3,1.4-0.2,0.6-0.3c-0.4-0.6-3.2,0.2-5-0.1
						l0.4-0.1c-1.4-0.2-3.4,0.3-5.6,0.4c0,0,0.1-0.1,0-0.1c-1.5,0.4-4.4,0.6-6.6,0.7c0.7-0.3,1-0.2,0.6-0.4c-1,0.1,0.3,0.4-1.6,0.5
						c-0.6-0.1-2-0.2-2.2-0.5l1.8-0.1c-0.9-0.3-2.4,0.1-3.3,0l0.1-0.2c-2.8,0.1-2.8,0.5-5.8,0.6l0.3,0.1c-1.6,0.4-1.4-0.2-3,0.2
						l-0.5-0.4c-1.1,0.1-3.8,0.5-5.7,0.6c1.1-0.3,3.4-0.5,4.8-0.7c-1.1,0-3.7,0.1-4.2,0.3c0.4-0.1,1-0.2,1.4-0.1
						c-1.3,0.3-3,0.5-5.2,0.6c0.4-0.7-5.6,0-7.2-0.6c-3.8,0.4-7.5,0.1-12,0.3c1.6,0.6-1.3,0.1-1,0.7c-1,0.1-1.4,0.1-1.5,0l-3.1-0.3
						c-0.7-0.2,1-0.2,0.9-0.3c-2.3,0-1-0.2-2.4-0.4c0.3,0.2-0.8,0.3-2.1,0.3l1.8,0.2c-3.1,0.4-2.7-0.4-5.9,0l1-0.2
						c-1.6,0.2-6,0.2-7.6,0.7c-0.3-0.1-0.7-0.2,0-0.3c-3.9,0-8.7,0.7-11.7,0.6l0.3-0.2c-0.7,0.1-1.3,0.3-2.2,0.2
						c0-0.1,0.3-0.2,0-0.2c-0.4,0.1-1.9,0.3-2.9,0.3l0.8-0.2c-3.8-0.1-5.8,0.6-9,0.7c0-0.4-3-0.5-4.5-0.5l0.1-0.1
						c-4.4,0.1-7.5,0.6-11.6,0.8c-2.6-0.4-8.6,0-12.7-0.1c0.6,0.1-0.1,0.3-0.8,0.4c-1-0.1-2.6,0.4-2.5,0h0.3
						c-0.7-0.4-2.7-0.2-4.2-0.2l-0.2,0.5c-4-0.7-10.5,0.6-12.8,0c-1,0.2-2.2,0.2-3.1,0.4v-0.3c-2.7,0-4,0-7.4,0.2l0.7-0.2
						c-1.9,0-2.3,0.8-4.1,0.8l-0.5-0.4c-3.3,0.1-6.6-0.2-9.8,0.3c0.1-0.1,0.1-0.2,0.7-0.2c-1.5,0-6-0.1-5.4,0.4
						c0-0.4-3.4,0.1-5.1,0.3l0.3-0.3c-1.5,0.4-1.5,0.5-3.6,0.7c-0.5,0-0.4-0.2,0.2-0.2c-1.6-0.1-1.3,0.3-3.3,0.2l0.7-0.2
						c-1.7,0-1.6,0.1-2.5,0.4c-1.1,0.1-3.2,0-3.5-0.2c-0.2,0.2-1.1,0.4-2.1,0.3c-0.1-0.1,0.2-0.2,0.4-0.2c-2.8-0.1-4.2,0.4-6.2,0.2
						c0-0.1-0.2-0.1-0.3-0.2c2.2-0.1,4.1-0.1,3.9-0.1c0-0.3-1.8-0.3-0.4-0.6c-1.5,0.2-3.9,0.7-5.7,0.7c-0.1,0-0.2,0-0.2-0.1h0.2
						c-0.4,0-0.8,0-1.1,0.1c-0.6,0-0.9,0-1.5,0c-0.2-0.2-2.1-0.1-3,0c0.1,0.3-1.1,0.3,0,0.5c-0.1,0,0.2,0,0.8-0.1c0.1,0,0.3,0,0.4,0
						c0,0,0,0-0.1,0c0.6,0,1.4-0.1,2.3-0.1c-0.7,0.2-1.5,0.3-2.5,0.2c-0.5,0.2-1,0.4-1.3,0.5c-1.3-0.4-3.6-0.5-4-0.7
						c-2.8,0.2-6.5,0.3-8.2,0.8c-0.8,0.1-0.9-0.1-1.2-0.2c0.5-0.1,1-0.1,1.2-0.2c-1.6,0.2-4.7,0.2-5,0.6c-2-0.1,1.1-0.4-1.6-0.2
						l0.4-0.1c-5.4-0.4-8.7,1.1-14.6,0.6c0.4,0,0.6,0.1,0.7,0.1c-6.8-0.1-13.9,0.7-20.6,0.4c-1.9-0.1-2.1,0.2-3.3,0.4l-0.4-0.3
						l-2,0.4c-2.8,0.3-4.9-0.6-8.4,0l0.5,0.2c-1.3,0-4,0.2-3.8,0c-0.1,0-0.4,0.2-0.9,0.1v-0.2l-3.1,0.4c-2.4,0,0.4-0.6-3.2-0.6
						c-1.3,0.1-3.7,0.6-3.2,0.7c0.5,0,1.4,0.1,1.4,0.2l-1.2,0.1c-0.2,0.5-1.1,0.9,1.9,1.1l2.1-0.3l0.7,0.2l-1.7,0.1
						c1,0.2,1.6,0,2.3-0.2c0.2,0.1,0.5,0.2,0.9,0.2l2-0.5c0.3,0.2-0.9,0.4,0.5,0.4c0.9-0.2-0.9-0.4,0.6-0.6c1,0.2,0.7,0.4,1.9,0.2
						c0.2,0.1-0.1,0.2-0.5,0.3c1-0.2,2.7-0.1,3.3-0.4c1,0.2,3.5-0.2,3.4,0.3c0.3-0.1,1.8-0.4,2.8-0.4c-1.7,0.6,3.6-0.1,3.1,0.5
						c1.3-0.5,4.6-0.3,6.9-0.7c-0.1,0-0.4,0.1-0.6,0.1c1.3,0,1.7,0.1,2.5,0.2c0.2-0.4,2.1-0.5,3.2-0.7c1.6,0.3-0.9,0.5-0.4,0.7
						c-0.1-0.3,2.7-0.4,2.2-0.6c1.2,0.2,1,0.1,1.7,0.4c0.2-0.5,1.1-0.1,2.1-0.4c1.7,0.2,0.5,0.4,2.4,0.2
						C107.3,395,105.6,395.2,105.6,395.2z M150.8,393.2L150.8,393.2c-0.4,0-0.7,0-0.9,0C150.1,393.2,150.4,393.2,150.8,393.2z
						 M154.7,393.1c-0.5,0-1,0-1.7,0c-0.1-0.1,0-0.2,0.4-0.2C153.2,393.1,154.1,393.1,154.7,393.1z M146.5,391.5
						c0.6-0.1,0.8,0,0.9,0c-0.3,0-0.6,0-1.1,0.1h-0.1C146.4,391.6,146.4,391.6,146.5,391.5z"/>
					<path class="st0" d="M145.5,391.8c-0.1,0-0.1,0-0.2,0c0.1,0,0.2,0,0.4,0.1c0.1,0,0.1-0.1,0.2-0.1
						C145.7,391.8,145.6,391.8,145.5,391.8z"/>
					<path class="st0" d="M490.6,383.2L490.6,383.2C490.5,383.2,490.6,383.2,490.6,383.2L490.6,383.2z"/>
					<polygon class="st0" points="207.2,392.2 207.2,392.1 206.9,392.2 					"/>
					<path class="st0" d="M511.5,383.5c0,0,0.1,0,0.3,0.1C511.8,383.6,511.7,383.6,511.5,383.5z"/>
					<path class="st0" d="M520.6,383.3l1.3,0.1C521.3,383.4,520.9,383.3,520.6,383.3z"/>
					<path class="st0" d="M527.6,383.3C527.7,383.2,527.7,383.2,527.6,383.3L527.6,383.3L527.6,383.3z"/>
					<path class="st0" d="M416.9,386.5c-0.1,0-0.2,0-0.3,0C416,386.5,416.4,386.5,416.9,386.5z"/>
					<path class="st0" d="M449.8,385.1c-0.3,0.1-0.7,0.1-1.1,0.2C449.3,385.2,449.8,385.2,449.8,385.1z"/>
					<path class="st0" d="M380.1,387.8L380.1,387.8c-0.1,0-0.1,0-0.2,0H380.1z"/>
					<path class="st0" d="M447.2,385.2c0.6,0,1.1,0,1.5,0C448.3,385.2,447.7,385.2,447.2,385.2z"/>
					<path class="st0" d="M557.8,382.6h0.3l0,0H557.8z"/>
					<path class="st0" d="M558.1,382.6h0.4C558.3,382.6,558.2,382.6,558.1,382.6z"/>
					<path class="st0" d="M559.3,382.5l-0.8,0.1C558.8,382.6,559.1,382.6,559.3,382.5z"/>
					<path class="st0" d="M548.5,382.7L548.5,382.7C548.5,382.8,548.5,382.7,548.5,382.7z"/>
					<path class="st0" d="M545.7,382.8c0.7,0,1.7,0.2,2.6,0.1l0.1-0.1C548,383,546.4,382.6,545.7,382.8z"/>
					<path class="st0" d="M534,382h2.3c-0.4-0.1-1-0.2,0.1-0.3C533.5,381.5,537.1,381.9,534,382z"/>
					<path class="st0" d="M526.7,382c1.3-0.1,0-0.2,0-0.2C526,381.9,525.8,381.9,526.7,382z"/>
					<path class="st0" d="M474.1,383.4l0.1-0.3C473.3,383.2,474.2,383.2,474.1,383.4z"/>
					<polygon class="st0" points="464.1,384.9 465.1,385 465.5,384.8 					"/>
					<polygon class="st0" points="458.1,383.4 458.5,383.3 456.9,383.5 					"/>
					<path class="st0" d="M369.8,385.8l0.3,0.3C370.7,386,370.9,385.6,369.8,385.8z"/>
					<path class="st0" d="M331.7,387.1c-0.4-0.1-1.5-0.2-2.2,0C330.4,387,331.2,387.1,331.7,387.1z"/>
					<polygon class="st0" points="217.3,389.6 218,389.5 216.6,389.6 					"/>
				</g>
			</g>
		</g>
	</g>
</g>
<linearGradient id="SVGID_1_" gradientUnits="userSpaceOnUse" x1="318.1454" y1="197.0554" x2="297.7096" y2="-87.1006">
	<stop  offset="0" style="stop-color:#CCE0F4"/>
	<stop  offset="6.405089e-002" style="stop-color:#C3DCF2"/>
	<stop  offset="0.1706" style="stop-color:#A9D2EE"/>
	<stop  offset="0.3066" style="stop-color:#80C2E7"/>
	<stop  offset="0.4649" style="stop-color:#47ACDE"/>
	<stop  offset="0.5674" style="stop-color:#1E9CD7"/>
	<stop  offset="0.8652" style="stop-color:#0075BE"/>
	<stop  offset="0.9944" style="stop-color:#005B97"/>
</linearGradient>
<path class="st1" d="M159.4,108.7c-1.2,44.5,66.2,82.1,150.5,84.1c33.7,0.8,64.9-4.2,90.4-13.4l57.6,64.6l-33.3-75.5
	c24.4-13.7,39.5-32.1,40.1-52.6c1.2-44.5-66.2-82.1-150.5-84.1C230,29.7,160.6,64.2,159.4,108.7z"/>
<linearGradient id="SVGID_2_" gradientUnits="userSpaceOnUse" x1="111.8279" y1="300.9385" x2="119.6924" y2="293.0739" gradientTransform="matrix(0.9924 0.123 -0.123 0.9924 73.9993 -15.2439)">
	<stop  offset="0" style="stop-color:#FFFFFF"/>
	<stop  offset="8.510865e-002" style="stop-color:#FFEDD8"/>
	<stop  offset="0.2082" style="stop-color:#FFD5A7"/>
	<stop  offset="0.3345" style="stop-color:#FFC17D"/>
	<stop  offset="0.462" style="stop-color:#FFB05B"/>
	<stop  offset="0.591" style="stop-color:#FFA340"/>
	<stop  offset="0.7222" style="stop-color:#FF9A2D"/>
	<stop  offset="0.8568" style="stop-color:#FF9522"/>
	<stop  offset="1" style="stop-color:#FF931E"/>
</linearGradient>
<polygon class="st2" points="151.6,301.5 154.6,299.1 146.1,283.2 150.3,282.1 162.3,298.6 155.5,306.7 "/>
<g>
	
		<radialGradient id="SVGID_3_" cx="91.4793" cy="344.0028" r="14.2942" gradientTransform="matrix(7.177142e-003 0.9291 -1.0877 7.252977e-003 487.9569 301.9277)" gradientUnits="userSpaceOnUse">
		<stop  offset="0" style="stop-color:#FFFFFF"/>
		<stop  offset="8.510865e-002" style="stop-color:#FFEDD8"/>
		<stop  offset="0.2082" style="stop-color:#FFD5A7"/>
		<stop  offset="0.3345" style="stop-color:#FFC17D"/>
		<stop  offset="0.462" style="stop-color:#FFB05B"/>
		<stop  offset="0.591" style="stop-color:#FFA340"/>
		<stop  offset="0.7222" style="stop-color:#FF9A2D"/>
		<stop  offset="0.8568" style="stop-color:#FF9522"/>
		<stop  offset="1" style="stop-color:#FF931E"/>
	</radialGradient>
	<path class="st3" d="M126.7,390.2l0.1,7.5c0,0.9-0.8,1.8-1.7,1.8l-22.9,0.2c-1,0-1.7-0.7-1.7-1.6l-0.1-7.2c0-0.9,0.8-1.6,1.7-1.6
		l14.1-0.1l4.1-12.9l7.8,1.6l-3.4,10.1h0.3C125.9,387.9,126.7,389.2,126.7,390.2z"/>
	
		<radialGradient id="SVGID_4_" cx="1052.2341" cy="430.7077" r="14.2967" gradientTransform="matrix(0.1571 0.9175 1.0742 -0.1587 -468.8263 -511.1208)" gradientUnits="userSpaceOnUse">
		<stop  offset="0" style="stop-color:#FFFFFF"/>
		<stop  offset="8.510865e-002" style="stop-color:#FFEDD8"/>
		<stop  offset="0.2082" style="stop-color:#FFD5A7"/>
		<stop  offset="0.3345" style="stop-color:#FFC17D"/>
		<stop  offset="0.462" style="stop-color:#FFB05B"/>
		<stop  offset="0.591" style="stop-color:#FFA340"/>
		<stop  offset="0.7222" style="stop-color:#FF9A2D"/>
		<stop  offset="0.8568" style="stop-color:#FF9522"/>
		<stop  offset="1" style="stop-color:#FF931E"/>
	</radialGradient>
	<path class="st4" d="M147.3,389.1l1.2,7.2c0.2,0.8,1,1.5,2,1.3l22.7-3.3c0.9-0.2,1.6-0.9,1.4-1.9l-1.2-7.2c-0.2-0.8-1.1-1.5-2-1.3
		l-13.9,2l-6.3-12.1l-7.3,3.3l5.2,10l-0.3,0.1C147.8,387.4,147.1,388.1,147.3,389.1z"/>
	<polygon class="st5" points="155.9,373.2 143.5,379.8 131.9,360.7 128.7,384.5 114.5,382.8 118.7,352.3 127.3,353.3 127.2,353 
		139.5,346.4 	"/>
	
		<radialGradient id="SVGID_5_" cx="191.6092" cy="-3.2435" r="9.4654" gradientTransform="matrix(0.9358 -0.3276 0.2337 0.5763 -33.1886 340.154)" gradientUnits="userSpaceOnUse">
		<stop  offset="0" style="stop-color:#FFFFFF"/>
		<stop  offset="8.510865e-002" style="stop-color:#FFEDD8"/>
		<stop  offset="0.2082" style="stop-color:#FFD5A7"/>
		<stop  offset="0.3345" style="stop-color:#FFC17D"/>
		<stop  offset="0.462" style="stop-color:#FFB05B"/>
		<stop  offset="0.591" style="stop-color:#FFA340"/>
		<stop  offset="0.7222" style="stop-color:#FF9A2D"/>
		<stop  offset="0.8568" style="stop-color:#FF9522"/>
		<stop  offset="1" style="stop-color:#FF931E"/>
	</radialGradient>
	<path class="st6" d="M152,281.2l-7.5,2.6c-0.8,0.3-1.7-0.1-2.1-0.8l-4.5-11.2c-0.3-0.7,0.1-1.6,0.9-2l7.5-2.6
		c0.8-0.3,1.7,0.1,2.1,0.8l4.5,11.2C153.2,280.1,152.8,280.9,152,281.2z"/>
	
		<radialGradient id="SVGID_6_" cx="297.2682" cy="135.1873" r="6.06" gradientTransform="matrix(1.3427 -0.5417 0.442 0.9455 -319.6349 302.5224)" gradientUnits="userSpaceOnUse">
		<stop  offset="0" style="stop-color:#FFFFFF"/>
		<stop  offset="8.510865e-002" style="stop-color:#FFEDD8"/>
		<stop  offset="0.2082" style="stop-color:#FFD5A7"/>
		<stop  offset="0.3345" style="stop-color:#FFC17D"/>
		<stop  offset="0.462" style="stop-color:#FFB05B"/>
		<stop  offset="0.591" style="stop-color:#FFA340"/>
		<stop  offset="0.7222" style="stop-color:#FF9A2D"/>
		<stop  offset="0.8568" style="stop-color:#FF9522"/>
		<stop  offset="1" style="stop-color:#FF931E"/>
	</radialGradient>
	<path class="st7" d="M143.7,267.5c1.9,4.2,1.5,8.3-0.9,9.3s-5.9-1.6-7.9-5.8c-1.9-4.2-1.5-8.3,0.9-9.3
		C138.2,260.8,141.7,263.4,143.7,267.5z"/>
	
		<radialGradient id="SVGID_7_" cx="80.1843" cy="310.3596" r="26.8035" gradientTransform="matrix(0.9924 0.1143 -0.123 0.922 73.9993 -10.6166)" gradientUnits="userSpaceOnUse">
		<stop  offset="0" style="stop-color:#FFFFFF"/>
		<stop  offset="8.510865e-002" style="stop-color:#FFEDD8"/>
		<stop  offset="0.2082" style="stop-color:#FFD5A7"/>
		<stop  offset="0.3345" style="stop-color:#FFC17D"/>
		<stop  offset="0.462" style="stop-color:#FFB05B"/>
		<stop  offset="0.591" style="stop-color:#FFA340"/>
		<stop  offset="0.7222" style="stop-color:#FF9A2D"/>
		<stop  offset="0.8568" style="stop-color:#FF9522"/>
		<stop  offset="1" style="stop-color:#FF931E"/>
	</radialGradient>
	<ellipse class="st8" cx="115.4" cy="284.7" rx="26.8" ry="24.9"/>
	<path class="st9" d="M123.6,265.3c5.2-0.4,9.7,3.2,10.1,8s-3.4,9-8.6,9.4c-5.2,0.4-9.7-3.2-10.1-8S118.4,265.7,123.6,265.3z"/>
	<path d="M120.2,273.2c0.4-3,3.6-5,7.3-4.6c3.7,0.4,6.2,3.1,5.8,6.1s-3.6,5-7.3,4.6S119.8,276.1,120.2,273.2z"/>
	
		<radialGradient id="SVGID_8_" cx="253.7001" cy="126.9654" r="6.0616" gradientTransform="matrix(1.2157 -0.6604 0.569 0.9041 -292.488 346.9522)" gradientUnits="userSpaceOnUse">
		<stop  offset="0" style="stop-color:#FFFFFF"/>
		<stop  offset="8.510865e-002" style="stop-color:#FFEDD8"/>
		<stop  offset="0.2082" style="stop-color:#FFD5A7"/>
		<stop  offset="0.3345" style="stop-color:#FFC17D"/>
		<stop  offset="0.462" style="stop-color:#FFB05B"/>
		<stop  offset="0.591" style="stop-color:#FFA340"/>
		<stop  offset="0.7222" style="stop-color:#FF9A2D"/>
		<stop  offset="0.8568" style="stop-color:#FF9522"/>
		<stop  offset="1" style="stop-color:#FF931E"/>
	</radialGradient>
	<path class="st10" d="M92.2,292.1c2.5,4,2.7,8.2,0.6,9.3c-2.1,1.1-6-1-8.5-5s-2.7-8.2-0.6-9.3C85.9,285.8,89.7,288.1,92.2,292.1z"
		/>
	<path class="st9" d="M108.3,272.7c5.2-0.4,9.7,3.2,10.1,8s-3.4,9-8.6,9.4s-9.7-3.2-10.1-8S103.1,273.1,108.3,272.7z"/>
	<path d="M105,280.6c0.4-3,3.6-5,7.3-4.6c3.6,0.4,6.2,3.1,5.8,6.1s-3.6,5-7.3,4.6C107.3,286.2,104.6,283.5,105,280.6z"/>
	<path class="st11" d="M97.4,270.9c0.9-1.4,1.9-2.7,2.9-4c0.5-0.7,1.1-1.3,1.9-1.7c1.6-0.7,3.8,0.1,4.4,1.7"/>
	<path class="st11" d="M114.1,264c0.2-1.5,0.7-2.9,1.3-4.2c0.2-0.4,0.4-0.7,0.7-0.9c0.4-0.3,1-0.3,1.5-0.3c1.9,0.1,3.8,1.2,4.8,2.7"
		/>
	<path class="st9" d="M112.2,280.8c0.2-1.3,1.4-2.2,2.7-2c1.3,0.2,2.2,1.3,2.1,2.6s-1.4,2.2-2.7,2S112,282,112.2,280.8z"/>
	<path class="st9" d="M127.5,273.4c0.2-1.3,1.4-2.2,2.7-2s2.2,1.3,2.1,2.6s-1.4,2.2-2.7,2S127.3,274.7,127.5,273.4z"/>
	<path class="st12" d="M122.8,286.9c2.9-0.3,5.6,2.7,6.1,6.7c0.4,4-1.5,7.4-4.5,7.7c-2.9,0.3-5.6-2.7-6.1-6.7
		S119.9,287.2,122.8,286.9z"/>
	<g>
		<path d="M105.6,260.2c0-0.3,0-0.6-0.1-0.8c-0.1-0.3-0.1-0.6-0.2-0.8c-0.2-0.6-0.5-1.1-0.8-1.6c-0.4-0.5-0.9-0.8-1.4-1.1
			c-0.6-0.3-1.2-0.5-1.9-0.4l0,0l0.3,0.1l-0.3-0.1h-0.1h0.1c1.3-0.3,2.7,0.3,3.7,1.2c0.5,0.5,0.9,1,1.2,1.6c0.1,0.3,0.3,0.6,0.4,0.9
			s0.2,0.7,0.2,0.9L105.6,260.2z"/>
	</g>
	<g>
		<path d="M103.5,250.9C103.5,250.9,103.4,251,103.5,250.9C103.5,250.9,103.6,250.9,103.5,250.9c0.1-0.1,0.1-0.2,0.1-0.2
			C103.6,250.8,103.6,250.8,103.5,250.9c0.1,0,0.2,0.1,0.2,0.1l0.2,0.3c0.2,0.2,0.3,0.4,0.5,0.5c0.1,0.2,0.3,0.4,0.4,0.6
			c0.5,0.7,1,1.5,1.4,2.2s0.8,1.6,1.1,2.3c0.3,0.7,0.7,1.6,0.8,2.4l-0.5,0.1c-0.1-1.5,0.2-2.9,0.7-4.2s1.2-2.6,2.3-3.6
			c-1,1.1-1.6,2.4-2.1,3.7c-0.4,1.3-0.6,2.8-0.4,4.1l-0.5,0.1c-0.1-0.7-0.6-1.5-0.9-2.3c-0.4-0.7-0.8-1.5-1.2-2.2
			c-0.4-0.7-0.9-1.4-1.4-2c-0.1-0.2-0.3-0.3-0.4-0.5c-0.2-0.2-0.3-0.3-0.4-0.5l-0.2-0.2c-0.1-0.1-0.2-0.2-0.3-0.4
			c-0.1-0.1-0.2-0.3-0.2-0.5c0-0.1,0-0.3,0.1-0.4c0-0.1,0.1-0.1,0.2-0.2s0.1-0.1,0.1-0.1L103.5,250.9z"/>
	</g>
	<g>
		<path d="M109.2,258.2c0,0,0-0.1,0.1-0.2c0-0.1,0.1-0.1,0.2-0.2s0.2-0.2,0.3-0.3c0.4-0.4,1-0.7,1.5-0.8c0.6-0.2,1.1-0.5,1.5-0.7
			c0.4-0.3,0.5-0.5,0.5-0.5s0,0.1-0.1,0.2s-0.2,0.3-0.3,0.5c-0.3,0.4-0.8,0.7-1.3,1s-1,0.7-1.1,0.9c-0.1,0.1-0.1,0.1-0.1,0.2
			s0,0.1-0.1,0.2c0,0.1-0.1,0.2-0.1,0.2L109.2,258.2z"/>
	</g>
	
		<radialGradient id="SVGID_9_" cx="109.6014" cy="-67.8259" r="9.4557" gradientTransform="matrix(-0.9936 -0.1048 -7.475451e-002 0.612 193.5954 339.9361)" gradientUnits="userSpaceOnUse">
		<stop  offset="0" style="stop-color:#FFFFFF"/>
		<stop  offset="8.510865e-002" style="stop-color:#FFEDD8"/>
		<stop  offset="0.2082" style="stop-color:#FFD5A7"/>
		<stop  offset="0.3345" style="stop-color:#FFC17D"/>
		<stop  offset="0.462" style="stop-color:#FFB05B"/>
		<stop  offset="0.591" style="stop-color:#FFA340"/>
		<stop  offset="0.7222" style="stop-color:#FF9A2D"/>
		<stop  offset="0.8568" style="stop-color:#FF9522"/>
		<stop  offset="1" style="stop-color:#FF931E"/>
	</radialGradient>
	<path class="st13" d="M84.9,293.9l8,0.8c0.9,0.1,1.7-0.5,1.8-1.3l1.4-11.9c0.1-0.8-0.5-1.6-1.4-1.7l-8-0.8
		c-0.9-0.1-1.7,0.5-1.8,1.3l-1.5,11.9C83.4,293.2,84,293.8,84.9,293.9z"/>
	
		<linearGradient id="SVGID_10_" gradientUnits="userSpaceOnUse" x1="14.4218" y1="301.5915" x2="22.5668" y2="293.4465" gradientTransform="matrix(-0.9321 0.3622 0.3622 0.9321 -2.756 22.2607)">
		<stop  offset="0" style="stop-color:#FFFFFF"/>
		<stop  offset="8.510865e-002" style="stop-color:#FFEDD8"/>
		<stop  offset="0.2082" style="stop-color:#FFD5A7"/>
		<stop  offset="0.3345" style="stop-color:#FFC17D"/>
		<stop  offset="0.462" style="stop-color:#FFB05B"/>
		<stop  offset="0.591" style="stop-color:#FFA340"/>
		<stop  offset="0.7222" style="stop-color:#FF9A2D"/>
		<stop  offset="0.8568" style="stop-color:#FF9522"/>
		<stop  offset="1" style="stop-color:#FF931E"/>
	</linearGradient>
	<polygon class="st14" points="90.6,313.6 87.1,311.9 91.2,294.7 86.7,294.5 79.5,313.2 88.3,319.6 	"/>
	<polygon class="st15" points="88.1,320.1 106.3,322.9 114.5,356.9 131,353.5 131.1,353.8 150,350.1 142.4,316.1 157.6,306.6 
		152.3,299.3 139.9,307.1 123.9,310.3 123.8,309.8 104.5,313.8 89.7,311.5 	"/>
</g>
<g>
	
		<radialGradient id="SVGID_11_" cx="-37.2851" cy="283.6417" r="16.8407" gradientTransform="matrix(-5.513292e-002 0.9277 1.0861 5.571547e-002 40.8109 398.7271)" gradientUnits="userSpaceOnUse">
		<stop  offset="0" style="stop-color:#FFFFFF"/>
		<stop  offset="8.510865e-002" style="stop-color:#FFEDD8"/>
		<stop  offset="0.2082" style="stop-color:#FFD5A7"/>
		<stop  offset="0.3345" style="stop-color:#FFC17D"/>
		<stop  offset="0.462" style="stop-color:#FFB05B"/>
		<stop  offset="0.591" style="stop-color:#FFA340"/>
		<stop  offset="0.7222" style="stop-color:#FF9A2D"/>
		<stop  offset="0.8568" style="stop-color:#FF9522"/>
		<stop  offset="1" style="stop-color:#FF931E"/>
	</radialGradient>
	<path class="st16" d="M336.5,380.7l-0.5,8.5c-0.1,1,0.8,2,1.9,2l27,1.4c1.1,0.1,2.1-0.7,2.2-1.8l0.5-8.5c0.1-1-0.8-2-1.9-2
		l-16.6-0.8l-4-15.3l-9.3,2.1l3.3,12.7h-0.4C337.5,378.9,336.5,379.7,336.5,380.7z"/>
	
		<radialGradient id="SVGID_12_" cx="1183.5498" cy="424.4741" r="16.8407" gradientTransform="matrix(-0.2042 0.9095 -1.0648 -0.2064 992.2338 -615.3718)" gradientUnits="userSpaceOnUse">
		<stop  offset="0" style="stop-color:#FFFFFF"/>
		<stop  offset="8.510865e-002" style="stop-color:#FFEDD8"/>
		<stop  offset="0.2082" style="stop-color:#FFD5A7"/>
		<stop  offset="0.3345" style="stop-color:#FFC17D"/>
		<stop  offset="0.462" style="stop-color:#FFB05B"/>
		<stop  offset="0.591" style="stop-color:#FFA340"/>
		<stop  offset="0.7222" style="stop-color:#FF9A2D"/>
		<stop  offset="0.8568" style="stop-color:#FF9522"/>
		<stop  offset="1" style="stop-color:#FF931E"/>
	</radialGradient>
	<path class="st17" d="M312.4,377.7l-1.9,8.4c-0.2,1-1.3,1.7-2.4,1.5l-26.4-5.1c-1.1-0.2-1.8-1.2-1.6-2.2l1.9-8.4
		c0.2-1,1.3-1.7,2.4-1.5l16.3,3.2l8.1-13.8l8.4,4.3l-6.8,11.5l0.4,0.1C311.9,375.7,312.6,376.7,312.4,377.7z"/>
	<polygon class="st18" points="303.1,358.6 317.3,366.9 332.2,345.1 334.5,373.3 351.2,372.1 348.2,335.9 338,336.7 338.2,336.3 
		324.1,327.9 	"/>
	
		<radialGradient id="SVGID_13_" cx="499.5385" cy="115.1753" r="7.1458" gradientTransform="matrix(1.4605 9.289344e-002 -7.578754e-002 1.0285 -349.4286 83.3459)" gradientUnits="userSpaceOnUse">
		<stop  offset="0" style="stop-color:#FFFFFF"/>
		<stop  offset="8.510865e-002" style="stop-color:#FFEDD8"/>
		<stop  offset="0.2082" style="stop-color:#FFD5A7"/>
		<stop  offset="0.3345" style="stop-color:#FFC17D"/>
		<stop  offset="0.462" style="stop-color:#FFB05B"/>
		<stop  offset="0.591" style="stop-color:#FFA340"/>
		<stop  offset="0.7222" style="stop-color:#FF9A2D"/>
		<stop  offset="0.8568" style="stop-color:#FF9522"/>
		<stop  offset="1" style="stop-color:#FF931E"/>
	</radialGradient>
	<path class="st19" d="M377,248.6c-0.4,5.3-3.2,9.5-6.3,9.3c-3.1-0.2-5.3-4.6-4.9-9.9s3.2-9.5,6.3-9.3
		C375.2,238.8,377.4,243.3,377,248.6z"/>
	
		<radialGradient id="SVGID_14_" cx="320.1073" cy="144.1622" r="31.5225" gradientTransform="matrix(0.8245 0.5257 -0.5658 0.766 155.1385 -26.4086)" gradientUnits="userSpaceOnUse">
		<stop  offset="0" style="stop-color:#FFFFFF"/>
		<stop  offset="8.510865e-002" style="stop-color:#FFEDD8"/>
		<stop  offset="0.2082" style="stop-color:#FFD5A7"/>
		<stop  offset="0.3345" style="stop-color:#FFC17D"/>
		<stop  offset="0.462" style="stop-color:#FFB05B"/>
		<stop  offset="0.591" style="stop-color:#FFA340"/>
		<stop  offset="0.7222" style="stop-color:#FF9A2D"/>
		<stop  offset="0.8568" style="stop-color:#FF9522"/>
		<stop  offset="1" style="stop-color:#FF931E"/>
	</radialGradient>
	<ellipse class="st20" cx="337.5" cy="252.3" rx="31.5" ry="29.3"/>
	<path class="st9" d="M342.8,241.6c2.4-5.3,8.9-7.7,14.5-5.5c5.7,2.2,8.3,8.2,6,13.5c-2.4,5.3-8.9,7.7-14.5,5.5
		S340.5,246.9,342.8,241.6z"/>
	<path d="M349.2,242.6c2.2-2.9,6.8-3.4,10.3-1.2c3.6,2.3,4.7,6.5,2.5,9.4s-6.8,3.4-10.3,1.2C348.1,249.7,347,245.5,349.2,242.6z"/>
	
		<radialGradient id="SVGID_15_" cx="457.0637" cy="138.2581" r="7.1557" gradientTransform="matrix(1.4064 -6.672080e-002 5.748585e-002 1.0459 -347.3359 134.4449)" gradientUnits="userSpaceOnUse">
		<stop  offset="0" style="stop-color:#FFFFFF"/>
		<stop  offset="8.510865e-002" style="stop-color:#FFEDD8"/>
		<stop  offset="0.2082" style="stop-color:#FFD5A7"/>
		<stop  offset="0.3345" style="stop-color:#FFC17D"/>
		<stop  offset="0.462" style="stop-color:#FFB05B"/>
		<stop  offset="0.591" style="stop-color:#FFA340"/>
		<stop  offset="0.7222" style="stop-color:#FF9A2D"/>
		<stop  offset="0.8568" style="stop-color:#FF9522"/>
		<stop  offset="1" style="stop-color:#FF931E"/>
	</radialGradient>
	<path class="st21" d="M308.9,248.3c0.3,5.4-1.9,9.8-4.9,10c-3,0.2-5.6-4.1-5.9-9.5s1.9-9.8,4.9-10
		C305.9,238.6,308.6,242.9,308.9,248.3z"/>
	<path class="st9" d="M322.6,241.7c2.4-5.3,8.9-7.7,14.5-5.5s8.3,8.2,6,13.5s-8.9,7.7-14.5,5.5S320.2,247,322.6,241.7z"/>
	<path d="M328.9,242.8c2.2-2.9,6.8-3.4,10.3-1.2c3.6,2.3,4.7,6.5,2.5,9.4s-6.8,3.4-10.3,1.2C327.9,249.9,326.7,245.7,328.9,242.8z"
		/>
	<path class="st11" d="M326.7,228.8c1.7-1,3.5-1.9,5.4-2.7c0.9-0.4,1.9-0.7,2.9-0.7c2.1,0,3.9,2,3.6,4"/>
	<path class="st11" d="M348.2,230c1.1-1.4,2.4-2.7,3.9-3.7c0.4-0.3,0.8-0.6,1.3-0.7c0.6-0.1,1.2,0.2,1.7,0.5
		c1.9,1.1,3.2,3.2,3.4,5.2"/>
	<path class="st9" d="M336.4,246.6c0.9-1.3,2.7-1.6,4-0.8s1.5,2.5,0.6,3.8s-2.7,1.6-4,0.8C335.7,249.5,335.5,247.8,336.4,246.6z"/>
	<path class="st9" d="M356.7,246.6c0.9-1.3,2.7-1.6,4-0.8s1.5,2.5,0.6,3.8s-2.7,1.6-4,0.8C356,249.5,355.7,247.8,356.7,246.6z"/>
	<path class="st12" d="M334.8,264.2c1.9-4.4,6-7,9.2-5.8s4.4,5.7,2.5,10.1s-6,7-9.2,5.8C334,273.1,332.9,268.6,334.8,264.2z"/>
	<g>
		<path d="M341.6,221.7c0.2-0.4,0.3-0.7,0.4-0.9c0.1-0.4,0.2-0.7,0.3-1c0.1-0.7,0.1-1.4,0-2c-0.1-0.7-0.4-1.3-0.9-1.9
			c-0.4-0.6-1-1-1.7-1.3l0,0l0.3,0.3l-0.3-0.2l-0.1-0.1h0.1c1.5,0.5,2.7,1.7,3.1,3.2c0.2,0.7,0.3,1.5,0.2,2.2c0,0.4-0.1,0.7-0.2,1.1
			c-0.1,0.4-0.2,0.7-0.3,1.1L341.6,221.7z"/>
	</g>
	<g>
		<path d="M344.7,210.9C344.7,210.9,344.6,211,344.7,210.9L344.7,210.9C344.8,210.9,344.8,210.9,344.7,210.9c0.1-0.1,0,0,0.1,0.1
			c0,0.1,0,0.2,0,0.3l0.1,0.4c0.1,0.2,0.1,0.5,0.2,0.7c0,0.3,0.1,0.5,0.1,0.7c0.2,1,0.2,2,0.2,3.1s-0.1,2-0.2,3s-0.1,2-0.5,3
			l-0.4-0.2c0.7-1.6,1.8-2.9,3.1-4.1c1.3-1.1,2.8-2.1,4.5-2.7c-1.7,0.7-3.1,1.7-4.3,2.9c-1.2,1.2-2.2,2.6-2.9,4.1l-0.4-0.2
			c0.3-0.9,0.3-1.9,0.4-2.9s0.1-2,0.1-3s-0.1-2-0.3-2.9c0-0.3-0.1-0.5-0.2-0.7s-0.1-0.5-0.2-0.7l-0.1-0.4c-0.1-0.2-0.1-0.3-0.1-0.5
			s0-0.4,0.1-0.6c0-0.1,0.1-0.3,0.3-0.4c0.1-0.1,0.1-0.1,0.3-0.1c0.1,0,0.1,0,0.2,0L344.7,210.9z"/>
	</g>
	<g>
		<path d="M346.4,221.5c0,0,0.1-0.1,0.2-0.1s0.2-0.1,0.3-0.2c0.1-0.1,0.3-0.1,0.4-0.2c0.6-0.2,1.4-0.2,2.1-0.2s1.4,0.1,1.9,0
			c0.3,0,0.5-0.1,0.6-0.2c0.1-0.1,0.2-0.1,0.2-0.1s-0.1,0-0.2,0.1s-0.3,0.2-0.6,0.3c-0.5,0.2-1.3,0.3-2,0.4
			c-0.7,0.1-1.4,0.2-1.8,0.4c-0.1,0.1-0.2,0.1-0.2,0.2c-0.1,0-0.1,0.1-0.2,0.1c-0.1,0.1-0.2,0.2-0.2,0.2L346.4,221.5z"/>
	</g>
	
		<radialGradient id="SVGID_16_" cx="292.8045" cy="36.0886" r="11.133" gradientTransform="matrix(-0.8357 0.5102 0.3641 0.5147 506.4214 101.008)" gradientUnits="userSpaceOnUse">
		<stop  offset="0" style="stop-color:#FFFFFF"/>
		<stop  offset="8.510865e-002" style="stop-color:#FFEDD8"/>
		<stop  offset="0.2082" style="stop-color:#FFD5A7"/>
		<stop  offset="0.3345" style="stop-color:#FFC17D"/>
		<stop  offset="0.462" style="stop-color:#FFB05B"/>
		<stop  offset="0.591" style="stop-color:#FFA340"/>
		<stop  offset="0.7222" style="stop-color:#FF9A2D"/>
		<stop  offset="0.8568" style="stop-color:#FF9522"/>
		<stop  offset="1" style="stop-color:#FF931E"/>
	</radialGradient>
	<path class="st22" d="M275.9,278.9l8.4-5.1c0.7-0.5,0.9-1.4,0.5-2l-8.7-12.3c-0.5-0.7-1.5-0.8-2.2-0.5l-8.4,5.1
		c-0.7,0.5-0.9,1.4-0.5,2l8.7,12.3C274.2,279.1,275.2,279.3,275.9,278.9z"/>
	
		<linearGradient id="SVGID_17_" gradientUnits="userSpaceOnUse" x1="212.1085" y1="277.7416" x2="222.6186" y2="267.2315" gradientTransform="matrix(-0.5312 0.8472 0.8472 0.5312 171.6737 -40.2976)">
		<stop  offset="0" style="stop-color:#FFFFFF"/>
		<stop  offset="8.510865e-002" style="stop-color:#FFEDD8"/>
		<stop  offset="0.2082" style="stop-color:#FFD5A7"/>
		<stop  offset="0.3345" style="stop-color:#FFC17D"/>
		<stop  offset="0.462" style="stop-color:#FFB05B"/>
		<stop  offset="0.591" style="stop-color:#FFA340"/>
		<stop  offset="0.7222" style="stop-color:#FF9A2D"/>
		<stop  offset="0.8568" style="stop-color:#FF9522"/>
		<stop  offset="1" style="stop-color:#FF931E"/>
	</linearGradient>
	<polygon class="st23" points="295.2,293.6 290.6,294.4 281.4,275.3 277.1,278 284.4,300.5 297.5,300.8 	"/>
	
		<radialGradient id="SVGID_18_" cx="460.566" cy="-180.2042" r="11.1375" gradientTransform="matrix(0.7096 0.6546 -0.4671 0.437 -11.4583 52.6575)" gradientUnits="userSpaceOnUse">
		<stop  offset="0" style="stop-color:#FFFFFF"/>
		<stop  offset="8.510865e-002" style="stop-color:#FFEDD8"/>
		<stop  offset="0.2082" style="stop-color:#FFD5A7"/>
		<stop  offset="0.3345" style="stop-color:#FFC17D"/>
		<stop  offset="0.462" style="stop-color:#FFB05B"/>
		<stop  offset="0.591" style="stop-color:#FFA340"/>
		<stop  offset="0.7222" style="stop-color:#FF9A2D"/>
		<stop  offset="0.8568" style="stop-color:#FF9522"/>
		<stop  offset="1" style="stop-color:#FF931E"/>
	</radialGradient>
	<path class="st24" d="M396.5,284.9l-7.1-6.6c-0.6-0.6-0.6-1.5,0-2.1l11.1-10.4c0.6-0.6,1.6-0.6,2.3,0l7.1,6.6
		c0.6,0.6,0.6,1.5,0,2.1l-11.1,10.4C398.1,285.5,397.1,285.5,396.5,284.9z"/>
	
		<linearGradient id="SVGID_19_" gradientUnits="userSpaceOnUse" x1="303.0217" y1="80.8093" x2="313.6688" y2="70.1622" gradientTransform="matrix(0.3519 0.936 -0.936 0.3519 345.4918 -22.825)">
		<stop  offset="0" style="stop-color:#FFFFFF"/>
		<stop  offset="8.510865e-002" style="stop-color:#FFEDD8"/>
		<stop  offset="0.2082" style="stop-color:#FFD5A7"/>
		<stop  offset="0.3345" style="stop-color:#FFC17D"/>
		<stop  offset="0.462" style="stop-color:#FFB05B"/>
		<stop  offset="0.591" style="stop-color:#FFA340"/>
		<stop  offset="0.7222" style="stop-color:#FF9A2D"/>
		<stop  offset="0.8568" style="stop-color:#FF9522"/>
		<stop  offset="1" style="stop-color:#FF931E"/>
	</linearGradient>
	<polygon class="st25" points="374.4,295.8 378.7,297.4 391.9,280.4 395.5,283.9 383.6,304.5 370.6,302.4 	"/>
	<polygon class="st26" points="371.2,303.4 354.7,296.8 353.7,337.6 332.8,337.1 332.7,337.6 311.8,336.2 314.9,295.5 297.8,300.8 
		294.3,290.9 315.3,284.5 334.8,285.7 334.8,285.3 355.2,285.7 375.6,294 	"/>
</g>
<g>
	
		<radialGradient id="SVGID_20_" cx="234.1819" cy="351.2967" r="16.8407" gradientTransform="matrix(-5.998202e-002 0.9274 -1.0858 -6.061580e-002 615.5078 186.4471)" gradientUnits="userSpaceOnUse">
		<stop  offset="0" style="stop-color:#FFFFFF"/>
		<stop  offset="8.510865e-002" style="stop-color:#FFEDD8"/>
		<stop  offset="0.2082" style="stop-color:#FFD5A7"/>
		<stop  offset="0.3345" style="stop-color:#FFC17D"/>
		<stop  offset="0.462" style="stop-color:#FFB05B"/>
		<stop  offset="0.591" style="stop-color:#FFA340"/>
		<stop  offset="0.7222" style="stop-color:#FF9A2D"/>
		<stop  offset="0.8568" style="stop-color:#FF9522"/>
		<stop  offset="1" style="stop-color:#FF931E"/>
	</radialGradient>
	<path class="st27" d="M234.4,384.7l-0.5,8.5c-0.1,1-1,1.9-2.2,1.8l-27-1.5c-1.1-0.1-2-0.9-1.9-2l0.5-8.5c0.1-1,1-1.9,2.2-1.8
		l16.6,0.9l5.9-14.9l9,3.1l-4.9,12.4h0.4C233.6,382.7,234.5,383.7,234.4,384.7z"/>
	
		<radialGradient id="SVGID_21_" cx="904.7946" cy="400.7705" r="16.8407" gradientTransform="matrix(9.039191e-002 0.9252 1.0833 -9.134700e-002 -243.035 -419.0923)" gradientUnits="userSpaceOnUse">
		<stop  offset="0" style="stop-color:#FFFFFF"/>
		<stop  offset="8.510865e-002" style="stop-color:#FFEDD8"/>
		<stop  offset="0.2082" style="stop-color:#FFD5A7"/>
		<stop  offset="0.3345" style="stop-color:#FFC17D"/>
		<stop  offset="0.462" style="stop-color:#FFB05B"/>
		<stop  offset="0.591" style="stop-color:#FFA340"/>
		<stop  offset="0.7222" style="stop-color:#FF9A2D"/>
		<stop  offset="0.8568" style="stop-color:#FF9522"/>
		<stop  offset="1" style="stop-color:#FF931E"/>
	</radialGradient>
	<path class="st28" d="M258.7,384.2l0.8,8.5c0.1,1,1.1,1.9,2.2,1.8l26.9-2.3c1.1-0.1,1.9-1,1.9-2l-0.8-8.5c-0.1-1-1.1-1.9-2.2-1.8
		l-16.6,1.4l-6.4-14.7l-8.9,3.3l5.3,12.2h-0.4C259.4,382.3,258.6,383.2,258.7,384.2z"/>
	<polygon class="st29" points="270.2,366.2 255.1,373 243,349.8 237.2,377.4 220.8,374.5 228.2,338.9 238.3,340.7 238.1,340.4 
		253.2,333.6 	"/>
	
		<radialGradient id="SVGID_22_" cx="328.9391" cy="19.3723" r="11.13" gradientTransform="matrix(0.9287 -0.3446 0.2459 0.5719 -58.9154 351.5761)" gradientUnits="userSpaceOnUse">
		<stop  offset="0" style="stop-color:#FFFFFF"/>
		<stop  offset="8.510865e-002" style="stop-color:#FFEDD8"/>
		<stop  offset="0.2082" style="stop-color:#FFD5A7"/>
		<stop  offset="0.3345" style="stop-color:#FFC17D"/>
		<stop  offset="0.462" style="stop-color:#FFB05B"/>
		<stop  offset="0.591" style="stop-color:#FFA340"/>
		<stop  offset="0.7222" style="stop-color:#FF9A2D"/>
		<stop  offset="0.8568" style="stop-color:#FF9522"/>
		<stop  offset="1" style="stop-color:#FF931E"/>
	</radialGradient>
	<path class="st30" d="M259.5,255.7l-9.3,3.4c-0.8,0.3-1.7-0.1-2.1-0.8l-5.8-13.6c-0.3-0.7,0.1-1.6,0.9-2l9.3-3.4
		c0.8-0.3,1.7,0.1,2.1,0.8l5.8,13.6C260.8,254.6,260.4,255.5,259.5,255.7z"/>
	
		<radialGradient id="SVGID_23_" cx="390.0992" cy="153.4248" r="7.1565" gradientTransform="matrix(1.331 -0.5662 0.4619 0.9373 -346.1021 319.1747)" gradientUnits="userSpaceOnUse">
		<stop  offset="0" style="stop-color:#FFFFFF"/>
		<stop  offset="8.510865e-002" style="stop-color:#FFEDD8"/>
		<stop  offset="0.2082" style="stop-color:#FFD5A7"/>
		<stop  offset="0.3345" style="stop-color:#FFC17D"/>
		<stop  offset="0.462" style="stop-color:#FFB05B"/>
		<stop  offset="0.591" style="stop-color:#FFA340"/>
		<stop  offset="0.7222" style="stop-color:#FF9A2D"/>
		<stop  offset="0.8568" style="stop-color:#FF9522"/>
		<stop  offset="1" style="stop-color:#FF931E"/>
	</radialGradient>
	<path class="st31" d="M249.1,239.9c2.4,4.8,2,9.8-0.8,11s-7-1.8-9.4-6.6s-2-9.8,0.8-11C242.5,232.1,246.8,235.1,249.1,239.9z"/>
	
		<radialGradient id="SVGID_24_" cx="203.7039" cy="262.2189" r="31.5228" gradientTransform="matrix(0.9946 9.615741e-002 -0.1035 0.924 40.8358 -1.0779)" gradientUnits="userSpaceOnUse">
		<stop  offset="0" style="stop-color:#FFFFFF"/>
		<stop  offset="8.510865e-002" style="stop-color:#FFEDD8"/>
		<stop  offset="0.2082" style="stop-color:#FFD5A7"/>
		<stop  offset="0.3345" style="stop-color:#FFC17D"/>
		<stop  offset="0.462" style="stop-color:#FFB05B"/>
		<stop  offset="0.591" style="stop-color:#FFA340"/>
		<stop  offset="0.7222" style="stop-color:#FF9A2D"/>
		<stop  offset="0.8568" style="stop-color:#FF9522"/>
		<stop  offset="1" style="stop-color:#FF931E"/>
	</radialGradient>
	<ellipse class="st32" cx="216.3" cy="260.8" rx="31.5" ry="29.3"/>
	<path class="st9" d="M225.3,237.7c6.1-0.6,11.6,3.5,12.2,9.2s-3.8,10.7-9.9,11.3c-6.1,0.6-11.6-3.5-12.2-9.2
		S219.2,238.3,225.3,237.7z"/>
	<path d="M221.6,247.1c0.4-3.5,4.2-6,8.5-5.6s7.4,3.6,7,7.1s-4.2,6-8.5,5.6C224.4,253.8,221.2,250.6,221.6,247.1z"/>
	
		<radialGradient id="SVGID_25_" cx="340.5223" cy="158.7228" r="7.1461" gradientTransform="matrix(1.2015 -0.6825 0.588 0.8936 -318.0207 363.0896)" gradientUnits="userSpaceOnUse">
		<stop  offset="0" style="stop-color:#FFFFFF"/>
		<stop  offset="8.510865e-002" style="stop-color:#FFEDD8"/>
		<stop  offset="0.2082" style="stop-color:#FFD5A7"/>
		<stop  offset="0.3345" style="stop-color:#FFC17D"/>
		<stop  offset="0.462" style="stop-color:#FFB05B"/>
		<stop  offset="0.591" style="stop-color:#FFA340"/>
		<stop  offset="0.7222" style="stop-color:#FF9A2D"/>
		<stop  offset="0.8568" style="stop-color:#FF9522"/>
		<stop  offset="1" style="stop-color:#FF931E"/>
	</radialGradient>
	<path class="st33" d="M189.1,270c3,4.6,3.4,9.6,0.9,11c-2.5,1.5-7.1-1.1-10.1-5.8s-3.4-9.6-0.9-11
		C181.5,262.7,186.1,265.3,189.1,270z"/>
	<path class="st9" d="M207.6,246.8c6.1-0.6,11.6,3.5,12.2,9.2c0.6,5.7-3.8,10.7-9.9,11.3s-11.6-3.5-12.2-9.2
		C197.1,252.4,201.6,247.4,207.6,246.8z"/>
	<path d="M203.9,256.1c0.4-3.5,4.2-6,8.5-5.6s7.4,3.6,7,7.1s-4.2,6-8.5,5.6C206.6,262.8,203.5,259.6,203.9,256.1z"/>
	<path class="st11" d="M194.7,244.9c1-1.7,2.1-3.3,3.4-4.7c0.6-0.7,1.3-1.5,2.2-2c1.9-0.9,4.5,0.1,5.2,2"/>
	<path class="st11" d="M214.2,236.4c0.2-1.8,0.7-3.4,1.5-5c0.2-0.5,0.4-0.8,0.8-1.1c0.5-0.4,1.1-0.4,1.8-0.4
		c2.3,0.1,4.4,1.3,5.7,3.1"/>
	<path class="st9" d="M212.5,256.1c0.2-1.5,1.6-2.7,3.1-2.5s2.6,1.5,2.5,3s-1.6,2.7-3.1,2.5C213.4,259,212.3,257.7,212.5,256.1z"/>
	<path class="st9" d="M230.1,247.1c0.2-1.5,1.6-2.7,3.1-2.5s2.6,1.5,2.5,3c-0.2,1.5-1.6,2.7-3.1,2.5
		C231.1,250,230,248.6,230.1,247.1z"/>
	<path class="st12" d="M225.1,263.1c3.5-0.4,6.8,3.1,7.4,7.8c0.6,4.7-1.7,8.8-5.1,9.2s-6.8-3.1-7.4-7.8
		C219.4,267.6,221.7,263.5,225.1,263.1z"/>
	<polygon class="st18" points="247.1,298.7 257,338.6 221.1,346.2 211.2,306.6 196.5,316.2 190.1,307.8 208.2,295.9 244.1,288.1 
		258.5,278.6 264.9,287 	"/>
	
		<linearGradient id="SVGID_26_" gradientUnits="userSpaceOnUse" x1="241.9257" y1="256.0797" x2="251.1789" y2="246.8265" gradientTransform="matrix(0.9946 0.1035 -0.1035 0.9946 40.8358 -4.9995)">
		<stop  offset="0" style="stop-color:#FFFFFF"/>
		<stop  offset="8.510865e-002" style="stop-color:#FFEDD8"/>
		<stop  offset="0.2082" style="stop-color:#FFD5A7"/>
		<stop  offset="0.3345" style="stop-color:#FFC17D"/>
		<stop  offset="0.462" style="stop-color:#FFB05B"/>
		<stop  offset="0.591" style="stop-color:#FFA340"/>
		<stop  offset="0.7222" style="stop-color:#FF9A2D"/>
		<stop  offset="0.8568" style="stop-color:#FF9522"/>
		<stop  offset="1" style="stop-color:#FF931E"/>
	</linearGradient>
	<polygon class="st34" points="259.4,279.8 262.8,276.9 252.4,258.4 257.4,256.9 271.9,276.1 264,285.8 	"/>
	<g>
		<path d="M204.2,232c0-0.4-0.1-0.7-0.2-1c-0.1-0.4-0.2-0.7-0.3-1c-0.2-0.7-0.6-1.3-1-1.8c-0.5-0.6-1.1-1-1.7-1.3
			c-0.7-0.3-1.4-0.5-2.2-0.4l0,0l0.4,0.1l-0.4-0.1h-0.1h0.1c1.5-0.3,3.2,0.3,4.3,1.4c0.6,0.6,1,1.2,1.4,1.9c0.2,0.4,0.3,0.7,0.4,1
			c0.1,0.4,0.2,0.7,0.3,1.1L204.2,232z"/>
	</g>
	<g>
		<path d="M201.4,221.2C201.4,221.2,201.3,221.3,201.4,221.2L201.4,221.2C201.4,221.1,201.4,221.1,201.4,221.2L201.4,221.2
			c0.1,0.1,0.2,0.2,0.3,0.3l0.3,0.3c0.2,0.2,0.4,0.4,0.6,0.6c0.2,0.2,0.4,0.4,0.5,0.7c0.7,0.8,1.2,1.7,1.7,2.6
			c0.5,0.9,0.9,1.8,1.3,2.7c0.4,0.9,0.9,1.8,1.1,2.9l-0.5,0.1c-0.2-1.7,0.1-3.3,0.7-5c0.6-1.6,1.4-3.2,2.6-4.4
			c-1.1,1.3-1.9,2.8-2.4,4.5c-0.5,1.6-0.6,3.3-0.4,4.8l-0.5,0.1c-0.2-0.9-0.7-1.8-1.2-2.7s-0.9-1.8-1.4-2.6s-1.1-1.7-1.8-2.4
			c-0.2-0.2-0.3-0.4-0.5-0.6s-0.3-0.4-0.5-0.6l-0.3-0.3c-0.1-0.1-0.2-0.2-0.3-0.4s-0.2-0.3-0.2-0.6c0-0.1,0-0.3,0.1-0.4
			c0-0.1,0.1-0.2,0.2-0.2c0.1-0.1,0.1-0.1,0.1-0.1L201.4,221.2z"/>
	</g>
	<g>
		<path d="M208.3,229.8c0,0,0-0.1,0.1-0.2c0-0.1,0.1-0.2,0.2-0.3c0.1-0.1,0.2-0.2,0.3-0.3c0.4-0.5,1.1-0.7,1.8-1s1.3-0.6,1.7-0.8
			c0.2-0.2,0.4-0.3,0.5-0.4s0.2-0.2,0.2-0.2s0,0.1-0.1,0.2s-0.2,0.3-0.4,0.5c-0.4,0.4-1,0.8-1.6,1.2s-1.1,0.7-1.4,1.1
			c-0.1,0.1-0.1,0.2-0.1,0.2c0,0.1-0.1,0.1-0.1,0.2c0,0.2-0.1,0.2-0.1,0.2L208.3,229.8z"/>
	</g>
	
		<radialGradient id="SVGID_27_" cx="461.5354" cy="-66.1273" r="11.1435" gradientTransform="matrix(-0.5729 0.7615 0.5434 0.3529 463.0297 -35.0714)" gradientUnits="userSpaceOnUse">
		<stop  offset="0" style="stop-color:#FFFFFF"/>
		<stop  offset="8.510865e-002" style="stop-color:#FFEDD8"/>
		<stop  offset="0.2082" style="stop-color:#FFD5A7"/>
		<stop  offset="0.3345" style="stop-color:#FFC17D"/>
		<stop  offset="0.462" style="stop-color:#FFB05B"/>
		<stop  offset="0.591" style="stop-color:#FFA340"/>
		<stop  offset="0.7222" style="stop-color:#FF9A2D"/>
		<stop  offset="0.8568" style="stop-color:#FF9522"/>
		<stop  offset="1" style="stop-color:#FF931E"/>
	</radialGradient>
	<path class="st35" d="M167.6,301.9l5.7-7.6c0.5-0.7,0.3-1.6-0.4-2l-12.9-8.4c-0.7-0.5-1.7-0.3-2.2,0.4l-5.7,7.6
		c-0.5,0.7-0.3,1.6,0.4,2l12.9,8.4C166.1,302.7,167.1,302.6,167.6,301.9z"/>
	
		<linearGradient id="SVGID_28_" gradientUnits="userSpaceOnUse" x1="333.3835" y1="152.1508" x2="344.0435" y2="141.4907" gradientTransform="matrix(-0.1797 0.9837 0.9837 0.1797 98.3102 -52.4585)">
		<stop  offset="0" style="stop-color:#FFFFFF"/>
		<stop  offset="8.510865e-002" style="stop-color:#FFEDD8"/>
		<stop  offset="0.2082" style="stop-color:#FFD5A7"/>
		<stop  offset="0.3345" style="stop-color:#FFC17D"/>
		<stop  offset="0.462" style="stop-color:#FFB05B"/>
		<stop  offset="0.591" style="stop-color:#FFA340"/>
		<stop  offset="0.7222" style="stop-color:#FF9A2D"/>
		<stop  offset="0.8568" style="stop-color:#FF9522"/>
		<stop  offset="1" style="stop-color:#FF931E"/>
	</linearGradient>
	<polygon class="st36" points="191.4,309 187.5,311.3 171.3,296.7 168.4,300.8 184.1,319.1 196.4,314.8 	"/>
</g>
<g>
	
		<radialGradient id="SVGID_29_" cx="-202.1259" cy="263.9828" r="13.1838" gradientTransform="matrix(-7.177142e-003 0.9291 1.0877 7.252977e-003 198.5689 566.9626)" gradientUnits="userSpaceOnUse">
		<stop  offset="0" style="stop-color:#FFFFFF"/>
		<stop  offset="8.510865e-002" style="stop-color:#FFEDD8"/>
		<stop  offset="0.2082" style="stop-color:#FFD5A7"/>
		<stop  offset="0.3345" style="stop-color:#FFC17D"/>
		<stop  offset="0.462" style="stop-color:#FFB05B"/>
		<stop  offset="0.591" style="stop-color:#FFA340"/>
		<stop  offset="0.7222" style="stop-color:#FF9A2D"/>
		<stop  offset="0.8568" style="stop-color:#FF9522"/>
		<stop  offset="1" style="stop-color:#FF931E"/>
	</radialGradient>
	<path class="st37" d="M475.9,381.7l-0.1,7c0,0.8,0.7,1.7,1.6,1.7l21.2,0.2c0.9,0,1.6-0.7,1.6-1.4l0.1-6.6c0-0.8-0.7-1.5-1.6-1.5
		l-13-0.1l-3.8-11.9l-7.2,1.3l3.1,9.2h-0.3C476.7,379.6,475.9,380.9,475.9,381.7z"/>
	
		<radialGradient id="SVGID_30_" cx="1359.2656" cy="443.9906" r="13.1864" gradientTransform="matrix(-0.1571 0.9175 -1.0742 -0.1587 1136.3884 -798.7566)" gradientUnits="userSpaceOnUse">
		<stop  offset="0" style="stop-color:#FFFFFF"/>
		<stop  offset="8.510865e-002" style="stop-color:#FFEDD8"/>
		<stop  offset="0.2082" style="stop-color:#FFD5A7"/>
		<stop  offset="0.3345" style="stop-color:#FFC17D"/>
		<stop  offset="0.462" style="stop-color:#FFB05B"/>
		<stop  offset="0.591" style="stop-color:#FFA340"/>
		<stop  offset="0.7222" style="stop-color:#FF9A2D"/>
		<stop  offset="0.8568" style="stop-color:#FF9522"/>
		<stop  offset="1" style="stop-color:#FF931E"/>
	</radialGradient>
	<path class="st38" d="M457,380.8l-1.1,6.6c-0.1,0.8-1,1.4-1.8,1.2l-20.9-3.1c-0.9-0.1-1.5-0.9-1.3-1.7l1.1-6.6
		c0.1-0.8,1-1.4,1.8-1.2l12.9,1.9l5.8-11.1l6.7,3.1l-4.8,9.3h0.3C456.5,379.2,457.1,380,457,380.8z"/>
	<polygon class="st39" points="449,366.2 460.4,372.1 471.1,354.6 474.1,376.5 487.1,375 483.3,346.9 475.3,347.8 475.5,347.5 
		464.1,341.5 	"/>
	
		<radialGradient id="SVGID_31_" cx="-81.9445" cy="-157.7649" r="8.7072" gradientTransform="matrix(-0.9358 -0.3276 -0.2337 0.5763 345.087 340.154)" gradientUnits="userSpaceOnUse">
		<stop  offset="0" style="stop-color:#FFFFFF"/>
		<stop  offset="8.510865e-002" style="stop-color:#FFEDD8"/>
		<stop  offset="0.2082" style="stop-color:#FFD5A7"/>
		<stop  offset="0.3345" style="stop-color:#FFC17D"/>
		<stop  offset="0.462" style="stop-color:#FFB05B"/>
		<stop  offset="0.591" style="stop-color:#FFA340"/>
		<stop  offset="0.7222" style="stop-color:#FF9A2D"/>
		<stop  offset="0.8568" style="stop-color:#FF9522"/>
		<stop  offset="1" style="stop-color:#FF931E"/>
	</radialGradient>
	<path class="st40" d="M452.7,281.4l6.7,2.3c0.8,0.3,1.7-0.1,2.1-0.8l4.1-10.1c0.3-0.7-0.1-1.6-0.9-2l-6.7-2.3
		c-0.8-0.3-1.7,0.1-2.1,0.8l-4.1,10.1C451.5,280.2,451.9,281.1,452.7,281.4z"/>
	
		<radialGradient id="SVGID_32_" cx="114.2335" cy="31.4077" r="5.5952" gradientTransform="matrix(-1.3427 -0.5417 -0.442 0.9455 631.5333 302.5224)" gradientUnits="userSpaceOnUse">
		<stop  offset="0" style="stop-color:#FFFFFF"/>
		<stop  offset="8.510865e-002" style="stop-color:#FFEDD8"/>
		<stop  offset="0.2082" style="stop-color:#FFD5A7"/>
		<stop  offset="0.3345" style="stop-color:#FFC17D"/>
		<stop  offset="0.462" style="stop-color:#FFB05B"/>
		<stop  offset="0.591" style="stop-color:#FFA340"/>
		<stop  offset="0.7222" style="stop-color:#FF9A2D"/>
		<stop  offset="0.8568" style="stop-color:#FF9522"/>
		<stop  offset="1" style="stop-color:#FF931E"/>
	</radialGradient>
	<path class="st41" d="M460.3,268.7c-1.8,3.8-1.4,7.6,0.8,8.5c2.2,0.9,5.5-1.5,7.3-5.3s1.4-7.6-0.8-8.5
		C465.3,262.5,462.1,264.8,460.3,268.7z"/>
	
		<radialGradient id="SVGID_33_" cx="-207.4441" cy="345.7999" r="24.7393" gradientTransform="matrix(-0.9924 0.1143 0.123 0.922 237.8991 -10.6166)" gradientUnits="userSpaceOnUse">
		<stop  offset="0" style="stop-color:#FFFFFF"/>
		<stop  offset="8.510865e-002" style="stop-color:#FFEDD8"/>
		<stop  offset="0.2082" style="stop-color:#FFD5A7"/>
		<stop  offset="0.3345" style="stop-color:#FFC17D"/>
		<stop  offset="0.462" style="stop-color:#FFB05B"/>
		<stop  offset="0.591" style="stop-color:#FFA340"/>
		<stop  offset="0.7222" style="stop-color:#FF9A2D"/>
		<stop  offset="0.8568" style="stop-color:#FF9522"/>
		<stop  offset="1" style="stop-color:#FF931E"/>
	</radialGradient>
	<ellipse class="st42" cx="486.3" cy="284.5" rx="24.7" ry="22.9"/>
	<path class="st9" d="M469.4,274c0.4-4.4,4.6-7.8,9.4-7.4s8.3,4.3,8,8.7c-0.4,4.4-4.6,7.8-9.4,7.4C472.6,282.3,469,278.4,469.4,274z
		"/>
	<path d="M475.1,269.6c3.3-0.4,6.4,1.5,6.7,4.3c0.4,2.7-2,5.3-5.4,5.7s-6.4-1.5-6.7-4.3C469.3,272.6,471.7,270,475.1,269.6z"/>
	
		<radialGradient id="SVGID_34_" cx="77.7116" cy="-2.5934" r="5.5897" gradientTransform="matrix(-1.2157 -0.6604 -0.569 0.9041 604.3864 346.9522)" gradientUnits="userSpaceOnUse">
		<stop  offset="0" style="stop-color:#FFFFFF"/>
		<stop  offset="8.510865e-002" style="stop-color:#FFEDD8"/>
		<stop  offset="0.2082" style="stop-color:#FFD5A7"/>
		<stop  offset="0.3345" style="stop-color:#FFC17D"/>
		<stop  offset="0.462" style="stop-color:#FFB05B"/>
		<stop  offset="0.591" style="stop-color:#FFA340"/>
		<stop  offset="0.7222" style="stop-color:#FF9A2D"/>
		<stop  offset="0.8568" style="stop-color:#FF9522"/>
		<stop  offset="1" style="stop-color:#FF931E"/>
	</radialGradient>
	<path class="st43" d="M507.8,291.3c-2.3,3.6-2.5,7.5-0.5,8.6s5.5-1,7.8-4.6s2.5-7.5,0.5-8.6S510.1,287.7,507.8,291.3z"/>
	<path class="st9" d="M483.4,280.8c0.4-4.4,4.6-7.8,9.4-7.4s8.3,4.3,8,8.7s-4.6,7.8-9.4,7.4C486.6,289.2,483,285.3,483.4,280.8z"/>
	<path d="M489.2,276.5c3.3-0.4,6.4,1.5,6.7,4.3s-2,5.3-5.4,5.7s-6.4-1.5-6.7-4.3S485.8,276.9,489.2,276.5z"/>
	<path class="st11" d="M502.9,271.8c-0.8-1.3-1.7-2.5-2.7-3.7c-0.5-0.6-1-1.2-1.7-1.5c-1.5-0.7-3.5,0.1-4,1.6"/>
	<path class="st11" d="M487.5,265.5c-0.2-1.3-0.6-2.7-1.2-3.9c-0.2-0.3-0.4-0.7-0.7-0.8c-0.4-0.3-0.9-0.3-1.4-0.3
		c-1.8,0.1-3.5,1.1-4.4,2.5"/>
	<path class="st9" d="M486.8,279.1c1.2-0.1,2.3,0.7,2.5,1.9c0.2,1.2-0.7,2.2-1.9,2.4c-1.2,0.1-2.3-0.7-2.5-1.9
		C484.7,280.3,485.6,279.2,486.8,279.1z"/>
	<path class="st9" d="M472.7,272.2c1.2-0.1,2.3,0.7,2.5,1.9c0.2,1.2-0.7,2.2-1.9,2.4c-1.2,0.1-2.3-0.7-2.5-1.9
		C470.6,273.4,471.5,272.4,472.7,272.2z"/>
	<path class="st12" d="M473.7,292.7c0.4-3.7,2.9-6.4,5.6-6.2c2.7,0.3,4.5,3.5,4.1,7.1c-0.4,3.7-2.9,6.4-5.6,6.2
		S473.3,296.4,473.7,292.7z"/>
	
		<linearGradient id="SVGID_35_" gradientUnits="userSpaceOnUse" x1="-178.4091" y1="335.7804" x2="-171.1497" y2="328.5209" gradientTransform="matrix(-0.9924 0.123 0.123 0.9924 237.8991 -15.2439)">
		<stop  offset="0" style="stop-color:#FFFFFF"/>
		<stop  offset="8.510865e-002" style="stop-color:#FFEDD8"/>
		<stop  offset="0.2082" style="stop-color:#FFD5A7"/>
		<stop  offset="0.3345" style="stop-color:#FFC17D"/>
		<stop  offset="0.462" style="stop-color:#FFB05B"/>
		<stop  offset="0.591" style="stop-color:#FFA340"/>
		<stop  offset="0.7222" style="stop-color:#FF9A2D"/>
		<stop  offset="0.8568" style="stop-color:#FF9522"/>
		<stop  offset="1" style="stop-color:#FF931E"/>
	</linearGradient>
	<polygon class="st44" points="452.9,300.1 450.2,297.8 458,283.2 454.1,282.1 443.1,297.4 449.4,304.9 	"/>
	<g>
		<path d="M494.4,261.8c0.1-0.3,0.1-0.6,0.2-0.8c0.1-0.3,0.2-0.6,0.3-0.8c0.3-0.6,0.6-1,1.1-1.5c0.9-0.8,2.2-1.3,3.4-1.1h0.1h-0.1
			l-0.3,0.1l0.3-0.1l0,0c-0.6,0-1.2,0.1-1.7,0.4s-1,0.7-1.3,1c-0.3,0.5-0.6,0.9-0.8,1.4c-0.1,0.3-0.1,0.6-0.2,0.7
			c0,0.3-0.1,0.5-0.1,0.8L494.4,261.8z"/>
	</g>
	<g>
		<path d="M497.9,252.7c0,0,0,0,0.1,0.1s0.1,0.1,0.2,0.2s0.1,0.3,0.1,0.4c0,0.2-0.1,0.4-0.2,0.5s-0.2,0.2-0.3,0.3l-0.2,0.2
			c-0.2,0.1-0.3,0.3-0.4,0.4c-0.1,0.2-0.3,0.3-0.4,0.5c-0.5,0.6-0.9,1.2-1.3,1.9c-0.4,0.7-0.8,1.4-1.1,2c-0.3,0.7-0.7,1.4-0.9,2.1
			L493,261c0.2-1.3,0-2.6-0.4-3.8c-0.4-1.2-1-2.4-1.9-3.4c1,0.9,1.6,2.1,2.1,3.3c0.5,1.2,0.7,2.6,0.6,3.9l-0.5-0.1
			c0.1-0.8,0.5-1.6,0.8-2.2c0.3-0.7,0.6-1.5,1-2.1c0.4-0.7,0.8-1.4,1.3-2c0.1-0.2,0.3-0.3,0.4-0.5s0.3-0.4,0.4-0.5l0.2-0.2
			c0,0,0.1-0.1,0.1-0.2s0-0.1,0-0.1s0,0,0,0.1c0,0,0,0,0.1,0.1s0,0,0,0L497.9,252.7z"/>
	</g>
	<g>
		<path d="M491.2,260.5c0,0,0-0.1-0.1-0.2c0-0.1,0-0.1-0.1-0.2c0,0,0-0.1-0.1-0.2c-0.2-0.3-0.6-0.6-1-0.9c-0.5-0.3-0.9-0.7-1.2-0.9
			c-0.3-0.3-0.4-0.6-0.4-0.6s0.2,0.2,0.5,0.5c0.3,0.2,0.8,0.5,1.4,0.7c0.5,0.2,1.1,0.5,1.4,0.7c0.1,0.1,0.2,0.2,0.2,0.3
			c0.1,0.1,0.1,0.2,0.2,0.2c0.1,0.1,0.1,0.2,0.1,0.2L491.2,260.5z"/>
	</g>
	
		<radialGradient id="SVGID_36_" cx="395.5973" cy="-19.429" r="8.7207" gradientTransform="matrix(0.9936 -0.1048 7.475451e-002 0.612 118.303 339.9361)" gradientUnits="userSpaceOnUse">
		<stop  offset="0" style="stop-color:#FFFFFF"/>
		<stop  offset="8.510865e-002" style="stop-color:#FFEDD8"/>
		<stop  offset="0.2082" style="stop-color:#FFD5A7"/>
		<stop  offset="0.3345" style="stop-color:#FFC17D"/>
		<stop  offset="0.462" style="stop-color:#FFB05B"/>
		<stop  offset="0.591" style="stop-color:#FFA340"/>
		<stop  offset="0.7222" style="stop-color:#FF9A2D"/>
		<stop  offset="0.8568" style="stop-color:#FF9522"/>
		<stop  offset="1" style="stop-color:#FF931E"/>
	</radialGradient>
	<path class="st45" d="M514.4,293.1l-7.1,0.7c-0.9,0.1-1.7-0.5-1.8-1.3l-1.3-10.8c-0.1-0.8,0.5-1.6,1.4-1.7l7.1-0.7
		c0.9-0.1,1.7,0.5,1.8,1.3l1.3,10.8C515.9,292.2,515.2,293,514.4,293.1z"/>
	
		<linearGradient id="SVGID_37_" gradientUnits="userSpaceOnUse" x1="282.1523" y1="195.3477" x2="289.6691" y2="187.8308" gradientTransform="matrix(0.9321 0.3622 -0.3622 0.9321 314.6544 22.2607)">
		<stop  offset="0" style="stop-color:#FFFFFF"/>
		<stop  offset="8.510865e-002" style="stop-color:#FFEDD8"/>
		<stop  offset="0.2082" style="stop-color:#FFD5A7"/>
		<stop  offset="0.3345" style="stop-color:#FFC17D"/>
		<stop  offset="0.462" style="stop-color:#FFB05B"/>
		<stop  offset="0.591" style="stop-color:#FFA340"/>
		<stop  offset="0.7222" style="stop-color:#FF9A2D"/>
		<stop  offset="0.8568" style="stop-color:#FF9522"/>
		<stop  offset="1" style="stop-color:#FF931E"/>
	</linearGradient>
	<polygon class="st46" points="509.2,311.2 512.5,309.6 508.7,293.6 512.8,293.5 519.5,310.7 511.4,316.7 	"/>
	<polygon class="st47" points="511.5,317.1 494.8,319.8 487.2,351.2 472,347.9 471.9,348.4 454.4,344.9 461.5,313.5 447.4,304.6 
		452.3,298 463.7,305.2 478.5,308.1 478.6,307.7 496.4,311.4 510.1,309.3 	"/>
</g>
<g>
	<g>
		<path class="st48" d="M343.7,138.6c2.1-3.9,4.9-7.2,9-8.9c8.4-3.4,20.7,0.6,32.1,5.9c4,1.9,7.9,3.9,11.8,5
			c3.9,1.2,7.8,1.5,10.4-0.2c3.8-2.4,3.8-8.5,2-14.5c-0.8-2.7-2-5.8-1.2-7.7c1.1-2.8,5.3-2.2,9-0.7s7.5,3.7,10.9,3.8
			c0.7,0,1.3-0.1,2.1,0.1c1.7,0.4,3.6,2,4.4,3.8s0.4,3.5-1,3.9c-1.2,0.4-2.7-0.2-4.2-0.7c-3-1-6-2.1-9-3.2c-1.5-0.6-3.3-1-4.1-0.3
			c-1,1-0.1,3.3,0.6,5.1c1.6,4,2.4,8,1.9,11.2c-0.9,5.9-6.1,8.8-12.3,8.9c-6.2,0.1-13.2-2.2-20.1-4.9c-3.3-1.3-6.7-2.7-9.9-3.3
			c-3-0.6-5.8-0.4-8.4,0.1c-2.8,0.5-5.6,1.3-7.6,2.9c-4.4,3.4-5.7,10.6-11.9,11.4c-0.8-5.1-2-10.3-3.5-15.5c-0.2-0.7-0.8-1.9-1.5-2
			c1.5-1.9,2.9-3.7,4.4-5.7"/>
		<g>
			<path d="M346.7,136.1c0.5,1,1,2.1,1.4,3.3c0.4,1.1,0.8,2.2,1.1,3.3c0.6,2.2,1.1,4.6,1.2,6.8h-0.3l0.3-2.3v2.3h-0.3
				c-0.4-2.2-1.1-4.4-2-6.5c-0.4-1-0.9-2-1.5-3.1c-0.5-1-1.1-2-1.7-3L346.7,136.1z"/>
		</g>
		<g>
			<path d="M349.5,132.1c0,0,0.5,0.8,1.1,2c0.6,1.3,1.4,3,2,4.7c0.6,1.8,1.1,3.5,1.3,4.9c0.3,1.4,0.3,2.2,0.3,2.2s-0.2-0.9-0.6-2.2
				s-1.1-3-1.9-4.6s-1.8-3.2-2.6-4.4c-0.8-1.1-1.3-1.9-1.3-1.9L349.5,132.1z"/>
		</g>
		<g>
			<path d="M353.4,129.5c0.5,1,1.1,2.1,1.5,3.2c0.5,1.1,0.9,2.1,1.3,3.3c0.8,2.2,1.3,4.5,1.7,6.8h-0.3v-2l0.3,2h-0.3
				c-0.6-2.2-1.4-4.4-2.5-6.4c-0.5-1-1.1-2-1.6-3.1c-0.6-1-1.2-2-1.9-2.9L353.4,129.5z"/>
		</g>
		<g>
			<path d="M357.9,127.9c0,0,0.3,0.7,0.7,1.7c0.4,1,0.9,2.4,1.3,3.8s0.7,2.8,0.9,3.8c0.2,1,0.3,1.8,0.3,1.8s-0.2-0.7-0.6-1.7
				s-0.9-2.3-1.6-3.6c-0.6-1.3-1.4-2.5-1.9-3.4c-0.6-0.9-1-1.5-1-1.5L357.9,127.9z"/>
		</g>
		<g>
			<path d="M362.4,128.3c0.2,0.7,0.5,1.4,0.7,2.1c0.2,0.7,0.4,1.4,0.5,2.1c0.3,1.5,0.5,2.9,0.6,4.4H364l0.5-1l-0.2,1.1l-0.1,0.5
				l-0.1-0.5c-0.4-1.4-0.9-2.8-1.4-4.1c-0.3-0.7-0.6-1.3-0.9-2s-0.7-1.2-1.1-1.9L362.4,128.3z"/>
		</g>
		<g>
			<path d="M369.4,129.4c0.1,0.7,0.3,1.4,0.3,2c0.1,0.7,0.1,1.4,0.1,2.1c0,1.4-0.2,2.8-0.5,4.1H369l0.3-1.2l-0.1,1.3h-0.3
				c0.1-1.3,0-2.7-0.3-4c-0.1-0.7-0.3-1.3-0.5-2s-0.4-1.2-0.7-1.9L369.4,129.4z"/>
		</g>
		<g>
			<path d="M374.9,131c0,0,0,0.1,0,0.2c0,0.1,0,0.4,0,0.7c-0.1,0.6-0.2,1.3-0.5,2s-0.7,1.3-1.1,1.7s-0.7,0.6-0.7,0.6
				s0.2-0.3,0.4-0.7c0.2-0.5,0.4-1,0.4-1.7s-0.1-1.2-0.2-1.7c-0.1-0.2-0.1-0.4-0.2-0.6c0-0.1-0.1-0.2-0.1-0.2L374.9,131z"/>
		</g>
		<g>
			<path d="M380.6,133.3c0,0,0,0.1-0.1,0.3c0,0.2-0.1,0.5-0.2,0.7c-0.2,0.6-0.5,1.3-0.9,2s-0.9,1.3-1.4,1.6
				c-0.4,0.4-0.8,0.6-0.8,0.6s0.3-0.3,0.5-0.7c0.3-0.5,0.6-1.1,0.7-1.8s0.2-1.3,0.1-1.9c0-0.3,0-0.5-0.1-0.6c0-0.2,0-0.3,0-0.3
				L380.6,133.3z"/>
		</g>
		<g>
			<path d="M385.8,135.5c0,0.3-0.1,0.6-0.1,0.8c-0.1,0.3-0.1,0.6-0.2,0.8c-0.2,0.6-0.4,1.1-0.6,1.6c-0.5,1-1.4,2-2.4,2.5l-0.4,0.2
				l0.1-0.4c0.1-0.5,0.4-0.9,0.7-1.3c-0.3,0.5-0.4,0.9-0.4,1.4l-0.3-0.2c0.8-0.7,1.3-1.7,1.5-2.6c0.1-0.5,0.2-0.9,0.2-1.4
				c0-0.3,0-0.5,0-0.7s-0.1-0.5-0.1-0.7L385.8,135.5z"/>
		</g>
		<g>
			<path d="M394.4,139.4c0,0,0,0.1,0,0.2c0,0.1-0.1,0.4-0.1,0.7c-0.1,0.6-0.3,1.2-0.7,1.9c-0.4,0.7-0.9,1.1-1.4,1.4
				c-0.5,0.3-0.8,0.4-0.8,0.4s0.3-0.2,0.6-0.6c0.3-0.4,0.6-0.9,0.7-1.5s0.1-1.2,0-1.6c0-0.2-0.1-0.4-0.1-0.5c0-0.2-0.1-0.2-0.1-0.2
				L394.4,139.4z"/>
		</g>
		<g>
			<path d="M400.3,141c0,0,0,0.1,0,0.2c0,0.2,0,0.4,0,0.7c0,0.6,0,1.3-0.2,2s-0.5,1.4-0.8,1.9s-0.6,0.7-0.6,0.7s0.2-0.3,0.3-0.7
				c0.1-0.5,0.2-1.1,0.1-1.8s-0.3-1.2-0.5-1.7s-0.3-0.7-0.3-0.7L400.3,141z"/>
		</g>
		<g>
			<path d="M404.6,141.1c0,0,0.1,0.4,0.2,1s0.2,1.5,0.3,2.4c0,0.8,0,1.8-0.1,2.3c-0.1,0.7-0.3,1-0.3,1s0-0.5-0.1-1
				c-0.1-0.7-0.3-1.4-0.5-2.2c-0.3-0.7-0.6-1.5-0.9-2c-0.3-0.6-0.5-0.9-0.5-0.9L404.6,141.1z"/>
		</g>
		<g>
			<path d="M408.4,139.2c0.5,0.6,0.9,1.1,1.4,1.7c0.4,0.6,0.9,1.1,1.3,1.7c0.9,1.1,1.7,2.3,2.4,3.5l-0.2,0.1l-0.7-0.7l0.9,0.7
				l-0.2,0.1c-1-1-2-2-3.1-3c-0.5-0.5-1.1-0.9-1.6-1.4c-0.6-0.5-1.1-0.9-1.7-1.3L408.4,139.2z"/>
		</g>
		<g>
			<path d="M409.8,137.2c0,0,0.3,0.3,0.7,0.6c0.4,0.4,1,0.7,1.6,1.1s1.3,0.7,1.8,0.9s0.9,0.3,0.9,0.3s-0.4,0-1,0s-1.4-0.1-2.2-0.4
				c-0.8-0.2-1.5-0.5-2.1-0.7c-0.6-0.3-0.9-0.4-0.9-0.4L409.8,137.2z"/>
		</g>
		<g>
			<path d="M389.7,137.2c0,0,0,0.1,0,0.2c0,0.1-0.1,0.4-0.1,0.6c-0.1,0.5-0.4,1.1-0.8,1.6c-0.4,0.6-0.9,0.9-1.3,1.1
				s-0.7,0.3-0.7,0.3s0.3-0.2,0.5-0.5c0.3-0.3,0.5-0.7,0.6-1.3c0.1-0.5,0.1-1,0-1.3c0-0.2-0.1-0.3-0.1-0.5c0-0.1,0-0.2,0-0.2
				L389.7,137.2z"/>
		</g>
		<g>
			<path d="M410.5,132.5c0,0,0.3,0.2,0.9,0.6c0.5,0.3,1.2,0.7,2,1c0.7,0.3,1.5,0.5,2.2,0.6c0.6,0,1-0.2,1-0.2s-0.1,0.1-0.2,0.2
				c-0.2,0.1-0.4,0.2-0.7,0.3c-0.6,0.2-1.6,0.2-2.4,0.1c-0.9-0.1-1.8-0.3-2.4-0.5s-1.1-0.3-1.1-0.3L410.5,132.5z"/>
		</g>
		<g>
			<path d="M410,127.6c0,0,0.3,0.2,0.9,0.4c0.5,0.2,1.2,0.5,1.9,0.6c0.7,0.1,1.5,0.2,2,0c0.3-0.1,0.5-0.2,0.6-0.3s0.2-0.2,0.2-0.2
				s-0.1,0.1-0.1,0.2c-0.1,0.1-0.3,0.3-0.5,0.5c-0.5,0.4-1.3,0.6-2.2,0.7c-0.8,0.1-1.7,0.1-2.3,0c-0.6-0.1-1-0.1-1-0.1L410,127.6z"
				/>
		</g>
		<g>
			<path d="M408.1,122c0,0,0.1,0,0.3,0.1c0.2,0.1,0.4,0.1,0.8,0.2c0.6,0.2,1.5,0.4,2.3,0.5c0.9,0.1,1.7,0,2.4-0.2
				c0.3-0.1,0.5-0.3,0.7-0.4c0.1-0.1,0.2-0.2,0.2-0.2s0,0.1-0.2,0.3c-0.1,0.2-0.3,0.4-0.6,0.6c-0.6,0.4-1.5,0.7-2.4,0.8
				c-0.9,0.2-1.9,0.2-2.6,0.2c-0.4,0-0.7,0-0.9,0c-0.2,0-0.3,0-0.3,0L408.1,122z"/>
		</g>
		<g>
			<path d="M409.2,116.8c0,0,0.2,0.2,0.4,0.5c0.3,0.3,0.6,0.7,1,1c0.8,0.7,1.6,1.3,1.6,1.3s-1-0.4-2-0.9c-0.5-0.3-0.9-0.6-1.3-0.8
				c-0.3-0.3-0.5-0.4-0.5-0.4L409.2,116.8z"/>
		</g>
		<g>
			<path d="M415.2,116.7c0.2,0.4,0.3,0.8,0.4,1.2c0.1,0.5,0.2,0.8,0.2,1.3c0.1,0.8,0,1.8-0.2,2.5h-0.1l0.1-0.4v0.4h-0.1
				c0-0.8,0-1.7-0.3-2.4c-0.1-0.4-0.2-0.7-0.4-1.1c-0.2-0.4-0.4-0.7-0.6-1.1L415.2,116.7z"/>
		</g>
		<g>
			<path d="M420.2,118.9c0.1,0.5,0.1,0.9,0.1,1.4s0,0.9-0.1,1.4c-0.2,0.9-0.5,1.8-1,2.6h-0.1l0.2-0.4l-0.1,0.4h-0.1
				c0.3-0.8,0.5-1.7,0.5-2.6c0-0.5,0-0.8-0.1-1.3s-0.2-0.8-0.3-1.2L420.2,118.9z"/>
		</g>
		<g>
			<path d="M426,120.9c0,0.4,0.1,0.8,0.1,1.2c0,0.4-0.1,0.8-0.2,1.2c-0.2,0.7-0.6,1.5-1.1,2.1h-0.1l0.2-0.3l-0.1,0.3h-0.1
				c0.4-0.7,0.6-1.4,0.6-2.1c0-0.4,0-0.7-0.1-1.1s-0.1-0.7-0.3-1L426,120.9z"/>
		</g>
		<g>
			<path d="M430.2,121c0,0.4,0.1,0.8,0.1,1.2c0,0.4-0.1,0.8-0.2,1.2c-0.2,0.7-0.6,1.5-1.1,2.1h-0.1l0.2-0.3l-0.1,0.3h-0.1
				c0.4-0.7,0.6-1.4,0.6-2.1c0-0.4,0-0.7-0.1-1.1s-0.1-0.7-0.3-1L430.2,121z"/>
		</g>
	</g>
	
		<linearGradient id="SVGID_38_" gradientUnits="userSpaceOnUse" x1="419.4088" y1="159.5397" x2="419.4088" y2="45.9437" gradientTransform="matrix(-0.9953 -9.701612e-002 -9.701612e-002 0.9953 716.6146 64.8926)">
		<stop  offset="4.926108e-003" style="stop-color:#FFFFFF"/>
		<stop  offset="7.176602e-002" style="stop-color:#F7E2E2"/>
		<stop  offset="0.1967" style="stop-color:#E8B0B3"/>
		<stop  offset="0.3249" style="stop-color:#DC868A"/>
		<stop  offset="0.4543" style="stop-color:#D26468"/>
		<stop  offset="0.5851" style="stop-color:#CB494E"/>
		<stop  offset="0.7182" style="stop-color:#C5363C"/>
		<stop  offset="0.8547" style="stop-color:#C22B31"/>
		<stop  offset="1" style="stop-color:#C1272D"/>
	</linearGradient>
	<polygon class="st49" points="216.2,166.1 352.7,178.4 361.5,94.2 225,81.8 	"/>
	<polygon class="st50" points="214.6,84.5 371.2,98.4 298.6,36.8 	"/>
	<polygon class="st51" points="335.1,178 300.9,174.9 308.1,106.4 342.3,109.5 	"/>
	<g>
		<polygon class="st52" points="281.5,145.2 236.9,141.2 241.4,98.2 286.1,102.2 		"/>
		
			<radialGradient id="SVGID_39_" cx="-6.4329" cy="-410.0468" r="3.131" gradientTransform="matrix(0.9656 -0.2416 0.1724 0.5947 338.0053 367.749)" gradientUnits="userSpaceOnUse">
			<stop  offset="0" style="stop-color:#FFFFFF"/>
			<stop  offset="8.510865e-002" style="stop-color:#FFEDD8"/>
			<stop  offset="0.2082" style="stop-color:#FFD5A7"/>
			<stop  offset="0.3345" style="stop-color:#FFC17D"/>
			<stop  offset="0.462" style="stop-color:#FFB05B"/>
			<stop  offset="0.591" style="stop-color:#FFA340"/>
			<stop  offset="0.7222" style="stop-color:#FF9A2D"/>
			<stop  offset="0.8568" style="stop-color:#FF9522"/>
			<stop  offset="1" style="stop-color:#FF931E"/>
		</radialGradient>
		<path class="st53" d="M262.7,127.6l-1.7,0.5c-0.5,0.1-1-0.2-1.2-0.7l-0.9-3.1c-0.1-0.5,0.2-0.9,0.7-1.1l1.7-0.5
			c0.5-0.1,1,0.2,1.2,0.7l0.9,3.1C263.5,127,263.2,127.5,262.7,127.6z"/>
		
			<radialGradient id="SVGID_40_" cx="172.5781" cy="-111.2033" r="2.0103" gradientTransform="matrix(1.393 -0.4182 0.3412 0.9809 56.8403 304.4773)" gradientUnits="userSpaceOnUse">
			<stop  offset="0" style="stop-color:#FFFFFF"/>
			<stop  offset="8.510865e-002" style="stop-color:#FFEDD8"/>
			<stop  offset="0.2082" style="stop-color:#FFD5A7"/>
			<stop  offset="0.3345" style="stop-color:#FFC17D"/>
			<stop  offset="0.462" style="stop-color:#FFB05B"/>
			<stop  offset="0.591" style="stop-color:#FFA340"/>
			<stop  offset="0.7222" style="stop-color:#FF9A2D"/>
			<stop  offset="0.8568" style="stop-color:#FF9522"/>
			<stop  offset="1" style="stop-color:#FF931E"/>
		</radialGradient>
		<path class="st54" d="M260.8,122.8c0.5,1.4,0.2,2.8-0.6,3.1c-0.8,0.3-1.9-0.7-2.4-2.1s-0.2-2.8,0.6-3.1
			C259.3,120.4,260.3,121.4,260.8,122.8z"/>
		
			<radialGradient id="SVGID_41_" cx="-201.4592" cy="154.6808" r="8.865" gradientTransform="matrix(0.9758 0.2032 -0.2187 0.9066 481.3167 28.2856)" gradientUnits="userSpaceOnUse">
			<stop  offset="0" style="stop-color:#FFFFFF"/>
			<stop  offset="8.510865e-002" style="stop-color:#FFEDD8"/>
			<stop  offset="0.2082" style="stop-color:#FFD5A7"/>
			<stop  offset="0.3345" style="stop-color:#FFC17D"/>
			<stop  offset="0.462" style="stop-color:#FFB05B"/>
			<stop  offset="0.591" style="stop-color:#FFA340"/>
			<stop  offset="0.7222" style="stop-color:#FF9A2D"/>
			<stop  offset="0.8568" style="stop-color:#FF9522"/>
			<stop  offset="1" style="stop-color:#FF931E"/>
		</radialGradient>
		<ellipse class="st55" cx="250.9" cy="127.6" rx="8.9" ry="8.3"/>
		<path class="st56" d="M251.1,124.3c0-1.6,1.4-2.9,3.1-2.8c1.7,0,3.1,1.3,3.1,2.9s-1.4,2.9-3.1,2.8
			C252.5,127.2,251.1,125.9,251.1,124.3z"/>
		<path d="M252.9,123.9c0.2-1,1.4-1.5,2.6-1.3s2,1.2,1.7,2.2s-1.4,1.5-2.6,1.3C253.4,125.8,252.6,124.8,252.9,123.9z"/>
		
			<radialGradient id="SVGID_42_" cx="175.5061" cy="-131.5569" r="2.0089" gradientTransform="matrix(1.2789 -0.5477 0.4719 0.9511 79.2178 351.1506)" gradientUnits="userSpaceOnUse">
			<stop  offset="0" style="stop-color:#FFFFFF"/>
			<stop  offset="8.510865e-002" style="stop-color:#FFEDD8"/>
			<stop  offset="0.2082" style="stop-color:#FFD5A7"/>
			<stop  offset="0.3345" style="stop-color:#FFC17D"/>
			<stop  offset="0.462" style="stop-color:#FFB05B"/>
			<stop  offset="0.591" style="stop-color:#FFA340"/>
			<stop  offset="0.7222" style="stop-color:#FF9A2D"/>
			<stop  offset="0.8568" style="stop-color:#FF9522"/>
			<stop  offset="1" style="stop-color:#FF931E"/>
		</radialGradient>
		<path class="st57" d="M243,129.3c0.7,1.4,0.6,2.8-0.1,3.1c-0.8,0.4-1.9-0.6-2.6-2c-0.7-1.4-0.6-2.8,0.1-3.1
			C241.2,127.1,242.3,127.9,243,129.3z"/>
		<path class="st56" d="M245.8,126.2c0-1.6,1.4-2.9,3.1-2.8s3.1,1.3,3.1,2.9s-1.4,2.9-3.1,2.8S245.8,127.8,245.8,126.2z"/>
		<path d="M247.5,125.9c0.2-1,1.4-1.5,2.6-1.3c1.2,0.2,2,1.2,1.7,2.2c-0.2,1-1.4,1.5-2.6,1.3C248.1,127.8,247.3,126.8,247.5,125.9z"
			/>
		<path class="st58" d="M245.5,122.5c0.3-0.5,0.7-0.8,1.1-1.2c0.2-0.2,0.4-0.4,0.7-0.5c0.6-0.2,1.3,0.2,1.4,0.7"/>
		<path class="st58" d="M251.2,120.7c0.1-0.5,0.3-0.9,0.6-1.4c0.1-0.1,0.2-0.2,0.3-0.3c0.1-0.1,0.3-0.1,0.5-0.1
			c0.6,0.1,1.2,0.5,1.5,1"/>
		<path class="st56" d="M249.9,126.2c0.1-0.4,0.5-0.7,1-0.6c0.4,0.1,0.7,0.5,0.6,0.9c-0.1,0.4-0.5,0.7-1,0.6
			C250.1,127,249.8,126.6,249.9,126.2z"/>
		<path class="st56" d="M255.2,124.2c0.1-0.4,0.5-0.7,1-0.6c0.4,0.1,0.7,0.5,0.6,0.9s-0.5,0.7-1,0.6
			C255.4,125,255.1,124.6,255.2,124.2z"/>
		
			<ellipse transform="matrix(1 -7.602101e-003 7.602101e-003 1 -0.9886 1.9295)" class="st59" cx="253.3" cy="131" rx="1.8" ry="2.4"/>
		
			<linearGradient id="SVGID_43_" gradientUnits="userSpaceOnUse" x1="-191.5834" y1="151.6403" x2="-188.9491" y2="149.0061" gradientTransform="matrix(0.9758 0.2187 -0.2187 0.9758 481.3167 26.6405)">
			<stop  offset="0" style="stop-color:#FFFFFF"/>
			<stop  offset="8.510865e-002" style="stop-color:#FFEDD8"/>
			<stop  offset="0.2082" style="stop-color:#FFD5A7"/>
			<stop  offset="0.3345" style="stop-color:#FFC17D"/>
			<stop  offset="0.462" style="stop-color:#FFB05B"/>
			<stop  offset="0.591" style="stop-color:#FFA340"/>
			<stop  offset="0.7222" style="stop-color:#FF9A2D"/>
			<stop  offset="0.8568" style="stop-color:#FF9522"/>
			<stop  offset="1" style="stop-color:#FF931E"/>
		</linearGradient>
		<polygon class="st60" points="262.3,134.2 263.4,133.5 261.1,128 262.5,127.8 265.9,133.6 263.4,136.1 		"/>
		<g>
			<path d="M248.5,119.2c0-0.4,0-0.7-0.2-1.1c-0.2-0.3-0.6-0.6-1-0.7l0,0h0.1h-0.1h-0.1h0.1c0.4-0.1,0.9,0.2,1.2,0.5
				c0.3,0.4,0.5,0.7,0.5,1.2L248.5,119.2z"/>
		</g>
		<g>
			<path d="M248.2,116.2C248.2,116.2,248.3,116.1,248.2,116.2c0.1-0.1,0.1-0.1,0.1-0.1l0,0C248.3,116.1,248.3,116.1,248.2,116.2h0.2
				c0.1,0.1,0.2,0.3,0.3,0.4c0.2,0.3,0.3,0.6,0.4,0.8c0.1,0.3,0.2,0.6,0.3,0.8l0.1,0.2c0,0.1,0,0.2,0,0.2l0.1,0.4h-0.2
				c0.1-0.9,0.5-1.9,1.3-2.5c-0.7,0.7-1.1,1.6-1.1,2.5v0.9l-0.2-0.8l-0.1-0.4c0-0.1,0-0.1-0.1-0.2l-0.1-0.2
				c-0.1-0.3-0.2-0.6-0.3-0.7c-0.1-0.3-0.3-0.5-0.4-0.7c-0.1-0.1-0.2-0.2-0.3-0.3l-0.1-0.1l-0.1-0.1c0-0.1-0.1-0.1-0.1-0.2
				c0,0,0-0.1,0-0.2s0.1-0.1,0.1-0.1L248.2,116.2z"/>
		</g>
		<g>
			<path d="M249.7,118.7C249.7,118.7,249.7,118.6,249.7,118.7c0.1-0.1,0.1-0.2,0.2-0.2c0.2-0.1,0.4-0.2,0.6-0.2
				c0.2-0.1,0.4-0.1,0.5-0.2s0.2-0.1,0.2-0.1s0,0.1-0.2,0.2c-0.1,0.1-0.3,0.2-0.5,0.3s-0.3,0.2-0.4,0.3c0,0.1,0,0.1,0,0.1v0.1
				L249.7,118.7z"/>
		</g>
		
			<radialGradient id="SVGID_44_" cx="372.7837" cy="-312.3972" r="3.131" gradientTransform="matrix(-0.978 -0.1938 -0.1383 0.6023 563.7411 387.9933)" gradientUnits="userSpaceOnUse">
			<stop  offset="0" style="stop-color:#FFFFFF"/>
			<stop  offset="8.510865e-002" style="stop-color:#FFEDD8"/>
			<stop  offset="0.2082" style="stop-color:#FFD5A7"/>
			<stop  offset="0.3345" style="stop-color:#FFC17D"/>
			<stop  offset="0.462" style="stop-color:#FFB05B"/>
			<stop  offset="0.591" style="stop-color:#FFA340"/>
			<stop  offset="0.7222" style="stop-color:#FF9A2D"/>
			<stop  offset="0.8568" style="stop-color:#FF9522"/>
			<stop  offset="1" style="stop-color:#FF931E"/>
		</radialGradient>
		<path class="st61" d="M241,129.8l1.8,0.4c0.5,0.1,1-0.2,1.1-0.7l0.7-3.1c0.1-0.5-0.2-0.9-0.7-1l-1.8-0.4c-0.5-0.1-1,0.2-1.1,0.7
			l-0.7,3.1C240.1,129.2,240.5,129.8,241,129.8z"/>
		
			<linearGradient id="SVGID_45_" gradientUnits="userSpaceOnUse" x1="173.7947" y1="32.4705" x2="176.4547" y2="29.8105" gradientTransform="matrix(-0.9628 0.2701 0.2701 0.9628 401.2849 56.5218)">
			<stop  offset="0" style="stop-color:#FFFFFF"/>
			<stop  offset="8.510865e-002" style="stop-color:#FFEDD8"/>
			<stop  offset="0.2082" style="stop-color:#FFD5A7"/>
			<stop  offset="0.3345" style="stop-color:#FFC17D"/>
			<stop  offset="0.462" style="stop-color:#FFB05B"/>
			<stop  offset="0.591" style="stop-color:#FFA340"/>
			<stop  offset="0.7222" style="stop-color:#FF9A2D"/>
			<stop  offset="0.8568" style="stop-color:#FF9522"/>
			<stop  offset="1" style="stop-color:#FF931E"/>
		</linearGradient>
		<polygon class="st62" points="241.8,136.4 240.6,135.7 242.6,130.1 241.1,129.9 238.1,135.9 240.8,138.2 		"/>
		<polygon class="st63" points="240.7,138.4 246.6,140.2 246.8,142.3 259.2,143.4 258.7,139 264.1,136.2 262.6,133.6 258.2,135.7 
			252.9,136.3 252.8,136.2 246.3,136.8 241.5,135.6 		"/>
		<line class="st64" x1="264" y1="99.8" x2="259.2" y2="142.9"/>
		<line class="st64" x1="284" y1="122.8" x2="239.9" y2="118.9"/>
	</g>
</g>
<path class="st65" d="M386.4,180.5c1.2-0.6,2.4-1.2,3.7-1.8c0.6,1.2,0.6,2.6,0.1,3.7c-1.5,0.1-2.6-1.9-1.7-3s3.2-0.7,3.6,0.7
	c-2.6-1.1-3.6-4.6-1.9-6.8c1.2,0.7,2,1.8,2.1,3.1s-0.7,2.6-2,3.1s-2.9-0.2-3.3-1.4c0.3,1-0.1,2.2-1,2.9c-2.6-0.9-3.7-4.4-2.1-6.5
	c0.5,1.7,0.9,3.4,0.5,5.2c-0.4,1.7-1.9,3.3-3.7,3.4c-2.2-1.9-1.6-5.7,1-7.1c0.7,2.3-0.5,4.9-2.7,6.1c-1.6-0.8-2.5-2.7-2.1-4.3
	c0.3-0.1,0.7-0.1,1-0.2c0.6,1.3-0.3,3.1-1.7,3.5c-1.6-1.1-2-3.3-0.9-4.9c0.6,0.2,1.1,0.4,1.7,0.6c-0.1,2.2-2.3,4.1-4.6,4.2
	c-0.5-0.6-1-1.2-1.5-1.8c0.4-0.7,0.7-1.2,1.1-1.9c0.3,0.5-0.3,1-0.9,1.2c-1.2,0.4-2.5-0.1-3.4-0.8s-1.5-1.9-1.9-3c0.3,0,0.7,0,1,0
	c0.5,1,1,2.1,1.5,3.2c-0.4,0.4-0.9,0.8-1.3,1.2c-2.2-1.4-3.6-3.7-3.8-6.1c1.4,0.5,2.4,1.9,2.3,3.3s-1.4,2.6-2.9,2.8
	c-0.3-0.8,0-1.9,0.7-2.4c1.6,0.8,2.5,2.6,2.3,4.3c-0.3,0.1-0.6,0.2-0.9,0.3c-0.2-0.4-0.4-0.7-0.6-1.1c1.9-1.2,5-0.4,5.9,1.7
	c-0.2,0.3-0.3,0.5-0.5,0.7c0.6-2.1,2.3-4,4.6-4.7c2.3-0.7,4.9-0.4,6.8,0.9c1.9-1.9,4.8-3,7.5-2.7c0.9,0.7,0.9,2.2-0.1,3
	c0.7-1.1,1.5-2.2,2.7-2.9s2.9-0.7,3.9,0.1c0,0.8,0,1.8,0,2.6c-2.1,1.5-5.2,1.7-7.5,0.4c0.1-2.9,2.1-5.7,4.9-6.8
	c0.8,0.2,1.6,0.4,2.3,0.7c-1.1,3-4.6,5.1-8,4.7c-1.8-1.1-3.1-3.1-3.4-5.1c0,1.2-0.6,2.4-1.7,3.1c-0.2-1.9,0.7-3.7,2.4-4.8
	c0.8,0.1,1.5,0.2,2.3,0.3c-0.5,2.2-2.5,4.1-4.9,4.6c-0.7-0.6-1.3-1.2-2-1.8c0.3-0.8,0.6-1.8,0.8-2.6c0.6,0.2,1.3,0.4,1.9,0.7
	c0,1.1,0,2.1,0,3.3c-0.9,0.4-1.7,0.7-2.6,1c-1-0.6-1.7-1.6-1.8-2.7c0.8,2,0.4,4.2-0.9,5.9c-2.2-0.8-3.4-3.4-2.6-5.6
	c0.4,1.6-0.5,3.3-2.1,4c-0.6-0.6-1.2-1-1.8-1.6c0.2-0.6,0.3-1.1,0.5-1.8c-0.7,1.8-3.2,2.8-5.1,2c0.5,0.8,0.5,2-0.1,2.8
	c-0.2-1-0.4-2-0.7-3"/>
<path class="st65" d="M320.2,174.8c1.4-2.3,1.2-5.5-0.6-7.5c-3.1,3.1-2.2,8.8,1.8,10.9c2-2.4,2.3-6.5-0.5-8
	c-1.9-0.9-4.4-0.3-5.6,1.4s-1,4,0.2,5.6c0.5,0.7,1.3,1.3,2.2,1.6c2.9,0.7,5.4-3.1,4-5.6c-1.5-2.5-5.2-3.1-8.1-2.1
	c-2.3,0.8-4.5,2.9-4,5.2c0.9,0.9,2.6,1.2,3.8,0.5c0.1-0.6,0.2-1,0.3-1.6c-2.5-2.6-6.6-3.7-10.1-2.8c-0.1,3,3.4,5.6,6.5,4.8
	c0.6-5.1-3.8-10.2-9.3-11c-1.2,0.7-2.5,1.6-3.7,2.3c-0.6,4.4,3.3,8.7,8,9.1c0.5-0.7,0.9-1.6,1.4-2.3c-3-6.4-11.2-10.3-18.5-8.8
	c-0.9,2.3,0,5.1,1.8,7s4.3,3.1,6.8,4c0.2-0.7,0.5-1.5,0.7-2.2c-3.7-4.9-10.3-7.9-16.7-7.5c2.5,3.8,6.7,6.8,11.3,8
	c-2.8-3.7-7.3-6.2-12.1-6.9c-0.4,0.7-0.8,1.4-1.2,2.1c1.2,2.4,3.7,4.3,6.5,4.9c0.3-3.6-3.8-6.9-7.6-6c-1.5,2.5,0.4,6.2,3.5,6.7
	c-0.2-1.5-1.5-2.8-3.1-3.2c-1.6-0.3-3.3,0.4-4.2,1.7c0.2-2.4-1.2-4.8-3.4-6c-1.1,0.4-2.2,0.7-3.3,1.1c0.4,0.9,0.8,1.8,1.2,2.7
	c1.1-0.6,2.2-1,3.2-1.6c0.3-2.3-0.3-4.9-2.1-6.5s-5-2-6.9-0.5c0.4,2.3,2.4,4.5,4.9,5.1c2.5,0.7,5.3-0.1,7-2
	c-1.3-2.6-3.1-5.1-5.9-6.4s-6.5-1-8.4,1.2c0.6,3.6,3,7,6.5,8.8c0.6-0.4,1.1-0.7,1.7-1c-2.5-3.7-6.9-6.3-11.6-7
	c-0.8,1.1-1.6,2.2-2.3,3.3c1.6,3,4.4,5.4,7.6,6.7c-3.8-3-9.1-4.2-13.9-3.2c2,1.7,5,2.3,7.5,1.5c0.5-1,0.9-2,1.4-3
	c-3.6-2.8-8.5-4.2-13.1-3.7c-0.1,1-0.3,2-0.4,3c1.3,0.9,2.6,1.9,4,2.8c0.5-0.6,0.9-1,1.4-1.6c-2-2.4-4.1-4.8-6.9-6.3s-6.6-1.9-9.2,0
	c1.7,2.8,5.6,4.2,8.9,3.3c-1.9-3.5-5.5-6.1-9.6-7.2c-2.5-0.7-5.5-0.5-7.4,1.2c0.5,2.9,2.6,5.6,5.4,6.9c-2.7-4.1-8.6-6-13.4-4.5
	c1.7,2.3,4.9,3.7,7.9,3.3c-3.7-4.2-10.4-5.7-15.7-3.4c0.7,1.8,2.2,3.3,4.1,4c-2.6-2.4-6.7-3.3-10.2-2.3c0.4,1.4,2.4,2.1,3.8,1.5
	c-1.7-2-4.6-3.1-7.2-2.6c-0.2,0.7-0.3,1.3-0.5,2c0.7,0.2,1.3,0.4,2,0.6c-1.2-2.1-4-3.4-6.5-3.2c0,0.7,0.5,1.6,1.3,1.9"/>
<path class="st65" d="M310.5,181.7c1.3,1.8,4.6,1.1,5.7-0.7s0.6-4.3-0.4-6.2c-1.3-2.5-3.3-4.7-5.8-6.3c-2.2,1.5-3.3,4.2-3.2,6.7
	c0.1,2.5,1.1,5,2.2,7.3c0.7,0,1.5,0,2.2,0.1c0.8-2.3,1.1-4.9,0.1-7.2s-3.6-4-6.2-3.4c-2.1,0.5-3.5,2.2-4.3,4.1
	c-0.6,1.5-0.9,3.1-0.5,4.6s1.9,2.8,3.6,2.8c-1.5-0.8-3.1-1.7-4.8-1.5c-1.7,0.2-3.2,2.1-2.2,3.4c-2.2-3.6-1.9-8.5,0.7-11.8
	c-2.6-1.2-4.9-2.7-7.1-4.5c4.4,2.4,9.1,4.3,14.1,5.6c-3.2-1.9-7.2-3-10.8-1.9s-6,5.5-3.9,8.5c3.3,0,5.3-4.3,3.5-6.8
	c-1.8-2.6-6.2-2.9-8.8-0.9c-2.6,1.9-3.6,5.3-3,8.4c0.5-0.3,1.1-0.5,1.6-0.7c0.4-6.3-3.9-12.7-10.2-15.2c-2.2,2.2-2,6.1,0.4,8.2
	c0.7-2.4-0.2-5.1-2.1-6.9c-1.3,0.2-2.7,0.5-4,0.7c-2.5,3.7-1.9,9,1.4,12.2c-1.8-5.8-6-10.8-11.6-13.8c-0.7,0.9-1.5,1.9-2.2,2.8
	c1.1,2,2.2,3.8,3.2,5.8c1.2-0.1,2.5-0.3,3.7-0.4c-0.4-5.3-5.1-9.9-10.7-10.7c-1.9,1.2-3.9,2.5-5.8,3.7c-0.1,2.9,1.8,5.8,4.7,7
	c-2.8-4-7.1-7.2-11.9-8.7c-0.4,0.7-0.8,1.6-1.2,2.3c1.4,2.9,4.1,5.3,7.3,6.4c-0.6-2.8-1.8-5.6-3.9-7.6c-2.2-2-5.4-3.2-8.4-2.4
	c-0.2,3.9,2.2,7.8,5.9,9.7c0.8-1,0.3-2.4-0.4-3.4c-2.4-3.8-6.8-6.6-11.5-7.2c-0.8,3.6,1.1,7.6,4.5,9.5c0.6-0.5,1.2-0.9,1.8-1.4
	c-4.8-5.5-13.7-8.8-20.2-5.1c0.8,2.9,4.3,4.8,7.4,4.3c-1.1-6-6.6-11.2-13.2-12.3c0.5,2.7,2.9,4.9,5.7,5.4c1.2-0.7,2.4-1.3,3.5-1.9
	c-0.6-1.6-1.1-3.2-1.7-4.7c-1.6-0.3-3.1-0.6-4.7-0.9c-3,2-4.4,5.8-3.2,9c1.3,0.5,2.7,0.9,4,1.4c0.2-1,0.4-2,0.6-3.1
	c-2.9-3.1-7.6-4.5-11.9-3.7c0,3.3,2.9,6.4,6.4,7c-2.3-1.4-4.9-2.3-7.6-2.8c3.5,3.6,8.6,5.9,13.8,6c0.2-0.9-0.2-1.9-0.9-2.5"/>
<path class="st65" d="M377.6,180.6c-0.6-1.6-3.1-2-4.6-1s-1.9,3-1.3,4.6c0.6,1.7,1.9,2.9,3.5,3.9c1.4-1.8,1.5-4.3,0.3-6.1
	c-1-1.6-3.7-2.6-5.1-1.1c-1,1-0.5,2.8,0.7,3.6s2.9,0.8,4.2,0.4c-3.7-2.9-8.5-4.6-13.3-4.7c-1,4.2,2.2,8.8,6.7,9.7
	c-1-4.8-4.4-9.1-9-11.4c-0.7,0.4-1.3,0.7-2,1.1c-0.7,3.8,1.3,7.8,4.8,9.8c-0.4-3.9-4.1-7.2-8.2-7.5c-1.6,1.4-1.9,3.8-0.8,5.6
	s3.7,2.5,5.7,1.8c-0.5-2.3-1.2-4.6-3-6.3s-4.9-2.2-6.8-0.7c-1.7,1.4-1.6,4.1-0.3,5.9c1.3,1.8,3.5,2.8,5.7,3.4
	c0.6-0.6,1.2-1.2,1.8-1.8c-2.5-3-5.6-5.7-9.4-7.1s-8.3-1.5-11.8,0.6c1.1,3.9,4.9,7,9.2,7.3c-3.5-5.6-10-9.5-16.9-10
	c-0.5,5.1,4.9,8.9,9.9,11.1c-2.7-5-8.1-8.6-14.1-9.6c-0.2,0.8-0.4,1.6-0.6,2.4c2.1,2.8,5.2,4.8,8.7,5.9c-4.1-4.5-10.1-7.3-16.4-7.8
	c-0.7,0.8-1.5,1.7-2.2,2.6c0.7,2.3,2.7,4.4,5.1,5.3c-1.4-4.6-6.6-8.1-11.8-7.9c1,4.6,5.4,8.5,10.4,9.3c-3.8-4.8-8.8-10.3-15.3-9.7
	c0.7,2.7,2.6,5.2,5.2,6.7c-3.1-2.3-6.8-4-10.8-4.8c-1.5-0.3-3.6-0.2-4,1.2c1.2,1.9,3.4,3.3,5.7,3.6c-2.7-2.2-5.4-4.5-8.7-5.9
	c-3.2-1.5-7.1-2-10.5-0.7c0.7,3,3.1,5.6,6.1,6.6c-2-5.9-9.3-9.6-15.7-8.2c-0.4,3.4,2,7.1,5.6,8.3c0.3-0.5,0.6-1,0.8-1.5
	c-2.8-3.7-7.2-6.4-12-7.4c-0.6,1-1.2,2-1.8,3c1.1,1.3,2.1,2.6,3.2,3.9c0.7-0.1,1.3-0.2,2-0.2c-2.7-2.4-5.7-4.6-9.2-5.7
	c-3.5-1.1-7.6-1-10.7,0.8c0.4,1,0.9,2,1.3,3c1.2,0.2,0.8-1.8-0.1-2.5c-2.1-1.8-4.2-3.5-6.8-4.6c-2.5-1.1-5.6-1.5-8.2-0.5
	c0.7,2,2.8,3.4,5,3.4c-2.7-3.5-6.6-6.3-11-7.8c-0.7,0.6-1.5,1.1-2.2,1.7c0.3,1.6,1.7,2.9,3.4,3.2c-2.5-3.4-6.2-6.2-10.4-7.7
	c-0.7,0.6-1.4,1-2.1,1.6c0.6,1.9,2.7,3.3,4.9,3.2c-1.1-2.4-3.7-4.3-6.6-4.5c-0.3,0.7-0.6,1.5-0.9,2.2c1.5,2.2,5.2,2.9,7.5,1.4
	c0.8-2.7-0.6-5.7-3.1-7.2c2.8,2.6,7.3,3.5,11.1,2.4c-0.4-1.1-0.8-2.2-1.2-3.3c-0.7-0.2-1.4-0.3-2.1-0.5c4.5,4.1,10.9,6.2,17.2,5.9
	c-1.6-0.6-3.2-1.1-4.7-1.6c-0.2,0.8-0.3,1.6-0.5,2.4c2.7,3.2,6.6,5.4,10.8,6.3c-1.8-3.2-5.6-5.3-9.4-5.4c-0.4,2.1-1,3,0.7,4.6
	c0.7,0.7,3,0.7,3.4,1.4c1.9,3-5.4,0.6-5.2,0.2c-0.6,1-0.1,2.3,0.8,3.2c0.9,0.8,2.2,1.1,3.4,1.4c5.2,1.1,10.6,1,15.7-0.4
	c3.1,1.5,6.5,2.6,9.9,3.2c-0.7-0.7-1.5-1.2-2.2-1.9c4.8,2.3,10.1,3.7,15.4,4c2.5,0.1,5,0.1,7.3,0.8c1.5,0.5,3,1.4,4.6,1.5
	s3.5-0.9,3.4-2.4c1.8,1.6,4,2.8,6.3,3.6c0.8-0.7,1-2,0.5-3c2.4,2,5.9,2.8,9.1,2c2.6,1.9,6.3,2.3,9.3,1.2c-0.6-1.5-1.1-3-1.7-4.5
	c1.3,2.3,3.2,4.4,5.5,5.9c-0.1-3.6,1.1-7.2-3.2-9.3c-1,0.7-1,2.1-0.1,2.8c-2.9-3-7.5-4.6-11.9-4.1c0.9,1.3,1.7,2.5,2.6,3.8
	c1.6-0.6,3.2-1.1,4.7-1.7c-2.2-4.9-8-8.2-13.7-7.7c-4,0.4-7.8,2.5-9.7,5.9c6.3,0.7,12.8,1.3,19-0.2c1.6-0.4,3.3-1,5-1
	c3.4-0.1,6.4,1.9,9.7,2.8c4.7,1.3,9.7,0.3,14.6-0.3c4.9-0.5,10.3-0.3,13.9,2.8c-1,2.1-3.4,3.5-5.8,3.5c-2.5,0-4.8-1.5-5.8-3.6
	c5.2-2.5,11.2-3.7,17.1-3.5c3.1,0.1,6.4,0.6,9.2-0.7c1.8-0.8,3.2-2.4,5-3.3c1.2-0.6,2.5-0.9,3.3-1.9c0.8-0.9,0.5-2.8-0.8-2.8
	c-1.3-0.6-3,0-3.7,1.1c1.5,3.3,6.3,5,9.7,3.3c0.1,0.7,0.1,1.2,0.2,1.9c-2.3,0.8-4.2,2.6-5,4.7c-0.7,0-1.3,0-2,0
	c-0.8-1.8-1.5-3.5-2.3-5.3"/>
<path class="st65" d="M345.1,181.1c-1.5-2-4-3.2-6.6-3.2c-0.5,2.8,1.4,5.9,4.3,6.9c0.4-1.6,0-3.4-1.4-4.6c-1.3-1.1-3.6-1.2-4.8,0
	c-1.2,1.2-0.7,3.5,0.9,4.1c-0.8-1.8-2.3-3.3-4.1-4.4c-1.1-0.6-2.5-1-3.7-0.7c-1.3,0.3-2.4,1.3-2.3,2.5s1.7,2.1,2.8,1.5
	c0.2-2-0.9-4.3-2.9-5.2s-4.8-0.3-5.8,1.5c-1.1,1.9,0.2,4.6,2.4,4.8c-0.1-2.9-4.1-4.9-6.7-3.4c-0.3,2.3,1.4,4.7,3.9,5.4
	c-1.4-2.1-4-3.5-6.6-3.5c-2.7,0-5.3,1.4-6.6,3.5c-2.5-1.6-5-3.2-7.9-4s-6.2-0.7-8.7,0.9c-0.5,2.8,3.2,5.3,5.9,4.1
	c-1.1-4.4-5.1-8-9.8-8.7c-1.2,2.8-0.4,6.1,1.8,8.3c-0.5-3-2.8-5.6-5.8-6.6c-2,1.7-1.5,5.3,0.9,6.4c0.6-0.3,1.1-0.6,1.7-0.8
	c-1.7-3.3-4.3-6.1-7.9-7.7c-3.5-1.5-8-1.4-11,0.9c0.3,2.7,3.2,4.9,6.1,4.6c-3.5-3.3-7.7-6.7-12.6-6.1c0.3,2.2,1.3,4.4,2.9,6.1
	c-2.3-3.5-6.5-6-11-6.3c-0.6,2.5,0.3,5.3,2.3,7.2c0.7-0.4,1.4-0.7,2.1-1.1c-0.7-2.2-1.8-4.6-3.7-6c-1.9-1.5-4.9-2.1-7-0.8
	c-0.3,3,0.7,6,2.7,8.4c0.6-0.2,1.2-0.3,1.8-0.5c0.1-1.6-0.6-3.3-2-4.3"/>
<g>
	<path class="st66" d="M501.2,241.2c0.6-2.5,3.3-4,6.4-3.3c3.3,0.7,5,2.9,4.4,5.4c-0.5,2.5-3.1,4-6.4,3.3
		C502.5,246.1,500.7,243.8,501.2,241.2z M505.8,231.6l6.3-34.3l8.8,1.7l-8.8,33.7L505.8,231.6z"/>
</g>
<path class="st65" d="M394.8,178.1c1.1-0.7,2.3-1.2,3.6-1.4c0.1,0.7,0.2,1.3,0.3,2c0.9-1.2-0.1-3.2-1.6-3.3s-2.9,1.7-2.2,3
	c0.1-1.2-0.3-2.5-1-3.5c-2.4-0.6-5.1,1.6-4.8,3.9c-1.8-2.7-5.7-3.9-8.9-2.9c1.4-1.8,1.2-4.5-0.4-6c-1.7-1-4.1-0.9-5.7,0.2
	s-2.3,3.3-1.7,5c0.7-0.2,1.4-0.5,2.1-0.7c1.3-2.7-0.8-6.2-3.9-6.6c-3.1-0.4-6.2,2.4-5.8,5.3c-0.2,0.7,1.1,1.4,1.6,0.7
	c-0.1-3.2-4.2-5.3-7.3-4.3c-3.2,1-5,4.4-4.7,7.5c0.5,0.6,0.9,1.1,1.4,1.6c2.5-0.7,5-1.6,6.8-3.3c1.7-1.8,2.3-4.7,0.6-6.5
	c-1.9,2.1-2.7,5.1-2.1,7.8c1,0.4,2.2-0.7,2.3-1.7c0.1-1-0.6-2-1.3-2.8c-2.2-2.6-5.1-4.7-8.5-5.9c-1.4,3.3-2.1,7-2.2,10.6
	c1.8,0,17.8-0.7,10.6,4.3"/>
<path class="st65" d="M335.2,180.1c-1.1-6.4,4.4-13.1,11.3-13.8c2,7,0.5,14.7-4.1,20.4c-0.8-2.5-0.9-5.1-0.3-7.6s2-5.1,4.6-5.9
	c2.6-0.8,5.5,0.5,7.3,2.4c1.7,2,2.6,4.5,3.3,7c-0.1-2.6,0.9-5.4,3.2-7c2.3-1.6,5.8-1.8,7.9,0.1c2.1,1.8,2.1,5.4-0.2,6.9
	c-0.9,0-1.9,0-2.8,0c-1.7-3.3,0.1-7.8,3.7-9.3c0.7,0.4,1.4,0.7,2.1,1.1c0.1,3.3-0.6,7.5-4.1,8c0.8-4.3,4.4-8,8.9-9.1
	c0.4,0.5,0.8,0.9,1.2,1.3"/>
<path class="st65" d="M341,171.8c1.3-1.3,2.5-2.7,3.8-4c0.6,2.3,1.3,4.8,0,7c-1.3,2.1-5.3,2.4-6,0.2c-0.3-0.9,0-1.9,0.5-2.7
	c1.7-2.9,5.8-4.7,8.9-3.3s3.2,6.8-0.1,7.7c1.7-3.7,4.4-7,7.9-9.3c4.5,3.3,3.1,11.1-2.3,12.7c-1.8-1.8-2.5-4.3-2.1-6.6
	c4.4-1.9,10.2,0.3,12.1,4.4c-0.8,0.9-2.3,1.2-3.4,0.7c0.2-2.7,2.8-5,5.7-5.1s5.7,2.1,6.1,4.7c0.2,1-0.1,2.2-0.7,3.1
	c-3.1,4.1-10.3-0.8-15.3,1.1c-1.1,0.4-2.1,1.2-3.2,1.4s-2.3-0.1-3.4-0.5c-3.3-0.9-6.7-2-10-2.9c1.8-3.3,6.4-5.2,10.3-4.1
	c1.7,2.7,0.3,6.7-2.8,8c-0.5-2,2.4-3.9,4.4-2.8c0,0.9-0.1,1.9-0.1,2.9c-5.4,2.8-11.7,4.6-17.8,3.4c-6.1-1.2-11.8-5.4-17.9-4.1
	c-2,0.5-3.9,1.5-5.9,1.6c-2.1,0.1-4.4-1.4-4-3.3c-9.8,3.1-20.7,3-30.4-0.5c-2.8-1-6.1-3.7-4.3-6c-0.5,2.4-1.7,4.7-3.3,6.8
	c-0.2-2.6,0.8-5.2,2.8-7c3.3,3.3,3.5,8.8,0.5,12.3c0.4-2.5,1.7-4.9,3.8-6.7c1.5,0.4,2.4,2,1.7,3.3"/>
</svg>
