<?xml version="1.0" encoding="utf-8"?>
<!-- Generator: Adobe Illustrator 19.2.0, SVG Export Plug-In . SVG Version: 6.00 Build 0)  -->
<svg version="1.1" id="Layer_1" xmlns="http://www.w3.org/2000/svg" xmlns:xlink="http://www.w3.org/1999/xlink" x="0px" y="0px"
	 viewBox="0 0 640 480" style="enable-background:new 0 0 640 480;" xml:space="preserve">
<style type="text/css">
	.st0{fill:url(#SVGID_1_);stroke:#000000;stroke-miterlimit:10;}
	.st1{fill:url(#SVGID_2_);}
	.st2{fill:url(#SVGID_3_);}
	.st3{fill:url(#SVGID_4_);}
	.st4{fill:none;stroke:#000000;stroke-miterlimit:10;}
	.st5{fill:#FF7BAC;stroke:#808080;stroke-width:0.25;stroke-miterlimit:10;}
	.st6{fill:none;}
	.st7{fill:url(#SVGID_5_);stroke:#000000;stroke-miterlimit:10;}
	.st8{fill:none;stroke:#000000;stroke-linecap:round;stroke-linejoin:round;}
	.st9{fill:url(#SVGID_6_);stroke:#000000;stroke-miterlimit:10;}
	.st10{fill:url(#SVGID_7_);stroke:#000000;stroke-linecap:round;stroke-linejoin:round;}
	.st11{fill:url(#SVGID_8_);stroke:#000000;stroke-miterlimit:10;}
	.st12{fill:url(#SVGID_9_);stroke:#000000;stroke-miterlimit:10;}
	.st13{fill:url(#SVGID_10_);stroke:#000000;stroke-linecap:round;stroke-linejoin:round;}
	.st14{fill:url(#SVGID_11_);stroke:#000000;stroke-miterlimit:10;}
	.st15{fill:url(#SVGID_12_);stroke:#000000;stroke-linecap:round;stroke-linejoin:round;}
	.st16{fill:#FFFFFF;}
	.st17{fill:url(#SVGID_13_);}
	.st18{fill:url(#SVGID_14_);}
	.st19{fill:#FF7BAC;}
	.st20{fill:#808080;}
	.st21{fill:#0000FF;}
	.st22{fill:url(#SVGID_15_);}
	.st23{fill:url(#SVGID_16_);}
	.st24{fill:url(#SVGID_17_);}
	.st25{fill:#999999;}
	.st26{fill:url(#SVGID_18_);}
	.st27{fill:url(#SVGID_19_);}
	.st28{fill:url(#SVGID_20_);}
	.st29{fill:url(#SVGID_21_);}
	.st30{fill:url(#SVGID_22_);}
	.st31{fill:url(#SVGID_23_);}
	.st32{fill:url(#SVGID_24_);}
	.st33{fill:url(#SVGID_25_);}
	.st34{fill:url(#SVGID_26_);}
	.st35{fill:url(#SVGID_27_);}
	.st36{fill:url(#SVGID_28_);}
	.st37{fill:none;stroke:#000000;stroke-width:0.25;stroke-miterlimit:10;}
	.st38{fill:none;stroke:#333333;stroke-width:0.75;stroke-linecap:round;stroke-miterlimit:10;}
	.st39{fill:url(#SVGID_29_);stroke:#000000;stroke-miterlimit:10;}
	.st40{fill:url(#SVGID_30_);stroke:#000000;stroke-miterlimit:10;}
	.st41{fill:url(#SVGID_31_);stroke:#000000;stroke-linecap:round;stroke-linejoin:round;}
</style>
<linearGradient id="SVGID_1_" gradientUnits="userSpaceOnUse" x1="-41.3915" y1="220.5" x2="658.5278" y2="220.5">
	<stop  offset="4.926108e-003" style="stop-color:#FFFFA8"/>
	<stop  offset="0.668" style="stop-color:#FFFFE6"/>
	<stop  offset="0.9951" style="stop-color:#FFFFFF"/>
</linearGradient>
<rect x="-41.4" y="-69" class="st0" width="699.9" height="579"/>
<radialGradient id="SVGID_2_" cx="333.9046" cy="262.7552" r="126.3958" gradientUnits="userSpaceOnUse">
	<stop  offset="0.133" style="stop-color:#4D4D4D"/>
	<stop  offset="0.2956" style="stop-color:#4D4D4D"/>
	<stop  offset="0.3925" style="stop-color:#676767"/>
	<stop  offset="0.5025" style="stop-color:#808080"/>
	<stop  offset="0.6471" style="stop-color:#8A8A8A"/>
	<stop  offset="0.8952" style="stop-color:#A6A6A6"/>
	<stop  offset="0.9951" style="stop-color:#B3B3B3"/>
</radialGradient>
<path class="st1" d="M336.5,163.4c-1.3,0.1-2.3-0.3-3-0.9c-14.4,1.8-28.5,9.4-38.4,19.5c-12.1,12.2-15.9,30-17,46.6
	c-1.1,16.1,0,32.5,3.5,48.3c2.5,11.4,5.4,24,15.5,31c6.4,4.5,14,6.8,21.3,9.3c8.6,3,17.8,5.8,27,4.7c16.3-2,25.6-14.2,29.1-29.3
	c3.1-13.3,2.9-27.1,5.7-40.4c3.6-17.1,14-32.4,14.6-50.2C395.5,172.7,360.8,161.6,336.5,163.4z"/>
<linearGradient id="SVGID_3_" gradientUnits="userSpaceOnUse" x1="214.0669" y1="100.9257" x2="438.6597" y2="100.9257">
	<stop  offset="4.926108e-003" style="stop-color:#666666"/>
	<stop  offset="0.6302" style="stop-color:#9A9A9A"/>
	<stop  offset="0.9951" style="stop-color:#B3B3B3"/>
</linearGradient>
<path class="st2" d="M364.6,99.5c5.7,0,11.7,2.2,16.9,4.1c-3.7-1.9-7.4-3.6-11.3-5c-2.1-0.8-4.6-0.3-7.3,1
	C363.5,99.6,364.1,99.5,364.6,99.5z"/>
<linearGradient id="SVGID_4_" gradientUnits="userSpaceOnUse" x1="213.1242" y1="242.1784" x2="438.9999" y2="242.1784">
	<stop  offset="4.926108e-003" style="stop-color:#666666"/>
	<stop  offset="0.6302" style="stop-color:#9A9A9A"/>
	<stop  offset="0.9951" style="stop-color:#B3B3B3"/>
</linearGradient>
<path class="st3" d="M431,186c0,0-3.4-45.7-12.1-57.7c-2.9-4-6.6-7.2-10.7-10.1c-2,11.1-9,18.9-16.8,26.8
	c-2.4,2.4-16.7,42.3-13.6,58.3c0.4,2.2-1.7,5.2-1.8,5.5c-0.9,3.3,0.7,4.8,0.8,5.6c0.4,2.2,0.3,2.1,0,3.9c-2,15.4-5.9,21.9-12.7,31.9
	c-7,10.1-16.1,22.1-22.6,42.8c-0.8,2.4-3.4-5.6-5.5-9c-8.1-12.7-18.6-23.9-27.5-35.4c-4.7-6.1-8.3-12.4-11.1-19.6
	c-2.8-7.1-8.5-12.6-11.7-19.5c-7.2-15.1-11.2-32.6-14.2-49c-3-16.6-4.1-33.4-4.2-50.3c-0.2,0.1-0.5,0.1-0.7,0.1
	c-8,1.9-15.4-4.5-23.1-1.7c-11.7,4.3-20,15.1-24.3,26.8c-4.2,11.7-4.9,24.3-5.5,36.8c-1,22.6-1.5,45.5,2.8,67.8
	c3.2,16.7,9.2,32.8,12,49.6c2.9,17.1,2.7,35.3,10.9,50.7c4.7,8.7,12.1,17.5,9.7,27c-0.4,1.6-1.1,3.2-0.5,4.7
	c0.8,2.3,3.7,2.8,6.2,2.9c12.7,0.7,26.7,1.1,39.4,0.4L293,375c-0.4-0.2,2.6,0.6,7.3,0.8c4.9,0.2,11.7-0.3,20.4,0.3
	c5.7,0.4,19.5-1,29.4,0c13.1,1.3,10.5-3.5,14.6-4.9c6.3-2.3,2.2,4.2,18-4.3c2.1-1.2,3.9-5.3,4.5-7.7c0.4-1.6,1.5-3.2,1.7-4.8
	c0.2-2.3,0.8-4.3,1.1-6.5c1-7.4,4.1-19.1,6.6-26.1c3.1-8.6,6.2-17.1,10.1-25.3c5.9-12.3,13.6-23.6,20.1-35.5
	c6.4-12,11.7-25,12.1-38.6C439.4,206.8,436.8,203.3,431,186z"/>
<g>
	<path class="st4" d="M335.3,330.4c-1.5,1.2-2.2,7.4-2.2,7.4c-0.2,1.7,0.4,3.4,1.5,4.7l0.4,0.5c-0.3-0.3,0.1-0.9,0.5-1.1
		c2.6-1.4,5.6-1.6,8.5-1.3s5.6,1.4,8.3,2.4c1.2,0.5,2.6,1.1,3.1,2.4l1.5-1.4c0.6-0.6,1.2-1.3,1.5-2.1l2-4.5l-0.8,6.1
		c-0.1,0.7-0.1,1.5,0.1,2.2l0.4,2.2c0.1,0.7,0.9,1.1,1.6,1c3.5-0.7,7.3,0.8,10.6,2.4c1.8,0.8,3.6,1.7,5.1,3s2.6,3.2,2.6,5.2l1.4-1.4
		c1-1,1.6-2.2,1.8-3.5c0,0,0.5-2.3,0.5-3.1"/>
	<path class="st4" d="M384.6,363.5"/>
	<g>
		<path d="M414.1,220.9c0,0,0,0.2-0.3,0.5c-0.3,0.2-0.9,0.2-1.5-0.1c-0.6-0.3-1.3-0.8-2.1-1.4c-0.4-0.3-0.8-0.6-1.3-0.8
			c-0.5-0.3-1-0.6-1.5-0.9c-2.2-1.2-5-2.3-8.4-3c-0.8-0.2-1.7-0.3-2.6-0.4c-0.9-0.1-1.9-0.2-2.8-0.2c-1.9-0.1-4,0.1-6.1,0.5
			c-2.1,0.4-4.2,1-6.3,1.9c-1.1,0.4-2.1,0.9-3,1.7c-0.2,0.2-0.4,0.4-0.5,0.7c-0.1,0.2-0.2,0.5-0.3,0.8c-0.1,0.6-0.3,1.2-0.4,1.8
			c-0.4,2.4-0.7,4.9-1.2,7.5c-0.1,0.6-0.2,1.3-0.4,1.9c-0.2,0.6-0.5,1.2-0.7,1.8c-0.5,1.2-0.9,2.5-1.4,3.7c-1,2.5-2.1,5-3.6,7.4
			c-1.4,2.4-3,4.7-4.7,7c-3.3,4.6-6.8,9.1-10,13.8c-3.2,4.7-6.1,9.6-8,14.9c-2,5.2-3.3,10.6-4.7,15.8c-1.4,5.2-2.8,10.2-4.9,14.7
			c-2,4.5-4.7,8.4-6.8,12.1c-2.2,3.7-4,7.1-5.6,10.2c-0.8,1.6-1.5,3-2.1,4.4c-0.7,1.3-1.2,2.6-1.5,3.8c-0.7,2.4-0.7,4.4-0.6,5.7
			c0.1,0.7,0.2,1.2,0.2,1.5c0.1,0.3,0.1,0.5,0.1,0.5l-0.1,0c0,0-0.1-0.2-0.2-0.5c-0.1-0.3-0.2-0.8-0.3-1.5c-0.2-1.3-0.1-3.3,0.4-5.8
			c0.3-1.2,0.7-2.6,1.4-3.9c0.6-1.4,1.3-2.9,2.1-4.4c1.5-3.1,3.3-6.6,5.4-10.4c2.1-3.8,4.7-7.6,6.6-12.1c1.9-4.5,3.4-9.4,4.8-14.6
			c1.4-5.2,2.7-10.6,4.8-15.8c2-5.3,5-10.3,8.3-15c3.3-4.7,6.8-9.2,10.1-13.7c1.6-2.3,3.3-4.5,4.7-6.9c1.4-2.3,2.6-4.8,3.6-7.3
			c0.5-1.2,1-2.5,1.5-3.7c0.2-0.6,0.5-1.2,0.7-1.8c0.2-0.6,0.3-1.2,0.4-1.8c0.4-2.5,0.8-5,1.2-7.5c0.1-0.6,0.2-1.2,0.4-1.8
			c0.1-0.3,0.2-0.6,0.3-0.9c0.2-0.3,0.4-0.5,0.6-0.7c0.9-0.9,2-1.4,3.1-1.8c2.1-0.9,4.3-1.5,6.4-1.9c2.1-0.4,4.2-0.5,6.2-0.4
			c1,0,1.9,0.1,2.9,0.2c0.9,0.2,1.8,0.2,2.7,0.4c3.4,0.7,6.3,1.9,8.5,3.1c0.6,0.3,1.1,0.6,1.5,0.9c0.5,0.3,0.9,0.6,1.3,0.9
			c0.8,0.5,1.4,1.1,2,1.4c0.6,0.3,1.2,0.3,1.4,0.1C414,221.1,414,220.9,414.1,220.9L414.1,220.9z"/>
	</g>
	<g>
		<path d="M377.3,217.6l-0.6-3.3c-0.2-1.1-0.4-2.2-0.5-3.4c-0.1-0.6,0-1.2,0.1-1.8c0.1-0.6,0.4-1.2,0.8-1.7c0.8-0.9,2-1.4,2.9-1.9
			c2-1,4.1-2,6.3-2.6c2.2-0.7,4.5-1,6.7-1c4.6,0,9,1.2,13.2,2.9c2.1,0.8,4.1,1.8,6.1,2.9l3,1.6c0.5,0.3,1,0.5,1.5,0.8
			c0.5,0.3,1,0.7,1.1,1.2l0,0l0,0l-0.9-1l0.9,1l0,0c-0.1-0.6-0.6-0.9-1.1-1.2c-0.5-0.3-1-0.5-1.5-0.8l-3-1.5c-2-1-4.1-1.9-6.2-2.7
			c-4.2-1.6-8.6-2.7-13.1-2.6c-2.2,0-4.4,0.4-6.5,1.1c-2.1,0.7-4.1,1.7-6.1,2.7c-1,0.5-2,1-2.7,1.8c-0.7,0.8-0.8,1.8-0.7,2.9
			c0.1,1.1,0.4,2.2,0.6,3.3l0.6,3.3L377.3,217.6z"/>
	</g>
	<g>
		<path d="M378,206.9c0,0-0.1-0.2-0.1-0.8c-0.1-0.5-0.1-1.3,0.1-2.2c0.1-0.9,0.4-2,0.9-3.2c0.4-1.2,0.9-2.5,1.5-3.9
			c0.6-1.4,1.4-2.9,2.6-4.2c1.2-1.3,2.8-2.4,4.6-3.1c1.8-0.7,3.8-1.1,5.8-1.1c2,0,4.1,0.3,6,0.9c2,0.5,3.9,1.3,5.7,2.1
			c1.8,0.8,3.6,1.7,5.3,2.5c3.4,1.7,6.4,3.6,8.7,5.6c2.3,1.9,4,3.9,4.9,5.4c0.2,0.4,0.4,0.7,0.6,1c0.2,0.3,0.3,0.6,0.5,0.7
			c0.1,0.1,0.2,0,0.3,0c0-0.1,0-0.2,0-0.2c-0.1-0.1-0.2,0-0.1,0c0,0,0.1-0.1,0.1,0c0,0.1,0.1,0.1,0,0.2c0,0.1-0.2,0.1-0.3,0
			c-0.2-0.1-0.3-0.4-0.5-0.7c-0.2-0.3-0.4-0.6-0.6-1c-1-1.5-2.6-3.4-5-5.3c-2.3-1.9-5.4-3.7-8.8-5.4c-1.7-0.8-3.5-1.7-5.3-2.4
			c-1.8-0.8-3.7-1.5-5.6-2c-1.9-0.5-3.9-0.8-5.9-0.8c-2,0-3.9,0.4-5.6,1.1c-1.7,0.7-3.2,1.7-4.3,3c-1.1,1.2-1.8,2.7-2.4,4.1
			c-0.6,1.4-1,2.7-1.4,3.8c-0.4,1.1-0.7,2.2-0.8,3c-0.1,0.8-0.1,1.5,0,1.9c0,0.4,0.1,0.7,0.1,0.7L378,206.9z"/>
	</g>
	<g>
		<path d="M383.3,192.1c0,0-0.1-0.1-0.2-0.3c-0.1-0.2-0.4-0.5-0.6-0.9c-0.5-0.8-1.1-2.1-1.4-3.6c-0.4-1.6-0.5-3.4-0.3-5.4
			c0.1-1,0.3-2,0.5-3c0.3-1,0.6-2,1-3c1.6-3.9,4.3-7.2,6.7-9.1c1.2-1,2.3-1.7,3.1-2.1c0.8-0.4,1.3-0.6,1.3-0.6s-0.5,0.2-1.3,0.6
			c-0.8,0.4-1.9,1.1-3.1,2.1c-2.4,2-4.9,5.4-6.4,9.2c-0.4,1-0.7,1.9-0.9,2.9c-0.2,1-0.4,1.9-0.4,2.9c-0.1,1.9,0.1,3.7,0.5,5.1
			c0.4,1.5,0.9,2.6,1.4,3.3c0.2,0.4,0.4,0.6,0.6,0.8c0.2,0.2,0.2,0.3,0.2,0.3L383.3,192.1z"/>
	</g>
	<path class="st4" d="M424.1,169.7c0,2.7,0.6,5.4,1.7,7.8c6.4,14.3,12.3,29.2,11.8,44.8c-0.4,13.5-5.6,26.5-12,38.4
		c-6.4,11.9-14.1,23.2-19.9,35.4c-3.9,8.1-7,16.7-10.1,25.2c-2.5,7-5.6,18.7-6.6,26c-0.3,2.2-0.8,4.2-1.1,6.4
		c-0.2,1.6-0.4,3.2-0.8,4.7c-0.6,2.3-1.8,4.5-3.2,6.5c-3.9,5.5-12.5,5.4-19.2,5.4c-4.8,0-9.5-0.6-14.1-1.7
		c-9.6-2.3-21.5-3.9-28.2-11.9c-1.9-2.3-3.4-5.4-2.4-8.2c0.5-1.4,1.7-2.3,2.5-3.4c2.2-3.1,6.6-5.3,10.5-2.9"/>
	<g>
		<path d="M334.7,345.9c0,0,0.3,0.1,0.8,0.3c0.5,0.2,1.2,0.4,2,0.6c1.7,0.5,3.9,1.1,6.1,1.4c0.6,0.1,1.1,0.2,1.7,0.2
			c0.6,0.1,1.1,0.1,1.6,0.2c1.1,0.1,2.1,0.1,2.9,0.2c0.9,0,1.6,0,2.1,0.2c0.5,0.1,0.8,0.3,0.8,0.3s-0.3-0.1-0.8-0.1
			c-0.5,0-1.2,0.1-2.1,0.2c-0.9,0.1-1.9,0.2-3,0.1c-1.1,0-2.3-0.1-3.4-0.3c-0.6-0.1-1.2-0.2-1.7-0.4c-0.6-0.1-1.1-0.3-1.6-0.4
			c-1.1-0.3-2-0.7-2.8-1.1C335.6,346.6,334.7,345.9,334.7,345.9z"/>
	</g>
	<g>
		<path d="M360.7,351.7c0,0,0,0.1,0.1,0.2c0,0.1,0.1,0.3,0.2,0.5c0.2,0.4,0.6,1,1.2,1.6c0.6,0.6,1.4,1.1,2.3,1.6
			c0.9,0.5,1.9,1,2.9,1.4c2,0.9,4.1,1.6,5.8,2c0.8,0.2,1.5,0.4,2,0.5c0.5,0.1,0.8,0.2,0.8,0.2s-1.1,0-2.8-0.2
			c-1.7-0.2-3.9-0.8-6-1.7c-1-0.5-2.1-1-3-1.6c-0.9-0.6-1.7-1.3-2.2-2c-0.6-0.7-0.8-1.4-0.9-1.9C360.7,352,360.7,351.7,360.7,351.7z
			"/>
	</g>
	<g>
		<path d="M323.9,352.9c0,0,0.7,0,1.6-0.3c0.4-0.2,1-0.4,1.5-0.6c0.6-0.2,1.2-0.5,1.7-0.8c0.6-0.3,1.2-0.5,1.7-0.8
			c0.5-0.3,1.1-0.5,1.4-0.8c0.4-0.2,0.6-0.6,0.6-0.8c0.1-0.3,0-0.4,0-0.4c0,0,0.1,0.1,0.2,0.4c0.1,0.3-0.1,0.8-0.4,1.2
			c-0.4,0.4-0.9,0.7-1.4,1.1c-0.5,0.4-1.1,0.7-1.7,1c-1.2,0.6-2.5,0.9-3.6,1c-0.5,0.1-1,0-1.3-0.1C324,353,323.9,352.9,323.9,352.9z
			"/>
	</g>
	<g>
		<path d="M339.4,315.4c0,0,0.2,0,0.4-0.1c0.3-0.1,0.7-0.2,1.2-0.3c0.5-0.1,1.2-0.3,2-0.4c0.8-0.1,1.6-0.2,2.6-0.3
			c1.9-0.1,4.2,0,6.5,0.5c2.4,0.4,4.8,1.1,7.2,2.1c2.4,1,4.7,2.1,6.7,3.3c2.1,1.2,3.9,2.5,5.5,3.5c1.6,1.1,2.8,2.1,3.7,2.7
			c0.9,0.7,1.4,1.1,1.4,1.1s-2.2-1.3-5.4-3.3c-1.6-1-3.5-2.1-5.6-3.2c-2.1-1.1-4.3-2.2-6.7-3.2c-4.6-1.9-9.6-2.9-13.4-2.9
			c-0.9,0-1.8,0-2.6,0.1c-0.8,0.1-1.4,0.1-2,0.2C340.1,315.2,339.4,315.4,339.4,315.4z"/>
	</g>
	<g>
		<path d="M350.3,301c1.6,0.8,3.2,1.6,4.8,2.5l4.7,2.5l4.8,2.4c1.6,0.8,3.2,1.6,4.8,2.3l2.4,1.1l2.4,1.1l2.5,1l2.5,0.9l2.5,0.9
			l2.5,0.8c0.9,0.2,1.7,0.5,2.6,0.7l2.6,0.6l0,0.2l-1.6-0.7l1.7,0.6l0,0.2l-2.6-0.4c-0.9-0.2-1.8-0.4-2.6-0.6l-2.6-0.7l-2.6-0.8
			l-2.5-0.9l-2.5-1c-1.7-0.7-3.3-1.4-4.9-2.2c-1.6-0.8-3.2-1.6-4.8-2.4c-1.6-0.8-3.1-1.7-4.7-2.6c-1.5-0.9-3.1-1.8-4.6-2.7
			C353.3,302.9,351.8,302,350.3,301z"/>
	</g>
	<g>
		<path d="M353.8,295.7c0,0,0.5,0.2,1.4,0.7c0.9,0.4,2.1,1,3.7,1.8c0.8,0.4,1.6,0.7,2.5,1.1c0.9,0.4,1.8,0.8,2.8,1.2
			c1.9,0.8,4,1.7,6.1,2.5c2.1,0.8,4.2,1.6,6.1,2.2c1,0.3,1.9,0.7,2.9,1c0.9,0.3,1.8,0.6,2.6,0.8c1.6,0.5,2.9,0.9,3.9,1.2
			c0.9,0.3,1.5,0.4,1.5,0.4s-0.6-0.1-1.5-0.2c-1-0.2-2.3-0.4-4-0.8c-1.6-0.4-3.5-0.9-5.6-1.5c-1-0.3-2-0.6-3.1-1
			c-1-0.4-2.1-0.8-3.1-1.1c-1-0.4-2.1-0.8-3.1-1.3c-1-0.4-2-0.9-3-1.3c-1.9-0.9-3.6-1.8-5.1-2.6c-1.5-0.8-2.7-1.6-3.5-2.1
			C354.2,296,353.8,295.7,353.8,295.7z"/>
	</g>
	<g>
		<path d="M370.1,242.4c0,0,0.5-0.2,1.3-0.5c0.4-0.2,0.9-0.3,1.5-0.5c0.6-0.2,1.2-0.4,2-0.5c0.7-0.2,1.5-0.3,2.4-0.4
			c0.8-0.1,1.7-0.2,2.7-0.2c0.9,0,1.9-0.1,2.8,0c1,0,1.9,0.2,2.9,0.3c1,0.2,1.9,0.3,2.9,0.6c0.9,0.2,1.8,0.5,2.7,0.8
			c0.9,0.3,1.7,0.6,2.5,1c0.8,0.3,1.5,0.7,2.1,1c0.7,0.3,1.2,0.7,1.7,1c0.5,0.3,0.9,0.6,1.3,0.9c0.7,0.5,1.1,0.8,1.1,0.8
			s-0.4-0.3-1.1-0.8c-0.3-0.3-0.8-0.5-1.3-0.8c-0.5-0.3-1.1-0.6-1.7-1c-0.6-0.3-1.4-0.7-2.1-1c-0.8-0.3-1.6-0.6-2.5-0.9
			c-0.9-0.2-1.8-0.5-2.7-0.7c-0.9-0.2-1.9-0.3-2.9-0.5c-1-0.1-1.9-0.2-2.9-0.2c-1,0-1.9,0-2.8,0.1c-0.9,0.1-1.8,0.2-2.6,0.3
			c-0.8,0.1-1.6,0.3-2.3,0.5c-0.7,0.2-1.3,0.3-1.9,0.5c-0.6,0.2-1,0.3-1.4,0.5c-0.8,0.3-1.2,0.5-1.2,0.5L370.1,242.4z"/>
	</g>
	<g>
		<path d="M361,290c0,0,2.2,0.7,5.4,1.6c1.6,0.5,3.5,1,5.6,1.6c2,0.6,4.2,1.2,6.4,1.8c2.2,0.6,4.4,1.2,6.4,1.6
			c2.1,0.4,4,0.7,5.7,0.7c1.7,0,3.1-0.3,4-0.6c0.5-0.1,0.8-0.3,1.1-0.4c0.2-0.1,0.4-0.2,0.4-0.2s-0.1,0.1-0.4,0.2
			c-0.2,0.1-0.6,0.3-1,0.5c-0.5,0.2-1,0.4-1.7,0.6c-0.7,0.2-1.5,0.3-2.3,0.4c-0.9,0.1-1.8,0.1-2.8,0c-1-0.1-2-0.2-3.1-0.4
			c-2.1-0.4-4.3-0.9-6.5-1.5c-2.2-0.6-4.4-1.2-6.4-1.9c-2-0.7-3.9-1.3-5.5-1.9c-1.6-0.6-2.9-1.2-3.8-1.5
			C361.5,290.2,361,290,361,290z"/>
	</g>
	<g>
		<path d="M342,310.2c0,0,0.7-0.1,2.1-0.1c0.7-0.1,1.4-0.1,2.4-0.1c0.5,0,0.9,0,1.5,0c0.5,0,1.1,0.1,1.6,0.1
			c1.1,0.1,2.3,0.2,3.6,0.4c1.3,0.1,2.6,0.4,4,0.7c1.4,0.4,2.8,0.7,4.2,1.2c1.4,0.4,2.8,1,4.2,1.5c1.4,0.6,2.8,1.2,4,2
			c1.3,0.7,2.6,1.5,3.8,2.2c1.2,0.8,2.3,1.5,3.3,2.4c1,0.8,2,1.6,2.8,2.3c0.4,0.4,0.8,0.7,1.2,1.1c0.4,0.4,0.7,0.7,1,1.1
			c0.6,0.7,1.2,1.2,1.6,1.7c0.8,1,1.3,1.6,1.3,1.6s-0.5-0.5-1.5-1.4c-0.4-0.5-1-1-1.7-1.6c-0.7-0.6-1.4-1.3-2.3-2
			c-0.8-0.7-1.8-1.4-2.9-2.2c-0.5-0.4-1.1-0.7-1.6-1.1c-0.6-0.4-1.1-0.7-1.7-1.1c-1.2-0.7-2.4-1.5-3.7-2.1c-1.3-0.7-2.7-1.3-4-1.9
			c-1.4-0.5-2.7-1.1-4.1-1.6c-1.4-0.5-2.8-0.8-4.1-1.2c-0.7-0.2-1.3-0.3-2-0.5c-0.7-0.2-1.3-0.3-1.9-0.4c-1.3-0.2-2.4-0.4-3.6-0.5
			c-1.1-0.1-2.1-0.2-3-0.3c-0.9-0.1-1.7-0.1-2.4-0.1C342.8,310.3,342,310.2,342,310.2z"/>
	</g>
	<g>
		<path d="M340.4,326.6c0,0,0.2-0.1,0.5-0.3c0.3-0.2,0.7-0.4,1.3-0.5c0.6-0.2,1.2-0.3,2-0.4c0.4,0,0.7,0,1.1,0
			c0.4,0,0.8,0.1,1.2,0.1c0.4,0.1,0.8,0.2,1.1,0.3c0.4,0.1,0.7,0.3,1.1,0.4c0.7,0.3,1.2,0.7,1.7,1.1c0.5,0.4,0.8,0.7,1,1
			c0.2,0.3,0.3,0.4,0.3,0.4s-0.2-0.1-0.5-0.3c-0.3-0.2-0.7-0.4-1.2-0.7c-0.2-0.1-0.5-0.2-0.8-0.4c-0.3-0.1-0.6-0.2-0.9-0.4
			c-0.6-0.2-1.3-0.4-2-0.5c-0.7-0.1-1.4-0.2-2.1-0.2c-0.3,0-0.7,0-1,0c-0.3,0-0.6,0-0.9,0.1c-0.6,0-1,0.1-1.3,0.2
			C340.6,326.6,340.4,326.6,340.4,326.6z"/>
	</g>
	<g>
		<path d="M371.5,337.8c0,0,0.7,0,1.6,0.3c0.5,0.1,1,0.3,1.6,0.6c0.6,0.2,1.2,0.6,1.7,0.9c0.6,0.4,1.1,0.7,1.6,1.2
			c0.5,0.4,0.9,0.8,1.2,1.2c0.7,0.7,1,1.3,1,1.3s-0.6-0.4-1.4-0.9c-0.8-0.5-1.9-1.3-2.9-1.9c-1.1-0.7-2.2-1.3-3-1.8
			C372.1,338.1,371.5,337.8,371.5,337.8z"/>
	</g>
	<path class="st4" d="M258.4,131.3c-3.2,5.4-6.3,10.8-9.5,16.1c-8,13.5-16,27.4-19.5,42.7c-4.1,17.7-1.7,36.5,4.5,53.6
		c6.2,17.1,16,32.7,26.9,47.2c8,10.7,16.8,21,22.7,33.1s8.7,26.3,4.1,38.9c-3.2,2.2-1.1,7.1,2,9.5c3.1,2.4,7.3,2.5,11.2,2.6
		c8.5,0.2,17,0.4,25.5,0.6c4.6,0.1,9.3,0.2,13.6-1.5c1.1-0.5,2.6,0.8,3.9,0.8c1.5,0,2.5-1.1,3.9-0.5c3.7,1.6,7.9,1.7,11.7,0.4
		c2.4-0.8,5-3.5,3.5-5.6c-0.7-0.1-1.3-0.1-2-0.2"/>
	<path class="st4" d="M286.2,164.2c8.4,8.5,12.8,20.9,11.6,32.9c-0.5,5.2-2,10.3-2.4,15.5c-1.2,15.8,8.1,30.4,18.2,42.5
		s21.9,23.6,27.5,38.4"/>
	<g>
		<path d="M297.3,319.7c0.7,0,1.4,0,2,0.1l2,0l2,0l2-0.1c1.4-0.1,2.7-0.1,4-0.3l2-0.2l2-0.3l2-0.3l2-0.4l2-0.4l2-0.5l2-0.5l2-0.6
			c1.3-0.4,2.6-0.8,3.9-1.3l0.1,0.2c-0.6,0.1-1.3,0.1-1.9,0.1c0.6-0.1,1.2-0.3,1.8-0.4l0.9-0.2l-0.9,0.4l-1.9,0.8
			c-0.6,0.3-1.3,0.5-1.9,0.8l-1.9,0.7l-2,0.6c-1.3,0.4-2.6,0.7-4,1c-1.3,0.3-2.7,0.5-4.1,0.7c-1.4,0.2-2.7,0.3-4.1,0.4l-2.1,0.1
			l-2.1,0c-1.4,0-2.7-0.1-4.1-0.2l-2-0.2C298.6,320,298,319.9,297.3,319.7z"/>
	</g>
	<g>
		<path d="M299.6,346.8c0,0,0.2-0.2,0.7-0.5c0.4-0.3,1.1-0.8,1.9-1.3c0.8-0.5,1.8-1,2.9-1.5c0.5-0.2,1.1-0.5,1.7-0.7
			c0.6-0.2,1.2-0.4,1.8-0.6c0.6-0.2,1.2-0.3,1.8-0.5c0.6-0.2,1.2-0.2,1.8-0.3c1.2-0.2,2.3-0.3,3.2-0.3c0.9,0,1.7,0,2.3,0.1
			c0.5,0,0.9,0.1,0.9,0.1s-0.3,0-0.9,0.1c-0.5,0.1-1.3,0.2-2.2,0.3c-0.5,0.1-1,0.2-1.5,0.2c-0.5,0.1-1.1,0.2-1.6,0.3
			c-1.1,0.3-2.3,0.5-3.5,0.9c-1.2,0.3-2.3,0.8-3.4,1.2c-0.5,0.2-1.1,0.4-1.5,0.6c-0.5,0.2-1,0.4-1.4,0.6c-0.8,0.4-1.6,0.7-2,1
			C299.9,346.6,299.6,346.8,299.6,346.8z"/>
	</g>
	<g>
		<path d="M297.3,336.2c0,0,0.4,0,1.2,0c0.8,0,1.8,0,3.1,0c0.6,0,1.3,0,2.1-0.1c0.7,0,1.5-0.1,2.3-0.2c1.6-0.2,3.3-0.4,4.9-0.7
			c1.7-0.3,3.3-0.7,4.9-1.1c0.8-0.2,1.5-0.4,2.2-0.6c0.7-0.2,1.4-0.4,2-0.6c1.2-0.4,2.2-0.8,2.9-1c0.7-0.3,1.1-0.4,1.1-0.4
			s-0.4,0.2-1,0.6c-0.3,0.2-0.7,0.4-1.2,0.6c-0.5,0.2-1,0.5-1.6,0.8c-1.2,0.5-2.6,1.1-4.1,1.6c-0.8,0.2-1.6,0.5-2.4,0.7
			c-0.8,0.2-1.7,0.4-2.5,0.5c-0.9,0.1-1.7,0.3-2.5,0.4c-0.8,0.1-1.7,0.1-2.5,0.2c-1.6,0.1-3.1,0-4.4-0.1c-0.6,0-1.2-0.1-1.8-0.2
			c-0.5-0.1-1-0.1-1.3-0.2C297.7,336.3,297.3,336.2,297.3,336.2z"/>
	</g>
	<g>
		<path d="M291,324c0,0,0.6,0.2,1.5,0.6c0.5,0.2,1.1,0.4,1.8,0.6c0.7,0.2,1.5,0.4,2.3,0.6c3.4,0.8,8.1,1.2,12.8,1.3
			c2.4,0.1,4.7,0.2,6.9,0.1c2.2,0,4.2-0.2,5.9-0.7c0.8-0.2,1.6-0.5,2.2-0.8c0.6-0.3,1.2-0.6,1.6-0.9c0.4-0.3,0.7-0.5,0.9-0.7
			c0.2-0.2,0.3-0.3,0.3-0.3s-0.1,0.1-0.3,0.3c-0.2,0.2-0.5,0.5-0.9,0.8c-0.4,0.3-0.9,0.7-1.6,1.1c-0.6,0.4-1.4,0.7-2.2,1
			c-0.9,0.3-1.8,0.5-2.8,0.7c-1,0.2-2.1,0.3-3.2,0.3c-2.2,0.1-4.6,0-7,0c-2.4-0.1-4.7-0.2-7-0.5c-1.1-0.1-2.2-0.3-3.2-0.5
			c-1-0.2-1.9-0.4-2.8-0.7c-1.7-0.5-3.1-1.1-4-1.5c-0.5-0.2-0.8-0.4-1.1-0.5C291.1,324,291,324,291,324z"/>
	</g>
	<g>
		<path d="M261.8,232.2c0,0,0-0.1,0.1-0.4c0.1-0.2,0.3-0.6,0.8-0.9c0.4-0.3,1-0.6,1.6-0.8c0.6-0.3,1.3-0.6,2.1-0.9
			c1.6-0.6,3.4-1.4,5.3-2.1c2-0.8,4-1.6,6.1-2.3c2.1-0.8,4.2-1.5,6.3-2.1c2.1-0.5,4.1-0.8,5.8-0.7c0.9,0,1.6,0.1,2.3,0.3
			c0.7,0.2,1.3,0.3,1.7,0.5c0.5,0.2,0.8,0.4,1,0.5c0.2,0.1,0.4,0.2,0.4,0.2s-0.1,0-0.4-0.1c-0.2-0.1-0.6-0.2-1.1-0.4
			c-0.9-0.3-2.3-0.5-4-0.4c-1.7,0-3.5,0.4-5.5,1c-2,0.6-4.1,1.3-6.2,2.1c-2.1,0.8-4.2,1.5-6.2,2.2c-2,0.7-3.8,1.3-5.4,1.9
			c-0.8,0.3-1.5,0.5-2.2,0.7c-0.7,0.2-1.2,0.4-1.6,0.6c-0.4,0.2-0.7,0.5-0.8,0.7C261.8,232.1,261.8,232.2,261.8,232.2z"/>
	</g>
	<g>
		<path d="M250.3,227l0.7-1.3c0.3-0.4,0.6-0.9,0.9-1.3c0.3-0.4,0.6-0.8,1-1.2c0.4-0.4,0.7-0.8,1.1-1.1c1.5-1.4,3.2-2.6,5-3.7
			c1.8-1,3.7-1.9,5.6-2.6c1.9-0.7,3.9-1.3,5.9-1.8c2-0.5,4-1,6-1.3c2-0.4,4.1-0.6,6.1-0.8c1-0.1,2.1-0.1,3.1-0.1c1,0,2.1,0,3.1,0.1
			c1,0.1,2.1,0.2,3.1,0.4l1.5,0.3l1.5,0.4l-0.1,0.2l-2.3-1.1l2.4,0.9l-0.1,0.2l-1.5-0.3l-1.5-0.2c-1-0.1-2-0.2-3-0.2c-1,0-2,0-3,0
			c-1,0-2,0.1-3,0.2c-2,0.2-4,0.5-6,0.9c-2,0.4-4,0.9-5.9,1.4c-3.9,1-7.8,2.3-11.4,4.1c-0.9,0.5-1.8,1-2.6,1.5
			c-0.8,0.6-1.6,1.2-2.4,1.8c-0.4,0.3-0.7,0.7-1.1,1c-0.4,0.4-0.7,0.7-1,1.1l-0.9,1.2L250.3,227z"/>
	</g>
	<g>
		<path d="M244.8,217.6c0,0,0.1-0.2,0.3-0.6c0.2-0.4,0.5-0.9,1-1.5c1-1.2,2.6-2.8,4.8-4.2c1.1-0.7,2.3-1.5,3.7-2.2
			c1.3-0.7,2.7-1.5,4.3-2.2c1.5-0.7,3.1-1.4,4.7-2c1.6-0.6,3.3-1.2,5-1.7c1.7-0.5,3.4-0.9,5.1-1.3c0.9-0.2,1.7-0.3,2.5-0.5
			c0.8-0.1,1.7-0.3,2.5-0.4c1.6-0.2,3.2-0.4,4.8-0.4c1.5-0.1,2.9-0.1,4.3-0.1c1.3,0,2.5,0,3.6,0.1c1.1,0,2-0.1,2.8-0.1
			c0.8-0.1,1.4-0.2,1.8-0.3c0.4-0.1,0.6-0.1,0.6-0.1s-0.2,0.1-0.6,0.2c-0.4,0.1-1,0.3-1.7,0.4c-1.5,0.3-3.7,0.4-6.4,0.5
			c-1.3,0.1-2.7,0.1-4.2,0.3c-1.5,0.1-3.1,0.3-4.7,0.6c-0.8,0.1-1.6,0.3-2.5,0.4c-0.8,0.2-1.7,0.3-2.5,0.5c-1.7,0.4-3.4,0.8-5,1.3
			c-1.7,0.5-3.3,1-5,1.6c-1.6,0.6-3.2,1.2-4.7,1.9c-1.5,0.7-2.9,1.4-4.3,2c-1.3,0.7-2.6,1.4-3.7,2.1c-2.2,1.4-3.9,2.7-5,3.9
			c-0.5,0.6-0.9,1-1.1,1.4C244.9,217.4,244.8,217.6,244.8,217.6z"/>
	</g>
	<g>
		<path d="M254.4,257c0,0,0,0.5,0,1.3c0,0.8,0,2,0,3.4c0,1.4,0,3-0.1,4.8c0,1.7-0.1,3.6-0.2,5.5c-0.1,1.8-0.1,3.7,0,5.4
			c0.1,1.7,0.5,3.3,1,4.5c0.5,1.3,1.1,2.3,1.5,3c0.4,0.7,0.7,1,0.7,1s-0.4-0.3-0.9-0.9c-0.5-0.6-1.3-1.6-1.9-2.8
			c-0.6-1.3-1.2-2.9-1.4-4.7c-0.2-1.8-0.2-3.7-0.1-5.5c0.1-1.9,0.2-3.7,0.3-5.4c0.1-1.7,0.3-3.4,0.4-4.7c0.1-1.4,0.3-2.5,0.3-3.4
			C254.3,257.4,254.4,257,254.4,257z"/>
	</g>
	<g>
		<path d="M262.7,264.3c0,0-0.3,1.7-0.7,4.1c-0.2,1.2-0.4,2.7-0.6,4.2c-0.2,1.6-0.4,3.2-0.5,4.9c-0.1,1.7-0.2,3.3-0.3,4.9
			c-0.1,1.6-0.1,3-0.1,4.3c0,2.5,0,4.2,0,4.2s-0.1-0.4-0.2-1.1c-0.1-0.7-0.3-1.8-0.4-3c-0.1-1.3-0.2-2.7-0.2-4.3c0-0.8,0-1.6,0-2.4
			c0-0.8,0.1-1.7,0.1-2.5c0.2-1.7,0.4-3.4,0.6-4.9c0.3-1.6,0.6-3,0.9-4.2c0.3-1.2,0.6-2.2,0.8-2.9
			C262.5,264.7,262.7,264.3,262.7,264.3z"/>
	</g>
	<g>
		<path d="M298.4,366.8c0,0,0.2,0,0.7-0.1c0.4-0.1,1.1-0.2,1.8-0.2c0.8,0,1.7,0,2.6,0.4c0.9,0.4,1.8,1,2.6,1.6
			c0.8,0.6,1.6,1.4,2.2,2.1c0.6,0.8,1.1,1.5,1.4,2.2c0.7,1.4,0.9,2.4,0.9,2.4l-0.1,0c0,0-0.2-0.2-0.4-0.6c-0.3-0.4-0.6-0.9-1.1-1.5
			c-0.4-0.6-1-1.3-1.6-2c-0.6-0.7-1.2-1.5-1.9-2.2c-0.7-0.7-1.5-1.3-2.3-1.7c-0.8-0.4-1.7-0.5-2.4-0.6c-0.7,0-1.4,0-1.8,0
			C298.6,366.9,298.4,366.9,298.4,366.8L298.4,366.8z"/>
	</g>
	<g>
		<path d="M313.7,375.1c-0.2-0.3-0.2-0.8-0.2-1.2c0.1-0.4,0.2-0.8,0.3-1.1c0.3-0.7,0.7-1.4,1-2.1l1.1-2.1c0.4-0.7,0.8-1.4,1.4-2
			c0.6-0.6,1.3-1,2-1.4c0.7-0.4,1.4-0.7,2.2-1c1.5-0.5,3.2-0.6,4.7-0.2l0.7,0.2l-0.7,0.1c-0.2,0-0.4,0-0.5,0.1l0-0.1
			c0.2-0.1,0.3-0.2,0.5-0.2l0,0.3c-1.5,0.1-3,0.4-4.4,0.9c-0.7,0.3-1.4,0.5-2.1,0.9c-0.7,0.3-1.3,0.7-1.9,1.1c-0.6,0.4-1,1-1.4,1.7
			l-1.2,2c-0.4,0.7-0.8,1.3-1.2,2C313.8,373.6,313.5,374.4,313.7,375.1L313.7,375.1z"/>
	</g>
	<g>
		<path d="M312.3,375.1c0,0-0.1-0.2-0.3-0.5c-0.2-0.3-0.4-0.7-0.7-1.3c-0.5-1.1-1-2.7-1.3-4.3c-0.1-0.8-0.2-1.6-0.2-2.4
			c0-0.4,0-0.8,0.1-1.1c0.1-0.4,0.1-0.7,0.2-1c0.2-0.6,0.3-1.1,0.5-1.4c0.2-0.3,0.3-0.5,0.3-0.5l0.1,0c0,0,0,0.2,0,0.6
			c0,0.3,0,0.8,0,1.4c0,0.6,0,1.3,0,2c0,0.7-0.1,1.5,0,2.3c0.1,1.6,0.5,3.1,0.8,4.2c0.2,0.6,0.4,1,0.5,1.3
			C312.3,374.9,312.4,375.1,312.3,375.1L312.3,375.1z"/>
	</g>
	<g>
		<path d="M338.4,368.4c0,0,0.3,0.2,0.8,0.5c0.5,0.3,1,0.9,1.4,1.5c0.2,0.3,0.5,0.6,0.6,0.9c0.1,0.3,0.2,0.7,0.3,1
			c0.1,0.6-0.1,1-0.1,1l-0.1,0c0,0-0.3-0.3-0.6-0.8c-0.1-0.2-0.3-0.5-0.4-0.8c-0.1-0.3-0.2-0.6-0.4-1c-0.3-0.6-0.7-1.2-1-1.7
			C338.6,368.7,338.3,368.4,338.4,368.4L338.4,368.4z"/>
	</g>
	<g>
		<path d="M341.1,366.7c0,0,0.7,1.3,1.4,2.7c0.2,0.3,0.4,0.7,0.5,1c0.1,0.3,0.2,0.6,0.2,0.9c0.1,0.6,0,1,0,1l-0.1,0
			c0,0-0.3-0.3-0.6-0.7c-0.2-0.2-0.3-0.5-0.4-0.8c-0.1-0.3-0.2-0.7-0.3-1.1C341.3,368.2,341,366.7,341.1,366.7L341.1,366.7z"/>
	</g>
	<g>
		<path d="M344.2,372.5c0,0,0.2-0.4,0.5-0.9c0.3-0.5,0.8-1.2,1.3-1.9c0.3-0.3,0.5-0.6,0.8-0.9c0.3-0.2,0.6-0.4,0.9-0.5
			c0.6-0.2,1.1-0.2,1.1-0.2l0,0.1c0,0-0.2,0.4-0.7,0.8c-0.2,0.2-0.4,0.5-0.7,0.7c-0.3,0.2-0.6,0.4-0.9,0.7c-0.6,0.5-1.2,1-1.6,1.5
			C344.5,372.2,344.2,372.6,344.2,372.5L344.2,372.5z"/>
	</g>
	<path class="st4" d="M292.6,374.1c-12.6,0.7-25.3,0.6-37.9-0.1c-2.4-0.1-5.3-0.7-6.1-2.9c-0.5-1.5,0.1-3.1,0.5-4.7
		c2.4-9.5-5-18.3-9.6-26.9c-8.2-15.2-8-33.4-10.9-50.4c-2.8-16.7-8.7-32.7-11.9-49.3c-4.3-22.1-3.8-44.9-2.8-67.4
		c0.5-12.4,1.2-24.9,5.4-36.6c4.2-11.6,12.5-22.4,24.1-26.6c7.7-2.8,16,3.6,24,1.7c22-5.3,31.8,16.7,54.4,17.9
		c12.6,0.7,35.8-35.5,47.6-31.1c10.4,3.9,20,9.7,29.5,15.6c7,4.3,14.2,8.8,19,15.4c8.6,11.9,14,43.8,12.1,58.4"/>
	<g>
		<path d="M249.3,364c0.4-0.2,0.9-0.5,1.3-0.6c0.4-0.1,0.9-0.2,1.3-0.3c0.9-0.1,1.8-0.2,2.6-0.2c1.8-0.1,3.5-0.1,5.3-0.1
			c3.5,0.1,7,0.6,10.4,1.4l0,0.1L269,364l1.2,0.1l0,0.1c-3.4-0.6-6.9-0.9-10.4-0.9c-1.7,0-3.5,0.1-5.2,0.3c-0.9,0.1-1.7,0.2-2.6,0.4
			c-0.4,0.1-0.8,0.2-1.2,0.3c-0.4,0.1-0.7,0.3-1,0.6L249.3,364z"/>
	</g>
	<g>
		<path d="M257.7,352.5c0,0,0.5,0,1.4,0c0.9,0,2.2,0,3.7,0.1c1.5,0.1,3.3,0.1,5.2,0.1c1.9,0,3.9,0,5.9-0.1c1,0,2-0.1,3-0.2
			c1-0.1,2-0.2,2.9-0.3c0.9-0.1,1.8-0.3,2.7-0.4c0.9-0.2,1.6-0.3,2.4-0.5c1.5-0.4,2.7-0.8,3.4-1.2c0.8-0.4,1.1-0.8,1.1-0.8
			s-0.1,0.1-0.2,0.3c-0.2,0.2-0.4,0.4-0.8,0.7c-0.7,0.5-1.9,1.1-3.4,1.6c-0.7,0.2-1.5,0.5-2.4,0.7c-0.9,0.2-1.8,0.4-2.7,0.6
			c-0.9,0.2-1.9,0.3-2.9,0.4c-1,0.1-2,0.2-3,0.2c-1,0-2,0.1-3.1,0c-1,0-2-0.1-2.9-0.1c-1.9-0.1-3.7-0.3-5.2-0.5
			c-1.5-0.2-2.8-0.4-3.7-0.5C258.2,352.6,257.7,352.5,257.7,352.5z"/>
	</g>
	<g>
		<path d="M232.2,315.6c0,0,0.2,0.2,0.5,0.4c0.3,0.3,0.8,0.6,1.3,1c1.1,0.8,2.7,1.8,4.5,2.6c1.7,0.8,3.5,1.4,4.9,1.7
			c0.3,0.1,0.7,0.2,0.9,0.2c0.3,0,0.5,0.1,0.7,0.1c0.1,0,0.2-0.1,0.2-0.1c0-0.1-0.1-0.1-0.1-0.1c-0.1,0-0.1,0.1-0.1,0.1
			c0,0,0-0.1,0.1-0.1c0,0,0.1,0,0.1,0.2c0,0.1-0.1,0.2-0.2,0.2c-0.2,0-0.5,0-0.8-0.1c-0.3,0-0.6-0.1-1-0.1c-1.4-0.2-3.3-0.7-5.1-1.4
			c-1.8-0.7-3.5-1.6-4.7-2.4c-0.6-0.4-1.1-0.7-1.5-1c-0.3-0.2-0.5-0.4-0.5-0.4L232.2,315.6z"/>
	</g>
	<g>
		<path d="M244.4,329.9c0,0,0.1,0,0.3,0c0.2,0,0.5,0,0.8,0.1c0.7,0.1,1.8,0.4,2.9,0.9c1.2,0.5,2.5,1.1,3.9,1.7
			c0.7,0.3,1.4,0.5,2.2,0.7c0.4,0.1,0.8,0.2,1.1,0.2c0.4,0,0.8,0.1,1.2,0.1c1.6,0.1,3.2-0.1,4.8-0.3c1.5-0.2,2.9-0.5,4.2-0.8
			c1.2-0.3,2.2-0.5,3-0.6c0.7-0.1,1.1-0.2,1.1-0.2s-0.4,0.1-1.1,0.4c-0.7,0.2-1.7,0.6-2.9,1c-1.2,0.4-2.6,0.8-4.2,1.1
			c-0.8,0.1-1.6,0.3-2.4,0.4c-0.8,0.1-1.7,0.1-2.6,0.1c-0.4,0-0.9-0.1-1.3-0.1c-0.4-0.1-0.9-0.1-1.3-0.3c-0.8-0.2-1.6-0.5-2.3-0.9
			c-1.4-0.7-2.7-1.5-3.8-2c-1.1-0.6-2-1-2.7-1.2c-0.3-0.1-0.6-0.2-0.8-0.3C244.5,329.9,244.4,329.9,244.4,329.9z"/>
	</g>
	<g>
		<path d="M217.2,211.4c0,0,0.2,0.1,0.7,0.3c0.4,0.2,1,0.5,1.7,0.9c0.4,0.2,0.7,0.4,1.1,0.7c0.4,0.2,0.8,0.6,1.2,0.9
			c0.8,0.6,1.6,1.4,2.3,2.2c0.7,0.8,1.4,1.6,2,2.4c0.3,0.4,0.6,0.8,0.8,1.2c0.2,0.4,0.4,0.8,0.6,1.1c0.2,0.4,0.3,0.7,0.5,1
			c0.1,0.3,0.2,0.6,0.3,0.8c0.2,0.4,0.3,0.7,0.3,0.7l-0.1,0c0,0-0.2-0.2-0.5-0.6c-0.3-0.4-0.7-0.9-1.2-1.5c-0.5-0.6-1-1.4-1.6-2.2
			c-0.5-0.8-1.1-1.7-1.8-2.5c-0.7-0.8-1.4-1.6-2.1-2.3c-0.7-0.6-1.4-1.2-2.1-1.7c-0.6-0.5-1.2-0.8-1.6-1
			C217.4,211.6,217.1,211.5,217.2,211.4L217.2,211.4z"/>
	</g>
	<g>
		<path d="M218,200.7c0,0,0.3,1,0.8,2.5c0.3,0.7,0.6,1.6,1,2.5c0.4,0.9,0.9,1.8,1.4,2.7c0.5,0.9,1.1,1.8,1.5,2.8
			c0.4,1,0.5,1.9,0.6,2.7c0.1,0.4,0.1,0.7,0.2,1c0.1,0.3,0.1,0.6,0.2,0.8c0.1,0.4,0.2,0.7,0.2,0.7l-0.1,0.1c0,0-0.2-0.2-0.5-0.6
			c-0.3-0.4-0.6-1-0.8-1.8c-0.3-0.8-0.5-1.6-0.8-2.5c-0.3-0.9-0.8-1.8-1.2-2.8c-0.5-0.9-0.9-1.9-1.2-2.9c-0.3-0.9-0.6-1.8-0.7-2.6
			C218.1,201.7,217.9,200.7,218,200.7L218,200.7z"/>
	</g>
	<g>
		<path d="M217.1,187.5c0,0,0.1,0.3,0.2,0.8c0.1,0.2,0.2,0.5,0.3,0.8c0.1,0.3,0.3,0.7,0.5,1.1c0.4,0.8,0.9,1.6,1.4,2.5
			c0.3,0.4,0.6,0.9,0.9,1.3c0.3,0.5,0.7,0.9,1,1.3c0.7,0.9,1.5,1.7,2.2,2.5c0.7,0.8,1.3,1.6,1.9,2.2c0.3,0.3,0.5,0.6,0.7,0.9
			c0.2,0.3,0.4,0.5,0.6,0.7c0.3,0.4,0.5,0.6,0.5,0.6l-0.1,0.1c0,0-0.2-0.1-0.7-0.4c-0.4-0.3-1-0.7-1.7-1.3c-0.7-0.6-1.4-1.3-2.1-2.1
			c-0.7-0.8-1.4-1.8-2-2.7c-0.3-0.5-0.7-0.9-1-1.4c-0.3-0.5-0.6-1-0.9-1.4c-0.5-0.9-1-1.9-1.3-2.7c-0.1-0.4-0.3-0.8-0.4-1.1
			c-0.1-0.3-0.2-0.6-0.2-0.9C217.1,187.8,217,187.5,217.1,187.5L217.1,187.5z"/>
	</g>
	<g>
		<path d="M221.3,189.2c0,0-0.1,0.5,0,1.3c0,0.8,0.1,1.7,0.3,2.7c0.1,0.5,0.3,0.9,0.4,1.4c0.1,0.4,0.2,0.8,0.3,1.2
			c0.2,0.7,0.2,1.3,0.2,1.3l-0.1,0c0,0-0.4-0.4-0.8-1c-0.2-0.3-0.4-0.7-0.6-1.2c-0.1-0.5-0.2-1-0.2-1.5c-0.1-1,0-2.1,0.1-2.9
			C221,189.6,221.2,189.1,221.3,189.2L221.3,189.2z"/>
	</g>
</g>
<g>
	<path class="st5" d="M316.3,30.8l-2.7,1.2l-0.5-1l6.6-3l0.5,1l-2.7,1.2l3.7,8.2l-1.2,0.5L316.3,30.8z"/>
	<path class="st5" d="M321.5,28.7l1-0.4l1.3,3.6l0,0c0.1-0.4,0.2-0.7,0.5-1c0.2-0.3,0.5-0.5,0.9-0.7c0.7-0.3,2.1-0.2,2.8,1.7
		l1.2,3.4l-1,0.4l-1.2-3.3c-0.3-0.9-1-1.6-1.9-1.2c-0.7,0.2-1,0.9-1,1.5c0,0.2,0,0.3,0.1,0.5l1.3,3.5l-1,0.4L321.5,28.7z"/>
	<path class="st5" d="M330.5,32c0.4,1.4,1.5,1.8,2.5,1.5c0.7-0.2,1.1-0.5,1.5-0.8l0.4,0.7c-0.3,0.3-0.9,0.6-1.8,0.9
		c-1.7,0.5-3.1-0.4-3.6-2.1c-0.5-1.8,0.1-3.4,1.7-3.9c1.8-0.5,2.8,1,3.1,2.1c0.1,0.2,0.1,0.4,0.1,0.5L330.5,32z M333.3,30.4
		c-0.2-0.7-0.8-1.6-1.9-1.3c-1,0.3-1.2,1.4-1.1,2.2L333.3,30.4z"/>
	<path class="st5" d="M342.3,27.9l-3.1,0.6l0.6,3l3.5-0.7l0.2,0.9l-4.5,0.9l-1.7-8.3l4.3-0.9l0.2,0.9l-3.3,0.7l0.5,2.6l3.1-0.6
		L342.3,27.9z"/>
	<path class="st5" d="M348.3,31.1l-0.7-5.2l-2.5,0.3l0.7,5.2l-1.1,0.1l-0.7-5.2l-0.8,0.1l-0.1-0.8l0.8-0.1l0-0.2
		c-0.1-0.8,0-1.6,0.4-2.1c0.3-0.4,0.7-0.7,1.4-0.8c0.3,0,0.7,0,0.9,0.1l-0.1,0.8c-0.2-0.1-0.4-0.1-0.6-0.1c-0.8,0.1-1,0.9-0.8,1.8
		l0,0.3l2.5-0.3l0-0.3c-0.1-0.8,0-1.6,0.4-2.2c0.3-0.5,0.9-0.7,1.3-0.8c0.4-0.1,0.7,0,0.9,0.1l0,0.9c-0.2-0.1-0.4-0.1-0.7,0
		c-0.9,0.1-1,1-0.9,1.9l0,0.3l1.4-0.2l0.1,0.8l-1.4,0.2l0.7,5.2L348.3,31.1z"/>
	<path class="st5" d="M351.8,27.8c0.1,1.5,1.1,2,2.2,2c0.8-0.1,1.2-0.2,1.6-0.4l0.2,0.8c-0.4,0.2-1,0.4-1.9,0.5
		c-1.8,0.1-3-1-3.1-2.9c-0.1-1.8,0.8-3.3,2.5-3.5c1.9-0.1,2.6,1.6,2.6,2.7c0,0.2,0,0.4,0,0.5L351.8,27.8z M354.9,26.8
		c0-0.7-0.4-1.8-1.6-1.7c-1.1,0.1-1.5,1.1-1.5,1.9L354.9,26.8z"/>
	<path class="st5" d="M357.3,26.2c0-0.7,0-1.3-0.1-1.9l0.9,0l0.1,1.2l0,0c0.3-0.8,0.9-1.4,1.6-1.4c0.1,0,0.2,0,0.3,0l0,1
		c-0.1,0-0.2,0-0.4,0c-0.8,0-1.3,0.6-1.4,1.4c0,0.2,0,0.3,0,0.5l0.1,3.2l-1.1,0L357.3,26.2z"/>
	<path class="st5" d="M362.1,24.2l1,3.5c0.2,0.6,0.3,1.1,0.4,1.6l0,0c0.2-0.5,0.3-1,0.6-1.5l1.3-3.4l1.1,0l-2.5,6l-1,0l-2-6.2
		L362.1,24.2z"/>
	<path class="st5" d="M367.9,27.8c-0.1,1.5,0.7,2.2,1.8,2.3c0.8,0.1,1.2,0,1.7-0.2l0.1,0.8c-0.4,0.1-1.1,0.3-2,0.2
		c-1.8-0.2-2.8-1.5-2.6-3.3c0.2-1.8,1.4-3.2,3.1-3c1.9,0.2,2.3,2,2.2,3.1c0,0.2-0.1,0.4-0.1,0.5L367.9,27.8z M371.1,27.3
		c0.1-0.7-0.1-1.8-1.3-1.9c-1.1-0.1-1.7,0.9-1.8,1.6L371.1,27.3z"/>
	<path class="st5" d="M373,30c0.3,0.3,0.8,0.6,1.3,0.7c0.8,0.1,1.2-0.2,1.3-0.7c0.1-0.5-0.2-0.9-0.9-1.3c-1-0.5-1.4-1.2-1.3-1.9
		c0.2-1,1-1.6,2.3-1.5c0.6,0.1,1.1,0.3,1.4,0.6l-0.4,0.8c-0.2-0.2-0.6-0.4-1.1-0.5c-0.6-0.1-1,0.2-1.1,0.7c-0.1,0.5,0.2,0.8,0.9,1.2
		c0.9,0.6,1.4,1.2,1.2,2.1c-0.2,1.1-1.1,1.7-2.5,1.5c-0.6-0.1-1.2-0.4-1.6-0.7L373,30z"/>
	<path class="st5" d="M381.8,32.6c-0.3,0.1-1,0.2-1.7,0c-1.7-0.4-2.6-1.8-2.2-3.6c0.4-1.8,1.9-2.9,3.8-2.5c0.6,0.1,1.1,0.4,1.4,0.6
		l-0.4,0.8c-0.2-0.2-0.6-0.4-1.2-0.5c-1.3-0.3-2.3,0.6-2.5,1.8c-0.3,1.4,0.4,2.4,1.5,2.7c0.6,0.1,1,0.1,1.4,0L381.8,32.6z"/>
	<path class="st5" d="M382.9,33.1l1.5-5.9l1,0.3l-1.5,5.9L382.9,33.1z M386,25.9c-0.1,0.4-0.4,0.6-0.8,0.5c-0.4-0.1-0.5-0.5-0.5-0.8
		c0.1-0.4,0.4-0.6,0.8-0.5C385.9,25.1,386.1,25.5,386,25.9z"/>
	<path class="st5" d="M386.8,29.6c0.2-0.6,0.3-1.1,0.5-1.6l0.9,0.3l-0.3,1l0,0c0.5-0.5,1.3-0.8,2.2-0.5c0.8,0.3,1.8,1.1,1.2,3.1
		l-1.1,3.5l-1-0.3l1.1-3.3c0.3-0.9,0.2-1.8-0.7-2.1c-0.7-0.2-1.4,0.1-1.7,0.6c-0.1,0.1-0.2,0.3-0.2,0.5l-1.1,3.5l-1-0.3L386.8,29.6z
		"/>
	<path class="st5" d="M398.7,32.2c-0.2,0.4-0.4,0.8-0.7,1.5l-1.4,3.3c-0.5,1.3-1.1,2-1.8,2.2c-0.7,0.3-1.6,0.1-2.3-0.1
		c-0.7-0.3-1.3-0.7-1.6-1.2l0.6-0.7c0.3,0.4,0.7,0.8,1.4,1.1c1,0.4,2,0.2,2.6-1.2l0.3-0.6l0,0c-0.5,0.4-1.3,0.6-2.1,0.2
		c-1.4-0.6-1.8-2.1-1.2-3.7c0.8-1.9,2.4-2.5,3.7-2c0.9,0.4,1.3,1.1,1.3,1.7l0,0l0.4-0.8L398.7,32.2z M396.8,34
		c0.1-0.2,0.1-0.3,0.1-0.5c0.1-0.7-0.2-1.4-0.9-1.7c-0.9-0.4-2,0.2-2.5,1.5c-0.5,1.1-0.3,2.2,0.8,2.7c0.6,0.3,1.3,0.1,1.8-0.5
		c0.1-0.2,0.2-0.3,0.3-0.5L396.8,34z"/>
	<path class="st5" d="M405.7,38.2l-2.8-1.5l-1.5,2.7l3.1,1.7l-0.4,0.8l-4-2.2l4.1-7.4l3.9,2.1l-0.4,0.8l-3-1.6l-1.3,2.3l2.8,1.5
		L405.7,38.2z"/>
	<path class="st5" d="M409.9,34.9l0.9,0.6L406,43l-0.9-0.6L409.9,34.9z"/>
	<path class="st5" d="M409.6,42c-0.9,1.2-0.5,2.3,0.4,2.9c0.6,0.4,1.1,0.6,1.5,0.7l-0.3,0.8c-0.4-0.1-1.1-0.3-1.8-0.8
		c-1.5-1.1-1.6-2.7-0.6-4.2c1.1-1.5,2.8-2.1,4.2-1.1c1.6,1.1,1,2.8,0.3,3.8c-0.1,0.2-0.3,0.3-0.3,0.4L409.6,42z M412.6,43.2
		c0.4-0.6,0.8-1.6-0.2-2.3c-0.9-0.6-1.9-0.1-2.4,0.5L412.6,43.2z"/>
	<path class="st5" d="M414.8,44.3c0.5-0.6,0.9-1.1,1.3-1.5l0.7,0.6l-0.6,0.8l0,0c0.8-0.3,1.6-0.2,2.4,0.5c1.1,0.9,1.1,2.6-0.1,4
		c-1.4,1.7-3.1,1.6-4.2,0.7c-0.6-0.5-0.9-1.2-0.8-1.9l0,0l-2.2,2.5l-0.8-0.7L414.8,44.3z M414.6,46.2c-0.1,0.1-0.2,0.3-0.3,0.4
		c-0.4,0.7-0.2,1.5,0.4,2c0.9,0.7,2,0.4,2.9-0.6c0.8-0.9,1-2.1,0.1-2.9c-0.6-0.5-1.4-0.5-2.1,0c-0.1,0.1-0.3,0.2-0.4,0.3L414.6,46.2
		z"/>
	<path class="st5" d="M423.6,45.7l0.7,0.8l-2.8,2.6l0,0c0.3-0.1,0.7-0.1,1.1,0c0.4,0.1,0.7,0.3,1,0.6c0.5,0.6,1.1,1.8-0.5,3.3
		l-2.6,2.5l-0.7-0.8l2.5-2.4c0.7-0.7,1.1-1.5,0.4-2.2c-0.5-0.5-1.2-0.6-1.8-0.3c-0.2,0.1-0.3,0.2-0.4,0.3l-2.7,2.5l-0.7-0.8
		L423.6,45.7z"/>
	<path class="st5" d="M423.6,59.2l0.6-0.5l0,0c-0.6,0-1.3-0.2-1.8-0.9c-0.7-0.9-0.4-2,0.3-2.5c1.2-0.9,2.6-0.4,4,1.4l0.1-0.1
		c0.4-0.3,1-1,0.3-1.9c-0.3-0.4-0.8-0.8-1.3-0.9l0.4-0.6c0.6,0.2,1.2,0.6,1.6,1.2c1.1,1.4,0.4,2.5-0.6,3.3l-1.8,1.4
		c-0.4,0.3-0.8,0.7-1.1,1L423.6,59.2z M426,57.1c-0.7-0.9-1.7-1.9-2.6-1.1c-0.6,0.4-0.5,1-0.2,1.4c0.5,0.6,1.2,0.7,1.7,0.5
		c0.1,0,0.2-0.1,0.3-0.2L426,57.1z"/>
	<path class="st5" d="M428.8,58.7c0.5-0.3,1-0.6,1.4-0.9l0.5,0.8l-0.8,0.6l0,0c0.6-0.1,1.5,0.2,2,1c0.4,0.7,0.7,2-1.1,3.1l-3.1,1.9
		l-0.6-0.9l3-1.9c0.8-0.5,1.3-1.3,0.8-2.1c-0.4-0.6-1.1-0.8-1.7-0.6c-0.1,0-0.3,0.1-0.5,0.2l-3.1,2l-0.6-0.9L428.8,58.7z"/>
	<path class="st5" d="M435.9,64.2l-1.6,0.8l0.7,1.4l-0.7,0.4l-0.7-1.4l-2.9,1.5c-0.7,0.3-1,0.7-0.7,1.3c0.1,0.2,0.3,0.4,0.4,0.5
		l-0.7,0.4c-0.2-0.1-0.4-0.4-0.6-0.8c-0.2-0.4-0.3-0.9-0.1-1.2c0.2-0.4,0.6-0.8,1.2-1.1l2.9-1.5l-0.4-0.8l0.7-0.4l0.4,0.8l1.3-0.7
		L435.9,64.2z"/>
</g>
<rect x="599.4" y="53.5" class="st6" width="21.7" height="4.7"/>
<radialGradient id="SVGID_5_" cx="425.115" cy="22.3437" r="7.6888" gradientUnits="userSpaceOnUse">
	<stop  offset="0" style="stop-color:#FF7BAC;stop-opacity:0"/>
	<stop  offset="0.931" style="stop-color:#FF7BAC"/>
</radialGradient>
<circle class="st7" cx="425.1" cy="22.3" r="7.7"/>
<path class="st8" d="M420.6,24.3c0.2-2.3,1.4-4.4,3.3-5.7"/>
<radialGradient id="SVGID_6_" cx="438.2764" cy="10.7937" r="4.376" gradientUnits="userSpaceOnUse">
	<stop  offset="0" style="stop-color:#CCE0F4"/>
	<stop  offset="6.405089e-002" style="stop-color:#C3DCF2"/>
	<stop  offset="0.1706" style="stop-color:#A9D2EE"/>
	<stop  offset="0.3066" style="stop-color:#80C2E7"/>
	<stop  offset="0.4649" style="stop-color:#47ACDE"/>
	<stop  offset="0.5674" style="stop-color:#1E9CD7"/>
	<stop  offset="0.8652" style="stop-color:#0075BE"/>
	<stop  offset="0.9944" style="stop-color:#005B97"/>
</radialGradient>
<circle class="st9" cx="438.3" cy="10.8" r="4.4"/>
<radialGradient id="SVGID_7_" cx="436.681" cy="10.2765" r="1.3235" gradientUnits="userSpaceOnUse">
	<stop  offset="0" style="stop-color:#CCE0F4"/>
	<stop  offset="6.405089e-002" style="stop-color:#C3DCF2"/>
	<stop  offset="0.1706" style="stop-color:#A9D2EE"/>
	<stop  offset="0.3066" style="stop-color:#80C2E7"/>
	<stop  offset="0.4649" style="stop-color:#47ACDE"/>
	<stop  offset="0.5674" style="stop-color:#1E9CD7"/>
	<stop  offset="0.8652" style="stop-color:#0075BE"/>
	<stop  offset="0.9944" style="stop-color:#005B97"/>
</radialGradient>
<path class="st10" d="M435.7,11.9c0.1-1.3,0.8-2.5,1.9-3.2"/>
<radialGradient id="SVGID_8_" cx="97.0537" cy="82.2048" r="5.6385" gradientTransform="matrix(-0.7406 0.672 -0.672 -0.7406 434.8359 9.8884)" gradientUnits="userSpaceOnUse">
	<stop  offset="0" style="stop-color:#FF7BAC;stop-opacity:0"/>
	<stop  offset="0.931" style="stop-color:#FF7BAC"/>
</radialGradient>
<circle class="st11" cx="307.7" cy="14.2" r="5.6"/>
<path class="st8" d="M309.2,11c1,1.3,1.4,3.1,1,4.7"/>
<radialGradient id="SVGID_9_" cx="106.7055" cy="73.7348" r="3.2091" gradientTransform="matrix(-0.7406 0.672 -0.672 -0.7406 434.8359 9.8884)" gradientUnits="userSpaceOnUse">
	<stop  offset="0" style="stop-color:#CCE0F4"/>
	<stop  offset="6.405089e-002" style="stop-color:#C3DCF2"/>
	<stop  offset="0.1706" style="stop-color:#A9D2EE"/>
	<stop  offset="0.3066" style="stop-color:#80C2E7"/>
	<stop  offset="0.4649" style="stop-color:#47ACDE"/>
	<stop  offset="0.5674" style="stop-color:#1E9CD7"/>
	<stop  offset="0.8652" style="stop-color:#0075BE"/>
	<stop  offset="0.9944" style="stop-color:#005B97"/>
</radialGradient>
<circle class="st12" cx="306.3" cy="27" r="3.2"/>
<radialGradient id="SVGID_10_" cx="105.5355" cy="73.3555" r="0.9706" gradientTransform="matrix(-0.7406 0.672 -0.672 -0.7406 434.8359 9.8884)" gradientUnits="userSpaceOnUse">
	<stop  offset="0" style="stop-color:#CCE0F4"/>
	<stop  offset="6.405089e-002" style="stop-color:#C3DCF2"/>
	<stop  offset="0.1706" style="stop-color:#A9D2EE"/>
	<stop  offset="0.3066" style="stop-color:#80C2E7"/>
	<stop  offset="0.4649" style="stop-color:#47ACDE"/>
	<stop  offset="0.5674" style="stop-color:#1E9CD7"/>
	<stop  offset="0.8652" style="stop-color:#0075BE"/>
	<stop  offset="0.9944" style="stop-color:#005B97"/>
</radialGradient>
<path class="st13" d="M307.1,25.1c0.6,0.8,0.8,1.7,0.6,2.7"/>
<radialGradient id="SVGID_11_" cx="379.8314" cy="44.7295" r="4.376" gradientUnits="userSpaceOnUse">
	<stop  offset="0" style="stop-color:#CCE0F4"/>
	<stop  offset="6.405089e-002" style="stop-color:#C3DCF2"/>
	<stop  offset="0.1706" style="stop-color:#A9D2EE"/>
	<stop  offset="0.3066" style="stop-color:#80C2E7"/>
	<stop  offset="0.4649" style="stop-color:#47ACDE"/>
	<stop  offset="0.5674" style="stop-color:#1E9CD7"/>
	<stop  offset="0.8652" style="stop-color:#0075BE"/>
	<stop  offset="0.9944" style="stop-color:#005B97"/>
</radialGradient>
<circle class="st14" cx="379.8" cy="44.7" r="4.4"/>
<radialGradient id="SVGID_12_" cx="378.236" cy="44.2123" r="1.3235" gradientUnits="userSpaceOnUse">
	<stop  offset="0" style="stop-color:#CCE0F4"/>
	<stop  offset="6.405089e-002" style="stop-color:#C3DCF2"/>
	<stop  offset="0.1706" style="stop-color:#A9D2EE"/>
	<stop  offset="0.3066" style="stop-color:#80C2E7"/>
	<stop  offset="0.4649" style="stop-color:#47ACDE"/>
	<stop  offset="0.5674" style="stop-color:#1E9CD7"/>
	<stop  offset="0.8652" style="stop-color:#0075BE"/>
	<stop  offset="0.9944" style="stop-color:#005B97"/>
</radialGradient>
<path class="st15" d="M377.3,45.8c0.1-1.3,0.8-2.5,1.9-3.2"/>
<ellipse class="st16" cx="319.9" cy="138.1" rx="40.3" ry="20.1"/>
<g id="XMLID_2_">
	<g>
		<linearGradient id="SVGID_13_" gradientUnits="userSpaceOnUse" x1="408.6801" y1="150.2988" x2="498.9297" y2="150.2988">
			<stop  offset="4.926108e-003" style="stop-color:#FF7BAC"/>
			<stop  offset="0.5018" style="stop-color:#FF99AC"/>
			<stop  offset="0.9951" style="stop-color:#FFB2AC"/>
		</linearGradient>
		<path class="st17" d="M479,162.8c0.8,4.4,1.9,9.2,6,12.3c3.9,2.9,9,3.3,14,4.4c-2.9,0.1-18.3,4.4-23.1,6
			c-4.1,1.4-8.2,2.7-12.4,4.1c-4.4,1.5-8.9,2.9-13.6,3c-2.4,0-4.9-0.4-7.2,0.4c-2.5,0.9-4.5,3.1-7.1,3.8c-3.5,0.9-7.2-1.1-10.7-0.2
			c-1.5,0.4-2.9,1.3-4.4,2c-2.5,1.1-5.3,1.3-7.9,0.6c-2.1-6-3.9-12.3-4-18.6c-0.1-6.4,1.7-13,6-17.7c2.5-2.8,5.8-4.9,8.1-8
			c3.1-4.2,3.8-9.5,4.5-14.7c0.4-2.7,0.7-5.4,0.1-8c-0.4-1.9-1.2-3.6-1.7-5.4c-1.1-4.6,0.3-9.8-1.7-14c-1.1-2.2-2.9-4.5-1.7-6.7
			c2-3.6,6.5-4.9,10.6-4.7c4.1,0.2,8,1.6,12.1,1.9c2.9,0.2,6-0.1,8.7,0.9c3.7,1.4,6.5,5.3,10.5,5.2l0.5-0.3c1.7,2.7,3.2,5.5,4.6,8.4
			c1.2,2.5,2.9,5.3,5.9,6c2.9,0.8,6.4-0.6,8.5,1.4c1.2,4.5-3.6,7.5-5.9,11.2c-2.6,4.3-1.7,9.7-0.8,14.8
			C477.6,154.8,478.3,158.8,479,162.8z"/>
		<linearGradient id="SVGID_14_" gradientUnits="userSpaceOnUse" x1="458.6192" y1="141.2629" x2="504.6545" y2="141.2629">
			<stop  offset="0.3005" style="stop-color:#666666"/>
			<stop  offset="0.7391" style="stop-color:#9A9A9A"/>
			<stop  offset="0.9951" style="stop-color:#B3B3B3"/>
		</linearGradient>
		<path class="st18" d="M483.5,124.7c-2.1-2-5.6-0.6-8.5-1.4c-3-0.8-4.6-3.6-5.9-6c-1.4-2.8-2.9-5.6-4.6-8.4
			c-1.7-2.7-3.6-5.3-5.9-7.7l0,0c5,4.6,3.3,3.1,9.1,6.9c3.4,2.2,7,4,10.3,6.3c9.7,6.5,16.5,16.1,18.1,25.7c1.2,7.1-0.3,14-0.2,21
			c0.1,7,2.1,14.9,8.6,20.4c-1.7-0.8-3.4-1.3-5.3-1.7c0-0.1-0.2-0.1-0.5-0.1c-4.9-1.1-10.1-1.5-14-4.4c-4.1-3.1-5.2-7.9-6-12.3
			c-0.7-4-1.5-8.1-2.2-12.1c-0.9-5.1-1.8-10.6,0.8-14.8C479.9,132.2,484.7,129.1,483.5,124.7z"/>
		<path class="st19" d="M328.1,221.9l1.6-9.1c0.8-0.3,1.6-0.5,2.4-0.8l4-1l6.9-2.7l7.9-4.6l16.7-13.7c0,0-3.7,17.7-24.9,26.3
			C338.6,217.9,332.5,221.2,328.1,221.9z"/>
		<path class="st20" d="M334,143.6c-3.4-2.1-7.1-3.1-10.8-3.2h-0.1c1-4.5,4.2-7.1,7.2-5.8c2.8,1.2,4.4,5.1,4.1,9.2L334,143.6z"/>
		<path class="st21" d="M331.4,150.6c0.2-0.2,0.3-0.5,0.4-0.8v0c0.2-0.2,0.3-0.3,0.5-0.5C332.2,149.8,331.9,150.3,331.4,150.6z"/>
		<path class="st21" d="M331.3,150.8c0.1-0.1,0.1-0.1,0.2-0.2C331.4,150.7,331.3,150.7,331.3,150.8z"/>
		<path d="M329.8,151.2c0.7-0.2,1.4-0.7,2-1.3c-0.1,0.3-0.2,0.5-0.4,0.8c-0.1,0.1-0.1,0.1-0.2,0.2c-0.1,0.1-0.1,0.1-0.2,0.1
			c0,0,0,0,0,0C330.7,151.2,330.2,151.3,329.8,151.2z"/>
		<path class="st19" d="M329.7,212.5l2.4-0.6c-0.8,0.3-1.6,0.6-2.4,0.8L329.7,212.5z"/>
		<path d="M331.9,149.9c-0.6,0.6-1.3,1.1-2,1.3c-0.5-0.1-0.9-0.3-1.2-0.7c-0.5-0.8-0.3-1.9,0.6-2.4c0.8-0.5,1.9-0.3,2.4,0.5
			C331.9,148.9,332,149.4,331.9,149.9L331.9,149.9z"/>
		<path class="st21" d="M329.8,151.2c0.4,0.1,0.8,0,1.2-0.3c0,0,0,0-0.1,0c-0.8,0.5-1.7,0.6-2.5,0.5
			C328.9,151.5,329.4,151.4,329.8,151.2z"/>
		<linearGradient id="SVGID_15_" gradientUnits="userSpaceOnUse" x1="277.0935" y1="197.8744" x2="357.4824" y2="197.8744">
			<stop  offset="4.926108e-003" style="stop-color:#FFFFA8"/>
			<stop  offset="0.668" style="stop-color:#FFFFE6"/>
			<stop  offset="0.9951" style="stop-color:#FFFFFF"/>
		</linearGradient>
		<path class="st22" d="M343.3,207.2c-3.6,1.8-7.4,3.4-11.2,4.7l-2.4,0.6l0,0.2c-0.6,0.2-1.2,0.4-1.8,0.5c-6.8,2-13.8,3.4-20.8,3.9
			c-10.3,0.8-20.6,0-30-2.5l0.1-0.5c25.9-7.7,50.3-20,71-35.8l0.5-0.2c2.7,2.3,5.2,4.8,7.3,7.5c0.4,0.5,0.8,1.1,1.1,1.7
			c0.7,1.7,0.3,3.6-0.1,5.5c-0.4,1.6-0.7,3.2-1.1,4.8C352.9,202.2,348.6,204.5,343.3,207.2z"/>
		<path class="st16" d="M329.7,144.9c0.1,0.1,0.1,0.2,0.2,0.3c-0.8-0.1-1.5,0.1-2.2,0.5c-0.4,0.3-0.7,0.6-1,1
			c-0.4-0.8-0.1-1.8,0.6-2.3C328.1,143.9,329.2,144.1,329.7,144.9z"/>
		<path class="st21" d="M331.7,148.5c-0.5-0.8-1.6-1-2.4-0.5c-0.8,0.5-1.1,1.6-0.6,2.4c0.3,0.4,0.7,0.7,1.2,0.7
			c-0.4,0.2-0.9,0.2-1.4,0.2c0,0,0,0,0,0c-0.8-0.2-1.4-0.6-1.9-1.3c-0.7-1.1-0.6-2.4,0.1-3.4c0,0,0,0.1,0.1,0.1
			c0.5,0.8,1.6,1,2.4,0.5c0.7-0.5,1-1.3,0.7-2.1c0.9,0.1,1.7,0.6,2.2,1.4c0.5,0.8,0.6,1.8,0.3,2.7l0,0c-0.1,0.2-0.3,0.4-0.5,0.5
			C332,149.4,331.9,148.9,331.7,148.5z"/>
		<path class="st16" d="M329.9,145.2c0.3,0.7,0,1.6-0.7,2.1c-0.8,0.5-1.9,0.3-2.4-0.5c0,0-0.1-0.1-0.1-0.1c0.2-0.4,0.6-0.7,1-1
			C328.3,145.3,329.1,145.1,329.9,145.2z"/>
		<path class="st20" d="M334.4,143.9c0.4-4.1-1.3-8.1-4.1-9.2c-3-1.3-6.2,1.3-7.2,5.8l-2.4,0c-0.1,0-0.2-0.2-0.1-0.4
			c0.9-4.8,5.6-8.4,7.9-7.9c4.4,1,7.2,4.5,7.5,11c0,0.6,0,1.1,0,1.7L334.4,143.9z"/>
		<path class="st20" d="M294.6,137.3c-0.9-4,0.2-8.3,2.8-10.2c0.3-0.2,0.6-0.4,0.9-0.5c2.7-1.1,5.6,0.7,7,4.5
			c0.1,0.4,0.2,0.8,0.3,1.1h0C301.8,133,298.1,134.7,294.6,137.3z"/>
		<path class="st21" d="M304.3,141c0.1-0.1,0.1-0.2,0.2-0.3c-0.1,0.4-0.3,0.8-0.6,1.1C304.1,141.6,304.2,141.3,304.3,141z"/>
		<path d="M303,142.4c0.5-0.4,0.9-0.9,1.3-1.4c-0.1,0.3-0.2,0.6-0.4,0.8C303.6,142.1,303.3,142.3,303,142.4z"/>
		<path class="st21" d="M303.8,141.9c-0.5,0.6-1.2,1-1.8,1.1c0.3-0.1,0.5-0.3,0.8-0.5c0.1,0,0.1-0.1,0.2-0.1
			C303.3,142.3,303.6,142.1,303.8,141.9C303.9,141.8,303.8,141.9,303.8,141.9z"/>
		<path d="M303,142.4c-0.5,0.1-1.1,0-1.5-0.3c-0.7-0.6-0.8-1.7-0.1-2.5c0.6-0.7,1.7-0.9,2.5-0.2c0.5,0.4,0.7,1,0.5,1.6
			C303.9,141.5,303.5,142,303,142.4z"/>
		<path class="st20" d="M305.3,131.2c-1.3-3.8-4.3-5.6-7-4.5l-0.2-0.4c4.1-1.8,7.4-0.7,9.2,4.2c0.2,0.5,0.3,0.9,0.4,1.4l-2.2,0.4
			C305.5,131.9,305.4,131.5,305.3,131.2z"/>
		<path class="st16" d="M298.4,139c0.1-0.4,0.4-0.8,0.7-1.2c0.5-0.6,1.3-1,2-1.1c0.5,0.6,0.4,1.5-0.1,2.2c-0.6,0.8-1.7,0.9-2.5,0.3
			C298.5,139.1,298.5,139.1,298.4,139z"/>
		<path class="st21" d="M299.3,142.4c-1-0.8-1.3-2.1-0.9-3.3c0,0,0.1,0.1,0.1,0.1c0.7,0.6,1.8,0.5,2.5-0.3c0.6-0.6,0.6-1.6,0.1-2.2
			c0.9-0.1,1.8,0.1,2.5,0.7c1,0.8,1.3,2.1,0.9,3.3c-0.1,0.1-0.1,0.2-0.2,0.3c0.1-0.6,0-1.2-0.5-1.6c-0.7-0.6-1.8-0.5-2.5,0.2
			c-0.6,0.8-0.6,1.9,0.1,2.5c0.4,0.4,1,0.5,1.5,0.3c-0.1,0-0.1,0.1-0.2,0.1c-0.3,0.2-0.5,0.3-0.8,0.5c0,0,0,0,0,0
			C301.1,143.2,300.1,143,299.3,142.4z"/>
		<path class="st16" d="M299.1,137.8c-0.3,0.4-0.5,0.8-0.7,1.2c-0.6-0.6-0.6-1.6,0-2.4c0.6-0.7,1.7-0.9,2.5-0.2
			c0.1,0.1,0.2,0.2,0.2,0.3C300.4,136.8,299.6,137.2,299.1,137.8z"/>
		<path class="st20" d="M294.3,137.5l-2.5,1.9c-0.1,0.1-0.2,0-0.2-0.2c-0.4-4.7,3.3-11.2,5.7-12.4c0.3-0.2,0.6-0.3,0.9-0.4l0.2,0.4
			c-0.3,0.1-0.6,0.3-0.9,0.5c-2.6,1.8-3.7,6.2-2.8,10.2C294.5,137.4,294.4,137.4,294.3,137.5z"/>
		<linearGradient id="SVGID_16_" gradientUnits="userSpaceOnUse" x1="179.4092" y1="169.0152" x2="505.7141" y2="169.0152">
			<stop  offset="4.926108e-003" style="stop-color:#666666"/>
			<stop  offset="0.6302" style="stop-color:#9A9A9A"/>
			<stop  offset="0.9951" style="stop-color:#B3B3B3"/>
		</linearGradient>
		<path class="st23" d="M334.2,145.2c0.1-0.4,0.2-0.9,0.2-1.3l1.6,1c0-0.5,0-1.1,0-1.7c-0.3-6.5-3.1-10-7.5-11
			c-2.3-0.5-7,3.1-7.9,7.9c0,0.2,0,0.4,0.1,0.4l2.4,0c0,0,0,0.1,0,0.1c-0.9,4.6,0.8,9.3,3.9,10.6c0.5,0.2,1,0.3,1.5,0.3c0,0,0,0,0,0
			c0.8,0.2,1.7,0,2.5-0.5c0,0,0,0,0.1,0c0,0,0,0,0,0c0.1,0,0.1-0.1,0.2-0.1c0.1,0,0.1-0.1,0.2-0.2c0.4-0.4,0.7-0.8,0.9-1.3l0,0
			C333.2,148.3,333.8,146.9,334.2,145.2z M282.7,60.5c-0.8-1.5-1.1-3.4-2.1-4.8c-2.1-2.9-6.4-2.8-9.4-4.7c-3-1.9-4.4-5.7-6.9-8.4
			c-3.7-4-10.2-4.9-14.9-2l-0.6-0.2c0.1-0.4,0.3-0.8,0.5-1.2c0.2-0.3,0.3-0.6,0.5-1c1-1,3.1-3.1,6.2-3.1c8.2,1,15.4,0,23.7,1
			c4.1,1,8.2,4.1,12.4,7.2c4.5,3.6,8.3,11.2,4.5,15.4l0.1,0.1c10.4-3.5,21.5-6,33.1-6.4c11.7-0.4,25.2,2.4,36.2,7.4l0,0.1
			c3.4-0.4,7.8,1.2,11.3,2.9c6.9,3.3,13.8,6.9,20.4,10.7c5.8,3.3,11.7,7,15.2,12c2.5,3.6,3.6,7.8,6.6,11.2c0.8-0.5,1.6-0.9,2.5-1.3
			c5.1-2.3,10.6-4.6,16.8-4.3c7.2,0.4,14.2,4.4,19.2,9.4c0.2,0.2,0.5,0.5,0.7,0.7c2.3,2.4,4.2,5,5.9,7.7l-0.5,0.3
			c-3.9,0.1-6.8-3.8-10.5-5.2c-2.7-1.1-5.8-0.7-8.7-0.9c-4.1-0.3-8-1.7-12.1-1.9c-4.1-0.2-8.6,1.1-10.6,4.7
			c-1.2,2.2,0.7,4.5,1.7,6.7c2,4.3,0.6,9.4,1.7,14c0.4,1.8,1.3,3.6,1.7,5.4c0.6,2.6,0.2,5.4-0.1,8c-0.7,5.1-1.4,10.5-4.5,14.7
			c-2.3,3-5.5,5.2-8.1,8c-4.2,4.8-6,11.4-6,17.7c0.1,6.4,1.8,12.6,4,18.6c2.6,0.7,5.4,0.5,7.9-0.6c1.5-0.6,2.8-1.6,4.4-2
			c3.5-0.9,7.2,1.1,10.7,0.2c2.6-0.7,4.5-2.9,7.1-3.8c2.3-0.8,4.8-0.4,7.2-0.4c4.7,0,9.2-1.5,13.6-3c4.1-1.4,8.2-2.7,12.4-4.1
			c4.8-1.6,20.3-5.8,23.1-6c0.2,0,0.3,0.1,0.5,0.1c1.8,0.4,3.6,0.9,5.3,1.7c0.3,0.2,0.7,0.3,0.9,0.6c0.7,0.9-0.5,1.7-1.5,2
			c-10,3.2-22.1,2.5-31,7.3c-2.4,1.3-4.5,3-7.1,4.1c-4.3,1.8-9.5,1.6-14.4,2.2c-5.6,0.6-10.9,2.2-15.5,4.6c-0.8,0.4-1.7,0.9-2.7,1
			c-0.9,0.1-1.8-0.1-2.7-0.2c-3.4-0.5-6.9-0.3-9.9,0.6c-3.2,1-6.6,2.8-10,1.3c-1.7-0.7-2.9-2-4.1-3.3c-2.4-2.7-5-5.6-5.2-8.7
			c-0.3-4.8,4.1-10.4,1-14.8l-0.2-0.1c-0.9,1.3-1.9,2.5-2.9,3.7c-6.4,7.9-12.9,15.9-21.7,22c-6.3,4.4-9.6,6.5-17.7,8.7h0
			c-10.2,7.2-22.7,12.6-34.6,15.1c-0.5,0.1-1.1,0.1-1.3-0.3c-0.2-0.3,0.2-0.6,0.1-0.9c-0.9-3.2,2-9.8,3.9-12.5l-0.2-0.6
			c0.6-0.2,1.2-0.4,1.8-0.5l-1.6,9.1c4.4-0.7,10.5-4,14.6-5.6c21.3-8.6,24.9-26.3,24.9-26.3l-16.7,13.7l-7.9,4.6l-6.9,2.7l-4,1
			c3.8-1.3,7.6-2.9,11.2-4.7c5.3-2.7,9.6-5,12.6-9.5c0.4-1.6,0.7-3.2,1.1-4.8c0.4-1.8,0.8-3.8,0.1-5.5c-0.3-0.6-0.7-1.2-1.1-1.7
			c-2.1-2.7-4.5-5.2-7.3-7.5l-0.5,0.2c-20.7,15.8-45.1,28.1-71,35.8l-0.1,0.5c9.4,2.6,19.7,3.4,30,2.5l0,0.3
			c-13.6,19.8-28,45.1-43.9,62.7c-11.7,13-27.8,23.7-46.3,22.7c-15.4,0-34.5-23.7-36-30.9c-6.1-28.3,8.2-52.5,22.7-75.2
			c3.1-5.1,6.2-11.3,4.1-16.5c-2.1-3.1-6.2-6.2-7.2-10.3c0-1,0-2.1,0.4-2.8c0.6,1.1,5.7,0.9,6.9,0.5c1.2-0.4,2.5-0.9,3.6-0.5
			c1.1,0.5,2.2,1.8,3.3,1.2c0.7-0.4,0.7-1.4,0.9-2.2c0.6-1.6,2.5-2.3,4.1-2.7s3.6-0.9,4.4-2.4c0.3,1.3-1.4,4.8,0.2,11.4
			c2.2,9.2-0.7,15.3-2.1,23.2c-2.4,13.3-8.9,27.5-12.4,34.7c-0.7,1.5-4.1,6.2-5.3,10.2c-3.2,11.5-2.1,15.6,1.7,23.6
			c4.6,9.9,16.3,7.7,24.2,2.1c11.6-8.2,14-13.9,22.3-24.2c4.1-5.1,7.6-16.5,10.7-21.6c4.4-7.8,5-16.4,5.8-25.1
			c0.1-1.6,0.3-3.2,0.4-4.7c1-7.2,3.1-14.4,6.2-20.6c0.3-0.5,0.5-0.9,0.8-1.4l-0.5-0.3l-2.2,1.1l-8.6,5.3l-0.3-0.7
			c-1.9-5.5-3.8-11.5-1.4-16.3c0.8-1.6,2.1-3,2.8-4.6c2.5-5.4-1.4-12.3-0.2-18.2c0.4-2.2,1.6-4.2,2-6.4c0.5-3-0.4-6.2,0-9.3
			c0.5-4.2,3.3-7.6,6.7-10.5l-0.2-0.3c0.5-0.4,0.9-1,1.2-1.7c0.1,0.1,0.2,0.1,0.1-0.1c0,0,0,0.1-0.1,0.1c-0.1-0.1-0.1-0.1-0.2-0.2
			c2.2-11.7,5.2-23.2,9.2-34.4c0.2-0.5,0.3-1,0.5-1.5c0.6-2,1.1-4.1,0.3-6C284.8,63,283.5,61.9,282.7,60.5z M291.6,139.1
			c0,0.2,0.1,0.3,0.2,0.2l2.5-1.9c0.1-0.1,0.2-0.1,0.3-0.2c0.1,0.4,0.2,0.8,0.4,1.2c1.3,3.8,4.3,5.7,7,4.5c0,0,0,0,0,0
			c0.7-0.2,1.3-0.5,1.8-1.1c0,0,0-0.1,0.1-0.1c0.3-0.3,0.5-0.7,0.6-1.1c1.4-2.2,1.9-5.4,1.1-8.4l2.2-0.4c-0.1-0.5-0.3-0.9-0.4-1.4
			c-1.9-4.9-5.1-6-9.2-4.2c-0.3,0.1-0.6,0.3-0.9,0.4C294.9,128,291.2,134.5,291.6,139.1z"/>
		<linearGradient id="SVGID_17_" gradientUnits="userSpaceOnUse" x1="226.7235" y1="182.6704" x2="276.414" y2="182.6704">
			<stop  offset="4.926108e-003" style="stop-color:#FFFFA8"/>
			<stop  offset="0.668" style="stop-color:#FFFFE6"/>
			<stop  offset="0.9951" style="stop-color:#FFFFFF"/>
		</linearGradient>
		<path class="st24" d="M275.6,170c-3.1,6.2-5.1,13.4-6.2,20.6c-0.2,1.6-0.3,3.2-0.4,4.7l-0.3,0l-2.3,0.9
			c-13.3,1.9-27.2,0.5-39.7-4.4l0.1-0.7c13.3-4,26.2-9.5,38.3-16.5c2.9-1.7,5.8-3.4,8.6-5.3l2.2-1.1l0.5,0.3
			C276.2,169.1,275.9,169.5,275.6,170z"/>
		<path class="st25" d="M247.8,142.6c-1.1-2.1-2.8-4.1-3.6-6.3c-0.7-2.2-0.5-4.5-1.9-6.5c-3-4.2-11.2-3.9-14.3-8.1
			c-1.8-2.5-1-5.5-2.2-8.2c-2.2-4.8-10.1-7.1-11.8-12c-0.6-1.7-0.2-3.4-0.8-5.1c-1.1-3.3-5.1-5.6-8.7-7.5c-3.6-1.9-7.5-4.4-8.2-7.8
			c-0.4-2.1,0.6-3.9,2.2-5.5c1,1,2.1,1.8,3.2,2.5c-0.5,3.3,3.4,3.7,6.4,4.9c5.2,2.2,9.5,6.3,12,11.5c1,2,1.7,4.2,3.2,5.9
			c1.1,1.3,2.5,2.2,3.7,3.3c2.3,2,4,4.7,4.9,7.7c0.3,1.1,0.5,2.2,1.1,3.2c1.1,2,3.3,2.9,5.2,4c6.5,3.5,11.5,9.7,13.8,16.8
			c0.3,0.9,0.5,1.8,1.2,2.4c1.2,1.2,3.2,0.8,4.4-0.3c1.2-1.1,1.7-2.8,2.2-4.4c0.8-3.2,1.3-6.5,1.5-9.8c0.2-4.1,0.3-8.9,3.5-11.3
			c2.8-2.1,7.3-1.8,9.7-3.8l0.2,0.3c-3.3,3-6.2,6.3-6.7,10.5c-0.4,3,0.5,6.3,0,9.3c-0.4,2.2-1.5,4.2-2,6.4l-2,4.8
			c-0.5,1.5-1,3-1.5,4.5c-0.6,1.9-1.3,3.9-2.8,5.3c-1.5,1.4-4.1,2.2-6.4,1.2C250,149.3,249.3,145.5,247.8,142.6z"/>
		<linearGradient id="SVGID_18_" gradientUnits="userSpaceOnUse" x1="200.6109" y1="163.2629" x2="224.448" y2="163.2629">
			<stop  offset="0" style="stop-color:#FF7BAC"/>
			<stop  offset="0.379" style="stop-color:#C0728F"/>
			<stop  offset="0.8007" style="stop-color:#7F6972"/>
			<stop  offset="1" style="stop-color:#666666"/>
		</linearGradient>
		<path class="st26" d="M206.3,161.4c2.7-0.3,5.6,0.2,8.1-0.6c1.8-0.6,3.3-1.9,5-2.5c1.8-0.6,4.2-0.4,5,1.4l-0.5,1.7
			c-0.8,1.5-2.7,2-4.4,2.4s-3.6,1.1-4.1,2.7c-0.3,0.8-0.2,1.8-0.9,2.2c-1.1,0.6-2.1-0.7-3.3-1.2c-1.2-0.5-2.4,0.1-3.6,0.5
			c-1.2,0.4-6.3,0.6-6.9-0.5l-0.1-1.1C200.6,163.5,203.6,161.7,206.3,161.4z M213.8,162.5c-0.8,0.3-1.8,0.2-2.7,0.3
			c-2.7,0.1-5.3,0.7-7.7,1.9c-0.1,0.1-0.1,0.2-0.1,0.3c0,0,0,0,0.1,0c1.2,0.4,2.5-0.1,3.7-0.5c1.7-0.5,3.6-0.6,5.3-0.3
			c0.3,0.1,0.5,0.1,0.8,0c0.2-0.1,0.4-0.3,0.6-0.5c0.8-0.9,2-1.5,3.2-1.8c0.6-0.1,1.2-0.2,1.8-0.4c0.9-0.4,1.6-1.2,2.6-1.5
			c-0.9,0-1.5,0.8-2.3,1.2c-1,0.4-2.2,0.1-3.2,0.4C215.1,161.8,214.5,162.3,213.8,162.5z"/>
		<radialGradient id="SVGID_19_" cx="198.3981" cy="120.562" r="7.7223" gradientUnits="userSpaceOnUse">
			<stop  offset="0" style="stop-color:#FF7BAC;stop-opacity:0"/>
			<stop  offset="1" style="stop-color:#FF7BAC"/>
		</radialGradient>
		<circle class="st27" cx="198.4" cy="120.6" r="7.7"/>
		<linearGradient id="SVGID_20_" gradientUnits="userSpaceOnUse" x1="201.7392" y1="88.755" x2="285.8194" y2="88.755">
			<stop  offset="4.926108e-003" style="stop-color:#FF7BAC"/>
			<stop  offset="0.5018" style="stop-color:#FF99AC"/>
			<stop  offset="0.9951" style="stop-color:#FFB2AC"/>
		</linearGradient>
		<path class="st28" d="M252,135.5c-2.3-7.1-7.3-13.3-13.8-16.8c-1.9-1.1-4.1-2-5.2-4c-0.5-1-0.7-2.1-1.1-3.2
			c-0.8-3-2.6-5.7-4.9-7.7c-1.2-1.1-2.7-2-3.7-3.3c-1.5-1.7-2.2-3.9-3.2-5.9c-2.5-5.1-6.8-9.3-12-11.5c-3-1.3-6.9-1.6-6.4-4.9
			c8.6,5.5,19.3,2.3,27.5-4.1c5.1-4.1,5.1-10.3,9.3-14.4c2.1-2.1,5.1-3.1,7.2-5.1c2.7-4.5,1.5-9.7,3.1-14.4l0.6,0.2
			c4.6-2.8,11.1-1.9,14.9,2c2.5,2.6,3.8,6.4,6.9,8.4c3,1.9,7.3,1.8,9.4,4.7c1,1.4,1.2,3.3,2.1,4.8c0.8,1.4,2.1,2.6,2.7,4.1
			c0.8,1.9,0.4,4-0.3,6c-0.2,0.5-0.3,1-0.5,1.5c-3.9,11.2-7,22.7-9.2,34.4c-0.1-0.1-0.1-0.1,0,0.2c0-0.1,0-0.1,0-0.2
			c0.1,0,0.1,0.1,0.2,0.2c-0.3,0.7-0.7,1.2-1.2,1.7c-2.4,2-6.9,1.8-9.7,3.8c-3.2,2.4-3.3,7.2-3.5,11.3c-0.2,3.3-0.7,6.6-1.5,9.8
			c-0.4,1.6-1,3.3-2.2,4.4c-1.2,1.1-3.3,1.5-4.4,0.3C252.5,137.3,252.3,136.4,252,135.5z"/>
		<linearGradient id="SVGID_21_" gradientUnits="userSpaceOnUse" x1="198.6246" y1="60.1354" x2="249.355" y2="60.1354">
			<stop  offset="0.3005" style="stop-color:#666666"/>
			<stop  offset="0.7391" style="stop-color:#9A9A9A"/>
			<stop  offset="0.9951" style="stop-color:#B3B3B3"/>
		</linearGradient>
		<path class="st29" d="M241.5,45.4c2.5-2.2,4.6-4.8,7.8-6.2c-0.2,0.4-0.3,0.8-0.5,1.2c-1.6,4.7-0.5,9.9-3.1,14.4
			c-2.1,2.1-5.1,3.1-7.2,5.1c-4.1,4.1-4.1,10.3-9.3,14.4c-8.2,6.4-18.9,9.6-27.5,4.1c-1.1-0.7-2.1-1.5-3.2-2.5c1-1,2.2-1.9,3.3-2.7
			c11.2-7.8,22.5-15.6,33.7-23.4C237.7,48.4,239.7,47,241.5,45.4z"/>
		<linearGradient id="SVGID_22_" gradientUnits="userSpaceOnUse" x1="183.4709" y1="97.3946" x2="189.6449" y2="97.3946">
			<stop  offset="0" style="stop-color:#FF7BAC"/>
			<stop  offset="1" style="stop-color:#FF7BAC;stop-opacity:0"/>
		</linearGradient>
		<path class="st30" d="M189.5,96.4c0.5,1.6-0.3,3.4-1.9,3.9c-1.6,0.5-3.4-0.3-3.9-1.9c0,0,0-0.1,0-0.1c-0.5-1.6,0.4-3.2,2-3.8
			c1-0.3,2-0.1,2.8,0.4C188.9,95.3,189.3,95.8,189.5,96.4z"/>
		<radialGradient id="SVGID_23_" cx="181.9238" cy="90.7024" r="7.7223" gradientUnits="userSpaceOnUse">
			<stop  offset="0" style="stop-color:#FF7BAC;stop-opacity:0"/>
			<stop  offset="1" style="stop-color:#FF7BAC"/>
		</radialGradient>
		<path class="st31" d="M181.9,98.4c-4.3,0-7.7-3.5-7.7-7.7c0-4.3,3.5-7.7,7.7-7.7s7.7,3.5,7.7,7.7c0,1.6-0.5,3-1.3,4.2
			c-0.8-0.6-1.8-0.8-2.8-0.4c-1.6,0.5-2.4,2.2-2,3.8l-0.1,0C183,98.4,182.5,98.4,181.9,98.4z"/>
		<radialGradient id="SVGID_24_" cx="170.0829" cy="139.6103" r="15.4446" gradientUnits="userSpaceOnUse">
			<stop  offset="0" style="stop-color:#CCE0F4"/>
			<stop  offset="6.405089e-002" style="stop-color:#C3DCF2"/>
			<stop  offset="0.1706" style="stop-color:#A9D2EE"/>
			<stop  offset="0.3066" style="stop-color:#80C2E7"/>
			<stop  offset="0.4649" style="stop-color:#47ACDE"/>
			<stop  offset="0.5674" style="stop-color:#1E9CD7"/>
			<stop  offset="0.8652" style="stop-color:#0075BE"/>
			<stop  offset="0.9944" style="stop-color:#005B97"/>
		</radialGradient>
		<path class="st32" d="M169.1,149.4c0-4.3-3.5-7.7-7.7-7.7c-2.1,0-4.1,0.9-5.5,2.3l-0.7-0.3c-0.3-1.3-0.5-2.6-0.5-4
			c0-8.5,6.9-15.4,15.4-15.4c8.5,0,15.4,6.9,15.4,15.4c0,8.5-6.9,15.4-15.4,15.4c-1.1,0-2.2-0.1-3.2-0.3
			C168.2,153.3,169.1,151.5,169.1,149.4z"/>
		<linearGradient id="SVGID_25_" gradientUnits="userSpaceOnUse" x1="153.61" y1="156.0841" x2="159.784" y2="156.0841">
			<stop  offset="0" style="stop-color:#CCE0F4"/>
			<stop  offset="6.405089e-002" style="stop-color:#C3DCF2"/>
			<stop  offset="0.1706" style="stop-color:#A9D2EE"/>
			<stop  offset="0.3066" style="stop-color:#80C2E7"/>
			<stop  offset="0.4649" style="stop-color:#47ACDE"/>
			<stop  offset="0.5674" style="stop-color:#1E9CD7"/>
			<stop  offset="0.8652" style="stop-color:#0075BE"/>
			<stop  offset="0.9944" style="stop-color:#005B97"/>
		</linearGradient>
		<path class="st33" d="M157.7,153.2c1.6,0.5,2.4,2.2,2,3.8c0,0,0,0.1,0,0.1c-0.5,1.6-2.3,2.5-3.9,1.9c-1.6-0.5-2.5-2.3-1.9-3.9
			c0.2-0.6,0.6-1.1,1.1-1.5C155.6,153,156.7,152.8,157.7,153.2z"/>
		<radialGradient id="SVGID_26_" cx="161.331" cy="149.3919" r="7.7223" gradientUnits="userSpaceOnUse">
			<stop  offset="0" style="stop-color:#FF7BAC;stop-opacity:0"/>
			<stop  offset="1" style="stop-color:#FF7BAC"/>
		</radialGradient>
		<path class="st34" d="M161.3,141.7c4.3,0,7.7,3.5,7.7,7.7c0,2.1-0.8,4-2.1,5.3c-1.4,1.5-3.4,2.4-5.6,2.4c-0.6,0-1.1-0.1-1.6-0.2
			l-0.1,0c0.5-1.6-0.4-3.2-2-3.8c-1-0.3-2-0.1-2.8,0.4c-0.8-1.2-1.3-2.7-1.3-4.2c0-2.1,0.9-4.1,2.3-5.5
			C157.3,142.5,159.2,141.7,161.3,141.7z"/>
		<radialGradient id="SVGID_27_" cx="161.8458" cy="70.6244" r="15.4446" gradientUnits="userSpaceOnUse">
			<stop  offset="0" style="stop-color:#CCE0F4"/>
			<stop  offset="6.405089e-002" style="stop-color:#C3DCF2"/>
			<stop  offset="0.1706" style="stop-color:#A9D2EE"/>
			<stop  offset="0.3066" style="stop-color:#80C2E7"/>
			<stop  offset="0.4649" style="stop-color:#47ACDE"/>
			<stop  offset="0.5674" style="stop-color:#1E9CD7"/>
			<stop  offset="0.8652" style="stop-color:#0075BE"/>
			<stop  offset="0.9944" style="stop-color:#005B97"/>
		</radialGradient>
		<circle class="st35" cx="161.8" cy="70.6" r="15.4"/>
		<radialGradient id="SVGID_28_" cx="154.1235" cy="108.2063" r="7.7223" gradientUnits="userSpaceOnUse">
			<stop  offset="0" style="stop-color:#CCE0F4"/>
			<stop  offset="6.405089e-002" style="stop-color:#C3DCF2"/>
			<stop  offset="0.1706" style="stop-color:#A9D2EE"/>
			<stop  offset="0.3066" style="stop-color:#80C2E7"/>
			<stop  offset="0.4649" style="stop-color:#47ACDE"/>
			<stop  offset="0.5674" style="stop-color:#1E9CD7"/>
			<stop  offset="0.8652" style="stop-color:#0075BE"/>
			<stop  offset="0.9944" style="stop-color:#005B97"/>
		</radialGradient>
		<circle class="st36" cx="154.1" cy="108.2" r="7.7"/>
	</g>
	<g>
		<path class="st4" d="M294.6,60.3c0.8-0.4,1.5-0.9,2-1.5c3.8-4.2,0-11.8-4.5-15.4c-4.1-3.1-8.2-6.2-12.4-7.2c-8.2-1-15.4,0-23.7-1
			c-3.1,0-5.1,2.1-6.2,3.1c-0.2,0.3-0.4,0.6-0.5,1c-0.2,0.4-0.3,0.8-0.5,1.2c-1.6,4.7-0.5,9.9-3.1,14.4c-2.1,2.1-5.1,3.1-7.2,5.1
			c-4.1,4.1-4.1,10.3-9.3,14.4c-8.2,6.4-18.9,9.6-27.5,4.1c-1.1-0.7-2.1-1.5-3.2-2.5"/>
		<path class="st4" d="M264.3,138.8c-0.1,0.3-0.2,0.5-0.3,0.8c-0.5,1.5-1,3-1.5,4.5c-0.6,1.9-1.3,3.9-2.8,5.3
			c-1.5,1.4-4.1,2.2-6.4,1.2c-3.4-1.4-4.1-5.1-5.6-8.1c-1.1-2.1-2.8-4.1-3.6-6.3c-0.7-2.2-0.5-4.5-1.9-6.5c-3-4.2-11.2-3.9-14.3-8.1
			c-1.8-2.5-1-5.5-2.2-8.2c-2.2-4.8-10.1-7.1-11.8-12c-0.6-1.7-0.2-3.4-0.8-5.1c-1.1-3.3-5.1-5.6-8.7-7.5c-3.6-1.9-7.5-4.4-8.2-7.8
			c-0.4-2.1,0.6-3.9,2.2-5.5c1-1,2.2-1.9,3.3-2.7c11.2-7.8,22.5-15.6,33.7-23.4c2-1.4,4.1-2.8,5.9-4.4c2.5-2.2,4.6-4.8,7.8-6.2
			c0.2-0.1,0.5-0.2,0.7-0.3"/>
		<path class="st4" d="M417.3,101c-0.6-1.8,0.6-3.3,2.2-4.4c0.8-0.5,1.6-0.9,2.5-1.3c5.1-2.3,10.6-4.6,16.8-4.3
			c7.2,0.4,14.2,4.4,19.2,9.4c0.2,0.2,0.5,0.5,0.7,0.7c2.3,2.4,4.2,5,5.9,7.7c1.7,2.7,3.2,5.5,4.6,8.4c1.2,2.5,2.9,5.3,5.9,6
			c2.9,0.8,6.4-0.6,8.5,1.4c1.2,4.5-3.6,7.5-5.9,11.2c-2.6,4.3-1.7,9.7-0.8,14.8c0.7,4,1.5,8.1,2.2,12.1c0.8,4.4,1.9,9.2,6,12.3
			c3.9,2.9,9,3.3,14,4.4c0.2,0,0.3,0.1,0.5,0.1c1.8,0.4,3.6,0.9,5.3,1.7c0.3,0.2,0.7,0.3,0.9,0.6c0.7,0.9-0.5,1.7-1.5,2
			c-10,3.2-22.1,2.5-31,7.3c-2.4,1.3-4.5,3-7.1,4.1c-4.3,1.8-9.5,1.6-14.4,2.2c-5.6,0.6-10.9,2.2-15.5,4.6c-0.8,0.4-1.7,0.9-2.7,1
			c-0.9,0.1-1.8-0.1-2.7-0.2c-3.4-0.5-6.9-0.3-9.9,0.6c-3.2,1-6.6,2.8-10,1.3c-1.7-0.7-2.9-2-4.1-3.3c-2.4-2.7-5-5.6-5.2-8.7
			c-0.3-4.8,4.1-10.4,1-14.8"/>
		<path class="st4" d="M458.6,101.2c5,4.6,3.3,3.1,9.1,6.9c3.4,2.2,7,4,10.3,6.3c9.7,6.5,16.5,16.1,18.1,25.7c1.2,7.1-0.3,14-0.2,21
			c0.1,7,2.1,14.9,8.6,20.4"/>
		<path class="st4" d="M278.5,105.5c-1.3,1-2.5,2-3.8,3.1c-3.3,3-6.2,6.3-6.7,10.5c-0.4,3,0.5,6.3,0,9.3c-0.4,2.2-1.5,4.2-2,6.4
			c-1.2,5.9,2.6,12.8,0.2,18.2c-0.7,1.6-2,3-2.8,4.6c-2.5,4.8-0.5,10.8,1.4,16.3l0.3,0.7l8.6-5.3c-2.8,1.8-5.7,3.6-8.6,5.3
			c-12.1,6.9-24.9,12.5-38.3,16.5l-0.1,0.7c12.6,4.9,26.4,6.3,39.7,4.4l2.3-0.9"/>
		<path class="st4" d="M296.7,58.8c10.4-3.5,21.5-6,33.1-6.4c11.7-0.4,25.2,2.4,36.2,7.4"/>
		<path class="st4" d="M363,61c0.9-0.6,1.9-1,3.1-1.1c3.4-0.4,7.8,1.2,11.3,2.9c6.9,3.3,13.8,6.9,20.4,10.7c5.8,3.3,11.7,7,15.2,12
			c2.5,3.6,3.6,7.8,6.6,11.2c0,0,0,0.1,0.1,0.1"/>
		<path class="st4" d="M418.5,129.5c1.6,7.9,3.1,16.4-1.2,22.7c-2.2,3.3-5.9,5.7-8,9.1c-2.5,3.8-2.8,8.5-4.6,12.6
			c-0.7,1.5-1.5,2.8-2.5,4.2c-0.9,1.3-1.9,2.5-2.9,3.7c-6.4,7.9-12.9,15.9-21.7,22c-6.3,4.4-9.6,6.5-17.7,8.7"/>
		<path class="st4" d="M307.1,217.5c-13.6,19.8-28,45.1-43.9,62.7c-11.7,13-27.8,23.7-46.3,22.7c-15.4,0-34.5-23.7-36-30.9
			c-6.1-28.3,8.2-52.5,22.7-75.2c3.1-5.1,6.2-11.3,4.1-16.5c-2.1-3.1-6.2-6.2-7.2-10.3c0-1,0-2.1,0.4-2.8l-0.1-1.1
			c-0.1-2.7,3-4.5,5.7-4.8s5.6,0.2,8.1-0.6c1.8-0.6,3.3-1.9,5-2.5c1.8-0.6,4.2-0.4,5,1.4l-0.5,1.7c-0.8,1.5-2.7,2-4.4,2.4
			s-3.6,1.1-4.1,2.7c-0.3,0.8-0.2,1.8-0.9,2.2c-1.1,0.6-2.1-0.7-3.3-1.2c-1.2-0.5-2.4,0.1-3.6,0.5c-1.2,0.4-6.3,0.6-6.9-0.5"/>
		<path class="st4" d="M224,161.2c0.3,1.3-1.4,4.8,0.2,11.4c2.2,9.2-0.7,15.3-2.1,23.2c-2.4,13.3-8.9,27.5-12.4,34.7
			c-0.7,1.5-4.1,6.2-5.3,10.2c-3.2,11.5-2.1,15.6,1.7,23.6c4.6,9.9,16.3,7.7,24.2,2.1c11.6-8.2,14-13.9,22.3-24.2
			c4.1-5.1,7.6-16.5,10.7-21.6c4.4-7.8,5-16.4,5.8-25.1c0.1-1.6,0.3-3.2,0.4-4.7c1-7.2,3.1-14.4,6.2-20.6c0.3-0.5,0.5-0.9,0.8-1.4
			c2.7-4.7,4.6-9.4,6.8-14.1"/>
		<path class="st4" d="M329.7,212.7c-0.6,0.2-1.2,0.4-1.8,0.5c-6.8,2-13.8,3.4-20.8,3.9c-10.3,0.8-20.6,0-30-2.5l0.1-0.5
			c25.9-7.7,50.3-20,71-35.8l0.5-0.2c2.7,2.3,5.2,4.8,7.3,7.5c0.4,0.5,0.8,1.1,1.1,1.7c0.7,1.7,0.3,3.6-0.1,5.5
			c-0.4,1.6-0.7,3.2-1.1,4.8"/>
		<path class="st4" d="M355.9,197.7c-3,4.5-7.3,6.8-12.6,9.5c-3.6,1.8-7.4,3.4-11.2,4.7"/>
		<path class="st4" d="M328.1,213.8c-1.9,2.7-4.8,9.3-3.9,12.5c0.1,0.3-0.2,0.6-0.1,0.9c0.2,0.4,0.8,0.4,1.3,0.3
			c11.9-2.5,24.3-7.9,34.6-15.1h0c1.6-1.1,3.1-2.2,4.6-3.4"/>
		<path class="st4" d="M332.1,211.9l4-1l6.9-2.7l7.9-4.6l16.7-13.7c0,0-3.7,17.7-24.9,26.3c-4.1,1.7-10.1,5-14.6,5.6l1.6-9.1l0-0.2
			L332.1,211.9z"/>
		<path class="st4" d="M155.2,143.6c-0.3-1.3-0.5-2.6-0.5-4c0-8.5,6.9-15.4,15.4-15.4c8.5,0,15.4,6.9,15.4,15.4
			c0,8.5-6.9,15.4-15.4,15.4c-1.1,0-2.2-0.1-3.2-0.3"/>
		<circle class="st4" cx="154.1" cy="108.2" r="7.7"/>
		<path class="st4" d="M161,137.3c0.4-2.7,1.5-5.2,3.2-7.2"/>
		<path class="st4" d="M159.5,98.1c2,1,3.6,2.8,4.2,5.1"/>
		<path class="st4" d="M183.5,98.3c-0.5,0.1-1.1,0.2-1.6,0.2c-4.3,0-7.7-3.5-7.7-7.7c0-4.3,3.5-7.7,7.7-7.7s7.7,3.5,7.7,7.7
			c0,1.6-0.5,3-1.3,4.2c-0.1,0.1-0.1,0.1-0.1,0.2"/>
		<path class="st4" d="M182.2,85.8c2,1,3.6,2.8,4.2,5.1"/>
		<path class="st4" d="M188.4,94.9c0.5,0.4,0.9,0.9,1.1,1.5c0.5,1.6-0.3,3.4-1.9,3.9c-1.6,0.5-3.4-0.3-3.9-1.9c0,0,0-0.1,0-0.1
			c-0.5-1.6,0.4-3.2,2-3.8C186.6,94.1,187.6,94.3,188.4,94.9z"/>
		<path class="st4" d="M188.2,96.7c0.1,0.9-0.3,1.8-1,2.4"/>
		<path class="st4" d="M159.7,156.9c0.5,0.1,1.1,0.2,1.6,0.2c2.2,0,4.2-0.9,5.6-2.4c1.3-1.4,2.1-3.3,2.1-5.3c0-4.3-3.5-7.7-7.7-7.7
			c-2.1,0-4.1,0.9-5.5,2.3c-1.4,1.4-2.3,3.3-2.3,5.5c0,1.6,0.5,3,1.3,4.2c0.1,0.1,0.1,0.1,0.1,0.2"/>
		<path class="st4" d="M161.1,144.5c-2,1-3.6,2.8-4.2,5.1"/>
		<path class="st4" d="M154.9,153.6c-0.5,0.4-0.9,0.9-1.1,1.5c-0.5,1.6,0.3,3.4,1.9,3.9c1.6,0.5,3.4-0.3,3.9-1.9c0,0,0-0.1,0-0.1
			c0.5-1.6-0.4-3.2-2-3.8C156.7,152.8,155.6,153,154.9,153.6z"/>
		<path class="st4" d="M155,155.4c-0.1,0.9,0.3,1.8,1,2.4"/>
		<circle class="st4" cx="161.8" cy="70.6" r="15.4"/>
		<path class="st4" d="M152.8,68.3c0.4-2.7,1.5-5.2,3.2-7.2"/>
		<circle class="st4" cx="198.4" cy="120.6" r="7.7"/>
		<path class="st4" d="M198.6,115.6c2,1,3.6,2.8,4.2,5.1"/>
		<line class="st4" x1="273.7" y1="169.4" x2="275.9" y2="168.3"/>
		<line class="st4" x1="264.1" y1="139.6" x2="266.1" y2="134.8"/>
		<path class="st37" d="M302,143c-2.7,1.2-5.7-0.6-7-4.5c-0.1-0.4-0.3-0.8-0.4-1.2"/>
		<path class="st37" d="M305.6,132.3c0.7,3,0.2,6.2-1.1,8.4"/>
		<path class="st38" d="M290.2,124.4c1.2-1.8,3.4-5,5.5-5.5c2.1-0.5,4.2,1.7,6.4,1.8c0.1,0,0.1,0,0.1,0.1"/>
		<path class="st37" d="M328.4,151.5c-0.5,0-1-0.1-1.5-0.3c-3.1-1.3-4.8-6-3.9-10.6c0,0,0-0.1,0-0.1"/>
		<path class="st37" d="M334.4,143.9c0,0.4-0.1,0.9-0.2,1.3c-0.3,1.7-1,3.1-1.8,4.1"/>
		<line class="st37" x1="332.3" y1="149.3" x2="332.3" y2="149.3"/>
		<path class="st38" d="M330.6,130.2c2.1-0.5,5.9-1.4,7.8-0.3c1.9,1.1,2,4.1,3.5,5.7c0,0,0.1,0.1,0.1,0.1"/>
		<path class="st4" d="M203.1,164.9c0.1,0,0.1,0.1,0.2,0.1c0,0,0,0,0.1,0c1.2,0.4,2.5-0.1,3.7-0.5c1.7-0.5,3.6-0.6,5.3-0.3
			c0.3,0.1,0.5,0.1,0.8,0c0.2-0.1,0.4-0.3,0.6-0.5c0.8-0.9,2-1.5,3.2-1.8c0.6-0.1,1.2-0.2,1.8-0.4c0.9-0.4,1.6-1.2,2.6-1.5
			c-0.9,0-1.5,0.8-2.3,1.2c-1,0.4-2.2,0.1-3.2,0.4c-0.7,0.2-1.3,0.6-2,0.8c-0.8,0.3-1.8,0.2-2.7,0.3c-2.7,0.1-5.3,0.7-7.7,1.9
			c-0.1,0.1-0.1,0.2-0.1,0.3c0,0,0,0,0.1,0c0,0,0,0,0,0"/>
		<path class="st4" d="M275.7,106.6c-0.3,0.7-0.7,1.2-1.2,1.7c-2.4,2-6.9,1.8-9.7,3.8c-3.2,2.4-3.3,7.2-3.5,11.3
			c-0.2,3.3-0.7,6.6-1.5,9.8c-0.4,1.6-1,3.3-2.2,4.4c-1.2,1.1-3.3,1.5-4.4,0.3c-0.6-0.6-0.9-1.5-1.2-2.4
			c-2.3-7.1-7.3-13.3-13.8-16.8c-1.9-1.1-4.1-2-5.2-4c-0.5-1-0.7-2.1-1.1-3.2c-0.8-3-2.6-5.7-4.9-7.7c-1.2-1.1-2.7-2-3.7-3.3
			c-1.5-1.7-2.2-3.9-3.2-5.9c-2.5-5.1-6.8-9.3-12-11.5c-3-1.3-6.9-1.6-6.4-4.9"/>
		<path class="st4" d="M275.7,106.6c0.1,0.1,0.2,0.1,0.1-0.1C275.7,106.5,275.7,106.6,275.7,106.6z"/>
		<path class="st4" d="M275.5,106.4c0.1,0,0.1,0.1,0.2,0.2"/>
		<path class="st4" d="M275.5,106.4c0,0.1,0,0.1,0,0.2C275.3,106.3,275.4,106.4,275.5,106.4z"/>
		<path class="st4" d="M249.5,40.5c4.6-2.8,11.1-1.9,14.9,2c2.5,2.6,3.8,6.4,6.9,8.4c3,1.9,7.3,1.8,9.4,4.7c1,1.4,1.2,3.3,2.1,4.8
			c0.8,1.4,2.1,2.6,2.7,4.1c0.8,1.9,0.4,4-0.3,6c-0.2,0.5-0.3,1-0.5,1.5c-3.9,11.2-7,22.7-9.2,34.4"/>
		<path class="st4" d="M284.3,71.8c0.3-0.4,0.5-0.9,0.9-1.3c2.5-3.5,6.4-6,10.6-6.9c1.7-0.4,3.5-0.5,5-1.3"/>
		<path class="st4" d="M464.1,109.2c-3.9,0.1-6.8-3.8-10.5-5.2c-2.7-1.1-5.8-0.7-8.7-0.9c-4.1-0.3-8-1.7-12.1-1.9
			c-4.1-0.2-8.6,1.1-10.6,4.7c-1.2,2.2,0.7,4.5,1.7,6.7c2,4.3,0.6,9.4,1.7,14c0.4,1.8,1.3,3.6,1.7,5.4c0.6,2.6,0.2,5.4-0.1,8
			c-0.7,5.1-1.4,10.5-4.5,14.7c-2.3,3-5.5,5.2-8.1,8c-4.2,4.8-6,11.4-6,17.7c0.1,6.4,1.8,12.6,4,18.6c2.6,0.7,5.4,0.5,7.9-0.6
			c1.5-0.6,2.8-1.6,4.4-2c3.5-0.9,7.2,1.1,10.7,0.2c2.6-0.7,4.5-2.9,7.1-3.8c2.3-0.8,4.8-0.4,7.2-0.4c4.7,0,9.2-1.5,13.6-3
			c4.1-1.4,8.2-2.7,12.4-4.1c4.8-1.6,20.3-5.8,23.1-6c0.3,0,0.5,0,0.5,0.1"/>
		<path class="st37" d="M291.5,164.6c7.5-1.3,15.7,2.3,19.9,8.6"/>
		<path class="st37" d="M295.7,173.1c2.8-0.1,5.5,1.6,6.7,4.1"/>
	</g>
</g>
<radialGradient id="SVGID_29_" cx="214.9017" cy="147.7176" r="7.6888" gradientUnits="userSpaceOnUse">
	<stop  offset="0" style="stop-color:#FF7BAC;stop-opacity:0"/>
	<stop  offset="0.931" style="stop-color:#FF7BAC"/>
</radialGradient>
<circle class="st39" cx="214.9" cy="147.7" r="7.7"/>
<path class="st8" d="M210.4,149.6c0.2-2.3,1.4-4.4,3.3-5.7"/>
<radialGradient id="SVGID_30_" cx="228.063" cy="136.1676" r="4.376" gradientUnits="userSpaceOnUse">
	<stop  offset="0" style="stop-color:#CCE0F4"/>
	<stop  offset="6.405089e-002" style="stop-color:#C3DCF2"/>
	<stop  offset="0.1706" style="stop-color:#A9D2EE"/>
	<stop  offset="0.3066" style="stop-color:#80C2E7"/>
	<stop  offset="0.4649" style="stop-color:#47ACDE"/>
	<stop  offset="0.5674" style="stop-color:#1E9CD7"/>
	<stop  offset="0.8652" style="stop-color:#0075BE"/>
	<stop  offset="0.9944" style="stop-color:#005B97"/>
</radialGradient>
<circle class="st40" cx="228.1" cy="136.2" r="4.4"/>
<radialGradient id="SVGID_31_" cx="226.4676" cy="135.6504" r="1.3235" gradientUnits="userSpaceOnUse">
	<stop  offset="0" style="stop-color:#CCE0F4"/>
	<stop  offset="6.405089e-002" style="stop-color:#C3DCF2"/>
	<stop  offset="0.1706" style="stop-color:#A9D2EE"/>
	<stop  offset="0.3066" style="stop-color:#80C2E7"/>
	<stop  offset="0.4649" style="stop-color:#47ACDE"/>
	<stop  offset="0.5674" style="stop-color:#1E9CD7"/>
	<stop  offset="0.8652" style="stop-color:#0075BE"/>
	<stop  offset="0.9944" style="stop-color:#005B97"/>
</radialGradient>
<path class="st41" d="M225.5,137.3c0.1-1.3,0.8-2.5,1.9-3.2"/>
</svg>
