<?xml version="1.0" encoding="utf-8"?>
<!-- Generator: Adobe Illustrator 19.2.0, SVG Export Plug-In . SVG Version: 6.00 Build 0)  -->
<svg version="1.1" id="Layer_1" xmlns="http://www.w3.org/2000/svg" xmlns:xlink="http://www.w3.org/1999/xlink" x="0px" y="0px"
	 viewBox="0 0 640 480" style="enable-background:new 0 0 640 480;" xml:space="preserve">
<style type="text/css">
	.st0{fill:url(#SVGID_1_);stroke:#000000;stroke-miterlimit:10;}
	.st1{fill:url(#SVGID_2_);stroke:#000000;stroke-linecap:round;stroke-linejoin:round;}
	.st2{fill:none;stroke:#000000;stroke-miterlimit:10;}
	.st3{fill:#FF0000;stroke:#000000;stroke-miterlimit:10;}
	.st4{fill:#E6E6E6;stroke:#000000;stroke-miterlimit:10;}
	.st5{fill:url(#SVGID_3_);}
	.st6{opacity:0.65;fill:url(#SVGID_4_);stroke:#000000;stroke-miterlimit:10;enable-background:new    ;}
	.st7{fill:url(#SVGID_5_);stroke:#000000;stroke-miterlimit:10;}
	.st8{fill:none;stroke:#808080;stroke-miterlimit:10;}
	.st9{fill:#C1272D;}
	.st10{fill:#FF2020;}
	.st11{fill:#FFFF00;stroke:#000000;stroke-width:0.25;stroke-miterlimit:10;}
	.st12{fill:none;stroke:#000000;stroke-width:0.25;stroke-miterlimit:10;}
	.st13{fill:url(#SVGID_6_);stroke:#000000;stroke-miterlimit:10;}
	.st14{fill:url(#SVGID_7_);stroke:#000000;stroke-miterlimit:10;}
	.st15{fill:#C1272D;stroke:#000000;stroke-miterlimit:10;}
	.st16{fill:url(#SVGID_8_);stroke:#000000;stroke-miterlimit:10;}
	.st17{fill:url(#SVGID_9_);stroke:#000000;stroke-miterlimit:10;}
	.st18{fill:url(#SVGID_10_);stroke:#000000;stroke-miterlimit:10;}
	.st19{fill:#FFFFFF;stroke:#000000;stroke-miterlimit:10;}
	.st20{fill:url(#SVGID_11_);stroke:#000000;stroke-miterlimit:10;}
	.st21{stroke:#F7931E;stroke-miterlimit:10;}
	.st22{fill:#0071BC;stroke:#000000;stroke-miterlimit:10;}
	.st23{fill:url(#SVGID_12_);stroke:#000000;stroke-miterlimit:10;}
	.st24{fill:url(#SVGID_13_);stroke:#000000;stroke-miterlimit:10;}
	.st25{fill:url(#SVGID_14_);stroke:#000000;stroke-miterlimit:10;}
	.st26{fill:url(#SVGID_15_);}
	.st27{fill:url(#SVGID_16_);}
	.st28{fill:url(#SVGID_17_);}
	.st29{fill:#808080;}
	.st30{fill:#FF7BAC;}
	.st31{fill:#0000FF;}
	.st32{fill:#FFFFFF;}
	.st33{fill:url(#SVGID_18_);}
	.st34{fill:#999999;}
	.st35{fill:url(#SVGID_19_);}
	.st36{fill:url(#SVGID_20_);}
	.st37{fill:url(#SVGID_21_);}
	.st38{fill:url(#SVGID_22_);}
	.st39{fill:url(#SVGID_23_);}
	.st40{fill:none;stroke:#333333;stroke-width:0.75;stroke-linecap:round;stroke-miterlimit:10;}
	.st41{fill:url(#SVGID_24_);stroke:#000000;stroke-miterlimit:10;}
	.st42{fill:url(#SVGID_25_);stroke:#000000;stroke-linecap:round;stroke-linejoin:round;}
	.st43{fill:url(#SVGID_26_);}
	.st44{fill:#808080;stroke:#000000;stroke-miterlimit:10;}
	.st45{fill:url(#SVGID_27_);}
</style>
<radialGradient id="SVGID_1_" cx="453.4349" cy="43.6403" r="15.5659" gradientTransform="matrix(-0.9944 -0.1056 -0.1056 0.9944 893.0077 92.5527)" gradientUnits="userSpaceOnUse">
	<stop  offset="0" style="stop-color:#CCE0F4"/>
	<stop  offset="6.405089e-002" style="stop-color:#C3DCF2"/>
	<stop  offset="0.1706" style="stop-color:#A9D2EE"/>
	<stop  offset="0.3066" style="stop-color:#80C2E7"/>
	<stop  offset="0.4649" style="stop-color:#47ACDE"/>
	<stop  offset="0.5674" style="stop-color:#1E9CD7"/>
	<stop  offset="0.8652" style="stop-color:#0075BE"/>
	<stop  offset="0.9944" style="stop-color:#005B97"/>
</radialGradient>
<circle class="st0" cx="437.5" cy="88.1" r="15.6"/>
<radialGradient id="SVGID_2_" cx="447.7267" cy="41.7991" r="4.7164" gradientTransform="matrix(-0.9944 -0.1056 -0.1056 0.9944 893.0077 92.5527)" gradientUnits="userSpaceOnUse">
	<stop  offset="0" style="stop-color:#CCE0F4"/>
	<stop  offset="6.405089e-002" style="stop-color:#C3DCF2"/>
	<stop  offset="0.1706" style="stop-color:#A9D2EE"/>
	<stop  offset="0.3066" style="stop-color:#80C2E7"/>
	<stop  offset="0.4649" style="stop-color:#47ACDE"/>
	<stop  offset="0.5674" style="stop-color:#1E9CD7"/>
	<stop  offset="0.8652" style="stop-color:#0075BE"/>
	<stop  offset="0.9944" style="stop-color:#005B97"/>
</radialGradient>
<path class="st1" d="M446.1,92.9c0.1-4.6-1.9-9.1-5.5-12.1"/>
<path class="st2" d="M185.4,297.3"/>
<g>
	<path class="st3" d="M421.4,182.1c0,0-3.4,11.2-3.5,11.3l-56.8,13.5c-4.9,1.2-9.4-0.4-10.3-3.9c-0.4-1.7,0.4-2.9,1.7-4.4
		c1.3-1.5,3.5-2.1,6-2.7l56.8-13.5C417.5,181.9,419.6,181.5,421.4,182.1z"/>
	<path class="st4" d="M405.3,182.7l3.5,14.7c0.1,0.3-1.5,0.4-2.6,0.7l-39.8,9.5c-4.8,1.2-9.1-0.4-9.9-3.9l-0.7-3
		c-0.8-3.5,2.3-6.6,7.2-7.7l39.8-9.5C403.8,183.2,405.2,182.4,405.3,182.7z"/>
	<path class="st4" d="M377.7,204.6c-1.1,0.3-1.8,0.4-1.8,0.4c-4.5,1.1-8.9-0.7-9.7-4l-0.7-2.8c-0.8-3.3,2.3-6.9,6.8-8
		c0,0,0.5-0.1,1.5-0.4"/>
	<path class="st4" d="M403.3,199.4c-1.2,0.3-1.9,0.5-1.9,0.5c-4.9,1.2-9.5-0.8-10.4-4.3l-0.7-3c-0.8-3.5,2.4-7.4,7.3-8.6
		c0,0,0.6-0.1,1.6-0.4"/>
	<path class="st4" d="M408.2,198c-1.2,0.3-1.9,0.5-1.9,0.5c-4.9,1.2-9.5-0.7-10.3-4.2l-0.7-3c-0.8-3.5,2.5-7.3,7.3-8.4
		c0,0,0.6-0.1,1.6-0.4"/>
</g>
<linearGradient id="SVGID_3_" gradientUnits="userSpaceOnUse" x1="425.7914" y1="215.3267" x2="2.9157" y2="116.6676">
	<stop  offset="4.926108e-003" style="stop-color:#666666"/>
	<stop  offset="0.6302" style="stop-color:#9A9A9A"/>
	<stop  offset="0.9951" style="stop-color:#B3B3B3"/>
</linearGradient>
<path class="st5" d="M272.7,142.7c-0.3-0.5-0.4-1.1-0.4-1.6c-1.1-3.3-0.8-7.6,1.1-11.2l-2.7-1.2c0.3-0.6,0.6-1.1,1-1.7
	c3.9-5.7,8.5-6.2,13.2-2.7c0.3,0.3,0.7,0.5,1,0.8c2.7,2.3,5.5,11.9,3.6,17.8c-0.1,0.2-0.2,0.4-0.4,0.2l-2.7-3.2
	c-0.1-0.1-0.2-0.2-0.3-0.3c-0.2,0.5-0.5,1-0.8,1.5c-2.9,4.5-7.3,6-10.4,3.7c0,0,0,0-0.1,0c-0.8-0.4-1.6-1.1-2-2
	C272.8,142.8,272.7,142.7,272.7,142.7z M232.5,137.9c0-0.6,0.1-1.2,0.2-1.8l-2.4,0.8c0.1-0.7,0.3-1.4,0.5-2.1
	c2.4-8.4,7.1-12.1,13.1-12c3.1,0,8.2,6.2,7.9,12.6c0,0.3-0.1,0.5-0.3,0.5l-3.2-0.7c0,0,0,0.1,0,0.2c-0.2,6.2-3.8,11.8-8.2,12.5
	c-0.7,0.1-1.4,0.1-2.1,0c0,0,0,0-0.1,0c-1.1,0-2.3-0.5-3.1-1.4c0,0,0-0.1-0.1-0.1l0,0c-0.1-0.1-0.1-0.2-0.2-0.2
	c-0.1-0.1-0.1-0.2-0.2-0.3c-0.4-0.6-0.7-1.3-0.7-1.9l0,0C232.8,142.2,232.4,140.2,232.5,137.9z M175.7,185.7l17.5,22.8l8.8,8.3
	l8.1,5.6l4.9,2.5c-4.6-2.9-8.9-6.1-13.1-9.5c-6.1-5.1-10.9-9.4-13.4-16.1c0-2.2,0-4.4,0-6.6c0-2.5,0.1-5.2,1.5-7.1
	c0.5-0.7,1.2-1.3,2-1.9c3.5-2.9,7.5-5.4,11.7-7.5l0.6,0.4c22,26.7,49.9,50,81.1,67.8v0.8c-13,0.5-26.5-1.6-39.6-5.8l-0.1,0.4
	c11.6,29.8,22.7,66.9,37.9,94.4c11.3,20.4,28.8,39.1,53.2,43.3c20,4.7,51.8-20.2,56-29.1c16.4-34.9,5.2-70.5-6.6-104.2
	c-2.4-7.6-4.6-16.5-0.4-22.6c3.6-3.4,9.9-6.1,12.4-11.2c0.3-1.3,0.6-2.7,0.4-3.7c-1.1,1.3-2.1-2.8-3.5-3.6s-7.4-7.8-9-7.6
	s-4.5,0.8-5.6-0.3c-0.8-0.8-3.9,8.5-4,7.4c-0.2-2.3-5.7-4.1-9.7,3.9c-5.6,11.3-3.8,20.1-4.3,30.6c-1,18,3.2,38.3,5.5,48.6
	c0.5,2.2,3.5,9.2,3.7,14.9c0.7,15.8-2,20.8-9.3,30c-9,11.4-23.4,5-32-4.7c-12.5-14.2-13.9-22.2-21.5-38.1
	c-3.8-7.9-4.8-23.6-7.3-31.2c-3.3-11.5-1.5-22.8,0.1-34.3c0.3-2.1,0.6-4.2,0.9-6.3c0.8-9.6,0.4-19.6-1.8-28.5
	c-0.2-0.7-0.4-1.3-0.6-2l0.8-0.2l2.5,2l9.6,9.4l0.6-0.8c4.2-6.6,8.5-13.7,6.7-20.7c-0.6-2.3-1.8-4.5-2.3-6.8
	c-1.6-7.8,5.5-15.6,5.7-23.6c0.1-3-0.8-5.9-0.6-8.9c0.2-4.1,2.4-8,2.8-12c0.6-5.6-2-10.8-5.4-15.7l0.4-0.3c-0.5-0.7-0.9-1.6-1-2.5
	c-0.2,0.1-0.3,0.1,0-0.2c0,0.1,0,0.1,0,0.2c0.1-0.1,0.2-0.1,0.3-0.2c0.7-15.8,0.2-31.6-1.5-47.3c-0.1-0.7-0.1-1.4-0.2-2.1
	c-0.2-2.8-0.1-5.7,1.4-7.9c1.3-1.8,3.3-2.8,4.7-4.5c1.5-1.7,2.4-4.1,4.1-5.6c3.6-3.1,9.1-1.7,13.5-3.3c4.5-1.6,7.4-6.1,11.4-8.8
	c6-4,14.7-3.2,19.9,1.8l0.9-0.1c-0.1-0.5-0.1-1.1-0.3-1.6c-0.1-0.5-0.2-0.9-0.4-1.4c-1-1.6-3.1-4.9-7.1-5.9c-11-1.2-20-4.7-31-5.8
	c-5.6,0.1-11.9,2.8-18.2,5.6c-6.9,3.3-14.1,12-10.5,18.6l-0.1,0.1c-12.4-7.6-26-14.3-41-18.3s-33.4-4.4-49.2-1.4v0.1
	c-4.3-1.6-10.4-0.8-15.5,0.3c-10,2.2-19.9,4.7-29.6,7.6c-8.5,2.5-17.2,5.5-23.3,11c-4.4,3.9-7.1,9-11.9,12.5
	c-0.8-0.9-1.8-1.7-2.8-2.5c-6-4.5-12.3-9.2-20.5-10.6c-9.4-1.7-19.7,1.4-27.6,6.4c-0.4,0.2-0.8,0.5-1.1,0.7c-3.7,2.4-7,5.3-10,8.2
	l0.5,0.5c5.1,1.3,9.9-2.8,15.1-3.6c3.9-0.6,7.7,0.8,11.6,1.4c5.4,0.8,10.9,0.3,16.2,1.2c5.3,0.9,10.9,4,12.3,9.2
	c0.9,3.1-2.2,5.6-4.2,8.1c-3.9,4.9-3.7,12-6.5,17.6c-1.1,2.2-2.7,4.2-3.8,6.5c-1.5,3.2-1.9,6.9-2.3,10.5c-0.7,6.9-1.3,14,1.4,20.4
	c2,4.6,5.6,8.4,8,12.8c4.1,7.5,4.4,16.5,2.4,24.8c-2,8.2-6.2,15.8-10.8,23c-3.6,0.1-7.2-1-10.1-3.1c-1.7-1.3-3.2-2.9-5-3.9
	c-4.3-2.2-9.7-0.7-14-3c-3.1-1.7-5-5.1-8-7c-2.7-1.7-6-2-9.1-2.7c-6-1.4-11.4-4.7-16.7-7.9c-4.9-3-9.8-6-14.8-9
	c-5.7-3.5-24.5-13.7-28.1-14.7c-0.2,0-0.4,0-0.6,0c-2.5,0-5,0.1-7.3,0.7c-0.5,0.1-1,0.2-1.3,0.5c-1.1,0.9,0.1,2.3,1.3,3.1
	c11.9,7.2,27.9,9.9,37.9,18.8c2.8,2.4,5,5.3,8,7.4c5,3.6,11.8,5,18,7.2c7,2.5,13.4,6.2,18.7,10.7c0.9,0.8,1.9,1.7,3.2,2.1
	c1.1,0.4,2.4,0.4,3.6,0.5c4.6,0.3,9,1.7,12.7,3.8c3.9,2.3,7.8,5.6,12.6,4.8c2.4-0.4,4.4-1.7,6.2-3c4-2.7,8.2-5.7,9.3-9.7
	c1.8-6.1-2.2-14.7,3.2-19.4l0.3-0.1c0.8,1.9,1.7,3.8,2.6,5.6c5.9,12.2,11.9,24.5,21.4,35.1c6.8,7.5,10.5,11.3,20.3,16.6l0,0
	c11.1,12.4,25.6,23.2,40.2,30c0.6,0.3,1.3,0.5,1.7,0c0.3-0.3,0-0.8,0.2-1.2c2.1-3.9,0.3-13.3-1.3-17.4l0.4-0.7
	c-0.7-0.4-1.4-0.8-2.1-1.2l-0.7,12.3c-5.5-2.2-12.4-8.3-17.2-11.7C175.1,209.7,175.7,185.7,175.7,185.7z"/>
<linearGradient id="SVGID_4_" gradientUnits="userSpaceOnUse" x1="531.4" y1="312.3" x2="531.4" y2="90.4">
	<stop  offset="4.926108e-003" style="stop-color:#FFFFA8"/>
	<stop  offset="0.668" style="stop-color:#FFFFE6"/>
	<stop  offset="0.9951" style="stop-color:#FFFFFF"/>
</linearGradient>
<rect x="444.6" y="90.4" class="st6" width="173.6" height="221.9"/>
<linearGradient id="SVGID_5_" gradientUnits="userSpaceOnUse" x1="416.0698" y1="186.6625" x2="622.1331" y2="186.6625">
	<stop  offset="4.926108e-003" style="stop-color:#FFFFA8"/>
	<stop  offset="0.668" style="stop-color:#FFFFE6"/>
	<stop  offset="0.9951" style="stop-color:#FFFFFF"/>
</linearGradient>
<path class="st7" d="M591.8,277.6c-18.7,6.3-189.8,6.3-174.8,0c33.4-14,27.5-186.6,27.5-186.6h174.2
	C618.7,91,636.3,262.7,591.8,277.6z"/>
<path class="st8" d="M578.6,265.7c-14.8,5-149.7,5-137.9,0c26.3-11.1,21.7-147.2,21.7-147.2h137.4
	C599.8,118.5,613.7,253.9,578.6,265.7z"/>
<g>
	<g>
		<path class="st9" d="M509.1,99.3c-0.2,0-0.5,0.1-0.9,0.1c-0.4,0.1-0.7,0.2-1,0.3c-0.3,0.1-0.7,0.3-0.9,0.5
			c-0.3,0.2-0.5,0.5-0.7,0.7c-2.5,3.3-3.1,6.6-1.8,10c0.2,0.5,0.4,1.1,0.5,1.6c0.1,0.6,0.2,1.1,0.2,1.5c0,0.5-0.1,0.9-0.4,1.1
			s-0.8,0.3-1.6,0.2c-1.2-0.1-2.7-0.6-4.3-1.3c-1.6-0.7-3.1-1.6-4-2.7c-0.4-0.5-0.5-0.9-0.4-1.3s0.5-0.5,1.1-0.5
			c0.5,0,1,0.1,1.4,0.4s0.7,0.6,1,1c0.1,0.2,0.2,0.5,0.3,0.7c0.1,0.2,0.1,0.4,0.1,0.6s0.1,0.3,0.1,0.6c0.1,0.2,0.2,0.4,0.3,0.6
			c0.4,0.3,0.9,0.5,1.5,0.7s1.1,0.4,1.7,0.4c0.6,0.1,0.9,0,1-0.3c0.1-0.2,0.1-0.5-0.1-1c-0.2-0.4-0.4-0.9-0.7-1.4
			c-0.3-0.6-0.6-1.2-0.8-2c-1-2.9-0.2-5.8,2.2-8.7c0.2-0.3,0.4-0.5,0.5-0.7s0.1-0.3-0.1-0.4c-0.1-0.1-0.3-0.2-0.6-0.2
			c-0.3,0-0.5,0-0.7,0c0.3-0.3,0.7-0.5,1-0.8c2.3-0.2,4.5-0.5,6.8-0.7C509.6,98.8,509.4,99,509.1,99.3z"/>
		<path class="st9" d="M527.1,98.5c-0.2,0-0.5,0.1-0.9,0.2s-0.8,0.3-1.1,0.5s-0.5,0.6-0.7,1.3c-0.2,0.6-0.3,1.4-0.4,2.3
			c-0.2,2.7-0.2,5.4-0.1,8.2c0.1,1-0.1,1.9-0.4,2.7c-0.3,0.8-0.7,1.4-1.3,1.9c-0.5,0.5-1.1,0.8-1.6,1c-0.6,0.2-1.2,0.3-1.8,0.2
			c-0.9,0-1.8-0.2-2.7-0.6c-0.9-0.3-1.7-0.7-2.5-1.3c-0.8-0.5-1.4-1.1-2-1.7c-0.5-0.6-0.9-1.3-1.1-1.9c-1-3.5-0.6-7,1.2-10.5
			c0.2-0.3,0.2-0.5,0.3-0.7c0-0.2,0-0.4-0.2-0.5c-0.1-0.1-0.3-0.2-0.5-0.2c-0.2-0.1-0.5-0.1-0.6-0.1c0.2-0.3,0.4-0.6,0.7-0.9
			c2.1-0.2,4.3-0.3,6.4-0.4c-0.2,0.3-0.3,0.6-0.4,0.9c-0.2,0-0.5,0.1-0.9,0.2s-0.6,0.2-0.8,0.2c-0.3,0.1-0.6,0.3-0.8,0.5
			s-0.4,0.5-0.5,0.8c-1.5,3.3-1.9,6.6-1.3,9.9c0.1,0.5,0.3,1,0.5,1.5c0.3,0.5,0.6,1,1.1,1.5s1.1,0.9,1.7,1.2
			c0.6,0.3,1.4,0.5,2.3,0.5c0.9,0,1.5-0.1,2.1-0.4c0.5-0.3,0.9-0.7,1.2-1.2s0.4-1,0.5-1.5s0.1-1,0.1-1.6c-0.2-2.6-0.1-5.1,0.1-7.7
			c0.1-1,0.1-1.8,0.1-2.4s-0.1-1-0.3-1.2s-0.6-0.4-1-0.5s-0.8-0.2-1-0.2c0.1-0.3,0.2-0.6,0.3-0.9c2.1-0.1,4.2-0.1,6.3-0.2
			C527.1,97.9,527.1,98.2,527.1,98.5z"/>
		<path class="st9" d="M544.9,98.8c-0.2,0-0.5,0.1-0.8,0.2c-0.4,0.1-0.6,0.2-0.7,0.4c-0.2,0.2-0.1,0.6,0.1,1.2
			c0.2,0.6,0.5,1.4,0.7,2.3c1.4,4.5,0.7,9.1-2,13.6c-0.3,0-0.7,0-1,0c-0.4-5-5.3-10.2-9.3-15.3c0.3,3.3,0.4,6.5,0.2,9.8
			c-0.1,1.1-0.1,1.9,0,2.5s0.2,1,0.4,1.3c0.2,0.2,0.5,0.4,1,0.5c0.5,0.2,0.9,0.3,1.1,0.3c-0.1,0.3-0.1,0.6-0.2,0.9
			c-2.2,0-4.4,0-6.6,0c0-0.3,0-0.6,0-0.9c0.2,0,0.6-0.1,1.1-0.2c0.5-0.2,0.8-0.3,1-0.4c0.3-0.2,0.5-0.6,0.6-1.1s0.2-1.4,0.3-2.6
			c0.1-3.1,0.1-6.2-0.1-9.3c0-0.4-0.1-0.8-0.3-1.2c-0.2-0.4-0.3-0.7-0.6-0.9c-0.3-0.3-0.7-0.5-1.2-0.7s-0.8-0.3-1.1-0.3
			c0-0.3,0-0.6,0-0.9c1.5,0,2.9,0,4.4,0c3.7,4.8,8.8,9.7,10.9,14.4c0.8-3,0.8-5.9,0-8.9c-0.3-1.1-0.7-1.9-1-2.5
			c-0.4-0.6-0.7-1-1.1-1.2c-0.3-0.2-0.7-0.3-1.3-0.5s-1-0.3-1.2-0.3c-0.1-0.3-0.3-0.6-0.4-0.9c2.1,0.1,4.2,0.1,6.3,0.2
			C544.4,98.2,544.6,98.5,544.9,98.8z"/>
		<path class="st9" d="M564.6,110.4c-1,1.6-2.8,3.2-5.3,4.8c-4.4,0.4-8.9,0.7-13.3,1c0.2-0.3,0.4-0.6,0.6-0.9c0.2,0,0.6-0.1,1-0.2
			s0.7-0.1,0.9-0.2c0.3-0.1,0.6-0.3,0.9-0.5c0.2-0.2,0.5-0.5,0.7-0.8c2.7-4.3,2.5-8.6-0.4-12.9c-0.2-0.3-0.4-0.5-0.7-0.7
			c-0.2-0.2-0.6-0.4-0.9-0.6c-0.3-0.1-0.6-0.2-1.1-0.3c-0.4-0.1-0.7-0.2-0.9-0.2c-0.2-0.3-0.5-0.6-0.7-0.9c4,0.2,8,0.5,11.9,0.9
			c2.1,1.3,3.7,2.6,4.8,4c-0.3,0-0.6,0-1,0c-0.6-0.6-1.6-1.2-2.9-2c-1.3-0.7-2.2-1.1-2.7-1.2c-0.3,0-0.6-0.1-0.9-0.1
			c-0.3,0-0.7-0.1-1.1-0.1c-0.8-0.1-1.7-0.1-2.5-0.2c2.3,2.3,3.6,4.7,3.9,7c0.7,0,1.4,0,2.1,0c0.7,0,1.2-0.1,1.5-0.2
			s0.5-0.3,0.7-0.6c0.1-0.2,0.2-0.5,0.2-0.9s-0.1-0.7-0.3-1.1c0.3,0,0.6,0,1,0c1.4,2.2,1.6,4.4,0.7,6.6c-0.3,0-0.7,0-1,0
			c0.1-0.4,0.2-0.8,0.1-1.2c-0.1-0.4-0.2-0.7-0.3-0.9c-0.3-0.3-0.6-0.5-0.9-0.6c-0.4-0.1-0.8-0.1-1.4-0.1c-0.7,0-1.4,0-2.1,0
			c0,1.8-0.5,3.5-1.5,5.3c-0.3,0.5-0.6,0.9-0.7,1.3c-0.2,0.3-0.2,0.5-0.1,0.7c0.1,0.1,0.3,0.2,0.6,0.3c0.3,0,0.8,0,1.4,0
			c0.3,0,0.6,0,1-0.1c0.4,0,0.8-0.1,1.1-0.1c0.3-0.1,0.7-0.1,1.1-0.2c0.4-0.1,0.8-0.2,1.1-0.4c0.8-0.4,1.8-1,2.8-1.8
			c1.1-0.8,1.7-1.3,2-1.7C563.9,110.4,564.2,110.4,564.6,110.4z"/>
	</g>
</g>
<line class="st8" x1="462.6" y1="147.5" x2="601.7" y2="146.5"/>
<line class="st8" x1="461" y1="182.5" x2="602" y2="182.5"/>
<line class="st8" x1="460" y1="211.5" x2="600" y2="211.5"/>
<line class="st8" x1="454.8" y1="239.5" x2="595.1" y2="243.1"/>
<path class="st8" d="M481.2,118.9V147v34.5c0,0.7-0.1,1.4-0.2,2.1l-7.9,53.6c-0.2,1.5-0.6,2.9-1.2,4.2l-12.2,27.1"/>
<path class="st8" d="M498.9,119.1v28.1v34.5c0,0.7-0.1,1.4-0.2,2.1l-7.9,53.6c-0.2,1.5-0.6,2.9-1.2,4.2l-12.2,27.1"/>
<path class="st8" d="M520.5,119.1v28.1v34.5c0,0.7-0.1,1.4-0.2,2.1l-7.9,53.6c-0.2,1.5-0.6,2.9-1.2,4.2L499,268.7"/>
<path class="st8" d="M540.6,118.9V147v34.5c0,0.7-0.1,1.4-0.2,2.1l-7.9,53.6c-0.2,1.5-0.6,2.9-1.2,4.2l-12.2,27.1"/>
<path class="st8" d="M558.7,119.1v28.1v34.5c0,0.7-0.1,1.4-0.2,2.1l-7.9,53.6c-0.2,1.5-0.6,2.9-1.2,4.2l-12.2,27.1"/>
<path class="st8" d="M582.3,119.1v28.1v34.5c0,0.7-0.1,1.4-0.2,2.1l-7.9,53.6c-0.2,1.5-0.6,2.9-1.2,4.2l-12.2,27.1"/>
<g>
	<g>
		<g>
			<g>
				<g>
					<path class="st10" d="M459.6,132.4c-0.2,0.7,0.2,1.7,0.5,2.6C460.3,134.1,460.1,133.3,459.6,132.4z"/>
					<path class="st10" d="M460.1,135.1L460.1,135.1C460.2,135.1,460.1,135,460.1,135.1L460.1,135.1z"/>
					<path class="st10" d="M585.5,258.7c0.3-0.3,0.5-0.7,0.8-1.1C586,258,585.7,258.3,585.5,258.7z"/>
					<path class="st10" d="M486.6,173.4l0.7-0.5c1.6,1.5-0.2,1.1,1.5,2.4c1.4-0.3,2.5,2.4,3.4,2.4c-0.1,0.1,0.7,0.8,0.4,1
						c0.6-0.3,0.9,0.6,1.5,0.9c0.3,0,0-0.2,0-0.5l1.2,0.8c0.3,0.5,0.2,0.9-0.3,0.5c1.4,1.3,5.5,5,9.8,8.4s8.8,6.6,10.5,7.6
						c-0.2-0.7-1.4-1.1-1.3-2c1.1,0.3,1.2,1,1.8,0.9c-0.3,1.1,1.8,1.5,1.8,2.9l0.6-0.3l0.2,0.6c4.2,2,1.1,0.3,4.4,2.7
						c2,1.2,3.4,1.1,4.4,2c-0.2-0.1-0.4-0.7,0.2-0.5c-0.2,0.5,1.6,0.5,1.5,1.2c0.5,0.3,2.1,1.3,2,0.4c0.1,0.5,1.5,1.5,0.4,1.3
						c0.5,0.3,0.9,0.7,1.3,0.8l-0.5-0.6c1.7,0.9,2.3,2,3.7,2.1l-0.5-0.6c1,0.6,1.9,1,1.9,1.9l-1.1-0.4c1.6,1,2.7,1.6,4.2,2.1
						l-0.5-0.3c1.1,0.2,3.9,1.6,6.6,2.9c2.7,1.3,5.4,2.7,6.3,2.8l-0.3-0.9l1.5,0.5c-0.1-0.1-1.7,1.1-1.7,0.8
						c1.3,0.9,5.5,3.7,8.9,6.8c1.7,1.6,3.3,3.2,4.5,4.6c1.2,1.4,2,2.6,2.3,3.2c0.3,1-0.6,0.7-0.7,0.7c0.8,0.9,0.8,0.1,1.3,1
						c0.1,0.3-0.4,0.2-0.6,0.1c0.3,0.3,0.3,0.8,0.6,0.7c-0.1-0.6,0.6-0.7,0.9-1.2c0,0,0.2,0.3,0.3,0.6c0.2,0.3,0.3,0.6,0.3,0.6
						l-0.4,0.2c0.1,0.2,1.4,0.1,1.7,1.3c0.7,1.9,1.3,3.9,1.3,5.6c-0.3,0-0.4-0.4-0.6-0.7c0,0.2,0.1,0.5-0.1,0.7
						c0.5-0.4,0.3,0.7,0.5,0.4c0.5,0.6,0.5,1.4,0.4,2c-0.1,0.7-0.4,1.2-0.2,1.8c0.4,0.2,4.2,2.3,7.2,5.4c1.6,1.5,3,3.2,4,4.6
						s1.7,2.5,1.9,2.7c-0.6,0.8-1.4,1.6-1.6,1.7c0.2,0,0.7-0.4,1.1-0.9c0.5-0.5,0.9-1.1,1.2-1.6l-0.4-0.5c1.1-2.1,0.7-0.3,1.8-2.3
						c0.5,0.1-0.4,2.1-1.6,3.7c1.2-1.4,2.3-2.7,2.2-3.6c0.9-1.4,0.5,0.5,1.5-1.2c0.4-1.4,0.6-3.2,1.2-4.6h0.1
						c0.7-1.7,0.7-3.2,0.7-4.5c-0.1-1.3-0.2-2.6,0-4.2l0.2,0.3c0.3-1.1-0.3-3.4-0.4-5.4c0,0.6-0.3,1.1-0.5,0
						c-0.2-2.3-0.9-3.6-1.1-5.2c0,0-0.3-0.3-0.5-0.6c-0.3-0.3-0.5-0.6-0.5-0.6c-0.7-1.7-2-4.5-4-7.3c-2-2.9-4.4-5.7-7.1-8.4
						c-5.3-5.3-11.1-9.3-13.4-10.9l0.2,0.1c-3.5-2.4-8.9-5.8-14.1-8.9c-5.2-3.1-10.3-6.1-13.9-8c-0.8-1.1-2.3-1.9-3.3-2.7
						c0.5,0.6,0.1,0.7-0.4,0.4c-3.2-2.2-0.4,0.1-3.8-1.9c-2-1.1-6.5-4.1-10.7-7.4c-4.2-3.3-8.1-6.7-9.5-8.2c-2.1-0.8-3.7-2.9-5.5-4
						h0.3c-0.9-0.6-3.5-3.2-6-5.9s-4.8-5.5-5.7-6.4l0.1,0.3c-1.8-1.4-1-1.7-1.8-3.2c-0.5,0.7-2-0.5-2.5-1l0.2-0.1
						c-0.8-0.8-2.8-2.3-3.9-3.7l0.4-0.2c-0.6-0.5-1.3-1.3-1.8-2.2c-0.6-0.8-1-1.7-1.3-2.1c-1.1-2.2-2.3-5.8-4.1-8.4
						c0,0,0.1-0.6,0.1-1.2c0.1-0.6,0.2-1.2,0.2-1.2l-0.2-0.2c0,0-3.8,0.8-7.9,2.1c-4,1.3-8.2,3.3-8.7,6.3l-0.4,0.1l0.5,0.9
						c0.3,1.2,1,1.5,0.6,1.6c0,0-0.2-0.4-0.3-0.8c-0.2-0.4-0.3-0.8-0.3-0.8c0.4,1.2-0.2,0.5-0.6,0.2c0.2,0.5,0.4,1,0.4,1.4
						c0.3,0.1,0.1-0.2,0.1-0.5c0.4,0.5,1.2,1.2,1.4,2c0.5,1.1-0.6,0.4,0,1.7c1.6,3.5,3.4,6.9,5.4,10.2s4.1,6.4,6.6,9.4
						c0,0.3-0.2,0.1-0.4,0c1.6,1.7,2.9,3.3,4.4,4.8c0.2,0.6,0.1,0.9,0.1,1.1c0-0.2,2,1.9,4.1,4c1,1,2.1,2.1,2.9,2.9
						C486.1,172.8,486.6,173.4,486.6,173.4z"/>
				</g>
			</g>
		</g>
	</g>
</g>
<g>
	<g>
		<g>
			<g>
				<g>
					<path class="st10" d="M465.7,265.6c1.2-0.2,2.7-1.3,3.9-2.5C468.4,263.8,467.3,264.5,465.7,265.6z"/>
					<path class="st10" d="M469.7,263.1L469.7,263.1L469.7,263.1L469.7,263.1z"/>
					<path class="st10" d="M587.3,119.7c-0.3,0-0.6,0.1-0.9,0.1C586.7,119.8,587,119.8,587.3,119.7z"/>
					<path class="st10" d="M496,225l-0.5-0.6c1.4-1.7,1.1,0.1,2.2-1.6c-0.3-1.3,2.3-2.5,2.3-3.4c0.1,0.1,0.7-0.7,1-0.4
						c-0.3-0.6,0.6-0.9,0.9-1.4c0-0.3-0.2,0-0.5,0l0.8-1.2c0.5-0.3,0.9-0.2,0.5,0.3c0.7-0.7,1.9-2,3.5-3.7s3.5-3.7,5.5-5.8
						c3.9-4.1,7.8-8.4,9-10.1c-0.7,0.1-1.3,1.3-2.2,1.2c0.4-1.1,1.2-1.1,1.2-1.8c1.1,0.4,1.8-1.7,3.2-1.7l-0.3-0.6l0.7-0.2
						c2.7-4.2,0.5-1.1,3.4-4.4c1.6-2.1,1.7-3.5,2.8-4.5c-0.1,0.2-0.8,0.4-0.5-0.2c0.5,0.2,0.8-1.7,1.4-1.6c0.3-0.6,1.7-2.2,0.7-2.1
						c0.5-0.1,1.8-1.5,1.4-0.4c0.4-0.5,0.9-0.9,1-1.4l-0.7,0.6c1.2-1.9,2.3-2.5,2.6-4.1l-0.7,0.5c0.7-1.1,1.3-2,2.2-2.1l-0.6,1.2
						c1.3-1.8,1.9-3,2.6-4.8l-0.4,0.5c0.2-0.6,0.7-1.7,1.3-3.1c0.7-1.4,1.4-3,2-4.4c1.3-2.9,2.3-4.9,2.5-5.7c0,0-0.2,0-0.4,0.1
						c-0.2,0-0.4,0.1-0.4,0.1s0.1-0.3,0.2-0.6c0.1-0.3,0.2-0.6,0.2-0.6c-0.1,0.1,1,1.7,0.8,1.6c0.2-0.2,0.5-0.6,0.9-1
						s0.9-0.8,1.5-1.4c1.3-1,3.4-2.3,5.8-3.6c4.9-2.7,9.7-5,11.3-5.5c1.3-0.3,0.6,0.7,0.6,0.8c1.3-0.8,0.4-0.8,1.6-1.3
						c0.4-0.1,0.1,0.4,0,0.6c0.5-0.3,1.1-0.3,1-0.6c-0.7,0.1-0.7-0.7-1.2-1c0,0,0.4-0.2,0.8-0.3c0.4-0.2,0.8-0.3,0.8-0.3l0.1,0.4
						c0.4-0.1,0.4-1.5,2.1-1.9c2.7-0.9,5.6-2,8.3-2.7c0,0.3-0.5,0.6-1,0.9c0.4-0.1,0.9-0.3,1.3-0.2c-0.8-0.3,1-0.6,0.5-0.7
						c1.7-1.6,4.5-1.2,6.1-2.3c0-0.5,0.2-4.8,0.6-9.1c0.4-4.3,1-8.7,1-9.2c0.7-0.1,1.4-0.1,1.6-0.1c-0.2-0.2-1.6-0.2-2.3,0v0.6
						c-1.6,0.4-0.4-0.3-2.1,0c-0.2-0.5,1.3-0.9,2.7-1.1c-1.2,0.1-2.5-0.1-2.9,0.5c-1.2,0,0-0.6-1.4-0.6c-0.9,0.3-2.1,1.1-3.3,1v-0.1
						c-2.8,0.1-3.8,1.7-6.3,1.9l0.2-0.2c-0.9,0-2.4,0.8-4,1c0.5,0,0.9,0.2,0.1,0.5c-1.8,0.2-2.8,1-4.1,1l-1,0.9
						c-1.4,0.5-3.9,1.5-6.7,2.8c-2.8,1.3-6.1,3-9.2,4.7c-1.6,0.9-3.1,1.7-4.6,2.6c-1.5,0.9-3.1,1.8-4.6,2.8s-2.9,2-4.2,3.1
						c-1.2,1-2.3,2-3,2.8l0.2-0.3c-2.2,2.2-4.3,5.2-6.1,8.2c-0.9,1.5-1.7,2.9-2.4,4.2s-1.5,2.5-2.3,3.8c-0.4,0.6-0.8,1.3-1.1,1.9
						c-0.4,0.6-0.8,1.3-1.2,1.9c-0.8,1.2-1.6,2.5-2.4,3.6c-1.7,2.3-3.1,4.5-4.2,6.2c-1.2,0.7-2.2,2.2-3.2,3.1c0.6-0.5,0.7,0,0.4,0.4
						c-2.7,3.2,0.1,0.4-2.5,3.8c-1.4,2-5.3,6.4-9.3,10.8c-4,4.3-8.2,8.6-9.8,10.2c-1.1,2.3-3.5,4.2-4.7,6.3v-0.3
						c-0.7,1-3.6,4.3-6.4,7.6c-1.4,1.7-2.8,3.5-3.9,4.9c-1.1,1.5-2,2.7-2.4,3.4l0.3-0.3c-1.2,2.5-1.6,1.7-3.1,3.3
						c0.8,0.2-0.1,2.4-0.5,3.2l-0.1-0.1c-0.6,1.2-1.7,4.1-2.6,6.1l-0.3-0.3c-0.5,1.8-2.4,4.7-2.9,6c-0.7,1.3-1.8,3-2.8,4.8
						c-0.9,1.7-1.5,2.8-1.6,3.4c0,0-1.3-0.4-1.3-0.5v0.1c0,0,0.6,0.8,1.3,2c0.8,1.3,1.7,3,2.6,4.9c1,1.9,2,3.8,3.4,5.2
						c1.4,1.4,3.3,2.1,5.5,1.2l0.2,0.4c0,0,0.3-0.3,0.6-0.6c0.3-0.3,0.6-0.7,0.6-0.7c1.7-1.6,1.7-2.6,2-2.3c0,0-0.4,0.6-0.9,1.1
						c-0.5,0.6-1,1.1-1,1.1c1.6-1.6,0.7-0.3,0.3,0.5c0.3-0.3,0.7-0.7,1-1s0.6-0.6,0.9-0.9c0.1-0.4-0.3,0.1-0.6,0.4
						c0.6-1.1,1.1-2.5,1.8-3.5c0.4-0.8,0.6-0.7,0.8-0.7c0.2,0,0.4,0,0.8-0.8c0.6-1.1,1-2,1.4-2.7s0.8-1.4,1.2-2.2l1.2-2.2
						c0.4-0.7,0.9-1.4,1.3-2.1l1.3-2.1c0.4-0.7,0.9-1.4,1.4-2.1c1-1.4,1.9-2.8,2.8-4.3c0.2,0,0.1,0.1,0.1,0.3c1.1-1.8,2.2-3.3,3.2-5
						c0.5-0.3,0.8-0.3,1-0.3c-0.2,0,1.3-2.2,3-4.4c0.8-1.1,1.8-2.2,2.4-3C495.5,225.6,495.9,225,496,225z"/>
				</g>
			</g>
		</g>
	</g>
</g>
<g>
	
		<ellipse transform="matrix(0.4311 -0.9023 0.9023 0.4311 213.6847 521.5678)" class="st11" cx="520.5" cy="91.3" rx="2.9" ry="2.3"/>
	<path class="st11" d="M519.8,93l-4.2-2.1c-0.5-0.2-0.7-0.8-0.5-1.3l0.8-1.6c0.2-0.5,0.8-0.7,1.3-0.5l4.2,2.1
		c0.5,0.2,0.7,0.8,0.5,1.3l-0.8,1.6C520.9,93.1,520.3,93.3,519.8,93z"/>
	
		<ellipse transform="matrix(0.4311 -0.9023 0.9023 0.4311 213.0209 517.5218)" class="st11" cx="516.9" cy="89.8" rx="2.5" ry="1.8"/>
	<line class="st12" x1="522.5" y1="92.3" x2="524.7" y2="94.1"/>
	<line class="st12" x1="521.7" y1="93.4" x2="524.7" y2="94.1"/>
</g>
<g>
	
		<radialGradient id="SVGID_6_" cx="99.7234" cy="368.6061" r="15.8005" gradientTransform="matrix(4.368230e-002 0.999 -1.0867 4.751468e-002 563.6581 260.7326)" gradientUnits="userSpaceOnUse">
		<stop  offset="0" style="stop-color:#FFFFFF"/>
		<stop  offset="8.510865e-002" style="stop-color:#FFEDD8"/>
		<stop  offset="0.2082" style="stop-color:#FFD5A7"/>
		<stop  offset="0.3345" style="stop-color:#FFC17D"/>
		<stop  offset="0.462" style="stop-color:#FFB05B"/>
		<stop  offset="0.591" style="stop-color:#FFA340"/>
		<stop  offset="0.7222" style="stop-color:#FF9A2D"/>
		<stop  offset="0.8568" style="stop-color:#FF9522"/>
		<stop  offset="1" style="stop-color:#FF931E"/>
	</radialGradient>
	<path class="st13" d="M181,378.8l0.4,8.6c0.1,1-0.8,1.9-1.8,2l-25.3,1.1c-1,0.1-1.9-0.8-2-1.8l-0.4-8.6c-0.1-1,0.8-2,1.9-2
		l15.6-0.7l3.9-15.5l8.7,2.2l-3.3,12.9h0.4C180.1,377,181,377.8,181,378.8z"/>
	
		<radialGradient id="SVGID_7_" cx="885.7951" cy="440.2709" r="15.8005" gradientTransform="matrix(0.193 0.9812 1.0673 -0.2099 -424.1655 -404.8442)" gradientUnits="userSpaceOnUse">
		<stop  offset="0" style="stop-color:#FFFFFF"/>
		<stop  offset="8.510865e-002" style="stop-color:#FFEDD8"/>
		<stop  offset="0.2082" style="stop-color:#FFD5A7"/>
		<stop  offset="0.3345" style="stop-color:#FFC17D"/>
		<stop  offset="0.462" style="stop-color:#FFB05B"/>
		<stop  offset="0.591" style="stop-color:#FFA340"/>
		<stop  offset="0.7222" style="stop-color:#FF9A2D"/>
		<stop  offset="0.8568" style="stop-color:#FF9522"/>
		<stop  offset="1" style="stop-color:#FF931E"/>
	</radialGradient>
	<path class="st14" d="M203.7,376l1.7,8.4c0.2,1,1.2,1.7,2.2,1.5l24.9-4.9c1-0.2,1.7-1.2,1.5-2.2l-1.7-8.4c-0.2-1-1.2-1.7-2.2-1.5
		l-15.3,3l-7.5-14.1l-8,4.2l6.2,11.7l-0.4,0.1C204.2,374,203.5,375,203.7,376z"/>
	<polygon class="st15" points="212.6,356.8 199.2,365.1 185.5,342.9 183,371.3 167.3,369.9 170.5,333.4 180.1,334.3 179.9,334 
		193.3,325.7 	"/>
	
		<radialGradient id="SVGID_8_" cx="283.0317" cy="-25.6345" r="10.4512" gradientTransform="matrix(0.8853 -0.465 0.3083 0.5869 -59.9169 387.8766)" gradientUnits="userSpaceOnUse">
		<stop  offset="0" style="stop-color:#FFFFFF"/>
		<stop  offset="8.510865e-002" style="stop-color:#FFEDD8"/>
		<stop  offset="0.2082" style="stop-color:#FFD5A7"/>
		<stop  offset="0.3345" style="stop-color:#FFC17D"/>
		<stop  offset="0.462" style="stop-color:#FFB05B"/>
		<stop  offset="0.591" style="stop-color:#FFA340"/>
		<stop  offset="0.7222" style="stop-color:#FF9A2D"/>
		<stop  offset="0.8568" style="stop-color:#FF9522"/>
		<stop  offset="1" style="stop-color:#FF931E"/>
	</radialGradient>
	<path class="st16" d="M191.5,246.7l-9.2,4.8c-0.5,0.3-1.1,0.1-1.4-0.4l-7.3-13.9c-0.3-0.5-0.1-1.1,0.4-1.4l9.2-4.8
		c0.5-0.3,1.1-0.1,1.4,0.4l7.3,13.9C192.1,245.8,191.9,246.4,191.5,246.7z"/>
	
		<radialGradient id="SVGID_9_" cx="359.9266" cy="125.0759" r="6.7106" gradientTransform="matrix(1.2608 -0.7439 0.5639 0.9556 -349.1709 382.9214)" gradientUnits="userSpaceOnUse">
		<stop  offset="0" style="stop-color:#FFFFFF"/>
		<stop  offset="8.510865e-002" style="stop-color:#FFEDD8"/>
		<stop  offset="0.2082" style="stop-color:#FFD5A7"/>
		<stop  offset="0.3345" style="stop-color:#FFC17D"/>
		<stop  offset="0.462" style="stop-color:#FFB05B"/>
		<stop  offset="0.591" style="stop-color:#FFA340"/>
		<stop  offset="0.7222" style="stop-color:#FF9A2D"/>
		<stop  offset="0.8568" style="stop-color:#FF9522"/>
		<stop  offset="1" style="stop-color:#FF931E"/>
	</radialGradient>
	<path class="st17" d="M179.7,232c2.8,4.6,2.9,9.6,0.4,11.1c-2.5,1.5-6.7-1.1-9.5-5.7s-2.9-9.6-0.4-11.1
		C172.7,224.8,176.9,227.4,179.7,232z"/>
	<radialGradient id="SVGID_10_" cx="151.2245" cy="256.1176" r="29.588" gradientUnits="userSpaceOnUse">
		<stop  offset="0" style="stop-color:#FFFFFF"/>
		<stop  offset="8.510865e-002" style="stop-color:#FFEDD8"/>
		<stop  offset="0.2082" style="stop-color:#FFD5A7"/>
		<stop  offset="0.3345" style="stop-color:#FFC17D"/>
		<stop  offset="0.462" style="stop-color:#FFB05B"/>
		<stop  offset="0.591" style="stop-color:#FFA340"/>
		<stop  offset="0.7222" style="stop-color:#FF9A2D"/>
		<stop  offset="0.8568" style="stop-color:#FF9522"/>
		<stop  offset="1" style="stop-color:#FF931E"/>
	</radialGradient>
	<circle class="st18" cx="151.2" cy="256.1" r="29.6"/>
	
		<ellipse transform="matrix(0.9788 -0.2047 0.2047 0.9788 -46.2168 37.7662)" class="st19" cx="159.4" cy="242.3" rx="10.4" ry="10.5"/>
	<ellipse cx="162.1" cy="241.8" rx="7.3" ry="6.4"/>
	
		<radialGradient id="SVGID_11_" cx="315.0212" cy="126.5324" r="6.7045" gradientTransform="matrix(1.119 -0.855 0.6844 0.8957 -316.3437 427.0585)" gradientUnits="userSpaceOnUse">
		<stop  offset="0" style="stop-color:#FFFFFF"/>
		<stop  offset="8.510865e-002" style="stop-color:#FFEDD8"/>
		<stop  offset="0.2082" style="stop-color:#FFD5A7"/>
		<stop  offset="0.3345" style="stop-color:#FFC17D"/>
		<stop  offset="0.462" style="stop-color:#FFB05B"/>
		<stop  offset="0.591" style="stop-color:#FFA340"/>
		<stop  offset="0.7222" style="stop-color:#FF9A2D"/>
		<stop  offset="0.8568" style="stop-color:#FF9522"/>
		<stop  offset="1" style="stop-color:#FF931E"/>
	</radialGradient>
	<path class="st20" d="M126.8,268c3.3,4.4,4.2,9.2,2,11c-2.2,1.7-6.7-0.4-10.1-4.7c-3.3-4.4-4.2-9.2-2-11
		C119,261.5,123.5,263.6,126.8,268z"/>
	
		<ellipse transform="matrix(0.9788 -0.2047 0.2047 0.9788 -48.7648 34.8067)" class="st19" cx="143.9" cy="253.1" rx="10.4" ry="10.5"/>
	<ellipse cx="146.5" cy="252.7" rx="7.3" ry="6.4"/>
	<path class="st2" d="M129.4,242.3c0.8-1.7,1.7-3.5,2.6-5.1c0.5-0.8,1-1.7,1.8-2.2c1.7-1.1,4.2-0.4,5.1,1.4"/>
	<path class="st2" d="M146.7,231.9c0-1.7,0.3-3.5,0.8-5.2c0.1-0.4,0.3-0.9,0.6-1.2c0.4-0.4,1-0.5,1.6-0.5c2.1-0.1,4.3,0.9,5.6,2.6"
		/>
	<ellipse class="st19" cx="149.8" cy="251.9" rx="2.6" ry="2.8"/>
	<ellipse class="st19" cx="165.4" cy="241.1" rx="2.6" ry="2.8"/>
	
		<ellipse transform="matrix(0.9742 -0.2256 0.2256 0.9742 -55.8671 43.3495)" class="st21" cx="161.7" cy="266.1" rx="5.9" ry="8.6"/>
	<polygon class="st22" points="183.9,291.2 197.4,330.4 164.6,341.6 151.3,302.6 138.6,313.7 131.7,305.9 147.4,292.2 179.9,280.9 
		192.5,270 199.3,277.8 	"/>
	<linearGradient id="SVGID_12_" gradientUnits="userSpaceOnUse" x1="188.3149" y1="266.6645" x2="197.9171" y2="257.0623">
		<stop  offset="0" style="stop-color:#FFFFFF"/>
		<stop  offset="8.510865e-002" style="stop-color:#FFEDD8"/>
		<stop  offset="0.2082" style="stop-color:#FFD5A7"/>
		<stop  offset="0.3345" style="stop-color:#FFC17D"/>
		<stop  offset="0.462" style="stop-color:#FFB05B"/>
		<stop  offset="0.591" style="stop-color:#FFA340"/>
		<stop  offset="0.7222" style="stop-color:#FF9A2D"/>
		<stop  offset="0.8568" style="stop-color:#FF9522"/>
		<stop  offset="1" style="stop-color:#FF931E"/>
	</linearGradient>
	<polygon class="st23" points="193.4,271.1 196.4,267.8 184.6,250.3 189.1,248.3 204.7,266.1 198.3,276.7 	"/>
	<g>
		<path d="M137.1,228.4c-0.1-0.4-0.1-0.7-0.3-1s-0.3-0.6-0.4-1c-0.3-0.6-0.7-1.2-1.2-1.7c-0.5-0.5-1.1-0.9-1.8-1.1
			c-0.6-0.3-1.4-0.3-2.1-0.1l0,0l0.4,0.1l-0.4-0.1h-0.1h0.1c0.7-0.2,1.5-0.2,2.2,0c0.7,0.2,1.4,0.5,2,1c0.6,0.5,1,1.1,1.4,1.7
			c0.2,0.3,0.3,0.6,0.5,1c0.1,0.3,0.3,0.7,0.4,1.1L137.1,228.4z"/>
	</g>
	<g>
		<path d="M133,217.7C133,217.7,133,217.8,133,217.7L133,217.7L133,217.7c0,0.1,0,0.2,0.1,0.3c0.1,0.1,0.1,0.1,0.2,0.2l0.3,0.3
			c0.2,0.1,0.4,0.3,0.6,0.5c0.2,0.2,0.4,0.4,0.5,0.6c0.7,0.8,1.3,1.5,1.9,2.4c0.6,0.8,1.1,1.7,1.5,2.6l0.7,1.3
			c0.3,0.4,0.4,0.9,0.6,1.4l-0.3,0.1c-0.3-1.7-0.3-3.4,0.1-5.1c0.2-0.8,0.4-1.7,0.7-2.4c0.1-0.4,0.3-0.8,0.5-1.2
			c0.2-0.4,0.4-0.7,0.6-1.1c-0.3,0.3-0.4,0.7-0.6,1.1c-0.2,0.4-0.3,0.8-0.5,1.2c-0.3,0.8-0.5,1.6-0.6,2.4c-0.3,1.7-0.3,3.3,0.1,4.9
			l-0.3,0.1c-0.1-0.4-0.3-0.9-0.6-1.3l-0.8-1.3c-0.5-0.8-1-1.7-1.6-2.5c-0.6-0.8-1.2-1.6-1.9-2.3c-0.2-0.2-0.4-0.3-0.5-0.5
			c-0.2-0.1-0.4-0.3-0.6-0.4l-0.3-0.3c-0.1-0.1-0.2-0.2-0.3-0.3c-0.1-0.1-0.2-0.3-0.3-0.4c0-0.1,0-0.2,0-0.3c0-0.1,0.1-0.1,0.1-0.2
			c0.1-0.1,0.1-0.1,0.1-0.1L133,217.7z"/>
	</g>
	<g>
		<path d="M140.7,225.9c0,0,0-0.1,0.1-0.2c0-0.1,0.1-0.2,0.1-0.3c0.1-0.1,0.1-0.3,0.2-0.3c0.3-0.4,0.9-0.9,1.5-1.2
			c0.6-0.4,1.2-0.7,1.5-1.1c0.2-0.2,0.3-0.3,0.4-0.4c0.1-0.1,0.1-0.2,0.1-0.2s-0.1,0.1-0.1,0.2c-0.1,0.1-0.2,0.3-0.3,0.5
			c-0.3,0.4-0.8,0.8-1.3,1.3c-0.5,0.4-1,0.9-1.2,1.3c-0.1,0.1-0.1,0.2-0.1,0.3s-0.1,0.1-0.1,0.2c0,0.1-0.1,0.3-0.1,0.3L140.7,225.9z
			"/>
	</g>
	
		<radialGradient id="SVGID_13_" cx="478.0183" cy="-137.5382" r="10.4371" gradientTransform="matrix(-0.4849 0.8746 0.5798 0.3215 416.1417 -80.0583)" gradientUnits="userSpaceOnUse">
		<stop  offset="0" style="stop-color:#FFFFFF"/>
		<stop  offset="8.510865e-002" style="stop-color:#FFEDD8"/>
		<stop  offset="0.2082" style="stop-color:#FFD5A7"/>
		<stop  offset="0.3345" style="stop-color:#FFC17D"/>
		<stop  offset="0.462" style="stop-color:#FFB05B"/>
		<stop  offset="0.591" style="stop-color:#FFA340"/>
		<stop  offset="0.7222" style="stop-color:#FF9A2D"/>
		<stop  offset="0.8568" style="stop-color:#FF9522"/>
		<stop  offset="1" style="stop-color:#FF931E"/>
	</radialGradient>
	<path class="st24" d="M109.9,302.7l5-9c0.3-0.5,0.1-1.1-0.4-1.4l-13.7-7.7c-0.5-0.3-1.1-0.1-1.4,0.4l-5,9.1
		c-0.3,0.5-0.1,1.1,0.4,1.4l13.7,7.6C109,303.3,109.6,303.1,109.9,302.7z"/>
	
		<linearGradient id="SVGID_14_" gradientUnits="userSpaceOnUse" x1="347.7889" y1="103.8733" x2="357.3911" y2="94.271" gradientTransform="matrix(-7.687522e-002 0.997 0.997 7.687522e-002 52.2522 -53.1542)">
		<stop  offset="0" style="stop-color:#FFFFFF"/>
		<stop  offset="8.510865e-002" style="stop-color:#FFEDD8"/>
		<stop  offset="0.2082" style="stop-color:#FFD5A7"/>
		<stop  offset="0.3345" style="stop-color:#FFC17D"/>
		<stop  offset="0.462" style="stop-color:#FFB05B"/>
		<stop  offset="0.591" style="stop-color:#FFA340"/>
		<stop  offset="0.7222" style="stop-color:#FF9A2D"/>
		<stop  offset="0.8568" style="stop-color:#FF9522"/>
		<stop  offset="1" style="stop-color:#FF931E"/>
	</linearGradient>
	<polygon class="st25" points="133,307 129.6,309.7 113,296.6 110.7,301 127.2,317.9 138.3,312.3 	"/>
</g>
<linearGradient id="SVGID_15_" gradientUnits="userSpaceOnUse" x1="134.3869" y1="121.9608" x2="17.5421" y2="94.7004">
	<stop  offset="4.926108e-003" style="stop-color:#FF7BAC"/>
	<stop  offset="0.5018" style="stop-color:#FF99AC"/>
	<stop  offset="0.9951" style="stop-color:#FFB2AC"/>
</linearGradient>
<path class="st26" d="M8.7,132.6c3.7,1,22.4,11.2,28.1,14.7c4.9,3,9.8,6,14.8,9c5.3,3.2,10.7,6.5,16.7,7.9c3.1,0.7,6.4,1,9.1,2.7
	c3,1.9,4.9,5.3,8,7c4.2,2.3,9.7,0.8,14,3c1.9,1,3.3,2.6,5,3.9c2.9,2.1,6.5,3.3,10.1,3.1c4.6-7.1,8.8-14.7,10.8-23
	c2-8.2,1.7-17.3-2.4-24.8c-2.4-4.4-6-8.2-8-12.8c-2.7-6.3-2.1-13.5-1.4-20.4c0.4-3.6,0.7-7.2,2.3-10.5c1.1-2.3,2.7-4.3,3.8-6.5
	c2.8-5.6,2.6-12.7,6.5-17.6c2-2.6,5.1-5,4.2-8.1c-1.5-5.2-7-8.3-12.3-9.2c-5.3-1-10.9-0.4-16.2-1.2c-3.9-0.6-7.7-2-11.6-1.4
	c-5.2,0.8-10,4.9-15.1,3.6l-0.5-0.5c-3,3-5.8,6.2-8.5,9.4c-2.3,2.8-5.4,6-9.4,6.1s-8.2-2.8-11.5-0.8c-2.9,5.4,2.4,10.8,4.2,16.3
	c2,6.3-0.7,13.1-3.5,19.5c-2.2,5-4.3,10-6.5,15c-2.3,5.4-5.2,11.3-11.4,14.1C22.2,133.7,15.4,132.7,8.7,132.6z"/>
<linearGradient id="SVGID_16_" gradientUnits="userSpaceOnUse" x1="72.4842" y1="95.1988" x2="12.8634" y2="81.289">
	<stop  offset="0.3005" style="stop-color:#666666"/>
	<stop  offset="0.7391" style="stop-color:#9A9A9A"/>
	<stop  offset="0.9951" style="stop-color:#B3B3B3"/>
</linearGradient>
<path class="st27" d="M8.1,132.6c0-0.1,0.2-0.1,0.6,0c6.7,0.1,13.5,1.1,19.4-1.5c6.2-2.8,9.1-8.7,11.4-14.1c2.2-5,4.3-10,6.5-15
	c2.7-6.4,5.5-13.2,3.5-19.5c-1.8-5.5-7.2-10.9-4.2-16.3c3.3-2,7.5,0.9,11.5,0.8c4.1-0.1,7.1-3.3,9.4-6.1c2.7-3.2,5.4-6.4,8.5-9.4
	c3-3,6.3-5.8,10-8.2l0,0c-7.9,4.4-5.2,3.1-13.9,6.2c-5,1.8-10.3,3.1-15.3,5C40.9,60,29.2,70.4,24.2,82.3c-3.7,8.8-3.9,18.1-6.1,27.2
	s-7.2,18.6-17.4,23.7C3.1,132.7,5.6,132.6,8.1,132.6z"/>
<linearGradient id="SVGID_17_" gradientUnits="userSpaceOnUse" x1="290.4958" y1="223.2583" x2="186.3342" y2="198.9568">
	<stop  offset="4.926108e-003" style="stop-color:#FFFFA8"/>
	<stop  offset="0.668" style="stop-color:#FFFFE6"/>
	<stop  offset="0.9951" style="stop-color:#FFFFFF"/>
</linearGradient>
<path class="st28" d="M188.5,199.3c2.5,6.7,7.4,11,13.4,16.1c4.1,3.4,8.5,6.6,13.1,9.5l2.9,1.5v0.3c0.7,0.4,1.4,0.8,2.1,1.2
	c8.2,4.7,16.9,8.5,25.8,11.4c13.1,4.2,26.7,6.3,39.6,5.8v-0.8c-31.2-17.8-59.1-41.1-81.1-67.8l-0.6-0.4c-4.2,2.1-8.1,4.6-11.7,7.5
	c-0.7,0.6-1.4,1.2-2,1.9c-1.4,1.9-1.5,4.6-1.5,7.1C188.5,194.9,188.5,197.1,188.5,199.3z"/>
<path class="st29" d="M240.7,125.4c-3.9,0.7-7.3,5.3-8,10.7l0.5-0.2c5-1.7,10.1-1.9,14.9-0.9h0.2C248.4,129,245,124.7,240.7,125.4z"
	/>
<path class="st30" d="M217.9,226.4l-2.9-1.5c1,0.6,1.9,1.2,2.9,1.8V226.4z"/>
<path class="st30" d="M217.2,239l0.7-12.3c-1-0.6-1.9-1.2-2.9-1.8l-4.9-2.5l-8.1-5.6l-8.8-8.3l-17.5-22.8c0,0-0.6,24,24.4,41.6
	C204.8,230.7,211.7,236.8,217.2,239z"/>
<path d="M234,144.6c0,0.4,0.1,0.8,0.3,1.1c0.1,0.1,0.1,0.2,0.2,0.3c0.1,0.1,0.1,0.2,0.2,0.2l0,0c0.4,0.4,1,0.7,1.5,0.7
	C235.4,146.5,234.6,145.7,234,144.6z"/>
<path class="st31" d="M233.6,143.8c0.1,0.7,0.3,1.3,0.7,1.9c-0.2-0.4-0.3-0.7-0.3-1.1l0,0C233.9,144.4,233.7,144.1,233.6,143.8z"/>
<path class="st31" d="M234.5,146c-0.1-0.1-0.1-0.2-0.2-0.3C234.4,145.9,234.5,145.9,234.5,146z"/>
<path d="M234.7,143c-0.5,0.4-0.7,1-0.7,1.6l0,0c0.6,1,1.3,1.8,2.2,2.4c0.6,0.1,1.3-0.1,1.7-0.6c0.9-0.9,0.9-2.3,0-3.3
	C237.1,142.2,235.6,142.1,234.7,143z"/>
<path class="st32" d="M238,139.3c-0.6,0.9-0.5,2.1,0.3,2.9c0.9,0.9,2.4,1,3.3,0.1c0.1,0,0.1-0.1,0.1-0.1c-0.2-0.6-0.5-1.1-1-1.5
	C240,139.8,239,139.4,238,139.3z"/>
<path class="st31" d="M234.8,146.4c0.9,0.9,2,1.4,3.1,1.4c-0.6-0.1-1.2-0.4-1.7-0.7C235.7,147,235.2,146.7,234.8,146.4
	C234.8,146.3,234.8,146.3,234.8,146.4z"/>
<path class="st32" d="M238.3,138.9c-0.1,0.1-0.2,0.2-0.3,0.4c1,0.1,2,0.6,2.7,1.4c0.4,0.5,0.8,1,1,1.5c0.8-0.9,0.7-2.2-0.2-3.1
	C240.7,138.1,239.2,138,238.3,138.9z"/>
<path class="st31" d="M234.8,140.4c-0.9,0.9-1.3,2.2-1.2,3.4l0,0c0.1,0.3,0.3,0.5,0.4,0.8c0-0.6,0.2-1.2,0.7-1.6
	c0.9-0.9,2.4-0.8,3.3,0.1c0.9,0.9,0.9,2.4,0,3.3c-0.5,0.5-1.1,0.7-1.7,0.6c0.5,0.3,1.1,0.6,1.7,0.7c0,0,0,0,0.1,0
	c1,0,2.1-0.4,2.8-1.1c1.2-1.2,1.5-2.9,0.9-4.5l-0.1,0.1c-0.9,0.9-2.4,0.8-3.3-0.1c-0.8-0.8-0.9-2-0.3-2.9
	C236.9,139.1,235.7,139.5,234.8,140.4z"/>
<path class="st29" d="M232.6,136.1c0.7-5.4,4.1-10.1,8-10.7c4.3-0.7,7.7,3.6,7.6,9.7l3.2,0.7c0.2,0,0.3-0.2,0.3-0.5
	c0.3-6.5-4.7-12.6-7.9-12.6c-6,0-10.7,3.7-13.1,12c-0.2,0.7-0.4,1.4-0.5,2.1L232.6,136.1z"/>
<path class="st31" d="M272.3,141.1c0,0.5,0.2,1.1,0.4,1.6c-0.2-0.4-0.3-0.8-0.3-1.2C272.4,141.4,272.3,141.2,272.3,141.1z"/>
<path class="st31" d="M273.7,143.7c-0.4-0.2-0.8-0.6-1-1c0,0,0,0.1,0.1,0.1c0.5,0.9,1.2,1.6,2,2c-0.3-0.3-0.6-0.5-0.9-0.9
	C273.8,143.9,273.8,143.8,273.7,143.7z"/>
<path d="M272.7,142.7c0.2,0.5,0.6,0.8,1,1c-0.5-0.6-0.9-1.4-1.3-2.2C272.4,141.9,272.5,142.3,272.7,142.7z"/>
<path d="M276.7,140.6c-0.6-1.2-2-1.6-3.1-1.1c-0.7,0.4-1.2,1.1-1.2,2c0.3,0.8,0.7,1.6,1.3,2.2c0.6,0.3,1.4,0.4,2.1,0
	C276.9,143.2,277.3,141.8,276.7,140.6z"/>
<path class="st32" d="M277.9,136.9c-0.8,0.7-1,1.9-0.5,2.9c0.6,1.2,2,1.6,3.1,1.1c0.1,0,0.1-0.1,0.2-0.1c0-0.6-0.2-1.2-0.5-1.7
	C279.6,138,278.8,137.3,277.9,136.9z"/>
<path class="st29" d="M271.6,126.9c-0.4,0.5-0.7,1.1-1,1.7l2.7,1.2c0.2-0.5,0.5-0.9,0.8-1.4c2.9-4.5,7.3-6,10.4-3.8l0.3-0.4
	C280,120.8,275.5,121.2,271.6,126.9z"/>
<path class="st32" d="M277.9,136.9c0.9,0.4,1.7,1.1,2.3,2.1c0.3,0.6,0.4,1.2,0.5,1.7c1-0.6,1.3-1.9,0.8-3c-0.6-1.2-2-1.6-3.1-1.1
	C278.1,136.7,278,136.8,277.9,136.9z"/>
<path class="st29" d="M274.1,128.5c-0.3,0.4-0.5,0.9-0.8,1.4l0,0c4.6,2.1,8.9,5.4,12.7,9.8c2.4-4.9,2.2-10.8-0.6-14
	c-0.3-0.4-0.7-0.7-1-0.9C281.4,122.5,277,123.9,274.1,128.5z"/>
<path class="st31" d="M274.4,137c-1.5,0.8-2.3,2.4-2.2,4c0,0.2,0.1,0.3,0.2,0.4c0-0.8,0.4-1.6,1.2-2c1.1-0.6,2.5-0.1,3.1,1.1
	c0.6,1.2,0.2,2.6-0.9,3.1c-0.7,0.3-1.4,0.3-2.1,0c0.1,0.1,0.1,0.2,0.2,0.2c0.3,0.3,0.6,0.6,0.9,0.9c0,0,0,0,0.1,0
	c1.1,0.5,2.4,0.5,3.6-0.1c1.5-0.8,2.3-2.4,2.2-4c-0.1,0-0.1,0.1-0.2,0.1c-1.1,0.6-2.5,0.1-3.1-1.1c-0.5-1-0.3-2.2,0.5-2.9
	C276.8,136.5,275.5,136.5,274.4,137z"/>
<path class="st29" d="M285.5,125.7c2.8,3.2,3,9.1,0.6,14c0.1,0.1,0.2,0.2,0.3,0.3l2.7,3.2c0.2,0.2,0.3,0,0.4-0.2
	c1.9-5.9-0.9-15.5-3.6-17.8c-0.4-0.3-0.7-0.6-1-0.8l-0.3,0.4C284.8,125,285.2,125.3,285.5,125.7z"/>
<linearGradient id="SVGID_18_" gradientUnits="userSpaceOnUse" x1="360.347" y1="218.9259" x2="295.9533" y2="203.9026">
	<stop  offset="4.926108e-003" style="stop-color:#FFFFA8"/>
	<stop  offset="0.668" style="stop-color:#FFFFE6"/>
	<stop  offset="0.9951" style="stop-color:#FFFFFF"/>
</linearGradient>
<path class="st33" d="M357.6,230.7l0.1-0.9c-16.1-9.2-31-20.3-44.6-32.9c-3.3-3-6.5-6.2-9.6-9.4l-2.5-2l-0.8,0.2
	c0.2,0.7,0.4,1.3,0.6,2c2.1,8.9,2.6,18.9,1.8,28.5c-0.3,2.1-0.6,4.2-0.9,6.3l0.4,0.1l2.7,1.9C321.5,230.9,339.8,233.2,357.6,230.7z"
	/>
<path class="st34" d="M429,89c-1.6,1-3.2,1.7-4.8,2.3c-0.3,4.4-5.5,3.7-9.8,4.5c-7.4,1.3-14.3,5.3-19,11.2c-1.9,2.3-3.5,5-5.9,6.7
	c-1.8,1.3-3.9,2-5.8,3.1c-3.6,1.9-6.6,4.9-8.6,8.5c-0.7,1.3-1.3,2.7-2.3,3.8c-2,2.2-5.1,2.8-8,3.6c-9.4,2.6-17.8,9-22.9,17.6
	c-0.6,1-1.2,2.1-2.2,2.7c-1.9,1.2-4.4,0.1-5.7-1.7c-1.2-1.8-1.4-4.2-1.5-6.4c-0.1-4.4,0.2-8.8,1-13.2c0.9-5.3,2.3-11.6-1.1-15.6
	c-3-3.5-8.9-4.6-11.4-7.9l-0.4,0.3c3.4,4.8,6.1,10,5.4,15.7c-0.5,4.1-2.6,8-2.8,12c-0.2,3,0.7,5.9,0.6,8.9l1.1,6.9
	c0.2,2.1,0.4,4.1,0.5,6.2c0.2,2.7,0.5,5.4,2,7.7s4.7,4.1,8,3.6c4.8-0.8,6.9-5.4,9.7-8.7c2-2.4,4.9-4.5,6.5-7.1s2-5.7,4.4-7.8
	c5.2-4.6,15.7-1.6,20.9-6.1c3.1-2.7,3-6.8,5.3-9.9c4.3-5.6,15.2-6.1,18.8-11.9c1.2-2,1.3-4.3,2.6-6.4c2.4-4,8.3-5.7,13.5-7.1
	s11.1-3.4,12.9-7.6C431.3,94.1,430.5,91.4,429,89z"/>
<linearGradient id="SVGID_19_" gradientUnits="userSpaceOnUse" x1="433.6977" y1="68.7813" x2="367.9483" y2="53.4417">
	<stop  offset="0.3005" style="stop-color:#666666"/>
	<stop  offset="0.7391" style="stop-color:#9A9A9A"/>
	<stop  offset="0.9951" style="stop-color:#B3B3B3"/>
</linearGradient>
<path class="st35" d="M424.1,91.3c1.6-0.6,3.2-1.3,4.8-2.3c-1-1.6-2.2-3.1-3.5-4.4c-12.2-13.5-24.4-27-36.6-40.4
	c-2.2-2.4-4.4-4.9-6.3-7.5c-2.5-3.6-4.5-7.7-8.3-10.4c0.1,0.5,0.2,1.1,0.3,1.6c0.7,6.5-2.4,13-0.3,19.5c2,3.3,5.7,5.6,7.8,8.8
	c4.1,6.6,2.2,14.6,7.6,21.5C398.5,88.5,411.3,95.8,424.1,91.3z"/>
<linearGradient id="SVGID_20_" gradientUnits="userSpaceOnUse" x1="421.0692" y1="104.8542" x2="312.176" y2="79.4488">
	<stop  offset="4.926108e-003" style="stop-color:#FF7BAC"/>
	<stop  offset="0.5018" style="stop-color:#FF99AC"/>
	<stop  offset="0.9951" style="stop-color:#FFB2AC"/>
</linearGradient>
<path class="st36" d="M414.4,95.7c4.3-0.7,9.4,0,9.8-4.5c-12.8,4.5-25.7-2.8-34.4-13.6c-5.4-6.9-3.6-14.9-7.6-21.5
	c-2-3.3-5.7-5.6-7.8-8.8c-2.1-6.6,1-13,0.3-19.5l-0.9,0.1c-5.1-5.1-13.8-5.9-19.9-1.8c-4,2.7-6.9,7.2-11.4,8.8
	c-4.5,1.6-10,0.1-13.5,3.3c-1.7,1.5-2.6,3.9-4.1,5.6c-1.4,1.6-3.5,2.7-4.7,4.5c-1.6,2.2-1.7,5.1-1.4,7.9c0.1,0.7,0.1,1.4,0.2,2.1
	c1.7,15.7,2.2,31.5,1.5,47.3c0.1-0.1,0.2-0.1,0,0.2c0-0.1,0-0.1,0-0.2c-0.1,0-0.2,0.1-0.3,0.2c0.1,1,0.5,1.8,1,2.5
	c2.5,3.3,8.4,4.4,11.4,7.9c3.5,4.1,2.1,10.3,1.1,15.6c-0.7,4.4-1.1,8.8-1,13.2c0.1,2.2,0.2,4.6,1.5,6.4c1.2,1.8,3.8,2.9,5.7,1.7
	c1-0.6,1.6-1.7,2.2-2.7c5.1-8.5,13.5-15,22.9-17.6c2.8-0.8,6-1.3,8-3.6c1-1.1,1.6-2.5,2.3-3.8c2-3.6,5-6.6,8.6-8.5
	c1.9-1,4-1.8,5.8-3.1c2.4-1.8,4-4.4,5.9-6.7C400.1,101,407,97,414.4,95.7z"/>
<radialGradient id="SVGID_21_" cx="415.7513" cy="147.0294" r="10.2698" gradientUnits="userSpaceOnUse">
	<stop  offset="0" style="stop-color:#FF7BAC;stop-opacity:0"/>
	<stop  offset="1" style="stop-color:#FF7BAC"/>
</radialGradient>
<circle class="st37" cx="415.8" cy="147" r="10.3"/>
<linearGradient id="SVGID_22_" gradientUnits="userSpaceOnUse" x1="434.9759" y1="67.1146" x2="426.98" y2="65.2491">
	<stop  offset="0" style="stop-color:#FF7BAC"/>
	<stop  offset="1" style="stop-color:#FF7BAC;stop-opacity:0"/>
</linearGradient>
<path class="st38" d="M429.4,62.4c-0.7,0.3-1.4,0.9-1.9,1.6c-1.2,1.9-0.6,4.5,1.3,5.7s4.5,0.6,5.7-1.3c0-0.1,0.1-0.1,0.1-0.2
	c1.1-1.9,0.5-4.3-1.4-5.5C432,61.9,430.6,61.9,429.4,62.4z"/>
<radialGradient id="SVGID_23_" cx="438.9995" cy="58.8607" r="10.2773" gradientUnits="userSpaceOnUse">
	<stop  offset="0" style="stop-color:#FF7BAC;stop-opacity:0"/>
	<stop  offset="1" style="stop-color:#FF7BAC"/>
</radialGradient>
<path class="st39" d="M441.3,48.9c-5.5-1.3-11,2.1-12.3,7.7c-0.5,2-0.3,4,0.4,5.8c1.2-0.5,2.6-0.5,3.8,0.3c1.9,1.2,2.5,3.6,1.4,5.5
	h0.1c0.6,0.3,1.3,0.5,2,0.7c5.5,1.3,11-2.1,12.3-7.7S446.9,50.1,441.3,48.9z"/>
<path class="st2" d="M309.4,39.9c-0.9-0.8-1.6-1.7-2.1-2.6c-3.6-6.6,3.5-15.3,10.5-18.6c6.3-2.8,12.5-5.5,18.2-5.6
	c11,1.2,20,4.7,31,5.8c4,0.9,6,4.2,7.1,5.9c0.2,0.5,0.3,0.9,0.4,1.4s0.2,1.1,0.3,1.6c0.7,6.5-2.4,13-0.3,19.5c2,3.3,5.7,5.6,7.8,8.8
	c4.1,6.6,2.2,14.6,7.6,21.5c8.7,10.8,21.6,18.1,34.4,13.6c1.6-0.6,3.2-1.3,4.8-2.3"/>
<path class="st2" d="M324.8,150.7c0,0.4,0.1,0.7,0.1,1.1c0.2,2.1,0.4,4.1,0.5,6.2c0.2,2.7,0.5,5.4,2,7.7s4.7,4.1,8,3.6
	c4.8-0.8,6.9-5.4,9.7-8.7c2-2.4,4.9-4.5,6.5-7.1s2-5.7,4.4-7.8c5.2-4.6,15.7-1.6,20.9-6.1c3.1-2.7,3-6.8,5.3-9.9
	c4.3-5.6,15.2-6.1,18.8-11.9c1.2-2,1.3-4.3,2.6-6.4c2.4-4,8.3-5.7,13.5-7.1s11.1-3.4,12.9-7.6c1.2-2.6,0.4-5.3-1.2-7.7
	c-1-1.6-2.2-3.1-3.5-4.4c-12.2-13.5-24.4-27-36.6-40.4c-2.2-2.4-4.4-4.9-6.3-7.5c-2.5-3.6-4.5-7.7-8.3-10.4
	c-0.3-0.2-0.5-0.4-0.8-0.6"/>
<path class="st2" d="M138.1,55.6c1.4-2.1,0.3-4.4-1.5-6.3c-0.8-0.9-1.8-1.7-2.8-2.5c-6-4.5-12.3-9.2-20.5-10.6
	c-9.4-1.7-19.7,1.4-27.6,6.4c-0.4,0.2-0.8,0.5-1.1,0.7c-3.7,2.4-7,5.3-10,8.2c-3,3-5.8,6.2-8.5,9.4c-2.3,2.8-5.4,6-9.4,6.1
	s-8.2-2.8-11.5-0.8c-2.9,5.4,2.4,10.8,4.2,16.3c2,6.3-0.7,13.1-3.5,19.5c-2.2,5-4.3,10-6.5,15c-2.3,5.4-5.2,11.3-11.4,14.1
	c-5.9,2.6-12.7,1.6-19.4,1.5c-0.2,0-0.4,0-0.6,0c-2.5,0-5,0.1-7.3,0.7c-0.5,0.1-1,0.2-1.3,0.5c-1.1,0.9,0.1,2.3,1.3,3.1
	c11.9,7.2,27.9,9.9,37.9,18.8c2.8,2.4,5,5.3,8,7.4c5,3.6,11.8,5,18,7.2c7,2.5,13.4,6.2,18.7,10.7c0.9,0.8,1.9,1.7,3.2,2.1
	c1.1,0.4,2.4,0.4,3.6,0.5c4.6,0.3,9,1.7,12.7,3.8c3.9,2.3,7.8,5.6,12.6,4.8c2.4-0.4,4.4-1.7,6.2-3c4-2.7,8.2-5.7,9.3-9.7
	c1.8-6.1-2.2-14.7,3.2-19.4"/>
<path class="st2" d="M84.6,43.3c-7.9,4.4-5.2,3.1-13.9,6.2c-5,1.8-10.3,3.1-15.3,5C40.9,60,29.2,70.4,24.2,82.3
	c-3.7,8.8-3.9,18.1-6.1,27.2s-7.2,18.6-17.4,23.7"/>
<path class="st2" d="M316.6,103.3c1.3,1.7,2.7,3.4,3.9,5.1c3.4,4.8,6.1,10,5.4,15.7c-0.5,4.1-2.6,8-2.8,12c-0.2,3,0.7,5.9,0.6,8.9
	c-0.2,8-7.3,15.8-5.7,23.6c0.5,2.3,1.7,4.5,2.3,6.8c1.7,7-2.6,14.2-6.7,20.7l-0.6,0.8l-9.6-9.4c3.1,3.2,6.3,6.4,9.6,9.4
	c13.5,12.6,28.5,23.7,44.6,32.9l-0.1,0.9c-17.7,2.6-36.1,0.2-52.8-6.2l-2.7-1.9"/>
<path class="st2" d="M307.1,37.4c-12.4-7.6-26-14.3-41-18.3s-33.4-4.4-49.2-1.4"/>
<path class="st2" d="M220.6,20.2c-1-1.1-2.2-1.9-3.6-2.4c-4.3-1.6-10.4-0.8-15.5,0.3c-10,2.2-19.9,4.7-29.6,7.6
	c-8.5,2.5-17.2,5.5-23.3,11c-4.4,3.9-7.1,9-11.9,12.5l-0.1,0.1"/>
<path class="st2" d="M128,92.1c-4.5,9.7-9,20.3-5.3,29.7c1.9,4.9,5.9,9.2,7.6,14.1c2,5.7,1,11.9,2.2,17.8c0.4,2.1,1.1,4.1,2,6.2
	c0.8,1.9,1.7,3.8,2.6,5.6c5.9,12.2,11.9,24.5,21.4,35.1c6.8,7.5,10.5,11.3,20.3,16.6"/>
<path class="st2" d="M217.9,226.7c0.7,0.4,1.4,0.8,2.1,1.2c8.2,4.7,16.9,8.5,25.8,11.4c13.1,4.2,26.7,6.3,39.6,5.8v-0.8
	c-31.2-17.8-59.1-41.1-81.1-67.8l-0.6-0.4c-4.2,2.1-8.1,4.6-11.7,7.5c-0.7,0.6-1.4,1.2-2,1.9c-1.4,1.9-1.5,4.6-1.5,7.1
	c0,2.2,0,4.4,0,6.6"/>
<path class="st2" d="M188.5,199.3c2.5,6.7,7.4,11,13.4,16.1c4.1,3.4,8.5,6.6,13.1,9.5"/>
<path class="st2" d="M219.6,228.6c1.6,4.1,3.4,13.5,1.3,17.4c-0.2,0.4,0.1,0.9-0.2,1.2c-0.4,0.5-1.2,0.3-1.7,0
	c-14.6-6.9-29.1-17.6-40.2-30l0,0c-1.7-1.9-3.3-3.8-4.9-5.8"/>
<path class="st2" d="M215,224.9l-4.9-2.5l-8.1-5.6l-8.8-8.3l-17.5-22.8c0,0-0.6,24,24.4,41.6c4.8,3.4,11.6,9.5,17.2,11.7l0.7-12.3
	v-0.3L215,224.9z"/>
<path class="st2" d="M434.6,68.2c0.6,0.3,1.3,0.5,2,0.7c5.5,1.3,11-2.1,12.3-7.7s-2.1-11-7.7-12.3s-11,2.1-12.3,7.7
	c-0.5,2-0.3,4,0.4,5.8c0,0.1,0.1,0.2,0.1,0.3"/>
<path class="st2" d="M440.2,52.4c-2.9,0.6-5.5,2.6-6.9,5.3"/>
<path class="st2" d="M429.4,62.4c-0.7,0.3-1.4,0.9-1.9,1.6c-1.2,1.9-0.6,4.5,1.3,5.7s4.5,0.6,5.7-1.3c0-0.1,0.1-0.1,0.1-0.2
	c1.1-1.9,0.5-4.3-1.4-5.5C432,61.9,430.6,61.9,429.4,62.4z"/>
<path class="st2" d="M429,64.8c-0.3,1.2-0.2,2.4,0.5,3.5"/>
<ellipse transform="matrix(0.2272 -0.9738 0.9738 0.2272 178.0671 518.4702)" class="st2" cx="415.7" cy="147" rx="10.3" ry="10.3"/>
<path class="st2" d="M416.9,140.6c-2.9,0.6-5.5,2.6-6.9,5.3"/>
<line class="st2" x1="303.5" y1="187.5" x2="301" y2="185.5"/>
<line class="st2" x1="324.9" y1="151.9" x2="323.8" y2="145"/>
<path class="st12" d="M274.9,144.8c3.1,2.3,7.5,0.8,10.4-3.7c0.3-0.5,0.6-1,0.8-1.5"/>
<path class="st12" d="M273.3,129.8c-1.8,3.7-2.2,8-1.1,11.2"/>
<path class="st40" d="M295.7,124.3c-1-2.7-2.9-7.6-5.5-8.8c-2.6-1.3-6,0.9-8.9,0.4c-0.1,0-0.1,0-0.2,0"/>
<path class="st12" d="M238,147.7c0.7,0.1,1.3,0.2,2.1,0c4.4-0.7,8-6.3,8.2-12.5c0-0.1,0-0.1,0-0.2"/>
<path class="st12" d="M232.6,136.1c-0.1,0.6-0.1,1.2-0.2,1.8c-0.1,2.2,0.4,4.3,1.1,5.9"/>
<path class="st12" d="M233.6,143.8L233.6,143.8"/>
<path class="st40" d="M241.7,119.6c-2.5-1.3-7.3-3.6-10-2.7c-2.8,0.9-3.8,4.8-6.2,6.3l-0.1,0.1"/>
<path class="st2" d="M319.9,105.6c0.1,1,0.5,1.8,1,2.5c2.5,3.3,8.4,4.4,11.4,7.9c3.5,4.1,2.1,10.3,1.1,15.6c-0.7,4.4-1.1,8.8-1,13.2
	c0.1,2.2,0.2,4.6,1.5,6.4c1.2,1.8,3.8,2.9,5.7,1.7c1-0.6,1.6-1.7,2.2-2.7c5.1-8.5,13.5-15,22.9-17.6c2.8-0.8,6-1.3,8-3.6
	c1-1.1,1.6-2.5,2.3-3.8c2-3.6,5-6.6,8.6-8.5c1.9-1,4-1.8,5.8-3.1c2.4-1.8,4-4.4,5.9-6.7c4.8-5.9,11.7-9.9,19-11.2
	c4.3-0.7,9.4,0,9.8-4.5"/>
<path class="st2" d="M319.9,105.6c-0.2,0.1-0.3,0.1,0-0.2C319.9,105.5,319.9,105.5,319.9,105.6z"/>
<path class="st2" d="M320.2,105.4c-0.1,0-0.2,0.1-0.3,0.2"/>
<path class="st2" d="M320.2,105.4c0,0.1,0,0.1,0,0.2C320.4,105.4,320.4,105.4,320.2,105.4z"/>
<path class="st2" d="M373.7,27.9c-5.1-5.1-13.8-5.9-19.9-1.8c-4,2.7-6.9,7.2-11.4,8.8c-4.5,1.6-10,0.1-13.5,3.3
	c-1.7,1.5-2.6,3.9-4.1,5.6c-1.4,1.6-3.5,2.7-4.7,4.5c-1.6,2.2-1.7,5.1-1.4,7.9c0.1,0.7,0.1,1.4,0.2,2.1c1.7,15.7,2.2,31.5,1.5,47.3"
	/>
<path class="st2" d="M319.3,58c-0.2-0.7-0.4-1.3-0.7-1.9c-2.2-5.3-6.4-9.7-11.6-12.2c-2.1-1-4.4-1.7-6.1-3.3"/>
<path class="st2" d="M75.1,52c5.1,1.3,9.9-2.8,15.1-3.6c3.9-0.6,7.7,0.8,11.6,1.4c5.4,0.8,10.9,0.3,16.2,1.2s10.9,4,12.3,9.2
	c0.9,3.1-2.2,5.6-4.2,8.1c-3.9,4.9-3.7,12-6.5,17.6c-1.1,2.2-2.7,4.2-3.8,6.5c-1.5,3.2-1.9,6.9-2.3,10.5c-0.7,6.9-1.3,14,1.4,20.4
	c2,4.6,5.6,8.4,8,12.8c4.1,7.5,4.4,16.5,2.4,24.8c-2,8.2-6.2,15.8-10.8,23c-3.6,0.1-7.2-1-10.1-3.1c-1.7-1.3-3.2-2.9-5-3.9
	c-4.3-2.2-9.7-0.7-14-3c-3.1-1.7-5-5.1-8-7c-2.7-1.7-6-2-9.1-2.7c-6-1.4-11.4-4.7-16.7-7.9c-4.9-3-9.8-6-14.8-9
	c-5.7-3.5-24.5-13.7-28.1-14.7c-0.4-0.1-0.6-0.1-0.6,0"/>
<path class="st12" d="M281.8,175.9c-9.4-3.9-21-1.8-28.4,5.2"/>
<path class="st12" d="M273.9,185.6c-3.6-1-7.6,0.4-9.9,3.3"/>
<radialGradient id="SVGID_24_" cx="484.9181" cy="133.3987" r="5.8274" gradientTransform="matrix(-0.9738 -0.2272 -0.2272 0.9738 935.1215 108.5698)" gradientUnits="userSpaceOnUse">
	<stop  offset="0" style="stop-color:#CCE0F4"/>
	<stop  offset="6.405089e-002" style="stop-color:#C3DCF2"/>
	<stop  offset="0.1706" style="stop-color:#A9D2EE"/>
	<stop  offset="0.3066" style="stop-color:#80C2E7"/>
	<stop  offset="0.4649" style="stop-color:#47ACDE"/>
	<stop  offset="0.5674" style="stop-color:#1E9CD7"/>
	<stop  offset="0.8652" style="stop-color:#0075BE"/>
	<stop  offset="0.9944" style="stop-color:#005B97"/>
</radialGradient>
<circle class="st41" cx="432.6" cy="128.3" r="5.8"/>
<radialGradient id="SVGID_25_" cx="482.8054" cy="132.7045" r="1.7601" gradientTransform="matrix(-0.9738 -0.2272 -0.2272 0.9738 935.1215 108.5698)" gradientUnits="userSpaceOnUse">
	<stop  offset="0" style="stop-color:#CCE0F4"/>
	<stop  offset="6.405089e-002" style="stop-color:#C3DCF2"/>
	<stop  offset="0.1706" style="stop-color:#A9D2EE"/>
	<stop  offset="0.3066" style="stop-color:#80C2E7"/>
	<stop  offset="0.4649" style="stop-color:#47ACDE"/>
	<stop  offset="0.5674" style="stop-color:#1E9CD7"/>
	<stop  offset="0.8652" style="stop-color:#0075BE"/>
	<stop  offset="0.9944" style="stop-color:#005B97"/>
</radialGradient>
<path class="st42" d="M435.5,130.5c0.2-1.7-0.3-3.5-1.5-4.8"/>
<path class="st2" d="M245.6,239.8c11.6,29.8,22.7,66.9,37.9,94.4c11.3,20.4,28.8,39.1,53.2,43.3c20,4.7,51.8-20.2,56-29.1
	c16.4-34.9,5.2-70.5-6.6-104.2c-2.4-7.6-4.6-16.5-0.4-22.6c3.6-3.4,9.9-6.1,12.4-11.2c0.3-1.3,0.3-3.4,0.4-3.7
	c0,0-12.5-11.1-12.5-11.2c0,0-1.2-0.3-2.8-0.6c-2.9-0.6-5.6,1.5-5.6,4.5l0,0c0,1.2-0.5,2.4-1.3,3.3l-3.1,3.2"/>
<linearGradient id="SVGID_26_" gradientUnits="userSpaceOnUse" x1="370.4" y1="192" x2="370.4" y2="192">
	<stop  offset="4.926108e-003" style="stop-color:#666666"/>
	<stop  offset="0.6302" style="stop-color:#9A9A9A"/>
	<stop  offset="0.9951" style="stop-color:#B3B3B3"/>
</linearGradient>
<path class="st43" d="M370.4,192"/>
<path class="st44" d="M368.1,192.4c0.9-1.1,1.9-2.2,2.8-3.4c0.5-0.6,1.1-1.2,1.6-1.7c0.7-0.5,1.5-0.6,2.2-0.8
	c1.3-0.2,2.5-0.5,3.7-0.1s2.3,1.4,2.7,3.1c-2.7-0.7-5.6,0.1-8.4,0.9c-1.6,0.5-3.3,0.9-4.9,1.4"/>
<path class="st2" d="M376.4,202.7l-2.5-2.5c-0.7,1.6-3.2-1.7-7.2,6.4c-5.6,11.3-3.8,20.1-4.3,30.6c-1,18,3.2,38.3,5.5,48.6
	c0.5,2.2,3.5,9.2,3.7,14.9c0.7,15.8-2,20.8-9.3,30c-9,11.4-23.4,5-32-4.7c-12.5-14.2-13.9-22.2-21.5-38.1
	c-3.8-7.9-4.8-23.6-7.3-31.2c-3.3-11.5-1.5-22.8,0.1-34.3c0.3-2.1,0.6-4.2,0.9-6.3c0.8-9.6,0.4-19.6-1.8-28.5
	c-0.2-0.7-0.4-1.3-0.6-2c-2-6.9-3.1-13.5-4.6-20.3"/>
<linearGradient id="SVGID_27_" gradientUnits="userSpaceOnUse" x1="1197" y1="24.7" x2="1197" y2="-119.3" gradientTransform="matrix(1 0 0 -1 0 480)">
	<stop  offset="0" style="stop-color:#FFFFFF;stop-opacity:0"/>
	<stop  offset="1" style="stop-color:#727272"/>
</linearGradient>
<rect x="796" y="455.3" class="st45" width="802" height="144"/>
</svg>
