<?xml version="1.0" encoding="utf-8"?>
<!-- Generator: Adobe Illustrator 19.2.0, SVG Export Plug-In . SVG Version: 6.00 Build 0)  -->
<svg version="1.1" id="Layer_1" xmlns="http://www.w3.org/2000/svg" xmlns:xlink="http://www.w3.org/1999/xlink" x="0px" y="0px"
	 viewBox="0 0 640 480" style="enable-background:new 0 0 640 480;" xml:space="preserve">
<style type="text/css">
	.st0{fill:#42210B;}
	.st1{fill:url(#SVGID_1_);stroke:#000000;stroke-miterlimit:10;}
	.st2{fill:url(#SVGID_2_);stroke:#000000;stroke-miterlimit:10;}
	.st3{fill:#0071BC;stroke:#000000;stroke-miterlimit:10;}
	.st4{fill:url(#SVGID_3_);stroke:#000000;stroke-miterlimit:10;}
	.st5{fill:url(#SVGID_4_);stroke:#000000;stroke-miterlimit:10;}
	.st6{fill:#FFFFFF;stroke:#000000;stroke-miterlimit:10;}
	.st7{fill:url(#SVGID_5_);stroke:#000000;stroke-miterlimit:10;}
	.st8{fill:none;stroke:#000000;stroke-miterlimit:10;}
	.st9{stroke:#F7931E;stroke-miterlimit:10;}
	.st10{fill:url(#SVGID_6_);stroke:#000000;stroke-miterlimit:10;}
	.st11{fill:url(#SVGID_7_);stroke:#000000;stroke-miterlimit:10;}
	.st12{fill:url(#SVGID_8_);stroke:#000000;stroke-miterlimit:10;}
	.st13{fill:url(#SVGID_9_);stroke:#000000;stroke-miterlimit:10;}
	.st14{fill:#FCEE21;stroke:#000000;stroke-miterlimit:10;}
	.st15{fill:url(#SVGID_10_);stroke:#000000;stroke-miterlimit:10;}
	.st16{fill:url(#SVGID_11_);stroke:#000000;stroke-miterlimit:10;}
	.st17{fill:#C1272D;stroke:#000000;stroke-miterlimit:10;}
	.st18{fill:url(#SVGID_12_);stroke:#000000;stroke-miterlimit:10;}
	.st19{fill:url(#SVGID_13_);stroke:#000000;stroke-miterlimit:10;}
	.st20{fill:url(#SVGID_14_);stroke:#000000;stroke-miterlimit:10;}
	.st21{fill:url(#SVGID_15_);stroke:#000000;stroke-miterlimit:10;}
	.st22{fill:url(#SVGID_16_);stroke:#000000;stroke-miterlimit:10;}
	.st23{fill:url(#SVGID_17_);stroke:#000000;stroke-miterlimit:10;}
	.st24{fill:url(#SVGID_18_);stroke:#000000;stroke-miterlimit:10;}
	.st25{fill:#736357;stroke:#8C6239;stroke-width:0.5;stroke-miterlimit:10;}
	.st26{fill:url(#SVGID_19_);stroke:#000000;stroke-miterlimit:10;}
	.st27{fill:url(#SVGID_20_);stroke:#000000;stroke-miterlimit:10;}
	.st28{fill:url(#SVGID_21_);stroke:#000000;stroke-miterlimit:10;}
	.st29{fill:#29ABE2;stroke:#000000;stroke-miterlimit:10;}
	.st30{fill:url(#SVGID_22_);stroke:#000000;stroke-miterlimit:10;}
	.st31{fill:url(#SVGID_23_);stroke:#000000;stroke-miterlimit:10;}
	.st32{fill:url(#SVGID_24_);stroke:#000000;stroke-miterlimit:10;}
	.st33{fill:url(#SVGID_25_);stroke:#000000;stroke-miterlimit:10;}
	.st34{fill:url(#SVGID_26_);stroke:#000000;stroke-miterlimit:10;}
	.st35{fill:url(#SVGID_27_);stroke:#000000;stroke-miterlimit:10;}
	.st36{fill:#00FF00;stroke:#000000;stroke-miterlimit:10;}
	.st37{fill:url(#SVGID_28_);stroke:#000000;stroke-miterlimit:10;}
	.st38{fill:url(#SVGID_29_);stroke:#000000;stroke-miterlimit:10;}
	.st39{fill:#603813;stroke:#000000;stroke-miterlimit:10;}
	.st40{fill:url(#SVGID_30_);stroke:#000000;stroke-miterlimit:10;}
	.st41{fill:url(#SVGID_31_);stroke:#000000;stroke-miterlimit:10;}
	.st42{fill:url(#SVGID_32_);stroke:#000000;stroke-miterlimit:10;}
	.st43{fill:url(#SVGID_33_);stroke:#000000;stroke-miterlimit:10;}
	.st44{fill:url(#SVGID_34_);stroke:#000000;stroke-miterlimit:10;}
	.st45{fill:#ED1C24;stroke:#000000;stroke-miterlimit:10;}
</style>
<g>
	<polygon class="st0" points="574.8,547.4 656.6,567.8 572.8,558.2 	"/>
</g>
<g>
	<polygon class="st0" points="67.2,555.8 -16.6,565.4 65.2,545 	"/>
</g>
<g>
	<g>
		
			<radialGradient id="SVGID_1_" cx="196.5909" cy="263.3568" r="27.8963" gradientTransform="matrix(-5.513292e-002 1.0082 1.0861 6.055493e-002 -121.7853 129.5491)" gradientUnits="userSpaceOnUse">
			<stop  offset="0" style="stop-color:#FFFFFF"/>
			<stop  offset="8.510864e-002" style="stop-color:#FFEDD8"/>
			<stop  offset="0.2082" style="stop-color:#FFD5A7"/>
			<stop  offset="0.3345" style="stop-color:#FFC17D"/>
			<stop  offset="0.462" style="stop-color:#FFB05B"/>
			<stop  offset="0.591" style="stop-color:#FFA340"/>
			<stop  offset="0.7222" style="stop-color:#FF9A2D"/>
			<stop  offset="0.8568" style="stop-color:#FF9522"/>
			<stop  offset="1" style="stop-color:#FF931E"/>
		</radialGradient>
		<path class="st1" d="M129.4,345.1l-0.8,15.3c-0.1,1.9,1.3,3.5,3.2,3.6l44.7,2.5c1.9,0.1,3.4-1.3,3.6-3.2l0.8-15.3
			c0.1-1.9-1.3-3.5-3.2-3.6l-27.5-1.5l-6.6-27.7l-15.4,3.8l5.5,23l-0.6,0C131.1,341.8,129.5,343.3,129.4,345.1z"/>
		
			<radialGradient id="SVGID_2_" cx="962.8741" cy="334.4182" r="27.8963" gradientTransform="matrix(-0.2042 0.9885 -1.0648 -0.2243 619.3421 -544.7585)" gradientUnits="userSpaceOnUse">
			<stop  offset="0" style="stop-color:#FFFFFF"/>
			<stop  offset="8.510864e-002" style="stop-color:#FFEDD8"/>
			<stop  offset="0.2082" style="stop-color:#FFD5A7"/>
			<stop  offset="0.3345" style="stop-color:#FFC17D"/>
			<stop  offset="0.462" style="stop-color:#FFB05B"/>
			<stop  offset="0.591" style="stop-color:#FFA340"/>
			<stop  offset="0.7222" style="stop-color:#FF9A2D"/>
			<stop  offset="0.8568" style="stop-color:#FF9522"/>
			<stop  offset="1" style="stop-color:#FF931E"/>
		</radialGradient>
		<path class="st2" d="M89.4,339.6l-3.1,15c-0.4,1.8-2.2,3-4,2.7L38.5,348c-1.8-0.4-3-2.2-2.6-4l3.1-15c0.4-1.8,2.2-3,4-2.7l27,5.7
			l13.5-25l13.9,7.7l-11.2,20.8l0.6,0.1C88.6,336,89.8,337.8,89.4,339.6z"/>
		<polygon class="st3" points="74.2,305.3 97.6,320.3 122.3,281.1 126.2,331.7 153.8,329.6 148.8,264.4 131.9,265.8 132.3,265.1 
			108.8,250.1 		"/>
		
			<radialGradient id="SVGID_3_" cx="366.6974" cy="-10.7285" r="11.8369" gradientTransform="matrix(1.4605 0.101 -7.578754e-002 1.1178 -349.044 81.5225)" gradientUnits="userSpaceOnUse">
			<stop  offset="0" style="stop-color:#FFFFFF"/>
			<stop  offset="8.510864e-002" style="stop-color:#FFEDD8"/>
			<stop  offset="0.2082" style="stop-color:#FFD5A7"/>
			<stop  offset="0.3345" style="stop-color:#FFC17D"/>
			<stop  offset="0.462" style="stop-color:#FFB05B"/>
			<stop  offset="0.591" style="stop-color:#FFA340"/>
			<stop  offset="0.7222" style="stop-color:#FF9A2D"/>
			<stop  offset="0.8568" style="stop-color:#FF9522"/>
			<stop  offset="1" style="stop-color:#FF931E"/>
		</radialGradient>
		<path class="st4" d="M196.6,107.2c-0.6,9.6-5.3,17-10.5,16.7c-5.1-0.4-8.8-8.4-8.1-18s5.3-17,10.5-16.7
			C193.6,89.6,197.3,97.6,196.6,107.2z"/>
		
			<radialGradient id="SVGID_4_" cx="65.662" cy="136.8729" r="52.2319" gradientTransform="matrix(0.8245 0.5713 -0.5658 0.8326 154.3972 -37.6018)" gradientUnits="userSpaceOnUse">
			<stop  offset="0" style="stop-color:#FFFFFF"/>
			<stop  offset="8.510864e-002" style="stop-color:#FFEDD8"/>
			<stop  offset="0.2082" style="stop-color:#FFD5A7"/>
			<stop  offset="0.3345" style="stop-color:#FFC17D"/>
			<stop  offset="0.462" style="stop-color:#FFB05B"/>
			<stop  offset="0.591" style="stop-color:#FFA340"/>
			<stop  offset="0.7222" style="stop-color:#FF9A2D"/>
			<stop  offset="0.8568" style="stop-color:#FF9522"/>
			<stop  offset="1" style="stop-color:#FF931E"/>
		</radialGradient>
		<path class="st5" d="M181.5,127.6c-7.5,28.1-36.1,44.8-64,37.2s-44.4-36.5-36.9-64.6c7.5-28.1,36.1-44.8,64-37.2
			S189,99.4,181.5,127.6z"/>
		<path class="st6" d="M173.8,109c-3.9,9.5-14.7,13.9-24,10c-9.4-3.9-13.8-14.8-9.9-24.3c3.9-9.5,14.7-13.9,24-10
			C173.3,88.6,177.7,99.5,173.8,109z"/>
		<path d="M171.9,111.3c-3.6,5.2-11.2,6.2-17.1,2.1s-7.8-11.6-4.2-16.8c3.6-5.2,11.2-6.2,17.1-2.1
			C173.5,98.6,175.4,106.1,171.9,111.3z"/>
		
			<radialGradient id="SVGID_5_" cx="300.0626" cy="-6.993" r="11.8369" gradientTransform="matrix(1.4064 -7.251620e-002 5.748585e-002 1.1368 -346.872 136.8709)" gradientUnits="userSpaceOnUse">
			<stop  offset="0" style="stop-color:#FFFFFF"/>
			<stop  offset="8.510864e-002" style="stop-color:#FFEDD8"/>
			<stop  offset="0.2082" style="stop-color:#FFD5A7"/>
			<stop  offset="0.3345" style="stop-color:#FFC17D"/>
			<stop  offset="0.462" style="stop-color:#FFB05B"/>
			<stop  offset="0.591" style="stop-color:#FFA340"/>
			<stop  offset="0.7222" style="stop-color:#FF9A2D"/>
			<stop  offset="0.8568" style="stop-color:#FF9522"/>
			<stop  offset="1" style="stop-color:#FF931E"/>
		</radialGradient>
		<path class="st7" d="M83.7,106.7c0.5,9.7-3.1,17.8-8.1,18.1c-4.9,0.3-9.3-7.4-9.8-17.1s3.1-17.8,8.1-18.1
			C78.8,89.3,83.2,97,83.7,106.7z"/>
		<path class="st6" d="M140.3,109.1c-3.9,9.5-14.7,13.9-24,10c-9.4-3.9-13.8-14.8-9.9-24.3s14.7-13.9,24-10
			C139.8,88.8,144.2,99.7,140.3,109.1z"/>
		<path d="M138.3,111.5c-3.6,5.2-11.2,6.2-17.1,2.1c-5.9-4.1-7.8-11.6-4.2-16.8c3.6-5.2,11.2-6.2,17.1-2.1
			C140,98.7,141.9,106.2,138.3,111.5z"/>
		<path class="st8" d="M113.2,71.5c2.9-1.8,5.9-3.4,8.9-4.8c1.5-0.7,3.1-1.4,4.8-1.4c3.5,0,6.5,3.7,5.9,7.2"/>
		<path class="st8" d="M148.8,73.8c1.8-2.6,3.9-4.8,6.4-6.7c0.6-0.5,1.3-1,2.2-1.1c1-0.2,2,0.3,2.9,0.8c3.2,2,5.4,5.6,5.6,9.4"/>
		<path class="st6" d="M137,108.9c-1.5,2.3-4.5,2.9-6.6,1.5s-2.5-4.5-1-6.7c1.5-2.3,4.5-2.9,6.6-1.5S138.6,106.6,137,108.9z"/>
		<path class="st6" d="M170.5,108.8c-1.5,2.3-4.5,2.9-6.6,1.5s-2.5-4.5-1-6.7c1.5-2.3,4.5-2.9,6.6-1.5S172.1,106.5,170.5,108.8z"/>
		<path class="st9" d="M126.7,135.3c-3.1,7.9-1.2,16,4.1,18.1c5.4,2.1,12.2-2.6,15.2-10.4c3.1-7.9,1.2-16-4.1-18.1
			S129.8,127.4,126.7,135.3z"/>
		<g>
			<path d="M138.2,59c0.2-0.6,0.4-1.2,0.6-1.8c0.2-0.6,0.3-1.2,0.4-1.8c0.2-1.2,0.2-2.5-0.1-3.7c-0.3-1.2-0.8-2.4-1.5-3.4
				c-0.8-1-1.8-1.9-3-2.3l0,0l0.5,0.5l-0.5-0.4l-0.1-0.1l0.1,0c1.2,0.4,2.3,1.2,3.2,2.2c0.8,1,1.5,2.2,1.8,3.5
				c0.3,1.3,0.4,2.6,0.3,4c-0.1,0.7-0.2,1.3-0.3,2c-0.1,0.6-0.3,1.3-0.5,1.9L138.2,59z"/>
		</g>
		<g>
			<path d="M143,39c0,0-0.2,0-0.1,0C142.9,39,142.9,39,143,39c-0.1,0-0.1,0-0.1,0.1c0,0.1-0.1,0.3-0.1,0.5c0,0.2,0,0.4,0.1,0.5
				l0.2,0.7c0.1,0.4,0.2,0.9,0.3,1.3c0.1,0.4,0.2,0.9,0.2,1.3c0.3,1.8,0.3,3.6,0.3,5.4c0,1.8-0.2,3.6-0.3,5.4l-0.3,2.7
				c-0.1,0.9-0.2,1.8-0.6,2.7l-0.4-0.2c0.3-0.7,0.6-1.4,1-2c0.4-0.7,0.8-1.3,1.2-1.9c0.4-0.6,0.9-1.2,1.4-1.8c0.5-0.6,1-1.1,1.5-1.6
				c1.1-1,2.2-2,3.5-2.8c0.6-0.4,1.3-0.8,1.9-1.2c0.7-0.3,1.3-0.6,2-0.9c-0.7,0.3-1.4,0.6-2,1c-0.6,0.4-1.3,0.8-1.9,1.2
				c-1.2,0.9-2.3,1.8-3.4,2.9c-0.5,0.5-1,1.1-1.5,1.7c-0.5,0.6-0.9,1.2-1.3,1.8c-0.4,0.6-0.8,1.2-1.1,1.9c-0.3,0.7-0.6,1.3-0.9,2
				l-0.4-0.2c0.3-0.8,0.4-1.7,0.5-2.6l0.2-2.7c0.1-1.8,0.2-3.6,0.2-5.3c0-1.8-0.1-3.5-0.4-5.3c-0.1-0.4-0.2-0.9-0.3-1.3
				c-0.1-0.4-0.2-0.8-0.3-1.3l-0.2-0.6c-0.1-0.3-0.1-0.5-0.1-0.8c0-0.3,0-0.5,0.1-0.9c0.1-0.2,0.2-0.3,0.3-0.5
				c0.1-0.1,0.2-0.1,0.3-0.2c0.2-0.1,0.1,0,0.2-0.1L143,39z"/>
		</g>
		<g>
			<path d="M146.1,58.9c0,0,0.1-0.1,0.3-0.2c0.1-0.1,0.3-0.2,0.4-0.3c0.2-0.1,0.4-0.2,0.6-0.3c0.5-0.2,1-0.3,1.6-0.3
				c0.6-0.1,1.2,0,1.8,0c1.2,0,2.4,0.1,3.2-0.1c0.4-0.1,0.8-0.2,1-0.3c0.2-0.1,0.4-0.2,0.4-0.2s-0.1,0.1-0.3,0.2
				c-0.2,0.1-0.6,0.3-1,0.4c-0.9,0.3-2.1,0.4-3.3,0.5c-0.6,0.1-1.2,0.1-1.7,0.2c-0.5,0.1-1,0.2-1.4,0.4c-0.2,0.1-0.3,0.2-0.5,0.3
				c-0.1,0.1-0.2,0.1-0.3,0.3c-0.2,0.2-0.3,0.3-0.3,0.3L146.1,58.9z"/>
		</g>
		
			<radialGradient id="SVGID_6_" cx="422.6345" cy="-341.524" r="18.449" gradientTransform="matrix(-0.8357 0.5546 0.3641 0.5594 504.9498 100.5975)" gradientUnits="userSpaceOnUse">
			<stop  offset="0" style="stop-color:#FFFFFF"/>
			<stop  offset="8.510864e-002" style="stop-color:#FFEDD8"/>
			<stop  offset="0.2082" style="stop-color:#FFD5A7"/>
			<stop  offset="0.3345" style="stop-color:#FFC17D"/>
			<stop  offset="0.462" style="stop-color:#FFB05B"/>
			<stop  offset="0.591" style="stop-color:#FFA340"/>
			<stop  offset="0.7222" style="stop-color:#FF9A2D"/>
			<stop  offset="0.8568" style="stop-color:#FF9522"/>
			<stop  offset="1" style="stop-color:#FF931E"/>
		</radialGradient>
		<path class="st10" d="M29.4,161.6l13.3-8.8c1.4-0.9,1.8-2.8,0.9-4.2l-13.9-21.4c-0.9-1.4-2.8-1.8-4.2-0.9l-13.3,8.8
			c-1.4,0.9-1.8,2.8-0.9,4.2l13.9,21.4C26.1,162.1,28,162.5,29.4,161.6z"/>
		
			<linearGradient id="SVGID_7_" gradientUnits="userSpaceOnUse" x1="242.7402" y1="20.2829" x2="259.6308" y2="3.3924" gradientTransform="matrix(-0.5312 0.8472 0.8472 0.5312 170.9897 -39.9191)">
			<stop  offset="0" style="stop-color:#FFFFFF"/>
			<stop  offset="8.510864e-002" style="stop-color:#FFEDD8"/>
			<stop  offset="0.2082" style="stop-color:#FFD5A7"/>
			<stop  offset="0.3345" style="stop-color:#FFC17D"/>
			<stop  offset="0.462" style="stop-color:#FFB05B"/>
			<stop  offset="0.591" style="stop-color:#FFA340"/>
			<stop  offset="0.7222" style="stop-color:#FF9A2D"/>
			<stop  offset="0.8568" style="stop-color:#FF9522"/>
			<stop  offset="1" style="stop-color:#FF931E"/>
		</linearGradient>
		<polygon class="st11" points="61.1,188.3 53.4,189.7 38.2,155.4 31,160.3 43.1,200.7 64.9,201.2 		"/>
		
			<radialGradient id="SVGID_8_" cx="249.5661" cy="-147.8534" r="18.449" gradientTransform="matrix(0.7096 0.7114 -0.4671 0.475 -12.2158 48.1037)" gradientUnits="userSpaceOnUse">
			<stop  offset="0" style="stop-color:#FFFFFF"/>
			<stop  offset="8.510864e-002" style="stop-color:#FFEDD8"/>
			<stop  offset="0.2082" style="stop-color:#FFD5A7"/>
			<stop  offset="0.3345" style="stop-color:#FFC17D"/>
			<stop  offset="0.462" style="stop-color:#FFB05B"/>
			<stop  offset="0.591" style="stop-color:#FFA340"/>
			<stop  offset="0.7222" style="stop-color:#FF9A2D"/>
			<stop  offset="0.8568" style="stop-color:#FF9522"/>
			<stop  offset="1" style="stop-color:#FF931E"/>
		</radialGradient>
		<path class="st12" d="M228.5,172.3L217.3,161c-1.2-1.2-1.2-3.1,0-4.3l17.9-18.2c1.2-1.2,3.1-1.2,4.3,0l11.3,11.3
			c1.2,1.2,1.2,3.1,0,4.3l-17.9,18.2C231.6,173.5,229.7,173.5,228.5,172.3z"/>
		
			<linearGradient id="SVGID_9_" gradientUnits="userSpaceOnUse" x1="138.5717" y1="209.7154" x2="155.4308" y2="192.8562" gradientTransform="matrix(0.3519 0.936 -0.936 0.3519 343.9077 -22.537)">
			<stop  offset="0" style="stop-color:#FFFFFF"/>
			<stop  offset="8.510864e-002" style="stop-color:#FFEDD8"/>
			<stop  offset="0.2082" style="stop-color:#FFD5A7"/>
			<stop  offset="0.3345" style="stop-color:#FFC17D"/>
			<stop  offset="0.462" style="stop-color:#FFB05B"/>
			<stop  offset="0.591" style="stop-color:#FFA340"/>
			<stop  offset="0.7222" style="stop-color:#FF9A2D"/>
			<stop  offset="0.8568" style="stop-color:#FF9522"/>
			<stop  offset="1" style="stop-color:#FF931E"/>
		</linearGradient>
		<polygon class="st13" points="192.2,192.1 199.4,195 221.1,164.5 227.2,170.7 207.4,207.9 186,204 		"/>
		<polygon class="st14" points="186.9,206 159.5,194 158,267.4 123.3,266.6 123.2,267.4 88.5,265 93.6,191.7 65.3,201.2 59.5,183.6 
			94.4,171.9 126.6,174 126.7,173.3 160.5,174.2 194.2,189 		"/>
	</g>
	<g>
		
			<radialGradient id="SVGID_10_" cx="1049.0685" cy="374.2939" r="27.8963" gradientTransform="matrix(-5.998202e-002 1.0079 -1.0858 -6.588091e-002 871.7441 -684.6144)" gradientUnits="userSpaceOnUse">
			<stop  offset="0" style="stop-color:#FFFFFF"/>
			<stop  offset="8.510864e-002" style="stop-color:#FFEDD8"/>
			<stop  offset="0.2082" style="stop-color:#FFD5A7"/>
			<stop  offset="0.3345" style="stop-color:#FFC17D"/>
			<stop  offset="0.462" style="stop-color:#FFB05B"/>
			<stop  offset="0.591" style="stop-color:#FFA340"/>
			<stop  offset="0.7222" style="stop-color:#FF9A2D"/>
			<stop  offset="0.8568" style="stop-color:#FF9522"/>
			<stop  offset="1" style="stop-color:#FF931E"/>
		</radialGradient>
		<path class="st15" d="M426.1,352.3l-0.9,15.3c-0.1,1.9-1.7,3.3-3.6,3.2l-44.7-2.7c-1.9-0.1-3.3-1.7-3.2-3.6l0.9-15.3
			c0.1-1.9,1.7-3.3,3.6-3.2l27.5,1.7l9.7-26.7l14.9,5.5l-8.1,22.2l0.6,0C424.8,348.8,426.2,350.5,426.1,352.3z"/>
		
			<radialGradient id="SVGID_11_" cx="108.2654" cy="241.3118" r="27.8963" gradientTransform="matrix(9.039191e-002 1.0056 1.0833 -9.928144e-002 218.7969 261.6459)" gradientUnits="userSpaceOnUse">
			<stop  offset="0" style="stop-color:#FFFFFF"/>
			<stop  offset="8.510864e-002" style="stop-color:#FFEDD8"/>
			<stop  offset="0.2082" style="stop-color:#FFD5A7"/>
			<stop  offset="0.3345" style="stop-color:#FFC17D"/>
			<stop  offset="0.462" style="stop-color:#FFB05B"/>
			<stop  offset="0.591" style="stop-color:#FFA340"/>
			<stop  offset="0.7222" style="stop-color:#FF9A2D"/>
			<stop  offset="0.8568" style="stop-color:#FF9522"/>
			<stop  offset="1" style="stop-color:#FF931E"/>
		</radialGradient>
		<path class="st16" d="M466.4,351.5l1.4,15.2c0.2,1.9,1.8,3.3,3.7,3.1l44.6-4.1c1.9-0.2,3.2-1.8,3.1-3.7l-1.4-15.2
			c-0.2-1.9-1.8-3.3-3.7-3.1l-27.4,2.5l-10.5-26.4l-14.7,6l8.8,21.9l-0.6,0.1C467.6,348,466.2,349.6,466.4,351.5z"/>
		<polygon class="st17" points="485.5,319.1 460.5,331.3 440.5,289.5 430.8,339.4 403.6,334 416,269.9 432.7,273.2 432.3,272.5 
			457.3,260.3 		"/>
		
			<radialGradient id="SVGID_12_" cx="1145.2338" cy="266.1772" r="18.449" gradientTransform="matrix(0.9287 -0.3745 0.2459 0.6216 -674.7408 372.0476)" gradientUnits="userSpaceOnUse">
			<stop  offset="0" style="stop-color:#FFFFFF"/>
			<stop  offset="8.510864e-002" style="stop-color:#FFEDD8"/>
			<stop  offset="0.2082" style="stop-color:#FFD5A7"/>
			<stop  offset="0.3345" style="stop-color:#FFC17D"/>
			<stop  offset="0.462" style="stop-color:#FFB05B"/>
			<stop  offset="0.591" style="stop-color:#FFA340"/>
			<stop  offset="0.7222" style="stop-color:#FF9A2D"/>
			<stop  offset="0.8568" style="stop-color:#FF9522"/>
			<stop  offset="1" style="stop-color:#FF931E"/>
		</radialGradient>
		<path class="st18" d="M467.4,120.4l-14.7,5.9c-1.5,0.6-3.3-0.1-3.9-1.7l-9.4-23.8c-0.6-1.6,0.1-3.3,1.7-4l14.7-5.9
			c1.5-0.6,3.3,0.1,3.9,1.7l9.4,23.8C469.7,118,469,119.7,467.4,120.4z"/>
		
			<radialGradient id="SVGID_13_" cx="939.6414" cy="330.6818" r="11.8369" gradientTransform="matrix(1.331 -0.6153 0.4619 1.0187 -961.3091 336.989)" gradientUnits="userSpaceOnUse">
			<stop  offset="0" style="stop-color:#FFFFFF"/>
			<stop  offset="8.510864e-002" style="stop-color:#FFEDD8"/>
			<stop  offset="0.2082" style="stop-color:#FFD5A7"/>
			<stop  offset="0.3345" style="stop-color:#FFC17D"/>
			<stop  offset="0.462" style="stop-color:#FFB05B"/>
			<stop  offset="0.591" style="stop-color:#FFA340"/>
			<stop  offset="0.7222" style="stop-color:#FF9A2D"/>
			<stop  offset="0.8568" style="stop-color:#FF9522"/>
			<stop  offset="1" style="stop-color:#FF931E"/>
		</radialGradient>
		<path class="st19" d="M450.6,91.7c4,8.7,3.4,17.5-1.3,19.7s-11.7-3.1-15.6-11.9c-4-8.7-3.4-17.5,1.3-19.7
			C439.6,77.7,446.6,83,450.6,91.7z"/>
		
			<radialGradient id="SVGID_14_" cx="980.518" cy="36.905" r="52.2319" gradientTransform="matrix(0.9946 0.1045 -0.1035 1.0043 -575.2731 -10.3829)" gradientUnits="userSpaceOnUse">
			<stop  offset="0" style="stop-color:#FFFFFF"/>
			<stop  offset="8.510864e-002" style="stop-color:#FFEDD8"/>
			<stop  offset="0.2082" style="stop-color:#FFD5A7"/>
			<stop  offset="0.3345" style="stop-color:#FFC17D"/>
			<stop  offset="0.462" style="stop-color:#FFB05B"/>
			<stop  offset="0.591" style="stop-color:#FFA340"/>
			<stop  offset="0.7222" style="stop-color:#FF9A2D"/>
			<stop  offset="0.8568" style="stop-color:#FF9522"/>
			<stop  offset="1" style="stop-color:#FF931E"/>
		</radialGradient>
		<path class="st20" d="M446.9,116.9c6.7,28.3-10.6,56.8-38.6,63.6c-28,6.8-56.2-10.7-62.9-39s10.6-56.8,38.6-63.6
			C412,71.1,440.2,88.6,446.9,116.9z"/>
		<path class="st6" d="M431.4,104.3c1,10.2-6.3,19.3-16.4,20.4s-19.1-6.4-20.2-16.6s6.3-19.3,16.4-20.4
			C421.3,86.7,430.4,94.1,431.4,104.3z"/>
		<path d="M430.8,107.3c-0.6,6.3-6.9,10.8-14,10.1c-7.1-0.7-12.3-6.5-11.7-12.8c0.6-6.3,6.9-10.8,14-10.1
			C426.2,95.3,431.4,101,430.8,107.3z"/>
		
			<radialGradient id="SVGID_15_" cx="859.3624" cy="415.2796" r="11.8369" gradientTransform="matrix(1.2015 -0.7417 0.588 0.9711 -933.2312 384.575)" gradientUnits="userSpaceOnUse">
			<stop  offset="0" style="stop-color:#FFFFFF"/>
			<stop  offset="8.510864e-002" style="stop-color:#FFEDD8"/>
			<stop  offset="0.2082" style="stop-color:#FFD5A7"/>
			<stop  offset="0.3345" style="stop-color:#FFC17D"/>
			<stop  offset="0.462" style="stop-color:#FFB05B"/>
			<stop  offset="0.591" style="stop-color:#FFA340"/>
			<stop  offset="0.7222" style="stop-color:#FF9A2D"/>
			<stop  offset="0.8568" style="stop-color:#FF9522"/>
			<stop  offset="1" style="stop-color:#FF931E"/>
		</radialGradient>
		<path class="st21" d="M351.1,145.7c5,8.3,5.7,17.1,1.5,19.8c-4.2,2.6-11.7-2-16.7-10.3c-5-8.3-5.7-17.1-1.5-19.8
			C338.6,132.8,346.1,137.4,351.1,145.7z"/>
		<path class="st6" d="M402,120.6c1,10.2-6.3,19.3-16.4,20.4s-19.1-6.4-20.2-16.6c-1-10.2,6.3-19.3,16.4-20.4
			C391.9,102.9,401,110.4,402,120.6z"/>
		<path d="M401.4,123.6c-0.6,6.3-6.9,10.8-14,10.1c-7.1-0.7-12.3-6.5-11.7-12.8c0.6-6.3,6.9-10.8,14-10.1
			C396.8,111.6,402,117.3,401.4,123.6z"/>
		<path class="st8" d="M360.4,100.6c1.7-3,3.6-5.8,5.6-8.6c1-1.4,2.1-2.7,3.6-3.5c3.1-1.7,7.5,0.1,8.6,3.5"/>
		<path class="st8" d="M392.8,85.4c0.4-3.1,1.2-6.1,2.4-9c0.3-0.8,0.7-1.5,1.4-2c0.8-0.6,1.9-0.7,2.9-0.7c3.8,0.2,7.4,2.3,9.4,5.5"
			/>
		<path class="st6" d="M399,121.9c-0.3,2.7-2.6,4.8-5.1,4.5s-4.3-2.7-4.1-5.4c0.3-2.7,2.6-4.8,5.1-4.5
			C397.5,116.8,399.3,119.2,399,121.9z"/>
		<path class="st6" d="M428.4,105.7c-0.3,2.7-2.6,4.8-5.1,4.5c-2.5-0.3-4.3-2.7-4.1-5.4c0.3-2.7,2.6-4.8,5.1-4.5
			S428.7,102.9,428.4,105.7z"/>
		<path class="st9" d="M402.4,150.2c1,8.4,6.5,14.6,12.2,13.9c5.7-0.7,9.5-8.1,8.5-16.5c-1-8.4-6.5-14.6-12.2-13.9
			C405.2,134.4,401.4,141.8,402.4,150.2z"/>
		<polygon class="st3" points="447.2,197.5 463.6,269.4 404.1,283.2 387.8,211.7 363.4,229 352.8,213.9 382.8,192.5 442.1,178.4 
			466,161.4 476.6,176.5 		"/>
		
			<linearGradient id="SVGID_16_" gradientUnits="userSpaceOnUse" x1="1045.5123" y1="51.7778" x2="1062.6896" y2="34.6006" gradientTransform="matrix(0.9946 0.1035 -0.1035 0.9946 -575.2731 -4.9014)">
			<stop  offset="0" style="stop-color:#FFFFFF"/>
			<stop  offset="8.510864e-002" style="stop-color:#FFEDD8"/>
			<stop  offset="0.2082" style="stop-color:#FFD5A7"/>
			<stop  offset="0.3345" style="stop-color:#FFC17D"/>
			<stop  offset="0.462" style="stop-color:#FFB05B"/>
			<stop  offset="0.591" style="stop-color:#FFA340"/>
			<stop  offset="0.7222" style="stop-color:#FF9A2D"/>
			<stop  offset="0.8568" style="stop-color:#FF9522"/>
			<stop  offset="1" style="stop-color:#FF931E"/>
		</linearGradient>
		<polygon class="st22" points="467.5,163.5 473.3,158.3 455.9,125 464.2,122.3 488.2,156.8 475.2,174.5 		"/>
		<g>
			<path d="M376.4,77.5c-0.1-0.7-0.2-1.2-0.3-1.9c-0.1-0.6-0.3-1.2-0.5-1.8c-0.4-1.2-1-2.3-1.8-3.3c-0.8-1-1.8-1.8-3-2.3
				c-1.1-0.5-2.4-0.8-3.7-0.6l0,0l0.6,0.2l-0.6-0.1l-0.1,0l0.1,0c1.3-0.2,2.6-0.1,3.8,0.4c1.2,0.5,2.3,1.2,3.2,2.2
				c0.9,1,1.6,2.1,2.2,3.3c0.3,0.6,0.5,1.2,0.7,1.9c0.2,0.6,0.3,1.3,0.4,1.9L376.4,77.5z"/>
		</g>
		<g>
			<path d="M371.2,57.7C371.2,57.7,371.1,57.8,371.2,57.7C371.2,57.7,371.2,57.7,371.2,57.7c-0.1,0.1-0.1,0.1-0.1,0.1
				c0,0.1,0.1,0.3,0.2,0.4c0.1,0.2,0.2,0.3,0.3,0.4l0.5,0.5c0.3,0.3,0.6,0.7,0.9,1c0.3,0.4,0.6,0.7,0.8,1.1c1.1,1.4,2,3,2.8,4.6
				c0.8,1.6,1.6,3.2,2.3,4.9l1,2.5c0.3,0.8,0.6,1.7,0.8,2.6l-0.5,0.1c-0.1-0.8-0.1-1.5-0.1-2.3c0-0.8,0.1-1.5,0.2-2.3
				c0.1-0.7,0.2-1.5,0.4-2.2c0.2-0.7,0.4-1.5,0.6-2.2c0.2-0.7,0.5-1.4,0.8-2.1c0.3-0.7,0.6-1.4,0.9-2c0.3-0.7,0.7-1.3,1.1-1.9
				c0.4-0.6,0.9-1.2,1.4-1.8c-0.5,0.6-0.9,1.2-1.3,1.8c-0.4,0.6-0.8,1.3-1.1,2c-0.3,0.7-0.6,1.4-0.9,2.1c-0.3,0.7-0.5,1.4-0.7,2.1
				c-0.2,0.7-0.4,1.4-0.5,2.2c-0.1,0.7-0.2,1.5-0.3,2.2c-0.1,0.7-0.1,1.5-0.1,2.2c0,0.7,0.1,1.5,0.1,2.2l-0.5,0.1
				c-0.1-0.9-0.4-1.7-0.8-2.5l-1.1-2.4c-0.7-1.6-1.5-3.2-2.4-4.8c-0.9-1.5-1.8-3-2.9-4.4c-0.3-0.4-0.6-0.7-0.8-1
				c-0.3-0.3-0.6-0.6-0.9-0.9l-0.5-0.5c-0.2-0.2-0.4-0.4-0.5-0.6c-0.1-0.2-0.3-0.5-0.3-0.8c0-0.2,0-0.4,0.1-0.6
				c0-0.1,0.1-0.2,0.2-0.3c0.1-0.1,0.1-0.1,0.2-0.2L371.2,57.7z"/>
		</g>
		<g>
			<path d="M383.3,73.6c0,0,0.1-0.1,0.2-0.4c0-0.1,0.1-0.3,0.3-0.5c0.1-0.2,0.3-0.4,0.4-0.5c0.3-0.4,0.8-0.7,1.2-1
				c0.5-0.3,1-0.6,1.5-0.9c1.1-0.5,2.1-1.1,2.8-1.7c0.3-0.3,0.6-0.6,0.7-0.8c0.2-0.2,0.2-0.3,0.2-0.3s-0.1,0.1-0.2,0.4
				c-0.1,0.2-0.4,0.5-0.7,0.9c-0.6,0.7-1.6,1.4-2.6,2c-0.5,0.3-1,0.7-1.4,1c-0.4,0.3-0.8,0.7-1,1c-0.1,0.2-0.2,0.3-0.3,0.4
				c-0.1,0.1-0.1,0.2-0.2,0.4c-0.1,0.2-0.1,0.4-0.1,0.4L383.3,73.6z"/>
		</g>
		
			<radialGradient id="SVGID_17_" cx="-73.9029" cy="771.3249" r="18.449" gradientTransform="matrix(-0.5729 0.8276 0.5434 0.3835 -153.9998 -47.1828)" gradientUnits="userSpaceOnUse">
			<stop  offset="0" style="stop-color:#FFFFFF"/>
			<stop  offset="8.510864e-002" style="stop-color:#FFEDD8"/>
			<stop  offset="0.2082" style="stop-color:#FFD5A7"/>
			<stop  offset="0.3345" style="stop-color:#FFC17D"/>
			<stop  offset="0.462" style="stop-color:#FFB05B"/>
			<stop  offset="0.591" style="stop-color:#FFA340"/>
			<stop  offset="0.7222" style="stop-color:#FF9A2D"/>
			<stop  offset="0.8568" style="stop-color:#FF9522"/>
			<stop  offset="1" style="stop-color:#FF931E"/>
		</radialGradient>
		<path class="st23" d="M315.8,203.1l9.1-13.1c1-1.4,0.6-3.3-0.7-4.3L303.3,171c-1.4-1-3.3-0.6-4.2,0.8l-9.1,13.1
			c-1,1.4-0.6,3.3,0.7,4.3l20.8,14.7C312.9,204.8,314.8,204.4,315.8,203.1z"/>
		
			<linearGradient id="SVGID_18_" gradientUnits="userSpaceOnUse" x1="98.1885" y1="899.0564" x2="115.0432" y2="882.2017" gradientTransform="matrix(-0.1797 0.9837 0.9837 0.1797 -517.8857 -52.2951)">
			<stop  offset="0" style="stop-color:#FFFFFF"/>
			<stop  offset="8.510864e-002" style="stop-color:#FFEDD8"/>
			<stop  offset="0.2082" style="stop-color:#FFD5A7"/>
			<stop  offset="0.3345" style="stop-color:#FFC17D"/>
			<stop  offset="0.462" style="stop-color:#FFB05B"/>
			<stop  offset="0.591" style="stop-color:#FFA340"/>
			<stop  offset="0.7222" style="stop-color:#FF9A2D"/>
			<stop  offset="0.8568" style="stop-color:#FF9522"/>
			<stop  offset="1" style="stop-color:#FF931E"/>
		</linearGradient>
		<polygon class="st24" points="355,216.1 348.4,220.2 321.6,194 316.8,201.3 342.8,234.3 363.2,226.6 		"/>
	</g>
	<ellipse class="st25" cx="229.4" cy="184.5" rx="3.5" ry="3.4"/>
	<g>
		
			<linearGradient id="SVGID_19_" gradientUnits="userSpaceOnUse" x1="543.8314" y1="150.1358" x2="558.4099" y2="135.5573" gradientTransform="matrix(-0.9924 0.123 0.123 0.9924 731.8674 -15.1285)">
			<stop  offset="0" style="stop-color:#FFFFFF"/>
			<stop  offset="8.510864e-002" style="stop-color:#FFEDD8"/>
			<stop  offset="0.2082" style="stop-color:#FFD5A7"/>
			<stop  offset="0.3345" style="stop-color:#FFC17D"/>
			<stop  offset="0.462" style="stop-color:#FFB05B"/>
			<stop  offset="0.591" style="stop-color:#FFA340"/>
			<stop  offset="0.7222" style="stop-color:#FF9A2D"/>
			<stop  offset="0.8568" style="stop-color:#FF9522"/>
			<stop  offset="1" style="stop-color:#FF931E"/>
		</linearGradient>
		<polygon class="st26" points="203.8,208.3 198.8,203.9 213,175.4 205.9,173.3 186.1,202.9 197.5,217.7 		"/>
		<g>
			
				<radialGradient id="SVGID_20_" cx="535.9951" cy="357.385" r="23.676" gradientTransform="matrix(-7.177142e-003 1.0097 1.0877 7.882973e-003 -119.5853 -177.6391)" gradientUnits="userSpaceOnUse">
				<stop  offset="0" style="stop-color:#FFFFFF"/>
				<stop  offset="8.510864e-002" style="stop-color:#FFEDD8"/>
				<stop  offset="0.2082" style="stop-color:#FFD5A7"/>
				<stop  offset="0.3345" style="stop-color:#FFC17D"/>
				<stop  offset="0.462" style="stop-color:#FFB05B"/>
				<stop  offset="0.591" style="stop-color:#FFA340"/>
				<stop  offset="0.7222" style="stop-color:#FF9A2D"/>
				<stop  offset="0.8568" style="stop-color:#FF9522"/>
				<stop  offset="1" style="stop-color:#FF931E"/>
			</radialGradient>
			<path class="st27" d="M245.1,367.1L245,381c0,1.6,1.3,3.3,2.8,3.4l38,0.5c1.6,0,2.9-1.2,2.9-2.8l0.1-12.9c0-1.6-1.3-2.9-2.9-2.9
				l-23.4-0.2l-6.7-23.2L243,345l5.6,17.5H248C246.4,362.5,245.1,365.5,245.1,367.1z"/>
			
				<radialGradient id="SVGID_21_" cx="624.1301" cy="347.6632" r="23.6822" gradientTransform="matrix(-0.1571 0.9972 -1.0742 -0.1725 662.8422 -202.1427)" gradientUnits="userSpaceOnUse">
				<stop  offset="0" style="stop-color:#FFFFFF"/>
				<stop  offset="8.510864e-002" style="stop-color:#FFEDD8"/>
				<stop  offset="0.2082" style="stop-color:#FFD5A7"/>
				<stop  offset="0.3345" style="stop-color:#FFC17D"/>
				<stop  offset="0.462" style="stop-color:#FFB05B"/>
				<stop  offset="0.591" style="stop-color:#FFA340"/>
				<stop  offset="0.7222" style="stop-color:#FF9A2D"/>
				<stop  offset="0.8568" style="stop-color:#FF9522"/>
				<stop  offset="1" style="stop-color:#FF931E"/>
			</radialGradient>
			<path class="st28" d="M211,365.8l-2,12.8c-0.2,1.6-1.7,2.7-3.3,2.4l-37.5-6c-1.6-0.3-2.6-1.7-2.4-3.3l2-12.8
				c0.2-1.6,1.7-2.7,3.3-2.4l23.1,3.7l10.4-21.8l12.1,5.9l-8.7,18.1l0.5,0.1C210.2,362.8,211.3,364.2,211,365.8z"/>
			<polygon class="st29" points="196.7,337.3 217.2,349.1 236.5,314.8 241.9,357.6 265.2,354.6 258.4,299.6 244.1,301.4 
				244.4,300.9 223.9,289.1 			"/>
			
				<radialGradient id="SVGID_22_" cx="653.724" cy="55.1231" r="15.6621" gradientTransform="matrix(-0.9358 -0.356 -0.2337 0.6264 838.7552 359.6741)" gradientUnits="userSpaceOnUse">
				<stop  offset="0" style="stop-color:#FFFFFF"/>
				<stop  offset="8.510864e-002" style="stop-color:#FFEDD8"/>
				<stop  offset="0.2082" style="stop-color:#FFD5A7"/>
				<stop  offset="0.3345" style="stop-color:#FFC17D"/>
				<stop  offset="0.462" style="stop-color:#FFB05B"/>
				<stop  offset="0.591" style="stop-color:#FFA340"/>
				<stop  offset="0.7222" style="stop-color:#FF9A2D"/>
				<stop  offset="0.8568" style="stop-color:#FF9522"/>
				<stop  offset="1" style="stop-color:#FF931E"/>
			</radialGradient>
			<path class="st30" d="M203.6,171.8l11.7,4.5c1.6,0.6,3.3-0.2,3.9-1.8l7.3-19.5c0.6-1.6-0.2-3.3-1.8-3.9l-11.7-4.5
				c-1.6-0.6-3.3,0.2-3.9,1.8l-7.3,19.5C201.2,169.5,202,171.2,203.6,171.8z"/>
			
				<radialGradient id="SVGID_23_" cx="609.6006" cy="185.1458" r="10.0488" gradientTransform="matrix(-1.3427 -0.5888 -0.442 1.0277 1124.5863 318.9385)" gradientUnits="userSpaceOnUse">
				<stop  offset="0" style="stop-color:#FFFFFF"/>
				<stop  offset="8.510864e-002" style="stop-color:#FFEDD8"/>
				<stop  offset="0.2082" style="stop-color:#FFD5A7"/>
				<stop  offset="0.3345" style="stop-color:#FFC17D"/>
				<stop  offset="0.462" style="stop-color:#FFB05B"/>
				<stop  offset="0.591" style="stop-color:#FFA340"/>
				<stop  offset="0.7222" style="stop-color:#FF9A2D"/>
				<stop  offset="0.8568" style="stop-color:#FF9522"/>
				<stop  offset="1" style="stop-color:#FF931E"/>
			</radialGradient>
			<path class="st31" d="M217,147.1c-3.2,7.5-2.6,14.9,1.4,16.7s9.9-2.9,13.1-10.3c3.2-7.5,2.6-14.9-1.4-16.7S220.2,139.6,217,147.1
				z"/>
			
				<radialGradient id="SVGID_24_" cx="488.7364" cy="137.6448" r="44.3416" gradientTransform="matrix(-0.9924 0.1242 0.123 1.0021 731.8674 -20.7098)" gradientUnits="userSpaceOnUse">
				<stop  offset="0" style="stop-color:#FFFFFF"/>
				<stop  offset="8.510864e-002" style="stop-color:#FFEDD8"/>
				<stop  offset="0.2082" style="stop-color:#FFD5A7"/>
				<stop  offset="0.3345" style="stop-color:#FFC17D"/>
				<stop  offset="0.462" style="stop-color:#FFB05B"/>
				<stop  offset="0.591" style="stop-color:#FFA340"/>
				<stop  offset="0.7222" style="stop-color:#FF9A2D"/>
				<stop  offset="0.8568" style="stop-color:#FF9522"/>
				<stop  offset="1" style="stop-color:#FF931E"/>
			</radialGradient>
			<path class="st32" d="M220.5,168.4c-5.2,24.1,9.9,48,33.8,53.3s47.5-10,52.8-34.2c5.2-24.1-9.9-48-33.8-53.3
				C249.3,128.9,225.7,144.2,220.5,168.4z"/>
			<path class="st6" d="M233.4,157.4c-0.7,8.7,5.7,16.3,14.3,17c8.6,0.7,16.1-5.7,16.8-14.4c0.7-8.7-5.7-16.3-14.3-17
				C241.7,142.3,234.2,148.7,233.4,157.4z"/>
			<path d="M234,159.9c0.7,5.3,6.1,9.1,12.1,8.3s10.4-5.7,9.7-11c-0.7-5.3-6.1-9.1-12.1-8.3C237.7,149.7,233.4,154.6,234,159.9z"/>
			
				<radialGradient id="SVGID_25_" cx="544.4469" cy="222.692" r="10.0488" gradientTransform="matrix(-1.2157 -0.7178 -0.569 0.9826 1097.4395 367.0722)" gradientUnits="userSpaceOnUse">
				<stop  offset="0" style="stop-color:#FFFFFF"/>
				<stop  offset="8.510864e-002" style="stop-color:#FFEDD8"/>
				<stop  offset="0.2082" style="stop-color:#FFD5A7"/>
				<stop  offset="0.3345" style="stop-color:#FFC17D"/>
				<stop  offset="0.462" style="stop-color:#FFB05B"/>
				<stop  offset="0.591" style="stop-color:#FFA340"/>
				<stop  offset="0.7222" style="stop-color:#FF9A2D"/>
				<stop  offset="0.8568" style="stop-color:#FF9522"/>
				<stop  offset="1" style="stop-color:#FF931E"/>
			</radialGradient>
			<path class="st33" d="M302.3,191.2c-4.1,7.1-4.5,14.7-0.9,16.8c3.6,2.1,9.9-1.9,14-9s4.5-14.7,0.9-16.8
				C312.7,180.1,306.4,184.1,302.3,191.2z"/>
			<path class="st6" d="M258.7,170.7c-0.7,8.7,5.7,16.3,14.3,17c8.6,0.7,16.1-5.7,16.8-14.4c0.7-8.7-5.7-16.3-14.3-17
				C266.9,155.6,259.4,162.1,258.7,170.7z"/>
			<path d="M259.3,173.3c0.7,5.3,6.1,9.1,12.1,8.3c6-0.8,10.4-5.7,9.7-11c-0.7-5.3-6.1-9.1-12.1-8.3
				C262.9,163,258.6,167.9,259.3,173.3z"/>
			<path class="st8" d="M293.6,153.1c-1.5-2.5-3.1-4.9-4.9-7.2c-0.9-1.1-1.8-2.3-3.1-2.9c-2.7-1.3-6.3,0.2-7.2,3.1"/>
			<path class="st8" d="M265.9,140.7c-0.4-2.6-1.1-5.2-2.2-7.6c-0.3-0.6-0.6-1.3-1.2-1.7c-0.7-0.5-1.6-0.6-2.5-0.5
				c-3.2,0.2-6.2,2.1-7.9,4.9"/>
			<path class="st6" d="M261.2,171.9c0.3,2.3,2.2,4,4.4,3.7s3.6-2.4,3.4-4.7c-0.3-2.3-2.2-4-4.4-3.7
				C262.5,167.4,261,169.5,261.2,171.9z"/>
			<path class="st6" d="M236,158.5c0.3,2.3,2.2,4,4.4,3.7c2.1-0.3,3.6-2.4,3.4-4.7c-0.3-2.3-2.2-4-4.4-3.7S235.7,156.2,236,158.5z"
				/>
			<path class="st9" d="M258.8,195.9c-0.7,7.2-5.3,12.5-10.1,12c-4.9-0.5-8.2-6.7-7.5-13.9c0.7-7.2,5.3-12.5,10.1-12
				C256.2,182.5,259.5,188.7,258.8,195.9z"/>
			<g>
				<path d="M278.8,133.6c0.1-0.5,0.2-1.1,0.3-1.7c0.1-0.5,0.3-1.1,0.5-1.6c0.4-1,1-2,1.8-2.9c0.8-0.8,1.7-1.5,2.7-1.9
					c1-0.4,2.2-0.6,3.3-0.4l0.1,0l-0.1,0l-0.5,0.1l0.5-0.2l0,0c-1.1-0.1-2.2,0.1-3.1,0.6c-1,0.5-1.8,1.2-2.5,2
					c-0.7,0.8-1.1,1.8-1.5,2.8c-0.2,0.5-0.3,1-0.4,1.5c-0.1,0.5-0.2,1-0.2,1.6L278.8,133.6z"/>
			</g>
			<g>
				<path d="M284.3,116.1c0.1,0,0,0,0.2,0.1c0.1,0.1,0.1,0.2,0.2,0.3c0.1,0.2,0.1,0.4,0.1,0.5c0,0.3-0.1,0.5-0.3,0.7
					c-0.1,0.2-0.3,0.4-0.4,0.5l-0.4,0.4c-0.3,0.3-0.5,0.5-0.7,0.8c-0.2,0.3-0.5,0.6-0.7,0.9c-0.9,1.2-1.7,2.5-2.4,3.8
					c-0.7,1.3-1.3,2.7-1.9,4.1c-0.6,1.4-1.3,2.8-1.5,4.2l-0.5,0c0.3-2.5-0.1-5-0.8-7.4c-0.7-2.4-1.8-4.7-3.5-6.7
					c0.4,0.5,0.8,1,1.2,1.5c0.4,0.5,0.7,1.1,1,1.6c0.6,1.1,1.1,2.3,1.5,3.5c0.8,2.4,1.2,5,1,7.6l-0.5,0c0.1-0.8,0.3-1.5,0.6-2.2
					l0.8-2.1c0.6-1.4,1.2-2.8,1.8-4.2c0.7-1.4,1.4-2.7,2.3-4c0.2-0.3,0.5-0.6,0.7-0.9c0.3-0.3,0.5-0.6,0.8-0.9l0.4-0.4
					c0.1-0.1,0.2-0.2,0.3-0.4c0.1-0.1,0.1-0.3,0.1-0.3c0,0,0,0,0,0c0,0,0,0,0,0c0.1,0,0,0-0.1,0L284.3,116.1z"/>
			</g>
			<g>
				<path d="M272.9,130.9c0,0,0-0.1-0.1-0.3c0-0.1-0.1-0.2-0.1-0.3c0-0.1-0.1-0.2-0.2-0.4c-0.4-0.6-1.2-1.1-2-1.7
					c-0.8-0.5-1.7-1.1-2.3-1.7c-0.3-0.3-0.5-0.5-0.6-0.7c-0.1-0.2-0.2-0.3-0.2-0.3s0.1,0.1,0.2,0.3c0.1,0.2,0.4,0.4,0.6,0.6
					c0.6,0.5,1.5,0.9,2.4,1.4c0.9,0.4,1.9,0.9,2.4,1.6c0.1,0.1,0.3,0.3,0.4,0.5c0.1,0.2,0.2,0.3,0.2,0.4c0.1,0.2,0.2,0.3,0.2,0.3
					L272.9,130.9z"/>
			</g>
			
				<radialGradient id="SVGID_26_" cx="-286.171" cy="-316.1508" r="15.6621" gradientTransform="matrix(0.9936 -0.1139 7.475451e-002 0.6651 614.209 359.7308)" gradientUnits="userSpaceOnUse">
				<stop  offset="0" style="stop-color:#FFFFFF"/>
				<stop  offset="8.510864e-002" style="stop-color:#FFEDD8"/>
				<stop  offset="0.2082" style="stop-color:#FFD5A7"/>
				<stop  offset="0.3345" style="stop-color:#FFC17D"/>
				<stop  offset="0.462" style="stop-color:#FFB05B"/>
				<stop  offset="0.591" style="stop-color:#FFA340"/>
				<stop  offset="0.7222" style="stop-color:#FF9A2D"/>
				<stop  offset="0.8568" style="stop-color:#FF9522"/>
				<stop  offset="1" style="stop-color:#FF931E"/>
			</radialGradient>
			<path class="st34" d="M314,194.7l-12.5,1.4c-1.7,0.2-3.2-1-3.4-2.7l-2.3-20.7c-0.2-1.7,1-3.2,2.7-3.4L311,168
				c1.7-0.2,3.2,1,3.4,2.7l2.3,20.7C316.8,193,315.6,194.5,314,194.7z"/>
			
				<linearGradient id="SVGID_27_" gradientUnits="userSpaceOnUse" x1="-403.4356" y1="369.709" x2="-388.9193" y2="355.1928" gradientTransform="matrix(0.9321 0.3622 -0.3622 0.9321 810.062 22.5551)">
				<stop  offset="0" style="stop-color:#FFFFFF"/>
				<stop  offset="8.510864e-002" style="stop-color:#FFEDD8"/>
				<stop  offset="0.2082" style="stop-color:#FFD5A7"/>
				<stop  offset="0.3345" style="stop-color:#FFC17D"/>
				<stop  offset="0.462" style="stop-color:#FFB05B"/>
				<stop  offset="0.591" style="stop-color:#FFA340"/>
				<stop  offset="0.7222" style="stop-color:#FF9A2D"/>
				<stop  offset="0.8568" style="stop-color:#FF9522"/>
				<stop  offset="1" style="stop-color:#FF931E"/>
			</linearGradient>
			<polygon class="st35" points="304.9,230 310.8,227 304,195.8 311.3,195.5 323.3,229.2 308.8,240.7 			"/>
			<polygon class="st36" points="309,241.7 278.9,246.8 265.3,307.9 238,301.7 237.9,302.5 206.4,295.8 219.2,234.5 193.9,217.2 
				202.6,204.2 223.2,218.3 249.7,224 249.8,223.2 282,230.3 306.4,226.2 			"/>
		</g>
	</g>
	<g>
		
			<radialGradient id="SVGID_28_" cx="271.5913" cy="568.6345" r="30.294" gradientTransform="matrix(8.337545e-002 0.9466 0.9857 -9.473208e-002 -16.6004 145.466)" gradientUnits="userSpaceOnUse">
			<stop  offset="0" style="stop-color:#FFFFFF"/>
			<stop  offset="8.510865e-002" style="stop-color:#FFEDD8"/>
			<stop  offset="0.2082" style="stop-color:#FFD5A7"/>
			<stop  offset="0.3345" style="stop-color:#FFC17D"/>
			<stop  offset="0.462" style="stop-color:#FFB05B"/>
			<stop  offset="0.591" style="stop-color:#FFA340"/>
			<stop  offset="0.7222" style="stop-color:#FF9A2D"/>
			<stop  offset="0.8568" style="stop-color:#FF9522"/>
			<stop  offset="1" style="stop-color:#FF931E"/>
		</radialGradient>
		<path class="st37" d="M543.3,353l1.4,16c0.2,1.9,1.8,3.6,3.6,3.3l44-4.1c1.8-0.2,3.2-1.9,3-3.8l-1.4-15.5
			c-0.2-1.9-1.8-3.3-3.6-3.2l-27.1,2.7l-10.4-27l-14.5,5.2l8.6,21.5h-0.6C544.4,348.5,543.1,351.1,543.3,353z"/>
		
			<radialGradient id="SVGID_29_" cx="749.5369" cy="208.3255" r="30.2979" gradientTransform="matrix(-5.346722e-002 0.949 -0.9882 -6.075003e-002 725.9932 -348.514)" gradientUnits="userSpaceOnUse">
			<stop  offset="0" style="stop-color:#FFFFFF"/>
			<stop  offset="8.510865e-002" style="stop-color:#FFEDD8"/>
			<stop  offset="0.2082" style="stop-color:#FFD5A7"/>
			<stop  offset="0.3345" style="stop-color:#FFC17D"/>
			<stop  offset="0.462" style="stop-color:#FFB05B"/>
			<stop  offset="0.591" style="stop-color:#FFA340"/>
			<stop  offset="0.7222" style="stop-color:#FF9A2D"/>
			<stop  offset="0.8568" style="stop-color:#FF9522"/>
			<stop  offset="1" style="stop-color:#FF931E"/>
		</radialGradient>
		<path class="st38" d="M503.5,354.3l-0.9,15.6c-0.2,1.9-1.6,3.5-3.4,3.3l-44.2-2.7c-1.8-0.2-3.2-1.7-3.2-3.6l0.9-15.6
			c0.2-1.9,1.6-3.5,3.4-3.3l27.3,1.7l9.5-27.4l14.7,5.7l-8,22.7h0.6C502.2,350.9,503.6,352.4,503.5,354.3z"/>
		<polygon class="st39" points="483.7,321.9 508.7,333.6 527.2,290.1 538.3,340.8 565.1,334.4 550.9,269.4 534.5,273.2 534.8,272.5 
			509.7,260.9 		"/>
		
			<radialGradient id="SVGID_30_" cx="363.1895" cy="-45.4502" r="12.8288" gradientTransform="matrix(-1.2683 -0.4256 -0.3088 1.0042 940.9085 294.5819)" gradientUnits="userSpaceOnUse">
			<stop  offset="0" style="stop-color:#FFFFFF"/>
			<stop  offset="8.510865e-002" style="stop-color:#FFEDD8"/>
			<stop  offset="0.2082" style="stop-color:#FFD5A7"/>
			<stop  offset="0.3345" style="stop-color:#FFC17D"/>
			<stop  offset="0.462" style="stop-color:#FFB05B"/>
			<stop  offset="0.591" style="stop-color:#FFA340"/>
			<stop  offset="0.7222" style="stop-color:#FF9A2D"/>
			<stop  offset="0.8568" style="stop-color:#FF9522"/>
			<stop  offset="1" style="stop-color:#FF931E"/>
		</radialGradient>
		<path class="st40" d="M485.5,91.4c-2.9,9.3-1.2,18.2,3.6,19.7c4.8,1.5,11.1-4.5,14-13.9s1.2-18.2-3.6-19.7
			C494.5,76,488.4,82.1,485.5,91.4z"/>
		
			<radialGradient id="SVGID_31_" cx="37.1789" cy="110.4181" r="56.6743" gradientTransform="matrix(-0.8876 0.2096 0.2007 0.9272 554.1465 12.7089)" gradientUnits="userSpaceOnUse">
			<stop  offset="0" style="stop-color:#FFFFFF"/>
			<stop  offset="8.510865e-002" style="stop-color:#FFEDD8"/>
			<stop  offset="0.2082" style="stop-color:#FFD5A7"/>
			<stop  offset="0.3345" style="stop-color:#FFC17D"/>
			<stop  offset="0.462" style="stop-color:#FFB05B"/>
			<stop  offset="0.591" style="stop-color:#FFA340"/>
			<stop  offset="0.7222" style="stop-color:#FF9A2D"/>
			<stop  offset="0.8568" style="stop-color:#FF9522"/>
			<stop  offset="1" style="stop-color:#FF931E"/>
		</radialGradient>
		<ellipse class="st41" cx="543.3" cy="122.9" rx="51.6" ry="53.9"/>
		<path class="st6" d="M523.6,82.6c10-0.2,18.3,8.2,18.4,18.6s-7.8,19.1-17.9,19.3c-10,0.2-18.3-8.2-18.4-18.6
			C505.6,91.4,513.6,82.7,523.6,82.6z"/>
		<path d="M510.2,103.4c1.6-7.2,7.7-11.8,13.7-10.4c6,1.4,9.6,8.4,8,15.6c-1.6,7.2-7.7,11.8-13.7,10.4
			C512.2,117.6,508.6,110.6,510.2,103.4z"/>
		
			<radialGradient id="SVGID_32_" cx="292.9071" cy="-41.9354" r="12.856" gradientTransform="matrix(-1.1648 -0.5583 -0.4278 0.974 920.6246 342.3854)" gradientUnits="userSpaceOnUse">
			<stop  offset="0" style="stop-color:#FFFFFF"/>
			<stop  offset="8.510865e-002" style="stop-color:#FFEDD8"/>
			<stop  offset="0.2082" style="stop-color:#FFD5A7"/>
			<stop  offset="0.3345" style="stop-color:#FFC17D"/>
			<stop  offset="0.462" style="stop-color:#FFB05B"/>
			<stop  offset="0.591" style="stop-color:#FFA340"/>
			<stop  offset="0.7222" style="stop-color:#FF9A2D"/>
			<stop  offset="0.8568" style="stop-color:#FF9522"/>
			<stop  offset="1" style="stop-color:#FF931E"/>
		</radialGradient>
		<path class="st42" d="M589.4,134.1c-3.9,9-3.6,18.2,0.9,20.2c4.4,2.1,11.2-3.5,15.3-12.5c3.9-9,3.6-18.2-0.9-20.2
			S593.4,125.1,589.4,134.1z"/>
		<path class="st6" d="M554.4,95.6c10-0.2,18.3,8.2,18.4,18.6c0.2,10.5-7.8,19.1-17.9,19.3c-10,0.2-18.3-8.2-18.4-18.6
			C536.3,104.4,544.3,95.8,554.4,95.6z"/>
		<path d="M540.5,117.2c0.2-7.3,5.4-13.1,11.5-12.9c6.2,0.2,11,6.3,10.8,13.6c-0.2,7.3-5.4,13.1-11.5,12.9
			C545.1,130.6,540.3,124.5,540.5,117.2z"/>
		<path class="st8" d="M579.6,80.7c-0.3-1.9-0.9-3.8-1.6-5.7c-0.3-0.9-0.7-2.1-1.6-3.2c-1.8-2.4-5.7-4.9-7.6-4.7"/>
		<path class="st8" d="M532.7,61.4c-1.5-2.7-3.4-5.2-5.9-7.3c-0.6-0.6-1.2-1.1-2.1-1.3c-0.9-0.2-2,0.2-2.9,0.6
			c-3.4,1.7-5.7,5.4-6.2,9.2"/>
		<path class="st6" d="M545.2,123.4c0.1-2.6,2.3-4.6,5-4.6c2.7,0.1,4.8,2.3,4.7,4.9c-0.1,2.6-2.3,4.6-5,4.6
			C547.3,128.1,545.2,126,545.2,123.4z"/>
		<path class="st6" d="M513.7,110.5c0.6-2.5,3.1-4.1,5.7-3.5c2.6,0.6,4.3,3.2,3.7,5.7c-0.6,2.5-3.1,4.1-5.7,3.5
			C514.8,115.6,513.2,113,513.7,110.5z"/>
		<path class="st9" d="M514.4,142.6c0.8-5.9,8.1-9.6,16.3-8.3c8.2,1.3,14.1,7,13.3,12.9c-0.8,5.9-8.1,9.6-16.3,8.3
			C519.5,154.2,513.5,148.4,514.4,142.6z"/>
		<g>
			<path d="M555.4,67.9c0-0.6,0.2-1.5,0.3-2.1c0.2-0.6,0.3-1.5,0.5-2.1c0.5-1.3,1.1-2.5,1.8-3.6c1.6-2.2,4.3-3.6,6.8-3.5h0.2h-0.2
				l-0.6,0.2l0.6-0.3l0,0c-1.2,0-2.4,0.5-3.4,1.1c-1.1,0.6-2,1.5-2.5,2.7c-0.6,1.1-1.1,2.2-1.4,3.5c-0.2,0.6-0.2,1.3-0.3,1.9
				c0,0.6,0,1.3,0,1.9L555.4,67.9z"/>
		</g>
		<g>
			<path d="M560.1,46c0,0,0,0,0.2,0.2s0.2,0.3,0.3,0.3c0.2,0.3,0.2,0.5,0.2,0.8c0,0.5-0.2,0.6-0.3,0.9c-0.2,0.3-0.3,0.5-0.5,0.8
				l-0.5,0.5c-0.3,0.3-0.5,0.6-0.7,1.1c-0.3,0.3-0.5,0.8-0.7,1.1c-0.9,1.5-1.6,3.2-2.3,4.7c-0.6,1.7-1.2,3.3-1.8,5.1
				c-0.5,1.7-1.2,3.5-1.4,5.2h-0.7c0-3-0.6-6-1.6-8.8s-2.5-5.6-4.7-7.5c2.3,2.1,3.8,4.5,5.2,7.5c1.2,2.8,2,5.8,2.1,9h-0.7
				c0-0.9,0.2-1.9,0.5-2.8l0.7-2.7c0.5-1.7,1.1-3.5,1.6-5.2c0.6-1.7,1.4-3.5,2.3-5.1c0.2-0.5,0.5-0.8,0.7-1.3
				c0.3-0.3,0.5-0.8,0.7-1.1l0.5-0.5c0.2-0.2,0.2-0.3,0.3-0.5c0-0.2,0.2-0.3,0.2-0.3l0,0c0,0,0,0,0.2,0.2c0.2,0,0,0,0,0L560.1,46z"
				/>
		</g>
		<g>
			<path d="M548.2,65.5c0,0,0-0.2-0.2-0.3c0-0.2-0.2-0.2-0.2-0.3c0-0.2-0.2-0.3-0.3-0.5c-0.5-0.6-1.5-1.3-2.4-1.7
				c-1.1-0.6-2.1-1.1-2.7-1.7c-0.3-0.3-0.6-0.6-0.7-0.8c-0.2-0.2-0.3-0.3-0.3-0.3s0.2,0.2,0.3,0.3c0.2,0.2,0.5,0.5,0.7,0.6
				c0.7,0.5,1.8,0.9,2.9,1.3c1.1,0.5,2.3,0.9,3,1.5c0.2,0.2,0.3,0.3,0.5,0.5c0.2,0.2,0.3,0.3,0.3,0.5c0.2,0.2,0.2,0.3,0.2,0.3
				L548.2,65.5z"/>
		</g>
		
			<linearGradient id="SVGID_33_" gradientUnits="userSpaceOnUse" x1="577.5012" y1="161.2232" x2="578.4813" y2="128.9637" gradientTransform="matrix(-0.9951 9.876258e-002 9.876258e-002 0.9951 1053.7253 -42.7522)">
			<stop  offset="0" style="stop-color:#FFFFFF"/>
			<stop  offset="8.510865e-002" style="stop-color:#FFEDD8"/>
			<stop  offset="0.2082" style="stop-color:#FFD5A7"/>
			<stop  offset="0.3345" style="stop-color:#FFC17D"/>
			<stop  offset="0.462" style="stop-color:#FFB05B"/>
			<stop  offset="0.591" style="stop-color:#FFA340"/>
			<stop  offset="0.7222" style="stop-color:#FF9A2D"/>
			<stop  offset="0.8568" style="stop-color:#FF9522"/>
			<stop  offset="1" style="stop-color:#FF931E"/>
		</linearGradient>
		<path class="st43" d="M455.2,152.9l15.6,25l6.3-11.7l-6.2-4.5l27.4-5.7l0.7,6.3c0.2,1.3,1.2,2.2,2.4,2.1l26.4-3.6
			c1.2-0.2,2.1-1.3,2-2.7l-2.3-17.8c-0.2-1.3-1.2-2.2-2.5-2.1l-26.4,3.6c-1.2,0.2-2.1,0.8-2,2.1l0.6,4.5L455.2,152.9z"/>
		
			<linearGradient id="SVGID_34_" gradientUnits="userSpaceOnUse" x1="506.4976" y1="178.8243" x2="486.9663" y2="144.9952" gradientTransform="matrix(-0.9951 9.876258e-002 9.876258e-002 0.9951 1053.7253 -42.7522)">
			<stop  offset="0" style="stop-color:#FFFFFF"/>
			<stop  offset="8.510865e-002" style="stop-color:#FFEDD8"/>
			<stop  offset="0.2082" style="stop-color:#FFD5A7"/>
			<stop  offset="0.3345" style="stop-color:#FFC17D"/>
			<stop  offset="0.462" style="stop-color:#FFB05B"/>
			<stop  offset="0.591" style="stop-color:#FFA340"/>
			<stop  offset="0.7222" style="stop-color:#FF9A2D"/>
			<stop  offset="0.8568" style="stop-color:#FF9522"/>
			<stop  offset="1" style="stop-color:#FF931E"/>
		</linearGradient>
		<path class="st44" d="M526.5,158.5l20.6,17.6c0.9,0.8,2.4,0.6,3.2-0.3l4.3-5.4l49.8,3.5l-6.5,4.3l1.4,12.8l30-20.6l-69.3-7.1
			l1.2-1.5c0.7-0.9,0.6-2.5-0.3-3.3l-20.7-17.6c-0.9-0.8-2.4-0.6-3.2,0.3L526,155C525.4,156.2,525.6,157.6,526.5,158.5z"/>
		<polygon class="st45" points="602.9,193.9 568.5,203.7 559.8,278.4 527.5,274.4 527.4,275.3 490.2,271 498.1,196 466.7,178.4 
			475.3,161.6 500.8,176 532.1,179.7 532.2,178.8 570.2,183.4 598.1,175.5 		"/>
	</g>
</g>
</svg>
