<?xml version="1.0" encoding="utf-8"?>
<!-- Generator: Adobe Illustrator 19.2.0, SVG Export Plug-In . SVG Version: 6.00 Build 0)  -->
<svg version="1.1" id="Layer_1" xmlns="http://www.w3.org/2000/svg" xmlns:xlink="http://www.w3.org/1999/xlink" x="0px" y="0px"
	 viewBox="0 0 640 480" style="enable-background:new 0 0 640 480;" xml:space="preserve">
<style type="text/css">
	.st0{fill:none;}
	.st1{fill:#635D5A;}
	.st2{fill:#737777;}
	.st3{fill:#929190;}
	.st4{fill:#FFFFFF;}
	.st5{fill:#808080;}
	.st6{fill:#0000FF;}
	.st7{fill:url(#SVGID_1_);stroke:#333333;stroke-miterlimit:10;}
	.st8{fill:none;stroke:#000000;stroke-width:0.5;stroke-miterlimit:10;}
	.st9{fill:none;stroke:#000000;stroke-width:0.5;stroke-linecap:round;stroke-miterlimit:10;}
	.st10{fill:none;stroke:#000000;stroke-miterlimit:10;}
	.st11{fill:#FF7BAC;stroke:#000000;stroke-width:0.25;stroke-miterlimit:10;}
	.st12{fill:none;stroke:#1A1A1A;stroke-width:0.25;stroke-miterlimit:10;}
	.st13{fill:#202020;}
	.st14{fill:#373737;}
	.st15{fill:none;stroke:#333333;stroke-miterlimit:10;}
	.st16{opacity:0.36;fill:url(#SVGID_2_);stroke:#333333;stroke-miterlimit:10;enable-background:new    ;}
</style>
<pattern  y="480" width="72" height="72" patternUnits="userSpaceOnUse" id="SVGID_4_" viewBox="55.7 -151.2 72 72" style="overflow:visible;">
	<g>
		<rect x="55.7" y="-151.2" class="st0" width="72" height="72"/>
		<g>
			<rect x="55.7" y="-151.2" class="st0" width="72" height="72"/>
			<g>
				<rect x="55.7" y="-151.2" class="st0" width="72" height="72"/>
				<g>
					<g>
						<g>
							<path class="st1" d="M130.2-79.6l-2.6,3.9l-3.9,4.1c2.8-0.2,4.6-2.6,4.6-2.6l3.7-5.4H130.2z"/>
						</g>
					</g>
				</g>
				<g>
					<g>
						<g>
							<path class="st2" d="M122.4-41.3l-12-3.3l-3.5,7.1L99.6-34L91-36l-6.4-3l-4.4-3.9l-3.5-15.8l8.7-8.6L89-78.8l-12.1-18
								l6.5,1.5L101.8-76c0,0-3.8,11.5-3.8,13.6s2.2,2.8,4.5,4.1c0.5,0.3,4.3-4.8,5-6c2.3-3.5,2.6-6.2,5.5-6.8c1.3-0.3,7.3,1.3,7,5
								c0,0,0,8.3,2,10.8c0.9,1.2,1.9,2.5,2.5,4c2,4.5,10,10.5,10,10.5l0.5,6L122.4-41.3z"/>
							<polygon class="st2" points="132.9,-91.8 111.9,-86.8 120.9,-76.8 131.4,-73.3 							"/>
							<polygon class="st2" points="79.4,-87.4 69.9,-79.3 72.9,-69.3 81.4,-74.3 86.4,-78.3 95.4,-64.3 95.4,-75.8 91.2,-84.3 
								85.4,-93.3 							"/>
							<path class="st1" d="M120.4-83.5l-2.5,5.2l-1.7,1.5l-1.9,2.2c0,0-1.1,0.8-1.6,9.9c-0.4,9.1-10.1,18.8-10.1,18.8l-10.4,8.6
								c0,0-10.5,15.8-10.9,16.6c-0.4,0.9,2.5-9.7,2.5-9.7l3.5-4.7l12.3-10.1c0,0,3.4-3,6.3-9.5c2.8-6.5,3.9-8.2,4.1-10.4
								s-3.4-3,5.8-14L120.4-83.5z"/>
							<path class="st1" d="M128.8-82.3l-1.6,3.1l-0.8,2.8l-1.2,2.1l-1.4,1.8l-1.6,6.9c0,0,1.7,7.1,0,9.9s-3.4,7.5-4.3,9.7
								s-4.3,11.2-5.8,12.3s-13.6,6.3-18.5,11C88.6-17.9,76.5-1.7,72,0c3.2-3.9,17.9-21.8,19.8-23.3s11.6-10.8,16.6-12.5
								s5.2-6.9,7.5-11.2c2.4-4.3,5.8-13.4,5.8-18.3c0-5,1.7-10.5,1.7-10.5L128.8-82.3z"/>
							<path class="st1" d="M108.5-81.5l-1.3,7l-1.7,3.9l-1.9,3.9c0,0-3.4,2.4-4,3.3c-0.6,0.9-4.6,5.3-5.5,6c-0.9,0.6-6,3.4-6,3.4
								c3.5-2.2,7.1-7.1,7.1-7.1s1.5-5,4.1-6.3s5.6-6,5.6-6.9s0.3-6.1,0.3-6.1L108.5-81.5z"/>
							<path class="st1" d="M57.7-68.3c0.2-0.7-0.3-1.2-0.1-1.9c0.2-0.6,1-0.8,1.2-1.3c0.3-0.9,0.1-2.2,0.1-2
								c0.2-1.2,0.6-2.6,0.9-3.2c0.3-0.7,1.2-2.2,1.2-2.2l2.7-1.8l-1.8,3.5c0,0-1,5.2-1,5.7s0.2,8.4,0.2,8.4l1.5,6.9l-0.6,5l2.6,3.1
								c0,0,1.7,5.8,1.7,6.3s2.7,4,2.7,4l3.8,4.5l2.3,3.3c0,0,0.3,2.7,0.7,5.3c0.3,2.7,1.2,3.8,2.3,6.2c1.2,2.3,6,6.5,6,6.5l1.5,4
								L85-1c-1-2.2-1-7.8-1-7.8s-2.2-4.2-3.2-4.8c-1-0.7-3-1.8-3.5-3.2c-0.5-1.3-2.2-6.5-2.2-6.5l-1-6.3c0,0-1.3-3.4-3.9-4.5
								c-2.5-1.2-3.2-2-4-4.5s-2.5-5.6-2.5-5.6l-2.6-6.9l0.4-3.9c0,0-2.5-8.5-2-11.5s0.7-7,0.7-7s-0.3,1.6-0.9,3.3
								c-0.2,0.6-0.4,1.3-0.7,1.8c-1,2.1-2.4,3.6-2.6,4C56-64.4,57.1-66.2,57.7-68.3z"/>
							<path class="st1" d="M71.6-91.8c0,0,0.6,4.3,0.6,6.3s4.3,6.2,3.7,9.7c-0.7,3.5-1,2.9-0.8,4.2s0.7,3.7,0,4.5
								c-1.2-3.7-0.7-9-0.7-9s-3.8-7-3.6-9.5L71.6-91.8z"/>
							<path class="st1" d="M58.2-79.6l-2.6,3.9l-3.9,4.1c2.8-0.2,4.6-2.6,4.6-2.6l3.7-5.4H58.2z"/>
							<path class="st1" d="M92.7-84.8c0,0-1.2,0.7-1.2,2.7S89.2-77,89.2-77s0.3,2.2,0.5,4s0.2,5.7,0.2,5.7c-1.7-1-1.2-6.5-1.2-6.5
								s-0.5-4.2,0.3-5s1.7-3.5,2.2-5.5L92.7-84.8z"/>
							<path class="st1" d="M96.7-85.5c0,0-0.3,2.5-0.5,3.3C96-81.3,96-77.8,96-77.8l-0.2,4.2l-1.3,3.2L92-68l-0.3-0.5
								c0.2-1,2.5-4.7,2.9-6.3c0.5-2.1,0.8-4.6,0.8-4.6s0.2-5.3,0.2-6.2L96.7-85.5L96.7-85.5z"/>
							<path class="st1" d="M101.8-81.7c0,0-1,3.2-0.8,4.5s-0.2,8.3,1,9.3c-1.7-0.8-2.2-5.4-2.2-6.9s1.2-5.8,1.2-7.3L101.8-81.7z"/>
							<path class="st1" d="M85.6-80l-0.1,12.6c-1-2.2-1.5-13.5-1.5-13.5L85.6-80z"/>
							<path class="st1" d="M98.1-96.3l-2.7,1.6c0,0-1.2,1.4-1.5,1.8c-0.3,0.4-0.8,1.5-1,2S90.3-87,90.3-87s-2.6,1.7-3.5,2.4
								s-2.7,2.1-2.7,2.1l-1.6,2.4l-1.7,3.2l4.5-0.4l2.9,0.1l-6.6,1.3L80-75.5l-2,0.9l-3,1.7l-1.7,1.8l0.1,6.1l3.7,1l-2,0.2l-2-0.3
								l-1.8-5.8l-4.9-2.5v-0.9l-0.8-1.3l-0.2-1.2l-0.2-3l2.4,5.8c0,0,3.7,1.1,4.1,0.8c0.3-0.4,7.8-4.5,7.8-4.5l2.3-3.8l2.4-3.5
								l0.8-0.4l2.4-2.3l1.6-0.5l1-1.3l1.2-3.4l2.4-2.1C93.7-94,97-97.8,98.1-96.3z"/>
							<path class="st1" d="M130.2-79.6l-2.6,3.9l-3.9,4.1c2.8-0.2,4.6-2.6,4.6-2.6l3.7-5.4H130.2z"/>
						</g>
					</g>
					<polygon class="st1" points="79.4,-87.4 76.4,-84.6 75.8,-82 73.4,-79.4 71.5,-78.3 69.4,-77.8 66.2,-76.3 64.5,-75.8 
						63.5,-75.4 62.6,-72.2 61.2,-70.8 59.7,-67.3 60.5,-66.2 60.3,-67.4 61.5,-69.5 63.3,-71.3 66,-74.3 68.2,-76.2 71.2,-76.9 
						73.3,-78.5 76.2,-81.1 77.7,-84.7 					"/>
					<path class="st1" d="M71.7-72.3l2.5-2.4v-2c0,0,0.8-1,1.5-1.3s2.5-2.3,2.5-2.3l1.8-2.3l-0.8,2.3L77-78l-1.8,1.3v2.8L71.7-72.3z
						"/>
				</g>
				<g>
					<g>
						<g>
							<path class="st2" d="M50.4-41.3l-12-3.3l-3.5,7.1L27.6-34L19-36l-6.4-3l-4.4-3.9L4.8-58.7l8.7-8.6L17-78.8l-12.1-18l6.5,1.5
								L29.8-76c0,0-3.8,11.5-3.8,13.6s2.2,2.8,4.5,4.1c0.5,0.3,4.3-4.8,5-6c2.3-3.5,2.6-6.2,5.5-6.8c1.3-0.3,7.3,1.3,7,5
								c0,0,0,8.3,2,10.8c0.9,1.2,1.9,2.5,2.5,4c2,4.5,10,10.5,10,10.5l0.5,6L50.4-41.3z"/>
							<polygon class="st2" points="60.9,-91.8 39.9,-86.8 48.9,-76.8 59.4,-73.3 							"/>
							<path class="st1" d="M56.8-82.3l-1.6,3.1l-0.8,2.8l-1.2,2.1l-1.4,1.8l-1.6,6.9c0,0,1.7,7.1,0,9.9c-1.7,2.8-3.4,7.5-4.3,9.7
								c-0.9,2.2-4.3,11.2-5.8,12.3s-13.6,6.3-18.5,11C16.6-17.9,4.5-1.7,0,0c3.2-3.9,17.9-21.8,19.8-23.3s11.6-10.8,16.6-12.5
								s5.2-6.9,7.5-11.2c2.4-4.3,5.8-13.4,5.8-18.3c0-5,1.7-10.5,1.7-10.5L56.8-82.3z"/>
							<path class="st1" d="M58.2-79.6l-2.6,3.9l-3.9,4.1c2.8-0.2,4.6-2.6,4.6-2.6l3.7-5.4H58.2z"/>
						</g>
					</g>
				</g>
				<g>
					<g>
						<g>
							<path class="st2" d="M124.4-123.3c2,4.5,10,10.5,10,10.5l0.5,6l-12.5-6.5L124.4-123.3z"/>
							<polygon class="st2" points="125.1,-78.5 132.6,-72.5 145.4,-82.8 140.4,-92.3 132.9,-91.8 124.9,-98.8 							"/>
							<path class="st1" d="M125.5-97.5c1.8-1.1,3.4-2.2,3.6-2.5c0.5-0.8,7.3-9.5,7.3-9.5l6.8-7.5l5.5-5.5l9.5-8.5l4.5-0.5l3-0.3
								l4.3-2.6l-5.3,1.1l-7.3-0.8l-3.3,5.8l-1.5,1.1l-9.8,7.4c0,0-1,1.1-2.3,2.5c-1.8,2-4,4.5-4.5,5c-0.8,0.8-6.8,8.5-10.2,11.5
								L125.5-97.5z"/>
							<path class="st1" d="M151.4-126l-0.7,4.4l0.2,2.5l-0.1,1l-0.5,3.5l-3.1,4.4l-2.5,6.4l-3.3,7.7l-4.2,6.9l-4.2,4.6l-2.7,5.2
								l-2.6,3.9l-3.9,4.1c2.8-0.2,4.6-2.6,4.6-2.6l3.7-5.4L137-84l2.2-6.2l3.2-5.9l3-5.6l3.5-5.9l2.2-5.2l2-6.4l1.2-6.5l1.4-3.2
								L151.4-126z"/>
							<path class="st1" d="M124.9-93.2c1.2-0.2,2.4-0.7,3.1-2.2c1.5-3,5-6,5-6s10.3-3.8,13-1.8l-4.3,0.8c0,0-2.8,0.3-4.5,2
								s-3.8,4-5.5,5s-6,3.5-6.5,4.5L124.9-93.2z"/>
							<path class="st1" d="M171.9-138.8c0,0-2.8-0.5-5.8-1.3s-2.3-2-6-1.3c-3.8,0.8-7.3,1-8,1.8s-6.3,3.3-8.5,3.3
								c-1.3,0-2.5,1.5-4.7,3.1c-0.5,0.4-1.5,0.9-2.7,1.5c-2.6,1.3-11.3,3.9-12.1,4.8c0.7-0.2,7.2-1,8.3-1.5
								c2.9-1.2,6.4-3.6,8.2-4.5c2-1,4-1.6,5.7-1.2c3.8,1,8.5-6.8,13.8-5.3C165.4-137.8,169.7-138,171.9-138.8z"/>
							<path class="st1" d="M121.3-140.6l5.1,1.4c0.1,0.2,1.5,1.2,2.1,3.1c0.4,1.5,1.2,2.4,1.6,3.9c0.1,0.5,0.9,0.7,1,1.2
								c0.5,1.7,0.1,3.8,0.1,3.8l2.3,9.5c0,0,0.3,1.2,0.6,2.6c0.3,1.6,0.6,3.4,0.4,4.4c-0.5,1.8-0.5,4.8,0.3,6.9c0.8,2,4,6.2,4,6.2
								l4.7,5.8c0,0,0.6,4.3,0.6,6.3s4.3,6.2,3.7,9.7c-0.7,3.5-1,2.9-0.8,4.2s0.7,3.7,0,4.5c-1.2-3.7-0.7-9-0.7-9s-3.8-7-3.6-9.5
								s0.3-4.8-1.5-6.5s-4.5-7.7-6-9s-2-3.3-2-7s0.5-4,0-5.8s-0.1-5.3-1.7-8.2c-0.7-1.2-1.5-4.4-2-6.5c-0.1-0.6-0.3-2-0.4-2.4
								c-0.1-0.6-1.1-2.5-2.3-4.6c-0.5-0.9-2-1.9-2-2.4L121.3-140.6z"/>
							<path class="st1" d="M130.2-151.6l-2.6,3.9l-3.9,4.1c2.8-0.2,4.6-2.6,4.6-2.6l3.7-5.4H130.2z"/>
							<path class="st1" d="M115.7-122.3l4.8,1.5l4.8,1.3l7.2,0.3l3.3-1.7l2.8-1.3c0,0,1.8-2,3-3s2.8-2.7,2.8-2.7l1.7,0.2l-1-1.2
								h-1.7l-1.8,2L140-125c0,0-2,1.2-2.3,1.7s-2.5,1.7-2.5,1.7l-3.8,2l-4.3-0.7l-3.5-1l3.2-0.7l3.7-0.5l3.8-1.5l2.3-2l3.2-3.5
								l-1.7,1l-3.7,2.5l-3.7,1.8l-4.5,1.2l-3.2,0.7l-3.7-0.2l-3-0.8l-2.5-1.2L115.7-122.3z"/>
							<path class="st1" d="M123.2-112.5l2.8,1.2l0.8-0.7l3.7-1l3.3-3.2l4-1.2l-2.5-0.7l-3,1.5L130-114l-3.3,0.5
								C126.7-113.5,124.3-111.8,123.2-112.5z"/>
						</g>
						<polygon class="st1" points="119.7,-81 125.8,-81.8 128,-84.7 131.2,-87.8 133.2,-89.2 133.7,-92.5 137.5,-95.2 139.4,-97.2 
							136.5,-96.2 132.8,-93.8 130.8,-89.8 129.2,-93.5 129.5,-89.5 126.5,-86.2 124.9,-83 						"/>
						<path class="st1" d="M125.2-134.4c0,0,3.8,0.6,4.4,0.5c0.7-0.1,3.1-0.8,3.1-0.8l3.3-2.8l2.3-3l5.6-2.6h-2.8l-3,1.1l-3.6,2.4
							l-1.4,2.6l-2.2,0.8L125.2-134.4z"/>
					</g>
				</g>
				<g>
					<g>
						<g>
							<rect x="55.7" y="-151.2" class="st3" width="72" height="72"/>
							<path class="st2" d="M122.4-113.3l-12-3.3l-3.5,7.1l-7.3,3.5l-8.6-2l-6.3-3.1l-4.4-3.9l-3.5-15.8l8.7-8.6l3.5-11.5l-12.1-18
								l6.5,1.5l18.4,19.3c0,0-3.8,11.5-3.8,13.6c0,2.1,2.2,2.8,4.5,4.1c0.5,0.3,4.3-4.8,5-6c2.3-3.5,2.6-6.2,5.5-6.8
								c1.3-0.3,7.3,1.3,7,5c0,0,0,8.3,2,10.8c0.9,1.2,1.9,2.5,2.5,4c2,4.5,10,10.5,10,10.5l0.5,6L122.4-113.3z"/>
							<path class="st2" d="M52.4-123.3c2,4.5,10,10.5,10,10.5l0.5,6l-12.5-6.5L52.4-123.3z"/>
							<polygon class="st2" points="132.9,-91.8 124.9,-98.8 118.5,-105.3 112.1,-105.6 102.7,-103.5 98.4,-97.8 101.4,-88.8 
								111.9,-86.8 120.9,-76.8 131.4,-73.3 							"/>
							<polygon class="st2" points="132.9,-163.8 111.9,-158.8 120.9,-148.8 131.4,-145.3 							"/>
							<polygon class="st2" points="53.1,-78.5 60.6,-72.5 73.4,-82.8 68.4,-92.3 60.9,-91.8 52.9,-98.8 							"/>
							<path class="st2" d="M91.6-71.4l3-3.5l0.6-4l-4.1-5.4l4.8-5.5L94.4-98l-5.5-7.8l-9-2.5l-8-6l-1-12.5l-5.5,18.5
								c0,0,2.5,9.5,5,11s9,9.9,9,9.9l-9.5,8.1l3,10l8.5-5l5-4L91.6-71.4z"/>
							<polygon class="st2" points="79.4,-159.4 69.9,-151.3 72.9,-141.3 81.4,-146.3 86.4,-150.3 95.4,-136.3 95.4,-147.8 
								91.2,-156.3 85.4,-165.3 							"/>
							<path class="st1" d="M120.4-155.5l-2.5,5.2l-1.7,1.5l-1.9,2.2c0,0-1.1,0.8-1.6,9.9c-0.4,9.1-10.1,18.8-10.1,18.8l-10.4,8.6
								c0,0-10.5,15.8-10.9,16.6c-0.4,0.9,2.5-9.7,2.5-9.7l3.5-4.7l12.3-10.1c0,0,3.4-3,6.3-9.5c2.8-6.5,3.9-8.2,4.1-10.4
								s-3.4-3,5.8-14L120.4-155.5z"/>
							<path class="st1" d="M128.8-154.3l-1.6,3.1l-0.8,2.8l-1.2,2.1l-1.4,1.8l-1.6,6.9c0,0,1.7,7.1,0,9.9s-3.4,7.5-4.3,9.7
								s-4.3,11.2-5.8,12.3c-1.5,1.1-13.6,6.3-18.5,11c-5,4.7-17,20.9-21.5,22.6C75.3-76,90-93.9,91.9-95.4
								c1.9-1.5,11.6-10.8,16.6-12.5s5.2-6.9,7.5-11.2c2.4-4.3,5.8-13.4,5.8-18.3c0-5,1.7-10.5,1.7-10.5L128.8-154.3z"/>
							<path class="st1" d="M121.8-65.5c0-5,1.7-10.5,1.7-10.5l5.3-6.5l-1.6,3.1l-0.8,2.8l-1.2,2.1l-1.4,1.8l-1.6,6.9L121.8-65.5z"
								/>
							<path class="st1" d="M108.5-153.5l-1.3,7l-1.7,3.9l-1.9,3.9c0,0-3.4,2.4-4,3.3s-4.6,5.3-5.5,6c-0.9,0.6-6,3.4-6,3.4
								c3.5-2.2,7.1-7.1,7.1-7.1s1.5-5,4.1-6.3s5.6-6,5.6-6.9c0-0.9,0.3-6.1,0.3-6.1L108.5-153.5z"/>
							<path class="st1" d="M53.5-97.5c1.8-1.1,3.4-2.2,3.6-2.5c0.5-0.8,7.2-9.5,7.2-9.5l6.8-7.5l5.5-5.5l9.5-8.5l4.5-0.5l3-0.3
								l4.3-2.6l-5.3,1.1l-7.3-0.8l-3.3,5.8l-1.5,1.1l-9.8,7.4c0,0-1,1.1-2.3,2.5c-1.8,2-4,4.5-4.5,5c-0.7,0.8-6.7,8.5-10.2,11.5
								L53.5-97.5z"/>
							<path class="st1" d="M79.4-126l-0.7,4.4l0.2,2.5l-0.1,1l-0.5,3.5l-3.1,4.4l-2.5,6.4l-3.3,7.7l-4.2,6.9L61-84.6l-2.7,5.2
								l-2.6,3.9l-3.9,4.1c2.8-0.2,4.6-2.6,4.6-2.6l3.7-5.4L65-84l2.2-6.2l3.2-5.9l3-5.6l3.5-5.9l2.2-5.2l2-6.4l1.2-6.5l1.4-3.2
								L79.4-126z"/>
							<path class="st1" d="M52.9-93.2c1.2-0.2,2.4-0.7,3.1-2.2c1.5-3,5-6,5-6s10.2-3.8,13-1.8l-4.3,0.8c0,0-2.8,0.3-4.5,2
								c-1.7,1.8-3.7,4-5.5,5c-1.7,1-6,3.5-6.5,4.5L52.9-93.2z"/>
							<path class="st1" d="M99.9-138.8c0,0-2.8-0.5-5.8-1.3s-2.3-2-6-1.3c-3.8,0.8-7.3,1-8,1.8s-6.3,3.3-8.5,3.3
								c-1.3,0-2.5,1.5-4.7,3.1c-0.5,0.4-1.5,0.9-2.7,1.5c-2.6,1.3-11.3,3.9-12.1,4.8c0.7-0.2,7.2-1,8.3-1.5
								c2.9-1.2,6.4-3.6,8.2-4.5c2-1,4-1.6,5.7-1.2c3.8,1,8.5-6.8,13.8-5.3C93.4-137.8,97.7-138,99.9-138.8z"/>
							<path class="st1" d="M87.7-125.5l0.7-3.8l-0.8-6.3l2.2-2.6l2.8-1l0.3,3.3l-1.3,8.3l-0.3-4.8l0.2-3.3l-0.2-1.8l-2.7,2.5l0.6,5
								l0.1,3.2l1.8,4.3L93-120l2.3,2l2.1,1.8l1.8,5.8l2.3,2.8l1.3,4.3l5,9l-0.9,7.5l-0.5,2c-0.8-9.2-1.1-11.5-1.1-11.5
								S104.8-98,104-99s-1-2.8-2.5-3.5s-2-1.7-2.5-3.2s-1.5-5.2-1.5-5.2s-0.7-3.2-1.5-4.2s-1.8-3.2-1.8-3.2s-0.2,0.3-2.5-2"/>
							<path class="st1" d="M81.8-135.7c0.2-1.2,0.2-2.8,0.2-2.8l-2.2,1.5l-2,1.8l1.2,2.7l0.8,2.7l1.2,1l2.7,3.3l2.1,4.7l0.8,4.3
								c0,0,2.3,2.8,2.3,3.8s2.8,5,2.8,5l1.7,5.5c0,0,1.2,2,3.2,3.5c2,1.5,2.5,3.8,4.3,6s0.8,11,0.8,11s-1,3.2-0.8,4.5s-0.5,8,0.7,9
								c-1.7-0.8-1.8-5.2-1.8-6.7s1.2-5.8,1.2-7.3s0.3-4.3,0.3-4.3l-0.7-4l-2.2-3l-2.8-4.3c0,0-4.2-5.3-4.2-6.2s-1.5-5.5-1.5-5.5
								l-1.4-1.9l-0.9-1.2l-1.4-1.8l-1-4.8c0,0-1.7-5.8-2.7-6l-2.5-3l-1.7-2.7l-1.3-2.7l-1.2-1.2l-2.8-0.7l1.3,1.3l1.6,1.8l-0.3,2
								l2,1.3l-2.8-0.3v-2.5l-3-3.3l-1.3,0.2l2.3,4l0.2,1.5l1.2,1.7l1,3l2.2,4.1l1.6,3.4l2.8,1.8l2.3,1.2c0,0,0.5,1.3,1,1.3l2.2,1.2
								l1.3,3.3v4.2l1.2,4.7c0,0,3.7,3.8,4.3,4.5c0.7,0.7,2.2,2.7,2.2,3.8c0,1.2,0.3,5.7,0.3,5.7s-0.3,2.5-0.5,3.3
								c-0.1,1-0.1,4.5-0.1,4.5L94.5-74c0.5-2.3,0.8-5.3,0.8-5.3s0.2-5.3,0.2-6.2c0-0.4-0.1-2.3-0.3-4c-0.1-1.5-0.3-2.9-0.6-3.2
								c-0.5-0.7-3-4.2-4.2-5s-3-6.7-3-8.2s-1-5-2.3-5.3s-2-3.1-6.9-3.5l-1.2-4.7l-1.6-2.5L73-128l-1.3-2l-1-2.2l-1.3-1l-1.7,0.2
								v1.3l-0.2,3.3l-0.3,1.5l3.4,4.7l2.7,3.7l-0.2,1.8l1.5,3l2.5,0.7l2.7,2.5l1.8,2.5l2.2,4.7l1.3,3.5c0,0,2,2,2,4.3
								s2,1.5,2.8,2.7s3.3,2,3.3,2l0.3,2.5l-1,3.5c0,0-1.2,0.7-1.2,2.7S89.2-77,89.2-77s0.3,2.2,0.5,4s0.2,5.7,0.2,5.7
								c-1.7-1-1.2-6.5-1.2-6.5s-0.5-4.2,0.3-5s1.7-3.5,2.2-5.5s2.8-3.2,0.3-5s-6.2-5.7-6.5-8s-3-8.2-4.3-9.7s-1.8-4-3.3-4.3
								s-2.6-1.3-2.6-1.3l-2.5-3.2l-1.1-2.9L69-122l-2.8-2.8l0.2-4.5v-1.8l0.5-1.5l1.4-1.6l-1.9-6.9l3,5.8l5.8-1.7l5.5-2.8h5.7
								l-1.2,3.5l1.1,7.2l0.2,3.8L88-122c0,0,1.7,3.3,2.7,4s2.2,1,2.3,3c0.2,2,1.5,6.7,2,7s2,3,2,3c-1.7-0.2-2.5-1.2-2.7-1.8
								s-1.7-4.3-1.8-5.5c-0.2-1.2-1.3-3.8-2.5-4.5s-2.5-3.2-2.8-4s0-3.5-1.3-3.3l-0.3-4.2l-1.2-4.8l0.2-2.8l0.7-3.5l-1.8,0.3
								l-0.5,1.3v4.5L81.8-135.7z"/>
							<path class="st1" d="M107.9-114.8c0,0-2.6-3.8-2.8-4.3c-0.2-0.5-2.8-2.3-2.8-2.3s-1.6-2.3-2.3-2.8c-0.7-0.5-3.2-2-3.8-2.2
								c-0.7-0.2-3.2-2.5-3.2-2.5c0-1.3,4-5.2,4.8-5.7s1.8,0.1,2.9,0.2c1.2,0.1,3,1.5,4.3,1.8s6.3-0.7,8-0.7s4.4,2.3,5.8,4.8
								c1.3,2.5,2.3,6.4,3.6,7.3c1.3,0.8,3.7,4.5,3.5,6.5c-0.5-1.2-2.2-4.5-5.2-5.8c-1.5-0.7-1.5-2.2-2.3-3.3c-0.8-1.2-4.2-7-6-7
								s-4.3,0.5-5.2,0c-0.8-0.5-3.5-1.3-4.3-1.7c-0.8-0.3-2.5-0.8-4.3-1s-1.2,0.3-2,1.5c0.7,0.3,0.8,0.3,2.2,0.8
								c1.3,0.5,3.7,1.8,5.8,2c2.2,0.2,4.2,4.2,5,4.5s1.5,2.7,2.5,2.7s3.6,1.5,3.8,2.8c0.5,4.2,4.2,8.1,5.4,10.7
								c0.7,1.5,1,6.8,0.8,7.7c-0.2,0.8-1.8,4.3-3.3,6.2c0-0.5,2.2-6.3,2.2-7.8s-2.2-8.5-2.5-9.8s-3.7-3.7-4-4.3s-1.8-3.3-1.8-3.3
								l-3.5-3.4l-2.8-3.9l-3.5-1.2l-2.2-0.8c0,0-4.2-1.5-4.7-1.3s-1.5,1.3-1.5,1.3c0,1.7,3,1.5,4.8,2.3s2.3,3.6,4.1,4.6
								c1.8,1,2.9,3.1,3.4,3.9s1.7,2.3,1.9,3.1c0,0,0.8,3.1,0.9,4.9c0.2,1.8-0.2,2,0.8,4s5.8,4.2,5.8,6.5s-1,8.2-1,9.8
								s3.2,7.3,3.2,8.7s0,0,0,0c-2.7-1.8-1.7-2.2-2.2-3.8c-0.5-1.7-2.8-4-1.7-6.3c1.2-2.3,1.3-8.2,0.5-8.8c-0.8-0.7-4.2-4.3-5-5.3
								C109.3-106.7,107.5-114,107.9-114.8z"/>
							<path class="st1" d="M78.3-80.3l-5.5-5l2-6.3l0.3-3.7l1.9-6l4.5-5.2l2.5-4l3.7-4.8l1.3-3.2l4.2-5.3l2.7-2.5l2.7-3.8l2.8-2.8
								l3.3-2l2.7-3l2.2-2.3l-0.7,2l-2.3,3l-2.5,2l-3.5,3.2l-2.5,2.5l-1.8,4.1l-3.5,3.5l-4.3,5.8l-2.2,2.3l-1.8,4.3l-2.8,2.8
								l-1.8,5.5L77.3-93l-1.9,6.8l3.6,5.4l1.2-0.5l-0.2-2l0.2-5l0.5-3.5l2.7-4.7l5-4.2l4.7-2.7l1-1.5l-1.3,2.8l-2.5,0.8l-3.2,3
								l-2,1.7l-3,4l-0.7,5.3l-0.5,3.7l0.8,1.3C81.7-82.2,80.3-78.5,78.3-80.3z"/>
							<path class="st1" d="M57.7-140.3c0.2-0.7-0.3-1.2-0.1-1.9c0.2-0.6,1-0.8,1.2-1.3c0.3-0.9,0.1-2.2,0.1-2
								c0.2-1.2,0.6-2.6,0.9-3.2c0.3-0.7,1.2-2.2,1.2-2.2l2.7-1.8l-1.8,3.5c0,0-1,5.2-1,5.7s0.2,8.4,0.2,8.4l1.5,6.9l-0.6,5l2.6,3.1
								c0,0,1.7,5.8,1.7,6.3s2.7,4,2.7,4l3.8,4.5l2.3,3.3c0,0,0.3,2.7,0.7,5.3c0.3,2.7,1.2,3.8,2.3,6.2c1.2,2.3,6,6.5,6,6.5l1.5,4
								L85-73c-1-2.2-1-7.8-1-7.8s-2.2-4.2-3.2-4.8c-1-0.7-3-1.8-3.5-3.2c-0.5-1.3-2.2-6.5-2.2-6.5l-1-6.3c0,0-1.3-3.4-3.9-4.5
								c-2.5-1.2-3.2-2-4-4.5s-2.5-5.6-2.5-5.6l-2.6-6.9l0.4-3.9c0,0-2.5-8.5-2-11.5s0.7-7,0.7-7s-0.3,1.6-0.9,3.3
								c-0.2,0.6-0.4,1.3-0.7,1.8c-1,2.1-2.4,3.6-2.6,4C56-136.4,57.1-138.2,57.7-140.3z"/>
							<path class="st1" d="M49.3-140.6l5.1,1.4c0.1,0.2,1.5,1.2,2.1,3.1c0.4,1.5,1.2,2.4,1.6,3.9c0.1,0.5,0.9,0.7,1,1.2
								c0.5,1.7,0.1,3.8,0.1,3.8l2.3,9.5c0,0,0.3,1.2,0.6,2.6c0.3,1.6,0.6,3.4,0.4,4.4c-0.5,1.8-0.5,4.8,0.3,6.9c0.8,2,4,6.2,4,6.2
								l4.7,5.8c0,0,0.6,4.3,0.6,6.3s4.3,6.2,3.7,9.7c-0.7,3.5-1,2.9-0.8,4.2s0.7,3.7,0,4.5c-1.2-3.7-0.7-9-0.7-9s-3.8-7-3.6-9.5
								c0.2-2.5,0.3-4.8-1.5-6.5s-4.5-7.7-6-9s-2-3.3-2-7s0.5-4,0-5.8s-0.1-5.3-1.7-8.2c-0.7-1.2-1.5-4.4-2-6.5
								c-0.1-0.6-0.3-2-0.4-2.4c-0.1-0.6-1.1-2.5-2.3-4.6c-0.5-0.9-2-1.9-2-2.4L49.3-140.6z"/>
							<path class="st1" d="M71.6-163.8c0,0,0.6,4.3,0.6,6.3s4.3,6.2,3.7,9.7c-0.7,3.5-1,2.9-0.8,4.2s0.7,3.7,0,4.5
								c-1.2-3.7-0.7-9-0.7-9s-3.8-7-3.6-9.5L71.6-163.8z"/>
							<path class="st1" d="M131.1-122.3c-0.8-1.5-2-6.3-2.3-7.9c-0.1-0.6-1.2-3.5-2.3-5.5c-0.5-0.9-2-1.9-2-2.4l-3.6-2.5l5.1,1.4
								c0.1,0.2,1.5,1.2,2.1,3.1c1.1,3.7,2.7,8.9,2.7,8.9L131.1-122.3z"/>
							<path class="st1" d="M58.6-76.2c0.3-0.7,2.5-2.7,2.5-2.7l2.7-1.8L62-77.2L58.6-76.2z"/>
							<path class="st1" d="M101.3-141.5l3,0.8l1.7,1.2c0,0,1.3,0.8,4,1.5s3.7,0.7,4.7,1.2s7.8,3.1,8.3,4.1c0-1.8-6.3-6.1-7.3-6.3
								c-1-0.2-4.8,1-6.2,0c-1.3-1-2.5-0.7-4.5-2.5c0.8-0.5,4,0,6,0.3c2,0.3,2.3,0.8,3.8,0.3s3.2-1.3,4.2-1.3s2.8-0.2,4,0.5
								c-0.7-1.7-6.7-1-7.2-0.7c-0.5,0.3-3.5,0.5-4.7,0s-3.5-0.3-4.8-0.8S102.5-142.5,101.3-141.5z"/>
							<path class="st1" d="M129.5-104.3c-1.3,1.4-2.5,2.7-3.5,3.6c-1.8,1.5-3.4,3.2-8,6.3c-4.3,2.9-9.9,7-10.8,7.8
								c-1.8,1.5-11.5,1.3-11.5,1.3l-11,6.2c0,0,9-3.6,10-3.6s10-0.8,10-0.8l7.5-4.8l8.5-6c0,0,8-4.8,8.5-5.5L129.5-104.3z"/>
							<path class="st1" d="M129.3-93.9c-1.8,1.1-3.7,2.4-4,3c-0.5,1-6.5-1.5-9.5-1.8c4-1.5,4.5-0.3,6-0.5s4.7,0.8,6.2-2.3
								c0.3-0.5,0.6-1,0.9-1.5L129.3-93.9z"/>
							<path class="st1" d="M109.9-65.1c0.2-2.1-3.3-3,5.2-13.3c0.2-0.2,0.4-0.5,0.6-0.7l6.2-7.7l-4.1,8.5l-1.7,1.5l-1.9,2.2
								c0,0-1.1,0.8-1.6,9.9L109.9-65.1z"/>
							<path class="st1" d="M99.2-67.4c2.6-1.3,5.6-6,5.6-6.9c0-0.5,0.1-2.8,0.2-4.4c0.1-1,0.1-1.7,0.1-1.7l6.2-16.3l-3.4,18.2
								l-0.7,4l-1.7,3.9L99.2-67.4z"/>
							<path class="st1" d="M58.2-151.6l-2.6,3.9l-3.9,4.1c2.8-0.2,4.6-2.6,4.6-2.6l3.7-5.4H58.2z"/>
							<path class="st1" d="M92.7-156.8c0,0-1.2,0.7-1.2,2.7s-2.3,5.2-2.3,5.2s0.3,2.2,0.5,4s0.2,5.7,0.2,5.7
								c-1.7-1-1.2-6.5-1.2-6.5s-0.5-4.2,0.3-5s1.7-3.5,2.2-5.5L92.7-156.8z"/>
							<path class="st1" d="M96.7-157.5c0,0-0.3,2.5-0.5,3.3s-0.2,4.3-0.2,4.3l-0.2,4.2l-1.3,3.2L92-140l-0.3-0.5
								c0.2-1,2.5-4.7,2.9-6.3c0.5-2.1,0.8-4.6,0.8-4.6s0.2-5.3,0.2-6.2h1.1V-157.5z"/>
							<path class="st1" d="M101.8-153.7c0,0-1,3.2-0.8,4.5c0.2,1.3-0.2,8.3,1,9.3c-1.7-0.8-2.2-5.4-2.2-6.9s1.2-5.8,1.2-7.3
								L101.8-153.7z"/>
							<path class="st1" d="M85.6-152l-0.1,12.6c-1-2.2-1.5-13.5-1.5-13.5L85.6-152z"/>
							<path class="st1" d="M107.5-104.7l3,4.7l2,3.5l-0.2,4.2l-0.7,2.7l-0.8,0.7l2.2,2.5l1.5,3.3l1.9,3.9l-0.7,0.1l-3.6-4.1
								l-1.3-4.6l-0.7-1.3l1.5-1.8l-0.4-5.7l-1.9-4.2l-2.8-3.8l-1.3-4.2c0,0-1.2-4-1.3-4.5s-1.5-1.8-1.5-1.8
								c2.3,0.3,2.2,1.7,2.2,1.7l2,4.5L107.5-104.7z"/>
							<polygon class="st1" points="112.9,-125.8 116.2,-129.5 113.8,-124.5 111.4,-117.8 110.4,-116.5 106.7,-115 105.1,-110.7 
								104.4,-112 105.4,-115.5 110.8,-119.7 							"/>
							<path class="st1" d="M109.7-100.3l-5.8,3.6l-1.5,1.3l-1.3,2.7l-0.7,0.9l-1,1.3L97.5-90L96-89.8l2.5,0.3c1,0,2-1,2.7-1.7
								s1.7-3.3,2.3-3.8C104.2-95.5,109.7-97.8,109.7-100.3z"/>
							<path class="st1" d="M120.5-109l-0.8,2.3l-1.2,1.3l-1.3,2l-1,1.7l-0.7,0.8l-1,1.2l-1.8,1.5c0.8,0.7,2.2-0.8,2.2-0.8l1-1.2
								l2-2.2l1.5-2.5l1.5-1.7l1.5-3.8l1.2-4.5l1.2-3.7l-1.3,1.8l-1,1.3l-0.8,3.3L120.5-109z"/>
							<path class="st1" d="M69.5-136.1c1.1-0.4,1.9-2.2,1.9-2.2l4.8-3.9c0,0,3.4-1.6,4.5-1.5l0.1,1.2l-0.3,4.3l1.2-4.1l-0.2-1.7
								c0,0,1.7-0.6,2.2-0.9c0.4-0.3,3-1.2,3.4-1.3c0.5-0.1,0.5,1.3,0.5,1.3l1.6,1l-0.9-1.5l-0.1-1l2.1-0.7l2.8-0.7l2.3,1.8
								c0,0,0.1-0.2,2-0.1s3.3,0.8,3.3,0.8l0.6-1.2l0.7-1.2c0,0-1.1,1-2.4,0.6c-1.3-0.4-3.3-0.2-3.3-0.2l-2.5-1.3
								c0,0-0.9-0.1-2.4,0.1c-1.5,0.2-3,0.5-3,0.5s-1.3,1-1.8,1.1s-1.9,0.6-3.1,0.7s-2.8,0.5-3.2,0.8c-0.4,0.3-4.3,2.1-4.3,2.1
								l-3.7,1.9l-2.9,2.1l-3.1,1.4l-1.9,2.9l-1.8,2.8l-5.1,4.2c0,0,3.5-1.2,4.9-2.8c1.2-1.4,2.4-2.8,2.6-3L69.5-136.1z"/>
							<path class="st1" d="M132.6-130.1c-3.5,1.3-7.8,2.7-8.4,3.3c0.7-0.2,7.2-1,8.3-1.5L132.6-130.1z"/>
							<path class="st1" d="M131.5-135.7l-6.3,3.5c0,0,4.1-1,5.8-2.2L131.5-135.7z"/>
							<path class="st1" d="M98.1-168.3l-2.7,1.6c0,0-1.2,1.4-1.5,1.8c-0.3,0.4-0.8,1.5-1,2s-2.6,3.9-2.6,3.9s-2.6,1.7-3.5,2.4
								s-2.7,2.1-2.7,2.1l-1.6,2.4l-1.7,3.2l4.5-0.4l2.9,0.1l-6.6,1.3l-1.6,0.4l-2,0.9l-2.9,1.6l-1.7,1.8l0.1,6.1l3.7,1l-2,0.2
								l-2-0.3l-1.8-5.8l-4.9-2.5v-0.9l-0.8-1.3l-0.2-1.2l-0.2-3l2.4,5.8c0,0,3.7,1.1,4.1,0.8c0.3-0.4,7.8-4.5,7.8-4.5l2.3-3.8
								l2.4-3.5l0.8-0.4l2.4-2.3l1.6-0.5l1-1.3l1.2-3.4l2.4-2.1C93.7-166,97-169.8,98.1-168.3z"/>
							<path class="st1" d="M43.7-122.3l4.8,1.5l4.8,1.3l7.2,0.3l3.3-1.7l2.8-1.3c0,0,1.8-2,3-3s2.8-2.7,2.8-2.7l1.7,0.2l-1-1.2
								h-1.7l-1.8,2L68-125c0,0-2,1.2-2.3,1.7s-2.5,1.7-2.5,1.7l-3.8,2l-4.3-0.7l-3.5-1l3.2-0.7l3.7-0.5l3.8-1.5l2.3-2l3.2-3.5
								l-1.7,1l-3.7,2.5l-3.7,1.8l-4.5,1.2l-3.2,0.7l-3.7-0.2l-3-0.8l-2.5-1.2L43.7-122.3z"/>
							<path class="st1" d="M51.2-112.5l2.8,1.2l0.8-0.7l3.7-1l3.3-3.2l4-1.2l-2.5-0.7l-3,1.5L58-114l-3.3,0.5
								C54.7-113.5,52.3-111.8,51.2-112.5z"/>
							<polygon class="st1" points="134.3,-126 130.7,-124.2 126.2,-123 123,-122.3 119.3,-122.5 116.3,-123.3 113.9,-125.3 
								115.7,-122.3 120.5,-120.8 125.3,-119.5 132.5,-119.2 135.8,-120.8 135.2,-121.7 131.3,-119.7 127,-120.3 123.5,-121.3 
								126.7,-122 130.3,-122.5 134.2,-124 							"/>
							<path class="st1" d="M130-114l-3.3,0.5c0,0-2.3,1.7-3.5,1l2.8,1.2l0.8-0.7l3.7-1L130-114z"/>
							<polygon class="st1" points="62.8,-79.7 66.5,-84.3 68.9,-88.5 70.9,-91.5 72.9,-95.8 75.2,-99.3 73.4,-95 72.9,-91.8 
								71.4,-90.8 70.2,-89.3 68.7,-83.3 66.9,-82.4 65,-80.7 							"/>
							<path class="st1" d="M130.2-151.6l-2.6,3.9l-3.9,4.1c2.8-0.2,4.6-2.6,4.6-2.6l3.7-5.4H130.2z"/>
						</g>
						<polygon class="st1" points="118.7,-93.5 118.7,-90.8 120.9,-88 122.7,-86.8 124.2,-86.5 125.2,-85.2 126.7,-83.8 124.7,-84 
							123.2,-85.8 120.9,-87 118.7,-87.8 117.9,-89.3 						"/>
						<polygon class="st1" points="124.4,-97.8 125.4,-101.5 125.4,-105 124.9,-108.8 122.4,-113.3 124.4,-112.5 125.4,-111.3 
							125.7,-109 126.4,-107 126.9,-104.8 126.2,-102.3 126.2,-99.8 						"/>
						<polygon class="st1" points="122.5,-121 125,-125 125.3,-128.3 126,-133 125.7,-139.8 120.5,-145.4 118.3,-147 120.8,-143.3 
							124.5,-140.5 124.8,-137.8 124,-132 124.3,-126 121,-122.3 						"/>
						<polygon class="st1" points="47.7,-81 53.8,-81.8 56,-84.7 59.2,-87.8 61.2,-89.2 61.7,-92.5 65.5,-95.2 67.4,-97.2 
							64.5,-96.2 60.8,-93.8 58.8,-89.8 57.2,-93.5 57.5,-89.5 54.5,-86.2 52.9,-83 						"/>
						<polygon class="st1" points="130.8,-89.8 129.2,-93.5 129.5,-89.5 126.5,-86.2 124.9,-83 119.7,-81 125.8,-81.8 128,-84.7 
							131.2,-87.8 						"/>
						<path class="st1" d="M53.2-134.4c0,0,3.8,0.6,4.4,0.5c0.7-0.1,3.1-0.8,3.1-0.8l3.3-2.8l2.3-3l5.6-2.6h-2.8l-3,1.1l-3.6,2.4
							l-1.4,2.6l-2.2,0.8L53.2-134.4z"/>
						<path class="st1" d="M98.1-96.3l-2.7,1.6c0,0-1.2,1.4-1.5,1.8c-0.3,0.4-0.8,1.5-1,2S90.3-87,90.3-87s-2.6,1.7-3.5,2.4
							s-2.7,2.1-2.7,2.1l-1.6,2.4l-1.7,3.2l4.5-0.4l2.9,0.1l-6.6,1.3L80-75.5l-2,0.9l-3,1.7l-1.7,1.8l1.8,4l3.7,1l-2,0.2l-2-0.3
							l-3.5-3.7l-4.9-2.5l-0.9-1.5L64-74.7l-0.5-0.7l1.9,0.6l2.2,1.9c0,0,3.7,1.1,4.1,0.8c0.3-0.4,7.8-4.5,7.8-4.5l2.3-3.8l2.4-3.5
							l0.8-0.4l2.4-2.3l1.6-0.5l1-1.3l1.2-3.4l2.4-2.1C93.7-94,97-97.8,98.1-96.3z"/>
						<path class="st1" d="M122.7-147.8l-3.5,1l-9-0.3l-4.3-1.3l2.8-0.5l2.3-0.3c0,0,2,1.5,2.8,1s4.5,0,4.5,0l2.5-0.3l1.8-1.8h-2.8
							h-3.5l3.3-1h5.5L122.7-147.8z"/>
					</g>
					<path class="st1" d="M58.8-104.6l0.3-2.8l0.3-3.3l-0.9-1.9l-0.5-1.3l-0.4-2.1l-1.9-2.7l0.5,1.7l0.9,1.8l-1.1,2.5l1.4,1.6l0.7,2
						c0,0-0.2,2.2-0.1,2.4c0.1,0.2,0,2.3,0,2.3L58.8-104.6z"/>
					<path class="st1" d="M105.2-150.4l-2.2,0.9l-1.3,1.5l-1.1,1.1l-2.1,1.9c0,0-1.3-0.2-1.7-0.1c-0.3,0.1-3.1,0.9-3.1,0.9l2.8-0.3
						l1.8,0.4l1.4-0.7l1.8-1l0.8-1.8l1.6-1.8L105.2-150.4z"/>
					<polygon class="st1" points="79.4,-159.4 76.4,-156.6 75.8,-154 73.4,-151.4 71.5,-150.3 69.4,-149.8 66.2,-148.3 64.5,-147.8 
						63.5,-147.4 62.6,-144.2 61.2,-142.8 59.7,-139.3 60.5,-138.2 60.3,-139.4 61.5,-141.5 63.3,-143.3 66,-146.3 68.2,-148.2 
						71.2,-148.9 73.3,-150.5 76.2,-153.1 77.7,-156.7 					"/>
					<path class="st1" d="M71.7-144.3l2.5-2.4v-2c0,0,0.8-1,1.5-1.3c0.7-0.3,2.5-2.3,2.5-2.3l1.8-2.3l-0.8,2.3L77-150l-1.8,1.3v2.8
						L71.7-144.3z"/>
					<polygon class="st1" points="79.4,-87.4 76.4,-84.6 75.8,-82 73.4,-79.4 71.5,-78.3 69.4,-77.8 66.2,-76.3 64.5,-75.8 
						63.5,-75.4 62.6,-72.2 61.2,-70.8 59.7,-67.3 60.5,-66.2 60.3,-67.4 61.5,-69.5 63.3,-71.3 66,-74.3 68.2,-76.2 71.2,-76.9 
						73.3,-78.5 76.2,-81.1 77.7,-84.7 					"/>
					<path class="st1" d="M71.7-72.3l2.5-2.4v-2c0,0,0.8-1,1.5-1.3s2.5-2.3,2.5-2.3l1.8-2.3l-0.8,2.3L77-78l-1.8,1.3v2.8L71.7-72.3z
						"/>
				</g>
				<g>
					<g>
						<g>
							<path class="st2" d="M50.4-113.3l-12-3.3l-3.5,7.1l-7.3,3.5l-8.6-2l-6.3-3.1L8.3-115l-3.5-15.8l8.7-8.6l3.5-11.5l-12.1-18
								l6.5,1.5L29.8-148c0,0-3.8,11.5-3.8,13.6c0,2.1,2.2,2.8,4.5,4.1c0.5,0.3,4.3-4.8,5-6c2.3-3.5,2.6-6.2,5.5-6.8
								c1.3-0.3,7.3,1.3,7,5c0,0,0,8.3,2,10.8c0.9,1.2,1.9,2.5,2.5,4c2,4.5,10,10.5,10,10.5l0.5,6L50.4-113.3z"/>
							<polygon class="st2" points="60.9,-91.8 52.9,-98.8 46.5,-105.3 40.1,-105.6 30.7,-103.5 26.4,-97.8 29.4,-88.8 39.9,-86.8 
								48.9,-76.8 59.4,-73.3 							"/>
							<polygon class="st2" points="60.9,-163.8 39.9,-158.8 48.9,-148.8 59.4,-145.3 							"/>
							<path class="st1" d="M56.8-154.3l-1.6,3.1l-0.8,2.8l-1.2,2.1l-1.4,1.8l-1.6,6.9c0,0,1.7,7.1,0,9.9c-1.7,2.8-3.4,7.5-4.3,9.7
								c-0.9,2.2-4.3,11.2-5.8,12.3c-1.5,1.1-13.6,6.3-18.5,11C16.6-89.9,4.5-73.7,0-72c3.2-3.9,17.9-21.8,19.8-23.3
								s11.6-10.8,16.6-12.5s5.2-6.9,7.5-11.2c2.4-4.3,5.8-13.4,5.8-18.3c0-5,1.7-10.5,1.7-10.5L56.8-154.3z"/>
							<path class="st1" d="M49.8-65.5c0-5,1.7-10.5,1.7-10.5l5.3-6.5l-1.6,3.1l-0.8,2.8l-1.2,2.1l-1.4,1.8l-1.6,6.9L49.8-65.5z"/>
							<path class="st1" d="M59.1-122.3c-0.8-1.5-2-6.3-2.3-7.9c-0.1-0.6-1.2-3.5-2.3-5.5c-0.5-0.9-2-1.9-2-2.4l-3.6-2.5l5.1,1.4
								c0.1,0.2,1.5,1.2,2.1,3.1c1.1,3.7,2.7,8.9,2.7,8.9L59.1-122.3z"/>
							<path class="st1" d="M57.5-104.3c-1.3,1.4-2.5,2.7-3.5,3.6c-1.8,1.5-3.4,3.2-8,6.3c-4.3,2.9-9.9,7-10.8,7.8
								c-1.8,1.5-11.5,1.3-11.5,1.3l-11,6.2c0,0,9-3.6,10-3.6s10-0.8,10-0.8l7.5-4.8l8.5-6c0,0,8-4.8,8.5-5.5L57.5-104.3z"/>
							<path class="st1" d="M57.3-93.9c-1.8,1.1-3.7,2.4-4,3c-0.5,1-6.5-1.5-9.5-1.8c4-1.5,4.5-0.3,6-0.5s4.7,0.8,6.2-2.3
								c0.3-0.5,0.6-1,0.9-1.5L57.3-93.9z"/>
							<path class="st1" d="M60.6-130.1c-3.5,1.3-7.8,2.7-8.4,3.3c0.7-0.2,7.2-1,8.3-1.5L60.6-130.1z"/>
							<path class="st1" d="M59.5-135.7l-6.3,3.5c0,0,4.1-1,5.8-2.2L59.5-135.7z"/>
							<polygon class="st1" points="62.3,-126 58.7,-124.2 54.2,-123 51,-122.3 47.3,-122.5 44.3,-123.3 41.9,-125.3 43.7,-122.3 
								48.5,-120.8 53.3,-119.5 60.5,-119.2 63.8,-120.8 63.2,-121.7 59.3,-119.7 55,-120.3 51.5,-121.3 54.7,-122 58.3,-122.5 
								62.2,-124 							"/>
							<path class="st1" d="M58-114l-3.3,0.5c0,0-2.3,1.7-3.5,1l2.8,1.2l0.8-0.7l3.7-1L58-114z"/>
							<path class="st1" d="M58.2-151.6l-2.6,3.9l-3.9,4.1c2.8-0.2,4.6-2.6,4.6-2.6l3.7-5.4H58.2z"/>
						</g>
						<polygon class="st1" points="58.8,-89.8 57.2,-93.5 57.5,-89.5 54.5,-86.2 52.9,-83 47.7,-81 53.8,-81.8 56,-84.7 59.2,-87.8 
													"/>
					</g>
				</g>
				<g>
					<g>
						<g>
							<polygon class="st2" points="125.1,-150.5 132.6,-144.5 145.4,-154.8 140.4,-164.3 132.9,-163.8 124.9,-170.8 							"/>
							<path class="st1" d="M151.4-198l-0.7,4.4l0.2,2.5l-0.1,1l-0.5,3.5l-3.1,4.4l-2.5,6.4l-3.3,7.7l-4.2,6.9l-4.2,4.6l-2.7,5.2
								l-2.6,3.9l-3.9,4.1c2.8-0.2,4.6-2.6,4.6-2.6l3.7-5.4l4.9-4.6l2.2-6.2l3.2-5.9l3-5.6l3.5-5.9l2.2-5.2l2-6.4l1.2-6.5l1.4-3.2
								L151.4-198z"/>
							<path class="st1" d="M121.3-212.6l5.1,1.4c0.1,0.2,1.5,1.2,2.1,3.1c0.4,1.5,1.2,2.4,1.6,3.9c0.1,0.5,0.9,0.7,1,1.2
								c0.5,1.7,0.1,3.8,0.1,3.8l2.3,9.5c0,0,0.3,1.2,0.6,2.6c0.3,1.6,0.6,3.4,0.4,4.4c-0.5,1.8-0.5,4.8,0.3,6.9c0.8,2,4,6.2,4,6.2
								l4.7,5.8c0,0,0.6,4.3,0.6,6.3s4.3,6.2,3.7,9.7c-0.7,3.5-1,2.9-0.8,4.2s0.7,3.7,0,4.5c-1.2-3.7-0.7-9-0.7-9s-3.8-7-3.6-9.5
								s0.3-4.8-1.5-6.5s-4.5-7.7-6-9s-2-3.3-2-7s0.5-4,0-5.8s-0.1-5.3-1.7-8.2c-0.7-1.2-1.5-4.4-2-6.5c-0.1-0.6-0.3-2-0.4-2.4
								c-0.1-0.6-1.1-2.5-2.3-4.6c-0.5-0.9-2-1.9-2-2.4L121.3-212.6z"/>
						</g>
					</g>
				</g>
				<g>
					<g>
						<g>
							<polygon class="st2" points="132.9,-163.8 124.9,-170.8 118.5,-177.3 112.1,-177.6 102.7,-175.5 98.4,-169.8 101.4,-160.8 
								111.9,-158.8 120.9,-148.8 131.4,-145.3 							"/>
							<polygon class="st2" points="53.1,-150.5 60.6,-144.5 73.4,-154.8 68.4,-164.3 60.9,-163.8 52.9,-170.8 							"/>
							<path class="st2" d="M91.6-143.4l3-3.5l0.6-4l-4.1-5.4l4.8-5.5l-1.6-8.2l-5.5-7.8l-9-2.5l-8-6l-1-12.5l-5.5,18.5
								c0,0,2.5,9.5,5,11s9,9.9,9,9.9l-9.5,8.1l3,10l8.5-5l5-4L91.6-143.4z"/>
							<path class="st1" d="M128.8-226.3l-1.6,3.1l-0.8,2.8l-1.2,2.1l-1.4,1.8l-1.6,6.9c0,0,1.7,7.1,0,9.9c-1.7,2.8-3.4,7.5-4.3,9.7
								c-0.9,2.2-4.3,11.2-5.8,12.3c-1.5,1.1-13.6,6.3-18.5,11c-5,4.7-17,20.9-21.5,22.6c3.2-3.9,17.9-21.8,19.8-23.3
								s11.6-10.8,16.6-12.5s5.2-6.9,7.5-11.2c2.4-4.3,5.8-13.4,5.8-18.3c0-5,1.7-10.5,1.7-10.5L128.8-226.3z"/>
							<path class="st1" d="M121.8-137.5c0-5,1.7-10.5,1.7-10.5l5.3-6.5l-1.6,3.1l-0.8,2.8l-1.2,2.1l-1.4,1.8l-1.6,6.9L121.8-137.5z
								"/>
							<path class="st1" d="M79.4-198l-0.7,4.4l0.2,2.5l-0.1,1l-0.5,3.5l-3.1,4.4l-2.5,6.4l-3.3,7.7l-4.2,6.9l-4.2,4.6l-2.7,5.2
								l-2.6,3.9l-3.9,4.1c2.8-0.2,4.6-2.6,4.6-2.6l3.7-5.4L65-156l2.2-6.2l3.2-5.9l3-5.6l3.5-5.9l2.2-5.2l2-6.4l1.2-6.5l1.4-3.2
								L79.4-198z"/>
							<path class="st1" d="M81.8-207.7c0.2-1.2,0.2-2.8,0.2-2.8l-2.2,1.5l-2,1.8l1.2,2.7l0.8,2.7l1.2,1l2.7,3.3l2.1,4.7l0.8,4.3
								c0,0,2.3,2.8,2.3,3.8s2.8,5,2.8,5l1.7,5.5c0,0,1.2,2,3.2,3.5s2.5,3.8,4.3,6c1.8,2.2,0.8,11,0.8,11s-1,3.2-0.8,4.5
								c0.2,1.3-0.5,8,0.7,9c-1.7-0.8-1.8-5.2-1.8-6.7s1.2-5.8,1.2-7.3s0.3-4.3,0.3-4.3l-0.7-4l-2.2-3l-2.8-4.3c0,0-4.2-5.3-4.2-6.2
								c0-0.9-1.5-5.5-1.5-5.5l-1.4-1.9l-0.9-1.2l-1.4-1.8l-1-4.8c0,0-1.7-5.8-2.7-6l-2.5-3l-1.7-2.7l-1.3-2.7l-1.2-1.2l-2.8-0.7
								l1.3,1.3l1.6,1.8l-0.3,2l2,1.3l-2.8-0.3v-2.5l-3-3.3l-1.3,0.2l2.3,4l0.2,1.5l1.2,1.7l1,3l2.2,4.1l1.6,3.4l2.8,1.8l2.3,1.2
								c0,0,0.5,1.3,1,1.3l2.2,1.2l1.3,3.3v4.2l1.2,4.7c0,0,3.7,3.8,4.3,4.5c0.7,0.7,2.2,2.7,2.2,3.8c0,1.2,0.3,5.7,0.3,5.7
								s-0.3,2.5-0.5,3.3s-0.2,4.3-0.2,4.3l-1.5,3.8c0.5-2.3,0.8-5.3,0.8-5.3s0.2-5.3,0.2-6.2c0-0.4-0.1-2.3-0.3-4
								c-0.1-1.5-0.3-2.9-0.6-3.2c-0.5-0.7-3-4.2-4.2-5c-1.2-0.8-3-6.7-3-8.2s-1-5-2.3-5.3c-1.3-0.3-2-3.1-6.9-3.5l-1.2-4.7
								l-1.6-2.5L73-200l-1.3-2l-1-2.2l-1.3-1l-1.7,0.2v1.3l-0.2,3.3l-0.3,1.5l3.4,4.7l2.7,3.7l-0.2,1.8l1.5,3l2.5,0.7l2.7,2.5
								l1.8,2.5l2.2,4.7l1.3,3.5c0,0,2,2,2,4.3c0,2.3,2,1.5,2.8,2.7s3.3,2,3.3,2l0.3,2.5l-1,3.5c0,0-1.2,0.7-1.2,2.7
								s-2.3,5.2-2.3,5.2s0.3,2.2,0.5,4c0.2,1.8,0.2,5.7,0.2,5.7c-1.7-1-1.2-6.5-1.2-6.5s-0.5-4.2,0.3-5c0.8-0.8,1.7-3.5,2.2-5.5
								s2.8-3.2,0.3-5c-2.5-1.8-6.2-5.7-6.5-8c-0.3-2.3-3-8.2-4.3-9.7s-1.8-4-3.3-4.3c-1.5-0.3-2.6-1.3-2.6-1.3l-2.5-3.2l-1.1-2.9
								l-2-3.4l-2.8-2.8l0.2-4.5v-1.8l0.5-1.5l1.4-1.6l-1.9-6.9l3,5.8l5.8-1.7l5.5-2.8h5.7l-1.2,3.5l1.1,7.2l0.2,3.8L88-194
								c0,0,1.7,3.3,2.7,4c1,0.7,2.2,1,2.3,3c0.2,2,1.5,6.7,2,7c0.5,0.3,2,3,2,3c-1.7-0.2-2.5-1.2-2.7-1.8s-1.7-4.3-1.8-5.5
								c-0.2-1.2-1.3-3.8-2.5-4.5s-2.5-3.2-2.8-4s0-3.5-1.3-3.3l-0.3-4.2l-1.2-4.8l0.2-2.8l0.7-3.5l-1.8,0.3l-0.5,1.3v4.5
								L81.8-207.7z"/>
							<path class="st1" d="M57.7-212.3c0.2-0.7-0.3-1.2-0.1-1.9c0.2-0.6,1-0.8,1.2-1.3c0.3-0.9,0.1-2.2,0.1-2
								c0.2-1.2,0.6-2.6,0.9-3.2c0.3-0.7,1.2-2.2,1.2-2.2l2.7-1.8l-1.8,3.5c0,0-1,5.2-1,5.7s0.2,8.4,0.2,8.4l1.5,6.9l-0.6,5l2.6,3.1
								c0,0,1.7,5.8,1.7,6.3s2.7,4,2.7,4l3.8,4.5l2.3,3.3c0,0,0.3,2.7,0.7,5.3c0.3,2.7,1.2,3.8,2.3,6.2c1.2,2.3,6,6.5,6,6.5l1.5,4
								l-0.7,7c-1-2.2-1-7.8-1-7.8s-2.2-4.2-3.2-4.8c-1-0.7-3-1.8-3.5-3.2c-0.5-1.3-2.2-6.5-2.2-6.5l-1-6.3c0,0-1.3-3.4-3.9-4.5
								c-2.5-1.2-3.2-2-4-4.5s-2.5-5.6-2.5-5.6l-2.6-6.9l0.4-3.9c0,0-2.5-8.5-2-11.5s0.7-7,0.7-7s-0.3,1.6-0.9,3.3
								c-0.2,0.6-0.4,1.3-0.7,1.8c-1,2.1-2.4,3.6-2.6,4C56-208.4,57.1-210.2,57.7-212.3z"/>
							<path class="st1" d="M49.3-212.6l5.1,1.4c0.1,0.2,1.5,1.2,2.1,3.1c0.4,1.5,1.2,2.4,1.6,3.9c0.1,0.5,0.9,0.7,1,1.2
								c0.5,1.7,0.1,3.8,0.1,3.8l2.3,9.5c0,0,0.3,1.2,0.6,2.6c0.3,1.6,0.6,3.4,0.4,4.4c-0.5,1.8-0.5,4.8,0.3,6.9c0.8,2,4,6.2,4,6.2
								l4.7,5.8c0,0,0.6,4.3,0.6,6.3s4.3,6.2,3.7,9.7c-0.7,3.5-1,2.9-0.8,4.2s0.7,3.7,0,4.5c-1.2-3.7-0.7-9-0.7-9s-3.8-7-3.6-9.5
								c0.2-2.5,0.3-4.8-1.5-6.5s-4.5-7.7-6-9s-2-3.3-2-7s0.5-4,0-5.8s-0.1-5.3-1.7-8.2c-0.7-1.2-1.5-4.4-2-6.5
								c-0.1-0.6-0.3-2-0.4-2.4c-0.1-0.6-1.1-2.5-2.3-4.6c-0.5-0.9-2-1.9-2-2.4L49.3-212.6z"/>
							<path class="st1" d="M58.6-148.2c0.3-0.7,2.5-2.7,2.5-2.7l2.7-1.8l-1.8,3.5L58.6-148.2z"/>
							<path class="st1" d="M109.9-137.1c0.2-2.1-3.3-3,5.2-13.3c0.2-0.2,0.4-0.5,0.6-0.7l6.2-7.7l-4.1,8.5l-1.7,1.5l-1.9,2.2
								c0,0-1.1,0.8-1.6,9.9L109.9-137.1z"/>
							<path class="st1" d="M99.2-139.4c2.6-1.3,5.6-6,5.6-6.9c0-0.5,0.1-2.8,0.2-4.4c0.1-1,0.1-1.7,0.1-1.7l6.2-16.3l-3.4,18.2
								l-0.7,4l-1.7,3.9L99.2-139.4z"/>
							<path class="st1" d="M107.5-176.7l3,4.7l2,3.5l-0.2,4.2l-0.7,2.7l-0.8,0.7l2.2,2.5l1.5,3.3l1.9,3.9l-0.7,0.1l-3.6-4.1
								l-1.3-4.6l-0.7-1.3l1.5-1.8l-0.4-5.7l-1.9-4.2l-2.8-3.8l-1.3-4.2c0,0-1.2-4-1.3-4.5s-1.5-1.8-1.5-1.8
								c2.3,0.3,2.2,1.7,2.2,1.7l2,4.5L107.5-176.7z"/>
						</g>
						<path class="st1" d="M98.1-168.3l-2.7,1.6c0,0-1.2,1.4-1.5,1.8c-0.3,0.4-0.8,1.5-1,2s-2.6,3.9-2.6,3.9s-2.6,1.7-3.5,2.4
							s-2.7,2.1-2.7,2.1l-1.6,2.4l-1.7,3.2l4.5-0.4l2.9,0.1l-6.6,1.3l-1.6,0.4l-2,0.9l-2.9,1.6l-1.7,1.8l1.8,4l3.7,1l-2,0.2l-2-0.3
							l-3.5-3.7l-4.9-2.5l-0.9-1.5l-1.3-0.8l-0.5-0.7l1.9,0.6l2.2,1.9c0,0,3.7,1.1,4.1,0.8c0.3-0.4,7.8-4.5,7.8-4.5l2.3-3.8l2.4-3.5
							l0.8-0.4l2.4-2.3l1.6-0.5l1-1.3l1.2-3.4l2.4-2.1C93.7-166,97-169.8,98.1-168.3z"/>
					</g>
					<polygon class="st1" points="79.4,-159.4 76.4,-156.6 75.8,-154 73.4,-151.4 71.5,-150.3 69.4,-149.8 66.2,-148.3 64.5,-147.8 
						63.5,-147.4 62.6,-144.2 61.2,-142.8 59.7,-139.3 60.5,-138.2 60.3,-139.4 61.5,-141.5 63.3,-143.3 66,-146.3 68.2,-148.2 
						71.2,-148.9 73.3,-150.5 76.2,-153.1 77.7,-156.7 					"/>
					<path class="st1" d="M71.7-144.3l2.5-2.4v-2c0,0,0.8-1,1.5-1.3c0.7-0.3,2.5-2.3,2.5-2.3l1.8-2.3l-0.8,2.3L77-150l-1.8,1.3v2.8
						L71.7-144.3z"/>
				</g>
				<g>
					<g>
						<g>
							<polygon class="st2" points="60.9,-163.8 52.9,-170.8 46.5,-177.3 40.1,-177.6 30.7,-175.5 26.4,-169.8 29.4,-160.8 
								39.9,-158.8 48.9,-148.8 59.4,-145.3 							"/>
							<path class="st1" d="M56.8-226.3l-1.6,3.1l-0.8,2.8l-1.2,2.1l-1.4,1.8l-1.6,6.9c0,0,1.7,7.1,0,9.9c-1.7,2.8-3.4,7.5-4.3,9.7
								c-0.9,2.2-4.3,11.2-5.8,12.3c-1.5,1.1-13.6,6.3-18.5,11c-5,4.7-17,20.9-21.5,22.6c3.2-3.9,17.9-21.8,19.8-23.3
								s11.6-10.8,16.6-12.5c5-1.7,5.2-6.9,7.5-11.2c2.4-4.3,5.8-13.4,5.8-18.3c0-5,1.7-10.5,1.7-10.5L56.8-226.3z"/>
							<path class="st1" d="M49.8-137.5c0-5,1.7-10.5,1.7-10.5l5.3-6.5l-1.6,3.1l-0.8,2.8l-1.2,2.1l-1.4,1.8l-1.6,6.9L49.8-137.5z"
								/>
						</g>
					</g>
				</g>
			</g>
		</g>
	</g>
</pattern>
<g>
	
		<image style="overflow:visible;opacity:0.75;enable-background:new    ;" width="585" height="339" xlink:href="56766902.png"  transform="matrix(1 0 0 1 33 37)">
	</image>
	<g>
		<g>
			<g>
				<path class="st4" d="M212.5,101.7c0.8,9.5-4.9,17.8-12.6,18.5s-14.6-6.5-15.3-16s4.9-17.8,12.6-18.5
					C204.8,85,211.7,92.2,212.5,101.7z"/>
				<path class="st4" d="M155.1,83.8c0.8,9.5-4.9,17.8-12.6,18.5c-7.7,0.7-14.6-6.5-15.3-16c-0.8-9.5,4.9-17.8,12.6-18.5
					S154.3,74.3,155.1,83.8z"/>
				<path class="st5" d="M210.2,99.9c-6.8-4.4-14.1-6.6-21.4-6.7h-0.3c1.9-9.4,8.3-14.9,14.4-12.2c5.5,2.4,8.9,10.7,8,19.3
					L210.2,99.9z"/>
				<path class="st6" d="M206,112.9c0.3-0.4,0.7-0.7,0.9-1.1c-0.4,1.1-0.9,2-1.8,2.8C205.6,114.1,205.8,113.6,206,112.9L206,112.9z"
					/>
				<path d="M206,113c-0.2,0.6-0.5,1.1-0.9,1.7c-0.1,0.1-0.2,0.2-0.4,0.3c-0.1,0.1-0.2,0.2-0.4,0.3c0,0,0,0-0.1,0.1
					c-0.8,0.5-1.6,0.7-2.5,0.5C203.4,115.3,204.8,114.4,206,113z"/>
				<path class="st6" d="M204.8,115c0.1-0.1,0.3-0.2,0.4-0.3C205.1,114.7,205,114.9,204.8,115z"/>
				<path class="st6" d="M204.4,115.3L204.4,115.3c-1.6,1.1-3.5,1.4-5.1,1.1c0.9,0,1.8-0.2,2.7-0.5
					C202.8,115.9,203.7,115.8,204.4,115.3z"/>
				<path d="M200.8,109.2c1.7-1.1,3.8-0.7,4.8,1c0.5,0.8,0.7,1.8,0.5,2.8l0,0c-1.2,1.4-2.6,2.3-4.1,2.9c-0.9-0.1-1.8-0.7-2.4-1.5
					C198.7,112.6,199.1,110.4,200.8,109.2z"/>
				<path class="st4" d="M201.7,102.6c0.1,0.2,0.3,0.5,0.3,0.7c-1.5-0.2-3.1,0.2-4.4,1.1c-0.8,0.5-1.4,1.2-2,2
					c-0.8-1.7-0.3-3.7,1.3-4.7C198.6,100.5,200.7,101,201.7,102.6z"/>
				<path class="st4" d="M202.1,103.3c0.6,1.6,0,3.4-1.4,4.4c-1.6,1.1-3.8,0.7-4.8-1c-0.1-0.1-0.1-0.2-0.2-0.2c0.5-0.8,1.1-1.5,2-2
					C198.9,103.5,200.5,103.1,202.1,103.3z"/>
				<path class="st6" d="M205.6,110.2c-1-1.7-3.1-2.1-4.8-1c-1.6,1.1-2.2,3.4-1.1,5c0.6,0.9,1.4,1.4,2.4,1.5
					c-0.9,0.4-1.8,0.5-2.7,0.5h-0.1c-1.5-0.4-2.8-1.3-3.8-2.7c-1.4-2.3-1.2-5,0.2-7.2c0,0.1,0.1,0.2,0.2,0.2c1,1.7,3.2,2.1,4.8,1
					c1.4-1,2-2.8,1.4-4.4c1.7,0.2,3.4,1.2,4.3,2.9c1,1.7,1.2,3.8,0.6,5.7l0,0c-0.3,0.4-0.6,0.8-0.9,1.1
					C206.2,112,206.1,111,205.6,110.2z"/>
				<path class="st5" d="M202.9,81.1c-6-2.6-12.5,2.8-14.4,12.2l-4.8-0.1c-0.3,0-0.4-0.4-0.3-0.8c1.8-10.1,11.2-17.7,15.8-16.6
					c8.7,2.1,14.3,9.5,14.9,23.2c0.1,1.2,0.1,2.3,0,3.5l-3.2-2C211.7,91.8,208.4,83.5,202.9,81.1z"/>
				<path class="st5" d="M153.8,76.2c-7.5,1.5-14.8,5.1-21.9,10.5c-1.8-8.3,0.5-17.4,5.7-21.3c0.6-0.5,1.2-0.8,1.8-1.1
					c5.3-2.3,11.2,1.5,13.8,9.5C153.4,74.5,153.6,75.4,153.8,76.2L153.8,76.2z"/>
				<path class="st6" d="M151.1,94.4c0.2-0.2,0.3-0.4,0.4-0.6c-0.2,0.8-0.7,1.6-1.1,2.3C150.7,95.6,151,95.1,151.1,94.4z"/>
				<path class="st6" d="M148.6,97.4c0.7-0.2,1.3-0.6,1.8-1.2c0,0.1-0.1,0.1-0.1,0.2c-1,1.2-2.3,2-3.7,2.3c0.6-0.3,1-0.6,1.6-1
					C148.3,97.5,148.5,97.5,148.6,97.4z"/>
				<path d="M148.6,97.4c0.9-0.8,1.9-1.8,2.6-2.9c-0.1,0.6-0.4,1.2-0.8,1.7C149.9,96.7,149.2,97.2,148.6,97.4z"/>
				<path d="M145.3,91.5c1.2-1.6,3.5-1.8,4.9-0.5c0.9,0.9,1.3,2.2,1,3.5c-0.8,1.1-1.6,2.1-2.6,2.9c-1,0.3-2.2,0.1-3-0.7
					C144.1,95.4,143.9,93.1,145.3,91.5z"/>
				<path class="st5" d="M153.1,73.8c-2.6-8-8.5-11.9-13.8-9.5l-0.3-0.8c8.1-3.7,14.7-1.4,18.3,8.8c0.3,1,0.7,2,0.9,2.9l-4.4,0.9
					C153.6,75.4,153.4,74.5,153.1,73.8z"/>
				<path class="st4" d="M144.6,89.9c-1.3,1.6-3.5,1.8-4.9,0.5c-0.1-0.1-0.2-0.2-0.2-0.2c0.3-0.9,0.7-1.7,1.3-2.5
					c1-1.4,2.5-2.1,4-2.4C145.7,86.7,145.7,88.6,144.6,89.9z"/>
				<path class="st4" d="M139.5,85.4c1.3-1.6,3.5-1.8,4.9-0.5c0.2,0.2,0.4,0.4,0.5,0.5c-1.5,0.2-2.9,1.1-4,2.4
					c-0.7,0.8-1,1.7-1.3,2.5C138.4,89,138.3,86.9,139.5,85.4z"/>
				<path class="st6" d="M146.6,98.7c-1.8,0.4-3.8,0-5.2-1.4c-1.9-1.7-2.6-4.5-1.8-7c0.1,0.1,0.1,0.2,0.2,0.2
					c1.4,1.3,3.6,1.1,4.9-0.5c1.1-1.4,1.1-3.2,0.2-4.6c1.7-0.3,3.5,0.2,4.9,1.4c1.9,1.7,2.6,4.5,1.8,7c-0.1,0.2-0.3,0.5-0.4,0.6
					c0.3-1.3-0.1-2.6-1-3.5c-1.4-1.3-3.6-1.1-4.9,0.5c-1.2,1.6-1.1,3.9,0.3,5.2c0.9,0.8,2,1,3,0.7c-0.1,0.1-0.2,0.2-0.4,0.3
					C147.7,98,147.1,98.4,146.6,98.7L146.6,98.7z"/>
				<path class="st5" d="M137.5,65.4c-5.1,3.8-7.5,13-5.7,21.3c-0.2,0.2-0.4,0.2-0.5,0.4l-5,3.9c-0.3,0.2-0.5-0.1-0.5-0.5
					c-0.8-9.8,6.5-23.4,11.3-26.1c0.7-0.4,1.2-0.7,1.8-0.9l0.3,0.8C138.7,64.6,138.1,64.9,137.5,65.4z"/>
				<linearGradient id="SVGID_1_" gradientUnits="userSpaceOnUse" x1="355.0507" y1="203.7747" x2="664.1759" y2="203.7747">
					<stop  offset="4.926108e-003" style="stop-color:#666666"/>
					<stop  offset="0.6302" style="stop-color:#9A9A9A"/>
					<stop  offset="0.9951" style="stop-color:#B3B3B3"/>
				</linearGradient>
				<path class="st7" d="M589.3,196.3c-7.9-7.5-19.6-9.2-27.3-17.2c-2.9-3.1-4.6-6.4-5.5-9.9c-2.4-0.5-4.7-1.1-7-1.8l0.3-1.1
					c2.1-0.7,4.1-1.4,6.1-2c0-3.5,0.8-7.1,2.2-10.6c-4.8-5.2-7.9-11.6-9.8-19.2c-2.5-10-2.4-21.7-11.2-28.2
					c-0.4-0.2-0.7-0.5-0.9-0.8c-0.8,3.8-1.4,7.5-2,11.3c-0.3,3.3-0.6,6.6-0.9,10c-1.4,18.2-2.7,36.2-11.4,52.6
					c-6.1,10.8-13,34.5-21.3,45.4c-16.4,21.6-21.2,33.5-44.2,50.8c-15.8,11.8-38.9,16.4-48.2-4.3c-7.5-16.7-9.7-25.3-3.3-49.4
					c2.3-8.6,9.1-18.3,10.5-21.5c7-15.1,19.8-44.8,24.6-72.8c2.7-16.4,8.4-29.3,4.1-48.6c-3.1-13.8,0.2-21.2-0.4-23.8
					c-1.5,3.2-5.4,4.2-8.7,5c-3.3,0.8-7.1,2.2-8.2,5.6c-0.5,1.7-0.5,3.7-1.8,4.6c-2.1,1.4-4.3-1.5-6.5-2.5c-2.4-1-4.8,0.2-7.3,1
					c-2.4,0.8-12.5,1.3-13.6-1.1c-0.8,1.5-0.8,3.7-0.8,5.8c2.1,8.6,10.3,15.1,14.4,21.6c4.1,10.8-2.1,23.8-8.2,34.5
					c-28.6,47.5-57.2,98.2-45.1,157.7c3.1,15.1,41,64.8,71.7,64.8c36.9,2.2,68.8-20.2,92.2-47.5c25-29.2,48.3-68.5,70.2-104.2
					C591.5,199,590.6,197.5,589.3,196.3z"/>
				<path class="st8" d="M143.8,102.1c-5.4,2.5-11.3-1.4-14-9.4c-0.3-0.8-0.5-1.7-0.7-2.6"/>
				<path class="st8" d="M154.6,79.7c1.4,6.2,0.5,13-2.3,17.6"/>
				<path class="st9" d="M120.4,63.1c2.3-3.8,6.8-10.6,11-11.6c4.3-1.1,8.4,3.6,12.8,3.8c0.1,0,0.2,0,0.3,0.1"/>
				<path class="st8" d="M196.5,119.8c-1,0-2-0.2-3-0.7c-6.1-2.7-9.5-12.6-7.7-22.2c0-0.1,0-0.2,0.1-0.2"/>
				<path class="st8" d="M208.3,103.9c-0.1,1-0.2,1.9-0.4,2.8c-0.7,3.5-2,6.4-3.6,8.6"/>
				<line class="st8" x1="204.3" y1="115.3" x2="204.2" y2="115.4"/>
				<path class="st9" d="M200.7,75.3c4.2-1.1,11.8-2.9,15.5-0.6c3.8,2.3,3.9,8.7,6.9,11.9c0.1,0.1,0.2,0.2,0.1,0.2"/>
				<path class="st10" d="M355.2,352.6c-15.3,0.1-31.6,0.2-31.6,0.2L322.3,55c0,0,15.4-0.1,30.3-0.2"/>
				<path class="st11" d="M49.7,85.8h-4.6v-1.7h11.2v1.7h-4.6V100h-2C49.7,100,49.7,85.8,49.7,85.8z"/>
				<path class="st11" d="M59.9,84v16h-2V84H59.9z"/>
				<path class="st11" d="M63.3,100V84h2.2l4.8,8.1c1.1,1.9,2,3.5,2.7,5.2l0,0c-0.2-2.1-0.2-4.1-0.2-6.5v-6.7h1.9v16h-2L67.9,92
					c-1-1.8-2.1-3.6-2.8-5.3H65c0.1,2,0.2,3.9,0.2,6.6v6.8L63.3,100L63.3,100z"/>
				<path class="st11" d="M81.4,100v-6.8L76.5,84h2.3l2.2,4.4c0.6,1.2,1,2.2,1.5,3.3l0,0c0.5-1.1,0.9-2.1,1.5-3.3l2.2-4.4h2.3
					l-5.1,9.2v6.8C83.3,100,81.4,100,81.4,100z"/>
				<g>
					<path class="st5" d="M184.8,234.6c-3.9,2.8-10.9,8.4-16.8,10.7c-6.7,2.6-10.7-0.6-16.4-7.4c-4.8-6.1-11.2-14.1-15.2-19.6
						c-3.9-5.6-3.2-8.2,0.9-14.7c4.1-5.9,11.5-15.8,19.8-23.1c5.8-4.9,10.4-5.6,12.9-5c0.6,2.6,1,5.3,1.4,7.8
						c-3.4-0.5-7.3-0.1-12.8,3.5c-6.5,4.4-11.9,10.6-14.8,15.7c-2.9,5.3-3.5,9.4-0.8,15.2c6.4,11.3,14.7,24.4,25.6,20.6
						c4.3-1.4,7.7-3.5,9.5-5.1c0.6-6.2-0.1-12.6-1.4-19.2c-4.3,1.3-8.4,2.6-12.5,3.7c-0.5-2.3-1-4.4-1.6-6.6
						c6.6-2.1,13.4-4.4,20.4-6.1C186.4,215.7,187.6,225.7,184.8,234.6z"/>
					<path class="st12" d="M184.8,234.6c-3.9,2.8-10.9,8.4-16.8,10.7c-6.7,2.6-10.7-0.6-16.4-7.4c-4.8-6.1-11.2-14.1-15.2-19.6
						c-3.9-5.6-3.2-8.2,0.9-14.7c4.1-5.9,11.5-15.8,19.8-23.1c5.8-4.9,10.4-5.6,12.9-5c0.6,2.6,1,5.3,1.4,7.8
						c-3.4-0.5-7.3-0.1-12.8,3.5c-6.5,4.4-11.9,10.6-14.8,15.7c-2.9,5.3-3.5,9.4-0.8,15.2c6.4,11.3,14.7,24.4,25.6,20.6
						c4.3-1.4,7.7-3.5,9.5-5.1c0.6-6.2-0.1-12.6-1.4-19.2c-4.3,1.3-8.4,2.6-12.5,3.7c-0.5-2.3-1-4.4-1.6-6.6
						c6.6-2.1,13.4-4.4,20.4-6.1C186.4,215.7,187.6,225.7,184.8,234.6z"/>
				</g>
				<g>
					<path class="st5" d="M174.2,191.7c3.5-4.1,8.5-10.3,13.1-15.2c7.2-7.7,11.5-9.8,15.8-8c3.4,1.4,6.8,5.6,8.8,10.9
						c3.6,9,0,16.3-5.9,20.8c0,0.1,0.1,0.2,0.1,0.3c5.1,0.2,9.5,4.2,11.9,10.4c3.3,8.3,3.6,13.3,4.3,14.8c-2.6,1.4-5.2,2.6-7.7,3.7
						c-0.7-1.3-1.1-6.2-3.9-13.7c-3-8.6-7.6-10.9-14.5-9.1c-2.4,0.7-4.6,1.3-6.9,1.8c2.6,8,5.4,16.8,6.9,26.1
						c-1.7-0.1-3.3-0.5-4.8-1.1C185.4,213.2,175.9,196.4,174.2,191.7z M187.6,203c2.5-0.8,5-1.7,7.7-2.6c8.2-2.9,12.3-9.8,9.7-17.2
						c-2.9-8.6-8.7-9.2-16.1-2.7c-3.4,2.9-5.8,5.3-6.9,6.5C183.3,191.2,185.4,196.7,187.6,203z"/>
					<path class="st12" d="M174.2,191.7c3.5-4.1,8.5-10.3,13.1-15.2c7.2-7.7,11.5-9.8,15.8-8c3.4,1.4,6.8,5.6,8.8,10.9
						c3.6,9,0,16.3-5.9,20.8c0,0.1,0.1,0.2,0.1,0.3c5.1,0.2,9.5,4.2,11.9,10.4c3.3,8.3,3.6,13.3,4.3,14.8c-2.6,1.4-5.2,2.6-7.7,3.7
						c-0.7-1.3-1.1-6.2-3.9-13.7c-3-8.6-7.6-10.9-14.5-9.1c-2.4,0.7-4.6,1.3-6.9,1.8c2.6,8,5.4,16.8,6.9,26.1
						c-1.7-0.1-3.3-0.5-4.8-1.1C185.4,213.2,175.9,196.4,174.2,191.7z M187.6,203c2.5-0.8,5-1.7,7.7-2.6c8.2-2.9,12.3-9.8,9.7-17.2
						c-2.9-8.6-8.7-9.2-16.1-2.7c-3.4,2.9-5.8,5.3-6.9,6.5C183.3,191.2,185.4,196.7,187.6,203z"/>
				</g>
				<g>
					<path class="st5" d="M247.3,189.4c-8.2,2.3-16.1,5.1-23.3,6.9c2.2,6.8,4.3,14.2,5.8,21.9c6.6-0.1,14.4-3.1,23.2-7.1
						c-0.2,2.1-0.5,4.1-0.9,6.1c-10.7,6.2-19.3,9.9-26,6.9c-5.3-21-14.7-39-17-43.4c9.8-11.7,19.7-22.4,28.1-27.4
						c0.9,2.4,1.7,4.8,2.6,7.2c-7.1,3.2-14.8,9.1-22.5,15.7c1.3,3.9,3.1,8.8,4.9,14.3c7.5-2.6,15.3-5.9,23.3-8.2
						C246.1,184.6,246.8,187,247.3,189.4z"/>
					<path class="st12" d="M247.3,189.4c-8.2,2.3-16.1,5.1-23.3,6.9c2.2,6.8,4.3,14.2,5.8,21.9c6.6-0.1,14.4-3.1,23.2-7.1
						c-0.2,2.1-0.5,4.1-0.9,6.1c-10.7,6.2-19.3,9.9-26,6.9c-5.3-21-14.7-39-17-43.4c9.8-11.7,19.7-22.4,28.1-27.4
						c0.9,2.4,1.7,4.8,2.6,7.2c-7.1,3.2-14.8,9.1-22.5,15.7c1.3,3.9,3.1,8.8,4.9,14.3c7.5-2.6,15.3-5.9,23.3-8.2
						C246.1,184.6,246.8,187,247.3,189.4z"/>
				</g>
				<g>
					<path class="st5" d="M257.9,193.2c0.5,5.2,1.2,10.3,2.6,15.2c-1.6-1.3-3.1-3-4.4-5.2c-6.7-10.8-6.8-23.1-2.6-37.6
						c2.7-3.8,5.5-7.5,8.1-10.8c8.4,5.8,28,34.2,32.6,49.3c-2.7,1.4-5.5,2.6-8,3.8c-1.7-5.6-4.8-12-8.5-18.2
						C270.5,191.6,263.9,193.2,257.9,193.2z M274.5,183.6c-3.6-5.5-7.3-10.4-10.7-14.1c-2.4-2.5-4-4.3-5.4-5.6
						c-0.1,0.1-0.1,0.1-0.2,0.2c-0.2,2.9-0.3,6-0.5,9.2c-0.5,5.1-0.6,10.1-0.5,14.9C262.6,187.3,268.4,185.5,274.5,183.6z"/>
					<path class="st12" d="M257.9,193.2c0.5,5.2,1.2,10.3,2.6,15.2c-1.6-1.3-3.1-3-4.4-5.2c-6.7-10.8-6.8-23.1-2.6-37.6
						c2.7-3.8,5.5-7.5,8.1-10.8c8.4,5.8,28,34.2,32.6,49.3c-2.7,1.4-5.5,2.6-8,3.8c-1.7-5.6-4.8-12-8.5-18.2
						C270.5,191.6,263.9,193.2,257.9,193.2z M274.5,183.6c-3.6-5.5-7.3-10.4-10.7-14.1c-2.4-2.5-4-4.3-5.4-5.6
						c-0.1,0.1-0.1,0.1-0.2,0.2c-0.2,2.9-0.3,6-0.5,9.2c-0.5,5.1-0.6,10.1-0.5,14.9C262.6,187.3,268.4,185.5,274.5,183.6z"/>
				</g>
				<g>
					<path class="st5" d="M288.4,150.6c-5.8,3.8-11.5,8.3-17.2,12.8c-0.5-0.9-0.9-1.6-1.3-2.1c13.6-14.9,27.6-28.5,38.3-26.2
						c1.3,2.6,2.7,5.3,4,7.8c-5.1-0.8-10.7,0.7-16.4,3.5c6,19.2,12.9,40.2,8.2,56.8c-2.1,1.5-4.1,2.7-5.9,3.6
						C300.4,188.4,293.5,167.4,288.4,150.6z"/>
					<path class="st12" d="M288.4,150.6c-5.8,3.8-11.5,8.3-17.2,12.8c-0.5-0.9-0.9-1.6-1.3-2.1c13.6-14.9,27.6-28.5,38.3-26.2
						c1.3,2.6,2.7,5.3,4,7.8c-5.1-0.8-10.7,0.7-16.4,3.5c6,19.2,12.9,40.2,8.2,56.8c-2.1,1.5-4.1,2.7-5.9,3.6
						C300.4,188.4,293.5,167.4,288.4,150.6z"/>
				</g>
				<g>
					<path class="st5" d="M194.5,244.1c3-3.9,7.8-10.2,12.5-15.5c6.6-7.6,10.7-9.6,14.9-8c3.3,1.1,6.6,4.8,8.8,10.2
						c2.7,6.7,0.8,13.2-5.1,17.9c0,0.1,0,0.2,0.1,0.2c6-0.5,15.3,3.5,16.7,12.5c0.7,5.2-1.9,9.6-5.2,13.9
						c-4.6,5.4-11.2,11.2-18.1,12.5c-3.8,0.6-6.3-0.5-7.9-1.5C205.7,265.8,196.4,248.3,194.5,244.1z M207.3,252.8
						c2.3-0.8,4.5-1.8,6.8-2.7c8.1-3.2,11.8-9.5,9.5-15.9c-2.6-7.8-8.1-8.1-15.1-1.7c-3.2,2.9-5.1,4.9-6.1,6.1
						C203.6,242.5,205.4,247.3,207.3,252.8z M215.1,281.1c1.2,0.2,2.9,0.2,5.2-0.2c6.2-1.4,14.3-7.8,13.2-16.9
						c-1.3-8.9-10.2-10.5-18.3-7.7c-2.1,0.7-4.2,1.3-6.1,1.9C211.2,265.2,213.6,273,215.1,281.1z"/>
					<path class="st12" d="M194.5,244.1c3-3.9,7.8-10.2,12.5-15.5c6.6-7.6,10.7-9.6,14.9-8c3.3,1.1,6.6,4.8,8.8,10.2
						c2.7,6.7,0.8,13.2-5.1,17.9c0,0.1,0,0.2,0.1,0.2c6-0.5,15.3,3.5,16.7,12.5c0.7,5.2-1.9,9.6-5.2,13.9
						c-4.6,5.4-11.2,11.2-18.1,12.5c-3.8,0.6-6.3-0.5-7.9-1.5C205.7,265.8,196.4,248.3,194.5,244.1z M207.3,252.8
						c2.3-0.8,4.5-1.8,6.8-2.7c8.1-3.2,11.8-9.5,9.5-15.9c-2.6-7.8-8.1-8.1-15.1-1.7c-3.2,2.9-5.1,4.9-6.1,6.1
						C203.6,242.5,205.4,247.3,207.3,252.8z M215.1,281.1c1.2,0.2,2.9,0.2,5.2-0.2c6.2-1.4,14.3-7.8,13.2-16.9
						c-1.3-8.9-10.2-10.5-18.3-7.7c-2.1,0.7-4.2,1.3-6.1,1.9C211.2,265.2,213.6,273,215.1,281.1z"/>
				</g>
				<g>
					<path class="st5" d="M238.1,218.5c3.9,11.6,14.1,41.8,12.1,57.4c-2,2.4-3.8,4-5.5,4.5c-1.1-21.3-10.6-49-13.2-46.5
						C233.7,227.9,236,222.6,238.1,218.5z"/>
					<path class="st12" d="M238.1,218.5c3.9,11.6,14.1,41.8,12.1,57.4c-2,2.4-3.8,4-5.5,4.5c-1.1-21.3-10.6-49-13.2-46.5
						C233.7,227.9,236,222.6,238.1,218.5z"/>
				</g>
				<g>
					<path class="st5" d="M296.5,259.7c-3.9,2.8-10.9,8.4-16.8,10.7c-6.7,2.6-10.7-0.6-16.4-7.4c-4.8-6.1-11.2-14.1-15.2-19.6
						c-3.9-5.6-3.2-8.2,0.9-14.7c4.1-5.9,11.5-15.8,19.8-23.1c5.8-4.9,10.4-5.6,12.9-5c0.6,2.6,1,5.3,1.4,7.8
						c-3.4-0.5-7.3-0.1-12.8,3.5c-6.5,4.4-11.9,10.6-14.8,15.7c-2.9,5.3-3.5,9.4-0.8,15.2c6.4,11.3,14.7,24.4,25.6,20.6
						c4.3-1.4,7.7-3.5,9.5-5.1c0.6-6.2-0.1-12.6-1.4-19.2c-4.3,1.3-8.4,2.6-12.5,3.7c-0.5-2.3-1-4.4-1.6-6.6
						c6.6-2.1,13.4-4.4,20.4-6.1C298,240.8,299.3,250.8,296.5,259.7z"/>
					<path class="st12" d="M296.5,259.7c-3.9,2.8-10.9,8.4-16.8,10.7c-6.7,2.6-10.7-0.6-16.4-7.4c-4.8-6.1-11.2-14.1-15.2-19.6
						c-3.9-5.6-3.2-8.2,0.9-14.7c4.1-5.9,11.5-15.8,19.8-23.1c5.8-4.9,10.4-5.6,12.9-5c0.6,2.6,1,5.3,1.4,7.8
						c-3.4-0.5-7.3-0.1-12.8,3.5c-6.5,4.4-11.9,10.6-14.8,15.7c-2.9,5.3-3.5,9.4-0.8,15.2c6.4,11.3,14.7,24.4,25.6,20.6
						c4.3-1.4,7.7-3.5,9.5-5.1c0.6-6.2-0.1-12.6-1.4-19.2c-4.3,1.3-8.4,2.6-12.5,3.7c-0.5-2.3-1-4.4-1.6-6.6
						c6.6-2.1,13.4-4.4,20.4-6.1C298,240.8,299.3,250.8,296.5,259.7z"/>
				</g>
				<g>
					<g>
						<g>
							<polygon class="st13" points="50,125.8 106.9,105.5 108.2,107.7 110.1,103.7 105.1,102.2 106.3,104.4 49.3,124.6 							"/>
						</g>
					</g>
				</g>
				<g>
					<g>
						<g>
							<polygon class="st14" points="241.3,305.7 298.2,285.4 299.4,287.6 301.4,283.7 296.4,282.1 297.6,284.4 240.6,304.7 							
								"/>
						</g>
					</g>
				</g>
				<path class="st10" d="M420.8,122.7c5.8-1.5,12.1-2,18.1-1.2"/>
				<path class="st10" d="M430,125.8c1.8,0.3,3.6,0.5,5.4,0.8"/>
				<path class="st10" d="M399.7,192.7c3.7,1.3,8.1-3.1,11.4-1.1c1.2,0.8,1.8,2.1,2.5,3.3s1.8,2.4,3.2,2.4"/>
				<path class="st15" d="M503.8,221.4c1.5,1.2,3.7-0.4,5.6-0.3c3,0.1,4.5,4,7.3,5.2c0.9,0.4,1.8,0.5,2.4,1.1
					c1.7,1.7,0.2,5.7,2.3,6.8"/>
				<path class="st15" d="M498.1,228.4c1.9-0.2,4.2-0.5,5.6,1c0.5,0.5,0.8,1,1,1.6c1.3,2.4,2.6,4.7,4,7.1"/>
				<path class="st15" d="M501.4,236.3c-0.6,1.7,1.8,3.5,3.2,2.3"/>
				<path class="st10" d="M396.5,199.1c6.2-0.5,12.4,1,17.8,4.1"/>
				<path class="st10" d="M398.6,205.2c4.2-0.2,8.2,1,11.5,3.5"/>
				<pattern  id="SVGID_2_" xlink:href="#SVGID_4_" patternTransform="matrix(0.9452 0 0 0.9967 -986.4092 18451.7891)">
				</pattern>
				<path class="st16" d="M589.3,196.3c-7.9-7.5-19.6-9.2-27.3-17.2c-2.9-3.1-4.6-6.4-5.5-9.9c-2.4-0.5-4.7-1.1-7-1.8l0.3-1.1
					c2.1-0.7,4.1-1.4,6.1-2c0-3.5,0.8-7.1,2.2-10.6c-4.8-5.2-7.9-11.6-9.8-19.2c-2.5-10-2.4-21.7-11.2-28.2
					c-0.4-0.2-0.7-0.5-0.9-0.8c-0.8,3.8-1.4,7.5-2,11.3c-0.3,3.3-0.6,6.6-0.9,10c-1.4,18.2-2.7,36.2-11.4,52.6
					c-6.1,10.8-13,34.5-21.3,45.4c-16.4,21.6-21.2,33.5-44.2,50.8c-15.8,11.8-38.9,16.4-48.2-4.3c-7.5-16.7-9.7-25.3-3.3-49.4
					c2.3-8.6,9.1-18.3,10.5-21.5c7-15.1,19.8-44.8,24.6-72.8c2.7-16.4,8.4-29.3,4.1-48.6c-3.1-13.8,0.2-21.2-0.4-23.8
					c-1.5,3.2-5.4,4.2-8.7,5c-3.3,0.8-7.1,2.2-8.2,5.6c-0.5,1.7-0.5,3.7-1.8,4.6c-2.1,1.4-4.3-1.5-6.5-2.5c-2.4-1-4.8,0.2-7.3,1
					c-2.4,0.8-12.5,1.3-13.6-1.1c-0.8,1.5-0.8,3.7-0.8,5.8c2.1,8.6,10.3,15.1,14.4,21.6c4.1,10.8-2.1,23.8-8.2,34.5
					c-28.6,47.5-57.2,98.2-45.1,157.7c3.1,15.1,41,64.8,71.7,64.8c36.9,2.2,68.8-20.2,92.2-47.5c25-29.2,48.3-68.5,70.2-104.2
					C591.5,199,590.6,197.5,589.3,196.3z"/>
			</g>
		</g>
	</g>
</g>
</svg>
