<?xml version="1.0" encoding="utf-8"?>
<!-- Generator: Adobe Illustrator 19.2.0, SVG Export Plug-In . SVG Version: 6.00 Build 0)  -->
<svg version="1.1" id="Layer_1" xmlns="http://www.w3.org/2000/svg" xmlns:xlink="http://www.w3.org/1999/xlink" x="0px" y="0px"
	 viewBox="0 0 640 480" style="enable-background:new 0 0 640 480;" xml:space="preserve">
<style type="text/css">
	.st0{fill:none;stroke:#000000;stroke-miterlimit:10;}
	.st1{fill:url(#SVGID_1_);}
	.st2{fill:url(#SVGID_2_);stroke:#000000;stroke-miterlimit:10;}
	.st3{fill:url(#SVGID_3_);stroke:#000000;stroke-miterlimit:10;}
	.st4{fill:#C1272D;stroke:#000000;stroke-miterlimit:10;}
	.st5{fill:url(#SVGID_4_);stroke:#000000;stroke-miterlimit:10;}
	.st6{fill:url(#SVGID_5_);stroke:#000000;stroke-miterlimit:10;}
	.st7{fill:url(#SVGID_6_);stroke:#000000;stroke-miterlimit:10;}
	.st8{fill:#FFFFFF;stroke:#000000;stroke-miterlimit:10;}
	.st9{fill:url(#SVGID_7_);stroke:#000000;stroke-miterlimit:10;}
	.st10{stroke:#F7931E;stroke-miterlimit:10;}
	.st11{fill:#0071BC;stroke:#000000;stroke-miterlimit:10;}
	.st12{fill:url(#SVGID_8_);stroke:#000000;stroke-miterlimit:10;}
	.st13{fill:url(#SVGID_9_);stroke:#000000;stroke-miterlimit:10;}
	.st14{fill:url(#SVGID_10_);stroke:#000000;stroke-miterlimit:10;}
	.st15{fill:url(#SVGID_11_);}
	.st16{fill:url(#SVGID_12_);}
	.st17{fill:url(#SVGID_13_);}
	.st18{fill:#808080;}
	.st19{fill:#FF7BAC;}
	.st20{fill:#0000FF;}
	.st21{fill:#FFFFFF;}
	.st22{fill:url(#SVGID_14_);}
	.st23{fill:#999999;}
	.st24{fill:url(#SVGID_15_);}
	.st25{fill:url(#SVGID_16_);}
	.st26{fill:url(#SVGID_17_);}
	.st27{fill:url(#SVGID_18_);}
	.st28{fill:url(#SVGID_19_);}
	.st29{fill:none;stroke:#000000;stroke-width:0.25;stroke-miterlimit:10;}
	.st30{fill:none;stroke:#333333;stroke-width:0.75;stroke-linecap:round;stroke-miterlimit:10;}
	.st31{fill:url(#SVGID_20_);stroke:#000000;stroke-miterlimit:10;}
	.st32{fill:url(#SVGID_21_);stroke:#000000;stroke-linecap:round;stroke-linejoin:round;}
	.st33{fill:url(#SVGID_22_);}
</style>
<path class="st0" d="M367.8,249.5"/>
<linearGradient id="SVGID_1_" gradientUnits="userSpaceOnUse" x1="915.1863" y1="22.3064" x2="-0.1053" y2="-191.2359" gradientTransform="matrix(0.9924 -0.1231 0.1231 0.9924 -48.3662 99.9421)">
	<stop  offset="4.926108e-003" style="stop-color:#666666"/>
	<stop  offset="0.6302" style="stop-color:#9A9A9A"/>
	<stop  offset="0.9951" style="stop-color:#B3B3B3"/>
</linearGradient>
<path class="st1" d="M514.4-106c-0.7-1.1-1.1-2.2-1.3-3.3c-3.3-6.7-3.6-16-0.7-24.5l-6.2-2c0.4-1.3,1.1-2.7,1.6-3.8
	c6.9-13.4,16.5-15.6,27.8-9.3c0.7,0.4,1.6,0.9,2.4,1.6c6.5,4.2,14.9,24,12.7,37.2c-0.2,0.7-0.2,0.9-0.7,0.7l-6.7-6
	c-0.2-0.2-0.4-0.4-0.7-0.7c-0.4,1.1-0.9,2.2-1.3,3.3c-4.9,10.7-14,14.9-21.4,10.7h-0.4c-2-0.7-3.6-2-4.9-3.8
	C514.4-106,514.4-106,514.4-106z M426.7-105.5c-0.2-1.3-0.2-2.7-0.2-4l-4.9,2.2c0.2-1.6,0.2-3.1,0.7-4.7c2.9-18.7,12-27.8,24.9-29.4
	c6.9-0.7,19.1,11.1,20.3,24.9c0,0.7-0.2,1.1-0.4,1.1l-6.9-0.7c0,0.2,0,0.2,0,0.2c1.3,13.4-5.1,26.3-14.2,29.2
	c-1.6,0.4-3.1,0.7-4.5,0.4h-0.2c-2.4,0.2-4.9-0.4-7.1-2.2l-0.2-0.2c0,0,0,0-0.2,0c-0.2-0.2-0.2-0.2-0.4-0.4
	c-0.2-0.2-0.2-0.2-0.4-0.4c-1.1-1.1-1.8-2.7-2.2-4c0,0,0,0,0-0.2C428.5-96.4,427.2-100.6,426.7-105.5z M317.5,12.2l43.6,44.3
	l21.1,15.6l18.9,9.8l11.1,4C401.6,81,391.4,75.2,381.6,69c-14.5-9.3-25.8-17.4-33.2-30.9c-0.7-4.7-1.1-9.3-1.6-14.2
	c-0.7-5.6-1.1-11.1,1.3-15.6c0.9-1.6,2.2-3.1,3.6-4.5c6.9-7.1,14.5-13.6,23.1-19.1l1.3,0.7c54.3,51.4,120.6,94.1,192.5,124l0.2,1.6
	c-27.8,4.5-57.4,3.6-86.6-2l-0.2,0.9c32.7,61,66.5,137.5,106.6,193c29.6,41,72.3,76.1,125.8,79c44.3,4.7,105.9-57.2,112.6-77.5
	c26-79.5-7.6-152.9-42.1-222.1c-7.3-15.6-14.2-34.3-6.9-48.5c6.9-8.2,19.6-15.8,23.8-27.4c0.2-2.9,0.7-6-0.2-8
	c-2,3.1-5.1-5.6-8.5-6.9c-3.3-1.3-17.8-14.9-21.4-14c-3.6,0.9-9.3,2.9-12.2,0.7c-1.8-1.3-6.2,19.1-6.7,16.9
	c-1.1-4.9-13.4-7.3-19.8,10.9c-8.9,25.6-2.7,44.1-1.1,67c2.7,38.9,16.9,81.5,24.9,103c1.6,4.5,10,18.9,12,30.9
	c5.6,33.8,1.1,45.4-12,67c-16.5,26.9-49.2,16.9-70.1-1.6c-30.7-27.2-35.8-44.1-56.3-76.1c-10.2-16-16.7-49.6-24-65.2
	c-10.2-23.8-9.3-48.5-8.7-73.7c0.2-4.5,0.2-9.1,0.2-13.8c-0.7-20.9-4.5-42.3-11.4-61c-0.7-1.3-1.1-2.7-1.8-4l1.6-0.7l6,3.6
	l22.9,17.8l1.1-2c7.1-15.1,14.5-31.8,8.9-46.3c-1.8-4.9-5.1-9.1-6.7-14c-5.6-16.5,7.6-34.9,6-52.1c-0.7-6.5-3.3-12.5-3.8-18.9
	c-0.7-8.7,3.1-17.8,2.9-26.7c-0.2-12.2-7.1-22.7-15.8-32.1l0.7-0.7c-1.3-1.3-2.4-3.1-2.9-5.1c-0.2,0.2-0.7,0.2-0.2-0.2
	c0,0.2,0,0.2,0.2,0.2c0.2-0.2,0.4-0.2,0.7-0.4c-2.7-34.1-7.8-68.1-15.8-101.3c-0.2-1.3-0.7-2.9-0.9-4.5c-1.1-6-1.8-12,1.1-17.4
	c2.2-4.2,6.5-6.9,8.9-10.9c2.9-4,4-9.3,7.3-13.1c6.9-7.8,19.1-6,28.3-10.7c9.3-4.5,14.2-14.9,22-21.8c12-10.2,30.7-10.9,43.2-1.3
	l2-0.4c-0.2-1.1-0.7-2.2-0.9-3.6c-0.2-1.1-0.7-2-1.1-2.9c-2.7-3.3-7.8-9.8-16.9-10.7c-24,0.4-44.3-4.7-68.1-4.2
	c-12,1.6-24.9,9.3-37.6,16.9c-14,8.9-27.2,29.6-17.6,42.7l-0.2,0.2c-29.2-12.9-60.1-23.6-93.3-28.3c-33.4-4.5-72.8-0.7-106.2,10.2
	v0.2c-9.8-2.2-22.5,1.1-33.2,4.9c-20.9,7.3-41.6,15.4-61.7,24.3c-17.8,7.8-35.6,16.5-47.2,30c-8.2,9.8-12.7,21.1-22.3,30
	c-2-1.6-4.5-3.1-6.7-4.5c-14-8-28.9-16.5-46.7-17.4c-20.7-1.1-42.1,8.2-57.6,21.1c-0.7,0.7-1.6,1.1-2.2,1.8
	c-7.3,6.2-13.6,13.1-19.1,20.5l1.1,0.9c11.1,1.6,20.7-8.7,31.6-11.6c8.2-2.2,16.9-0.2,25.2,0c11.6,0.4,23.6-2.2,35.2-1.6
	c11.6,0.7,24.5,5.8,28.9,16.5c2.7,6.5-3.3,12.7-6.9,18.7c-7.1,11.6-4.7,26.7-9.3,39.6c-1.8,5.1-4.7,9.8-6.5,14.9
	c-2.4,7.3-2.2,15.4-2.2,22.9c0.2,14.9,0.9,30.7,8.5,43.4c5.6,9.3,14.5,16.5,20.7,25.4c10.7,14.9,13.8,34.5,11.6,52.5
	c-2.2,18.3-9.1,35.6-16.9,52.1c-7.8,1.1-15.8-0.2-22.5-4c-4-2.2-7.6-5.3-11.8-6.9c-9.8-3.6-21.1,1.1-30.7-2.7
	c-7.1-2.7-12-9.8-19.1-12.9c-6.2-2.9-13.6-2.7-20.3-3.6C67.3-6.9,54.8-12.5,42.6-18C31.2-23.2,19.9-28.3,8.5-33.4
	c-13.1-6-56.3-22.9-64.3-24c-0.4,0-0.9,0.2-1.3,0.2c-5.3,0.7-10.7,1.6-15.6,3.3c-0.9,0.2-2,0.7-2.7,1.6c-2.2,2.2,0.7,4.9,3.6,6.2
	c27.6,12.2,62.5,13.8,86.6,30.3c6.5,4.5,12,10,19.1,13.8C45.5,4.4,60.6,5.6,74.4,8.7c15.8,3.6,30.5,9.8,43,18
	c2.2,1.6,4.5,3.1,7.3,3.6c2.4,0.7,5.1,0.2,7.8,0.2c10-0.4,19.8,1.1,28.3,4.9c8.9,3.8,18.3,9.8,28.3,6.9c4.9-1.6,8.9-4.9,12.7-8
	c7.8-6.9,16-14.5,17.4-23.4c2.2-13.6-8.5-31.2,1.8-42.5l0.7-0.2c2.2,4,4.7,7.6,7.1,11.4c15.8,24.5,32.1,49.4,55.4,69.7
	c16.7,14.5,25.6,21.6,48.1,30l0,0c27.2,23.8,61,43,94.4,53.9c1.3,0.4,3.1,0.7,3.8-0.4c0.4-0.7-0.2-1.8,0.2-2.7
	c3.6-8.9-2.9-28.7-7.3-37.2l0.7-1.6c-1.6-0.7-3.3-1.3-4.9-2.2l1.8,26.7c-12.5-3.3-28.7-14.5-40.1-20.7
	C322.6,64.1,317.5,12.2,317.5,12.2z"/>
<g>
	
		<radialGradient id="SVGID_2_" cx="260.9203" cy="412.4938" r="53.3636" gradientTransform="matrix(0.1664 0.9861 -1.0726 0.1809 763.859 268.1447)" gradientUnits="userSpaceOnUse">
		<stop  offset="0" style="stop-color:#FFFFFF"/>
		<stop  offset="8.510865e-002" style="stop-color:#FFEDD8"/>
		<stop  offset="0.2082" style="stop-color:#FFD5A7"/>
		<stop  offset="0.3345" style="stop-color:#FFC17D"/>
		<stop  offset="0.462" style="stop-color:#FFB05B"/>
		<stop  offset="0.591" style="stop-color:#FFA340"/>
		<stop  offset="0.7222" style="stop-color:#FF9A2D"/>
		<stop  offset="0.8568" style="stop-color:#FF9522"/>
		<stop  offset="1" style="stop-color:#FF931E"/>
	</radialGradient>
	<path class="st2" d="M410.9,597.6l4.9,28.7c0.7,3.6-1.8,6.9-5.3,7.3l-84.4,14.2c-3.6,0.7-6.9-1.8-7.3-5.3l-4.9-28.7
		c-0.7-3.6,1.8-6.9,5.3-7.3l52.1-8.7l6.9-53.4l30,3.8l-5.6,44.3l1.1-0.2C406.7,591.8,410.3,594.3,410.9,597.6z"/>
	
		<radialGradient id="SVGID_3_" cx="848.2579" cy="660.5557" r="53.3636" gradientTransform="matrix(0.3123 0.95 1.0333 -0.3398 -420.1485 -21.9103)" gradientUnits="userSpaceOnUse">
		<stop  offset="0" style="stop-color:#FFFFFF"/>
		<stop  offset="8.510865e-002" style="stop-color:#FFEDD8"/>
		<stop  offset="0.2082" style="stop-color:#FFD5A7"/>
		<stop  offset="0.3345" style="stop-color:#FFC17D"/>
		<stop  offset="0.462" style="stop-color:#FFB05B"/>
		<stop  offset="0.591" style="stop-color:#FFA340"/>
		<stop  offset="0.7222" style="stop-color:#FF9A2D"/>
		<stop  offset="0.8568" style="stop-color:#FF9522"/>
		<stop  offset="1" style="stop-color:#FF931E"/>
	</radialGradient>
	<path class="st3" d="M485.5,578.7l9.1,27.6c1.1,3.3,4.9,5.3,8.2,4l81.5-26.7c3.3-1.1,5.1-4.9,4-8.2l-9.1-27.6
		c-1.1-3.3-4.9-5.3-8.2-4l-50.1,16.5L490,515.9L465,533.3l25.8,36.7l-1.1,0.4C486.4,571.8,484.4,575.3,485.5,578.7z"/>
	<polygon class="st4" points="507.3,510.8 465.9,544 410.7,475.6 414.1,571.8 361.1,573.6 356.6,450 389.1,448.7 388.2,447.6 
		429.9,414.4 	"/>
	
		<radialGradient id="SVGID_4_" cx="547.8306" cy="-80.7478" r="35.3307" gradientTransform="matrix(0.8213 -0.5705 0.3782 0.5445 -60.0715 492.2447)" gradientUnits="userSpaceOnUse">
		<stop  offset="0" style="stop-color:#FFFFFF"/>
		<stop  offset="8.510865e-002" style="stop-color:#FFEDD8"/>
		<stop  offset="0.2082" style="stop-color:#FFD5A7"/>
		<stop  offset="0.3345" style="stop-color:#FFC17D"/>
		<stop  offset="0.462" style="stop-color:#FFB05B"/>
		<stop  offset="0.591" style="stop-color:#FFA340"/>
		<stop  offset="0.7222" style="stop-color:#FF9A2D"/>
		<stop  offset="0.8568" style="stop-color:#FF9522"/>
		<stop  offset="1" style="stop-color:#FF931E"/>
	</radialGradient>
	<path class="st5" d="M391.6,149.8l-30.5,21.1c-1.1,0.7-2.7,0.4-3.3-0.7l-31.4-45.2c-0.7-1.1-0.4-2.7,0.7-3.3l30.5-21.1
		c1.1-0.7,2.7-0.4,3.3,0.7l31.6,45.4C392.9,147.6,392.7,148.9,391.6,149.8z"/>
	
		<radialGradient id="SVGID_5_" cx="536.5789" cy="83.5616" r="22.6512" gradientTransform="matrix(1.1596 -0.8935 0.6772 0.8789 -347.7348 522.9404)" gradientUnits="userSpaceOnUse">
		<stop  offset="0" style="stop-color:#FFFFFF"/>
		<stop  offset="8.510865e-002" style="stop-color:#FFEDD8"/>
		<stop  offset="0.2082" style="stop-color:#FFD5A7"/>
		<stop  offset="0.3345" style="stop-color:#FFC17D"/>
		<stop  offset="0.462" style="stop-color:#FFB05B"/>
		<stop  offset="0.591" style="stop-color:#FFA340"/>
		<stop  offset="0.7222" style="stop-color:#FF9A2D"/>
		<stop  offset="0.8568" style="stop-color:#FF9522"/>
		<stop  offset="1" style="stop-color:#FF931E"/>
	</radialGradient>
	<path class="st6" d="M345.1,106.2c11.1,14.5,13.8,30.9,6,36.9c-7.8,6-22.9-0.7-34.3-15.1c-11.1-14.5-13.8-30.9-6-36.9
		C318.8,85,334.2,91.7,345.1,106.2z"/>
	
		<radialGradient id="SVGID_6_" cx="293.6727" cy="135.9864" r="99.9438" gradientTransform="matrix(0.9924 -0.1231 0.1231 0.9924 -48.3662 99.9421)" gradientUnits="userSpaceOnUse">
		<stop  offset="0" style="stop-color:#FFFFFF"/>
		<stop  offset="8.510865e-002" style="stop-color:#FFEDD8"/>
		<stop  offset="0.2082" style="stop-color:#FFD5A7"/>
		<stop  offset="0.3345" style="stop-color:#FFC17D"/>
		<stop  offset="0.462" style="stop-color:#FFB05B"/>
		<stop  offset="0.591" style="stop-color:#FFA340"/>
		<stop  offset="0.7222" style="stop-color:#FF9A2D"/>
		<stop  offset="0.8568" style="stop-color:#FF9522"/>
		<stop  offset="1" style="stop-color:#FF931E"/>
	</radialGradient>
	<circle class="st7" cx="259.8" cy="198.7" r="99.9"/>
	
		<ellipse transform="matrix(0.9462 -0.3237 0.3237 0.9462 -33.0345 99.1912)" class="st8" cx="281.7" cy="148.9" rx="35.2" ry="35.2"/>
	<ellipse transform="matrix(0.9924 -0.1231 0.1231 0.9924 -15.8157 36.8781)" cx="290.5" cy="146.4" rx="24.7" ry="21.6"/>
	
		<radialGradient id="SVGID_7_" cx="393.7231" cy="107.1231" r="22.6679" gradientTransform="matrix(1.0052 -0.9863 0.7895 0.8046 -309.7232 562.7)" gradientUnits="userSpaceOnUse">
		<stop  offset="0" style="stop-color:#FFFFFF"/>
		<stop  offset="8.510865e-002" style="stop-color:#FFEDD8"/>
		<stop  offset="0.2082" style="stop-color:#FFD5A7"/>
		<stop  offset="0.3345" style="stop-color:#FFC17D"/>
		<stop  offset="0.462" style="stop-color:#FFB05B"/>
		<stop  offset="0.591" style="stop-color:#FFA340"/>
		<stop  offset="0.7222" style="stop-color:#FF9A2D"/>
		<stop  offset="0.8568" style="stop-color:#FF9522"/>
		<stop  offset="1" style="stop-color:#FF931E"/>
	</radialGradient>
	<path class="st9" d="M182.8,248.6c12.9,13.1,17.8,29.2,11.1,35.8c-6.9,6.7-22.7,1.3-35.6-11.8c-12.9-13.1-17.8-29.2-11.1-35.8
		C153.9,230.1,169.9,235.5,182.8,248.6z"/>
	
		<ellipse transform="matrix(0.9462 -0.3237 0.3237 0.9462 -49.4418 86.0003)" class="st8" cx="233.8" cy="191.6" rx="35.2" ry="35.2"/>
	<ellipse transform="matrix(0.9924 -0.1231 0.1231 0.9924 -21.4448 31.2855)" cx="242.5" cy="189.2" rx="24.7" ry="21.6"/>
	<path class="st0" d="M181,161.4c1.8-6.2,4-12.2,6.9-18.3c1.3-2.9,2.7-6,5.1-8c4.9-4.5,14-3.1,17.4,2.7"/>
	<path class="st0" d="M234.9,119.3c-0.7-6-0.4-11.8,0.7-17.6c0.2-1.6,0.7-3.1,1.6-4.5c1.1-1.6,3.1-2.2,5.1-2.4
		c7.1-1.1,14.7,1.1,19.8,6.2"/>
	
		<ellipse transform="matrix(0.9924 -0.1231 0.1231 0.9924 -20.8666 32.5963)" class="st8" cx="253.4" cy="185.2" rx="8.7" ry="9.3"/>
	<ellipse transform="matrix(0.9924 -0.1231 0.1231 0.9924 -15.2454 38.1344)" class="st8" cx="301" cy="142.4" rx="8.7" ry="9.3"/>
	<ellipse transform="matrix(0.939 -0.3439 0.3439 0.939 -60.075 116.6986)" class="st10" cx="299" cy="227.7" rx="19.8" ry="29.2"/>
	<polygon class="st11" points="384,302.7 445.2,428.4 340.4,479.6 279.4,354.5 241.3,397.1 215.1,373.7 262,321.4 366.4,269.7 
		403.6,227.9 430.1,251.5 	"/>
	
		<linearGradient id="SVGID_8_" gradientUnits="userSpaceOnUse" x1="418.8742" y1="171.5832" x2="451.3206" y2="139.1369" gradientTransform="matrix(0.9924 -0.1231 0.1231 0.9924 -48.3662 99.9421)">
		<stop  offset="0" style="stop-color:#FFFFFF"/>
		<stop  offset="8.510865e-002" style="stop-color:#FFEDD8"/>
		<stop  offset="0.2082" style="stop-color:#FFD5A7"/>
		<stop  offset="0.3345" style="stop-color:#FFC17D"/>
		<stop  offset="0.462" style="stop-color:#FFB05B"/>
		<stop  offset="0.591" style="stop-color:#FFA340"/>
		<stop  offset="0.7222" style="stop-color:#FF9A2D"/>
		<stop  offset="0.8568" style="stop-color:#FF9522"/>
		<stop  offset="1" style="stop-color:#FF931E"/>
	</linearGradient>
	<polygon class="st12" points="407.4,231.2 415.8,219.2 369.3,165.1 383.6,156.7 443.2,209.9 426.3,248.2 	"/>
	<g>
		<path d="M201.3,111.7c-0.4-1.1-0.9-2.2-1.3-3.3c-0.4-1.1-1.1-2.2-1.8-3.1c-1.3-2-3.1-3.8-4.9-5.1c-0.4-0.2-1.1-0.7-1.6-0.9
			c-0.4-0.2-1.1-0.7-1.6-0.7c-1.1-0.4-2.2-0.9-3.6-1.1c-1.1-0.2-2.4-0.2-3.6-0.2c-0.7,0-1.1,0.2-1.8,0.2c-0.7,0.2-1.1,0.2-1.8,0.4
			l0,0h1.1h-1.1H179h0.2c0.7-0.2,1.1-0.4,1.8-0.7c0.7-0.2,1.1-0.2,1.8-0.2c1.1-0.2,2.4-0.2,3.6,0c1.1,0.2,2.4,0.4,3.6,0.9
			c0.7,0.2,1.1,0.4,1.6,0.7c0.7,0.2,1.1,0.7,1.6,0.9c2.2,1.3,4,3.1,5.6,5.1c0.7,1.1,1.3,2.2,2,3.1c0.7,1.1,1.1,2.2,1.6,3.3
			L201.3,111.7z"/>
	</g>
	<g>
		<path d="M182.8,77.2L182.8,77.2L182.8,77.2c-0.2,0.2-0.2,0.2-0.2,0.4c0.2,0.2,0.2,0.4,0.4,0.7c0.2,0.2,0.7,0.4,0.9,0.7l1.1,0.7
			c0.7,0.4,1.3,0.9,2.2,1.6c0.7,0.7,1.3,1.1,2,1.6c2.7,2.2,4.9,4.7,7.3,7.3c2.2,2.7,4.2,5.3,6.5,8l3.1,4c0.9,1.3,2,2.9,2.7,4.5
			l-0.7,0.2c-0.4-1.3-0.9-2.7-1.1-4c-0.2-1.3-0.4-2.9-0.7-4.2c-0.2-1.3-0.2-2.9-0.2-4.2c0-1.3,0-2.9,0.2-4.2
			c0.2-1.3,0.2-2.9,0.4-4.2c0.2-1.3,0.4-2.7,0.9-4.2c0.2-1.3,0.7-2.7,1.1-4c0.2-0.7,0.7-1.3,0.7-2l0.9-2l-0.9,2
			c-0.2,0.7-0.7,1.3-0.7,2c-0.4,1.3-0.9,2.7-1.1,4c-0.2,1.3-0.7,2.7-0.7,4c-0.2,1.3-0.2,2.9-0.4,4.2c0,1.3,0,2.9,0,4.2
			c0,1.3,0.2,2.9,0.2,4.2c0.2,1.3,0.4,2.7,0.7,4c0.2,1.3,0.7,2.7,1.1,4l-0.7,0.2c-0.7-1.6-1.6-2.9-2.7-4.2l-3.1-4
			c-2.2-2.7-4.2-5.3-6.5-7.8c-2.2-2.4-4.7-4.9-7.3-6.9c-0.7-0.7-1.3-1.1-2-1.6c-0.7-0.4-1.3-0.9-2.2-1.3l-1.1-0.7
			c-0.4-0.2-0.7-0.7-1.1-0.9c-0.2-0.2-0.7-0.7-0.9-1.3c-0.2-0.2-0.2-0.7-0.2-1.1c0-0.2,0.2-0.2,0.2-0.7c0.2-0.2,0.2-0.2,0.2-0.2
			L182.8,77.2z"/>
	</g>
	<g>
		<path d="M212.2,101.7c0,0,0-0.2,0.2-0.7c0-0.2,0.2-0.7,0.2-0.9c0.2-0.4,0.2-0.7,0.4-1.1c0.4-0.7,1.1-1.6,1.8-2.4
			c0.7-0.7,1.6-1.6,2.4-2.2c1.6-1.6,3.6-3.1,4.5-4.5c0.2-0.2,0.4-0.7,0.7-0.9c0.2-0.2,0.2-0.7,0.4-0.7c0.2-0.4,0.2-0.7,0.2-0.7
			s-0.2,0.2-0.2,0.7c0,0.2-0.2,0.4-0.2,0.7c-0.2,0.2-0.2,0.7-0.7,1.1c-0.9,1.6-2.4,3.1-4,4.7c-0.7,0.7-1.6,1.6-2.2,2.4
			c-0.7,0.7-1.1,1.6-1.6,2.2c-0.2,0.2-0.2,0.7-0.2,0.9c-0.2,0.2-0.2,0.4-0.2,0.7c0,0.4-0.2,0.7-0.2,0.7L212.2,101.7z"/>
	</g>
	
		<radialGradient id="SVGID_9_" cx="435.9792" cy="-118.1509" r="35.2838" gradientTransform="matrix(-0.3736 0.9276 0.6149 0.2476 354.7525 -30.7429)" gradientUnits="userSpaceOnUse">
		<stop  offset="0" style="stop-color:#FFFFFF"/>
		<stop  offset="8.510865e-002" style="stop-color:#FFEDD8"/>
		<stop  offset="0.2082" style="stop-color:#FFD5A7"/>
		<stop  offset="0.3345" style="stop-color:#FFC17D"/>
		<stop  offset="0.462" style="stop-color:#FFB05B"/>
		<stop  offset="0.591" style="stop-color:#FFA340"/>
		<stop  offset="0.7222" style="stop-color:#FF9A2D"/>
		<stop  offset="0.8568" style="stop-color:#FF9522"/>
		<stop  offset="1" style="stop-color:#FF931E"/>
	</radialGradient>
	<path class="st13" d="M140.1,372.8l13.8-34.5c0.4-1.1-0.2-2.7-1.3-3.1l-51.2-20.7c-1.1-0.4-2.7,0.2-3.1,1.3l-13.8,34.5
		c-0.4,1.1,0.2,2.7,1.3,3.1l51.4,20.7C138.3,374.6,139.6,373.9,140.1,372.8z"/>
	
		<linearGradient id="SVGID_10_" gradientUnits="userSpaceOnUse" x1="328.878" y1="192.4933" x2="361.3434" y2="160.028" gradientTransform="matrix(4.646637e-002 0.9989 0.9989 -4.646637e-002 -3.056 40.759)">
		<stop  offset="0" style="stop-color:#FFFFFF"/>
		<stop  offset="8.510865e-002" style="stop-color:#FFEDD8"/>
		<stop  offset="0.2082" style="stop-color:#FFD5A7"/>
		<stop  offset="0.3345" style="stop-color:#FFC17D"/>
		<stop  offset="0.462" style="stop-color:#FFB05B"/>
		<stop  offset="0.591" style="stop-color:#FFA340"/>
		<stop  offset="0.7222" style="stop-color:#FF9A2D"/>
		<stop  offset="0.8568" style="stop-color:#FF9522"/>
		<stop  offset="1" style="stop-color:#FF931E"/>
	</linearGradient>
	<polygon class="st14" points="220,376.8 209.5,387.3 148.5,350.5 142.5,365.9 205.1,415.5 240,392.6 	"/>
</g>
<linearGradient id="SVGID_11_" gradientUnits="userSpaceOnUse" x1="284.3734" y1="-179.7313" x2="31.2783" y2="-238.7798" gradientTransform="matrix(0.9924 -0.1231 0.1231 0.9924 -48.3662 99.9421)">
	<stop  offset="4.926108e-003" style="stop-color:#FF7BAC"/>
	<stop  offset="0.5018" style="stop-color:#FF99AC"/>
	<stop  offset="0.9951" style="stop-color:#FFB2AC"/>
</linearGradient>
<path class="st15" d="M-55.6-57.4c8.2,1.1,51.2,18.3,64.3,24C20.1-28.3,31.5-23.2,42.8-18C55.1-12.5,67.5-6.9,80.9-5.4
	c6.9,0.7,14,0.4,20.3,3.6c6.9,3.3,11.8,10.2,19.1,12.9c9.8,3.8,21.1-0.9,30.7,2.7c4.2,1.6,7.8,4.7,11.8,6.9c6.9,3.8,14.9,5.3,22.5,4
	c7.8-16.5,14.9-33.8,16.9-52.1c2.2-18.3-0.9-37.8-11.6-52.5c-6.5-8.9-15.1-15.8-20.7-25.4c-7.6-12.9-8-28.5-8.5-43.4
	c-0.2-7.8-0.2-15.8,2.2-22.9c1.6-5.1,4.7-9.8,6.5-14.9c4.5-12.9,2.2-28,9.3-39.6c3.6-6,9.8-12,6.9-18.7
	c-4.5-10.7-17.4-15.8-28.9-16.5c-11.6-0.7-23.6,2.2-35.2,1.6c-8.5-0.2-17.1-2.2-25.2,0c-10.9,3.1-20.3,13.1-31.6,11.6l-1.1-0.9
	c-5.8,7.3-10.7,14.9-15.8,22.5c-4.2,6.7-9.8,14.2-18.7,15.4c-8.5,1.3-18.3-3.8-24.9,1.3c-4.9,12.5,8.2,22.5,13.6,33.8
	c6,13.1,2,28.3-2.2,42.7C13-122,9.6-110.9,6.3-99.5C2.7-87.3-1.9-73.7-14.4-66.1C-26.2-58.3-41.1-59-55.6-57.4z"/>
<linearGradient id="SVGID_12_" gradientUnits="userSpaceOnUse" x1="150.3128" y1="-237.5059" x2="21.1845" y2="-267.6321" gradientTransform="matrix(0.9924 -0.1231 0.1231 0.9924 -48.3662 99.9421)">
	<stop  offset="0.3005" style="stop-color:#666666"/>
	<stop  offset="0.7391" style="stop-color:#9A9A9A"/>
	<stop  offset="0.9951" style="stop-color:#B3B3B3"/>
</linearGradient>
<path class="st16" d="M-56.9-57.2c0-0.2,0.4-0.2,1.3-0.2c14.5-1.6,29.4-1.1,41.4-8.2C-1.5-73.5,3.2-86.8,6.5-99.1
	c3.3-11.4,6.7-22.5,10-33.8c4.2-14.5,8.2-29.6,2.2-42.7C13.4-187,0.5-197.2,5.2-209.4c6.5-5.1,16.2,0,24.9-1.3
	c8.7-1.3,14.5-8.9,18.7-15.4c4.9-7.6,10-15.4,15.8-22.5c5.6-7.3,12-14,19.1-20.5l0,0c-15.8,11.6-10.2,7.8-28.3,16.9
	c-10.2,5.1-21.1,9.3-31.6,14.9c-29.6,15.8-52.1,41.2-59.6,68.1c-5.6,20-3.6,40.1-5.8,60.1S-52-67-72.5-53.4
	C-67.6-55.7-62.2-56.5-56.9-57.2z"/>
<linearGradient id="SVGID_13_" gradientUnits="userSpaceOnUse" x1="622.0782" y1="39.5884" x2="396.5597" y2="-13.0263" gradientTransform="matrix(0.9924 -0.1231 0.1231 0.9924 -48.3662 99.9421)">
	<stop  offset="4.926108e-003" style="stop-color:#FFFFA8"/>
	<stop  offset="0.668" style="stop-color:#FFFFE6"/>
	<stop  offset="0.9951" style="stop-color:#FFFFFF"/>
</linearGradient>
<path class="st17" d="M348.4,38c7.3,13.6,18.7,21.6,33.2,30.9c9.8,6.5,20,12,30.7,16.9l6.7,2.4V89c1.6,0.7,3.1,1.3,4.9,2.2
	c18.7,7.8,38.5,14,58.3,17.6c29.2,5.6,59,6.5,86.6,2l-0.2-1.6c-71.9-29.8-138-72.6-192.5-124l-1.3-0.7c-8.5,5.6-16.2,12-23.1,19.1
	c-1.3,1.3-2.7,2.9-3.6,4.5c-2.7,4.5-2,10.2-1.3,15.6C347.5,28.7,348,33.4,348.4,38z"/>
<path class="st18" d="M441-134.7c-8.2,2.4-14.2,13.4-14.5,25.2l1.1-0.7c10.5-4.9,21.1-6.9,31.8-5.8h0.4
	C458.6-128.9,449.9-137.3,441-134.7z"/>
<path class="st19" d="M419,88.6l-6.7-2.4c2.2,1.1,4.5,2.2,6.7,3.1V88.6z"/>
<path class="st19" d="M420.7,115.7L419,89c-2.2-1.1-4.5-2-6.7-3.1l-11.1-4l-18.9-9.8l-21.1-15.6l-43.4-44.3c0,0,5.1,51.9,63.4,83
	C392,101.3,408.3,112.4,420.7,115.7z"/>
<path d="M431.9-91.7c0.2,0.7,0.4,1.6,0.9,2.2c0.2,0.2,0.2,0.2,0.4,0.4c0.2,0.2,0.2,0.2,0.4,0.4c0,0,0,0,0.2,0
	c1.1,0.7,2.2,1.1,3.3,1.1C435.2-87.9,433.4-89.5,431.9-91.7z"/>
<path class="st20" d="M430.7-93c0.2,1.3,1.1,2.7,2.2,4c-0.4-0.7-0.7-1.6-0.9-2.2l0,0C431.4-92.2,431-92.6,430.7-93z"/>
<path class="st20" d="M433.4-88.8c-0.2-0.2-0.2-0.2-0.4-0.4C433-89,433.2-88.8,433.4-88.8z"/>
<path d="M432.8-95.3c-0.9,1.1-1.1,2.4-1.1,3.6l0,0c1.6,2,3.3,3.6,5.6,4.5c1.3,0,2.7-0.7,3.6-1.6c1.6-2.2,1.3-5.3-0.9-6.9
	C437.6-97.7,434.5-97.3,432.8-95.3z"/>
<path class="st21" d="M439-104.2c-1.1,2-0.4,4.5,1.6,6.2c2.2,1.8,5.3,1.6,7.1-0.7c0.2-0.2,0.2-0.2,0.2-0.2c-0.7-1.1-1.3-2.2-2.7-3.1
	C443.2-103.5,441.2-104.2,439-104.2z"/>
<path class="st20" d="M433.9-87.9c2.2,1.6,4.7,2.4,7.1,2.2c-1.3-0.2-2.7-0.4-3.8-1.1C436.1-86.8,434.8-87.3,433.9-87.9
	C433.9-88.1,433.9-88.1,433.9-87.9z"/>
<path class="st21" d="M439.4-105.1c-0.2,0.2-0.4,0.7-0.7,0.9c2.2,0,4.5,0.7,6.2,2.2c1.1,0.9,2,2,2.7,3.1c1.3-2.2,0.9-4.9-1.1-6.7
	C444.3-107.3,441.2-107.1,439.4-105.1z"/>
<path class="st20" d="M432.3-101.1c-1.8,2.2-2.2,4.9-1.6,7.8c0,0,0,0,0,0.2c0.2,0.7,0.7,1.1,1.1,1.6c-0.2-1.3,0.2-2.7,1.1-3.6
	c1.6-2.2,4.9-2.2,7.1-0.7c2.2,1.8,2.7,4.9,0.9,6.9c-0.9,1.1-2.2,1.6-3.6,1.6c1.1,0.7,2.4,0.9,3.8,1.1h0.2c2.2-0.2,4.2-1.3,5.8-3.1
	c2.2-2.9,2.4-6.7,0.7-9.8c0,0.2-0.2,0.2-0.2,0.2c-1.6,2.2-4.9,2.2-7.1,0.7c-1.8-1.6-2.4-4-1.6-6.2
	C436.5-104.2,433.9-103.1,432.3-101.1z"/>
<path class="st18" d="M426.5-109.5c0.2-11.8,6.2-22.7,14.5-25.2c9.1-2.7,17.4,5.8,18.9,18.7l6.9,0.7c0.4,0,0.7-0.4,0.4-1.1
	c-1.1-14-13.6-25.8-20.3-24.9c-12.9,1.6-22,10.7-24.9,29.4c-0.2,1.6-0.4,3.1-0.7,4.7L426.5-109.5z"/>
<path class="st20" d="M513.1-109.3c0.2,1.1,0.7,2.2,1.3,3.3c-0.4-0.7-0.7-1.6-0.9-2.4C513.3-108.6,513.1-109.1,513.1-109.3z"/>
<path class="st20" d="M516.9-104.2c-0.9-0.2-1.8-1.1-2.4-2c0,0.2,0.2,0.2,0.2,0.2c1.1,1.8,3.1,3.1,4.9,3.8c-0.7-0.4-1.6-1.1-2.2-1.6
	C517.1-104,516.9-104,516.9-104.2z"/>
<path d="M514.4-106c0.7,0.9,1.6,1.6,2.4,2c-1.3-1.1-2.4-2.7-3.3-4.5C513.5-107.7,514-106.8,514.4-106z"/>
<path d="M522.4-111.5c-1.6-2.2-4.7-3.1-6.9-1.6c-1.6,1.1-2.2,2.7-2,4.5c0.9,1.6,2,3.1,3.3,4.5c1.6,0.7,3.1,0.4,4.5-0.4
	C523.6-106.2,524-109.3,522.4-111.5z"/>
<path class="st21" d="M524-119.8c-1.6,1.6-1.6,4.2-0.2,6.2c1.6,2.4,4.7,3.1,6.9,1.6c0.2-0.2,0.2-0.2,0.2-0.2
	c-0.2-1.1-0.7-2.4-1.6-3.6C528-118,526-119.3,524-119.8z"/>
<path class="st18" d="M507.8-139.6c-0.7,1.1-1.1,2.7-1.6,3.8l6.2,2c0.4-1.1,0.7-2.2,1.1-3.1c4.9-10.5,14-14.9,21.1-10.9l0.7-1.1
	C524.5-155.1,514.4-152.9,507.8-139.6z"/>
<path class="st21" d="M524-119.8c2.2,0.7,4,2,5.6,4c0.7,1.1,1.1,2.4,1.6,3.6c2-1.6,2.2-4.5,0.7-6.9c-1.6-2.2-4.7-3.1-6.9-1.6
	C524.5-120.4,524.2-120.2,524-119.8z"/>
<path class="st18" d="M513.5-136.9c-0.4,1.1-0.9,2.2-1.1,3.1l0,0c10.5,3.1,20.7,9.3,30,17.8c3.8-11.1,1.8-24-4.9-30
	c-0.7-0.7-1.6-1.1-2.4-1.8C527.8-151.8,518.7-147.6,513.5-136.9z"/>
<path class="st20" d="M516.7-118.6c-3.1,2.2-4.2,5.8-3.6,9.3c0.2,0.2,0.2,0.7,0.4,0.9c-0.2-1.8,0.4-3.6,2-4.5
	c2.2-1.6,5.3-0.9,6.9,1.6c1.6,2.2,1.1,5.6-1.1,6.9c-1.3,0.9-3.1,1.1-4.5,0.4c0.2,0.2,0.2,0.2,0.4,0.4c0.7,0.7,1.3,1.1,2.2,1.6h0.2
	c2.7,0.7,5.3,0.4,7.8-1.1c3.1-2,4.2-5.8,3.6-9.3c-0.2,0.2-0.2,0.2-0.2,0.2c-2.2,1.6-5.3,0.9-6.9-1.6c-1.3-2-1.1-4.7,0.2-6.2
	C521.6-120.6,518.7-120.2,516.7-118.6z"/>
<path class="st18" d="M537.4-146c6.9,6,8.7,18.7,4.9,30c0.2,0.2,0.4,0.4,0.7,0.7l6.7,6c0.2,0.2,0.7,0,0.7-0.7
	c2.4-13.1-6-32.9-12.7-37.2c-0.9-0.7-1.6-1.1-2.4-1.6l-0.7,1.1C535.8-147.4,536.7-146.7,537.4-146z"/>
<linearGradient id="SVGID_14_" gradientUnits="userSpaceOnUse" x1="773.4301" y1="29.7821" x2="634.0071" y2="-2.7461" gradientTransform="matrix(0.9924 -0.1231 0.1231 0.9924 -48.3662 99.9421)">
	<stop  offset="4.926108e-003" style="stop-color:#FFFFA8"/>
	<stop  offset="0.668" style="stop-color:#FFFFE6"/>
	<stop  offset="0.9951" style="stop-color:#FFFFFF"/>
</linearGradient>
<path class="st22" d="M720.1,60.3l-0.2-2c-36.9-15.4-72.1-35.4-104.6-58.8C607.5-6,599.9-12,592.3-18.3l-6-3.6l-1.6,0.7
	c0.7,1.3,1.1,2.7,1.8,4c6.9,18.7,10.7,39.8,11.4,61c0,4.5-0.2,9.1-0.2,13.8h0.7l6.5,3.3C642.6,70.5,682.7,70.8,720.1,60.3z"/>
<path class="st23" d="M835.8-263.1c-3.1,2.4-6.5,4.5-9.8,6.2c0.4,9.8-10.7,9.3-19.8,12c-15.4,4.7-29.2,15.4-37.8,29.2
	c-3.6,5.6-6.2,11.6-10.7,16c-3.6,3.3-7.8,5.6-11.6,8.2c-7.3,5.1-12.9,12.2-16.2,20.7c-1.1,3.1-2.2,6.2-4,8.7
	c-3.8,5.3-10.2,7.3-16.2,9.8c-19.6,8-35.8,24-44.5,43.8c-1.1,2.4-2,4.9-4,6.5c-3.8,3.1-9.6,1.3-12.7-2.2c-3.1-3.6-4-8.5-4.9-13.4
	c-1.3-9.3-1.8-18.9-1.3-28.5c0.7-11.8,2-25.4-6.7-33.4c-7.3-6.7-20.5-7.3-26.5-14l-0.7,0.7c8.7,9.6,15.8,20,15.8,32.1
	c0.2,8.7-3.6,17.8-2.9,26.7c0.4,6.5,3.1,12.7,3.8,18.9l4.2,14.5c0.9,4.5,1.8,8.7,2.7,13.1c1.1,5.6,2.4,11.6,6.5,16s11.1,7.6,18,5.6
	c10.2-2.9,13.4-13.4,18.5-21.4c3.8-5.8,9.3-10.9,12-16.9c2.7-6,2.7-12.7,7.3-18c10-11.1,33.2-7.6,43.4-18.7c6-6.5,4.5-15.4,8.7-22.7
	c7.8-13.1,31.2-17.1,37.2-30.7c2.2-4.7,1.8-9.8,3.8-14.5c4-9.3,16.5-14.5,27.2-18.7c10.9-4.5,22.9-10.2,25.8-19.8
	C842.3-252.9,839.8-258.2,835.8-263.1z"/>
<linearGradient id="SVGID_15_" gradientUnits="userSpaceOnUse" x1="932.4396" y1="-295.5262" x2="790.0663" y2="-328.7427" gradientTransform="matrix(0.9924 -0.1231 0.1231 0.9924 -48.3662 99.9421)">
	<stop  offset="0.3005" style="stop-color:#666666"/>
	<stop  offset="0.7391" style="stop-color:#9A9A9A"/>
	<stop  offset="0.9951" style="stop-color:#B3B3B3"/>
</linearGradient>
<path class="st24" d="M826-256.9c3.3-1.6,6.7-3.8,9.8-6.2c-2.7-3.1-5.6-6-8.7-8.7c-29.8-25.8-59.6-51.4-89.5-77.2
	c-5.6-4.7-10.7-9.3-15.4-14.5c-6.5-7.1-11.6-15.4-20.7-20.3c0.4,1.1,0.7,2.2,0.9,3.6c3.3,13.8-1.6,28.5,4.5,42.1
	c5.3,6.5,13.8,10.5,19.1,16.9c10.7,13.1,8.7,30.7,22,44.1C770.2-256.2,799.8-243.9,826-256.9z"/>
<linearGradient id="SVGID_16_" gradientUnits="userSpaceOnUse" x1="905.1376" y1="-216.9415" x2="669.6189" y2="-271.8892" gradientTransform="matrix(0.9924 -0.1231 0.1231 0.9924 -48.3662 99.9421)">
	<stop  offset="4.926108e-003" style="stop-color:#FF7BAC"/>
	<stop  offset="0.5018" style="stop-color:#FF99AC"/>
	<stop  offset="0.9951" style="stop-color:#FFB2AC"/>
</linearGradient>
<path class="st25" d="M806.4-244.8c9.1-2.7,20.3-2.7,19.8-12c-26.3,13.1-55.9,0.7-77.7-20C735-290.2,737-308,726.5-321
	c-5.3-6.5-13.8-10.5-19.1-16.9c-6.5-13.6-1.3-28.3-4.5-42.1l-2,0.4c-12.5-9.6-31.2-8.9-43.2,1.3c-7.8,6.9-12.9,17.4-22,21.8
	c-9.1,4.5-21.4,2.9-28.3,10.7c-3.3,3.8-4.5,8.9-7.3,13.1c-2.7,4-6.7,6.7-8.9,10.9c-2.7,5.1-2.2,11.4-1.1,17.4
	c0.2,1.6,0.7,2.9,0.9,4.5c7.8,33.2,13.1,67.2,15.8,101.3c0.2-0.2,0.4-0.2,0,0.4c0-0.2,0-0.2,0-0.4c-0.2,0.2-0.4,0.2-0.7,0.4
	c0.4,2.2,1.6,3.8,2.9,5.1c6.2,6.5,19.1,7.1,26.5,14c8.5,7.8,7.3,21.6,6.7,33.4c-0.4,9.6,0,19.1,1.3,28.5c0.7,4.7,1.6,9.8,4.9,13.4
	c3.1,3.6,8.9,5.1,12.7,2.2c2-1.6,3.1-4,4-6.5c8.7-19.8,24.9-35.8,44.5-43.8c6-2.4,12.5-4.5,16.2-9.8c1.8-2.7,2.7-5.8,4-8.7
	c3.3-8.2,9.1-15.6,16.2-20.7c4-2.7,8.2-4.9,11.6-8.2c4.7-4.5,7.3-10.5,10.7-16C777.1-229.5,790.6-240.2,806.4-244.8z"/>
<radialGradient id="SVGID_17_" cx="893.5585" cy="-125.7365" r="22.2327" gradientTransform="matrix(0.9924 -0.1231 0.1231 0.9924 -48.3662 99.9421)" gradientUnits="userSpaceOnUse">
	<stop  offset="0" style="stop-color:#FF7BAC;stop-opacity:0"/>
	<stop  offset="1" style="stop-color:#FF7BAC"/>
</radialGradient>
<circle class="st26" cx="822.9" cy="-134.9" r="22.3"/>
<linearGradient id="SVGID_18_" gradientUnits="userSpaceOnUse" x1="935.2365" y1="-298.8688" x2="917.9221" y2="-302.9083" gradientTransform="matrix(0.9924 -0.1231 0.1231 0.9924 -48.3662 99.9421)">
	<stop  offset="0" style="stop-color:#FF7BAC"/>
	<stop  offset="1" style="stop-color:#FF7BAC;stop-opacity:0"/>
</linearGradient>
<path class="st27" d="M829.6-320.5c-1.6,0.9-2.7,2.2-3.6,4c-2.2,4.5-0.2,9.8,4.5,11.8c4.5,2.2,9.8,0.2,11.8-4.5
	c0-0.2,0.2-0.2,0.2-0.2c1.8-4.5-0.2-9.3-4.5-11.4C835.2-322.1,832-321.8,829.6-320.5z"/>
<radialGradient id="SVGID_19_" cx="943.9685" cy="-316.6541" r="22.255" gradientTransform="matrix(0.9924 -0.1231 0.1231 0.9924 -48.3662 99.9421)" gradientUnits="userSpaceOnUse">
	<stop  offset="0" style="stop-color:#FF7BAC;stop-opacity:0"/>
	<stop  offset="1" style="stop-color:#FF7BAC"/>
</radialGradient>
<path class="st28" d="M851.9-352.8c-12.2-1.3-23.1,7.6-24.5,19.8c-0.4,4.5,0.4,8.7,2.2,12.5c2.4-1.3,5.6-1.6,8.2-0.4
	c4.5,2,6.5,7.1,4.5,11.4h0.2c1.6,0.4,3.1,0.7,4.5,0.9c12.2,1.3,23.1-7.6,24.5-19.8C872.8-340.8,863.9-351.2,851.9-352.8z"/>
<path class="st0" d="M565.8-336.5c-2.2-1.6-4-3.1-5.1-4.9c-9.6-13.1,3.6-33.8,17.6-42.7c12.7-7.6,25.4-15.1,37.6-16.9
	c24-0.4,44.3,4.7,68.1,4.2c8.7,0.9,14,7.3,16.9,10.7c0.4,0.9,0.9,2,1.1,2.9c0.4,1.1,0.7,2.2,0.9,3.6c3.3,13.8-1.6,28.5,4.5,42.1
	c5.3,6.5,13.8,10.5,19.1,16.9c10.7,13.1,8.7,30.7,22,44.1c21.6,20.7,51.2,32.9,77.7,20c3.3-1.6,6.7-3.8,9.8-6.2"/>
<path class="st0" d="M628.6-102.6c0.2,0.7,0.2,1.6,0.4,2.4c0.9,4.5,1.8,8.7,2.7,13.1c1.1,5.6,2.4,11.6,6.5,16s11.1,7.6,18,5.6
	c10.2-2.9,13.4-13.4,18.5-21.4c3.8-5.8,9.3-10.9,12-16.9c2.7-6,2.7-12.7,7.3-18c10-11.1,33.2-7.6,43.4-18.7c6-6.5,4.5-15.4,8.7-22.7
	c7.8-13.1,31.2-17.1,37.2-30.7c2.2-4.7,1.8-9.8,3.8-14.5c4-9.3,16.5-14.5,27.2-18.7c10.9-4.5,22.9-10.2,25.8-19.8
	c1.8-6-0.7-11.6-4.5-16.5c-2.7-3.1-5.6-6-8.7-8.7c-29.8-25.8-59.6-51.4-89.5-77.2c-5.6-4.7-10.7-9.3-15.4-14.5
	c-6.5-7.1-11.6-15.4-20.7-20.3c-0.7-0.2-1.1-0.7-2-1.1"/>
<path class="st0" d="M201.9-257.3c2.2-4.9-0.7-9.6-4.9-13.1c-2-1.6-4.5-3.1-6.7-4.5c-14-8-28.9-16.5-46.7-17.4
	c-20.7-1.1-42.1,8.2-57.6,21.1c-0.7,0.7-1.6,1.1-2.2,1.8c-7.3,6.2-13.6,13.1-19.1,20.5c-5.6,7.3-10.7,14.9-15.8,22.5
	c-4.2,6.7-9.8,14.2-18.7,15.4c-8.5,1.3-18.3-3.8-24.9,1.3c-4.9,12.5,8.2,22.5,13.6,33.8c6,13.1,2,28.3-2.2,42.7
	c-3.3,11.4-6.7,22.5-10,33.8C3-87-1.7-73.5-14.2-65.9c-12,7.3-26.9,6.9-41.4,8.2c-0.4,0-0.9,0.2-1.3,0.2c-5.3,0.7-10.7,1.6-15.6,3.3
	c-0.9,0.2-2,0.7-2.7,1.6c-2.2,2.2,0.7,4.9,3.6,6.2C-44-34.1-9.1-32.5,15-16c6.5,4.5,12,10,19.1,13.8C45.7,4.2,60.8,5.3,74.6,8.4
	c15.8,3.6,30.5,9.8,43,18c2.2,1.6,4.5,3.1,7.3,3.6c2.4,0.7,5.1,0.2,7.8,0.2c10-0.4,19.8,1.1,28.3,4.9c8.9,3.8,18.3,9.8,28.3,6.9
	c4.9-1.6,8.9-4.9,12.7-8c7.8-6.9,16-14.5,17.4-23.4c2.2-13.6-8.5-31.2,1.8-42.5"/>
<path class="st0" d="M83.5-269.5c-15.8,11.6-10.2,7.8-28.3,16.9c-10.2,5.1-21.1,9.3-31.6,14.9c-29.6,15.8-52.1,41.2-59.6,68.1
	c-5.6,20-3.6,40.1-5.8,60.1s-10.5,42.1-30.9,55.6"/>
<path class="st0" d="M598.1-202.3c3.3,3.1,6.7,6.5,9.8,10c8.7,9.6,15.8,20,15.8,32.1c0.2,8.7-3.6,17.8-2.9,26.7
	c0.4,6.5,3.1,12.7,3.8,18.9c1.6,17.4-11.6,35.8-6,52.1c1.6,4.9,4.9,9.3,6.7,14c5.6,14.5-1.6,31.2-8.9,46.3l-1.1,2L592.3-18
	c7.6,6,15.1,12,22.9,17.8c32.5,23.6,67.7,43.4,104.6,58.8l0.2,2c-37.4,10.2-77.5,10.2-115.1,0.7l-6.5-3.3"/>
<path class="st0" d="M584.3-332.5c-33.6-18.3-69.7-32.9-108.4-39.4c-38.9-6.2-85-0.9-123.7,14"/>
<path class="st0" d="M369.8-355.5c-2.4-2.2-5.3-3.6-8.5-4c-9.8-2.2-22.5,1.1-33.2,4.9c-20.9,7.3-41.6,15.4-61.7,24.3
	c-17.6,7.6-35.4,16.5-47.2,29.8c-8.2,9.8-12.7,21.1-22.3,30c0,0.2-0.2,0.2-0.2,0.2"/>
<path class="st0" d="M189.9-176.1c-6.9,22-14,45.8-3.6,65.2c5.3,10.2,14.9,18.3,20.3,28.3c6,11.6,5.3,25.4,9.3,37.6
	c1.6,4.5,3.6,8.7,6,12.7c2.2,4,4.7,7.6,7.1,11.4c15.8,24.5,32.1,49.4,55.4,69.7c16.7,14.5,25.6,21.6,48.1,30"/>
<path class="st0" d="M419,89.2c1.6,0.7,3.1,1.3,4.9,2.2c18.7,7.8,38.5,14,58.3,17.6c29.2,5.6,59,6.5,86.6,2l-0.2-1.6
	c-71.9-29.8-138-72.6-192.5-124l-1.3-0.7c-8.5,5.6-16.2,12-23.1,19.1c-1.3,1.3-2.7,2.9-3.6,4.5c-2.7,4.5-2,10.2-1.3,15.6
	c0.7,4.7,1.1,9.3,1.6,14.2"/>
<path class="st0" d="M348.4,38c7.3,13.6,18.7,21.6,33.2,30.9c9.8,6.5,20,12,30.7,16.9"/>
<path class="st0" d="M423.2,92.8c4.7,8.2,10.9,28.3,7.3,37.2c-0.2,0.9,0.4,1.8-0.2,2.7c-0.7,1.1-2.4,0.9-3.8,0.4
	c-33.4-10.9-67.2-30-94.4-53.9l0,0c-4.2-3.6-8.2-7.3-12-11.1"/>
<path class="st0" d="M412.3,86.1l-11.1-4l-18.9-9.8l-21.1-15.6l-43.4-44.3c0,0,5.1,51.9,63.4,83c11.1,6,27.6,17.4,40.1,20.7
	l-1.8-26.7v-0.7L412.3,86.1z"/>
<path class="st0" d="M842.5-309.4c1.6,0.4,3.1,0.7,4.5,0.9c12.2,1.3,23.1-7.6,24.5-19.8c1.3-12.2-7.6-23.1-19.8-24.5
	c-12-1.1-23.1,7.6-24.5,19.8c-0.4,4.5,0.4,8.7,2.2,12.5c0.2,0.2,0.2,0.4,0.2,0.7"/>
<path class="st0" d="M970.5-361.9c-8,2.7-14.5,8.9-17.4,17.1"/>
<path class="st0" d="M829.6-320.5c-1.6,0.9-2.7,2.2-3.6,4c-2.2,4.5-0.2,9.8,4.5,11.8c4.5,2.2,9.8,0.2,11.8-4.5
	c0-0.2,0.2-0.2,0.2-0.2c1.8-4.5-0.2-9.3-4.5-11.4C835.2-322.1,832-321.8,829.6-320.5z"/>
<path class="st0" d="M829.6-315.2c-0.4,2.7,0.2,5.3,2.2,7.3"/>
<ellipse transform="matrix(0.1056 -0.9944 0.9944 0.1056 870.3914 697.7241)" class="st0" cx="823.1" cy="-135" rx="22.3" ry="22.3"/>
<path class="st0" d="M823.8-149.1c-6.2,2.2-11.1,6.9-13.6,13.4"/>
<line class="st0" x1="592.6" y1="-18" x2="586.5" y2="-21.6"/>
<line class="st0" x1="629.1" y1="-100.2" x2="624.8" y2="-114.9"/>
<path class="st29" d="M519.8-102.2c7.3,4,16.5-0.2,21.4-10.7c0.7-1.1,0.9-2.2,1.3-3.3"/>
<path class="st29" d="M512.4-134c-2.9,8.2-2.7,17.8,0.7,24.5"/>
<path class="st30" d="M558.9-151.8c-2.7-5.6-8.2-15.4-14-17.4c-6-2-12.7,3.6-18.9,3.1c-0.2,0-0.2,0-0.2,0.2"/>
<path class="st29" d="M441.2-85.9c1.6,0.2,2.9,0,4.5-0.4c9.3-2.7,15.6-15.8,14.2-29.2c0-0.2,0-0.2,0-0.2"/>
<path class="st29" d="M426.5-109.5c0,1.3,0,2.7,0.2,4c0.4,4.9,2,9.1,4,12.2"/>
<path class="st29" d="M430.5-93.3C430.7-93.3,430.7-93,430.5-93.3"/>
<path class="st30" d="M441.7-147.4c-5.8-2.2-16.5-5.8-22.3-3.1s-6.9,11.1-11.6,15.4c-0.2,0.2-0.2,0.2-0.2,0.2"/>
<path class="st0" d="M605.9-198.3c0.4,2.2,1.6,3.8,2.9,5.1c6.2,6.5,19.1,7.1,26.5,14c8.5,7.8,7.3,21.6,6.7,33.4
	c-0.4,9.6,0,19.1,1.3,28.5c0.7,4.7,1.6,9.8,4.9,13.4c3.1,3.6,8.9,5.1,12.7,2.2c2-1.6,3.1-4,4-6.5c8.7-19.8,24.9-35.8,44.5-43.8
	c6-2.4,12.5-4.5,16.2-9.8c1.8-2.7,2.7-5.8,4-8.7c3.3-8.2,9.1-15.6,16.2-20.7c4-2.7,8.2-4.9,11.6-8.2c4.7-4.5,7.3-10.5,10.7-16
	c8.7-14,22.5-24.5,37.8-29.2c9.1-2.7,20.3-2.7,19.8-12"/>
<path class="st0" d="M605.9-198.3c-0.2,0.2-0.7,0.2-0.2-0.2C605.9-198.5,605.9-198.5,605.9-198.3z"/>
<path class="st0" d="M606.6-198.8c-0.2,0.2-0.4,0.2-0.7,0.4"/>
<path class="st0" d="M606.6-198.8c0,0.2,0,0.2,0,0.4C607-199,606.8-199,606.6-198.8z"/>
<path class="st0" d="M700.9-379.5c-12.5-9.6-31.2-8.9-43.2,1.3c-7.8,6.9-12.9,17.4-22,21.8c-9.1,4.5-21.4,2.9-28.3,10.7
	c-3.3,3.8-4.5,8.9-7.3,13.1c-2.7,4-6.7,6.7-8.9,10.9c-2.7,5.1-2.2,11.4-1.1,17.4c0.2,1.6,0.7,2.9,0.9,4.5
	c7.8,33.2,13.1,67.2,15.8,101.3"/>
<path class="st0" d="M591.9-300.5c-0.7-1.3-1.3-2.7-2.2-4c-6.2-10.7-16.5-19.1-28.3-23.1c-4.9-1.6-9.8-2.7-14-5.6"/>
<path class="st0" d="M65.7-248.2c11.1,1.6,20.7-8.7,31.6-11.6c8.2-2.2,16.9-0.2,25.2,0c11.6,0.4,23.6-2.2,35.2-1.6
	c11.6,0.7,24.5,5.8,28.9,16.5c2.7,6.5-3.3,12.7-6.9,18.7c-7.1,11.6-4.7,26.7-9.3,39.6c-1.8,5.1-4.7,9.8-6.5,14.9
	c-2.4,7.3-2.2,15.4-2.2,22.9c0.2,14.9,0.9,30.7,8.5,43.4c5.6,9.3,14.5,16.5,20.7,25.4c10.7,14.9,13.8,34.5,11.6,52.5
	c-2.2,18.3-9.1,35.6-16.9,52.1c-7.8,1.1-15.8-0.2-22.5-4c-4-2.2-7.6-5.3-11.8-6.9c-9.8-3.6-21.1,1.1-30.7-2.7
	c-7.1-2.7-12-9.8-19.1-12.9c-6.2-2.9-13.6-2.7-20.3-3.6C67.7-6.9,55.3-12.5,43-18C31.7-23.2,20.3-28.3,9-33.4
	c-13.1-6-56.3-22.9-64.3-24c-0.9-0.2-1.3-0.2-1.3,0.2"/>
<path class="st29" d="M542.9-37c-21.1-6-45.6,1.6-59.6,18.7"/>
<path class="st29" d="M528.2-14c-7.8-1.1-16.5,2.9-20.5,9.8"/>
<radialGradient id="SVGID_20_" cx="67.4565" cy="-266.547" r="12.5986" gradientTransform="matrix(-0.9944 -0.1056 -0.1056 0.9944 893.0077 92.5527)" gradientUnits="userSpaceOnUse">
	<stop  offset="0" style="stop-color:#CCE0F4"/>
	<stop  offset="6.405089e-002" style="stop-color:#C3DCF2"/>
	<stop  offset="0.1706" style="stop-color:#A9D2EE"/>
	<stop  offset="0.3066" style="stop-color:#80C2E7"/>
	<stop  offset="0.4649" style="stop-color:#47ACDE"/>
	<stop  offset="0.5674" style="stop-color:#1E9CD7"/>
	<stop  offset="0.8652" style="stop-color:#0075BE"/>
	<stop  offset="0.9944" style="stop-color:#005B97"/>
</radialGradient>
<circle class="st31" cx="854.1" cy="-179.6" r="12.7"/>
<radialGradient id="SVGID_21_" cx="62.8408" cy="-268.0254" r="3.8111" gradientTransform="matrix(-0.9944 -0.1056 -0.1056 0.9944 893.0077 92.5527)" gradientUnits="userSpaceOnUse">
	<stop  offset="0" style="stop-color:#CCE0F4"/>
	<stop  offset="6.405089e-002" style="stop-color:#C3DCF2"/>
	<stop  offset="0.1706" style="stop-color:#A9D2EE"/>
	<stop  offset="0.3066" style="stop-color:#80C2E7"/>
	<stop  offset="0.4649" style="stop-color:#47ACDE"/>
	<stop  offset="0.5674" style="stop-color:#1E9CD7"/>
	<stop  offset="0.8652" style="stop-color:#0075BE"/>
	<stop  offset="0.9944" style="stop-color:#005B97"/>
</radialGradient>
<path class="st32" d="M861-175.6c0-3.8-1.6-7.3-4.5-9.8"/>
<path class="st0" d="M482.2,109.7c32.7,61,66.5,137.5,106.6,193c29.6,41,72.3,76.1,125.8,79c44.3,4.7,105.9-57.2,112.6-77.5
	c26-79.5-7.6-152.9-42.1-222.1c-7.3-15.6-14.2-34.3-6.9-48.5c6.9-8.2,19.6-15.8,23.8-27.4c0.2-2.9-0.2-7.3-0.2-8
	c0,0-29.8-20.5-29.8-20.7s-2.7-0.2-6-0.7c-6.5-0.7-11.6,4.9-10.7,11.1l0,0c0.2,2.7-0.4,5.3-2,7.3l-6,7.8"/>
<linearGradient id="SVGID_22_" gradientUnits="userSpaceOnUse" x1="795.3445" y1="-28.3021" x2="795.3445" y2="-28.3021" gradientTransform="matrix(0.9924 -0.1231 0.1231 0.9924 -48.3662 99.9421)">
	<stop  offset="4.926108e-003" style="stop-color:#666666"/>
	<stop  offset="0.6302" style="stop-color:#9A9A9A"/>
	<stop  offset="0.9951" style="stop-color:#B3B3B3"/>
</linearGradient>
<path class="st33" d="M737.4-26.1"/>
<path class="st0" d="M753.3-4.7l-6-4.7c-1.1,3.6-7.3-2.7-13.8,15.6c-8.9,25.6-2.7,44.1-1.1,67c2.7,38.9,16.9,81.5,24.9,103
	c1.6,4.5,10,18.9,12,30.9c5.6,33.8,1.1,45.4-12,67c-16.5,26.9-49.2,16.9-70.1-1.6c-30.7-27.2-35.8-44.1-56.3-76.1
	c-10.2-16-16.7-49.6-24-65.2c-10.2-23.8-9.3-48.5-8.7-73.7c0.2-4.5,0.2-9.1,0.2-13.8c-0.7-20.9-4.5-42.3-11.4-61
	c-0.7-1.3-1.1-2.7-1.8-4C579-35.4,575-49.4,569.9-63.7"/>
</svg>
