<?xml version="1.0" encoding="utf-8"?>
<!-- Generator: Adobe Illustrator 19.2.0, SVG Export Plug-In . SVG Version: 6.00 Build 0)  -->
<svg version="1.1" xmlns="http://www.w3.org/2000/svg" xmlns:xlink="http://www.w3.org/1999/xlink" x="0px" y="0px"
	 viewBox="0 0 282.7 286.7" style="enable-background:new 0 0 282.7 286.7;" xml:space="preserve">
<style type="text/css">
  
	<style><![CDATA[
		.st0{display:none;}
		.st0:target {display: inline-block;
                    fill:#006;}
        .st0:hover {display: inline-block;
                    fill:#FFF}
	]]></style>

</style>
<g id="email" class="st0">
	<path class="st1" d="M272.4,133L151.7,12.3c-5.7-5.7-15-5.7-20.7,0L10.3,133c-5.7,5.7-5.7,15,0,20.7L131,274.4
		c5.7,5.7,15,5.7,20.7,0l120.7-120.7C278.1,148,278.1,138.7,272.4,133z M141.3,217.8c-41.1,0-74.4-33.3-74.4-74.4
		s33.3-74.4,74.4-74.4c41.1,0,74.4,33.3,74.4,74.4S182.4,217.8,141.3,217.8z"/>
	<rect x="-505.3" y="-78.3" style="fill:none;" width="443" height="106"/>
	<path class="st1" d="M141.3,80.7c-34.6,0-62.7,28.1-62.7,62.7s28.1,62.7,62.7,62.7c34.6,0,62.7-28,62.7-62.7S175.9,80.7,141.3,80.7
		z M183.7,146.6v39.1h-7v-18.9c-8,11.2-20.6,18.6-35.1,18.6c-23.2,0-42.1-18.8-42.1-42s19-42,42.1-42c14.5,0,27,7.4,35,18.6v-18.3h7
		v38.4c0,1.1,0.1,2.1,0.1,3.2S183.7,145.5,183.7,146.6z"/>
	<circle class="st1" cx="141.3" cy="143.3" r="34.9"/>
</g>
<g id="linkedin" class="st0">
	<path class="st1" d="M272.4,133L151.7,12.3c-5.7-5.7-15-5.7-20.7,0L10.3,133c-5.7,5.7-5.7,15,0,20.7L131,274.4
		c5.7,5.7,15,5.7,20.7,0l120.7-120.7C278.1,148,278.1,138.7,272.4,133z M103.7,209.7c-10,0-19,0-29,0c0-30,0-59,0-89c9,0,19,0,29,0
		C103.7,150.7,103.7,179.7,103.7,209.7z M88.9,108.2c-9.6,0.1-16.6-6.3-16.7-15.3c-0.1-9,6.8-15.5,16.6-15.6
		c9.8,0,16.7,6.4,16.7,15.5C105.5,101.7,98.5,108.1,88.9,108.2z M210.4,208.1c0,0.4-0.1,0.6-0.1,1.6c-9.9,0-19.6,0-29.6,0
		c0-1,0-2.8,0-3.9c0-14.6,0.1-29.2,0-43.8c0-3.3-0.4-6.6-1.2-9.7c-2.8-10.3-14.5-14.1-23.1-7.6c-4.6,3.5-6.8,8.3-6.8,14.2
		c0.1,15.5,0,31.1,0,46.6c0,1.2,0,2.3,0,4.3c-10,0-19,0-29,0c0-30,0-59,0-89c10,0,19,0,29,0c0,4,0,7.1,0,10.7c1,0.2,0.7,0.5,1,0.7
		c0.2-0.6,0.3-1.2,0.7-1.6c8.2-11.1,19.5-13.8,32.3-11.5c12.5,2.3,20.6,10,24.2,22c1.5,5.1,2.4,10.6,2.5,15.8
		C210.6,173.8,210.4,191,210.4,208.1z"/>
</g>
<g id="git" class="st0">
	<path class="st1" d="M272.1,133.2L151.4,12.5c-5.7-5.7-15-5.7-20.7,0L10,133.2c-5.7,5.7-5.7,15,0,20.7l120.7,120.7
		c5.7,5.7,15,5.7,20.7,0l120.7-120.7C277.8,148.2,277.8,138.9,272.1,133.2z M198.3,159.2c-8.6,0-15.6-7-15.6-15.6
		c0-0.8,0-1.5,0.1-2.2l-26.7-26.7v67.6c4,2.8,6.3,7.4,6.3,12.5c0,8.6-7,15.6-15.6,15.6c-8.6,0-15.8-7-15.8-15.6
		c0-5.1,3.1-9.6,6.1-12.5V96L92.7,51.4l13.3-13.2l90,90c0.7-0.1,1.5-0.2,2.2-0.2c8.6,0,15.6,7,15.6,15.6S206.9,159.2,198.3,159.2z"
		/>
</g>
</svg>

