<?xml version="1.0" encoding="utf-8"?>
<!-- Generator: Adobe Illustrator 19.2.0, SVG Export Plug-In . SVG Version: 6.00 Build 0)  -->
<svg version="1.1" xmlns="http://www.w3.org/2000/svg" xmlns:xlink="http://www.w3.org/1999/xlink" x="0px" y="0px"
	 viewBox="0 0 1200 400" style="enable-background:new 0 0 1200 400;" xml:space="preserve">
<style type="text/css">
	.st0{opacity:0.31;fill:url(#SVGID_1_);}
	.st1{fill:#FFFFFF;}
</style>
<g id="Layer_1">
	
		<image style="overflow:visible;" width="1920" height="1280" xlink:href="C:\Users\Sandy\Downloads\water-blue-ocean.jpg"  transform="matrix(0.625 0 0 0.313 0 -0.289)">
	</image>
</g>
<g id="Layer_3">
	<linearGradient id="SVGID_1_" gradientUnits="userSpaceOnUse" x1="2.728484e-012" y1="200" x2="1210.379" y2="200">
		<stop  offset="0" style="stop-color:#0000FF"/>
		<stop  offset="1" style="stop-color:#1B1464"/>
	</linearGradient>
	<rect x="0" y="-0.3" class="st0" width="1210.4" height="400.6"/>
</g>
<g id="Layer_2">
	<g>
		<path class="st1" d="M175.4,176.9c10-3.2,19.3-6.4,28.7-9.2c17.5-5.3,35.3-9.5,53.6-11.1c9.9-0.9,19.8-1.1,29.6,1.4
			c15.5,3.9,19.8,14.6,11.4,28.2c-6.2,10.1-15.2,17.6-24.5,24.7c-19.8,15.1-41.8,26.5-64.5,36.4c-25.6,11.1-51.6,20.8-78.9,27
			c-14.6,3.4-29.3,5.7-44.4,5.2c-6.9-0.2-13.6-1-20-3.8c-11.2-4.9-14.5-14.2-8.8-25c5.1-9.6,12.9-16.9,21.2-23.7
			c15-12.2,31.9-21.3,49.1-29.9c6.8-3.4,13.4-7.2,20.1-11c1.6-0.9,3-2.4,4.2-3.9c0.5-0.6,0.8-2,0.5-2.7c-0.3-0.7-1.5-1-2.4-1.2
			c-1.7-0.3-3.4-0.5-5.2-0.7c-0.1-0.4-0.2-0.7-0.2-1.1c1-0.7,2-1.7,3.1-2.1c8.9-3.5,18-5.7,27.6-5.6c1.2,0,2.8,0.5,3.3,1.3
			c0.4,0.6-0.5,2.2-1.1,3.3C177.3,174.6,176.5,175.5,175.4,176.9z M86.6,247.6c2,0,3.1-0.1,4.3,0c4.9,0.3,9.8,0.5,14.7,0.9
			c2.9,0.2,6.4,1.8,8.7,0.7c2.3-1.1,3.5-4.7,5-7.3c1.9-3.2,3.6-6.6,5.5-9.8c1-1.6,2.7-2.7,4.3-1.6c0.8,0.5,1.1,3,0.6,4
			c-1.5,2.8-3.5,5.5-5.5,8c-2.1,2.6-4.6,5-7.3,7.9c4.1,1.6,7.4,2.8,10.6,4.2c2.6,1.1,2.7,2,0.6,3.8c-1.6,1.4-3.3,2.6-4.9,3.9
			c0.1,0.2,0.2,0.5,0.3,0.7c4.6-0.4,9.3-0.4,13.8-1.1c3.9-0.6,7.3-2.5,10-5.7c1.3-1.6,1.8-2.9,0.9-4.9c-2-4.7-3.8-9.4-5.7-14.2
			c-2-5-4.1-9.9-5.9-15c-0.4-1.1-0.2-3,0.5-3.7c0.7-0.7,2.8-0.7,3.7-0.2c1.6,1,3.1,2.5,4.2,4.1c1.3,1.9,1.9,4.1,3.1,6.1
			c0.4,0.6,1.6,1.3,2.2,1.1c4.4-1.5,8.6-3.3,13.1-5c-0.4-1-0.6-1.9-0.9-2.7c-1.6-4.2-3.3-8.3-4.8-12.5c-0.3-0.9-0.4-2.8,0-2.9
			c1-0.4,2.7-0.7,3.4-0.1c1.7,1.2,3.6,2.8,4.4,4.6c4.9,11.1,9.5,22.2,14.1,33.4c0.6,1.4,0.1,3.3,0.1,4.9c14.1-5.2,28.4-11.2,42-18.5
			c10.5-5.6,20.4-12,29.5-19.7c1.3-1.1,1.6-2.1,0.9-3.7c-1.6-3.6-2.9-7.2-4.4-10.9c-2.2-5.6-2.3-5.8-8.2-4.5
			c-11.5,2.5-23.1,5.1-34.5,8c-5,1.3-9.9,3.2-14.7,5c-3,1.1-3.2,2-2,5c1.9,4.9,3.9,9.8,5.8,14.7c1.9,4.8,2.7,5.1,7.6,3.4
			c0.5-0.2,1-0.4,1.5-0.6c9.5-3.6,19.1-7.2,28.6-10.7c1.6-0.6,3.3-0.6,5-0.8c0.1,0.3,0.2,0.6,0.3,0.9c-0.4,0.5-0.7,1.3-1.3,1.6
			c-3.5,1.5-6.9,3.1-10.5,4.3c-3,1-6.2,1.2-9.2,2.2c-10.1,3.2-19.8,7.4-29.1,12.3c-1.5,0.8-3.2,1.1-4.8,1.7
			c-0.1-0.3-0.2-0.6-0.4-0.9c1.6-1.1,3.2-2.3,4.8-3.4c3.8-2.7,4.8-4.4,3.1-8.8c-2-5.1-4.7-10-7.3-14.9c-1.4-2.6-1.2-4.8,0.6-6.8
			c1.2-1.3,2.9-2.3,4.5-2.8c5.2-1.6,10.5-3.2,15.8-4.3c13.7-2.8,27.4-5.3,41.3-8c-2.2-5.4-4.5-11.3-6.9-17.2
			c-0.2-0.5-1.1-0.9-1.7-0.9c-2-0.1-3.7,0.4-5.6,1.7c-3.5,2.3-7.5,4-11.6,5.3c-8.7,2.7-17.6,4.6-26.2,7.5
			c-17.7,5.9-35.2,12.2-52.8,18.4c-1.9,0.7-3.7,1.6-5.5,2.4c-1.8,0.9-2.5,2.3-2.2,4.3c0.4,2.3,0.4,4.7,0.9,7
			c0.6,2.7-0.4,4.3-2.9,5.3c-8.9,3.2-17.7,6.6-26.6,9.8c-1.6,0.6-3.4,0.6-5,0.9c-0.1-0.2-0.1-0.5-0.2-0.7c1-0.5,2.1-1,3.1-1.4
			c4.5-2,8.9-4.1,13.4-6.1c3-1.3,4.6-3.2,3.9-6.8c-0.3-1.6-0.1-3.4-0.1-5.6c-11.7,7.7-22.4,15.5-29.1,27.4
			C88.1,242.2,87.6,244.6,86.6,247.6z M149.9,257.6c0.1,0.2,0.2,0.4,0.3,0.7c4.4-1.2,8.8-2.2,13.1-3.7c2.2-0.7,4.2-2.2,6.1-3.5
			c1.8-1.2,2.3-2.7,1.3-4.9c-2.2-5-4.1-10.1-6.2-15.2c-0.6-1.4-1.2-2.8-1.9-4.4c-5.1,1.9-9.8,3.8-14.9,5.7
			c3.2,7.3,3.7,15.4,10.5,20.8C155.5,254.8,152.7,256.2,149.9,257.6z M260.3,202.1c5.2-6.8,10-13.2,6.3-21.7
			c-2.4-5.6-11.3-9.9-18.8-9.3C251.9,181.3,256,191.4,260.3,202.1z M120.5,258.7c-0.2-0.3-0.4-0.6-0.6-0.7c-9.5-5.3-19.8-8-30.6-8.8
			c-1.9-0.1-1.7,1.1-1.2,2.4c1.6,3.9,4.3,6.6,8.2,8.3c5.6,2.3,11.4,2.7,17.3,3.1C117.2,263.2,118.9,261.3,120.5,258.7z M220.3,172.8
			c-30.2,5.3-58.3,16.5-85.2,30.6C163.4,193.2,191.8,183,220.3,172.8z"/>
		<path class="st1" d="M42.3,197.3c1.3-0.6,2.4-1.5,3.8-1.9c15.8-5.5,31.5-11.2,47.5-16.3c48.7-15.4,97.8-29.6,147.3-42.2
			c9-2.3,18.1-4.1,27.1-6.1c1.4-0.3,3-0.3,4.5-0.4c0.1,0.2,0.2,0.5,0.3,0.7c-1.2,0.6-2.4,1.4-3.7,1.9c-16.1,5.6-32,11.5-48.2,16.6
			c-50.1,15.8-100.6,30.4-151.6,43.1c-7.6,1.9-15.3,3.4-22.9,5c-1.2,0.3-2.5,0.2-3.7,0.3C42.4,197.8,42.4,197.6,42.3,197.3z"/>
		<path class="st1" d="M132.4,163.3c2.1-1.9,4-4.2,6.4-5.7c10-6.6,20-13.4,30.4-19.3c10.5-5.9,21.6-10.8,32.5-16
			c2.1-1,4.5-1.2,6.8-1.8c0.2,0.3,0.3,0.6,0.5,1c-0.7,0.9-1.2,2-2,2.6c-5,3.8-9.9,7.8-15.1,11.2c-15.5,10.1-31.6,19.1-48.7,26.4
			c-2.5,1.1-5.1,1.8-7.7,2.6c-0.8,0.2-1.7,0-2.6,0C132.7,163.9,132.5,163.6,132.4,163.3z"/>
	</g>
</g>
</svg>
