<?xml version="1.0" encoding="utf-8"?>
<!-- Generator: Adobe Illustrator 19.2.0, SVG Export Plug-In . SVG Version: 6.00 Build 0)  -->
<svg version="1.1" id="Layer_1" xmlns="http://www.w3.org/2000/svg" xmlns:xlink="http://www.w3.org/1999/xlink" x="0px" y="0px"
	 viewBox="0 0 626.1 600" style="enable-background:new 0 0 626.1 600;" xml:space="preserve">
<style type="text/css">
	.st0{display:none;}
	.st1{fill:#330000;}
</style>
<g id="Layer_2" class="st0">
	
		<image style="display:inline;overflow:visible;enable-background:new    ;" width="1000" height="407" xlink:href="background.png"  transform="matrix(0.8906 0 0 1.0255 -73.9516 96.291)">
	</image>
</g>
<g id="Layer_3">
</g>
<g id="logo">
	<g>
		<path class="st1" d="M357.6,223.7c1.4,0.4,10.1,27,19.5,59.6s16,58.7,14.6,58.3c-1.4-0.4-10.1-27-19.5-59.6
			C362.7,249.4,356.2,223.3,357.6,223.7z"/>
		<path class="st1" d="M333.2,347.1c-10.6,6.1-20.5,10.6-22.1,10s5.7-6.1,16.4-12.2c10.6-6.1,20.5-10.6,22.1-10
			S343.9,341,333.2,347.1z"/>
		<path class="st1" d="M273.7,336.6c-0.6,1.6-6.1-5.7-12.2-16.4c-6.1-10.6-10.6-20.5-10-22.1s6.1,5.7,12.2,16.4
			C269.8,325.1,274.3,335,273.7,336.6z"/>
		<path class="st1" d="M292.8,252.9c10.6-6.1,20.5-10.6,22.1-10s-5.7,6.1-16.4,12.2c-10.6,6.1-20.5,10.6-22.1,10
			C274.9,264.5,282.2,259,292.8,252.9z"/>
		<path class="st1" d="M335.1,291.8c2.6,4.4,4.4,8.6,4.2,9.2c-0.3,0.7-2.5-2.4-5.1-6.8s-4.4-8.6-4.2-9.2
			C330.3,284.3,332.5,287.3,335.1,291.8z"/>
		<path class="st1" d="M332.2,268.3c0.6,0.2,4.2,11.3,8.2,24.9c3.9,13.6,6.7,24.5,6.1,24.4c-0.6-0.2-4.2-11.3-8.2-24.9
			C334.3,279.1,331.6,268.2,332.2,268.3z"/>
		<path class="st1" d="M322,296.7c1,1.7,1.7,3.2,1.6,3.5s-1-0.9-1.9-2.6c-1-1.7-1.7-3.2-1.6-3.5C320.2,293.9,321,295,322,296.7z"/>
		<path class="st1" d="M320.9,287.8c0.2,0.1,1.6,4.3,3.1,9.4c1.5,5.2,2.5,9.3,2.3,9.2c-0.2-0.1-1.6-4.3-3.1-9.4
			C321.7,291.9,320.7,287.8,320.9,287.8z"/>
		<path class="st1" d="M311,291.3c-5.2,1.5-9.3,2.5-9.2,2.3c0.1-0.2,4.3-1.6,9.4-3.1c5.2-1.5,9.3-2.5,9.2-2.3
			C320.4,288.4,316.1,289.8,311,291.3z"/>
		<path class="st1" d="M316.1,307.1c1.7-1,3.2-1.7,3.5-1.6s-0.9,1-2.6,1.9s-3.2,1.7-3.5,1.6C313.3,308.9,314.4,308,316.1,307.1z"/>
		<path class="st1" d="M311.5,292.8c-1.7,1-3.2,1.7-3.5,1.6s0.9-1,2.6-1.9c1.7-1,3.2-1.7,3.5-1.6S313.2,291.8,311.5,292.8z"/>
		<path class="st1" d="M307.5,281.4c-4.4,2.6-8.6,4.4-9.2,4.2c-0.7-0.3,2.4-2.5,6.8-5.1s8.6-4.4,9.2-4.2
			C315,276.6,311.9,278.8,307.5,281.4z"/>
		<path class="st1" d="M303.7,302.6c-1.5-5.2-2.5-9.3-2.3-9.2c0.2,0.1,1.6,4.3,3.1,9.4c1.5,5.2,2.5,9.3,2.3,9.2
			C306.6,312,305.2,307.7,303.7,302.6z"/>
		<path class="st1" d="M305.7,303.1c-1-1.7-1.7-3.2-1.6-3.5s1,0.9,1.9,2.6c1,1.7,1.7,3.2,1.6,3.5S306.6,304.8,305.7,303.1z"/>
		<path class="st1" d="M316.7,308.6c5.2-1.5,9.3-2.5,9.2-2.3c-0.1,0.2-4.3,1.6-9.4,3.1c-5.2,1.5-9.3,2.5-9.2,2.3
			C307.3,311.5,311.5,310.1,316.7,308.6z"/>
		<path class="st1" d="M319.6,319c4.4-2.6,8.6-4.4,9.2-4.2c0.7,0.3-2.4,2.5-6.8,5.1s-8.6,4.4-9.2,4.2
			C312.1,323.9,315.1,321.6,319.6,319z"/>
		<path class="st1" d="M306,277.4c-13.6,3.9-24.5,6.7-24.4,6.1c0.2-0.6,11.3-4.2,24.9-8.2s24.5-6.7,24.4-6.1S319.6,273.4,306,277.4z
			"/>
		<path class="st1" d="M286.7,307.2c-3.9-13.6-6.7-24.5-6.1-24.4c0.6,0.2,4.2,11.3,8.2,24.9c3.9,13.6,6.7,24.5,6.1,24.4
			C294.3,332,290.7,320.8,286.7,307.2z"/>
		<path class="st1" d="M292,308.7c-2.6-4.4-4.4-8.6-4.2-9.2c0.3-0.7,2.5,2.4,5.1,6.8s4.4,8.6,4.2,9.2
			C296.8,316.2,294.5,313.1,292,308.7z"/>
		<path class="st1" d="M321.1,323.1c13.6-3.9,24.5-6.7,24.4-6.1c-0.2,0.6-11.3,4.2-24.9,8.2c-13.6,3.9-24.5,6.7-24.4,6.1
			C296.3,330.7,307.4,327,321.1,323.1z"/>
		<path class="st1" d="M362.4,285.5c-6.1-10.6-10.6-20.5-10-22.1s6.1,5.7,12.2,16.4c6.1,10.6,10.6,20.5,10,22.1
			S368.6,296.1,362.4,285.5z"/>
		<path class="st1" d="M354.6,225.8c-0.4,1.4-27,10.1-59.6,19.5s-58.7,16-58.3,14.6s27-10.1,59.6-19.5S355,224.4,354.6,225.8z"/>
		<path class="st1" d="M268.5,376.3c-1.4-0.4-10.1-27-19.5-59.6s-16-58.7-14.6-58.3c1.4,0.4,10.1,27,19.5,59.6
			S269.9,376.7,268.5,376.3z"/>
		<path class="st1" d="M271.4,374.2c0.4-1.4,27-10.1,59.6-19.5s58.7-16,58.3-14.6c-0.4,1.4-27,10.1-59.6,19.5
			C297.2,369,271.1,375.6,271.4,374.2z"/>
		<g>
			<path class="st1" d="M310.4,288.2L310.4,288.2c-0.1,0-0.1,0-0.2,0.1C310.3,288.3,310.4,288.2,310.4,288.2z"/>
			<path class="st1" d="M309.4,288.8L309.4,288.8L309.4,288.8z"/>
			<path class="st1" d="M319.3,282.2c-0.5-0.7-1.7-0.9-3.5-0.8c-2,0.2-4.5,0.9-7.4,2c-2.9,1.2-5.2,2.4-6.8,3.7c-1.5,1.2-2.1,2.2-2,3
				c0.2,0.8,1.1,1.2,2.8,1.2c0.4,0,0.9,0,1.3-0.1c0.3,0,0.6-0.1,1-0.1c1.5-0.3,3.2-0.8,5.2-1.5l-0.1,0.2c-0.2,0.2-0.2,0.3-0.2,0.4
				c0.1,0.1,0.5,0.1,1.2,0c0.8-0.2,1.2-0.3,1.5-0.4c0.2-0.2,0.1-0.2-0.4-0.2c-0.2-0.1-0.2-0.3,0.1-0.5c0.2-0.2,0.6-0.4,1.1-0.7
				l0.3-0.1c2.5-1.2,4.3-2.4,5.4-3.5C319.5,283.7,319.8,282.9,319.3,282.2z M310.6,288.9c-4,1.6-7.7,1.9-8.3,0.5
				c-0.5-1.3,2.3-3.7,6.3-5.4c4-1.6,7.7-1.9,8.3-0.5C317.4,284.9,314.6,287.3,310.6,288.9z"/>
		</g>
		<g>
			<path class="st1" d="M327.9,253.4c-1.4-1.7-4.5-2.4-9.3-2c-5.4,0.5-11.9,2.3-19.6,5.3c-7.7,3.1-13.7,6.4-18,9.8
				c-3.9,3.2-5.7,5.8-5.3,7.9c0.5,2.2,2.9,3.2,7.4,3.2c1.1,0,2.3-0.1,3.5-0.2c0.8-0.1,1.7-0.2,2.6-0.4c3.9-0.7,8.5-2,13.7-3.9
				l-0.4,0.5c-0.5,0.5-0.6,0.8-0.5,1c0.2,0.3,1.2,0.3,3.1,0c2-0.4,3.3-0.8,3.9-1.2c0.6-0.4,0.2-0.6-1.1-0.6
				c-0.5-0.3-0.4-0.7,0.2-1.3c0.6-0.5,1.5-1.1,2.8-1.8l0.7-0.3c6.6-3.1,11.4-6.2,14.3-9.3C328.6,257.4,329.2,255.1,327.9,253.4z
				 M304.9,271.2c-10.6,4.3-20.4,4.9-21.8,1.4s6-9.9,16.6-14.2c10.6-4.3,20.4-4.9,21.8-1.4S315.5,266.9,304.9,271.2z"/>
			<path class="st1" d="M304.5,269.3L304.5,269.3c-0.1,0.1-0.3,0.1-0.4,0.2C304.2,269.4,304.4,269.4,304.5,269.3z"/>
			<path class="st1" d="M301.9,270.9L301.9,270.9L301.9,270.9L301.9,270.9z"/>
		</g>
		<g>
			<path class="st1" d="M291.5,226.1L291.5,226.1c-0.3,0.1-0.7,0.3-1,0.4C290.8,226.4,291.2,226.2,291.5,226.1z"/>
			<path class="st1" d="M285.1,229.9C285.1,229.9,285.2,229.9,285.1,229.9L285.1,229.9C285.2,229.9,285.1,229.9,285.1,229.9z"/>
			<path class="st1" d="M347.3,188.2c-3.3-4.1-10.7-5.7-22.2-4.8c-12.8,1.1-28.5,5.4-47,12.8c-18.5,7.4-32.8,15.2-43,23.5
				c-9.3,7.6-13.5,13.9-12.7,19c1.1,5.2,7,7.7,17.7,7.6c2.6,0,5.4-0.2,8.4-0.6c2-0.2,4-0.5,6.1-0.9c9.4-1.7,20.4-4.8,32.9-9.3
				l-0.9,1.3c-1.1,1.2-1.5,2-1.2,2.4c0.5,0.7,3,0.8,7.4,0.1c4.7-1,7.9-1.9,9.3-2.8c1.5-1,0.6-1.5-2.7-1.5c-1.2-0.6-1-1.6,0.5-3
				c1.4-1.2,3.6-2.7,6.7-4.3l1.8-0.8c15.9-7.5,27.3-14.8,34.1-22.2C349,197.7,350.5,192.2,347.3,188.2z M292.4,230.6
				c-25.4,10.3-48.7,11.8-52.1,3.4c-3.4-8.4,14.3-23.7,39.7-34s48.7-11.8,52.1-3.4C335.5,205,317.8,220.3,292.4,230.6z"/>
		</g>
		<path class="st1" d="M247.2,390.6c-5.1,0.9-11.4-3.4-19-12.7c-8.2-10.2-16.1-24.6-23.5-43c-7.4-18.5-11.6-34.1-12.8-47
			c-0.9-11.5,0.7-18.9,4.8-22.2c4.1-3.3,9.5-1.7,16.3,4.7c7.3,6.8,14.7,18.2,22.2,34.1l0.8,1.8c1.7,3.1,3.1,5.3,4.3,6.7
			c1.4,1.5,2.4,1.7,3,0.5c0-3.3,0.5-4.1,1.5-2.7c0.9,1.5,1.9,4.6,2.8,9.3c0.7,4.4,0.6,6.9-0.1,7.4c-0.4,0.4-1.2,0-2.4-1.2l-1.3-0.9
			c4.5,12.5,7.6,23.4,9.3,32.9c0.4,2.1,0.7,4.2,0.9,6.1c0.4,3,0.6,5.8,0.6,8.4C254.8,383.5,252.3,389.5,247.2,390.6z M205.2,280.9
			c-8.4,3.4-6.9,26.8,3.4,52.1c10.3,25.4,25.5,43.1,34,39.7c8.4-3.4,6.9-26.8-3.4-52.1C228.8,295.3,213.6,277.5,205.2,280.9z"/>
		<path class="st1" d="M304.5,310.1c0-0.3-0.1-0.6-0.1-1c-0.3-1.5-0.8-3.2-1.5-5.2l0.2,0.1c0.2,0.2,0.3,0.2,0.4,0.2
			c0.1-0.1,0.1-0.5,0-1.2c-0.2-0.8-0.3-1.2-0.4-1.5c-0.2-0.2-0.2-0.1-0.2,0.4c-0.1,0.2-0.3,0.2-0.5-0.1c-0.2-0.2-0.4-0.6-0.7-1.1
			l-0.1-0.3c-1.2-2.5-2.4-4.3-3.5-5.4c-1.1-1-1.9-1.3-2.6-0.7c-0.7,0.5-0.9,1.7-0.8,3.5c0.2,2,0.9,4.5,2,7.4
			c1.2,2.9,2.4,5.2,3.7,6.8c1.2,1.5,2.2,2.1,3,2c0.8-0.2,1.2-1.1,1.2-2.8C304.6,311.1,304.6,310.6,304.5,310.1z M302.7,311.5
			c-1.3,0.5-3.7-2.3-5.4-6.3c-1.6-4-1.9-7.7-0.5-8.3c1.3-0.5,3.7,2.3,5.4,6.3C303.8,307.2,304,310.9,302.7,311.5z"/>
		<path class="st1" d="M333,301.8c-0.2-2-0.9-4.5-2-7.4c-1.2-2.9-2.4-5.2-3.7-6.8c-1.2-1.5-2.2-2.1-3-2c-0.8,0.2-1.2,1.1-1.2,2.8
			c0,0.4,0,0.9,0.1,1.3c0,0.3,0.1,0.6,0.1,1c0.3,1.5,0.8,3.2,1.5,5.2l-0.2-0.1c-0.2-0.2-0.3-0.2-0.4-0.2c-0.1,0.1-0.1,0.5,0,1.2
			c0.2,0.8,0.3,1.2,0.4,1.5c0.2,0.2,0.2,0.1,0.2-0.4c0.1-0.2,0.3-0.2,0.5,0.1c0.2,0.2,0.4,0.6,0.7,1.1l0.1,0.3
			c1.2,2.5,2.4,4.3,3.5,5.4c1.1,1,1.9,1.3,2.6,0.7C332.9,304.8,333.2,303.7,333,301.8z M330.9,303c-1.3,0.5-3.7-2.3-5.4-6.3
			c-1.6-4-1.9-7.7-0.5-8.3c1.3-0.5,3.7,2.3,5.4,6.3C332,298.7,332.3,302.4,330.9,303z"/>
		<path class="st1" d="M328.2,309.7c-0.2-0.8-1.1-1.2-2.8-1.2c-0.4,0-0.9,0-1.3,0.1c-0.3,0-0.6,0.1-1,0.1c-1.5,0.3-3.2,0.8-5.2,1.5
			l0.1-0.2c0.2-0.2,0.2-0.3,0.2-0.4c-0.1-0.1-0.5-0.1-1.2,0c-0.8,0.2-1.2,0.3-1.5,0.4c-0.2,0.2-0.1,0.2,0.4,0.2
			c0.2,0.1,0.2,0.3-0.1,0.5c-0.2,0.2-0.6,0.4-1.1,0.7l-0.3,0.1c-2.5,1.2-4.3,2.4-5.4,3.5c-1,1.1-1.3,1.9-0.7,2.6
			c0.5,0.7,1.7,0.9,3.5,0.8c2-0.2,4.5-0.9,7.4-2c2.9-1.2,5.2-2.4,6.8-3.7C327.7,311.5,328.3,310.5,328.2,309.7z M319.1,315.8
			c-4,1.6-7.7,1.9-8.3,0.5c-0.5-1.3,2.3-3.7,6.3-5.4c4-1.6,7.7-1.9,8.3-0.5C325.9,311.7,323.1,314.1,319.1,315.8z"/>
		<path class="st1" d="M288.9,327.2c-0.1-0.8-0.2-1.7-0.4-2.6c-0.7-3.9-2-8.5-3.9-13.7l0.5,0.4c0.5,0.5,0.8,0.6,1,0.5
			c0.3-0.2,0.3-1.2,0-3.1c-0.4-2-0.8-3.3-1.2-3.9c-0.4-0.6-0.6-0.2-0.6,1.1c-0.3,0.5-0.7,0.4-1.3-0.2c-0.5-0.6-1.1-1.5-1.8-2.8
			l-0.3-0.7c-3.1-6.6-6.2-11.4-9.3-14.3c-2.8-2.7-5.1-3.3-6.8-2c-1.7,1.4-2.4,4.5-2,9.3c0.5,5.4,2.3,11.9,5.3,19.6
			c3.1,7.7,6.4,13.7,9.8,18c3.2,3.9,5.8,5.7,7.9,5.3c2.2-0.5,3.2-2.9,3.2-7.4C289.1,329.6,289.1,328.4,288.9,327.2z M284,330.7
			c-3.5,1.4-9.9-6-14.2-16.6c-4.3-10.6-4.9-20.4-1.4-21.8s9.9,6,14.2,16.6C286.9,319.5,287.6,329.2,284,330.7z"/>
		<path class="st1" d="M429.3,334.3c-4.1,3.3-9.5,1.7-16.3-4.7c-7.3-6.8-14.7-18.2-22.2-34.1l-0.8-1.8c-1.7-3.1-3.1-5.3-4.3-6.7
			c-1.4-1.5-2.4-1.7-3-0.5c0,3.3-0.5,4.1-1.5,2.7c-0.9-1.5-1.9-4.6-2.8-9.3c-0.7-4.4-0.6-6.9,0.1-7.4c0.4-0.4,1.2,0,2.4,1.2l1.3,0.9
			c-4.5-12.5-7.6-23.4-9.3-32.9c-0.4-2.1-0.7-4.2-0.9-6.1c-0.4-3-0.6-5.8-0.6-8.4c-0.1-10.7,2.4-16.6,7.6-17.7
			c5.1-0.9,11.4,3.4,19,12.7c8.2,10.2,16.1,24.6,23.5,43c7.4,18.5,11.6,34.1,12.8,47C435.1,323.6,433.5,331,429.3,334.3z
			 M383.6,227.2c-8.4,3.4-6.9,26.8,3.4,52.1c10.3,25.4,25.5,43.1,34,39.7c8.4-3.4,6.9-26.8-3.4-52.1
			C407.2,241.6,392,223.8,383.6,227.2z"/>
		<path class="st1" d="M351.4,325.9c-0.5-2.2-2.9-3.2-7.4-3.2c-1.1,0-2.3,0.1-3.5,0.2c-0.8,0.1-1.7,0.2-2.6,0.4
			c-3.9,0.7-8.5,2-13.7,3.9l0.4-0.5c0.5-0.5,0.6-0.8,0.5-1c-0.2-0.3-1.2-0.3-3.1,0c-2,0.4-3.3,0.8-3.9,1.2c-0.6,0.4-0.2,0.6,1.1,0.6
			c0.5,0.3,0.4,0.7-0.2,1.3c-0.6,0.5-1.5,1.1-2.8,1.8l-0.7,0.3c-6.6,3.1-11.4,6.2-14.3,9.3c-2.7,2.8-3.3,5.1-2,6.8
			c1.4,1.7,4.5,2.4,9.3,2c5.4-0.5,11.9-2.3,19.6-5.3c7.7-3.1,13.7-6.4,18-9.8C350,330.7,351.8,328,351.4,325.9z M327.4,342.1
			c-10.6,4.3-20.4,4.9-21.8,1.4s6-9.9,16.6-14.2c10.6-4.3,20.4-4.9,21.8-1.4S338,337.7,327.4,342.1z"/>
		<path class="st1" d="M390.9,380.4c-10.2,8.2-24.6,16.1-43,23.5c-18.5,7.4-34.1,11.6-47,12.8c-11.5,0.9-18.9-0.7-22.2-4.8
			c-3.3-4.1-1.7-9.5,4.7-16.3c6.8-7.3,18.2-14.7,34.1-22.2l1.8-0.8c3.1-1.7,5.3-3.1,6.7-4.3c1.5-1.4,1.7-2.4,0.5-3
			c-3.3,0-4.1-0.5-2.7-1.5c1.5-0.9,4.6-1.9,9.3-2.8c4.4-0.7,6.9-0.6,7.4,0.1c0.4,0.4,0,1.2-1.2,2.4l-0.9,1.3
			c12.5-4.5,23.4-7.6,32.9-9.3c2.1-0.4,4.2-0.7,6.1-0.9c3-0.4,5.8-0.6,8.4-0.6c10.7-0.1,16.6,2.4,17.7,7.6
			C404.5,366.5,400.3,372.8,390.9,380.4z M333.7,369.4c-25.4,10.3-43.1,25.5-39.7,34c3.4,8.4,26.8,6.9,52.1-3.4s43.1-25.5,39.7-34
			C382.4,357.6,359,359.1,333.7,369.4z"/>
		<path class="st1" d="M364.2,305.3c-0.5-5.4-2.3-11.9-5.3-19.6c-3.1-7.7-6.4-13.7-9.8-18c-3.2-3.9-5.8-5.7-7.9-5.3
			c-2.2,0.5-3.2,2.9-3.2,7.4c0,1.1,0.1,2.3,0.2,3.5c0.1,0.8,0.2,1.7,0.4,2.6c0.7,3.9,2,8.5,3.9,13.7l-0.5-0.4
			c-0.5-0.5-0.8-0.6-1-0.5c-0.3,0.2-0.3,1.2,0,3.1c0.4,2,0.8,3.3,1.2,3.9c0.4,0.6,0.6,0.2,0.6-1.1c0.3-0.5,0.7-0.4,1.3,0.2
			c0.5,0.6,1.1,1.5,1.8,2.8l0.3,0.7c3.1,6.6,6.2,11.4,9.3,14.3c2.8,2.7,5.1,3.3,6.8,2C363.9,313.2,364.6,310.1,364.2,305.3z
			 M358.7,308.2c-3.5,1.4-9.9-6-14.2-16.6c-4.3-10.6-4.9-20.4-1.4-21.8s9.9,6,14.2,16.6C361.6,297,362.2,306.8,358.7,308.2z"/>
	</g>
	<g>
		<path class="st1" d="M424.4,109.2c3.4,0.9,25.3,67.6,48.9,149.1c23.6,81.4,39.9,146.7,36.5,145.8c-3.4-0.9-25.3-67.6-48.9-149.1
			C437.3,173.6,421,108.3,424.4,109.2z"/>
		<path class="st1" d="M363.6,417.8c-26.6,15.4-51.3,26.6-55.2,25.1c-4-1.5,14.4-15.2,40.9-30.5c26.6-15.4,51.3-26.6,55.2-25.1
			C408.5,388.8,390.1,402.5,363.6,417.8z"/>
		<path class="st1" d="M214.6,391.5c-1.5,4-15.2-14.4-30.5-40.9c-15.4-26.6-26.6-51.3-25.1-55.2c1.5-4,15.2,14.4,30.5,40.9
			S216.1,387.5,214.6,391.5z"/>
		<path class="st1" d="M262.5,182.2c26.6-15.4,51.3-26.6,55.2-25.1c4,1.5-14.4,15.2-40.9,30.5c-26.6,15.4-51.3,26.6-55.2,25.1
			C217.6,211.2,235.9,197.5,262.5,182.2z"/>
		<path class="st1" d="M436.6,263.8c-15.4-26.6-26.6-51.3-25.1-55.2c1.5-4,15.2,14.4,30.5,40.9c15.4,26.6,26.6,51.3,25.1,55.2
			C465.6,308.7,452,290.3,436.6,263.8z"/>
		<path class="st1" d="M417.1,114.5c-0.9,3.4-67.6,25.3-149.1,48.9c-81.4,23.6-146.7,39.9-145.8,36.5c0.9-3.4,67.6-25.3,149.1-48.9
			C352.7,127.4,418,111,417.1,114.5z"/>
		<path class="st1" d="M201.7,490.8c-3.4-0.9-25.3-67.6-48.9-149.1c-23.6-81.4-39.9-146.7-36.5-145.8s25.3,67.6,48.9,149.1
			C188.8,426.4,205.1,491.7,201.7,490.8z"/>
		<path class="st1" d="M209,485.5c0.9-3.4,67.6-25.3,149.1-48.9s146.7-39.9,145.8-36.5c-0.9,3.4-67.6,25.3-149.1,48.9
			C273.4,472.6,208.1,489,209,485.5z"/>
		<g>
			<path class="st1" d="M259.3,115.1L259.3,115.1c-0.8,0.3-1.7,0.7-2.6,1.1C257.5,115.8,258.4,115.5,259.3,115.1z"/>
			<path class="st1" d="M243.2,124.7c0,0,0.1,0,0.1-0.1l0,0C243.3,124.6,243.3,124.6,243.2,124.7z"/>
			<path class="st1" d="M398.7,20.3C390.5,10,372,6,343.2,8.3c-32.1,2.8-71.2,13.5-117.4,31.9c-46.2,18.5-82.1,38-107.6,58.7
				c-23.3,18.9-33.9,34.7-31.7,47.5c2.8,12.9,17.6,19.2,44.3,19c6.6-0.1,13.6-0.6,21.1-1.5c4.9-0.6,10-1.4,15.3-2.3
				c23.6-4.2,51-11.9,82.2-23.2l-2.2,3.1c-2.8,3.1-3.8,5-2.9,5.9c1.3,1.8,7.5,1.9,18.5,0.3c11.8-2.4,19.6-4.8,23.4-7.1
				c3.7-2.5,1.4-3.8-6.7-3.7c-3-1.6-2.5-4.1,1.3-7.6c3.4-3.1,9-6.7,16.7-10.8l4.4-2.1c39.6-18.5,68-37,85.1-55.4
				C403,44,406.8,30.5,398.7,20.3z M261.4,126.3c-63.4,25.8-121.8,29.6-130.4,8.4c-8.6-21.1,35.9-59.1,99.3-84.9
				s121.8-29.6,130.4-8.4C369.3,62.5,324.9,100.5,261.4,126.3z"/>
		</g>
		<path class="st1" d="M148.3,526.6c-12.8,2.2-28.6-8.4-47.5-31.7c-20.6-25.5-40.2-61.4-58.7-107.6C23.7,341,13,301.9,10.2,269.8
			c-2.3-28.8,1.6-47.3,12-55.5c10.2-8.1,23.7-4.3,40.7,11.7c18.3,17.1,36.8,45.6,55.5,85.3l2.1,4.4c4.1,7.7,7.7,13.2,10.8,16.7
			c3.5,3.9,6,4.3,7.6,1.3c-0.1-8.1,1.2-10.4,3.7-6.7c2.3,3.7,4.7,11.5,7.1,23.4c1.6,11,1.6,17.2-0.3,18.5c-0.9,0.9-2.9,0-5.9-2.9
			l-3.1-2.2c11.3,31.2,19,58.6,23.2,82.2c0.9,5.3,1.7,10.4,2.3,15.3c0.9,7.5,1.4,14.5,1.5,21.1C167.5,508.9,161.2,523.7,148.3,526.6
			z M43.3,252.3c-21.1,8.6-17.3,67,8.4,130.4c25.8,63.4,63.8,107.9,84.9,99.3s17.3-67-8.4-130.4C102.4,288.2,64.4,243.7,43.3,252.3z
			"/>
		<path class="st1" d="M603.9,385.7c-10.2,8.1-23.7,4.3-40.7-11.7c-18.3-17.1-36.8-45.6-55.5-85.3l-2.1-4.4
			c-4.1-7.7-7.7-13.2-10.8-16.6c-3.5-3.9-6-4.3-7.6-1.3c0.1,8.1-1.2,10.4-3.7,6.7c-2.3-3.7-4.7-11.5-7.1-23.4
			c-1.6-11-1.6-17.2,0.3-18.5c0.9-0.9,2.9,0,5.9,2.9l3.1,2.2c-11.3-31.2-19-58.6-23.2-82.2c-0.9-5.3-1.7-10.4-2.3-15.3
			c-0.9-7.5-1.4-14.5-1.5-21.1c-0.2-26.7,6.1-41.4,19-44.3c12.8-2.2,28.6,8.4,47.5,31.7c20.6,25.5,40.2,61.4,58.7,107.6
			s29.1,85.4,31.9,117.4C618.2,359,614.2,377.5,603.9,385.7z M489.4,118c-21.1,8.6-17.3,67,8.4,130.4
			c25.8,63.4,63.8,107.9,84.9,99.3c21.1-8.6,17.3-67-8.4-130.4S510.5,109.4,489.4,118z"/>
		<path class="st1" d="M507.9,501.1c-25.5,20.6-61.4,40.2-107.6,58.7s-85.4,29.1-117.4,31.9c-28.8,2.3-47.3-1.6-55.5-12
			c-8.1-10.2-4.3-23.7,11.7-40.7c17.1-18.3,45.6-36.8,85.3-55.5l4.4-2.1c7.7-4.1,13.2-7.7,16.7-10.8c3.9-3.5,4.3-6,1.3-7.6
			c-8.1,0.1-10.4-1.2-6.7-3.7c3.7-2.3,11.5-4.7,23.4-7.1c11-1.6,17.2-1.6,18.5,0.3c0.9,0.9,0,2.9-2.9,5.9l-2.2,3.1
			c31.2-11.3,58.6-19,82.2-23.2c5.3-0.9,10.4-1.7,15.3-2.3c7.5-0.9,14.5-1.4,21.1-1.5c26.7-0.2,41.4,6.1,44.3,19
			C541.8,466.4,531.2,482.2,507.9,501.1z M364.7,473.7c-63.4,25.8-107.9,63.8-99.3,84.9c8.6,21.1,67,17.3,130.4-8.4
			c63.4-25.8,107.9-63.8,99.3-84.9C486.5,444.1,428.1,447.9,364.7,473.7z"/>
	</g>
</g>
</svg>
